<svg xmlns="http://www.w3.org/2000/svg" width="148" height="148" viewBox="0 0 148 148">
  <g id="Grupo_23856" data-name="Grupo 23856" transform="translate(-893 -4993)">
    <ellipse id="Elipse_1388" data-name="Elipse 1388" cx="58.513" cy="58.513" rx="58.513" ry="58.513" transform="translate(909.486 5000.237)" fill="#00348d"/>
    <g id="Grupo_23847" data-name="Grupo 23847" transform="translate(934.522 5029.92)">
      <path id="Trazado_9582" data-name="Trazado 9582" d="M251.8,16.49c0,3.189-.12,14.921-.12,14.921H242.37a11.944,11.944,0,0,0-10.16-18.22L226,6.6,232.209,0C243.739,0,251.8,7.383,251.8,16.49Z" transform="translate(-196.276)" fill="#c9556e"/>
      <path id="Trazado_9583" data-name="Trazado 9583" d="M256,0a29.68,29.68,0,0,1,25.23,45.311l-13.4,21.674H256V47.847l10.158-16.432,3.854-6.234A16.488,16.488,0,0,0,256,0Z" transform="translate(-220.067)" fill="#ff6e8d"/>
      <path id="Trazado_9584" data-name="Trazado 9584" d="M106.49,323.64h11.833v19.139l-12.269,19.847H82.39Z" transform="translate(-82.39 -256.654)" fill="#ff6e8d"/>
      <path id="Trazado_9585" data-name="Trazado 9585" d="M256.247,289.295H232.583l-12.269-19.847L211,231.17h9.314Z" transform="translate(-184.381 -183.323)" fill="#ff8ba4"/>
      <path id="Trazado_9586" data-name="Trazado 9586" d="M161.33,16.49c0,3.189.12,14.921.12,14.921h9.314a11.944,11.944,0,0,1,10.16-18.22V0C169.4,0,161.33,7.383,161.33,16.49Z" transform="translate(-144.991)" fill="#e85f7d"/>
      <path id="Trazado_9587" data-name="Trazado 9587" d="M142.28,47.847V86.125L117.05,45.311A29.68,29.68,0,0,1,142.28,0a16.488,16.488,0,0,0-14.012,25.181l3.852,6.232s10.16,16.434,10.16,16.434Z" transform="translate(-106.347)" fill="#ffa2b6"/>
    </g>
    <rect id="Rectángulo_5624" data-name="Rectángulo 5624" width="148" height="148" transform="translate(893 4993)" fill="none"/>
  </g>
</svg>
