<svg xmlns="http://www.w3.org/2000/svg" width="148" height="148" viewBox="0 0 148 148">
  <g id="Grupo_23852" data-name="Grupo 23852" transform="translate(-609 -4661)">
    <g id="Grupo_23849" data-name="Grupo 23849" transform="translate(2.611 23)">
      <circle id="Elipse_1343" data-name="Elipse 1343" cx="61.637" cy="61.637" r="61.637" transform="translate(618.752 4645)" fill="#f579a8"/>
      <g id="Grupo_23749" data-name="Grupo 23749" transform="translate(643.986 4654.782)">
        <path id="Trazado_9504" data-name="Trazado 9504" d="M174.245,324.225H161.169a1.475,1.475,0,0,1-1.475-1.475v-3.091a23.45,23.45,0,0,1-15.356,0v3.091a1.475,1.475,0,0,1-1.475,1.475H129.788a16.349,16.349,0,0,0-16.348,16.348v28.244a1.475,1.475,0,0,0,1.475,1.475h74.2a1.475,1.475,0,0,0,1.475-1.475V340.573a16.347,16.347,0,0,0-16.348-16.348Z" transform="translate(-113.44 -248.111)" fill="#ffe3ee"/>
        <g id="Grupo_23718" data-name="Grupo 23718" transform="translate(0.001 76.114)">
          <path id="Trazado_9505" data-name="Trazado 9505" d="M129.79,335.138a16.349,16.349,0,0,0-16.348,16.348V379.73a1.475,1.475,0,0,0,1.475,1.475h5.105V355.886a2.21,2.21,0,0,1,3.318-1.914v-2.485a16.349,16.349,0,0,1,16.348-16.348Z" transform="translate(-113.442 -335.138)" fill="#ffe3ee"/>
        </g>
        <path id="Trazado_9506" data-name="Trazado 9506" d="M147.276,112.783h4.4A17.806,17.806,0,0,1,169.183,98.1H180.7a17.806,17.806,0,0,1,17.505,14.687h4.4a9.12,9.12,0,0,1,1.318.1V103.2a26.1,26.1,0,0,0-26.1-26.1h-5.779a26.1,26.1,0,0,0-26.1,26.1v9.682A9.116,9.116,0,0,1,147.276,112.783Z" transform="translate(-136.366 -77.102)" fill="#00348d"/>
        <path id="Trazado_9507" data-name="Trazado 9507" d="M147.274,112.784h4.4a17.722,17.722,0,0,1,4.167-8.645v-.94a26.1,26.1,0,0,1,24.042-26.016q-1.017-.079-2.054-.08h-5.779a26.1,26.1,0,0,0-26.1,26.1v9.682a9.088,9.088,0,0,1,1.318-.1Z" transform="translate(-136.365 -77.103)" fill="#011333"/>
        <g id="Grupo_23719" data-name="Grupo 23719" transform="translate(1.516 35.386)">
          <path id="Trazado_9508" data-name="Trazado 9508" d="M132.1,210.98V200.453a17.786,17.786,0,0,1,.328-3.388h-4.455a9.393,9.393,0,0,0-9.393,9.393V209.8a9.393,9.393,0,0,0,9.393,9.393h5.607a23.418,23.418,0,0,1-1.48-8.211Z" transform="translate(-118.581 -197.065)" fill="#ffe3ee"/>
          <path id="Trazado_9509" data-name="Trazado 9509" d="M324.613,197.065h-4.455a17.786,17.786,0,0,1,.328,3.388V210.98a23.425,23.425,0,0,1-1.48,8.211h5.608a9.393,9.393,0,0,0,9.393-9.393v-3.339A9.394,9.394,0,0,0,324.613,197.065Z" transform="translate(-259.886 -197.065)" fill="#ffe3ee"/>
        </g>
        <g id="Grupo_23720" data-name="Grupo 23720" transform="translate(14.742 20.699)">
          <path id="Trazado_9510" data-name="Trazado 9510" d="M187.251,199.71a23.835,23.835,0,0,1-23.835-23.835V165.348a18.075,18.075,0,0,1,18.075-18.075h11.52a18.075,18.075,0,0,1,18.075,18.075v10.527A23.835,23.835,0,0,1,187.251,199.71Z" transform="translate(-163.416 -147.273)" fill="#ffe3ee"/>
        </g>
        <g id="Grupo_23721" data-name="Grupo 23721" transform="translate(14.742 20.699)">
          <path id="Trazado_9511" data-name="Trazado 9511" d="M172.143,175.875V165.348a18.075,18.075,0,0,1,18.075-18.075h-8.726a18.075,18.075,0,0,0-18.075,18.075v10.527a23.821,23.821,0,0,0,28.2,23.429A23.837,23.837,0,0,1,172.143,175.875Z" transform="translate(-163.417 -147.273)" fill="#ffe3ee"/>
        </g>
        <g id="Grupo_23730" data-name="Grupo 23730" transform="translate(24.451 37.168)">
          <g id="Grupo_23723" data-name="Grupo 23723">
            <g id="Grupo_23722" data-name="Grupo 23722">
              <path id="Trazado_9512" data-name="Trazado 9512" d="M198.543,211.333a2.212,2.212,0,0,1-2.212-2.212v-3.8a2.212,2.212,0,1,1,4.425,0v3.8A2.212,2.212,0,0,1,198.543,211.333Z" transform="translate(-196.331 -203.107)" fill="#f579a8"/>
            </g>
          </g>
          <g id="Grupo_23725" data-name="Grupo 23725" transform="translate(23.827)">
            <g id="Grupo_23724" data-name="Grupo 23724">
              <path id="Trazado_9513" data-name="Trazado 9513" d="M279.319,211.333a2.212,2.212,0,0,1-2.212-2.212v-3.8a2.212,2.212,0,1,1,4.425,0v3.8A2.212,2.212,0,0,1,279.319,211.333Z" transform="translate(-277.107 -203.107)" fill="#f579a8"/>
            </g>
          </g>
          <g id="Grupo_23727" data-name="Grupo 23727" transform="translate(8.779 4.024)">
            <g id="Grupo_23726" data-name="Grupo 23726">
              <path id="Trazado_9514" data-name="Trazado 9514" d="M231.439,227.934a2.2,2.2,0,0,1-1.456-.547l-3.135-2.743a2.212,2.212,0,0,1-.288-3.026l3.135-4.019a2.212,2.212,0,0,1,3.489,2.721l-1.849,2.37,1.561,1.366a2.212,2.212,0,0,1-1.457,3.877Z" transform="translate(-226.092 -216.747)" fill="#f579a8"/>
            </g>
          </g>
          <g id="Grupo_23729" data-name="Grupo 23729" transform="translate(6.541 19.467)">
            <g id="Grupo_23728" data-name="Grupo 23728">
              <path id="Trazado_9515" data-name="Trazado 9515" d="M231.332,275.26a2.2,2.2,0,0,1-1.3-.423,6.8,6.8,0,0,0-8.014,0,2.212,2.212,0,1,1-2.6-3.579,11.213,11.213,0,0,1,13.215,0,2.212,2.212,0,0,1-1.3,4Z" transform="translate(-218.507 -269.104)" fill="#f579a8"/>
            </g>
          </g>
        </g>
        <g id="Grupo_23744" data-name="Grupo 23744" transform="translate(13.53 86.6)">
          <g id="Grupo_23738" data-name="Grupo 23738" transform="translate(0 20.638)">
            <path id="Trazado_9539" data-name="Trazado 9539" d="M172.814,449.111a9.62,9.62,0,0,1-3.651-.719l-8.483-3.482a2.212,2.212,0,0,1,1.68-4.093l8.483,3.482a5.194,5.194,0,0,0,3.6.127l4.238-1.4a2.212,2.212,0,0,1,1.389,4.2l-4.238,1.4a9.627,9.627,0,0,1-3.017.485Z" transform="translate(-159.307 -440.65)" fill="#f579a8"/>
          </g>
          <g id="Grupo_23739" data-name="Grupo 23739" transform="translate(0 10.658)">
            <path id="Trazado_9540" data-name="Trazado 9540" d="M172.814,415.278a9.618,9.618,0,0,1-3.651-.719l-8.483-3.482a2.212,2.212,0,1,1,1.68-4.093l8.483,3.482a5.194,5.194,0,0,0,3.6.127l4.239-1.4a2.212,2.212,0,0,1,1.389,4.2l-4.238,1.4a9.627,9.627,0,0,1-3.017.485Z" transform="translate(-159.307 -406.817)" fill="#f579a8"/>
          </g>
          <g id="Grupo_23740" data-name="Grupo 23740" transform="translate(1.889)">
            <path id="Trazado_9541" data-name="Trazado 9541" d="M184.034,377.372a2.206,2.206,0,0,1-1.585-.668l-1.552-1.593H167.924a2.212,2.212,0,0,1,0-4.425h13.282a3.713,3.713,0,0,1,2.644,1.115l1.768,1.814a2.213,2.213,0,0,1-1.584,3.757Z" transform="translate(-165.712 -370.686)" fill="#f579a8"/>
          </g>
          <g id="Grupo_23741" data-name="Grupo 23741" transform="translate(27.469 20.638)">
            <path id="Trazado_9542" data-name="Trazado 9542" d="M261.493,449.133a9.609,9.609,0,0,1-2.885-.442l-4.627-1.457a2.212,2.212,0,0,1,1.329-4.22l4.627,1.457a5.2,5.2,0,0,0,3.529-.149l8.538-3.5a2.212,2.212,0,0,1,1.68,4.093l-8.538,3.5A9.621,9.621,0,0,1,261.493,449.133Z" transform="translate(-252.432 -440.65)" fill="#f579a8"/>
          </g>
          <g id="Grupo_23742" data-name="Grupo 23742" transform="translate(27.469 10.658)">
            <path id="Trazado_9543" data-name="Trazado 9543" d="M261.493,415.3a9.608,9.608,0,0,1-2.885-.442L253.98,413.4a2.212,2.212,0,0,1,1.329-4.221l4.627,1.457a5.2,5.2,0,0,0,3.529-.149l8.538-3.5a2.212,2.212,0,0,1,1.68,4.093l-8.538,3.5A9.621,9.621,0,0,1,261.493,415.3Z" transform="translate(-252.432 -406.817)" fill="#f579a8"/>
          </g>
          <g id="Grupo_23743" data-name="Grupo 23743" transform="translate(27.671 0)">
            <path id="Trazado_9544" data-name="Trazado 9544" d="M255.327,377.372a2.212,2.212,0,0,1-1.584-3.756l1.767-1.814a3.713,3.713,0,0,1,2.645-1.116h13.282a2.212,2.212,0,0,1,0,4.425H258.463l-1.552,1.593a2.206,2.206,0,0,1-1.584.668Z" transform="translate(-253.114 -370.687)" fill="#f579a8"/>
          </g>
        </g>
        <g id="Grupo_23745" data-name="Grupo 23745" transform="translate(6.581 94.65)">
          <path id="Trazado_9545" data-name="Trazado 9545" d="M140.175,425.507V400.188a2.212,2.212,0,0,0-4.425,0v25.319Z" transform="translate(-135.75 -397.976)" fill="#f8cdde"/>
          <path id="Trazado_9546" data-name="Trazado 9546" d="M342.116,425.507V400.188a2.212,2.212,0,0,0-4.425,0v25.319Z" transform="translate(-278.123 -397.976)" fill="#f8cdde"/>
        </g>
      </g>
    </g>
    <rect id="Rectángulo_5620" data-name="Rectángulo 5620" width="148" height="148" transform="translate(609 4661)" fill="none"/>
  </g>
</svg>
