<svg xmlns="http://www.w3.org/2000/svg" width="672.531" height="176.44" viewBox="0 0 672.531 176.44">
  <g id="Grupo_24237" data-name="Grupo 24237" transform="translate(-326.469 -3657.5)">
    <g id="Trazado_10268" data-name="Trazado 10268" transform="translate(583 3698)" fill="none">
      <path d="M12,0H80A12,12,0,0,1,92,12V79A12,12,0,0,1,80,91H12A12,12,0,0,1,0,79V12A12,12,0,0,1,12,0Z" stroke="none"/>
      <path d="M 12 1 C 9.061790466308594 1 6.299453735351563 2.144203186035156 4.221824645996094 4.221824645996094 C 2.144203186035156 6.299453735351563 1 9.061790466308594 1 12 L 1 79 C 1 81.93820190429688 2.144203186035156 84.70054626464844 4.221824645996094 86.77817535400391 C 6.299453735351563 88.85579681396484 9.061790466308594 90 12 90 L 80 90 C 82.93820190429688 90 85.70054626464844 88.85579681396484 87.77817535400391 86.77817535400391 C 89.85579681396484 84.70054626464844 91 81.93820190429688 91 79 L 91 12 C 91 9.061790466308594 89.85579681396484 6.299453735351563 87.77817535400391 4.221824645996094 C 85.70054626464844 2.144203186035156 82.93820190429688 1 80 1 L 12 1 M 12 0 L 80 0 C 86.62741088867188 0 92 5.372573852539063 92 12 L 92 79 C 92 85.62741088867188 86.62741088867188 91 80 91 L 12 91 C 5.372573852539063 91 0 85.62741088867188 0 79 L 0 12 C 0 5.372573852539063 5.372573852539063 0 12 0 Z" stroke="none" fill="#f579a8"/>
    </g>
    <path id="Trazado_10271" data-name="Trazado 10271" d="M9.719-1.492A3.465,3.465,0,0,1,8.105-.254,6.517,6.517,0,0,1,5.7.156,4.674,4.674,0,0,1,3.227-.5,4.346,4.346,0,0,1,1.559-2.352,6.408,6.408,0,0,1,.953-5.141v-.992a5.982,5.982,0,0,1,1.2-3.984,4.179,4.179,0,0,1,3.371-1.414,4.316,4.316,0,0,1,2.867.91A3.965,3.965,0,0,1,9.719-8.039h-1.5A2.478,2.478,0,0,0,5.531-10.3,2.656,2.656,0,0,0,3.246-9.238a5.165,5.165,0,0,0-.785,3.066v.93A4.841,4.841,0,0,0,3.336-2.2,2.837,2.837,0,0,0,5.7-1.07,5.217,5.217,0,0,0,7.18-1.258a2.282,2.282,0,0,0,1.047-.633V-4.445H5.594V-5.664H9.719Zm6.359-5.664a4.331,4.331,0,0,0-.711-.055A1.9,1.9,0,0,0,13.438-6V0H11.992V-8.453H13.4l.023.977a2.251,2.251,0,0,1,2.016-1.133,1.477,1.477,0,0,1,.641.109Zm6.547,6.32a3.07,3.07,0,0,1-2.477.992A2.628,2.628,0,0,1,18.09-.629a3.4,3.4,0,0,1-.715-2.324v-5.5H18.82v5.461q0,1.922,1.563,1.922a2.163,2.163,0,0,0,2.2-1.234V-8.453h1.445V0H22.656Zm10.742-3.3a5.062,5.062,0,0,1-.883,3.109A2.829,2.829,0,0,1,30.094.156,3.1,3.1,0,0,1,27.672-.82V3.25H26.227v-11.7h1.32l.07.938A2.977,2.977,0,0,1,30.07-8.609a2.882,2.882,0,0,1,2.41,1.148,5.117,5.117,0,0,1,.887,3.2ZM31.922-4.3a3.735,3.735,0,0,0-.609-2.258,1.963,1.963,0,0,0-1.672-.828,2.125,2.125,0,0,0-1.969,1.164V-2.18a2.129,2.129,0,0,0,1.984,1.156,1.954,1.954,0,0,0,1.652-.824A4.077,4.077,0,0,0,31.922-4.3Zm2.9-.008a4.993,4.993,0,0,1,.488-2.234A3.643,3.643,0,0,1,36.668-8.07a3.7,3.7,0,0,1,1.988-.539,3.565,3.565,0,0,1,2.793,1.2,4.6,4.6,0,0,1,1.066,3.18v.1a5.036,5.036,0,0,1-.473,2.215A3.589,3.589,0,0,1,40.691-.391a3.743,3.743,0,0,1-2.02.547,3.556,3.556,0,0,1-2.785-1.2A4.575,4.575,0,0,1,34.82-4.2Zm1.453.172a3.616,3.616,0,0,0,.652,2.258,2.088,2.088,0,0,0,1.746.852,2.075,2.075,0,0,0,1.75-.863A3.955,3.955,0,0,0,41.07-4.3a3.61,3.61,0,0,0-.66-2.254,2.1,2.1,0,0,0-1.754-.863,2.075,2.075,0,0,0-1.727.852A3.925,3.925,0,0,0,36.273-4.133ZM47.938-4.3a4.952,4.952,0,0,1,.922-3.129,2.915,2.915,0,0,1,2.414-1.184,2.932,2.932,0,0,1,2.352,1.016V-12H55.07V0H53.742l-.07-.906A2.943,2.943,0,0,1,51.258.156a2.887,2.887,0,0,1-2.395-1.2,5.008,5.008,0,0,1-.926-3.141Zm1.445.164a3.749,3.749,0,0,0,.594,2.25,1.92,1.92,0,0,0,1.641.813A2.108,2.108,0,0,0,53.625-2.3V-6.187a2.125,2.125,0,0,0-1.992-1.2,1.929,1.929,0,0,0-1.656.82A4.128,4.128,0,0,0,49.383-4.133ZM60.82.156a3.693,3.693,0,0,1-2.8-1.129,4.19,4.19,0,0,1-1.078-3.02v-.266a5.073,5.073,0,0,1,.48-2.246A3.748,3.748,0,0,1,58.77-8.051a3.378,3.378,0,0,1,1.871-.559A3.166,3.166,0,0,1,63.2-7.523a4.7,4.7,0,0,1,.914,3.109v.6H58.391a3,3,0,0,0,.73,2.02,2.3,2.3,0,0,0,1.777.77,2.517,2.517,0,0,0,1.3-.312,3.259,3.259,0,0,0,.93-.828l.883.688A3.55,3.55,0,0,1,60.82.156Zm-.18-7.578a1.928,1.928,0,0,0-1.469.637A3.1,3.1,0,0,0,58.438-5h4.234v-.109a2.753,2.753,0,0,0-.594-1.707A1.815,1.815,0,0,0,60.641-7.422ZM5.492,15.4H2.82V20H1.313V8.625H5.078A4.457,4.457,0,0,1,8.035,9.5,3.148,3.148,0,0,1,9.07,12.047,3.062,3.062,0,0,1,8.5,13.9a3.428,3.428,0,0,1-1.6,1.18L9.57,19.906V20H7.961ZM2.82,14.172h2.3A2.6,2.6,0,0,0,6.9,13.594a1.953,1.953,0,0,0,.66-1.547,2.057,2.057,0,0,0-.629-1.617,2.666,2.666,0,0,0-1.816-.57H2.82ZM12.516,20H11.07V11.547h1.445ZM10.953,9.3a.863.863,0,0,1,.215-.594.807.807,0,0,1,.637-.242.819.819,0,0,1,.641.242.854.854,0,0,1,.219.594.826.826,0,0,1-.219.586.834.834,0,0,1-.641.234.821.821,0,0,1-.637-.234A.834.834,0,0,1,10.953,9.3Zm7.383,10.852a3.693,3.693,0,0,1-2.8-1.129,4.19,4.19,0,0,1-1.078-3.02v-.266a5.073,5.073,0,0,1,.48-2.246,3.748,3.748,0,0,1,1.344-1.547,3.378,3.378,0,0,1,1.871-.559,3.166,3.166,0,0,1,2.563,1.086,4.7,4.7,0,0,1,.914,3.109v.6H15.906a3,3,0,0,0,.73,2.02,2.3,2.3,0,0,0,1.777.77,2.517,2.517,0,0,0,1.3-.312,3.259,3.259,0,0,0,.93-.828l.883.688A3.55,3.55,0,0,1,18.336,20.156Zm-.18-7.578a1.928,1.928,0,0,0-1.469.637A3.1,3.1,0,0,0,15.953,15h4.234v-.109a2.753,2.753,0,0,0-.594-1.707A1.815,1.815,0,0,0,18.156,12.578Zm10.07,5.18a1.064,1.064,0,0,0-.441-.91,4.249,4.249,0,0,0-1.539-.559,7.277,7.277,0,0,1-1.742-.562,2.479,2.479,0,0,1-.953-.781,1.869,1.869,0,0,1-.309-1.078,2.193,2.193,0,0,1,.879-1.758,3.432,3.432,0,0,1,2.246-.719,3.532,3.532,0,0,1,2.332.742,2.357,2.357,0,0,1,.895,1.9H28.141a1.3,1.3,0,0,0-.5-1.023,1.888,1.888,0,0,0-1.27-.43,1.976,1.976,0,0,0-1.234.344,1.082,1.082,0,0,0-.445.9.877.877,0,0,0,.414.789,5.1,5.1,0,0,0,1.5.508,7.8,7.8,0,0,1,1.754.578,2.558,2.558,0,0,1,1,.809,1.988,1.988,0,0,1,.324,1.152,2.163,2.163,0,0,1-.906,1.816,3.8,3.8,0,0,1-2.352.684,4.257,4.257,0,0,1-1.8-.359,2.922,2.922,0,0,1-1.223-1,2.42,2.42,0,0,1-.441-1.395H24.4a1.5,1.5,0,0,0,.582,1.152,2.258,2.258,0,0,0,1.434.426,2.331,2.331,0,0,0,1.316-.332A1.02,1.02,0,0,0,28.227,17.758ZM31.211,15.7a4.968,4.968,0,0,1,.914-3.145,3.151,3.151,0,0,1,4.836-.074l.07-.937h1.32V19.8a3.439,3.439,0,0,1-.973,2.586,3.589,3.589,0,0,1-2.613.945,4.348,4.348,0,0,1-1.789-.391,3.08,3.08,0,0,1-1.336-1.07l.75-.867a2.826,2.826,0,0,0,2.273,1.148,2.214,2.214,0,0,0,1.645-.594,2.269,2.269,0,0,0,.59-1.672v-.727a2.971,2.971,0,0,1-2.367,1,2.887,2.887,0,0,1-2.4-1.2A5.224,5.224,0,0,1,31.211,15.7Zm1.453.164a3.79,3.79,0,0,0,.586,2.246,1.9,1.9,0,0,0,1.641.816A2.117,2.117,0,0,0,36.9,17.688V13.828a2.142,2.142,0,0,0-1.992-1.211,1.921,1.921,0,0,0-1.648.82A4.128,4.128,0,0,0,32.664,15.867Zm7.484-.172a4.993,4.993,0,0,1,.488-2.234A3.643,3.643,0,0,1,42,11.93a3.7,3.7,0,0,1,1.988-.539,3.565,3.565,0,0,1,2.793,1.2,4.6,4.6,0,0,1,1.066,3.18v.1a5.036,5.036,0,0,1-.473,2.215,3.589,3.589,0,0,1-1.352,1.527,3.743,3.743,0,0,1-2.02.547,3.556,3.556,0,0,1-2.785-1.2A4.575,4.575,0,0,1,40.148,15.8Zm1.453.172a3.616,3.616,0,0,0,.652,2.258,2.211,2.211,0,0,0,3.5-.012A3.955,3.955,0,0,0,46.4,15.7a3.61,3.61,0,0,0-.66-2.254,2.1,2.1,0,0,0-1.754-.863,2.075,2.075,0,0,0-1.727.852A3.925,3.925,0,0,0,41.6,15.867ZM58.219,20H56.766V10.367l-2.914,1.07V10.125L57.992,8.57h.227Z" transform="translate(596 3751)" fill="#12263f"/>
    <g id="Trazado_10272" data-name="Trazado 10272" transform="translate(691 3698)" fill="none">
      <path d="M12,0H80A12,12,0,0,1,92,12V79A12,12,0,0,1,80,91H12A12,12,0,0,1,0,79V12A12,12,0,0,1,12,0Z" stroke="none"/>
      <path d="M 12 1 C 9.061790466308594 1 6.299453735351563 2.144203186035156 4.221824645996094 4.221824645996094 C 2.144203186035156 6.299453735351563 1 9.061790466308594 1 12 L 1 79 C 1 81.93820190429688 2.144203186035156 84.70054626464844 4.221824645996094 86.77817535400391 C 6.299453735351563 88.85579681396484 9.061790466308594 90 12 90 L 80 90 C 82.93820190429688 90 85.70054626464844 88.85579681396484 87.77817535400391 86.77817535400391 C 89.85579681396484 84.70054626464844 91 81.93820190429688 91 79 L 91 12 C 91 9.061790466308594 89.85579681396484 6.299453735351563 87.77817535400391 4.221824645996094 C 85.70054626464844 2.144203186035156 82.93820190429688 1 80 1 L 12 1 M 12 0 L 80 0 C 86.62741088867188 0 92 5.372573852539063 92 12 L 92 79 C 92 85.62741088867188 86.62741088867188 91 80 91 L 12 91 C 5.372573852539063 91 0 85.62741088867188 0 79 L 0 12 C 0 5.372573852539063 5.372573852539063 0 12 0 Z" stroke="none" fill="#f579a8"/>
    </g>
    <path id="Trazado_10273" data-name="Trazado 10273" d="M9.719-1.492A3.465,3.465,0,0,1,8.105-.254,6.517,6.517,0,0,1,5.7.156,4.674,4.674,0,0,1,3.227-.5,4.346,4.346,0,0,1,1.559-2.352,6.408,6.408,0,0,1,.953-5.141v-.992a5.982,5.982,0,0,1,1.2-3.984,4.179,4.179,0,0,1,3.371-1.414,4.316,4.316,0,0,1,2.867.91A3.965,3.965,0,0,1,9.719-8.039h-1.5A2.478,2.478,0,0,0,5.531-10.3,2.656,2.656,0,0,0,3.246-9.238a5.165,5.165,0,0,0-.785,3.066v.93A4.841,4.841,0,0,0,3.336-2.2,2.837,2.837,0,0,0,5.7-1.07,5.217,5.217,0,0,0,7.18-1.258a2.282,2.282,0,0,0,1.047-.633V-4.445H5.594V-5.664H9.719Zm6.359-5.664a4.331,4.331,0,0,0-.711-.055A1.9,1.9,0,0,0,13.438-6V0H11.992V-8.453H13.4l.023.977a2.251,2.251,0,0,1,2.016-1.133,1.477,1.477,0,0,1,.641.109Zm6.547,6.32a3.07,3.07,0,0,1-2.477.992A2.628,2.628,0,0,1,18.09-.629a3.4,3.4,0,0,1-.715-2.324v-5.5H18.82v5.461q0,1.922,1.563,1.922a2.163,2.163,0,0,0,2.2-1.234V-8.453h1.445V0H22.656Zm10.742-3.3a5.062,5.062,0,0,1-.883,3.109A2.829,2.829,0,0,1,30.094.156,3.1,3.1,0,0,1,27.672-.82V3.25H26.227v-11.7h1.32l.07.938A2.977,2.977,0,0,1,30.07-8.609a2.882,2.882,0,0,1,2.41,1.148,5.117,5.117,0,0,1,.887,3.2ZM31.922-4.3a3.735,3.735,0,0,0-.609-2.258,1.963,1.963,0,0,0-1.672-.828,2.125,2.125,0,0,0-1.969,1.164V-2.18a2.129,2.129,0,0,0,1.984,1.156,1.954,1.954,0,0,0,1.652-.824A4.077,4.077,0,0,0,31.922-4.3Zm2.9-.008a4.993,4.993,0,0,1,.488-2.234A3.643,3.643,0,0,1,36.668-8.07a3.7,3.7,0,0,1,1.988-.539,3.565,3.565,0,0,1,2.793,1.2,4.6,4.6,0,0,1,1.066,3.18v.1a5.036,5.036,0,0,1-.473,2.215A3.589,3.589,0,0,1,40.691-.391a3.743,3.743,0,0,1-2.02.547,3.556,3.556,0,0,1-2.785-1.2A4.575,4.575,0,0,1,34.82-4.2Zm1.453.172a3.616,3.616,0,0,0,.652,2.258,2.088,2.088,0,0,0,1.746.852,2.075,2.075,0,0,0,1.75-.863A3.955,3.955,0,0,0,41.07-4.3a3.61,3.61,0,0,0-.66-2.254,2.1,2.1,0,0,0-1.754-.863,2.075,2.075,0,0,0-1.727.852A3.925,3.925,0,0,0,36.273-4.133ZM47.938-4.3a4.952,4.952,0,0,1,.922-3.129,2.915,2.915,0,0,1,2.414-1.184,2.932,2.932,0,0,1,2.352,1.016V-12H55.07V0H53.742l-.07-.906A2.943,2.943,0,0,1,51.258.156a2.887,2.887,0,0,1-2.395-1.2,5.008,5.008,0,0,1-.926-3.141Zm1.445.164a3.749,3.749,0,0,0,.594,2.25,1.92,1.92,0,0,0,1.641.813A2.108,2.108,0,0,0,53.625-2.3V-6.187a2.125,2.125,0,0,0-1.992-1.2,1.929,1.929,0,0,0-1.656.82A4.128,4.128,0,0,0,49.383-4.133ZM60.82.156a3.693,3.693,0,0,1-2.8-1.129,4.19,4.19,0,0,1-1.078-3.02v-.266a5.073,5.073,0,0,1,.48-2.246A3.748,3.748,0,0,1,58.77-8.051a3.378,3.378,0,0,1,1.871-.559A3.166,3.166,0,0,1,63.2-7.523a4.7,4.7,0,0,1,.914,3.109v.6H58.391a3,3,0,0,0,.73,2.02,2.3,2.3,0,0,0,1.777.77,2.517,2.517,0,0,0,1.3-.312,3.259,3.259,0,0,0,.93-.828l.883.688A3.55,3.55,0,0,1,60.82.156Zm-.18-7.578a1.928,1.928,0,0,0-1.469.637A3.1,3.1,0,0,0,58.438-5h4.234v-.109a2.753,2.753,0,0,0-.594-1.707A1.815,1.815,0,0,0,60.641-7.422ZM5.492,15.4H2.82V20H1.313V8.625H5.078A4.457,4.457,0,0,1,8.035,9.5,3.148,3.148,0,0,1,9.07,12.047,3.062,3.062,0,0,1,8.5,13.9a3.428,3.428,0,0,1-1.6,1.18L9.57,19.906V20H7.961ZM2.82,14.172h2.3A2.6,2.6,0,0,0,6.9,13.594a1.953,1.953,0,0,0,.66-1.547,2.057,2.057,0,0,0-.629-1.617,2.666,2.666,0,0,0-1.816-.57H2.82ZM12.516,20H11.07V11.547h1.445ZM10.953,9.3a.863.863,0,0,1,.215-.594.807.807,0,0,1,.637-.242.819.819,0,0,1,.641.242.854.854,0,0,1,.219.594.826.826,0,0,1-.219.586.834.834,0,0,1-.641.234.821.821,0,0,1-.637-.234A.834.834,0,0,1,10.953,9.3Zm7.383,10.852a3.693,3.693,0,0,1-2.8-1.129,4.19,4.19,0,0,1-1.078-3.02v-.266a5.073,5.073,0,0,1,.48-2.246,3.748,3.748,0,0,1,1.344-1.547,3.378,3.378,0,0,1,1.871-.559,3.166,3.166,0,0,1,2.563,1.086,4.7,4.7,0,0,1,.914,3.109v.6H15.906a3,3,0,0,0,.73,2.02,2.3,2.3,0,0,0,1.777.77,2.517,2.517,0,0,0,1.3-.312,3.259,3.259,0,0,0,.93-.828l.883.688A3.55,3.55,0,0,1,18.336,20.156Zm-.18-7.578a1.928,1.928,0,0,0-1.469.637A3.1,3.1,0,0,0,15.953,15h4.234v-.109a2.753,2.753,0,0,0-.594-1.707A1.815,1.815,0,0,0,18.156,12.578Zm10.07,5.18a1.064,1.064,0,0,0-.441-.91,4.249,4.249,0,0,0-1.539-.559,7.277,7.277,0,0,1-1.742-.562,2.479,2.479,0,0,1-.953-.781,1.869,1.869,0,0,1-.309-1.078,2.193,2.193,0,0,1,.879-1.758,3.432,3.432,0,0,1,2.246-.719,3.532,3.532,0,0,1,2.332.742,2.357,2.357,0,0,1,.895,1.9H28.141a1.3,1.3,0,0,0-.5-1.023,1.888,1.888,0,0,0-1.27-.43,1.976,1.976,0,0,0-1.234.344,1.082,1.082,0,0,0-.445.9.877.877,0,0,0,.414.789,5.1,5.1,0,0,0,1.5.508,7.8,7.8,0,0,1,1.754.578,2.558,2.558,0,0,1,1,.809,1.988,1.988,0,0,1,.324,1.152,2.163,2.163,0,0,1-.906,1.816,3.8,3.8,0,0,1-2.352.684,4.257,4.257,0,0,1-1.8-.359,2.922,2.922,0,0,1-1.223-1,2.42,2.42,0,0,1-.441-1.395H24.4a1.5,1.5,0,0,0,.582,1.152,2.258,2.258,0,0,0,1.434.426,2.331,2.331,0,0,0,1.316-.332A1.02,1.02,0,0,0,28.227,17.758ZM31.211,15.7a4.968,4.968,0,0,1,.914-3.145,3.151,3.151,0,0,1,4.836-.074l.07-.937h1.32V19.8a3.439,3.439,0,0,1-.973,2.586,3.589,3.589,0,0,1-2.613.945,4.348,4.348,0,0,1-1.789-.391,3.08,3.08,0,0,1-1.336-1.07l.75-.867a2.826,2.826,0,0,0,2.273,1.148,2.214,2.214,0,0,0,1.645-.594,2.269,2.269,0,0,0,.59-1.672v-.727a2.971,2.971,0,0,1-2.367,1,2.887,2.887,0,0,1-2.4-1.2A5.224,5.224,0,0,1,31.211,15.7Zm1.453.164a3.79,3.79,0,0,0,.586,2.246,1.9,1.9,0,0,0,1.641.816A2.117,2.117,0,0,0,36.9,17.688V13.828a2.142,2.142,0,0,0-1.992-1.211,1.921,1.921,0,0,0-1.648.82A4.128,4.128,0,0,0,32.664,15.867Zm7.484-.172a4.993,4.993,0,0,1,.488-2.234A3.643,3.643,0,0,1,42,11.93a3.7,3.7,0,0,1,1.988-.539,3.565,3.565,0,0,1,2.793,1.2,4.6,4.6,0,0,1,1.066,3.18v.1a5.036,5.036,0,0,1-.473,2.215,3.589,3.589,0,0,1-1.352,1.527,3.743,3.743,0,0,1-2.02.547,3.556,3.556,0,0,1-2.785-1.2A4.575,4.575,0,0,1,40.148,15.8Zm1.453.172a3.616,3.616,0,0,0,.652,2.258,2.211,2.211,0,0,0,3.5-.012A3.955,3.955,0,0,0,46.4,15.7a3.61,3.61,0,0,0-.66-2.254,2.1,2.1,0,0,0-1.754-.863,2.075,2.075,0,0,0-1.727.852A3.925,3.925,0,0,0,41.6,15.867ZM60.922,20H53.469V18.961l3.938-4.375a9.355,9.355,0,0,0,1.207-1.613,2.693,2.693,0,0,0,.332-1.285,2.041,2.041,0,0,0-.539-1.461,1.885,1.885,0,0,0-1.437-.57,2.232,2.232,0,0,0-1.676.613,2.343,2.343,0,0,0-.6,1.707H53.25a3.355,3.355,0,0,1,1.012-2.539,3.751,3.751,0,0,1,2.707-.969,3.6,3.6,0,0,1,2.508.832,2.838,2.838,0,0,1,.922,2.215q0,1.68-2.141,4l-3.047,3.3h5.711Z" transform="translate(704 3751)" fill="#12263f"/>
    <g id="Trazado_10274" data-name="Trazado 10274" transform="translate(799 3698)" fill="none">
      <path d="M12,0H80A12,12,0,0,1,92,12V79A12,12,0,0,1,80,91H12A12,12,0,0,1,0,79V12A12,12,0,0,1,12,0Z" stroke="none"/>
      <path d="M 12 1 C 9.061790466308594 1 6.299453735351563 2.144203186035156 4.221824645996094 4.221824645996094 C 2.144203186035156 6.299453735351563 1 9.061790466308594 1 12 L 1 79 C 1 81.93820190429688 2.144203186035156 84.70054626464844 4.221824645996094 86.77817535400391 C 6.299453735351563 88.85579681396484 9.061790466308594 90 12 90 L 80 90 C 82.93820190429688 90 85.70054626464844 88.85579681396484 87.77817535400391 86.77817535400391 C 89.85579681396484 84.70054626464844 91 81.93820190429688 91 79 L 91 12 C 91 9.061790466308594 89.85579681396484 6.299453735351563 87.77817535400391 4.221824645996094 C 85.70054626464844 2.144203186035156 82.93820190429688 1 80 1 L 12 1 M 12 0 L 80 0 C 86.62741088867188 0 92 5.372573852539063 92 12 L 92 79 C 92 85.62741088867188 86.62741088867188 91 80 91 L 12 91 C 5.372573852539063 91 0 85.62741088867188 0 79 L 0 12 C 0 5.372573852539063 5.372573852539063 0 12 0 Z" stroke="none" fill="#f579a8"/>
    </g>
    <path id="Trazado_10275" data-name="Trazado 10275" d="M9.719-1.492A3.465,3.465,0,0,1,8.105-.254,6.517,6.517,0,0,1,5.7.156,4.674,4.674,0,0,1,3.227-.5,4.346,4.346,0,0,1,1.559-2.352,6.408,6.408,0,0,1,.953-5.141v-.992a5.982,5.982,0,0,1,1.2-3.984,4.179,4.179,0,0,1,3.371-1.414,4.316,4.316,0,0,1,2.867.91A3.965,3.965,0,0,1,9.719-8.039h-1.5A2.478,2.478,0,0,0,5.531-10.3,2.656,2.656,0,0,0,3.246-9.238a5.165,5.165,0,0,0-.785,3.066v.93A4.841,4.841,0,0,0,3.336-2.2,2.837,2.837,0,0,0,5.7-1.07,5.217,5.217,0,0,0,7.18-1.258a2.282,2.282,0,0,0,1.047-.633V-4.445H5.594V-5.664H9.719Zm6.359-5.664a4.331,4.331,0,0,0-.711-.055A1.9,1.9,0,0,0,13.438-6V0H11.992V-8.453H13.4l.023.977a2.251,2.251,0,0,1,2.016-1.133,1.477,1.477,0,0,1,.641.109Zm6.547,6.32a3.07,3.07,0,0,1-2.477.992A2.628,2.628,0,0,1,18.09-.629a3.4,3.4,0,0,1-.715-2.324v-5.5H18.82v5.461q0,1.922,1.563,1.922a2.163,2.163,0,0,0,2.2-1.234V-8.453h1.445V0H22.656Zm10.742-3.3a5.062,5.062,0,0,1-.883,3.109A2.829,2.829,0,0,1,30.094.156,3.1,3.1,0,0,1,27.672-.82V3.25H26.227v-11.7h1.32l.07.938A2.977,2.977,0,0,1,30.07-8.609a2.882,2.882,0,0,1,2.41,1.148,5.117,5.117,0,0,1,.887,3.2ZM31.922-4.3a3.735,3.735,0,0,0-.609-2.258,1.963,1.963,0,0,0-1.672-.828,2.125,2.125,0,0,0-1.969,1.164V-2.18a2.129,2.129,0,0,0,1.984,1.156,1.954,1.954,0,0,0,1.652-.824A4.077,4.077,0,0,0,31.922-4.3Zm2.9-.008a4.993,4.993,0,0,1,.488-2.234A3.643,3.643,0,0,1,36.668-8.07a3.7,3.7,0,0,1,1.988-.539,3.565,3.565,0,0,1,2.793,1.2,4.6,4.6,0,0,1,1.066,3.18v.1a5.036,5.036,0,0,1-.473,2.215A3.589,3.589,0,0,1,40.691-.391a3.743,3.743,0,0,1-2.02.547,3.556,3.556,0,0,1-2.785-1.2A4.575,4.575,0,0,1,34.82-4.2Zm1.453.172a3.616,3.616,0,0,0,.652,2.258,2.088,2.088,0,0,0,1.746.852,2.075,2.075,0,0,0,1.75-.863A3.955,3.955,0,0,0,41.07-4.3a3.61,3.61,0,0,0-.66-2.254,2.1,2.1,0,0,0-1.754-.863,2.075,2.075,0,0,0-1.727.852A3.925,3.925,0,0,0,36.273-4.133ZM47.938-4.3a4.952,4.952,0,0,1,.922-3.129,2.915,2.915,0,0,1,2.414-1.184,2.932,2.932,0,0,1,2.352,1.016V-12H55.07V0H53.742l-.07-.906A2.943,2.943,0,0,1,51.258.156a2.887,2.887,0,0,1-2.395-1.2,5.008,5.008,0,0,1-.926-3.141Zm1.445.164a3.749,3.749,0,0,0,.594,2.25,1.92,1.92,0,0,0,1.641.813A2.108,2.108,0,0,0,53.625-2.3V-6.187a2.125,2.125,0,0,0-1.992-1.2,1.929,1.929,0,0,0-1.656.82A4.128,4.128,0,0,0,49.383-4.133ZM60.82.156a3.693,3.693,0,0,1-2.8-1.129,4.19,4.19,0,0,1-1.078-3.02v-.266a5.073,5.073,0,0,1,.48-2.246A3.748,3.748,0,0,1,58.77-8.051a3.378,3.378,0,0,1,1.871-.559A3.166,3.166,0,0,1,63.2-7.523a4.7,4.7,0,0,1,.914,3.109v.6H58.391a3,3,0,0,0,.73,2.02,2.3,2.3,0,0,0,1.777.77,2.517,2.517,0,0,0,1.3-.312,3.259,3.259,0,0,0,.93-.828l.883.688A3.55,3.55,0,0,1,60.82.156Zm-.18-7.578a1.928,1.928,0,0,0-1.469.637A3.1,3.1,0,0,0,58.438-5h4.234v-.109a2.753,2.753,0,0,0-.594-1.707A1.815,1.815,0,0,0,60.641-7.422ZM5.492,15.4H2.82V20H1.313V8.625H5.078A4.457,4.457,0,0,1,8.035,9.5,3.148,3.148,0,0,1,9.07,12.047,3.062,3.062,0,0,1,8.5,13.9a3.428,3.428,0,0,1-1.6,1.18L9.57,19.906V20H7.961ZM2.82,14.172h2.3A2.6,2.6,0,0,0,6.9,13.594a1.953,1.953,0,0,0,.66-1.547,2.057,2.057,0,0,0-.629-1.617,2.666,2.666,0,0,0-1.816-.57H2.82ZM12.516,20H11.07V11.547h1.445ZM10.953,9.3a.863.863,0,0,1,.215-.594.807.807,0,0,1,.637-.242.819.819,0,0,1,.641.242.854.854,0,0,1,.219.594.826.826,0,0,1-.219.586.834.834,0,0,1-.641.234.821.821,0,0,1-.637-.234A.834.834,0,0,1,10.953,9.3Zm7.383,10.852a3.693,3.693,0,0,1-2.8-1.129,4.19,4.19,0,0,1-1.078-3.02v-.266a5.073,5.073,0,0,1,.48-2.246,3.748,3.748,0,0,1,1.344-1.547,3.378,3.378,0,0,1,1.871-.559,3.166,3.166,0,0,1,2.563,1.086,4.7,4.7,0,0,1,.914,3.109v.6H15.906a3,3,0,0,0,.73,2.02,2.3,2.3,0,0,0,1.777.77,2.517,2.517,0,0,0,1.3-.312,3.259,3.259,0,0,0,.93-.828l.883.688A3.55,3.55,0,0,1,18.336,20.156Zm-.18-7.578a1.928,1.928,0,0,0-1.469.637A3.1,3.1,0,0,0,15.953,15h4.234v-.109a2.753,2.753,0,0,0-.594-1.707A1.815,1.815,0,0,0,18.156,12.578Zm10.07,5.18a1.064,1.064,0,0,0-.441-.91,4.249,4.249,0,0,0-1.539-.559,7.277,7.277,0,0,1-1.742-.562,2.479,2.479,0,0,1-.953-.781,1.869,1.869,0,0,1-.309-1.078,2.193,2.193,0,0,1,.879-1.758,3.432,3.432,0,0,1,2.246-.719,3.532,3.532,0,0,1,2.332.742,2.357,2.357,0,0,1,.895,1.9H28.141a1.3,1.3,0,0,0-.5-1.023,1.888,1.888,0,0,0-1.27-.43,1.976,1.976,0,0,0-1.234.344,1.082,1.082,0,0,0-.445.9.877.877,0,0,0,.414.789,5.1,5.1,0,0,0,1.5.508,7.8,7.8,0,0,1,1.754.578,2.558,2.558,0,0,1,1,.809,1.988,1.988,0,0,1,.324,1.152,2.163,2.163,0,0,1-.906,1.816,3.8,3.8,0,0,1-2.352.684,4.257,4.257,0,0,1-1.8-.359,2.922,2.922,0,0,1-1.223-1,2.42,2.42,0,0,1-.441-1.395H24.4a1.5,1.5,0,0,0,.582,1.152,2.258,2.258,0,0,0,1.434.426,2.331,2.331,0,0,0,1.316-.332A1.02,1.02,0,0,0,28.227,17.758ZM31.211,15.7a4.968,4.968,0,0,1,.914-3.145,3.151,3.151,0,0,1,4.836-.074l.07-.937h1.32V19.8a3.439,3.439,0,0,1-.973,2.586,3.589,3.589,0,0,1-2.613.945,4.348,4.348,0,0,1-1.789-.391,3.08,3.08,0,0,1-1.336-1.07l.75-.867a2.826,2.826,0,0,0,2.273,1.148,2.214,2.214,0,0,0,1.645-.594,2.269,2.269,0,0,0,.59-1.672v-.727a2.971,2.971,0,0,1-2.367,1,2.887,2.887,0,0,1-2.4-1.2A5.224,5.224,0,0,1,31.211,15.7Zm1.453.164a3.79,3.79,0,0,0,.586,2.246,1.9,1.9,0,0,0,1.641.816A2.117,2.117,0,0,0,36.9,17.688V13.828a2.142,2.142,0,0,0-1.992-1.211,1.921,1.921,0,0,0-1.648.82A4.128,4.128,0,0,0,32.664,15.867Zm7.484-.172a4.993,4.993,0,0,1,.488-2.234A3.643,3.643,0,0,1,42,11.93a3.7,3.7,0,0,1,1.988-.539,3.565,3.565,0,0,1,2.793,1.2,4.6,4.6,0,0,1,1.066,3.18v.1a5.036,5.036,0,0,1-.473,2.215,3.589,3.589,0,0,1-1.352,1.527,3.743,3.743,0,0,1-2.02.547,3.556,3.556,0,0,1-2.785-1.2A4.575,4.575,0,0,1,40.148,15.8Zm1.453.172a3.616,3.616,0,0,0,.652,2.258,2.211,2.211,0,0,0,3.5-.012A3.955,3.955,0,0,0,46.4,15.7a3.61,3.61,0,0,0-.66-2.254,2.1,2.1,0,0,0-1.754-.863,2.075,2.075,0,0,0-1.727.852A3.925,3.925,0,0,0,41.6,15.867ZM55.57,13.609h1.086a2.387,2.387,0,0,0,1.609-.539,1.8,1.8,0,0,0,.586-1.414,1.764,1.764,0,0,0-1.992-2,2.072,2.072,0,0,0-1.5.535,1.873,1.873,0,0,0-.559,1.418H53.359a2.9,2.9,0,0,1,.988-2.246,3.6,3.6,0,0,1,2.512-.895,3.558,3.558,0,0,1,2.523.852,3.076,3.076,0,0,1,.914,2.367,2.5,2.5,0,0,1-.48,1.438,2.9,2.9,0,0,1-1.309,1.039,2.8,2.8,0,0,1,1.449.984,2.734,2.734,0,0,1,.512,1.68,3.1,3.1,0,0,1-1,2.43,3.745,3.745,0,0,1-2.6.9,3.844,3.844,0,0,1-2.605-.867,2.877,2.877,0,0,1-1-2.289h1.453a1.859,1.859,0,0,0,.586,1.438,2.229,2.229,0,0,0,1.57.539,2.187,2.187,0,0,0,1.6-.547,2.108,2.108,0,0,0,.555-1.57,1.912,1.912,0,0,0-.609-1.523,2.655,2.655,0,0,0-1.758-.547H55.57Z" transform="translate(812 3751)" fill="#12263f"/>
    <g id="Trazado_10276" data-name="Trazado 10276" transform="translate(907 3698)" fill="none">
      <path d="M12,0H80A12,12,0,0,1,92,12V79A12,12,0,0,1,80,91H12A12,12,0,0,1,0,79V12A12,12,0,0,1,12,0Z" stroke="none"/>
      <path d="M 12 1 C 9.061790466308594 1 6.299453735351563 2.144203186035156 4.221824645996094 4.221824645996094 C 2.144203186035156 6.299453735351563 1 9.061790466308594 1 12 L 1 79 C 1 81.93820190429688 2.144203186035156 84.70054626464844 4.221824645996094 86.77817535400391 C 6.299453735351563 88.85579681396484 9.061790466308594 90 12 90 L 80 90 C 82.93820190429688 90 85.70054626464844 88.85579681396484 87.77817535400391 86.77817535400391 C 89.85579681396484 84.70054626464844 91 81.93820190429688 91 79 L 91 12 C 91 9.061790466308594 89.85579681396484 6.299453735351563 87.77817535400391 4.221824645996094 C 85.70054626464844 2.144203186035156 82.93820190429688 1 80 1 L 12 1 M 12 0 L 80 0 C 86.62741088867188 0 92 5.372573852539063 92 12 L 92 79 C 92 85.62741088867188 86.62741088867188 91 80 91 L 12 91 C 5.372573852539063 91 0 85.62741088867188 0 79 L 0 12 C 0 5.372573852539063 5.372573852539063 0 12 0 Z" stroke="none" fill="#f579a8"/>
    </g>
    <path id="Trazado_10277" data-name="Trazado 10277" d="M9.719-1.492A3.465,3.465,0,0,1,8.105-.254,6.517,6.517,0,0,1,5.7.156,4.674,4.674,0,0,1,3.227-.5,4.346,4.346,0,0,1,1.559-2.352,6.408,6.408,0,0,1,.953-5.141v-.992a5.982,5.982,0,0,1,1.2-3.984,4.179,4.179,0,0,1,3.371-1.414,4.316,4.316,0,0,1,2.867.91A3.965,3.965,0,0,1,9.719-8.039h-1.5A2.478,2.478,0,0,0,5.531-10.3,2.656,2.656,0,0,0,3.246-9.238a5.165,5.165,0,0,0-.785,3.066v.93A4.841,4.841,0,0,0,3.336-2.2,2.837,2.837,0,0,0,5.7-1.07,5.217,5.217,0,0,0,7.18-1.258a2.282,2.282,0,0,0,1.047-.633V-4.445H5.594V-5.664H9.719Zm6.359-5.664a4.331,4.331,0,0,0-.711-.055A1.9,1.9,0,0,0,13.438-6V0H11.992V-8.453H13.4l.023.977a2.251,2.251,0,0,1,2.016-1.133,1.477,1.477,0,0,1,.641.109Zm6.547,6.32a3.07,3.07,0,0,1-2.477.992A2.628,2.628,0,0,1,18.09-.629a3.4,3.4,0,0,1-.715-2.324v-5.5H18.82v5.461q0,1.922,1.563,1.922a2.163,2.163,0,0,0,2.2-1.234V-8.453h1.445V0H22.656Zm10.742-3.3a5.062,5.062,0,0,1-.883,3.109A2.829,2.829,0,0,1,30.094.156,3.1,3.1,0,0,1,27.672-.82V3.25H26.227v-11.7h1.32l.07.938A2.977,2.977,0,0,1,30.07-8.609a2.882,2.882,0,0,1,2.41,1.148,5.117,5.117,0,0,1,.887,3.2ZM31.922-4.3a3.735,3.735,0,0,0-.609-2.258,1.963,1.963,0,0,0-1.672-.828,2.125,2.125,0,0,0-1.969,1.164V-2.18a2.129,2.129,0,0,0,1.984,1.156,1.954,1.954,0,0,0,1.652-.824A4.077,4.077,0,0,0,31.922-4.3Zm2.9-.008a4.993,4.993,0,0,1,.488-2.234A3.643,3.643,0,0,1,36.668-8.07a3.7,3.7,0,0,1,1.988-.539,3.565,3.565,0,0,1,2.793,1.2,4.6,4.6,0,0,1,1.066,3.18v.1a5.036,5.036,0,0,1-.473,2.215A3.589,3.589,0,0,1,40.691-.391a3.743,3.743,0,0,1-2.02.547,3.556,3.556,0,0,1-2.785-1.2A4.575,4.575,0,0,1,34.82-4.2Zm1.453.172a3.616,3.616,0,0,0,.652,2.258,2.088,2.088,0,0,0,1.746.852,2.075,2.075,0,0,0,1.75-.863A3.955,3.955,0,0,0,41.07-4.3a3.61,3.61,0,0,0-.66-2.254,2.1,2.1,0,0,0-1.754-.863,2.075,2.075,0,0,0-1.727.852A3.925,3.925,0,0,0,36.273-4.133ZM47.938-4.3a4.952,4.952,0,0,1,.922-3.129,2.915,2.915,0,0,1,2.414-1.184,2.932,2.932,0,0,1,2.352,1.016V-12H55.07V0H53.742l-.07-.906A2.943,2.943,0,0,1,51.258.156a2.887,2.887,0,0,1-2.395-1.2,5.008,5.008,0,0,1-.926-3.141Zm1.445.164a3.749,3.749,0,0,0,.594,2.25,1.92,1.92,0,0,0,1.641.813A2.108,2.108,0,0,0,53.625-2.3V-6.187a2.125,2.125,0,0,0-1.992-1.2,1.929,1.929,0,0,0-1.656.82A4.128,4.128,0,0,0,49.383-4.133ZM60.82.156a3.693,3.693,0,0,1-2.8-1.129,4.19,4.19,0,0,1-1.078-3.02v-.266a5.073,5.073,0,0,1,.48-2.246A3.748,3.748,0,0,1,58.77-8.051a3.378,3.378,0,0,1,1.871-.559A3.166,3.166,0,0,1,63.2-7.523a4.7,4.7,0,0,1,.914,3.109v.6H58.391a3,3,0,0,0,.73,2.02,2.3,2.3,0,0,0,1.777.77,2.517,2.517,0,0,0,1.3-.312,3.259,3.259,0,0,0,.93-.828l.883.688A3.55,3.55,0,0,1,60.82.156Zm-.18-7.578a1.928,1.928,0,0,0-1.469.637A3.1,3.1,0,0,0,58.438-5h4.234v-.109a2.753,2.753,0,0,0-.594-1.707A1.815,1.815,0,0,0,60.641-7.422ZM5.492,15.4H2.82V20H1.313V8.625H5.078A4.457,4.457,0,0,1,8.035,9.5,3.148,3.148,0,0,1,9.07,12.047,3.062,3.062,0,0,1,8.5,13.9a3.428,3.428,0,0,1-1.6,1.18L9.57,19.906V20H7.961ZM2.82,14.172h2.3A2.6,2.6,0,0,0,6.9,13.594a1.953,1.953,0,0,0,.66-1.547,2.057,2.057,0,0,0-.629-1.617,2.666,2.666,0,0,0-1.816-.57H2.82ZM12.516,20H11.07V11.547h1.445ZM10.953,9.3a.863.863,0,0,1,.215-.594.807.807,0,0,1,.637-.242.819.819,0,0,1,.641.242.854.854,0,0,1,.219.594.826.826,0,0,1-.219.586.834.834,0,0,1-.641.234.821.821,0,0,1-.637-.234A.834.834,0,0,1,10.953,9.3Zm7.383,10.852a3.693,3.693,0,0,1-2.8-1.129,4.19,4.19,0,0,1-1.078-3.02v-.266a5.073,5.073,0,0,1,.48-2.246,3.748,3.748,0,0,1,1.344-1.547,3.378,3.378,0,0,1,1.871-.559,3.166,3.166,0,0,1,2.563,1.086,4.7,4.7,0,0,1,.914,3.109v.6H15.906a3,3,0,0,0,.73,2.02,2.3,2.3,0,0,0,1.777.77,2.517,2.517,0,0,0,1.3-.312,3.259,3.259,0,0,0,.93-.828l.883.688A3.55,3.55,0,0,1,18.336,20.156Zm-.18-7.578a1.928,1.928,0,0,0-1.469.637A3.1,3.1,0,0,0,15.953,15h4.234v-.109a2.753,2.753,0,0,0-.594-1.707A1.815,1.815,0,0,0,18.156,12.578Zm10.07,5.18a1.064,1.064,0,0,0-.441-.91,4.249,4.249,0,0,0-1.539-.559,7.277,7.277,0,0,1-1.742-.562,2.479,2.479,0,0,1-.953-.781,1.869,1.869,0,0,1-.309-1.078,2.193,2.193,0,0,1,.879-1.758,3.432,3.432,0,0,1,2.246-.719,3.532,3.532,0,0,1,2.332.742,2.357,2.357,0,0,1,.895,1.9H28.141a1.3,1.3,0,0,0-.5-1.023,1.888,1.888,0,0,0-1.27-.43,1.976,1.976,0,0,0-1.234.344,1.082,1.082,0,0,0-.445.9.877.877,0,0,0,.414.789,5.1,5.1,0,0,0,1.5.508,7.8,7.8,0,0,1,1.754.578,2.558,2.558,0,0,1,1,.809,1.988,1.988,0,0,1,.324,1.152,2.163,2.163,0,0,1-.906,1.816,3.8,3.8,0,0,1-2.352.684,4.257,4.257,0,0,1-1.8-.359,2.922,2.922,0,0,1-1.223-1,2.42,2.42,0,0,1-.441-1.395H24.4a1.5,1.5,0,0,0,.582,1.152,2.258,2.258,0,0,0,1.434.426,2.331,2.331,0,0,0,1.316-.332A1.02,1.02,0,0,0,28.227,17.758ZM31.211,15.7a4.968,4.968,0,0,1,.914-3.145,3.151,3.151,0,0,1,4.836-.074l.07-.937h1.32V19.8a3.439,3.439,0,0,1-.973,2.586,3.589,3.589,0,0,1-2.613.945,4.348,4.348,0,0,1-1.789-.391,3.08,3.08,0,0,1-1.336-1.07l.75-.867a2.826,2.826,0,0,0,2.273,1.148,2.214,2.214,0,0,0,1.645-.594,2.269,2.269,0,0,0,.59-1.672v-.727a2.971,2.971,0,0,1-2.367,1,2.887,2.887,0,0,1-2.4-1.2A5.224,5.224,0,0,1,31.211,15.7Zm1.453.164a3.79,3.79,0,0,0,.586,2.246,1.9,1.9,0,0,0,1.641.816A2.117,2.117,0,0,0,36.9,17.688V13.828a2.142,2.142,0,0,0-1.992-1.211,1.921,1.921,0,0,0-1.648.82A4.128,4.128,0,0,0,32.664,15.867Zm7.484-.172a4.993,4.993,0,0,1,.488-2.234A3.643,3.643,0,0,1,42,11.93a3.7,3.7,0,0,1,1.988-.539,3.565,3.565,0,0,1,2.793,1.2,4.6,4.6,0,0,1,1.066,3.18v.1a5.036,5.036,0,0,1-.473,2.215,3.589,3.589,0,0,1-1.352,1.527,3.743,3.743,0,0,1-2.02.547,3.556,3.556,0,0,1-2.785-1.2A4.575,4.575,0,0,1,40.148,15.8Zm1.453.172a3.616,3.616,0,0,0,.652,2.258,2.211,2.211,0,0,0,3.5-.012A3.955,3.955,0,0,0,46.4,15.7a3.61,3.61,0,0,0-.66-2.254,2.1,2.1,0,0,0-1.754-.863,2.075,2.075,0,0,0-1.727.852A3.925,3.925,0,0,0,41.6,15.867ZM53.68,19.242a.905.905,0,0,1,.223-.625.848.848,0,0,1,.668-.25.874.874,0,0,1,.676.25.887.887,0,0,1,.23.625.839.839,0,0,1-.23.6.89.89,0,0,1-.676.242.8.8,0,0,1-.891-.844Zm3.414,0a.905.905,0,0,1,.223-.625.848.848,0,0,1,.668-.25.874.874,0,0,1,.676.25.887.887,0,0,1,.23.625.839.839,0,0,1-.23.6.89.89,0,0,1-.676.242.8.8,0,0,1-.891-.844Zm3.242,0a.905.905,0,0,1,.223-.625.848.848,0,0,1,.668-.25.874.874,0,0,1,.676.25.887.887,0,0,1,.23.625.839.839,0,0,1-.23.6.89.89,0,0,1-.676.242.8.8,0,0,1-.891-.844Z" transform="translate(920 3751)" fill="#12263f"/>
    <g id="Grupo_23703" data-name="Grupo 23703" transform="translate(613.75 3690)">
      <path id="Trazado_9499" data-name="Trazado 9499" d="M32.816,8,26,25.039h5.3L26,39.806,44.175,20.117H36.223L41.524,8Z" fill="#f579a8"/>
    </g>
    <g id="Grupo_23704" data-name="Grupo 23704" transform="translate(722.412 3690)">
      <path id="Trazado_9499-2" data-name="Trazado 9499" d="M32.816,8,26,25.039h5.3L26,39.806,44.175,20.117H36.223L41.524,8Z" fill="#f579a8"/>
    </g>
    <g id="Grupo_23705" data-name="Grupo 23705" transform="translate(829.412 3690)">
      <path id="Trazado_9499-3" data-name="Trazado 9499" d="M32.816,8,26,25.039h5.3L26,39.806,44.175,20.117H36.223L41.524,8Z" fill="#f579a8"/>
    </g>
    <g id="Grupo_23706" data-name="Grupo 23706" transform="translate(936.412 3690)">
      <path id="Trazado_9499-4" data-name="Trazado 9499" d="M32.816,8,26,25.039h5.3L26,39.806,44.175,20.117H36.223L41.524,8Z" fill="#f579a8"/>
    </g>
    <g id="Grupo_23714" data-name="Grupo 23714" transform="translate(-62.264 18.736)">
      <path id="Trazado_9500" data-name="Trazado 9500" d="M44.818,28.93H38.476a1.982,1.982,0,0,0-1.982,1.982v7.161a1.982,1.982,0,0,0,1.981,1.982h.482V50.5a1.528,1.528,0,0,0,1.528,1.528h2.323A1.528,1.528,0,0,0,44.337,50.5V40.056h.482A1.983,1.983,0,0,0,46.8,38.074V30.912A1.982,1.982,0,0,0,44.818,28.93Z" transform="translate(412.144 3688.119)" fill="#00348d"/>
      <path id="Trazado_9501" data-name="Trazado 9501" d="M43.317,16.217a3.086,3.086,0,1,0-1.411-2.591A3.072,3.072,0,0,0,43.317,16.217Z" transform="translate(408.797 3699.494)" fill="#00348d"/>
    </g>
    <g id="Grupo_23713" data-name="Grupo 23713" transform="translate(15.375 -14.847)">
      <g id="Grupo_23707" data-name="Grupo 23707" transform="translate(365.343 3707.847)">
        <path id="Trazado_9481" data-name="Trazado 9481" d="M48.562,70.226a23.208,23.208,0,0,0-8.515-.8V65.969h2.626l-9.207-6.151-9.242,6.151h2.654v3.041a33.519,33.519,0,0,0-4.65-.154V65.367a2.913,2.913,0,0,1-.935-1.157,2.491,2.491,0,0,1,2.254-3.553c.05,0,.1,0,.15.005a2.491,2.491,0,0,0,0,4.973c.05,0,.1,0,.15,0a2.492,2.492,0,0,0,.368-4.956,2.49,2.49,0,0,0-4.1-2.172,2.52,2.52,0,0,0-.43.479A2.48,2.48,0,0,0,19.25,60.4a2.426,2.426,0,0,0,.025.346,2.491,2.491,0,1,0,1.753,4.639v3.533a27.025,27.025,0,0,0-3.749.5c11.2-.862,22.4,4.43,22.4,4.43a22.314,22.314,0,0,0-4.366-2.612A55.364,55.364,0,0,1,48.562,70.226Z" transform="translate(-17.279 -57.908)" fill="#00348d"/>
        <path id="Trazado_9482" data-name="Trazado 9482" d="M135.023,69.3a1.846,1.846,0,1,0-1.846-1.846A1.846,1.846,0,0,0,135.023,69.3Z" transform="translate(-112.809 -64.256)" fill="#00348d"/>
      </g>
      <g id="Grupo_23708" data-name="Grupo 23708" transform="translate(356 3720.921)">
        <path id="Trazado_9481-2" data-name="Trazado 9481" d="M38.159,66.13a15.49,15.49,0,0,0-5.684-.533V63.288h1.753l-6.145-4.106-6.169,4.105h1.771v2.029a22.37,22.37,0,0,0-3.1-.1V62.886a1.944,1.944,0,0,1-.624-.772,1.663,1.663,0,0,1,1.5-2.372c.034,0,.067,0,.1,0a1.663,1.663,0,0,0,0,3.319c.033,0,.066,0,.1,0a1.663,1.663,0,0,0,.246-3.308,1.662,1.662,0,0,0-2.736-1.45,1.682,1.682,0,0,0-.287.32,1.655,1.655,0,0,0-.292.941,1.619,1.619,0,0,0,.017.231,1.663,1.663,0,1,0,1.17,3.1v2.358a18.036,18.036,0,0,0-2.5.332c7.475-.575,14.95,2.957,14.95,2.957A14.892,14.892,0,0,0,29.315,66.8,36.953,36.953,0,0,1,38.159,66.13Z" transform="translate(-17.279 -57.908)" fill="#00348d"/>
        <path id="Trazado_9482-2" data-name="Trazado 9482" d="M134.409,68.074a1.232,1.232,0,1,0-1.232-1.232A1.232,1.232,0,0,0,134.409,68.074Z" transform="translate(-119.582 -64.707)" fill="#00348d"/>
      </g>
      <g id="Grupo_23709" data-name="Grupo 23709" transform="translate(370.367 3701.211)">
        <path id="Trazado_9481-3" data-name="Trazado 9481" d="M30.305,63.037a9.664,9.664,0,0,0-3.546-.332v-1.44h1.094L24.019,58.7l-3.848,2.561h1.105V62.53a13.955,13.955,0,0,0-1.936-.064V61.014a1.213,1.213,0,0,1-.389-.482,1.037,1.037,0,0,1,.939-1.48l.063,0a1.037,1.037,0,0,0,0,2.071l.062,0a1.037,1.037,0,0,0,.153-2.064,1.037,1.037,0,0,0-1.707-.9,1.049,1.049,0,0,0-.179.2,1.032,1.032,0,0,0-.182.587,1.01,1.01,0,0,0,.01.144,1.037,1.037,0,1,0,.73,1.932v1.471a11.254,11.254,0,0,0-1.561.207,21.247,21.247,0,0,1,9.327,1.845,9.291,9.291,0,0,0-1.818-1.088A23.053,23.053,0,0,1,30.305,63.037Z" transform="translate(-17.279 -57.908)" fill="#00348d"/>
        <path id="Trazado_9482-3" data-name="Trazado 9482" d="M133.946,67.147a.769.769,0,1,0-.769-.769A.769.769,0,0,0,133.946,67.147Z" transform="translate(-124.696 -65.046)" fill="#00348d"/>
      </g>
    </g>
    <g id="Grupo_23712" data-name="Grupo 23712" transform="translate(-20.91 7.635)">
      <g id="Grupo_23710" data-name="Grupo 23710" transform="translate(392.284 3773.086)">
        <ellipse id="Elipse_1331" data-name="Elipse 1331" cx="2.112" cy="2.112" rx="2.112" ry="2.112" transform="translate(3.811 0)" fill="#00348d"/>
        <ellipse id="Elipse_1332" data-name="Elipse 1332" cx="2.112" cy="2.112" rx="2.112" ry="2.112" transform="translate(14.371 0)" fill="#00348d"/>
        <path id="Trazado_9429" data-name="Trazado 9429" d="M38.494,38.139h0a1.059,1.059,0,0,0-.986-.7h-5.7a1.012,1.012,0,0,0-.986.7h0l-1.443,3.942L27.934,38.1h0a1.059,1.059,0,0,0-.986-.7h-5.7a1.012,1.012,0,0,0-.986.7h0l-2.042,5.632a.732.732,0,0,0,.422.915.6.6,0,0,0,.246.035.722.722,0,0,0,.669-.458l1.549-4.294h0a.356.356,0,0,1,.669.246L19.592,46.2h2.394v4.083a.88.88,0,1,0,1.76,0V46.2h.7v4.083a.88.88,0,1,0,1.76,0V46.2H28.6L26.42,40.181a.356.356,0,0,1,.669-.246h0l1.584,4.294a.722.722,0,0,0,.669.458h.141a.722.722,0,0,0,.669-.458L31.7,39.934h0a.433.433,0,0,1,.387-.246.466.466,0,0,1,.458.458V50.283a.88.88,0,1,0,1.76,0v-3.2a.352.352,0,0,1,.7,0v3.2a.88.88,0,1,0,1.76,0V40.146a.466.466,0,0,1,.458-.458.433.433,0,0,1,.387.246h0l1.619,4.294a.722.722,0,0,0,.669.458.6.6,0,0,0,.246-.035.718.718,0,0,0,.422-.915Z" transform="translate(-18.175 -32.155)" fill="#00348d"/>
      </g>
      <g id="Grupo_23711" data-name="Grupo 23711" transform="translate(415.318 3771)">
        <path id="Trazado_9432" data-name="Trazado 9432" d="M34.461,25.292c.008.041.017.1.045.114a.1.1,0,0,0,.143-.034.4.4,0,0,1,.094-.087.147.147,0,0,0,.063.005.408.408,0,0,0,.289-.2,1.093,1.093,0,0,0,.068-.128,1.074,1.074,0,0,0,.068.128.408.408,0,0,0,.289.2.147.147,0,0,0,.063-.005.385.385,0,0,1,.094.087.1.1,0,0,0,.143.034c.028-.016.037-.073.045-.114a.416.416,0,0,0,0-.1h0a2.392,2.392,0,0,0-.015-.316.471.471,0,0,0-.5-.381,1.327,1.327,0,0,0-.191.068,1.346,1.346,0,0,0-.191-.068.471.471,0,0,0-.5.381,2.354,2.354,0,0,0-.015.316h0A.491.491,0,0,0,34.461,25.292Z" transform="translate(-30.636 -21.59)" fill="#00348d"/>
        <path id="Trazado_9433" data-name="Trazado 9433" d="M61.9,39.7a.478.478,0,0,0,.073-.421s0-.006,0-.01c-.374-1.473-2.726-2.435-3.023-2.45a1.788,1.788,0,0,0-1.553,0,5.479,5.479,0,0,0-2.681,1.735l-.167-.1c-.085.147-.278.474-.521.856.139.1.225.153.225.153a.5.5,0,0,0,.2.075c.281.112,1.049-.251,1.373-.451.113-.069.274-.175.446-.289a1.889,1.889,0,0,0,.277.809,2.744,2.744,0,0,1,.048.5,3.444,3.444,0,0,1-.148.908h0c-.022.041-.042.084-.062.126l0,0a9.608,9.608,0,0,0-.586,2.444h0c0,.052-.009.107-.015.165s-.014.127-.019.192c-.192,1.942-.812,6.514-.812,6.514a11.92,11.92,0,0,0,1.386.317c.12,1.046.323,1.971.667,1.971.329,0,.528-.846.65-1.835.325.014.632.011.919,0,.122.965.321,1.779.643,1.779.34,0,.542-.905.662-1.937a6.129,6.129,0,0,0,1.431-.439s-.718-5.547-.92-7.185a11.206,11.206,0,0,0-.29-1.432A9.385,9.385,0,0,0,61.9,39.7Zm-3.961-2.336a.288.288,0,0,1-.108-.556.345.345,0,0,0-.014.094.351.351,0,0,0,.347.351A.286.286,0,0,1,57.941,37.361Zm.457,0a.287.287,0,0,1-.225-.111.351.351,0,0,0,.349-.351.342.342,0,0,0-.014-.093.288.288,0,0,1-.109.555Zm1.527,3.727a1.914,1.914,0,0,0-.106-.19,2.711,2.711,0,0,1-.122-.8,2.678,2.678,0,0,1,.037-.422,1.893,1.893,0,0,0,.328-.883c.172.114.334.22.447.289a4.369,4.369,0,0,0,.476.248A12.92,12.92,0,0,0,59.924,41.088Z" transform="translate(-45.369 -30.731)" fill="#00348d"/>
        <path id="Trazado_9434" data-name="Trazado 9434" d="M68.337,18.02a1.8,1.8,0,0,1,.75.164.775.775,0,0,0,.009-.108.758.758,0,0,0-1.517,0,.74.74,0,0,0,.009.108A1.8,1.8,0,0,1,68.337,18.02Z" transform="translate(-55.57 -16.189)" fill="#00348d"/>
        <path id="Trazado_9435" data-name="Trazado 9435" d="M44.575,38.386l.518,2.28c.016.052.025.108.037.162.008.035.017.069.024.1,0,.015.008.029.01.045l.009.039h0c.005.034.008.069.013.1,0,.011,0,.022,0,.034a2.138,2.138,0,0,1,.013.223c0,.006,0,.011,0,.017a20.07,20.07,0,0,1,1.033-2.19,4.714,4.714,0,0,1-.5-.2C45.458,38.866,44.942,38.591,44.575,38.386Zm1.21,1.4c-.526-.425-.978-.866-.859-1.05l.007-.007c.281.151.566.3.742.386.106.052.239.108.377.16C45.957,39.449,45.869,39.618,45.785,39.782Z" transform="translate(-38.252 -32.049)" fill="#00348d"/>
        <path id="Trazado_9436" data-name="Trazado 9436" d="M35.139,31.739l.213-.074a.072.072,0,0,0,.034-.068v-.042a.072.072,0,0,0-.034-.068l-.213-.074c-.086-.03-.182.011-.182.1v.123C34.957,31.728,35.053,31.768,35.139,31.739Z" transform="translate(-31.012 -26.792)" fill="#00348d"/>
        <ellipse id="Elipse_1335" data-name="Elipse 1335" cx="0.132" cy="0.132" rx="0.132" ry="0.132" transform="translate(4.394 4.652)" fill="#00348d"/>
        <path id="Trazado_9437" data-name="Trazado 9437" d="M77,46.238a2.605,2.605,0,0,0,.085,1.224,1.944,1.944,0,0,1,.106.19,12.861,12.861,0,0,1,1.06-1.76,4.457,4.457,0,0,1-.476-.248c-.113-.069-.275-.175-.447-.289A1.893,1.893,0,0,1,77,46.238Z" transform="translate(-62.631 -37.295)" fill="#00348d"/>
        <path id="Trazado_9438" data-name="Trazado 9438" d="M38.172,31.739c.086.03.182-.011.182-.1v-.123c0-.091-.1-.131-.182-.1l-.213.074a.072.072,0,0,0-.034.068V31.6a.072.072,0,0,0,.034.068Z" transform="translate(-33.245 -26.793)" fill="#00348d"/>
        <path id="Trazado_9439" data-name="Trazado 9439" d="M24.79,63.88a.628.628,0,0,1,.145.4h.309a.937.937,0,0,0-.349-.726A2.586,2.586,0,0,1,24.79,63.88Z" transform="translate(-23.358 -50.994)" fill="#00348d"/>
        <path id="Trazado_9440" data-name="Trazado 9440" d="M19,63.885h0v.035h0v8.591H19.3V63.92h0a.631.631,0,0,1,.308-.541q-.046-.139-.085-.3A.94.94,0,0,0,19,63.885Z" transform="translate(-18.997 -50.636)" fill="#00348d"/>
        <path id="Trazado_9441" data-name="Trazado 9441" d="M45.944,39.758s-.005,0-.007.007c-.119.183.333.625.859,1.05.084-.164.172-.333.268-.512-.138-.052-.271-.108-.377-.16C46.51,40.058,46.225,39.909,45.944,39.758Z" transform="translate(-39.263 -33.082)" fill="#00348d"/>
        <path id="Trazado_9442" data-name="Trazado 9442" d="M29.468,33.13a.333.333,0,0,0-.022-.177,4.333,4.333,0,0,0-2.569-2.072,3.732,3.732,0,0,0-4.954.867,2.4,2.4,0,0,0-.281.417c-.016.027-.033.053-.048.081h0a5.5,5.5,0,0,0-.769,3.14.6.6,0,0,0-.035.194s.043,3.5.607,3.5.589-3.5.589-3.5a.6.6,0,0,0-.1-.329,4.773,4.773,0,0,0,.227-.5c.157-.422.862-2.284.907-2.5h.068l-.542,2.379c-.008.027-.012.055-.019.082-.013.049-.025.1-.034.149,0,0,0,.008,0,.013l-.009.039h0c0,.012,0,.024,0,.036-.007.05-.015.1-.019.15,0,.018,0,.037,0,.056,0,.051-.008.1-.008.153a2.409,2.409,0,0,0,.434,1.381c-.012.053-.024.11-.036.168-.178.564-.5,2.633.027,9.987,0,0,.028.017.078.042v.172a.733.733,0,0,0,.665.785h0a.732.732,0,0,0,.665-.785v-.129a1.381,1.381,0,0,0,.148-.085c.128-3.349-.118-7.2.437-8.584a4.741,4.741,0,0,1,.253,1.155c.017.315.036.605.053.808.009.108.022.241.04.389.08,1.773.01,4.105.091,6.233.031.021.063.037.095.055v.143a.733.733,0,0,0,.665.785h0a.732.732,0,0,0,.665-.785v-.13a1.278,1.278,0,0,0,.131-.068c.591-8.23.116-9.841-.029-10.132a2.416,2.416,0,0,0,.263-.465.176.176,0,0,0,.071.118c.491.278,2.244-2.75,2.244-2.75A.6.6,0,0,0,29.468,33.13Zm-4.44-2.407a.072.072,0,0,1,.034-.068l.213-.074c.086-.03.182.011.182.1v.123c0,.091-.1.131-.182.1l-.213-.074a.072.072,0,0,1-.034-.068Zm-.153-.111a.132.132,0,1,1-.132.132A.132.132,0,0,1,24.875,30.612Zm-.58.07c0-.091.1-.131.182-.1l.213.074a.072.072,0,0,1,.034.068v.042a.072.072,0,0,1-.034.068l-.213.074c-.086.03-.182-.011-.182-.1Zm3,4.621c0-.006,0-.011,0-.017a2.134,2.134,0,0,0-.013-.223c0-.011,0-.022,0-.034,0-.035-.007-.069-.013-.1h0l-.009-.039c0-.015-.007-.03-.01-.045-.007-.035-.015-.069-.024-.1-.012-.054-.021-.109-.037-.162l-.518-2.28c.367.2.884.48,1.155.612a4.79,4.79,0,0,0,.5.2A20.04,20.04,0,0,0,27.3,35.3Z" transform="translate(-20.349 -25.961)" fill="#00348d"/>
        <ellipse id="Elipse_1336" data-name="Elipse 1336" cx="0.473" cy="0.41" rx="0.473" ry="0.41" transform="translate(11.576 3.279)" fill="#00348d"/>
        <ellipse id="Elipse_1337" data-name="Elipse 1337" cx="0.473" cy="0.41" rx="0.473" ry="0.41" transform="translate(12.978 3.279)" fill="#00348d"/>
        <g id="Grupo_23663" data-name="Grupo 23663" transform="translate(11.011 1.888)">
          <ellipse id="Elipse_1338" data-name="Elipse 1338" cx="0.473" cy="0.41" rx="0.473" ry="0.41" transform="translate(1.967 1.392)" fill="#00348d"/>
          <ellipse id="Elipse_1339" data-name="Elipse 1339" cx="0.473" cy="0.41" rx="0.473" ry="0.41" transform="translate(0.565 1.392)" fill="#00348d"/>
          <path id="Trazado_9443" data-name="Trazado 9443" d="M67.054,22.143a1.757,1.757,0,1,0-3.325.789.167.167,0,0,0-.019.074.169.169,0,0,0,.107.157.118.118,0,0,0-.058.1.12.12,0,0,0,.229.049,1.751,1.751,0,0,0,2.617,0,.119.119,0,1,0,.171-.15.169.169,0,0,0,.107-.157.167.167,0,0,0-.019-.074A1.741,1.741,0,0,0,67.054,22.143Zm-.56-.249a.451.451,0,0,1,.113.294.539.539,0,0,1-.573.5.553.553,0,0,1-.564-.418.182.182,0,0,0-.192-.16.184.184,0,0,0-.188.141.549.549,0,0,1-.566.436.539.539,0,0,1-.573-.5.452.452,0,0,1,.113-.294c-.1.039-.245-.117-.128-.068a.357.357,0,0,0,.254-.04l0,0-.006,0c-.075.021-.146-.109-.077-.061.053.038.161.012.208,0-.07,0-.1-.125-.05-.069s.206.039.206.039v0c.017,0,.033,0,.051,0a.546.546,0,0,1,.568.451.261.261,0,0,1,.374.006.544.544,0,0,1,.568-.457c.017,0,.034,0,.051,0v0s.158.018.206-.039.02.07-.05.069c.046.013.155.038.208,0,.068-.048,0,.082-.077.061l-.006,0,0,0a.358.358,0,0,0,.254.04C66.739,21.776,66.6,21.933,66.494,21.894Z" transform="translate(-63.54 -20.386)" fill="#00348d"/>
        </g>
        <g id="Grupo_23664" data-name="Grupo 23664" transform="translate(2.372 0)">
          <path id="Trazado_9444" data-name="Trazado 9444" d="M35.865,25.193a2.392,2.392,0,0,0-.015-.316.471.471,0,0,0-.5-.381,1.327,1.327,0,0,0-.191.068,1.357,1.357,0,0,0-.191-.068.471.471,0,0,0-.5.381,2.354,2.354,0,0,0-.015.316h0a.429.429,0,0,0,0,.1c.008.041.017.1.045.114a.1.1,0,0,0,.143-.034.4.4,0,0,1,.094-.087.147.147,0,0,0,.063.005.408.408,0,0,0,.289-.2,1.093,1.093,0,0,0,.068-.128,1.055,1.055,0,0,0,.068.128.408.408,0,0,0,.289.2.147.147,0,0,0,.063-.005.385.385,0,0,1,.094.087.1.1,0,0,0,.143.034c.028-.016.037-.073.045-.114a.416.416,0,0,0,0-.1Z" transform="translate(-33.008 -21.59)" fill="#00348d"/>
          <path id="Trazado_9445" data-name="Trazado 9445" d="M32.779,13.793h-.606a.648.648,0,0,0,.019-.153V13.4a.648.648,0,0,0-.648-.648h-1.6a.648.648,0,0,0-.648.648v.243a.65.65,0,0,0,.019.153h-.606c-.066,0-.12.116-.12.259s.054.259.12.259H29.3a1.68,1.68,0,1,0,2.887,0h.589c.066,0,.12-.116.12-.259S32.845,13.793,32.779,13.793Zm-1.33,2.658c-.008.041-.017.1-.045.114a.1.1,0,0,1-.143-.034.4.4,0,0,0-.094-.087.147.147,0,0,1-.063.005.408.408,0,0,1-.289-.2,1.093,1.093,0,0,1-.068-.128,1.055,1.055,0,0,1-.068.128.408.408,0,0,1-.289.2.147.147,0,0,1-.063-.005.385.385,0,0,0-.094.087.1.1,0,0,1-.143.034c-.028-.016-.037-.073-.045-.114a.416.416,0,0,1,0-.1h0a2.391,2.391,0,0,1,.015-.316.471.471,0,0,1,.5-.381,1.327,1.327,0,0,1,.191.068,1.347,1.347,0,0,1,.191-.068.471.471,0,0,1,.5.381,2.354,2.354,0,0,1,.015.316h0A.474.474,0,0,1,31.449,16.451Z" transform="translate(-28.591 -12.749)" fill="#00348d"/>
        </g>
      </g>
    </g>
    <path id="Trazado_10278" data-name="Trazado 10278" d="M3.242,0H1.273V-11.375H3.242ZM14.7,0H12.719L7.648-8.07V0H5.672V-11.375H7.648l5.086,8.1v-8.1H14.7ZM25.023-9.781H21.477V0H19.516V-9.781H16v-1.594h9.023Zm8.141,4.7H28.492v3.5h5.461V0H26.516V-11.375H33.9v1.594H28.492v3.141h4.672Zm6.578.7h-2.2V0H35.563V-11.375h4a4.656,4.656,0,0,1,3.039.883,3.122,3.122,0,0,1,1.07,2.555,3.2,3.2,0,0,1-.551,1.91,3.5,3.5,0,0,1-1.535,1.184L44.141-.1V0H42.023Zm-2.2-1.586H39.57a2.259,2.259,0,0,0,1.563-.5A1.757,1.757,0,0,0,41.7-7.852a1.871,1.871,0,0,0-.52-1.414,2.207,2.207,0,0,0-1.551-.516H37.539ZM49.406-2.477l2.891-8.9h2.172L50.375,0H48.461L44.383-11.375h2.164Zm12.125-.172H57.125L56.2,0H54.148l4.3-11.375h1.773L64.523,0H62.461ZM57.68-4.242h3.3L59.328-8.961ZM74.836,0H72.859l-5.07-8.07V0H65.813V-11.375h1.977l5.086,8.1v-8.1h1.961ZM85.852-3.7a4.107,4.107,0,0,1-1.344,2.84A4.581,4.581,0,0,1,81.391.156,4.436,4.436,0,0,1,79-.488,4.231,4.231,0,0,1,77.4-2.32a6.611,6.611,0,0,1-.586-2.758V-6.141a6.659,6.659,0,0,1,.57-2.836,4.3,4.3,0,0,1,1.637-1.891,4.566,4.566,0,0,1,2.465-.664,4.386,4.386,0,0,1,3.031,1.023,4.276,4.276,0,0,1,1.336,2.891H83.883a2.81,2.81,0,0,0-.715-1.77,2.363,2.363,0,0,0-1.684-.543,2.309,2.309,0,0,0-1.98.941A4.7,4.7,0,0,0,78.8-6.227v1.008a4.988,4.988,0,0,0,.66,2.813,2.191,2.191,0,0,0,1.934.969,2.555,2.555,0,0,0,1.75-.523A2.729,2.729,0,0,0,83.883-3.7ZM89.7,0H87.734V-11.375H89.7Zm11.508-5.391a6.979,6.979,0,0,1-.578,2.934A4.371,4.371,0,0,1,98.98-.52a4.545,4.545,0,0,1-2.473.676A4.556,4.556,0,0,1,94.043-.52a4.438,4.438,0,0,1-1.672-1.926,6.761,6.761,0,0,1-.6-2.883v-.641a6.919,6.919,0,0,1,.59-2.937,4.433,4.433,0,0,1,1.664-1.949,4.531,4.531,0,0,1,2.465-.676,4.57,4.57,0,0,1,2.465.668,4.377,4.377,0,0,1,1.66,1.922,6.9,6.9,0,0,1,.594,2.918Zm-1.977-.594a4.973,4.973,0,0,0-.715-2.9,2.339,2.339,0,0,0-2.027-1.008,2.332,2.332,0,0,0-2,1,4.876,4.876,0,0,0-.738,2.84v.656a4.935,4.935,0,0,0,.73,2.9,2.352,2.352,0,0,0,2.027,1.023,2.325,2.325,0,0,0,2.02-1,5.041,5.041,0,0,0,.707-2.922ZM112.2,0h-1.977l-5.07-8.07V0H103.18V-11.375h1.977l5.086,8.1v-8.1H112.2Zm8.984-5.078h-4.672v3.5h5.461V0h-7.437V-11.375h7.383v1.594h-5.406v3.141h4.672Zm8.344,2.148A1.374,1.374,0,0,0,129-4.086a6.345,6.345,0,0,0-1.9-.82,9.186,9.186,0,0,1-2.187-.922,2.919,2.919,0,0,1-1.555-2.547,2.772,2.772,0,0,1,1.121-2.266,4.538,4.538,0,0,1,2.91-.891,4.916,4.916,0,0,1,2.117.438,3.475,3.475,0,0,1,1.461,1.246,3.2,3.2,0,0,1,.531,1.793h-1.969a1.783,1.783,0,0,0-.559-1.395,2.305,2.305,0,0,0-1.6-.5,2.408,2.408,0,0,0-1.5.414,1.379,1.379,0,0,0-.535,1.156,1.247,1.247,0,0,0,.578,1.043,6.66,6.66,0,0,0,1.906.813,8.768,8.768,0,0,1,2.133.9,3.392,3.392,0,0,1,1.18,1.156,3.011,3.011,0,0,1,.375,1.527,2.707,2.707,0,0,1-1.09,2.262,4.727,4.727,0,0,1-2.957.84,5.557,5.557,0,0,1-2.27-.457,3.812,3.812,0,0,1-1.609-1.262,3.144,3.144,0,0,1-.574-1.875h1.977a1.84,1.84,0,0,0,.641,1.5,2.805,2.805,0,0,0,1.836.531,2.437,2.437,0,0,0,1.551-.418A1.349,1.349,0,0,0,129.531-2.93Z" transform="translate(338 3811.045) rotate(-90)" fill="#00348d"/>
    <path id="Trazado_9502" data-name="Trazado 9502" d="M-12582-8028.56V-8042h-141.5v13.44" transform="translate(13056 11700)" fill="none" stroke="#00348d" stroke-width="1"/>
    <path id="Trazado_9503" data-name="Trazado 9503" d="M-12582-8042v13.44h-141.5V-8042" transform="translate(13056 11862)" fill="none" stroke="#00348d" stroke-width="1"/>
    <path id="Trazado_10279" data-name="Trazado 10279" d="M2.82-4.453V0H1.32V-11.375h4.2a4.215,4.215,0,0,1,2.926.953A3.231,3.231,0,0,1,9.5-7.9,3.189,3.189,0,0,1,8.465-5.348,4.4,4.4,0,0,1,5.5-4.453Zm0-1.227h2.7a2.7,2.7,0,0,0,1.844-.566A2.069,2.069,0,0,0,8-7.883a2.138,2.138,0,0,0-.641-1.625A2.528,2.528,0,0,0,5.6-10.141H2.82ZM10.7-4.3a4.993,4.993,0,0,1,.488-2.234A3.643,3.643,0,0,1,12.551-8.07a3.7,3.7,0,0,1,1.988-.539,3.565,3.565,0,0,1,2.793,1.2A4.6,4.6,0,0,1,18.4-4.234v.1a5.036,5.036,0,0,1-.473,2.215A3.589,3.589,0,0,1,16.574-.391a3.743,3.743,0,0,1-2.02.547,3.556,3.556,0,0,1-2.785-1.2A4.575,4.575,0,0,1,10.7-4.2Zm1.453.172a3.616,3.616,0,0,0,.652,2.258,2.088,2.088,0,0,0,1.746.852,2.075,2.075,0,0,0,1.75-.863A3.955,3.955,0,0,0,16.953-4.3a3.61,3.61,0,0,0-.66-2.254,2.1,2.1,0,0,0-1.754-.863,2.075,2.075,0,0,0-1.727.852A3.925,3.925,0,0,0,12.156-4.133Zm15.211,0a5.026,5.026,0,0,1-.891,3.113A2.846,2.846,0,0,1,24.086.156,2.947,2.947,0,0,1,21.609-.977L21.539,0H20.211V-12h1.445v4.477A2.93,2.93,0,0,1,24.07-8.609a2.863,2.863,0,0,1,2.418,1.164,5.177,5.177,0,0,1,.879,3.188ZM25.922-4.3a3.906,3.906,0,0,0-.57-2.281,1.888,1.888,0,0,0-1.641-.8,2.122,2.122,0,0,0-2.055,1.328V-2.4a2.181,2.181,0,0,0,2.07,1.328,1.878,1.878,0,0,0,1.617-.8A4.153,4.153,0,0,0,25.922-4.3ZM30.758,0H29.313V-12h1.445Zm7.531,0a3.036,3.036,0,0,1-.2-.891A3.225,3.225,0,0,1,35.68.156a2.984,2.984,0,0,1-2.051-.707,2.287,2.287,0,0,1-.8-1.793,2.39,2.39,0,0,1,1-2.051,4.733,4.733,0,0,1,2.824-.73h1.406v-.664A1.623,1.623,0,0,0,37.609-7a1.821,1.821,0,0,0-1.336-.449,2.107,2.107,0,0,0-1.3.391,1.151,1.151,0,0,0-.523.945H33a2,2,0,0,1,.449-1.223,3.066,3.066,0,0,1,1.219-.934,4.1,4.1,0,0,1,1.691-.344,3.342,3.342,0,0,1,2.289.73,2.635,2.635,0,0,1,.859,2.012v3.891a4.757,4.757,0,0,0,.3,1.852V0Zm-2.4-1.1a2.54,2.54,0,0,0,1.289-.352,2.127,2.127,0,0,0,.883-.914V-4.1H36.93q-2.656,0-2.656,1.555a1.316,1.316,0,0,0,.453,1.063A1.742,1.742,0,0,0,35.891-1.1Zm9.273.078a2.082,2.082,0,0,0,1.352-.469,1.649,1.649,0,0,0,.641-1.172h1.367a2.621,2.621,0,0,1-.5,1.383,3.293,3.293,0,0,1-1.23,1.047,3.55,3.55,0,0,1-1.629.391A3.482,3.482,0,0,1,42.418-1,4.59,4.59,0,0,1,41.4-4.148v-.242a5.089,5.089,0,0,1,.453-2.2,3.451,3.451,0,0,1,1.3-1.492,3.7,3.7,0,0,1,2-.531,3.39,3.39,0,0,1,2.363.852,3.043,3.043,0,0,1,1,2.211H47.156a1.992,1.992,0,0,0-.621-1.348,1.932,1.932,0,0,0-1.379-.527,2.023,2.023,0,0,0-1.707.793,3.724,3.724,0,0,0-.605,2.293v.273a3.65,3.65,0,0,0,.6,2.25A2.033,2.033,0,0,0,45.164-1.023ZM51.719,0H50.273V-8.453h1.445ZM50.156-10.7a.863.863,0,0,1,.215-.594.807.807,0,0,1,.637-.242.819.819,0,0,1,.641.242.854.854,0,0,1,.219.594.826.826,0,0,1-.219.586.834.834,0,0,1-.641.234.821.821,0,0,1-.637-.234A.834.834,0,0,1,50.156-10.7ZM53.648-4.3a4.993,4.993,0,0,1,.488-2.234A3.643,3.643,0,0,1,55.5-8.07a3.7,3.7,0,0,1,1.988-.539,3.565,3.565,0,0,1,2.793,1.2,4.6,4.6,0,0,1,1.066,3.18v.1a5.036,5.036,0,0,1-.473,2.215A3.589,3.589,0,0,1,59.52-.391,3.743,3.743,0,0,1,57.5.156a3.556,3.556,0,0,1-2.785-1.2A4.575,4.575,0,0,1,53.648-4.2Zm1.453.172a3.616,3.616,0,0,0,.652,2.258,2.088,2.088,0,0,0,1.746.852,2.075,2.075,0,0,0,1.75-.863A3.955,3.955,0,0,0,59.9-4.3a3.61,3.61,0,0,0-.66-2.254,2.1,2.1,0,0,0-1.754-.863,2.075,2.075,0,0,0-1.727.852A3.925,3.925,0,0,0,55.1-4.133Zm9.422-4.32.047,1.063A3.08,3.08,0,0,1,67.1-8.609q2.68,0,2.7,3.023V0H68.359V-5.594a1.946,1.946,0,0,0-.418-1.352,1.675,1.675,0,0,0-1.277-.437,2.086,2.086,0,0,0-1.234.375,2.546,2.546,0,0,0-.828.984V0H63.156V-8.453ZM75.492.156A3.693,3.693,0,0,1,72.7-.973a4.19,4.19,0,0,1-1.078-3.02v-.266A5.073,5.073,0,0,1,72.1-6.5a3.748,3.748,0,0,1,1.344-1.547,3.378,3.378,0,0,1,1.871-.559,3.166,3.166,0,0,1,2.563,1.086,4.7,4.7,0,0,1,.914,3.109v.6H73.063a3,3,0,0,0,.73,2.02,2.3,2.3,0,0,0,1.777.77,2.517,2.517,0,0,0,1.3-.312,3.259,3.259,0,0,0,.93-.828l.883.688A3.55,3.55,0,0,1,75.492.156Zm-.18-7.578a1.928,1.928,0,0,0-1.469.637A3.1,3.1,0,0,0,73.109-5h4.234v-.109a2.753,2.753,0,0,0-.594-1.707A1.815,1.815,0,0,0,75.313-7.422Zm10.07,5.18a1.064,1.064,0,0,0-.441-.91A4.249,4.249,0,0,0,83.4-3.711a7.277,7.277,0,0,1-1.742-.562,2.479,2.479,0,0,1-.953-.781A1.869,1.869,0,0,1,80.4-6.133a2.193,2.193,0,0,1,.879-1.758,3.432,3.432,0,0,1,2.246-.719,3.532,3.532,0,0,1,2.332.742,2.357,2.357,0,0,1,.895,1.9H85.3a1.3,1.3,0,0,0-.5-1.023,1.888,1.888,0,0,0-1.27-.43,1.976,1.976,0,0,0-1.234.344,1.082,1.082,0,0,0-.445.9.877.877,0,0,0,.414.789,5.1,5.1,0,0,0,1.5.508,7.8,7.8,0,0,1,1.754.578,2.558,2.558,0,0,1,1,.809,1.988,1.988,0,0,1,.324,1.152,2.163,2.163,0,0,1-.906,1.816A3.8,3.8,0,0,1,83.57.156a4.257,4.257,0,0,1-1.8-.359,2.922,2.922,0,0,1-1.223-1A2.42,2.42,0,0,1,80.109-2.6h1.445a1.5,1.5,0,0,0,.582,1.152,2.258,2.258,0,0,0,1.434.426,2.331,2.331,0,0,0,1.316-.332A1.02,1.02,0,0,0,85.383-2.242Z" transform="translate(430 3708)" fill="#00348d"/>
    <path id="Trazado_10280" data-name="Trazado 10280" d="M9.688-3.609A4.185,4.185,0,0,1,8.355-.824a4.365,4.365,0,0,1-2.98.98,4.008,4.008,0,0,1-3.23-1.445A5.815,5.815,0,0,1,.93-5.156V-6.25A6.481,6.481,0,0,1,1.5-9.039,4.231,4.231,0,0,1,3.1-10.887a4.47,4.47,0,0,1,2.406-.645A4.11,4.11,0,0,1,8.414-10.52a4.235,4.235,0,0,1,1.273,2.8H8.18a3.254,3.254,0,0,0-.848-1.969A2.569,2.569,0,0,0,5.508-10.3,2.685,2.685,0,0,0,3.254-9.234a4.875,4.875,0,0,0-.816,3.023v1.1a5.011,5.011,0,0,0,.773,2.945A2.5,2.5,0,0,0,5.375-1.07a2.887,2.887,0,0,0,1.918-.566A3.143,3.143,0,0,0,8.18-3.609Zm1.438-.7a4.993,4.993,0,0,1,.488-2.234A3.643,3.643,0,0,1,12.973-8.07a3.7,3.7,0,0,1,1.988-.539,3.565,3.565,0,0,1,2.793,1.2,4.6,4.6,0,0,1,1.066,3.18v.1a5.036,5.036,0,0,1-.473,2.215A3.589,3.589,0,0,1,17-.391a3.743,3.743,0,0,1-2.02.547,3.556,3.556,0,0,1-2.785-1.2A4.575,4.575,0,0,1,11.125-4.2Zm1.453.172a3.616,3.616,0,0,0,.652,2.258,2.088,2.088,0,0,0,1.746.852,2.075,2.075,0,0,0,1.75-.863A3.955,3.955,0,0,0,17.375-4.3a3.61,3.61,0,0,0-.66-2.254,2.1,2.1,0,0,0-1.754-.863,2.075,2.075,0,0,0-1.727.852A3.925,3.925,0,0,0,12.578-4.133ZM22.2,0H20.758V-12H22.2Zm5.82.156a3.693,3.693,0,0,1-2.8-1.129,4.19,4.19,0,0,1-1.078-3.02v-.266a5.073,5.073,0,0,1,.48-2.246,3.748,3.748,0,0,1,1.344-1.547,3.378,3.378,0,0,1,1.871-.559,3.166,3.166,0,0,1,2.563,1.086,4.7,4.7,0,0,1,.914,3.109v.6H25.594a3,3,0,0,0,.73,2.02,2.3,2.3,0,0,0,1.777.77,2.517,2.517,0,0,0,1.3-.312,3.259,3.259,0,0,0,.93-.828l.883.688A3.55,3.55,0,0,1,28.023.156Zm-.18-7.578a1.928,1.928,0,0,0-1.469.637A3.1,3.1,0,0,0,25.641-5h4.234v-.109a2.753,2.753,0,0,0-.594-1.707A1.815,1.815,0,0,0,27.844-7.422Zm8.539,6.4a2.082,2.082,0,0,0,1.352-.469,1.649,1.649,0,0,0,.641-1.172h1.367a2.621,2.621,0,0,1-.5,1.383,3.293,3.293,0,0,1-1.23,1.047,3.55,3.55,0,0,1-1.629.391A3.482,3.482,0,0,1,33.637-1a4.59,4.59,0,0,1-1.02-3.152v-.242a5.089,5.089,0,0,1,.453-2.2,3.451,3.451,0,0,1,1.3-1.492,3.7,3.7,0,0,1,2-.531,3.39,3.39,0,0,1,2.363.852,3.043,3.043,0,0,1,1,2.211H38.375a1.992,1.992,0,0,0-.621-1.348,1.932,1.932,0,0,0-1.379-.527,2.023,2.023,0,0,0-1.707.793,3.724,3.724,0,0,0-.605,2.293v.273a3.65,3.65,0,0,0,.6,2.25A2.033,2.033,0,0,0,36.383-1.023ZM43.328-10.5v2.047h1.578v1.117H43.328v5.242a1.171,1.171,0,0,0,.211.762.888.888,0,0,0,.719.254,3.5,3.5,0,0,0,.688-.094V0a4.19,4.19,0,0,1-1.109.156A1.8,1.8,0,0,1,42.375-.43a2.517,2.517,0,0,1-.492-1.664V-7.336H40.344V-8.453h1.539V-10.5ZM48.164,0H46.719V-8.453h1.445ZM46.6-10.7a.863.863,0,0,1,.215-.594.807.807,0,0,1,.637-.242.819.819,0,0,1,.641.242.854.854,0,0,1,.219.594.826.826,0,0,1-.219.586.834.834,0,0,1-.641.234.821.821,0,0,1-.637-.234A.834.834,0,0,1,46.6-10.7Zm6.664,8.734,2.094-6.492h1.477L53.8,0H52.7L49.641-8.453h1.477ZM63.328,0a3.036,3.036,0,0,1-.2-.891A3.225,3.225,0,0,1,60.719.156a2.984,2.984,0,0,1-2.051-.707,2.287,2.287,0,0,1-.8-1.793,2.39,2.39,0,0,1,1-2.051,4.733,4.733,0,0,1,2.824-.73H63.1v-.664A1.623,1.623,0,0,0,62.648-7a1.821,1.821,0,0,0-1.336-.449,2.107,2.107,0,0,0-1.3.391,1.151,1.151,0,0,0-.523.945H58.039a2,2,0,0,1,.449-1.223,3.066,3.066,0,0,1,1.219-.934A4.1,4.1,0,0,1,61.4-8.609a3.342,3.342,0,0,1,2.289.73,2.635,2.635,0,0,1,.859,2.012v3.891a4.757,4.757,0,0,0,.3,1.852V0Zm-2.4-1.1a2.54,2.54,0,0,0,1.289-.352,2.127,2.127,0,0,0,.883-.914V-4.1H61.969q-2.656,0-2.656,1.555a1.316,1.316,0,0,0,.453,1.063A1.742,1.742,0,0,0,60.93-1.1Zm10.8-1.141a1.064,1.064,0,0,0-.441-.91,4.249,4.249,0,0,0-1.539-.559,7.277,7.277,0,0,1-1.742-.562,2.479,2.479,0,0,1-.953-.781,1.869,1.869,0,0,1-.309-1.078,2.193,2.193,0,0,1,.879-1.758,3.432,3.432,0,0,1,2.246-.719,3.532,3.532,0,0,1,2.332.742,2.357,2.357,0,0,1,.895,1.9H71.648a1.3,1.3,0,0,0-.5-1.023,1.888,1.888,0,0,0-1.27-.43,1.976,1.976,0,0,0-1.234.344,1.082,1.082,0,0,0-.445.9.877.877,0,0,0,.414.789,5.1,5.1,0,0,0,1.5.508,7.8,7.8,0,0,1,1.754.578,2.558,2.558,0,0,1,1,.809,1.988,1.988,0,0,1,.324,1.152,2.163,2.163,0,0,1-.906,1.816,3.8,3.8,0,0,1-2.352.684,4.257,4.257,0,0,1-1.8-.359,2.922,2.922,0,0,1-1.223-1A2.42,2.42,0,0,1,66.461-2.6h1.445a1.5,1.5,0,0,0,.582,1.152,2.258,2.258,0,0,0,1.434.426,2.331,2.331,0,0,0,1.316-.332A1.02,1.02,0,0,0,71.734-2.242Z" transform="translate(430 3796)" fill="#00348d"/>
    <path id="Trazado_10281" data-name="Trazado 10281" d="M2.93,0H1.43V-11.375h1.5ZM6.813-8.453l.047,1.063A3.08,3.08,0,0,1,9.391-8.609q2.68,0,2.7,3.023V0H10.648V-5.594a1.946,1.946,0,0,0-.418-1.352,1.675,1.675,0,0,0-1.277-.437,2.086,2.086,0,0,0-1.234.375,2.546,2.546,0,0,0-.828.984V0H5.445V-8.453ZM13.922-4.3a4.952,4.952,0,0,1,.922-3.129,2.915,2.915,0,0,1,2.414-1.184,2.932,2.932,0,0,1,2.352,1.016V-12h1.445V0H19.727l-.07-.906A2.943,2.943,0,0,1,17.242.156a2.887,2.887,0,0,1-2.395-1.2,5.008,5.008,0,0,1-.926-3.141Zm1.445.164a3.749,3.749,0,0,0,.594,2.25A1.92,1.92,0,0,0,17.6-1.07,2.108,2.108,0,0,0,19.609-2.3V-6.187a2.125,2.125,0,0,0-1.992-1.2,1.929,1.929,0,0,0-1.656.82A4.128,4.128,0,0,0,15.367-4.133ZM24.867,0H23.422V-8.453h1.445ZM23.3-10.7a.863.863,0,0,1,.215-.594.807.807,0,0,1,.637-.242.819.819,0,0,1,.641.242.854.854,0,0,1,.219.594.826.826,0,0,1-.219.586.834.834,0,0,1-.641.234.821.821,0,0,1-.637-.234A.834.834,0,0,1,23.3-10.7Zm6.664,8.734,2.094-6.492h1.477L30.508,0h-1.1L26.344-8.453H27.82ZM36.5,0H35.055V-8.453H36.5ZM34.938-10.7a.863.863,0,0,1,.215-.594.807.807,0,0,1,.637-.242.819.819,0,0,1,.641.242.854.854,0,0,1,.219.594.826.826,0,0,1-.219.586.834.834,0,0,1-.641.234.821.821,0,0,1-.637-.234A.834.834,0,0,1,34.938-10.7Zm3.523,6.4a4.952,4.952,0,0,1,.922-3.129A2.915,2.915,0,0,1,41.8-8.609a2.932,2.932,0,0,1,2.352,1.016V-12h1.445V0H44.266L44.2-.906A2.943,2.943,0,0,1,41.781.156a2.887,2.887,0,0,1-2.395-1.2,5.008,5.008,0,0,1-.926-3.141Zm1.445.164a3.749,3.749,0,0,0,.594,2.25,1.92,1.92,0,0,0,1.641.813A2.108,2.108,0,0,0,44.148-2.3V-6.187a2.125,2.125,0,0,0-1.992-1.2,1.929,1.929,0,0,0-1.656.82A4.128,4.128,0,0,0,39.906-4.133Zm13.148,3.3a3.07,3.07,0,0,1-2.477.992A2.628,2.628,0,0,1,48.52-.629,3.4,3.4,0,0,1,47.8-2.953v-5.5H49.25v5.461q0,1.922,1.563,1.922a2.163,2.163,0,0,0,2.2-1.234V-8.453h1.445V0H53.086ZM61.875,0a3.036,3.036,0,0,1-.2-.891A3.225,3.225,0,0,1,59.266.156a2.984,2.984,0,0,1-2.051-.707,2.287,2.287,0,0,1-.8-1.793,2.39,2.39,0,0,1,1-2.051,4.733,4.733,0,0,1,2.824-.73h1.406v-.664A1.623,1.623,0,0,0,61.2-7a1.821,1.821,0,0,0-1.336-.449,2.107,2.107,0,0,0-1.3.391,1.151,1.151,0,0,0-.523.945H56.586a2,2,0,0,1,.449-1.223,3.066,3.066,0,0,1,1.219-.934,4.1,4.1,0,0,1,1.691-.344,3.342,3.342,0,0,1,2.289.73,2.635,2.635,0,0,1,.859,2.012v3.891a4.757,4.757,0,0,0,.3,1.852V0Zm-2.4-1.1a2.54,2.54,0,0,0,1.289-.352,2.127,2.127,0,0,0,.883-.914V-4.1H60.516q-2.656,0-2.656,1.555a1.316,1.316,0,0,0,.453,1.063A1.742,1.742,0,0,0,59.477-1.1ZM66.93,0H65.484V-12H66.93Zm5.82.156a3.693,3.693,0,0,1-2.8-1.129,4.19,4.19,0,0,1-1.078-3.02v-.266a5.073,5.073,0,0,1,.48-2.246A3.748,3.748,0,0,1,70.7-8.051a3.378,3.378,0,0,1,1.871-.559,3.166,3.166,0,0,1,2.563,1.086,4.7,4.7,0,0,1,.914,3.109v.6H70.32a3,3,0,0,0,.73,2.02,2.3,2.3,0,0,0,1.777.77,2.517,2.517,0,0,0,1.3-.312,3.259,3.259,0,0,0,.93-.828l.883.688A3.55,3.55,0,0,1,72.75.156Zm-.18-7.578a1.928,1.928,0,0,0-1.469.637A3.1,3.1,0,0,0,70.367-5H74.6v-.109a2.753,2.753,0,0,0-.594-1.707A1.815,1.815,0,0,0,72.57-7.422Zm10.07,5.18a1.064,1.064,0,0,0-.441-.91,4.249,4.249,0,0,0-1.539-.559,7.277,7.277,0,0,1-1.742-.562,2.479,2.479,0,0,1-.953-.781,1.869,1.869,0,0,1-.309-1.078,2.193,2.193,0,0,1,.879-1.758,3.432,3.432,0,0,1,2.246-.719,3.532,3.532,0,0,1,2.332.742,2.357,2.357,0,0,1,.895,1.9H82.555a1.3,1.3,0,0,0-.5-1.023,1.888,1.888,0,0,0-1.27-.43,1.976,1.976,0,0,0-1.234.344,1.082,1.082,0,0,0-.445.9.877.877,0,0,0,.414.789,5.1,5.1,0,0,0,1.5.508,7.8,7.8,0,0,1,1.754.578,2.558,2.558,0,0,1,1,.809,1.988,1.988,0,0,1,.324,1.152A2.163,2.163,0,0,1,83.18-.527a3.8,3.8,0,0,1-2.352.684,4.257,4.257,0,0,1-1.8-.359,2.922,2.922,0,0,1-1.223-1A2.42,2.42,0,0,1,77.367-2.6h1.445a1.5,1.5,0,0,0,.582,1.152,2.258,2.258,0,0,0,1.434.426,2.331,2.331,0,0,0,1.316-.332A1.02,1.02,0,0,0,82.641-2.242Z" transform="translate(430 3749)" fill="#00348d"/>
  </g>
</svg>
