<svg xmlns="http://www.w3.org/2000/svg" width="838" height="490" viewBox="0 0 838 490">
  <g id="Grupo_23715" data-name="Grupo 23715" transform="translate(-264 -2282)">
    <g id="Grupo_23657" data-name="Grupo 23657" transform="translate(296.83 1990)">
      <path id="Trazado_9390" data-name="Trazado 9390" d="M287.991,488.123A202.707,202.707,0,0,0,216.8,555.078a200.624,200.624,0,0,0-31.945,101.18H101.17A285.34,285.34,0,0,1,231.742,424.41Z" transform="translate(0 17.196)" fill="#f579a8"/>
      <path id="Trazado_9391" data-name="Trazado 9391" d="M491.764,441.3,435.484,505.03a202.186,202.186,0,0,0-196.725.289L182.51,441.606a285.741,285.741,0,0,1,309.254-.305Z" transform="translate(49.232)" fill="#00348d"/>
      <path id="Trazado_9392" data-name="Trazado 9392" d="M527.418,656.373H443.736A200.7,200.7,0,0,0,415.275,560.8,202.8,202.8,0,0,0,340.1,487.949l56.281-63.729A285.342,285.342,0,0,1,527.418,656.373Z" transform="translate(144.616 17.081)" fill="#f579a8"/>
      <path id="Trazado_9393" data-name="Trazado 9393" d="M279.119,533.13v.851l-.369-.433Z" transform="translate(107.483 83)" fill="#fff" stroke="#161615" stroke-miterlimit="10" stroke-width="1"/>
      <path id="Trazado_9394" data-name="Trazado 9394" d="M441.436,604.877h-81A120.124,120.124,0,0,0,343.9,551.438L412.975,509.3A200.7,200.7,0,0,1,441.436,604.877Z" transform="translate(146.916 68.577)" fill="#f0bace"/>
      <path id="Trazado_9395" data-name="Trazado 9395" d="M377.094,473.5l-55.751,63.119a120.693,120.693,0,0,0-42.363-7.625V448.1A200.98,200.98,0,0,1,377.094,473.5Z" transform="translate(107.622 31.534)" fill="#426fbe"/>
      <path id="Trazado_9396" data-name="Trazado 9396" d="M316.161,448.1v80.889a120.56,120.56,0,0,0-42.925,7.85L217.55,473.784A200.963,200.963,0,0,1,316.161,448.1Z" transform="translate(70.441 31.534)" fill="#89ace8"/>
      <path id="Trazado_9397" data-name="Trazado 9397" d="M254.351,547.948A120.424,120.424,0,0,0,234.3,606.99h-81a200.624,200.624,0,0,1,31.945-101.18Z" transform="translate(31.552 66.464)" fill="#ffe5ef"/>
      <path id="Trazado_9398" data-name="Trazado 9398" d="M279.119,533.13v.851l-.369-.433Z" transform="translate(107.483 83)" fill="#fff" stroke="#161615" stroke-miterlimit="10" stroke-width="1"/>
      <path id="Trazado_9399" data-name="Trazado 9399" d="M428.722,557.981A121.017,121.017,0,0,0,203.76,611.42h241.5A120.124,120.124,0,0,0,428.722,557.981Zm-104.214-3.034-.369-.433.369-.417Z" transform="translate(62.094 62.034)" fill="#fff"/>
      <path id="Trazado_9400" data-name="Trazado 9400" d="M300.08,527.155a121.219,121.219,0,0,0-57.773,46.039L173.2,531.056A202.708,202.708,0,0,1,244.393,464.1Z" transform="translate(43.597 41.219)" fill="#f2b7cd"/>
      <path id="Trazado_9401" data-name="Trazado 9401" d="M436.3,536.767l-69.075,42.138a121.3,121.3,0,0,0-61.851-51.866l55.751-63.119A202.8,202.8,0,0,1,436.3,536.767Z" transform="translate(123.595 41.11)" fill="#fce4ed"/>
      <g id="Grupo_23654" data-name="Grupo 23654" transform="translate(153.649 508.906)">
        <path id="Trazado_9402" data-name="Trazado 9402" d="M145.5,527.8l5.779,1.722-1,3.381-16.407-4.888,1.907-6.4a7.717,7.717,0,0,1,1.644-3.05,5.191,5.191,0,0,1,2.564-1.584,5.578,5.578,0,0,1,3.06.09,4.914,4.914,0,0,1,3.312,2.782,7.183,7.183,0,0,1,.03,4.984Zm-2.739-.815.9-3.019a3.1,3.1,0,0,0-.021-2.233,2.389,2.389,0,0,0-1.592-1.241,2.827,2.827,0,0,0-2.162.128,2.768,2.768,0,0,0-1.35,1.732l-.923,3.1Z" transform="translate(-133.862 -435.788)" fill="#161615"/>
        <path id="Trazado_9403" data-name="Trazado 9403" d="M149.62,511.781l-2.393,6.334,4.289,1.62,2.809-7.436,2.65,1-4.055,10.736-16.014-6.05,4.047-10.712,2.673,1.01-2.8,7.413,3.816,1.442,2.393-6.334Z" transform="translate(-132.02 -441.555)" fill="#161615"/>
        <path id="Trazado_9404" data-name="Trazado 9404" d="M152.7,508.036l-1.189,2.546,5.678,2.652-1.493,3.2-15.51-7.245,2.692-5.763a7.189,7.189,0,0,1,3.206-3.668,4.661,4.661,0,0,1,4.159.127,5.269,5.269,0,0,1,2.326,1.923,5.161,5.161,0,0,1,.714,2.87l7.906-.393.149.069-1.6,3.43Zm-3.779,1.337,1.2-2.578a2.911,2.911,0,0,0,.26-2.149,2.421,2.421,0,0,0-1.381-1.451,2.579,2.579,0,0,0-2.018-.181,2.857,2.857,0,0,0-1.52,1.618l-1.2,2.567Z" transform="translate(-130.034 -446.368)" fill="#161615"/>
        <path id="Trazado_9405" data-name="Trazado 9405" d="M159.385,498.152A1.808,1.808,0,0,0,157.7,498a9.283,9.283,0,0,0-2.244,1.637A17.859,17.859,0,0,1,153,501.57q-2.82,1.743-5.134.412a4.126,4.126,0,0,1-1.755-1.912,5.09,5.09,0,0,1-.355-2.793,8.428,8.428,0,0,1,1.109-3.153,7.717,7.717,0,0,1,2.206-2.5,5.212,5.212,0,0,1,2.735-1,4.9,4.9,0,0,1,2.78.684l-1.758,3.056a2.307,2.307,0,0,0-1.954-.268,3.044,3.044,0,0,0-1.6,1.478,3.243,3.243,0,0,0-.528,2.015,1.721,1.721,0,0,0,.891,1.34,1.648,1.648,0,0,0,1.631-.032,9.453,9.453,0,0,0,2.151-1.616,10.7,10.7,0,0,1,4.134-2.682,4.473,4.473,0,0,1,3.58.472,4.125,4.125,0,0,1,2.185,3.2,7.362,7.362,0,0,1-1.161,4.554,8.758,8.758,0,0,1-2.421,2.758,5.7,5.7,0,0,1-2.95,1.157,5.083,5.083,0,0,1-2.954-.714l1.764-3.068q2.456,1.413,4.145-1.523a3.3,3.3,0,0,0,.535-1.957A1.66,1.66,0,0,0,159.385,498.152Z" transform="translate(-126.696 -451.638)" fill="#161615"/>
        <path id="Trazado_9406" data-name="Trazado 9406" d="M164.287,484.5a10.349,10.349,0,0,1,3.1,3.292,6.737,6.737,0,0,1,.918,3.787,7.064,7.064,0,0,1-1.363,3.71,7.14,7.14,0,0,1-3.031,2.507,6.8,6.8,0,0,1-3.88.419,10.021,10.021,0,0,1-4.1-1.767l-.69-.491a10.247,10.247,0,0,1-3.1-3.316,6.792,6.792,0,0,1-.92-3.806,7.545,7.545,0,0,1,4.4-6.206,6.776,6.776,0,0,1,3.9-.395,10.309,10.309,0,0,1,4.148,1.824Zm-2.7,2.467a7.209,7.209,0,0,0-3.9-1.581,3.407,3.407,0,0,0-3.19,4.469,7.119,7.119,0,0,0,2.74,3.14l.681.482a7.293,7.293,0,0,0,3.877,1.567,3.376,3.376,0,0,0,3.225-4.458,7.246,7.246,0,0,0-2.756-3.137Z" transform="translate(-123.364 -456.783)" fill="#161615"/>
        <path id="Trazado_9407" data-name="Trazado 9407" d="M178.449,483.236l-2.339,2.641-12.985-2.329,8.431,7.469-2.339,2.639L156.4,482.3l2.339-2.641L171.752,482l-8.449-7.485,2.331-2.631Z" transform="translate(-120.218 -462.976)" fill="#161615"/>
        <path id="Trazado_9408" data-name="Trazado 9408" d="M179.182,475.448l-4.594,4.14,1.488,3.406-2.787,2.511-6.724-16.984,2.429-2.186,16.22,8.428-2.787,2.509Zm-5.8,1.379,3.18-2.864-5.888-3.32Z" transform="translate(-114.068 -466.335)" fill="#161615"/>
      </g>
      <g id="Grupo_23655" data-name="Grupo 23655" transform="translate(345.965 432.159)">
        <path id="Trazado_9409" data-name="Trazado 9409" d="M265.205,430.712l-6.225,1.305,1.433,6.845-3.243.679-3.506-16.756,10.245-2.145.586,2.8-7,1.466.905,4.326,6.225-1.3Z" transform="translate(-253.665 -417.244)" fill="#fff"/>
        <path id="Trazado_9410" data-name="Trazado 9410" d="M270.975,433.093l-5.744.857-.573,3.649-3.483.52,3.394-17.812,3.036-.454,8.477,16.043-3.482.52Zm-5.281-2.1,3.975-.592-2.944-6.041Z" transform="translate(-249.119 -417.721)" fill="#fff"/>
        <path id="Trazado_9411" data-name="Trazado 9411" d="M274.961,419.193l4.784,12.179,3.442-12.616,4.344-.231.91,17.1-3.318.177-.25-4.673-.1-8.083-3.655,12.967-2.273.12-5-12.5.759,8.036.25,4.673-3.308.175-.91-17.093Z" transform="translate(-243.392 -418.525)" fill="#fff"/>
        <path id="Trazado_9412" data-name="Trazado 9412" d="M286.816,435.849l-3.312-.083.435-17.114,3.312.083Z" transform="translate(-235.604 -418.448)" fill="#fff"/>
        <path id="Trazado_9413" data-name="Trazado 9413" d="M290.909,433.3l7.009.6-.241,2.824-10.311-.885,1.462-17.056,3.3.284Z" transform="translate(-233.267 -418.371)" fill="#fff"/>
        <path id="Trazado_9414" data-name="Trazado 9414" d="M298.25,437.047l-3.276-.49,2.536-16.931,3.276.493Z" transform="translate(-228.662 -417.858)" fill="#fff"/>
        <path id="Trazado_9415" data-name="Trazado 9415" d="M309.02,435.22l-5.659-1.3-1.87,3.188-3.432-.791,9.678-15.335,2.992.69,2.016,18.032-3.432-.791Zm-4.146-3.886,3.917.9-.528-6.7Z" transform="translate(-226.795 -417.04)" fill="#fff"/>
      </g>
      <g id="Grupo_23656" data-name="Grupo 23656" transform="translate(560.009 512.883)">
        <path id="Trazado_9416" data-name="Trazado 9416" d="M397.263,483.524a6.231,6.231,0,0,1-4.565,1.329,6.472,6.472,0,0,1-4.143-2.469,5.89,5.89,0,0,1-1.429-5.15,9.485,9.485,0,0,1,3.519-5.27l.8-.674a10.86,10.86,0,0,1,3.859-2.169,6.429,6.429,0,0,1,3.711-.067,6.924,6.924,0,0,1,4.7,6.511,6.682,6.682,0,0,1-2.148,4.37l-2.13-2.538a3.7,3.7,0,0,0,1.284-2.21,3.091,3.091,0,0,0-.888-2.217,2.76,2.76,0,0,0-2.562-1.085,7.438,7.438,0,0,0-3.546,1.875l-.99.83a7.967,7.967,0,0,0-2.6,3.212,2.709,2.709,0,0,0,.618,2.731,3.136,3.136,0,0,0,2.045,1.275,3.479,3.479,0,0,0,2.326-.82Z" transform="translate(-387.004 -468.812)" fill="#161615"/>
        <path id="Trazado_9417" data-name="Trazado 9417" d="M405.057,489.819a10.876,10.876,0,0,1-4.039,2.008,6.616,6.616,0,0,1-3.793-.136A6.726,6.726,0,0,1,392.9,486a6.669,6.669,0,0,1,.86-3.7,10.578,10.578,0,0,1,2.952-3.336l.676-.512a10.851,10.851,0,0,1,4.061-2.007,6.689,6.689,0,0,1,3.813.143,6.723,6.723,0,0,1,4.318,5.692,6.7,6.7,0,0,1-.889,3.71,10.832,10.832,0,0,1-3.019,3.365Zm-1.409-3.145a7.57,7.57,0,0,0,2.711-3.193,3.084,3.084,0,0,0-3.1-4.119,7.488,7.488,0,0,0-3.782,1.716l-.666.506a7.7,7.7,0,0,0-2.7,3.182,3.062,3.062,0,0,0,3.081,4.148,7.627,7.627,0,0,0,3.785-1.734Z" transform="translate(-383.447 -464.317)" fill="#161615"/>
        <path id="Trazado_9418" data-name="Trazado 9418" d="M413.867,486.547l-8.05,10.314,12.613-3.456,2.409,3.623-14.253,9.481-1.841-2.769,3.9-2.591,6.907-4.2L402.524,500.4l-1.26-1.893,8.214-10.664-6.53,4.744-3.9,2.589-1.833-2.756,14.253-9.482Z" transform="translate(-380.822 -460.261)" fill="#161615"/>
        <path id="Trazado_9419" data-name="Trazado 9419" d="M424.106,504.345l-9.786,5.6a5.965,5.965,0,0,1-4.676.774,6.134,6.134,0,0,1-3.662-3.1,6.211,6.211,0,0,1-.844-4.67,5.874,5.874,0,0,1,2.947-3.633l9.9-5.668,1.645,2.873-9.8,5.615a3.4,3.4,0,0,0-1.751,1.873,2.8,2.8,0,0,0,.372,2.2q1.389,2.42,4.124.907l9.887-5.662Z" transform="translate(-376.122 -453.778)" fill="#161615"/>
        <path id="Trazado_9420" data-name="Trazado 9420" d="M414.1,521.542l-1.451-2.979,7.294-10.734-10.123,4.938-1.453-2.976,15.385-7.506,1.453,2.978-7.31,10.754,10.144-4.947,1.446,2.967Z" transform="translate(-374.072 -448.553)" fill="#161615"/>
        <path id="Trazado_9421" data-name="Trazado 9421" d="M413.9,521.5l-1.294-3.048,15.759-6.688,1.292,3.048Z" transform="translate(-371.507 -442.816)" fill="#161615"/>
        <path id="Trazado_9422" data-name="Trazado 9422" d="M414.138,521.669l16.093-5.833,1.686,4.652a7.161,7.161,0,0,1,.337,3.912,6.9,6.9,0,0,1-1.83,3.44,9.355,9.355,0,0,1-3.687,2.336l-.742.27a9.431,9.431,0,0,1-4.3.578,6.875,6.875,0,0,1-3.6-1.462,7.252,7.252,0,0,1-2.265-3.209Zm14.536-1.746-10.744,3.9.546,1.5a3.5,3.5,0,0,0,2.283,2.333,6.391,6.391,0,0,0,3.994-.332l.852-.307a6.5,6.5,0,0,0,3.373-2.305,3.486,3.486,0,0,0,.252-3.25Z" transform="translate(-370.58 -440.351)" fill="#161615"/>
        <path id="Trazado_9423" data-name="Trazado 9423" d="M423.024,536.057l-1.535-5.6-3.694-.133-.933-3.4,18.093,1.246.812,2.962L420.849,541.46l-.931-3.4Zm1.456-5.495,1.064,3.877,5.646-3.642Z" transform="translate(-368.931 -433.638)" fill="#161615"/>
        <path id="Trazado_9424" data-name="Trazado 9424" d="M419.467,537.841l16.847-3.031.876,4.869a7.147,7.147,0,0,1-.329,3.912,6.9,6.9,0,0,1-2.385,3.084,9.389,9.389,0,0,1-4.028,1.677l-.775.14a9.4,9.4,0,0,1-4.341-.157,6.847,6.847,0,0,1-3.3-2.048,7.2,7.2,0,0,1-1.689-3.543Zm14.622.735L422.841,540.6l.284,1.576a3.5,3.5,0,0,0,1.856,2.681,6.373,6.373,0,0,0,3.994.35l.891-.159a6.508,6.508,0,0,0,3.713-1.7,3.49,3.49,0,0,0,.8-3.162Z" transform="translate(-367.355 -428.866)" fill="#161615"/>
      </g>
    </g>
    <g id="Grupo_23659" data-name="Grupo 23659" transform="translate(-139 -112.232)">
      <g id="Grupo_23658" data-name="Grupo 23658" transform="translate(650 2711)">
        <circle id="Elipse_1329" data-name="Elipse 1329" cx="7.169" cy="7.169" r="7.169" transform="translate(9.807 0)" fill="#dd3373"/>
        <path id="Trazado_9425" data-name="Trazado 9425" d="M59.383,64.645l-4.893,4.1,3.692,2.507-3.92,4.78h0l0,0a2.573,2.573,0,0,0,3.973,3.272h0l5.25-6.4a2.783,2.783,0,0,0-.147-4.093Z" transform="translate(-34.809 -34.004)" fill="#dd3373"/>
        <path id="Trazado_9426" data-name="Trazado 9426" d="M35.674,76.029h0l-3.92-4.779,3.691-2.507-4.893-4.1L26.6,68.808a2.783,2.783,0,0,0-.148,4.093L31.7,79.3h0a2.574,2.574,0,0,0,3.973-3.272Z" transform="translate(-21.17 -34.004)" fill="#dd3373"/>
        <path id="Trazado_9427" data-name="Trazado 9427" d="M48.493,21.405a2.4,2.4,0,0,0-1.707.706l-5.4,5.4a3.551,3.551,0,0,1-2.631,1.3H29.1a3.55,3.55,0,0,1-2.631-1.3l-5.4-5.4a2.414,2.414,0,1,0-3.411,3.416L26.334,34.2v6.858H41.526V34.2L50.2,25.528a2.413,2.413,0,0,0-1.7-4.123Z" transform="translate(-16.953 -12.977)" fill="#dd3373"/>
      </g>
    </g>
    <g id="Grupo_23660" data-name="Grupo 23660" transform="translate(487.369 2474.613)">
      <circle id="Elipse_1330" data-name="Elipse 1330" cx="5.493" cy="5.493" r="5.493" transform="translate(78.367 51.4)" fill="#dd407b"/>
      <path id="Trazado_9428" data-name="Trazado 9428" d="M85.935,62H81.663a4.894,4.894,0,0,0-4.883,4.394L75.8,75.672a1.635,1.635,0,0,0,.977,1.709l2.319.854a.824.824,0,0,1,.488.732l1.221,15.5A1.593,1.593,0,0,0,82.4,95.935h2.563a1.514,1.514,0,0,0,1.587-1.465l1.221-15.5a.824.824,0,0,1,.488-.732l2.319-.854a1.5,1.5,0,0,0,.977-1.709l-.977-9.277A4.435,4.435,0,0,0,85.935,62Z" transform="translate(0 2.339)" fill="#dd407b"/>
    </g>
    <g id="Grupo_23661" data-name="Grupo 23661" transform="translate(613.361 2477.297)">
      <circle id="Elipse_1331" data-name="Elipse 1331" cx="4.091" cy="4.091" r="4.091" transform="translate(25.555 22.5)" fill="#00348d"/>
      <circle id="Elipse_1332" data-name="Elipse 1332" cx="4.091" cy="4.091" r="4.091" transform="translate(46.009 22.5)" fill="#00348d"/>
      <path id="Trazado_9429" data-name="Trazado 9429" d="M57.531,38.832h0a2.051,2.051,0,0,0-1.909-1.364H44.577a1.961,1.961,0,0,0-1.909,1.364h0l-2.8,7.636-2.8-7.7h0A2.051,2.051,0,0,0,35.168,37.4H24.123a1.961,1.961,0,0,0-1.909,1.364h0L18.26,49.672a1.418,1.418,0,0,0,.818,1.773,1.16,1.16,0,0,0,.477.068,1.4,1.4,0,0,0,1.3-.886l3-8.318h0a.69.69,0,1,1,1.3.477L20.919,54.445h4.636v7.909a1.7,1.7,0,1,0,3.409,0V54.445h1.364v7.909a1.7,1.7,0,1,0,3.409,0V54.445h4.636L34.146,42.786a.69.69,0,1,1,1.3-.477h0l3.068,8.318a1.4,1.4,0,0,0,1.3.886h.273a1.4,1.4,0,0,0,1.3-.886l3-8.318h0a.838.838,0,0,1,.75-.477.9.9,0,0,1,.886.886V62.353a1.7,1.7,0,1,0,3.409,0v-6.2a.682.682,0,1,1,1.364,0v6.2a1.7,1.7,0,0,0,3.409,0V42.718a.9.9,0,0,1,.886-.886.838.838,0,0,1,.75.477h0l3.136,8.318a1.4,1.4,0,0,0,1.3.886,1.16,1.16,0,0,0,.477-.068,1.391,1.391,0,0,0,.818-1.773Z" transform="translate(0 -4.741)" fill="#00348d"/>
    </g>
    <g id="Grupo_23662" data-name="Grupo 23662" transform="translate(668.112 2444.317)">
      <circle id="Elipse_1333" data-name="Elipse 1333" cx="5.554" cy="5.554" r="5.554" transform="translate(57.347 37.7)" fill="#00348d"/>
      <path id="Trazado_9430" data-name="Trazado 9430" d="M67.272,52.625A4.069,4.069,0,0,0,63.5,49.9H60.146a3.93,3.93,0,0,0-3.772,2.725L50.505,69.705a2.038,2.038,0,0,0,1.362,2.62l4.82,1.257a.889.889,0,0,1,.734.838L58.889,89.93a1.952,1.952,0,0,0,1.991,1.781h1.781a2.036,2.036,0,0,0,1.991-1.781l1.467-15.509a.889.889,0,0,1,.734-.838l4.82-1.257a1.965,1.965,0,0,0,1.362-2.62Z" transform="translate(1.078 0.584)" fill="#00348d"/>
      <circle id="Elipse_1334" data-name="Elipse 1334" cx="5.554" cy="5.554" r="5.554" transform="translate(33.092 37.7)" fill="#00348d"/>
      <path id="Trazado_9431" data-name="Trazado 9431" d="M40.266,49.9H35.026a6.012,6.012,0,0,0-5.973,5.344L27.9,66.666a1.971,1.971,0,0,0,1.257,2.1l2.829,1.153a.913.913,0,0,1,.629.838l1.467,19.072a2.043,2.043,0,0,0,1.991,1.886h3.144a2.043,2.043,0,0,0,1.991-1.886l1.467-19.177a.913.913,0,0,1,.629-.838l2.829-1.153a1.971,1.971,0,0,0,1.257-2.1L46.239,55.139A6.017,6.017,0,0,0,40.266,49.9Z" transform="translate(1 0.584)" fill="#00348d"/>
    </g>
    <g id="Grupo_23665" data-name="Grupo 23665" transform="translate(804.003 2584.103)">
      <path id="Trazado_9432" data-name="Trazado 9432" d="M34.465,26.46c.021.1.042.241.111.28a.255.255,0,0,0,.352-.085.972.972,0,0,1,.231-.214.362.362,0,0,0,.154.013,1,1,0,0,0,.712-.493,2.69,2.69,0,0,0,.168-.315,2.642,2.642,0,0,0,.168.315,1,1,0,0,0,.712.493.361.361,0,0,0,.154-.013.948.948,0,0,1,.231.214.254.254,0,0,0,.352.085c.069-.038.091-.18.111-.28a1.024,1.024,0,0,0-.006-.243h0a5.887,5.887,0,0,0-.037-.778,1.159,1.159,0,0,0-1.219-.938,3.266,3.266,0,0,0-.47.167,3.314,3.314,0,0,0-.47-.167,1.16,1.16,0,0,0-1.219.938,5.794,5.794,0,0,0-.037.778h0A1.208,1.208,0,0,0,34.465,26.46Z" transform="translate(-6.054 -4.598)" fill="#e02f72"/>
      <path id="Trazado_9433" data-name="Trazado 9433" d="M73.406,44.171a1.178,1.178,0,0,0,.179-1.037c0-.009,0-.015,0-.025-.919-3.624-6.71-5.992-7.44-6.031a4.4,4.4,0,0,0-3.822-.012,13.487,13.487,0,0,0-6.6,4.269c-.106-.066-.241-.149-.411-.252-.21.363-.683,1.168-1.281,2.106.341.235.554.375.554.375a1.242,1.242,0,0,0,.5.185c.691.275,2.582-.619,3.379-1.11.277-.171.675-.43,1.1-.711a4.65,4.65,0,0,0,.683,1.991,6.755,6.755,0,0,1,.119,1.233A8.477,8.477,0,0,1,60,47.389h0c-.055.1-.1.206-.152.311l-.008-.007A23.649,23.649,0,0,0,58.4,53.71h0c-.01.127-.023.263-.036.406s-.033.313-.046.473c-.473,4.78-2,16.032-2,16.032a29.338,29.338,0,0,0,3.411.781c.3,2.575.8,4.852,1.641,4.852.809,0,1.3-2.083,1.6-4.518.8.033,1.556.028,2.263-.007.3,2.375.79,4.379,1.584,4.379.837,0,1.334-2.228,1.631-4.768a15.085,15.085,0,0,0,3.523-1.081S70.2,56.606,69.7,52.576a27.587,27.587,0,0,0-.715-3.525C70.4,48.4,73.406,44.171,73.406,44.171ZM63.657,38.42a.709.709,0,0,1-.265-1.368.849.849,0,0,0-.035.231.865.865,0,0,0,.855.864A.7.7,0,0,1,63.657,38.42Zm1.125,0a.706.706,0,0,1-.554-.273.865.865,0,0,0,.858-.864.84.84,0,0,0-.035-.229.709.709,0,0,1-.269,1.366Zm3.758,9.173a4.712,4.712,0,0,0-.26-.467,6.673,6.673,0,0,1-.3-1.973,6.592,6.592,0,0,1,.091-1.039,4.658,4.658,0,0,0,.806-2.175c.424.282.823.541,1.1.712a10.755,10.755,0,0,0,1.172.61A31.8,31.8,0,0,0,68.539,47.593Z" transform="translate(-13.718 -9.353)" fill="#e02f72"/>
      <path id="Trazado_9434" data-name="Trazado 9434" d="M69.446,19.045a4.424,4.424,0,0,1,1.845.4,1.91,1.91,0,0,0,.021-.265,1.867,1.867,0,1,0-3.733,0,1.821,1.821,0,0,0,.021.265A4.428,4.428,0,0,1,69.446,19.045Z" transform="translate(-19.023 -1.789)" fill="#e02f72"/>
      <path id="Trazado_9435" data-name="Trazado 9435" d="M44.575,38.386,45.851,44c.04.129.061.265.091.4.02.085.041.169.058.256.007.037.019.072.025.11l.022.1h-.007c.013.085.021.17.031.256,0,.028.007.055.01.083a5.263,5.263,0,0,1,.032.548c0,.014,0,.027,0,.041a49.4,49.4,0,0,1,2.543-5.391,11.6,11.6,0,0,1-1.235-.5C46.75,39.567,45.478,38.89,44.575,38.386Zm2.978,3.437c-1.294-1.046-2.406-2.132-2.114-2.584,0-.007.013-.012.018-.018.691.372,1.393.739,1.827.949.261.127.588.265.928.393C47.976,41,47.76,41.418,47.553,41.823Z" transform="translate(-10.016 -10.039)" fill="#e02f72"/>
      <path id="Trazado_9436" data-name="Trazado 9436" d="M35.405,32.229l.525-.181a.177.177,0,0,0,.085-.168v-.1a.176.176,0,0,0-.085-.168l-.525-.181c-.211-.073-.448.026-.448.249v.3C34.957,32.2,35.194,32.3,35.405,32.229Z" transform="translate(-6.249 -7.304)" fill="#e02f72"/>
      <circle id="Elipse_1335" data-name="Elipse 1335" cx="0.325" cy="0.325" r="0.325" transform="translate(29.811 24.199)" fill="#e02f72"/>
      <path id="Trazado_9437" data-name="Trazado 9437" d="M77.05,47.529a6.586,6.586,0,0,0-.091,1.039,6.653,6.653,0,0,0,.3,1.973,4.785,4.785,0,0,1,.26.467,31.654,31.654,0,0,1,2.61-4.331,10.975,10.975,0,0,1-1.172-.61c-.277-.171-.677-.43-1.1-.712A4.659,4.659,0,0,1,77.05,47.529Z" transform="translate(-22.696 -12.768)" fill="#e02f72"/>
      <path id="Trazado_9438" data-name="Trazado 9438" d="M38.534,32.23c.211.073.448-.026.448-.249v-.3c0-.223-.237-.322-.448-.249l-.525.181a.177.177,0,0,0-.085.168v.1a.176.176,0,0,0,.085.168Z" transform="translate(-7.411 -7.305)" fill="#e02f72"/>
      <path id="Trazado_9439" data-name="Trazado 9439" d="M24.79,64.359a1.547,1.547,0,0,1,.356.981h.76a2.306,2.306,0,0,0-.858-1.788A6.365,6.365,0,0,1,24.79,64.359Z" transform="translate(-2.268 -19.893)" fill="#e02f72"/>
      <path id="Trazado_9440" data-name="Trazado 9440" d="M19.006,65.067H19v.086h0V86.3h.756V65.154h0a1.554,1.554,0,0,1,.758-1.332q-.114-.341-.209-.746A2.313,2.313,0,0,0,19.006,65.067Z" transform="translate(0 -19.707)" fill="#e02f72"/>
      <path id="Trazado_9441" data-name="Trazado 9441" d="M45.982,39.758c-.005.007-.013.011-.018.018-.293.451.82,1.537,2.114,2.584.207-.4.423-.82.659-1.26-.341-.128-.667-.266-.928-.393C47.376,40.5,46.673,40.13,45.982,39.758Z" transform="translate(-10.541 -10.576)" fill="#e02f72"/>
      <path id="Trazado_9442" data-name="Trazado 9442" d="M42.145,37.267a.82.82,0,0,0-.054-.436c-.914-2.521-4.042-4.229-6.323-5.1a9.187,9.187,0,0,0-12.194,2.133,5.916,5.916,0,0,0-.692,1.026c-.038.066-.08.131-.117.2h.005c-.98,1.775-2.327,5.046-1.892,7.729a1.466,1.466,0,0,0-.085.478s.105,8.609,1.495,8.606,1.45-8.614,1.45-8.614a1.464,1.464,0,0,0-.247-.81,11.751,11.751,0,0,0,.559-1.236c.387-1.04,2.121-5.622,2.233-6.153h.169l-1.334,5.855c-.019.066-.03.136-.046.2-.031.122-.061.243-.084.367,0,.01-.005.021-.007.031l-.022.095h.007c0,.029-.007.059-.011.088-.018.122-.036.245-.047.369,0,.045,0,.092-.007.137-.008.125-.019.249-.019.377a5.929,5.929,0,0,0,1.068,3.4c-.029.131-.058.27-.088.414-.438,1.389-1.233,6.48.066,24.582,0,0,.069.043.191.1v.423a1.8,1.8,0,0,0,1.637,1.932h.009A1.8,1.8,0,0,0,29.4,71.533v-.318a3.4,3.4,0,0,0,.365-.21c.316-8.244-.29-17.725,1.075-21.128a11.668,11.668,0,0,1,.622,2.842c.042.775.088,1.489.131,1.988.023.266.055.594.1.956.2,4.365.024,10.1.225,15.341.077.051.155.092.233.135v.352a1.8,1.8,0,0,0,1.637,1.932H33.8a1.8,1.8,0,0,0,1.637-1.932v-.321a3.146,3.146,0,0,0,.323-.167c1.454-20.258.285-24.223-.071-24.938a5.948,5.948,0,0,0,.646-1.146.434.434,0,0,0,.176.291c1.21.684,5.522-6.768,5.522-6.768A1.469,1.469,0,0,0,42.145,37.267ZM31.216,31.344a.176.176,0,0,1,.085-.168l.525-.181c.211-.073.448.026.448.249v.3c0,.223-.237.322-.448.249l-.525-.181a.177.177,0,0,1-.085-.168Zm-.377-.273a.325.325,0,1,1-.325.325A.325.325,0,0,1,30.839,31.07Zm-1.429.173c0-.223.237-.322.448-.249l.525.181a.177.177,0,0,1,.085.168v.1a.176.176,0,0,1-.085.168l-.525.181c-.211.073-.448-.026-.448-.249ZM36.8,42.618c0-.014,0-.027,0-.041a5.252,5.252,0,0,0-.032-.548c0-.028-.007-.055-.01-.083-.01-.085-.018-.171-.031-.256h.007l-.022-.1c-.006-.038-.018-.073-.025-.11-.016-.086-.038-.171-.058-.256-.029-.133-.051-.269-.091-.4l-1.276-5.611c.9.5,2.175,1.181,2.843,1.506a11.785,11.785,0,0,0,1.235.5A49.327,49.327,0,0,0,36.8,42.618Z" transform="translate(-0.703 -6.872)" fill="#e02f72"/>
      <ellipse id="Elipse_1336" data-name="Elipse 1336" cx="1.165" cy="1.009" rx="1.165" ry="1.009" transform="translate(47.489 20.821)" fill="#e02f72"/>
      <ellipse id="Elipse_1337" data-name="Elipse 1337" cx="1.165" cy="1.009" rx="1.165" ry="1.009" transform="translate(50.94 20.821)" fill="#e02f72"/>
      <g id="Grupo_23663" data-name="Grupo 23663" transform="translate(46.098 17.396)">
        <ellipse id="Elipse_1338" data-name="Elipse 1338" cx="1.165" cy="1.009" rx="1.165" ry="1.009" transform="translate(4.842 3.425)" fill="#e02f72"/>
        <ellipse id="Elipse_1339" data-name="Elipse 1339" cx="1.165" cy="1.009" rx="1.165" ry="1.009" transform="translate(1.391 3.425)" fill="#e02f72"/>
        <path id="Trazado_9443" data-name="Trazado 9443" d="M72.188,24.71A4.324,4.324,0,1,0,64,26.651a.412.412,0,0,0-.046.183.417.417,0,0,0,.264.388.29.29,0,0,0-.142.247.295.295,0,0,0,.564.121,4.31,4.31,0,0,0,6.441,0,.294.294,0,1,0,.422-.368.416.416,0,0,0,.264-.388.412.412,0,0,0-.046-.183A4.285,4.285,0,0,0,72.188,24.71ZM70.81,24.1a1.109,1.109,0,0,1,.279.723,1.327,1.327,0,0,1-1.41,1.222,1.362,1.362,0,0,1-1.388-1.028.449.449,0,0,0-.473-.394.454.454,0,0,0-.462.348,1.351,1.351,0,0,1-1.393,1.074,1.326,1.326,0,0,1-1.41-1.222,1.112,1.112,0,0,1,.279-.723c-.251.1-.6-.288-.316-.168a.88.88,0,0,0,.624-.1l.012-.009-.016,0c-.185.052-.359-.268-.19-.149.131.092.4.03.511,0-.173,0-.24-.307-.124-.169s.507.1.507.1l0,.007c.042,0,.082-.011.125-.011a1.343,1.343,0,0,1,1.4,1.111.643.643,0,0,1,.919.015,1.34,1.34,0,0,1,1.4-1.126c.043,0,.083.008.125.011l0-.007s.389.044.507-.1.05.172-.124.169c.114.033.381.094.511,0,.169-.119-.005.2-.19.149l-.016,0,.012.009a.88.88,0,0,0,.624.1C71.414,23.808,71.061,24.194,70.81,24.1Z" transform="translate(-63.54 -20.386)" fill="#e02f72"/>
      </g>
      <g id="Grupo_23664" data-name="Grupo 23664" transform="translate(24.834 12.749)">
        <path id="Trazado_9444" data-name="Trazado 9444" d="M37.92,26.217a5.886,5.886,0,0,0-.037-.778,1.159,1.159,0,0,0-1.219-.938,3.265,3.265,0,0,0-.47.167,3.341,3.341,0,0,0-.47-.167,1.16,1.16,0,0,0-1.219.938,5.794,5.794,0,0,0-.037.778h0a1.057,1.057,0,0,0-.006.243c.021.1.042.241.111.28a.254.254,0,0,0,.352-.085.972.972,0,0,1,.231-.214.362.362,0,0,0,.154.013,1,1,0,0,0,.712-.493,2.69,2.69,0,0,0,.168-.315,2.6,2.6,0,0,0,.168.315,1,1,0,0,0,.712.493.361.361,0,0,0,.154-.013.948.948,0,0,1,.231.214.254.254,0,0,0,.352.085c.069-.038.091-.18.111-.28a1.024,1.024,0,0,0-.006-.243Z" transform="translate(-30.889 -17.347)" fill="#e02f72"/>
        <path id="Trazado_9445" data-name="Trazado 9445" d="M38.9,15.319H37.408a1.6,1.6,0,0,0,.046-.376v-.6a1.6,1.6,0,0,0-1.6-1.6H31.927a1.6,1.6,0,0,0-1.6,1.6v.6a1.6,1.6,0,0,0,.046.376H28.887c-.163,0-.3.285-.3.638s.132.638.3.638h1.456a4.136,4.136,0,1,0,7.105,0H38.9c.163,0,.3-.285.3-.638S39.062,15.319,38.9,15.319Zm-3.275,6.543c-.021.1-.042.241-.111.28a.254.254,0,0,1-.352-.085.972.972,0,0,0-.231-.214.362.362,0,0,1-.154.013,1,1,0,0,1-.712-.493,2.691,2.691,0,0,1-.168-.315,2.6,2.6,0,0,1-.168.315,1,1,0,0,1-.712.493.361.361,0,0,1-.154-.013.948.948,0,0,0-.231.214.254.254,0,0,1-.352.085c-.069-.038-.091-.18-.111-.28a1.024,1.024,0,0,1,.006-.243h0a5.887,5.887,0,0,1,.037-.778,1.159,1.159,0,0,1,1.219-.938,3.266,3.266,0,0,1,.47.167,3.315,3.315,0,0,1,.47-.167,1.16,1.16,0,0,1,1.219.938,5.794,5.794,0,0,1,.037.778h0A1.167,1.167,0,0,1,35.624,21.862Z" transform="translate(-28.591 -12.749)" fill="#e02f72"/>
      </g>
    </g>
    <g id="Grupo_23666" data-name="Grupo 23666" transform="translate(777.749 2529.734)">
      <path id="Trazado_9446" data-name="Trazado 9446" d="M4.251,90.136a.533.533,0,1,0-1.063,0v7.9c0,1.822-3.188,1.822-3.188,0V87.1A4.182,4.182,0,0,1,4.1,83H14.424a4.182,4.182,0,0,1,4.1,4.1V98.031c0,1.822-3.037,1.822-3.037,0v-7.9a.609.609,0,0,0-1.215,0v26.57c0,2.429-4.4,2.429-4.4,0V102.89c0-.607-1.063-.607-1.063,0v13.817c0,2.277-4.555,2.277-4.555,0Z" transform="translate(0 -70.398)" fill="#dd4c82" fill-rule="evenodd"/>
      <path id="Trazado_9447" data-name="Trazado 9447" d="M31.314,0A5.413,5.413,0,0,1,36.78,5.314a5.391,5.391,0,1,1-10.78,0A5.38,5.38,0,0,1,31.314,0Z" transform="translate(-22.052 0)" fill="#dd4c82" fill-rule="evenodd"/>
    </g>
    <g id="Grupo_23667" data-name="Grupo 23667" transform="translate(799.796 2529.014)">
      <ellipse id="Elipse_1330-2" data-name="Elipse 1330" cx="5.725" cy="5.725" rx="5.725" ry="5.725" transform="translate(2.691 0)" fill="#dd407b"/>
      <path id="Trazado_9428-2" data-name="Trazado 9428" d="M86.363,62H81.911a5.1,5.1,0,0,0-5.089,4.58L75.8,76.248a1.7,1.7,0,0,0,1.018,1.781l2.417.891a.859.859,0,0,1,.509.763L81.02,95.84a1.66,1.66,0,0,0,1.654,1.527h2.672A1.578,1.578,0,0,0,87,95.84l1.272-16.157a.859.859,0,0,1,.509-.763l2.417-.891a1.56,1.56,0,0,0,1.018-1.781L91.2,66.58A4.622,4.622,0,0,0,86.363,62Z" transform="translate(-75.785 -48.515)" fill="#dd407b"/>
    </g>
    <g id="Grupo_23669" data-name="Grupo 23669" transform="translate(323 2485.973)">
      <g id="Grupo_23668" data-name="Grupo 23668" transform="translate(0 -0.1)">
        <path id="Trazado_9448" data-name="Trazado 9448" d="M96.385,120.071a1.685,1.685,0,1,0-1.685-1.685A1.69,1.69,0,0,0,96.385,120.071Z" transform="translate(-81.4 -100.296)" fill="#f579a8"/>
        <path id="Trazado_9449" data-name="Trazado 9449" d="M60.667,10.911h.1a49.09,49.09,0,0,1,13.51,1.938V1.431A60.112,60.112,0,0,0,60.849-.1,64.451,64.451,0,0,0,47.1,1.431v11.4A47.517,47.517,0,0,1,60.512,10.9.63.63,0,0,0,60.667,10.911Zm-.477-1.559V6.107H56.945a.506.506,0,1,1,0-1.011h3.244V1.852a.506.506,0,1,1,1.011,0V5.1h3.244a.506.506,0,0,1,0,1.011H61.2V9.352a.506.506,0,1,1-1.011,0Z" transform="translate(-40.485 0.1)" fill="#f579a8"/>
        <path id="Trazado_9450" data-name="Trazado 9450" d="M180.885,120.071a1.685,1.685,0,1,0-1.685-1.685A1.69,1.69,0,0,0,180.885,120.071Z" transform="translate(-154.033 -100.296)" fill="#f579a8"/>
        <path id="Trazado_9451" data-name="Trazado 9451" d="M51.628,106.173c.028.014.07.014.1.028.154.042.323.07.478.112.056.014.126.028.183.042.084.014.169.028.239.042s.169.028.267.042l.239.042c.126.014.253.042.379.056.056,0,.112.014.169.014l.421.042h.07c.154.014.323.014.478.028h.126c.169,0,.337.014.492.014s.295,0,.449-.014h.126c.126,0,.239-.014.351-.014h.1c.309-.028.618-.056.927-.1a.127.127,0,0,0,.07-.014c.14-.014.281-.042.421-.07h.028c.309-.056.618-.112.913-.2a.2.2,0,0,0,.084-.028c.126-.028.253-.07.393-.1.014,0,.042-.014.056-.014.14-.042.281-.084.407-.126a.684.684,0,0,0,.154-.056c.084-.028.154-.056.239-.084s.14-.042.2-.07.1-.042.154-.056c.169-.07.337-.126.52-.211.014,0,.014,0,.028-.014a14.409,14.409,0,0,0,8.862-13.286,14.182,14.182,0,0,0-.772-4.663A50.664,50.664,0,0,0,55.237,85.5a49.25,49.25,0,0,0-13.665,2.022,14.451,14.451,0,0,0,10.056,18.651ZM61.922,88.885a2.7,2.7,0,1,1-2.682,2.7A2.7,2.7,0,0,1,61.922,88.885ZM59.1,97.859a.506.506,0,0,1,.843.562,5.917,5.917,0,0,1-9.087.885.506.506,0,0,1,.716-.716,4.9,4.9,0,0,0,7.528-.73Zm-9.044-8.974a2.7,2.7,0,1,1-2.7,2.7A2.7,2.7,0,0,1,50.055,88.885Z" transform="translate(-35.07 -73.478)" fill="#f579a8"/>
        <path id="Trazado_9452" data-name="Trazado 9452" d="M27.948,231.043a.5.5,0,0,1-.449-.506v-3.16a13.971,13.971,0,0,1-1.615.744h0c-.1.042-.183.07-.281.112a.587.587,0,0,0-.14.056c-.07.028-.154.056-.225.084a1.053,1.053,0,0,1-.225.07c-.056.014-.112.042-.169.056-.281.084-.562.169-.843.239-.028,0-.042.014-.07.014l-.379.084a.608.608,0,0,0-.07.014c-.126.028-.267.056-.393.084a.052.052,0,0,0-.042.014c-.309.056-.6.1-.913.14h-.028l-.407.042a.309.309,0,0,0-.112.014c-.112.014-.225.014-.337.028a.389.389,0,0,0-.126.014c-.112,0-.211.014-.323.014h-.576c-.169,0-.323,0-.477-.014h-.154c-.112,0-.239-.014-.351-.014a.576.576,0,0,1-.154-.014l-.449-.042c-.056,0-.112-.014-.169-.014l-.295-.042c-.07-.014-.154-.014-.225-.028a1.091,1.091,0,0,0-.225-.028c-.323-.056-.632-.112-.955-.183-.028,0-.056-.014-.084-.014a15.254,15.254,0,0,1-4.621-1.91v3.764a.513.513,0,0,1-.421.506A13.913,13.913,0,0,0,0,244.792V258.6H4.452V246.506a.506.506,0,1,1,1.011,0V258.6H34.956V246.506a.506.506,0,1,1,1.011,0V258.6h4.452V244.778A13.928,13.928,0,0,0,27.948,231.043Z" transform="translate(0 -195.02)" fill="#f579a8"/>
      </g>
    </g>
    <text id="Institucional" transform="translate(264 2576.846)" fill="#f579a8" font-size="24" font-family="Roboto-Black, Roboto" font-weight="800"><tspan x="0" y="0">Institucional</tspan></text>
    <text id="Hogar" transform="translate(383 2490.018)" fill="#f579a8" font-size="24" font-family="Roboto-Black, Roboto" font-weight="800"><tspan x="0" y="0">Hogar</tspan></text>
    <g id="Grupo_23670" data-name="Grupo 23670" transform="translate(383 2404.563)">
      <path id="Trazado_9453" data-name="Trazado 9453" d="M43.4,63.777H55.047a2.217,2.217,0,0,0,2.189-2.189V45.666a1.184,1.184,0,0,0-.377-.8L37.92,29.075a.62.62,0,0,0-.757,0S20.921,42.508,18.237,44.756a1.208,1.208,0,0,0-.377.807c-.009,2.739-.013,16.025-.013,16.025a2.218,2.218,0,0,0,2.189,2.189H31.681a.49.49,0,0,0,.49-.49V54.547a4.9,4.9,0,0,1,4.9-4.9h.94a4.9,4.9,0,0,1,4.9,4.9v8.739A.488.488,0,0,0,43.4,63.777Z" transform="translate(-4.978 -5.718)" fill="#f579a8"/>
      <path id="Trazado_9454" data-name="Trazado 9454" d="M59.747,35.56l-7.489-6.223V15.386a1.053,1.053,0,0,0-1.094-1.094H44.6A1.054,1.054,0,0,0,43.5,15.386v6.667l-8.342-6.975a4.242,4.242,0,0,0-5.2,0L5.38,35.56A1,1,0,0,0,5,36.295a1.115,1.115,0,0,0,.239.8l2.121,2.53A1.157,1.157,0,0,0,8.081,40a1.273,1.273,0,0,0,.821-.239l23.662-19.73,23.661,19.73a1.052,1.052,0,0,0,.718.239h.1a1.16,1.16,0,0,0,.718-.376l2.12-2.53a1.113,1.113,0,0,0,.239-.8A1,1,0,0,0,59.747,35.56Z" transform="translate(0 0)" fill="#f579a8"/>
    </g>
    <g id="Grupo_23679" data-name="Grupo 23679" transform="translate(633.145 2258.803)">
      <g id="Grupo_23673" data-name="Grupo 23673">
        <g id="Grupo_23671" data-name="Grupo 23671">
          <path id="Trazado_9455" data-name="Trazado 9455" d="M50.129,55.131c4.721,0,8.6-5.21,9.108-11.908a10.3,10.3,0,0,0,.1-1.325l-1.475,1.694c.813-1.8-2.081-6.38-2.081-6.38-4.877,3.528-12.128,0-12.128,0-2.188.863-1.151,7.017-1.151,7.017a4.43,4.43,0,0,0-1.456-.682C41.652,50.088,45.488,55.131,50.129,55.131Z" fill="none"/>
          <path id="Trazado_9456" data-name="Trazado 9456" d="M58.432,55.206l0-.009,0,.009a2.706,2.706,0,0,1-.172.707A2.715,2.715,0,0,0,58.432,55.206Z" fill="none"/>
          <path id="Trazado_9457" data-name="Trazado 9457" d="M39.757,43.168c.007.1.016.2.024.3.662,7.488,5.042,13.271,10.348,13.271,5.377,0,9.8-5.935,10.375-13.564a11.73,11.73,0,0,0,0-3.361,10.427,10.427,0,0,0-20.747,0,11.567,11.567,0,0,0-.121,1.675c0,.232.009.463.022.69C39.678,42.514,39.71,42.844,39.757,43.168Zm3.9-5.956s7.251,3.528,12.128,0c0,0,2.894,4.581,2.081,6.38L59.341,41.9a10.3,10.3,0,0,1-.1,1.325c-.5,6.7-4.388,11.908-9.108,11.908-4.642,0-8.477-5.043-9.08-11.583a4.41,4.41,0,0,1,1.456.682S41.47,38.076,43.657,37.212Z" fill="#00348d"/>
          <path id="Trazado_9458" data-name="Trazado 9458" d="M59.746,55.173c-.424-.078-.852-.14-1.289-.178h0a.388.388,0,0,1-.005.057,1.082,1.082,0,0,1-.019.153l0-.009,0,.009a2.706,2.706,0,0,1-.172.707,2.746,2.746,0,0,0,.172-.707,4.97,4.97,0,0,1-.438,1.229c-1.2,2.55-4.5,7-6.541,9.651l-.388-5.524a3.307,3.307,0,0,0,1.3-1.219,2.643,2.643,0,0,0,.416-1.37,8.205,8.205,0,0,1-2.9.635,8.211,8.211,0,0,1-2.9-.635,2.6,2.6,0,0,0,.359,1.272A3.314,3.314,0,0,0,48.7,60.56l-.4,5.67c-1.92-2.73-5.18-7.537-6.188-10.075h0a4.592,4.592,0,0,1-.281-.931h0a1.56,1.56,0,0,1-.019-.169v0c0-.02-.005-.039-.005-.057h0c-.206.019-.411.043-.614.07a.211.211,0,0,0-.035.005,13.719,13.719,0,0,0-11.8,13.585c0,7.574,6.141,7.557,13.716,7.557H57.193c7.576,0,13.718.018,13.718-7.557A13.724,13.724,0,0,0,59.746,55.173Z" fill="#00348d"/>
        </g>
        <g id="Grupo_23672" data-name="Grupo 23672">
          <path id="Trazado_9459" data-name="Trazado 9459" d="M50.756,37.533a.351.351,0,0,1-.5,0l-8.433-4.957-.281,3.588,7.31,3.269a2.6,2.6,0,0,0,3.3,0l6.835-2.994-.351-3.518Z" fill="#00348d"/>
          <path id="Trazado_9460" data-name="Trazado 9460" d="M64.692,29.08,50.847,23.32a.416.416,0,0,0-.589,0L36.413,29.08a.417.417,0,0,0,0,.59l1.032.6-.065.913a.748.748,0,0,0-.1,1.451l-.6,8.458.834,2.5.834-2.5-.6-8.458a.748.748,0,0,0-.1-1.451l-.06-.84,1.445.837.059.034,11.184,6.471a.416.416,0,0,0,.589,0l10.619-6.145.623-.36,2.6-1.506A.418.418,0,0,0,64.692,29.08Z" fill="#00348d"/>
        </g>
      </g>
      <g id="Grupo_23676" data-name="Grupo 23676">
        <g id="Grupo_23674" data-name="Grupo 23674">
          <path id="Trazado_9461" data-name="Trazado 9461" d="M18.354,53.7c3.521,0,6.418-3.887,6.794-8.883a7.641,7.641,0,0,0,.077-.988l-1.1,1.263c.606-1.342-1.553-4.758-1.553-4.758-3.638,2.631-9.046,0-9.046,0-1.632.644-.859,5.234-.859,5.234a3.286,3.286,0,0,0-1.086-.508C12.031,49.937,14.892,53.7,18.354,53.7Z" fill="none"/>
          <path id="Trazado_9462" data-name="Trazado 9462" d="M24.546,53.754l0-.008,0,.008a2.071,2.071,0,0,1-.127.526A2.02,2.02,0,0,0,24.546,53.754Z" fill="none"/>
          <path id="Trazado_9463" data-name="Trazado 9463" d="M10.617,44.774c.005.075.012.147.019.221.494,5.586,3.761,9.9,7.719,9.9,4.01,0,7.312-4.427,7.738-10.117a8.639,8.639,0,0,0,.09-1.254,8.779,8.779,0,0,0-.09-1.253,7.968,7.968,0,0,0-7.738-6.987,7.967,7.967,0,0,0-7.737,6.99,8.726,8.726,0,0,0-.09,1.25c0,.173.007.345.016.515C10.558,44.287,10.582,44.533,10.617,44.774Zm2.909-4.441s5.408,2.631,9.046,0c0,0,2.159,3.417,1.553,4.758l1.1-1.263a7.641,7.641,0,0,1-.077.988c-.375,5-3.273,8.883-6.794,8.883-3.462,0-6.323-3.762-6.773-8.641a3.307,3.307,0,0,1,1.086.508S11.9,40.977,13.526,40.333Z" fill="#00348d"/>
          <path id="Trazado_9464" data-name="Trazado 9464" d="M25.527,53.73c-.316-.059-.636-.1-.962-.133h0a.319.319,0,0,1,0,.042.712.712,0,0,1-.015.115l0-.008,0,.008a2.071,2.071,0,0,1-.127.526,2.039,2.039,0,0,0,.127-.526,3.675,3.675,0,0,1-.326.915,53.385,53.385,0,0,1-4.88,7.2l-.289-4.12a2.471,2.471,0,0,0,.966-.91,1.971,1.971,0,0,0,.31-1.021,6.108,6.108,0,0,1-2.159.474,6.115,6.115,0,0,1-2.159-.474,1.944,1.944,0,0,0,.268.949,2.469,2.469,0,0,0,1.008.982l-.3,4.229a51.315,51.315,0,0,1-4.616-7.516h0a3.393,3.393,0,0,1-.209-.694h0q-.01-.066-.015-.126v0l0-.042h0c-.154.014-.307.032-.458.053a.109.109,0,0,0-.026,0,10.231,10.231,0,0,0-8.8,10.132c0,5.649,4.581,5.637,10.231,5.637H23.622c5.651,0,10.232.013,10.232-5.637A10.233,10.233,0,0,0,25.527,53.73Z" fill="#00348d"/>
        </g>
        <g id="Grupo_23675" data-name="Grupo 23675">
          <path id="Trazado_9465" data-name="Trazado 9465" d="M18.821,40.572a.26.26,0,0,1-.37,0l-6.29-3.7-.209,2.676,5.453,2.438a1.94,1.94,0,0,0,2.463,0l5.1-2.233L24.7,37.132Z" fill="#00348d"/>
          <path id="Trazado_9466" data-name="Trazado 9466" d="M29.216,34.267l-10.327-4.3a.31.31,0,0,0-.44,0l-10.326,4.3a.307.307,0,0,0,0,.439l.77.445-.049.681a.559.559,0,0,0-.077,1.083l-.451,6.309.622,1.866.622-1.866-.451-6.309a.559.559,0,0,0-.077-1.083l-.045-.626,1.078.625.043.025,8.342,4.826a.309.309,0,0,0,.439,0l7.92-4.583.465-.268,1.942-1.124A.31.31,0,0,0,29.216,34.267Z" fill="#00348d"/>
        </g>
      </g>
      <g id="Grupo_23678" data-name="Grupo 23678">
        <g id="Grupo_23677" data-name="Grupo 23677">
          <path id="Trazado_9467" data-name="Trazado 9467" d="M82.507,40.827a.26.26,0,0,1-.37,0l-6.289-3.7-.21,2.676,5.452,2.438a1.944,1.944,0,0,0,2.464,0l5.1-2.233-.262-2.624Z" fill="#00348d"/>
          <path id="Trazado_9468" data-name="Trazado 9468" d="M92.9,34.521l-10.327-4.3a.309.309,0,0,0-.439,0l-10.326,4.3a.312.312,0,0,0,0,.44l.77.445-.049.68a.559.559,0,0,0-.077,1.084L72,43.479l.622,1.865.622-1.865L72.8,37.17a.559.559,0,0,0-.077-1.084l-.045-.625,1.078.624.044.025,8.341,4.827a.309.309,0,0,0,.439,0l7.92-4.583.466-.269L92.9,34.962A.312.312,0,0,0,92.9,34.521Z" fill="#00348d"/>
        </g>
        <path id="Trazado_9469" data-name="Trazado 9469" d="M90.7,55.757c1.756.189,3.3.48,3.3.48-3.5-1.85-3.413-8.5-3.413-8.5.613-12.87-8.221-12.2-8.221-12.2l-.006.02-.008-.02s-8.834-.673-8.222,12.2c0,0,.09,6.646-3.413,8.5,0,0,.941-.061,2.2-.084a9.829,9.829,0,0,0-6.062,8.982c0,5.435,4.579,4.473,10.23,4.473H87.621c5.651,0,10.233.962,10.233-4.473A9.888,9.888,0,0,0,90.7,55.757Zm-5.979,2.581-2.365,3.7-2.367-3.7a5.366,5.366,0,0,1-3.584-2.1c1.388.115,2.563.361,2.866.84l-1.3-2.795a6,6,0,0,0,8.686.081l-.908,1.819c.305-.48,1.45-.61,2.794-.578C88.326,56.842,86.811,57.882,84.721,58.338Zm4.427-11.845a12.013,12.013,0,0,1-1.267,4.588c-1.243,2.4-3.255,3.953-5.525,3.953-3.464,0-6.326-3.618-6.775-8.308a28.379,28.379,0,0,0,4.367-1.056,27.8,27.8,0,0,0,6.571-3.452l.055-.037s.064.089.157.244c.313.515.984,2.057-.284,2.761l2.313.283H88.8l.423.075A7.215,7.215,0,0,1,89.148,46.493Z" fill="#00348d"/>
      </g>
    </g>
    <text id="Educativo" transform="translate(630 2363.018)" fill="#00348d" font-size="24" font-family="Roboto-Black, Roboto" font-weight="800"><tspan x="0" y="0">Educativo</tspan></text>
    <g id="Grupo_23680" data-name="Grupo 23680" transform="translate(856 2314.727)">
      <path id="Trazado_9470" data-name="Trazado 9470" d="M69.4,67.684H64.017V19.229a1.761,1.761,0,0,0-1.22-1.795L46.071,11.943V4.765A1.8,1.8,0,0,0,44.276,2.97h-32.3a1.8,1.8,0,0,0-1.795,1.795V67.684H4.795a1.795,1.795,0,1,0,0,3.589H69.4a1.795,1.795,0,0,0,0-3.589ZM55.044,49.738H51.455a1.795,1.795,0,0,1,0-3.589h3.589a1.795,1.795,0,1,1,0,3.589Zm1.795,8.937a1.8,1.8,0,0,1-1.795,1.795H51.455a1.795,1.795,0,0,1,0-3.589h3.589A1.8,1.8,0,0,1,56.839,58.6Zm-1.795-19.7H51.455a1.795,1.795,0,0,1,0-3.589h3.589a1.795,1.795,0,1,1,0,3.589Zm0-10.768H51.455a1.795,1.795,0,0,1,0-3.589h3.589a1.795,1.795,0,1,1,0,3.589ZM13.768,6.667H42.482V67.684H31.714V58.6H24.535v9.081H13.768ZM24.535,49.738H20.946a1.795,1.795,0,1,1,0-3.589h3.589a1.795,1.795,0,0,1,0,3.589Zm5.527-1.795a1.8,1.8,0,0,1,1.651-1.795H35.3a1.795,1.795,0,0,1,0,3.589H31.714a1.8,1.8,0,0,1-1.723-1.795ZM19.008,37.175A1.8,1.8,0,0,1,20.8,35.381h3.733a1.795,1.795,0,0,1,0,3.589H20.946a1.793,1.793,0,0,1-2-1.565,1.645,1.645,0,0,1-.014-.23Zm11.055,0a1.8,1.8,0,0,1,1.651-1.795H35.3a1.795,1.795,0,0,1,0,3.589H31.714a1.8,1.8,0,0,1-1.723-1.795ZM19.008,26.408A1.8,1.8,0,0,1,20.8,24.613h3.733a1.795,1.795,0,0,1,0,3.589H20.946a1.793,1.793,0,0,1-2-1.565,1.645,1.645,0,0,1-.014-.23Zm11.055,0a1.8,1.8,0,0,1,1.651-1.795H35.3a1.795,1.795,0,0,1,0,3.589H31.714a1.8,1.8,0,0,1-1.723-1.795ZM19.008,15.64A1.8,1.8,0,0,1,20.8,13.845h3.733a1.795,1.795,0,0,1,0,3.589H20.946a1.793,1.793,0,0,1-2-1.565,1.645,1.645,0,0,1-.014-.23Zm11.055,0a1.8,1.8,0,0,1,1.651-1.795H35.3a1.795,1.795,0,0,1,0,3.589H31.714a1.8,1.8,0,0,1-1.723-1.795Z" transform="translate(0 0)" fill="#00348d"/>
    </g>
    <text id="Laboral" transform="translate(859 2414.018)" fill="#00348d" font-size="24" font-family="Roboto-Black, Roboto" font-weight="800"><tspan x="0" y="0">Laboral</tspan></text>
    <text id="Comunitario" transform="translate(969 2571.865)" fill="#f579a8" font-size="24" font-family="Roboto-Black, Roboto" font-weight="800"><tspan x="0" y="0">Comunitario</tspan></text>
    <g id="Grupo_23681" data-name="Grupo 23681" transform="translate(964 2466.331)">
      <path id="Trazado_9471" data-name="Trazado 9471" d="M13.317,38.294H7.373A2.373,2.373,0,0,0,5,40.668v8.573a2.373,2.373,0,0,0,2.371,2.373h.576v12.5a1.829,1.829,0,0,0,1.829,1.829h2.782a1.83,1.83,0,0,0,1.83-1.829V53.235a6.161,6.161,0,0,1-1.072-3.466Z" transform="translate(0 -4.934)" fill="#ea4886"/>
      <path id="Trazado_9472" data-name="Trazado 9472" d="M11.7,28.077a3.7,3.7,0,0,0-3.7,3.7,3.678,3.678,0,0,0,5.983,2.885,6.19,6.19,0,0,1,1.4-2.786c0-.034.01-.066.01-.1A3.7,3.7,0,0,0,11.7,28.077Z" transform="translate(-0.534 -3.118)" fill="#ea4886"/>
      <path id="Trazado_9473" data-name="Trazado 9473" d="M90.6,38.294H84.654V49.77a6.154,6.154,0,0,1-1.074,3.466V64.115a1.829,1.829,0,0,0,1.829,1.829h2.782a1.829,1.829,0,0,0,1.83-1.829v-12.5H90.6a2.373,2.373,0,0,0,2.373-2.373V40.668A2.374,2.374,0,0,0,90.6,38.294Z" transform="translate(-13.97 -4.934)" fill="#ea4886"/>
      <path id="Trazado_9474" data-name="Trazado 9474" d="M86.7,35.47a3.7,3.7,0,1,0-3.7-3.7c0,.034.01.065.011.1a6.172,6.172,0,0,1,1.4,2.788A3.659,3.659,0,0,0,86.7,35.47Z" transform="translate(-13.867 -3.118)" fill="#ea4886"/>
      <path id="Trazado_9475" data-name="Trazado 9475" d="M30.432,34.034c0-.142.013-.282.021-.423h-8.51a3.322,3.322,0,0,0-3.322,3.323v12a3.323,3.323,0,0,0,3.321,3.323h.807v17.5a2.561,2.561,0,0,0,2.56,2.561H29.2a2.562,2.562,0,0,0,2.563-2.561V53.613a7.109,7.109,0,0,1-1.334-4.147Z" transform="translate(-2.422 -4.102)" fill="#ea4886"/>
      <path id="Trazado_9476" data-name="Trazado 9476" d="M28.007,19.308a5.173,5.173,0,1,0,5.174,5.175A5.176,5.176,0,0,0,28.007,19.308Z" transform="translate(-3.17 -1.559)" fill="#ea4886"/>
      <path id="Trazado_9477" data-name="Trazado 9477" d="M75.213,33.612H66.7c.007.141.021.28.021.423V49.467a7.107,7.107,0,0,1-1.335,4.148V69.762a2.561,2.561,0,0,0,2.56,2.561h3.893A2.561,2.561,0,0,0,74.4,69.762v-17.5h.807a3.324,3.324,0,0,0,3.323-3.323v-12A3.32,3.32,0,0,0,75.213,33.612Z" transform="translate(-10.736 -4.102)" fill="#ea4886"/>
      <path id="Trazado_9478" data-name="Trazado 9478" d="M54.433,28.93H40.765A4.272,4.272,0,0,0,36.494,33.2V48.635a4.272,4.272,0,0,0,4.27,4.271H41.8v22.5A3.293,3.293,0,0,0,45.094,78.7H50.1a3.293,3.293,0,0,0,3.294-3.294v-22.5h1.038A4.272,4.272,0,0,0,58.7,48.635V33.2A4.271,4.271,0,0,0,54.433,28.93Z" transform="translate(-5.599 -3.27)" fill="#ea4886"/>
      <path id="Trazado_9479" data-name="Trazado 9479" d="M44.947,22.776a6.651,6.651,0,1,0-3.041-5.584A6.62,6.62,0,0,0,44.947,22.776Z" transform="translate(-6.561 0)" fill="#ea4886"/>
      <path id="Trazado_9480" data-name="Trazado 9480" d="M69.754,29.659a5.183,5.183,0,1,0-3.614-1.474A5.153,5.153,0,0,0,69.754,29.659Z" transform="translate(-10.591 -1.559)" fill="#ea4886"/>
    </g>
    <g id="Grupo_23682" data-name="Grupo 23682" transform="translate(571.721 2570.474)">
      <path id="Trazado_9481" data-name="Trazado 9481" d="M81.939,83.368a47.969,47.969,0,0,0-17.6-1.649v-7.15h5.428L50.736,61.855l-19.1,12.713H37.12v6.284a69.276,69.276,0,0,0-9.611-.319v-7.21a6.021,6.021,0,0,1-1.932-2.391,5.15,5.15,0,0,1,4.66-7.344c.1,0,.207,0,.311.011a5.149,5.149,0,0,0,0,10.279c.1.006.2.009.31.009a5.15,5.15,0,0,0,.76-10.243,5.146,5.146,0,0,0-8.471-4.489,5.209,5.209,0,0,0-.888.989,5.125,5.125,0,0,0-.9,2.913,5.014,5.014,0,0,0,.051.715,5.148,5.148,0,1,0,3.623,9.589v7.3a55.858,55.858,0,0,0-7.749,1.028c23.148-1.781,46.3,9.157,46.3,9.157a46.12,46.12,0,0,0-9.024-5.4A114.432,114.432,0,0,1,81.939,83.368Z" transform="translate(0 0)" fill="#12263f"/>
      <path id="Trazado_9482" data-name="Trazado 9482" d="M136.992,73.242a3.816,3.816,0,1,0-3.815-3.816A3.816,3.816,0,0,0,136.992,73.242Z" transform="translate(-73.799 -4.904)" fill="#12263f"/>
    </g>
    <text id="Rural" transform="translate(600 2681.375)" fill="#12263f" font-size="18" font-family="Roboto-Regular, Roboto"><tspan x="0" y="0">Rural</tspan></text>
    <text id="Urbano" transform="translate(654.432 2628.204)" fill="#12263f" font-size="18" font-family="Roboto-Regular, Roboto"><tspan x="0" y="0">Urbano</tspan></text>
    <g id="Grupo_23685" data-name="Grupo 23685" transform="translate(659.531 2561.365)">
      <g id="Grupo_23684" data-name="Grupo 23684" transform="translate(4.9 2.5)">
        <path id="Trazado_9483" data-name="Trazado 9483" d="M21.448,23.447a.39.39,0,0,1,.391-.391h2.434a.39.39,0,0,1,.391.391v5.215h8.648V3.8a1.3,1.3,0,0,0-1.26-1.3H14.06A1.271,1.271,0,0,0,12.8,3.8v24.9h8.648ZM27.4,5.629a.39.39,0,0,1,.391-.391h2.434a.389.389,0,0,1,.391.391V8.063a.389.389,0,0,1-.391.391H27.793a.389.389,0,0,1-.391-.391Zm0,5.954a.39.39,0,0,1,.391-.391h2.434a.389.389,0,0,1,.391.391v2.434a.389.389,0,0,1-.391.391H27.793a.39.39,0,0,1-.391-.391Zm0,5.91a.39.39,0,0,1,.391-.391h2.434a.39.39,0,0,1,.391.391v2.434a.39.39,0,0,1-.391.391H27.793a.39.39,0,0,1-.391-.391Zm0,5.954a.39.39,0,0,1,.391-.391h2.434a.389.389,0,0,1,.391.391v2.434a.389.389,0,0,1-.391.391H27.793a.39.39,0,0,1-.391-.391ZM21.448,5.629a.39.39,0,0,1,.391-.391h2.434a.39.39,0,0,1,.391.391V8.063a.389.389,0,0,1-.391.391H21.839a.389.389,0,0,1-.391-.391Zm0,5.954a.39.39,0,0,1,.391-.391h2.434a.39.39,0,0,1,.391.391v2.434a.39.39,0,0,1-.391.391H21.839a.39.39,0,0,1-.391-.391Zm0,5.91a.39.39,0,0,1,.391-.391h2.434a.39.39,0,0,1,.391.391v2.434a.39.39,0,0,1-.391.391H21.839a.39.39,0,0,1-.391-.391ZM18.71,25.924a.39.39,0,0,1-.391.391H15.886a.39.39,0,0,1-.391-.391V23.49a.39.39,0,0,1,.391-.391h2.434a.39.39,0,0,1,.391.391Zm0-5.954a.39.39,0,0,1-.391.391H15.886a.39.39,0,0,1-.391-.391V17.493a.39.39,0,0,1,.391-.391h2.434a.39.39,0,0,1,.391.391Zm0-5.954a.39.39,0,0,1-.391.391H15.886a.39.39,0,0,1-.391-.391V11.583a.39.39,0,0,1,.391-.391h2.434a.39.39,0,0,1,.391.391Zm0-5.954a.389.389,0,0,1-.391.391H15.886a.389.389,0,0,1-.391-.391V5.629a.39.39,0,0,1,.391-.391h2.434a.39.39,0,0,1,.391.391Z" transform="translate(-9.367 -2.5)" fill="#12263f"/>
        <path id="Trazado_9484" data-name="Trazado 9484" d="M68.391,32.513a2.634,2.634,0,0,0,2.651,2.651,2.207,2.207,0,0,0,.739-.13v5.389h2V35.034a2.03,2.03,0,0,0,.739.13,2.653,2.653,0,0,0,2.173-4.172,2.931,2.931,0,0,0,.869-2.043,2.842,2.842,0,0,0-1.521-2.521A3.258,3.258,0,0,0,72.78,23.3a3.3,3.3,0,0,0-2.26.913,3.393,3.393,0,0,0-1,2.216,2.843,2.843,0,0,0-.652,4.563A2.634,2.634,0,0,0,68.391,32.513Z" transform="translate(-40.578 -14.261)" fill="#12263f"/>
        <path id="Trazado_9485" data-name="Trazado 9485" d="M5.9,68.2H43.1a1,1,0,0,0,0-2H5.9a1,1,0,0,0,0,2Z" transform="translate(-4.9 -38.517)" fill="#12263f"/>
        <path id="Trazado_9486" data-name="Trazado 9486" d="M8.7,79.6a1,1,0,1,0,0,2h2.39a1,1,0,1,0,0-2Z" transform="translate(-6.483 -46.093)" fill="#12263f"/>
        <path id="Trazado_9487" data-name="Trazado 9487" d="M23.6,79.6a1,1,0,1,0,0,2h2.39a1,1,0,1,0,0-2Z" transform="translate(-14.908 -46.093)" fill="#12263f"/>
        <path id="Trazado_9488" data-name="Trazado 9488" d="M38.5,79.6a1,1,0,1,0,0,2h2.39a1,1,0,1,0,0-2Z" transform="translate(-23.333 -46.093)" fill="#12263f"/>
        <path id="Trazado_9489" data-name="Trazado 9489" d="M53.4,79.6a1,1,0,1,0,0,2h2.39a1,1,0,1,0,0-2Z" transform="translate(-31.757 -46.093)" fill="#12263f"/>
        <path id="Trazado_9490" data-name="Trazado 9490" d="M68.3,79.6a1,1,0,0,0,0,2h2.39a1,1,0,1,0,0-2Z" transform="translate(-40.182 -46.093)" fill="#12263f"/>
        <path id="Trazado_9491" data-name="Trazado 9491" d="M83.2,79.6a1,1,0,0,0,0,2h2.39a1,1,0,1,0,0-2Z" transform="translate(-48.607 -46.093)" fill="#12263f"/>
        <path id="Trazado_9492" data-name="Trazado 9492" d="M43.1,92.9H5.9a1,1,0,0,0,0,2H43.1a1,1,0,0,0,0-2Z" transform="translate(-4.9 -53.613)" fill="#12263f"/>
      </g>
    </g>
    <g id="Grupo_23687" data-name="Grupo 23687" transform="translate(729.672 2616.831)">
      <g id="Grupo_23686" data-name="Grupo 23686" transform="translate(0.006 0.001)">
        <circle id="Elipse_1340" data-name="Elipse 1340" cx="5.348" cy="5.348" r="5.348" transform="translate(28.792)" fill="#12263f"/>
        <path id="Trazado_9493" data-name="Trazado 9493" d="M14.556,18.7h2.057a2.468,2.468,0,0,0,2.468,2.468h4.114a2.468,2.468,0,0,0,0-4.936h-2.51a2.058,2.058,0,0,0-2.015-1.645H14.556a2.057,2.057,0,0,0,0,4.113Z" transform="translate(-7.565 -8.825)" fill="#12263f"/>
        <path id="Trazado_9494" data-name="Trazado 9494" d="M18.959,43.824a4.323,4.323,0,0,0-7.478,0L.094,63.66A.7.7,0,0,0,.719,64.7H14.565l.461-.814,7.7-13.5Z" transform="translate(-0.006 -25.215)" fill="#12263f"/>
        <path id="Trazado_9495" data-name="Trazado 9495" d="M64.594,72.267l-8.17-14.291a3.374,3.374,0,0,0-5.89,0l-1.645,2.888L41.665,73.526H63.854a.846.846,0,0,0,.74-1.259Z" transform="translate(-25.213 -34.036)" fill="#12263f"/>
      </g>
    </g>
    <text id="Rural_Disperso" data-name="Rural 
Disperso" transform="translate(749.678 2681.376)" fill="#12263f" font-size="18" font-family="Roboto-Regular, Roboto"><tspan x="-23.445" y="0">Rural </tspan><tspan x="-35.868" y="20">Disperso</tspan></text>
    <g id="Grupo_23688" data-name="Grupo 23688" transform="translate(0 45)">
      <g id="Rectngulo_5597" data-name="Rectngulo 5597" transform="translate(264 2685)" fill="#12263f" stroke="#707070" stroke-width="1">
        <rect width="146" height="42" rx="5" stroke="none"/>
        <rect x="0.5" y="0.5" width="145" height="41" rx="4.5" fill="none"/>
      </g>
      <text id="ENTORNOS" transform="translate(295 2711)" fill="#fff" font-size="16" font-family="Roboto-Black, Roboto" font-weight="800"><tspan x="0" y="0">ENTORNOS</tspan></text>
      <g id="Rectngulo_5598" data-name="Rectngulo 5598" transform="translate(427 2685)" fill="#12263f" stroke="#707070" stroke-width="1">
        <rect width="174" height="42" rx="5" stroke="none"/>
        <rect x="0.5" y="0.5" width="173" height="41" rx="4.5" fill="none"/>
      </g>
      <text id="DESTINATARIOS" transform="translate(453 2711)" fill="#fff" font-size="16" font-family="Roboto-Black, Roboto" font-weight="800"><tspan x="0" y="0">DESTINATARIOS</tspan></text>
      <g id="Rectngulo_5599" data-name="Rectngulo 5599" transform="translate(617 2685)" fill="#12263f" stroke="#707070" stroke-width="1">
        <rect width="312" height="42" rx="5" stroke="none"/>
        <rect x="0.5" y="0.5" width="311" height="41" rx="4.5" fill="none"/>
      </g>
      <text id="MOMENTOS_DEL_CURSO_DE_LA_VIDA" data-name="MOMENTOS DEL CURSO DE LA VIDA" transform="translate(642 2712)" fill="#fff" font-size="16" font-family="Roboto-Black, Roboto" font-weight="800"><tspan x="0" y="0">MOMENTOS DEL CURSO DE LA VIDA</tspan></text>
      <g id="Rectngulo_5600" data-name="Rectngulo 5600" transform="translate(946 2685)" fill="#12263f" stroke="#707070" stroke-width="1">
        <rect width="130" height="42" rx="5" stroke="none"/>
        <rect x="0.5" y="0.5" width="129" height="41" rx="4.5" fill="none"/>
      </g>
      <text id="AMBITOS" transform="translate(976 2711)" fill="#fff" font-size="16" font-family="Roboto-Black, Roboto" font-weight="800"><tspan x="0" y="0">AMBITOS</tspan></text>
    </g>
  </g>
</svg>
