<svg xmlns="http://www.w3.org/2000/svg" width="148" height="148" viewBox="0 0 148 148">
  <g id="Grupo_23854" data-name="Grupo 23854" transform="translate(-324 -4993)">
    <ellipse id="Elipse_1386" data-name="Elipse 1386" cx="59.812" cy="59.812" rx="59.812" ry="59.812" transform="translate(337 5000.237)" fill="#f579a8"/>
    <g id="Grupo_23840" data-name="Grupo 23840" transform="translate(355.018 5033.226)">
      <path id="Trazado_9560" data-name="Trazado 9560" d="M133.635,236.387a14.859,14.859,0,0,0-5.9,2.859l.243.243c-.608.477-4.977,8.88-16.968,8.88A21.573,21.573,0,0,1,98,243.929l-2.98-2.25,2.8-2.432A12.2,12.2,0,0,0,92.157,218.2l-2.433-.487V202.755l21.286-6.082,21.287,6.082v19.218l-2.615-.547c1.675,6.279,3.608,7.364,8.758,14.049Z" transform="translate(-71.479 -156.736)" fill="#f3f5f9"/>
      <path id="Trazado_9561" data-name="Trazado 9561" d="M211.37,239.49l-.243-.243a14.859,14.859,0,0,1,5.9-2.859l4.8-.912c-5.149-6.685-7.083-7.77-8.758-14.049l2.615.547V202.756L194.4,196.674v51.7c11.991,0,16.36-8.4,16.968-8.88Z" transform="translate(-154.87 -156.736)" fill="#e1e6f0"/>
      <g id="Medicine" transform="translate(18.245 0)">
        <g id="Grupo_23837" data-name="Grupo 23837">
          <path id="Trazado_9562" data-name="Trazado 9562" d="M111.01.277A21.31,21.31,0,0,0,89.724,21.563V46.3H132.3V21.563A21.31,21.31,0,0,0,111.01.277Z" transform="translate(-89.724 -0.277)" fill="#00348d"/>
        </g>
      </g>
      <g id="Grupo_23838" data-name="Grupo 23838" transform="translate(47.287 43.25)">
        <path id="Trazado_9563" data-name="Trazado 9563" d="M260.954,212.965A43.534,43.534,0,0,0,255,237.515c-6.473-6.738-18.778-10.219-18.778-10.219s3.479,12.343,10.336,18.886c-5.649,1.086-14.02,5.844-14.02,5.844s9.982,6.726,17.411,5.958c-2.444,1.81-4.649,9.664-4.649,9.664s8.151-1.432,12.611-5.277v11.346H264V262.371c4.46,3.845,12.611,5.277,12.611,5.277s-2.206-7.854-4.649-9.664c7.43.768,17.411-5.958,17.411-5.958s-8.371-4.758-14.02-5.844c6.858-6.543,10.336-18.886,10.336-18.886s-12.3,3.481-18.778,10.219a43.534,43.534,0,0,0-5.952-24.549Z" transform="translate(-232.54 -212.965)" fill="#8c6"/>
        <path id="Trazado_9564" data-name="Trazado 9564" d="M375.311,273.718V262.372c4.46,3.845,12.611,5.277,12.611,5.277s-2.206-7.854-4.649-9.664c7.43.768,17.411-5.958,17.411-5.958s-8.371-4.758-14.02-5.844C393.522,239.64,397,227.3,397,227.3s-12.3,3.481-18.778,10.219a43.536,43.536,0,0,0-5.952-24.55v60.753h3.041Z" transform="translate(-343.856 -212.966)" fill="#5ab348"/>
      </g>
      <path id="Trazado_9565" data-name="Trazado 9565" d="M215.689,46.3V21.563A21.31,21.31,0,0,0,194.4.277V46.3Z" transform="translate(-154.87 -0.277)" fill="#e84382"/>
      <path id="Trazado_9566" data-name="Trazado 9566" d="M33.085,309.015l-6.745,2.458,2.487-6.716a17.943,17.943,0,0,0-10.582-3.406A18.221,18.221,0,0,0,3.406,330.18l6.44-2.152-2.183,6.409A18.22,18.22,0,0,0,36.491,319.6,17.868,17.868,0,0,0,33.085,309.015Z" transform="translate(0 -240.128)" fill="#dbf261"/>
      <path id="Trazado_9567" data-name="Trazado 9567" d="M107.969,319.6a17.869,17.869,0,0,0-3.406-10.582l-6.745,2.458,2.487-6.716a17.943,17.943,0,0,0-10.582-3.406v36.491A18.286,18.286,0,0,0,107.969,319.6Z" transform="translate(-71.479 -240.127)" fill="#bfd941"/>
      <g id="Grupo_23839" data-name="Grupo 23839" transform="translate(3.406 64.63)">
        <path id="Trazado_9568" data-name="Trazado 9568" d="M46.428,322.358,21.006,347.78a17.682,17.682,0,0,1-4.257-4.257L42.171,318.1A17.688,17.688,0,0,1,46.428,322.358Z" transform="translate(-16.749 -318.101)" fill="#bfd941"/>
      </g>
      <path id="Trazado_9569" data-name="Trazado 9569" d="M89.724,328.683V337.2l14.84-14.84a17.692,17.692,0,0,0-4.257-4.257Z" transform="translate(-71.479 -253.471)" fill="#a3cc28"/>
    </g>
    <rect id="Rectángulo_5622" data-name="Rectángulo 5622" width="148" height="148" transform="translate(324 4993)" fill="none"/>
  </g>
</svg>
