<svg xmlns="http://www.w3.org/2000/svg" width="148" height="148" viewBox="0 0 148 148">
  <g id="Grupo_23851" data-name="Grupo 23851" transform="translate(-324 -4661)">
    <rect id="Rectángulo_5619" data-name="Rectángulo 5619" width="148" height="148" transform="translate(324 4661)" fill="none"/>
    <g id="Grupo_23848" data-name="Grupo 23848" transform="translate(6 23.225)">
      <ellipse id="Elipse_1343" data-name="Elipse 1343" cx="61.5" cy="62" rx="61.5" ry="62" transform="translate(332 4644.775)" fill="#f579a8"/>
      <g id="Page-1" transform="translate(345.004 4653.806)">
        <g id="_004---Pregnant-Woman" data-name="004---Pregnant-Woman">
          <path id="Shape" d="M103.427,249.983a28.451,28.451,0,0,1,1.674-3.9c-.064-.021-.106-.063-.17-.085-9.58-5.426-16.744-15.2-16.744-30.945a31.509,31.509,0,0,1,14.879-28.105l12.675-1.569,32.853,18.716a37.149,37.149,0,0,0,3.179,17.317c6.87,13.739,10.956,33.042,12.259,39.873a2.12,2.12,0,0,1-2.086,2.518H103.132a2.12,2.12,0,0,1-2.119-2.27,45.538,45.538,0,0,1,2.414-11.549Z" transform="translate(-88.16 -140.869)" fill="#00348d"/>
          <path id="Shape-2" data-name="Shape" d="M181.928,444.729a2.1,2.1,0,0,1-1.865,2.332,49.864,49.864,0,0,1-5.871.339,48.111,48.111,0,0,1-22.446-5.3,28.449,28.449,0,0,1,1.674-3.9,45.183,45.183,0,0,0,26.155,4.663,2.12,2.12,0,0,1,2.353,1.865Z" transform="translate(-136.479 -332.987)" fill="#89ace8"/>
          <path id="Shape-3" data-name="Shape" d="M211.536,65.706s-27.554-2.119-50.869-14.837a16.218,16.218,0,0,0-10.6-4.239,7.529,7.529,0,0,1,4.239-6.359,11.234,11.234,0,0,1,7.355-.742c-11.848-3.963-12.887-18.652-3.116-22.573A21.74,21.74,0,0,0,162.49,14.9,40.7,40.7,0,0,0,174.338,2.056,4.268,4.268,0,0,1,177.983,0h24.968c6.422,0,10.831,7.143,10.7,12.717C213.655,23.315,215.775,48.749,211.536,65.706Z" transform="translate(-135.204)" fill="#ffe3ee"/>
          <path id="Shape-4" data-name="Shape" d="M276.84,177.759a2.1,2.1,0,0,1-1.272-.424c-5.023-3.766-11.869-4.277-17.91-4.729a39.967,39.967,0,0,1-9.042-1.314,2.122,2.122,0,0,1,1.341-4.027,37.618,37.618,0,0,0,8.016,1.106c6.293.471,14.122,1.06,20.136,5.568a2.12,2.12,0,0,1-1.272,3.815Z" transform="translate(-208.987 -127.021)" fill="#f7cbdc"/>
          <path id="Shape-5" data-name="Shape" d="M147.217,287.061a8.717,8.717,0,0,1,7.418-4.578,7.567,7.567,0,0,1,7.418,7.965c0,5.973-6.039,9.928-14.837,17.469-8.8-7.541-14.837-11.5-14.837-17.469a7.567,7.567,0,0,1,7.418-7.965A8.717,8.717,0,0,1,147.217,287.061Z" transform="translate(-121.755 -214.658)" fill="#f579a8"/>
          <path id="Shape-6" data-name="Shape" d="M202.672,47.711c-7.63-2.459-16.384-1.568-21.3-3.2-4.79-1.611-9.474-4.133-13.841-4.981-11.848-3.963-12.887-18.652-3.116-22.573a21.74,21.74,0,0,0,3.942-2.056,56.18,56.18,0,0,0,15.134,2.056C196.208,16.956,196.208,0,196.208,0h8.478c-5.511,22.064-3.858,38.745-2.014,47.711Z" transform="translate(-141.072)" fill="#00348d"/>
          <circle id="Oval" cx="4.239" cy="4.239" r="4.239" transform="translate(13.805 69.945)" fill="#fff"/>
        </g>
      </g>
    </g>
  </g>
</svg>
