<svg xmlns="http://www.w3.org/2000/svg" width="148" height="148" viewBox="0 0 148 148">
  <g id="Grupo_23853" data-name="Grupo 23853" transform="translate(-898 -4661)">
    <g id="Grupo_23850" data-name="Grupo 23850" transform="translate(10 23)">
      <circle id="Elipse_1343" data-name="Elipse 1343" cx="61" cy="61" r="61" transform="translate(898 4645)" fill="#f579a8"/>
      <g id="Grupo_23836" data-name="Grupo 23836" transform="translate(906.283 4672.943)">
        <g id="Grupo_23751" data-name="Grupo 23751" transform="translate(4.073 3.324)">
          <path id="Trazado_9547" data-name="Trazado 9547" d="M117.894,68.715c0,27.9-20.227,48.07-48.13,48.07-12.931,0-24.727-1.982-33.664-9.972a50.523,50.523,0,1,1,69.389-73.4c9.143,9.143,12.4,21.35,12.4,35.3Z" transform="translate(-19.242 -18.615)" fill="#f5415f"/>
        </g>
        <g id="Grupo_23752" data-name="Grupo 23752" transform="translate(7.33 3.675)">
          <circle id="Elipse_1344" data-name="Elipse 1344" cx="3.619" cy="3.619" r="3.619" transform="translate(12.368 63.244)" fill="#cd2846"/>
          <path id="Trazado_9548" data-name="Trazado 9548" d="M88.141,42.815l-4.824.313A21,21,0,0,0,77.11,31.95a6.653,6.653,0,0,0-1.157-11.681,50.285,50.285,0,0,0-7.159,1.37,6.62,6.62,0,0,0-2.024,4.985,21.157,21.157,0,0,0-10.821.706c-.018-.07-.038-.14-.058-.21a50.739,50.739,0,0,0-11.006,8.937,20.819,20.819,0,0,0-2.971,7.892,5.631,5.631,0,0,0-2.282-1.192,50.351,50.351,0,0,0-5,9.809,5.641,5.641,0,0,0,7.605-.371,20.991,20.991,0,0,0,6.256,10.588l-1.656,3.038a5.641,5.641,0,1,0,5.461,3.24l1.492-2.737a20.871,20.871,0,0,0,4.177,1.439,5.642,5.642,0,1,0,10.657-.319c.114-.033.228-.067.341-.1a20.908,20.908,0,0,0,4.128-1.8l2.742,2.787a5.641,5.641,0,1,0,4.867-4.1L78.1,61.58a20.955,20.955,0,0,0,5.512-12.112l3.981-.258a5.642,5.642,0,1,0,.551-6.395Z" transform="translate(-34.633 -20.269)" fill="#cd2846"/>
          <path id="Trazado_9549" data-name="Trazado 9549" d="M180.32,123.518a50.4,50.4,0,0,0-14.753-35.68.874.874,0,0,0-1.392,1l.055.119a3.737,3.737,0,0,1-3.225,5.29l-.123.007a7.986,7.986,0,1,0,1.571,15.888,5.386,5.386,0,0,1,6.119,5.9q-.025.214-.051.427a10.379,10.379,0,0,1-11.818,8.916l-.018,0a7.229,7.229,0,1,0-13.877,1.627,2.67,2.67,0,0,1-.765,3.062,20.857,20.857,0,0,0-4.987,5.893l-2.218-.913a5.642,5.642,0,1,0-2.415,5.869l2.358.97a20.9,20.9,0,0,0-.085,8.56,6.662,6.662,0,0,1-4.154,7.485q-.392.151-.8.3a6.3,6.3,0,0,1-8.482-5.678q0-.086-.008-.172a7.986,7.986,0,0,0-15.959.447q0,.047,0,.094a4.328,4.328,0,0,1-5.967,4.077l-.241-.1a2.656,2.656,0,0,0-2.946,4.278,50.516,50.516,0,0,0,84.185-37.672Z" transform="translate(-82.532 -73.345)" fill="#cd2846"/>
        </g>
        <g id="Grupo_23757" data-name="Grupo 23757" transform="translate(24.253 71.465)">
          <g id="Grupo_23754" data-name="Grupo 23754" transform="translate(0 0)">
            <g id="Grupo_23753" data-name="Grupo 23753">
              <circle id="Elipse_1345" data-name="Elipse 1345" cx="7.986" cy="7.986" r="7.986" transform="matrix(0.071, -0.997, 0.997, 0.071, 0, 15.931)" fill="#ffc305"/>
            </g>
          </g>
          <g id="Grupo_23756" data-name="Grupo 23756" transform="translate(1.327 1.628)">
            <g id="Grupo_23755" data-name="Grupo 23755">
              <circle id="Elipse_1346" data-name="Elipse 1346" cx="4.868" cy="4.868" r="4.868" fill="#ffdc64"/>
            </g>
          </g>
        </g>
        <g id="Grupo_23762" data-name="Grupo 23762" transform="translate(72.958 21.395)">
          <g id="Grupo_23759" data-name="Grupo 23759">
            <g id="Grupo_23758" data-name="Grupo 23758">
              <circle id="Elipse_1347" data-name="Elipse 1347" cx="7.986" cy="7.986" r="7.986" fill="#ffc305"/>
            </g>
          </g>
          <g id="Grupo_23761" data-name="Grupo 23761" transform="translate(5.153 0.78)">
            <g id="Grupo_23760" data-name="Grupo 23760">
              <circle id="Elipse_1348" data-name="Elipse 1348" cx="4.868" cy="4.868" r="4.868" fill="#ffdc64"/>
            </g>
          </g>
        </g>
        <g id="Grupo_23764" data-name="Grupo 23764" transform="translate(14.41 63.745)">
          <g id="Grupo_23763" data-name="Grupo 23763">
            <circle id="Elipse_1349" data-name="Elipse 1349" cx="3.619" cy="3.619" r="3.619" fill="#ffdc64"/>
          </g>
        </g>
        <g id="Grupo_23788" data-name="Grupo 23788" transform="translate(0 0)">
          <g id="Grupo_23765" data-name="Grupo 23765" transform="translate(33.23 33.911)">
            <path id="Trazado_9550" data-name="Trazado 9550" d="M170.036,179.5a3.164,3.164,0,0,1-2.262-.948l-9.863-10.025a3.173,3.173,0,0,1,4.524-4.451L172.3,174.1a3.173,3.173,0,0,1-2.262,5.4Z" transform="translate(-157 -163.127)" fill="#05acff"/>
          </g>
          <g id="Grupo_23766" data-name="Grupo 23766" transform="translate(13.338 33.911)">
            <path id="Trazado_9551" data-name="Trazado 9551" d="M66.188,180.914a3.174,3.174,0,0,1-2.783-4.692l6.24-11.444a3.173,3.173,0,1,1,5.572,3.038l-6.24,11.444a3.172,3.172,0,0,1-2.789,1.655Z" transform="translate(-63.017 -163.123)" fill="#05acff"/>
          </g>
          <g id="Grupo_23767" data-name="Grupo 23767" transform="translate(38.92 23.013)">
            <path id="Trazado_9552" data-name="Trazado 9552" d="M187.053,118.894a3.173,3.173,0,0,1-.2-6.34l14.091-.913a3.173,3.173,0,0,1,.41,6.333l-14.091.913c-.07,0-.139.007-.208.007Z" transform="translate(-183.883 -111.634)" fill="#05acff"/>
          </g>
          <g id="Grupo_23768" data-name="Grupo 23768" transform="translate(9.064 6.46)">
            <circle id="Elipse_1350" data-name="Elipse 1350" cx="21.034" cy="21.034" r="21.034" fill="#05cdff"/>
          </g>
          <g id="Grupo_23769" data-name="Grupo 23769" transform="translate(9.064 6.46)">
            <path id="Trazado_9553" data-name="Trazado 9553" d="M56.807,54.965A21.043,21.043,0,0,1,71.563,34.884a21.034,21.034,0,1,0-1.427,39.66A21.042,21.042,0,0,1,56.807,54.965Z" transform="translate(-42.824 -33.428)" fill="#05acff"/>
          </g>
          <g id="Grupo_23770" data-name="Grupo 23770" transform="translate(9.12 2.103)">
            <circle id="Elipse_1351" data-name="Elipse 1351" cx="7.229" cy="7.229" r="7.229" fill="#05cdff"/>
          </g>
          <g id="Grupo_23771" data-name="Grupo 23771" transform="translate(2.469 25.281)">
            <path id="Trazado_9554" data-name="Trazado 9554" d="M24.075,128.7H14.838a3.173,3.173,0,1,1,0-6.346h9.237a3.173,3.173,0,0,1,0,6.346Z" transform="translate(-11.665 -122.351)" fill="#05acff"/>
          </g>
          <g id="Grupo_23772" data-name="Grupo 23772" transform="translate(33.123 21.776)">
            <circle id="Elipse_1352" data-name="Elipse 1352" cx="6.557" cy="6.557" r="6.557" fill="#6ee1ff"/>
          </g>
          <g id="Grupo_23773" data-name="Grupo 23773" transform="translate(9.248 4.356)">
            <circle id="Elipse_1353" data-name="Elipse 1353" cx="4.39" cy="4.39" r="4.39" fill="#6ee1ff"/>
          </g>
          <g id="Grupo_23774" data-name="Grupo 23774" transform="translate(0 22.812)">
            <circle id="Elipse_1354" data-name="Elipse 1354" cx="5.642" cy="5.642" r="5.642" fill="#05acff"/>
          </g>
          <g id="Grupo_23775" data-name="Grupo 23775" transform="translate(0.1 24.571)">
            <circle id="Elipse_1355" data-name="Elipse 1355" cx="3.426" cy="3.426" r="3.426" fill="#05cdff"/>
          </g>
          <g id="Grupo_23776" data-name="Grupo 23776" transform="translate(8.954 46.042)">
            <circle id="Elipse_1356" data-name="Elipse 1356" cx="5.642" cy="5.642" r="5.642" fill="#05acff"/>
          </g>
          <g id="Grupo_23777" data-name="Grupo 23777" transform="translate(9.542 49.684)">
            <circle id="Elipse_1357" data-name="Elipse 1357" cx="3.426" cy="3.426" r="3.426" fill="#05cdff"/>
          </g>
          <g id="Grupo_23778" data-name="Grupo 23778" transform="translate(43.039 44.434)">
            <circle id="Elipse_1358" data-name="Elipse 1358" cx="5.642" cy="5.642" r="5.642" fill="#05acff"/>
          </g>
          <g id="Grupo_23779" data-name="Grupo 23779" transform="translate(46.347 48.519)">
            <circle id="Elipse_1359" data-name="Elipse 1359" cx="3.426" cy="3.426" r="3.426" fill="#05cdff"/>
          </g>
          <g id="Grupo_23780" data-name="Grupo 23780" transform="translate(54.255 21)">
            <circle id="Elipse_1360" data-name="Elipse 1360" cx="5.642" cy="5.642" r="5.642" fill="#05acff"/>
          </g>
          <g id="Grupo_23781" data-name="Grupo 23781" transform="translate(55.372 21.351)">
            <circle id="Elipse_1361" data-name="Elipse 1361" cx="3.426" cy="3.426" r="3.426" fill="#05cdff"/>
          </g>
          <g id="Grupo_23782" data-name="Grupo 23782" transform="translate(25.119 44.042)">
            <circle id="Elipse_1362" data-name="Elipse 1362" cx="5.642" cy="5.642" r="5.642" fill="#05cdff"/>
          </g>
          <g id="Grupo_23783" data-name="Grupo 23783" transform="translate(26.237 44.393)">
            <circle id="Elipse_1363" data-name="Elipse 1363" cx="3.426" cy="3.426" r="3.426" fill="#6ee1ff"/>
          </g>
          <g id="Grupo_23784" data-name="Grupo 23784" transform="translate(34.175)">
            <circle id="Elipse_1364" data-name="Elipse 1364" cx="6.651" cy="6.651" r="6.651" fill="#05cdff"/>
          </g>
          <g id="Grupo_23785" data-name="Grupo 23785" transform="translate(35.404 0.468)">
            <circle id="Elipse_1365" data-name="Elipse 1365" cx="4.039" cy="4.039" r="4.039" fill="#6ee1ff"/>
          </g>
          <g id="Grupo_23786" data-name="Grupo 23786" transform="translate(22.148 15.518)">
            <circle id="Elipse_1366" data-name="Elipse 1366" cx="3.53" cy="3.53" r="3.53" transform="translate(0 0)" fill="#05cdff"/>
          </g>
          <g id="Grupo_23787" data-name="Grupo 23787" transform="translate(14.596 29.381)">
            <circle id="Elipse_1367" data-name="Elipse 1367" cx="5.82" cy="5.82" r="5.82" fill="#05cdff"/>
          </g>
        </g>
        <g id="Grupo_23835" data-name="Grupo 23835" transform="translate(42.353 44.283)">
          <g id="Grupo_23790" data-name="Grupo 23790" transform="translate(31.499 37.351)">
            <g id="Grupo_23789" data-name="Grupo 23789">
              <path id="Trazado_9555" data-name="Trazado 9555" d="M357.4,407.968a3.174,3.174,0,0,1-2.94-1.976l-5.306-13.024a3.173,3.173,0,0,1,5.877-2.395l5.306,13.024a3.175,3.175,0,0,1-2.938,4.371Z" transform="translate(-348.92 -388.596)" fill="#05acff"/>
            </g>
          </g>
          <g id="Grupo_23792" data-name="Grupo 23792" transform="translate(8.749 32.157)">
            <g id="Grupo_23791" data-name="Grupo 23791">
              <path id="Trazado_9556" data-name="Trazado 9556" d="M244.615,378.612a3.173,3.173,0,0,1-2-5.638l10.125-8.209a3.173,3.173,0,0,1,4,4.93L246.611,377.9A3.16,3.16,0,0,1,244.615,378.612Z" transform="translate(-241.439 -364.057)" fill="#05acff"/>
            </g>
          </g>
          <g id="Grupo_23794" data-name="Grupo 23794" transform="translate(40.56 30.282)">
            <g id="Grupo_23793" data-name="Grupo 23793">
              <path id="Trazado_9557" data-name="Trazado 9557" d="M408.286,366.06a3.175,3.175,0,0,1-1.016-.167l-13.379-4.517a3.173,3.173,0,0,1,2.03-6.013L409.3,359.88a3.174,3.174,0,0,1-1.015,6.18Z" transform="translate(-391.733 -355.195)" fill="#05acff"/>
            </g>
          </g>
          <g id="Grupo_23796" data-name="Grupo 23796" transform="translate(11.457 8.223)">
            <g id="Grupo_23795" data-name="Grupo 23795">
              <circle id="Elipse_1368" data-name="Elipse 1368" cx="21.034" cy="21.034" r="21.034" fill="#6e64c3"/>
            </g>
          </g>
          <g id="Grupo_23798" data-name="Grupo 23798" transform="translate(11.451 8.217)">
            <g id="Grupo_23797" data-name="Grupo 23797">
              <path id="Trazado_9558" data-name="Trazado 9558" d="M268.532,269.771a21.044,21.044,0,0,1,21.288-12.956,21.034,21.034,0,1,0-16.411,36.133,21.042,21.042,0,0,1-4.877-23.178Z" transform="translate(-254.205 -250.95)" fill="#5046af"/>
            </g>
          </g>
          <g id="Grupo_23800" data-name="Grupo 23800" transform="translate(19.457)">
            <g id="Grupo_23799" data-name="Grupo 23799">
              <circle id="Elipse_1369" data-name="Elipse 1369" cx="7.229" cy="7.229" r="7.229" fill="#6e64c3"/>
            </g>
          </g>
          <g id="Grupo_23802" data-name="Grupo 23802" transform="translate(3.299 15.916)">
            <g id="Grupo_23801" data-name="Grupo 23801">
              <path id="Trazado_9559" data-name="Trazado 9559" d="M227.4,297.183a3.162,3.162,0,0,1-1.206-.24l-8.542-3.514a3.173,3.173,0,1,1,2.415-5.869l8.542,3.515a3.173,3.173,0,0,1-1.209,6.108Z" transform="translate(-215.69 -287.321)" fill="#05acff"/>
            </g>
          </g>
          <g id="Grupo_23804" data-name="Grupo 23804" transform="translate(34.476 27.122)">
            <g id="Grupo_23803" data-name="Grupo 23803">
              <circle id="Elipse_1370" data-name="Elipse 1370" cx="6.557" cy="6.557" r="6.557" fill="#6ee1ff"/>
            </g>
          </g>
          <g id="Grupo_23806" data-name="Grupo 23806" transform="translate(20.012 1.267)">
            <g id="Grupo_23805" data-name="Grupo 23805">
              <circle id="Elipse_1371" data-name="Elipse 1371" cx="4.39" cy="4.39" r="4.39" fill="#827ddc"/>
            </g>
          </g>
          <g id="Grupo_23808" data-name="Grupo 23808" transform="translate(0 12.616)">
            <g id="Grupo_23807" data-name="Grupo 23807" transform="translate(0 0)">
              <circle id="Elipse_1372" data-name="Elipse 1372" cx="5.642" cy="5.642" r="5.642" transform="translate(0 11.139) rotate(-80.783)" fill="#5046af"/>
            </g>
          </g>
          <g id="Grupo_23810" data-name="Grupo 23810" transform="translate(1.264 14.436)">
            <g id="Grupo_23809" data-name="Grupo 23809">
              <circle id="Elipse_1373" data-name="Elipse 1373" cx="3.426" cy="3.426" r="3.426" fill="#6e64c3"/>
            </g>
          </g>
          <g id="Grupo_23812" data-name="Grupo 23812" transform="translate(2.478 39.256)">
            <g id="Grupo_23811" data-name="Grupo 23811" transform="translate(0 0)">
              <circle id="Elipse_1374" data-name="Elipse 1374" cx="5.642" cy="5.642" r="5.642" transform="translate(0 11.139) rotate(-80.783)" fill="#5046af"/>
            </g>
          </g>
          <g id="Grupo_23814" data-name="Grupo 23814" transform="translate(3.476 43.002)">
            <g id="Grupo_23813" data-name="Grupo 23813">
              <circle id="Elipse_1375" data-name="Elipse 1375" cx="3.426" cy="3.426" r="3.426" fill="#6e64c3"/>
            </g>
          </g>
          <g id="Grupo_23816" data-name="Grupo 23816" transform="translate(35.441 51.569)">
            <g id="Grupo_23815" data-name="Grupo 23815">
              <circle id="Elipse_1376" data-name="Elipse 1376" cx="5.642" cy="5.642" r="5.642" fill="#5046af"/>
            </g>
          </g>
          <g id="Grupo_23818" data-name="Grupo 23818" transform="translate(37.956 55.929)">
            <g id="Grupo_23817" data-name="Grupo 23817">
              <circle id="Elipse_1377" data-name="Elipse 1377" cx="3.426" cy="3.426" r="3.426" fill="#6e64c3"/>
            </g>
          </g>
          <g id="Grupo_23820" data-name="Grupo 23820" transform="translate(53.899 33.334)">
            <g id="Grupo_23819" data-name="Grupo 23819" transform="translate(0 0)">
              <circle id="Elipse_1378" data-name="Elipse 1378" cx="5.642" cy="5.642" r="5.642" transform="translate(0 11.139) rotate(-80.783)" fill="#5046af"/>
            </g>
          </g>
          <g id="Grupo_23822" data-name="Grupo 23822" transform="translate(56.64 34.239)">
            <g id="Grupo_23821" data-name="Grupo 23821">
              <circle id="Elipse_1379" data-name="Elipse 1379" cx="3.426" cy="3.426" r="3.426" fill="#6e64c3"/>
            </g>
          </g>
          <g id="Grupo_23824" data-name="Grupo 23824" transform="translate(19.019 44.387)">
            <g id="Grupo_23823" data-name="Grupo 23823">
              <circle id="Elipse_1380" data-name="Elipse 1380" cx="5.642" cy="5.642" r="5.642" fill="#05cdff"/>
            </g>
          </g>
          <g id="Grupo_23826" data-name="Grupo 23826" transform="translate(20.929 44.461)">
            <g id="Grupo_23825" data-name="Grupo 23825">
              <circle id="Elipse_1381" data-name="Elipse 1381" cx="3.426" cy="3.426" r="3.426" fill="#6ee1ff"/>
            </g>
          </g>
          <g id="Grupo_23828" data-name="Grupo 23828" transform="translate(43.691 7.413)">
            <g id="Grupo_23827" data-name="Grupo 23827">
              <circle id="Elipse_1382" data-name="Elipse 1382" cx="6.651" cy="6.651" r="6.651" fill="#05cdff"/>
            </g>
          </g>
          <g id="Grupo_23830" data-name="Grupo 23830" transform="translate(45.841 7.516)">
            <g id="Grupo_23829" data-name="Grupo 23829">
              <circle id="Elipse_1383" data-name="Elipse 1383" cx="4.039" cy="4.039" r="4.039" fill="#6ee1ff"/>
            </g>
          </g>
          <g id="Grupo_23832" data-name="Grupo 23832" transform="translate(28.086 16.234)">
            <g id="Grupo_23831" data-name="Grupo 23831">
              <circle id="Elipse_1384" data-name="Elipse 1384" cx="3.53" cy="3.53" r="3.53" fill="#05cdff"/>
            </g>
          </g>
          <g id="Grupo_23834" data-name="Grupo 23834" transform="translate(14.785 26.88)">
            <g id="Grupo_23833" data-name="Grupo 23833">
              <circle id="Elipse_1385" data-name="Elipse 1385" cx="5.82" cy="5.82" r="5.82" fill="#05cdff"/>
            </g>
          </g>
        </g>
      </g>
    </g>
    <rect id="Rectángulo_5621" data-name="Rectángulo 5621" width="148" height="148" transform="translate(898 4661)" fill="none"/>
  </g>
</svg>
