<svg xmlns="http://www.w3.org/2000/svg" width="352.702" height="372.792" viewBox="0 0 352.702 372.792">
  <g id="Grupo_23085" data-name="Grupo 23085" transform="translate(-24.911 -6.262)">
    <g id="Grupo_23012" data-name="Grupo 23012" transform="translate(24.911 6.262)">
      <g id="Grupo_23010" data-name="Grupo 23010" transform="translate(0 0)">
        <g id="Grupo_22999" data-name="Grupo 22999" transform="translate(0 0)">
          <g id="Grupo_22985" data-name="Grupo 22985" transform="translate(0 11.646)">
            <path id="Trazado_4009" data-name="Trazado 4009" d="M347.426,325.007H60.379a24.538,24.538,0,0,1-20.161-10.5C24,291.166,20.462,259.4,30.6,232.577c7.25-19.186,21.216-35.714,25.632-55.743,4.04-18.322-.394-37.295-1.52-56.023s2.311-39.865,17.336-51.1c12.289-9.19,29.531-9.212,44.006-4.118s26.9,14.6,39.317,23.605,25.5,17.851,40.455,21.28c17.213,3.946,35.185.346,52.339-3.852s34.589-9.034,52.185-7.525,35.763,10.918,42.129,27.39c7.3,18.886-2.58,40.719,2.957,60.193,3.391,11.926,12.12,21.447,18.762,31.916,16.205,25.547,17,61.085,6.294,90.367A24.532,24.532,0,0,1,347.426,325.007Z" transform="translate(-24.911 -30.016)" fill="#ffe5ef"/>
            <path id="Trazado_4010" data-name="Trazado 4010" d="M268.3,91.031c6.759-.889,13.635-2.589,19.087-6.68,10.194-7.651,13.049-22.73,8.371-34.586S280.119,29.3,268.088,25.094s-25.091-4.482-37.8-3.487c-10.394.813-20.985,2.534-30.068,7.652-7.367,4.152-14.425,11.421-16.668,19.788-1.952,7.286,1.991,13.066,7.153,17.862C203.8,79.076,221.3,87.02,238.778,90.218A95.273,95.273,0,0,0,268.3,91.031Z" transform="translate(-59.152 -21.127)" fill="#ffe5ef"/>
          </g>
          <g id="Grupo_22998" data-name="Grupo 22998" transform="translate(59.95)">
            <g id="Grupo_22987" data-name="Grupo 22987" transform="translate(141.555 16.632)">
              <path id="Trazado_4138" data-name="Trazado 4138" d="M24.01,0A24.01,24.01,0,1,1,0,24.01,24.01,24.01,0,0,1,24.01,0Z" fill="#00348d"/>
              <g id="Grupo_22986" data-name="Grupo 22986" transform="translate(9.103 6.277)">
                <path id="Trazado_4011" data-name="Trazado 4011" d="M315.973,67.923l-6.017,2.757a3.184,3.184,0,0,1-2.649,0l-6.017-2.757a12.967,12.967,0,0,1-7.566-11.789V45.283a3.152,3.152,0,0,1,1.6-2.746l11.755-6.628a3.152,3.152,0,0,1,3.1,0l11.755,6.628a3.152,3.152,0,0,1,1.6,2.746V56.134A12.967,12.967,0,0,1,315.973,67.923Z" transform="translate(-293.724 -35.502)" fill="#f579a8"/>
                <path id="Trazado_4012" data-name="Trazado 4012" d="M319.595,52.469h-6.4v-6.4h-6.108v6.4h-6.4v6.107h6.4v6.4h6.108v-6.4h6.4Z" transform="translate(-295.23 -37.789)" fill="#00348d"/>
              </g>
            </g>
            <g id="Grupo_22990" data-name="Grupo 22990" transform="translate(163.343 76.349)">
              <circle id="Elipse_1297" data-name="Elipse 1297" cx="23.332" cy="23.332" r="23.332" fill="#00348d"/>
              <g id="Grupo_22989" data-name="Grupo 22989" transform="translate(2.222 10.537)">
                <path id="Trazado_4013" data-name="Trazado 4013" d="M350.075,119.917a9.411,9.411,0,0,0-13.31,0L334.678,122l-2.086-2.086a9.412,9.412,0,0,0-13.311,0h0a9.412,9.412,0,0,0,0,13.31l2.086,2.086,13.31,13.311,13.311-13.311h0l2.086-2.086A9.412,9.412,0,0,0,350.075,119.917Z" transform="translate(-313.568 -117.16)" fill="#f579a8"/>
                <g id="Grupo_22988" data-name="Grupo 22988" transform="translate(0 1.907)">
                  <path id="Trazado_4014" data-name="Trazado 4014" d="M331.84,145.8l-4.52-15.222-1.839,5.15h-12.73v-1.853h11.423l3.307-9.26,3.7,12.454,2.423-17.478,3.576,14.425,2.568-9.6,3.231,9.461h11.993v1.853H341.653l-1.689-4.949-2.851,10.663-2.993-12.074Z" transform="translate(-312.751 -119.593)" fill="#fff"/>
                </g>
              </g>
            </g>
            <g id="Grupo_22995" data-name="Grupo 22995" transform="translate(0 54.344)">
              <circle id="Elipse_1298" data-name="Elipse 1298" cx="22.865" cy="22.865" r="22.865" transform="translate(0 32.336) rotate(-45)" fill="#00348d"/>
              <g id="Grupo_22994" data-name="Grupo 22994" transform="translate(19.044 18.259)">
                <g id="Grupo_22991" data-name="Grupo 22991">
                  <path id="Trazado_4015" data-name="Trazado 4015" d="M125.736,115.748v7.028a6.149,6.149,0,0,0,12.3,0v-7.028Z" transform="translate(-125.736 -102.572)" fill="#fff"/>
                  <path id="Trazado_4016" data-name="Trazado 4016" d="M138.034,105.079a6.149,6.149,0,1,0-12.3,0v7.027h12.3Z" transform="translate(-125.736 -98.93)" fill="#f579a8"/>
                </g>
                <g id="Grupo_22992" data-name="Grupo 22992" transform="translate(1.546 7.533)">
                  <path id="Trazado_4017" data-name="Trazado 4017" d="M138.461,122.776v-7.028h-5.644l-2.492,2.493a8.963,8.963,0,0,0-2.2,9.025,6.142,6.142,0,0,0,10.34-4.49Z" transform="translate(-127.71 -110.104)" fill="#e4e4e0"/>
                  <path id="Trazado_4018" data-name="Trazado 4018" d="M139.873,114.188v-5.644l-5.644,5.644Z" transform="translate(-129.121 -108.544)" fill="#a34262"/>
                </g>
                <g id="Grupo_22993" data-name="Grupo 22993" transform="translate(4.348 5.918)">
                  <path id="Trazado_4019" data-name="Trazado 4019" d="M138.056,115.124l-4.969,4.97a6.149,6.149,0,0,0,8.7,8.7l4.969-4.969Z" transform="translate(-131.286 -108.354)" fill="#fff"/>
                  <path id="Trazado_4020" data-name="Trazado 4020" d="M153.592,116.98a6.149,6.149,0,1,0-8.7-8.7l-4.97,4.969,8.7,8.7Z" transform="translate(-133.157 -106.483)" fill="#f579a8"/>
                </g>
              </g>
            </g>
            <g id="Grupo_22997" data-name="Grupo 22997" transform="translate(49.2)">
              <circle id="Elipse_1299" data-name="Elipse 1299" cx="22.051" cy="22.051" r="22.051" transform="translate(0 31.185) rotate(-45)" fill="#00348d"/>
              <g id="Grupo_22996" data-name="Grupo 22996" transform="translate(16.278 16.603)">
                <rect id="Rectángulo_5345" data-name="Rectángulo 5345" width="7.081" height="18.619" transform="translate(19.368 4.79) rotate(45)" fill="#fff"/>
                <rect id="Rectángulo_5346" data-name="Rectángulo 5346" width="16.521" height="4.983" transform="translate(22.891 9.797) rotate(135)" fill="#c7d2d7"/>
                <rect id="Rectángulo_5347" data-name="Rectángulo 5347" width="12.063" height="1.355" transform="translate(4.44 16.195) rotate(45)" fill="#fff"/>
                <rect id="Rectángulo_5348" data-name="Rectángulo 5348" width="3.322" height="2.054" transform="translate(22.149 4.667) rotate(45)" fill="#c7d2d7"/>
                <path id="Trazado_4021" data-name="Trazado 4021" d="M215.009,33.619l-.649-.649,5.517-5.517h1.3Z" transform="translate(-191.361 -27.453)" fill="#99a3b0"/>
                <rect id="Rectángulo_5349" data-name="Rectángulo 5349" width="2.71" height="6.032" transform="translate(6.789 20.46) rotate(45.001)" fill="#c7d2d7"/>
                <rect id="Rectángulo_5350" data-name="Rectángulo 5350" width="7.882" height="0.983" transform="translate(0.695 22.896) rotate(45)" fill="#fff"/>
                <rect id="Rectángulo_5351" data-name="Rectángulo 5351" width="2.71" height="2.016" transform="translate(6.789 20.46) rotate(44.999)" fill="#99a3b0"/>
                <path id="Trazado_4022" data-name="Trazado 4022" d="M207.485,39.813l-6.459,6.459a1.791,1.791,0,0,1-2.535,0l-.989-.989-2.689,2.689,2.256,2.256,1.267,1.267,2.689-2.689,8.993-8.993h0A1.793,1.793,0,0,0,207.485,39.813Z" transform="translate(-187.128 -30.016)" fill="#cc6164"/>
              </g>
            </g>
          </g>
        </g>
      </g>
      <g id="Grupo_23011" data-name="Grupo 23011" transform="translate(5.622 306.638)">
        <path id="Trazado_4033" data-name="Trazado 4033" d="M373.545,399.039h0a1.4,1.4,0,0,0-1.4-1.4H33.482a1.4,1.4,0,0,0-1.4,1.4h0a1.4,1.4,0,0,0,1.4,1.4H59.643a1.4,1.4,0,0,1,1.4,1.4h0a1.4,1.4,0,0,1-1.4,1.4H54.089a1.4,1.4,0,0,0-1.395,1.4h0a1.4,1.4,0,0,0,1.395,1.4H361.361a1.4,1.4,0,0,0,1.395-1.4h0a1.4,1.4,0,0,0-1.395-1.4H306.1a1.4,1.4,0,0,1-1.4-1.4h0a1.4,1.4,0,0,1,1.4-1.4H372.15A1.4,1.4,0,0,0,373.545,399.039Z" transform="translate(-32.087 -397.644)" fill="#f579a8"/>
        <rect id="Rectángulo_5352" data-name="Rectángulo 5352" width="7.32" height="2.791" rx="1.395" transform="translate(9.041 5.581)" fill="#f579a8"/>
      </g>
    </g>
    <g id="Grupo_23084" data-name="Grupo 23084" transform="translate(51.005 59.299)">
      <g id="Grupo_23045" data-name="Grupo 23045" transform="translate(70.321)">
        <g id="Grupo_23013" data-name="Grupo 23013" transform="translate(1.088 146.204)">
          <path id="Trazado_4034" data-name="Trazado 4034" d="M181.671,266.163l-26.9-5.6-5.117,47.543a51.8,51.8,0,0,0-.27,7.287l1.752,52.566h25.679V311.978Z" transform="translate(-149.361 -260.567)" fill="#bd6c67"/>
          <path id="Trazado_4035" data-name="Trazado 4035" d="M156.151,260.567l26.9,5.6-1.069,10.1-26.266-11.6Z" transform="translate(-150.736 -260.567)" fill="#a64f5a"/>
        </g>
        <g id="Grupo_23014" data-name="Grupo 23014" transform="translate(126.474 146.204)">
          <path id="Trazado_4036" data-name="Trazado 4036" d="M309.4,266.163l26.9-5.6,5.117,47.543a51.794,51.794,0,0,1,.27,7.287l-1.752,52.566H314.249V311.978Z" transform="translate(-309.399 -260.567)" fill="#bd6c67"/>
          <path id="Trazado_4037" data-name="Trazado 4037" d="M336.294,260.567l-26.9,5.6,1.069,10.1,26.266-11.6Z" transform="translate(-309.399 -260.567)" fill="#a64f5a"/>
        </g>
        <g id="Grupo_23027" data-name="Grupo 23027" transform="translate(0 91.734)">
          <path id="Trazado_4038" data-name="Trazado 4038" d="M274.446,277.745c6.216-11.914,3.7-23.677,2.821-27.191l30.577-6.393-9.609-24.508a34.488,34.488,0,0,0-21.781-20.316l-26.427-8.292c-3.092,6.441-9.126,14.642-22.119,14.642s-19.027-8.2-22.119-14.642l-26.427,8.292a34.488,34.488,0,0,0-21.781,20.316l-9.609,24.508,30.577,6.393c-.878,3.514-3.395,15.278,2.821,27.191,0,0,3,22.459,3,34.054s-9.734,23.542-9.734,41.111H281.184c0-17.569-9.734-29.515-9.734-41.111S274.446,277.745,274.446,277.745Z" transform="translate(-147.972 -191.044)" fill="#89ace8"/>
          <path id="Trazado_4039" data-name="Trazado 4039" d="M178.549,262.912l2.372-8.784-29.656-6.009-3.294,8.4Z" transform="translate(-147.972 -203.402)" fill="#fff"/>
          <path id="Trazado_4040" data-name="Trazado 4040" d="M266.867,191.578l-1.7-.534c-3.092,6.441-9.126,14.642-22.119,14.642s-19.027-8.2-22.119-14.642l-1.7.534c-2.748,8.155-1.022,17.569,2.808,25.275a49.48,49.48,0,0,0,12.485,15.46,3.265,3.265,0,0,0,5.328-1.986,115.47,115.47,0,0,1,3.2-13.733,115.47,115.47,0,0,1,3.2,13.733,3.265,3.265,0,0,0,5.328,1.986,49.48,49.48,0,0,0,12.485-15.46C267.889,209.148,269.615,199.734,266.867,191.578Z" transform="translate(-163.108 -191.044)" fill="#56438c"/>
          <path id="Trazado_4041" data-name="Trazado 4041" d="M267.033,191.578l-1.7-.534c-3.092,6.441-9.126,14.642-22.119,14.642s-19.027-8.2-22.119-14.642l-1.7.534a32.783,32.783,0,0,0,1.129,17.883c1.666,4.672,6.593,10.869,11.278,15.338a4.221,4.221,0,0,0,6.859-1.515l4.556-11.763,4.556,11.763a4.221,4.221,0,0,0,6.859,1.515c4.684-4.469,9.612-10.666,11.278-15.338A32.783,32.783,0,0,0,267.033,191.578Z" transform="translate(-163.274 -191.044)" fill="#fff"/>
          <g id="Grupo_23020" data-name="Grupo 23020" transform="translate(25.411 38.111)">
            <g id="Grupo_23015" data-name="Grupo 23015" transform="translate(1.053 99.704)">
              <path id="Trazado_4042" data-name="Trazado 4042" d="M235.222,391.193H181.75V391c0-9.7,3.073-17.993,5.317-24.05l.367.136c-2.875,7.759-5.257,14.9-5.292,23.718h53.08Z" transform="translate(-181.75 -366.947)" fill="#422c4f"/>
            </g>
            <g id="Grupo_23016" data-name="Grupo 23016" transform="translate(35.02 48.393)">
              <path id="Trazado_4043" data-name="Trazado 4043" d="M225.3,310.064a.2.2,0,0,1-.022-.39c.819-.095,1.637-.214,2.435-.353,7.068-1.24,12.174-4,14.378-7.767a.2.2,0,1,1,.338.2c-2.263,3.87-7.465,6.7-14.649,7.955-.8.142-1.632.261-2.457.356Z" transform="translate(-225.103 -301.455)" fill="#422c4f"/>
            </g>
            <g id="Grupo_23017" data-name="Grupo 23017">
              <path id="Trazado_4044" data-name="Trazado 4044" d="M189.6,246.488a.193.193,0,0,1-.151-.072c-.038-.046-3.892-4.7-8.91-6.347a.2.2,0,1,1,.121-.372c5.129,1.68,9.052,6.424,9.091,6.472a.2.2,0,0,1-.027.275A.193.193,0,0,1,189.6,246.488Z" transform="translate(-180.406 -239.688)" fill="#422c4f"/>
            </g>
            <g id="Grupo_23018" data-name="Grupo 23018" transform="translate(0 4.978)">
              <path id="Trazado_4045" data-name="Trazado 4045" d="M188.961,250.218a.2.2,0,0,1-.191-.155c-.2-.941-3.278-3.631-8.075-3.631a.739.739,0,0,1-.092,0,.2.2,0,0,1,0-.392h.094c4.956,0,8.216,2.789,8.458,3.941a.2.2,0,0,1-.151.233A.238.238,0,0,1,188.961,250.218Z" transform="translate(-180.406 -246.041)" fill="#422c4f"/>
            </g>
            <g id="Grupo_23019" data-name="Grupo 23019" transform="translate(3.718 1.074)">
              <path id="Trazado_4046" data-name="Trazado 4046" d="M194.987,293.854a.191.191,0,0,1-.092-.023,13.022,13.022,0,0,1-5.647-5.165c-5.689-10.9-4.22-21.8-2.839-27.331L191.9,241.2a.2.2,0,1,1,.378.1l-5.484,20.128c-1.367,5.47-2.822,16.263,2.806,27.05a12.655,12.655,0,0,0,5.484,5,.2.2,0,0,1-.092.368Z" transform="translate(-185.152 -241.059)" fill="#422c4f"/>
            </g>
          </g>
          <path id="Trazado_4047" data-name="Trazado 4047" d="M312.344,262.912l-2.372-8.784,29.656-6.009,3.294,8.4Z" transform="translate(-183.049 -203.402)" fill="#fff"/>
          <g id="Grupo_23026" data-name="Grupo 23026" transform="translate(79.936 38.111)">
            <g id="Grupo_23021" data-name="Grupo 23021" transform="translate(0 99.704)">
              <path id="Trazado_4048" data-name="Trazado 4048" d="M250,391.193h53.472V391c0-9.7-3.073-17.993-5.317-24.05l-.367.136c2.875,7.759,5.257,14.9,5.292,23.718H250Z" transform="translate(-250 -366.947)" fill="#422c4f"/>
            </g>
            <g id="Grupo_23022" data-name="Grupo 23022" transform="translate(2.154 48.393)">
              <path id="Trazado_4049" data-name="Trazado 4049" d="M269.9,310.064a.2.2,0,0,0,.023-.39c-.819-.095-1.637-.214-2.435-.353-7.068-1.24-12.174-4-14.378-7.767a.2.2,0,1,0-.338.2c2.263,3.87,7.464,6.7,14.649,7.955.8.142,1.631.261,2.457.356Z" transform="translate(-252.75 -301.455)" fill="#422c4f"/>
            </g>
            <g id="Grupo_23023" data-name="Grupo 23023" transform="translate(45.132)">
              <path id="Trazado_4050" data-name="Trazado 4050" d="M307.8,246.488a.2.2,0,0,0,.152-.072c.038-.046,3.892-4.7,8.91-6.347a.2.2,0,0,0-.121-.372c-5.129,1.68-9.052,6.424-9.091,6.472a.2.2,0,0,0,.027.275A.193.193,0,0,0,307.8,246.488Z" transform="translate(-307.605 -239.688)" fill="#422c4f"/>
            </g>
            <g id="Grupo_23024" data-name="Grupo 23024" transform="translate(45.774 4.978)">
              <path id="Trazado_4051" data-name="Trazado 4051" d="M308.621,250.218a.2.2,0,0,0,.191-.155c.2-.941,3.278-3.631,8.075-3.631a.739.739,0,0,0,.092,0,.2.2,0,0,0,0-.392h-.094c-4.956,0-8.216,2.789-8.458,3.941a.2.2,0,0,0,.151.233A.238.238,0,0,0,308.621,250.218Z" transform="translate(-308.424 -246.041)" fill="#422c4f"/>
            </g>
            <g id="Grupo_23025" data-name="Grupo 23025" transform="translate(40.776 1.074)">
              <path id="Trazado_4052" data-name="Trazado 4052" d="M302.241,293.854a.2.2,0,0,0,.092-.023,13.027,13.027,0,0,0,5.647-5.165c5.689-10.9,4.22-21.8,2.839-27.331L305.332,241.2a.2.2,0,1,0-.378.1l5.484,20.128c1.367,5.47,2.822,16.263-2.806,27.05a12.656,12.656,0,0,1-5.484,5,.2.2,0,0,0,.092.368Z" transform="translate(-302.045 -241.059)" fill="#422c4f"/>
            </g>
          </g>
        </g>
        <g id="Grupo_23028" data-name="Grupo 23028" transform="translate(57.817 76.334)">
          <path id="Trazado_4053" data-name="Trazado 4053" d="M266.006,186.788l-8.767-2.751v-12.65h-26.7v12.65l-8.767,2.751c3.092,6.441,9.126,14.642,22.119,14.642h0C256.88,201.429,262.914,193.229,266.006,186.788Z" transform="translate(-221.768 -171.387)" fill="#bd6c67"/>
          <path id="Trazado_4054" data-name="Trazado 4054" d="M246.31,171.387H232.958v2.728c3.074,6.144,10.146,8.252,13.352,8.252s10.278-2.108,13.352-8.252v-2.728Z" transform="translate(-224.191 -171.387)" fill="#422c4f"/>
        </g>
        <g id="Grupo_23033" data-name="Grupo 23033" transform="translate(23.866)">
          <circle id="Elipse_1300" data-name="Elipse 1300" cx="19.679" cy="19.679" r="19.679" transform="translate(0 64.377) rotate(-45)" fill="#422c4f"/>
          <circle id="Elipse_1301" data-name="Elipse 1301" cx="19.679" cy="19.679" r="19.679" transform="matrix(0.389, -0.921, 0.921, 0.389, 58.533, 74.861)" fill="#422c4f"/>
          <g id="Grupo_23029" data-name="Grupo 23029" transform="translate(16.857 49.447)">
            <circle id="Elipse_1302" data-name="Elipse 1302" cx="8.985" cy="8.985" r="8.985" transform="translate(0 17.836) rotate(-83.001)" fill="#a64f5a"/>
            <path id="Trazado_4055" data-name="Trazado 4055" d="M216.151,148.543a4.73,4.73,0,1,1-4.73-4.73A4.73,4.73,0,0,1,216.151,148.543Z" transform="translate(-201.409 -138.53)" fill="#8c404c"/>
          </g>
          <g id="Grupo_23030" data-name="Grupo 23030" transform="translate(74.471 48.659)">
            <circle id="Elipse_1303" data-name="Elipse 1303" cx="8.985" cy="8.985" r="8.985" transform="translate(0 4.108) rotate(-13.216)" fill="#a64f5a"/>
            <path id="Trazado_4056" data-name="Trazado 4056" d="M281.234,148.543a4.73,4.73,0,1,0,4.73-4.73A4.73,4.73,0,0,0,281.234,148.543Z" transform="translate(-275.163 -137.742)" fill="#8c404c"/>
          </g>
          <path id="Trazado_4057" data-name="Trazado 4057" d="M241.771,84.268h0A29.775,29.775,0,0,0,212,114.042v1.5a29.776,29.776,0,0,0,.782,6.778l4.325,18.5a21.418,21.418,0,0,0,9.384,13.211l3.282,2.081a22.411,22.411,0,0,0,12,3.485h0a22.412,22.412,0,0,0,12-3.485l3.282-2.081a21.418,21.418,0,0,0,9.384-13.211l4.325-18.5a29.777,29.777,0,0,0,.781-6.778v-1.5A29.774,29.774,0,0,0,241.771,84.268Z" transform="translate(-185.7 -76.19)" fill="#bd6c67"/>
          <g id="Grupo_23031" data-name="Grupo 23031" transform="translate(33.791 35.037)">
            <path id="Trazado_4058" data-name="Trazado 4058" d="M229.695,118.688a10.44,10.44,0,0,0-8.132,4.5l16.632-.741A10.442,10.442,0,0,0,229.695,118.688Z" transform="translate(-221.563 -118.678)" fill="#422c4f"/>
          </g>
          <g id="Grupo_23032" data-name="Grupo 23032" transform="translate(61.719 35.037)">
            <path id="Trazado_4059" data-name="Trazado 4059" d="M265.709,118.688a10.443,10.443,0,0,1,8.133,4.5l-16.632-.741A10.442,10.442,0,0,1,265.709,118.688Z" transform="translate(-257.209 -118.678)" fill="#422c4f"/>
          </g>
          <path id="Trazado_4060" data-name="Trazado 4060" d="M253.638,151.221H243.583a14.954,14.954,0,0,0,2.536,1.842,5.21,5.21,0,0,0,3.05.755C250.8,153.651,252.421,152.326,253.638,151.221Z" transform="translate(-192.54 -90.687)" fill="#a64f5a"/>
          <path id="Trazado_4061" data-name="Trazado 4061" d="M254.077,167.337h-8.526a6.97,6.97,0,0,0,4.208,1.641A7.284,7.284,0,0,0,254.077,167.337Z" transform="translate(-192.966 -94.176)" fill="#a64f5a"/>
          <path id="Trazado_4062" data-name="Trazado 4062" d="M232.251,130.421a2.726,2.726,0,0,0-1.956.825,31.174,31.174,0,0,1-3.081-1.438,6.129,6.129,0,0,0,2.371,2.746,2.737,2.737,0,1,0,2.666-2.133Z" transform="translate(-188.995 -86.05)" fill="#422c4f"/>
          <path id="Trazado_4063" data-name="Trazado 4063" d="M265.6,130.421a2.726,2.726,0,0,1,1.956.825,31.177,31.177,0,0,0,3.081-1.438,6.129,6.129,0,0,1-2.371,2.746,2.736,2.736,0,1,1-2.666-2.133Z" transform="translate(-196.714 -86.05)" fill="#422c4f"/>
          <path id="Trazado_4064" data-name="Trazado 4064" d="M257.283,155.888a25.33,25.33,0,0,1-20.184.434c2.381,3.547,6.113,6.164,9.909,6.148S254.921,159.454,257.283,155.888Z" transform="translate(-191.136 -91.697)" fill="#fff"/>
          <path id="Trazado_4065" data-name="Trazado 4065" d="M269.077,86.247c-6.334-8.652-17.836-12.634-28.552-12.266-10.717-.367-22.219,3.614-28.553,12.266-5.289,7.224-6.481,16.811-5.169,25.668s5.377,17.808,8.92,26.032l-3.886-22.012c3.765-4.231,2.785-10.97,5.68-15.838,2.127-3.578,6.15-5.7,10.238-6.483a46.794,46.794,0,0,1,12.77-.2,46.788,46.788,0,0,1,12.769.2c4.088.785,8.11,2.905,10.238,6.483,2.894,4.868,1.915,11.607,5.679,15.838l-3.886,22.012c3.543-8.224,7.608-17.175,8.921-26.032S274.367,93.471,269.077,86.247Z" transform="translate(-184.47 -73.957)" fill="#422c4f"/>
        </g>
        <g id="Grupo_23044" data-name="Grupo 23044" transform="translate(51.622 97.75)">
          <g id="Grupo_23034" data-name="Grupo 23034" transform="translate(44.924 1.284)">
            <path id="Trazado_4066" data-name="Trazado 4066" d="M271.375,204.7a.176.176,0,0,1-.118-.306,23.858,23.858,0,0,0,3.529-3.96.175.175,0,0,1,.287.2,24.1,24.1,0,0,1-3.581,4.02A.176.176,0,0,1,271.375,204.7Z" transform="translate(-271.2 -200.361)" fill="#422c4f"/>
          </g>
          <g id="Grupo_23035" data-name="Grupo 23035" transform="translate(40.518 7.015)">
            <path id="Trazado_4067" data-name="Trazado 4067" d="M265.752,209.463a.176.176,0,0,1-.087-.328,25.57,25.57,0,0,0,2.225-1.426.174.174,0,0,1,.244.041.176.176,0,0,1-.04.245,25.849,25.849,0,0,1-2.256,1.446A.174.174,0,0,1,265.752,209.463Z" transform="translate(-265.576 -207.676)" fill="#422c4f"/>
          </g>
          <g id="Grupo_23036" data-name="Grupo 23036" transform="translate(15.523 8.219)">
            <path id="Trazado_4068" data-name="Trazado 4068" d="M246.477,213.129q-.356,0-.71-.011a25.046,25.046,0,0,1-12.008-3.578.176.176,0,0,1,.179-.3,24.062,24.062,0,0,0,21.56,1.794.176.176,0,0,1,.129.327A25.078,25.078,0,0,1,246.477,213.129Z" transform="translate(-233.673 -209.212)" fill="#422c4f"/>
          </g>
          <g id="Grupo_23037" data-name="Grupo 23037" transform="translate(7.107)">
            <path id="Trazado_4069" data-name="Trazado 4069" d="M227.683,204.487a.175.175,0,0,1-.117-.044,24.351,24.351,0,0,1-4.608-5.453.176.176,0,1,1,.3-.184,24.011,24.011,0,0,0,4.542,5.374.176.176,0,0,1-.116.307Z" transform="translate(-222.932 -198.723)" fill="#422c4f"/>
          </g>
          <g id="Grupo_23038" data-name="Grupo 23038" transform="translate(42.015 7.309)">
            <path id="Trazado_4070" data-name="Trazado 4070" d="M267.662,222.659a.176.176,0,0,1-.127-.3,33.131,33.131,0,0,0,8.034-14.182.176.176,0,0,1,.339.092,33.491,33.491,0,0,1-8.119,14.332A.175.175,0,0,1,267.662,222.659Z" transform="translate(-267.487 -208.052)" fill="#422c4f"/>
          </g>
          <g id="Grupo_23039" data-name="Grupo 23039" transform="translate(7.199 10.292)">
            <path id="Trazado_4071" data-name="Trazado 4071" d="M225.164,216.992a.178.178,0,0,1-.156-.094,25.829,25.829,0,0,1-1.952-4.813.176.176,0,1,1,.337-.1,25.547,25.547,0,0,0,1.926,4.749.175.175,0,0,1-.074.237A.17.17,0,0,1,225.164,216.992Z" transform="translate(-223.049 -211.859)" fill="#422c4f"/>
          </g>
          <g id="Grupo_23040" data-name="Grupo 23040" transform="translate(0 91.147)">
            <path id="Trazado_4072" data-name="Trazado 4072" d="M227.774,323.449a.176.176,0,0,1-.011-.351c12.127-.7,24.768-3.9,36.742-7.391a234.717,234.717,0,0,1-50.484.957.176.176,0,0,1-.16-.19.171.171,0,0,1,.191-.16,234.276,234.276,0,0,0,52.663-1.254.176.176,0,0,1,.074.342c-12.634,3.738-26.1,7.3-39.005,8.047Z" transform="translate(-213.86 -315.059)" fill="#422c4f"/>
          </g>
          <g id="Grupo_23041" data-name="Grupo 23041" transform="translate(1.014 106.589)">
            <path id="Trazado_4073" data-name="Trazado 4073" d="M254.271,339.841a163.266,163.266,0,0,1-38.983-4.726.176.176,0,0,1,.084-.342,162.849,162.849,0,0,0,54.825,3.939.17.17,0,0,1,.192.158.175.175,0,0,1-.158.192Q262.25,339.842,254.271,339.841Z" transform="translate(-215.154 -334.769)" fill="#422c4f"/>
          </g>
          <g id="Grupo_23042" data-name="Grupo 23042" transform="translate(7.846 111.821)">
            <path id="Trazado_4074" data-name="Trazado 4074" d="M256.149,347.46a93.872,93.872,0,0,1-32.158-5.672.175.175,0,1,1,.121-.329,93.567,93.567,0,0,0,44.255,4.843.176.176,0,0,1,.047.349A93.088,93.088,0,0,1,256.149,347.46Z" transform="translate(-223.875 -341.448)" fill="#422c4f"/>
          </g>
          <g id="Grupo_23043" data-name="Grupo 23043" transform="translate(6.165 117.102)">
            <path id="Trazado_4075" data-name="Trazado 4075" d="M265.654,362.953A74.172,74.172,0,0,1,221.8,348.5a.176.176,0,1,1,.21-.281,73.673,73.673,0,0,0,49.425,14.142.171.171,0,0,1,.19.161.175.175,0,0,1-.161.189Q268.567,362.955,265.654,362.953Z" transform="translate(-221.729 -348.187)" fill="#422c4f"/>
          </g>
        </g>
      </g>
      <g id="Grupo_23046" data-name="Grupo 23046" transform="translate(0 314.635)">
        <path id="Trazado_4076" data-name="Trazado 4076" d="M151.813,476.4h0a.853.853,0,0,0-.852-.853H59.069a.854.854,0,0,0-.853.853h0a.854.854,0,0,0,.853.853H75.061a.853.853,0,0,1,.853.853h0a.853.853,0,0,1-.853.852h-3.4a.853.853,0,0,0-.852.853h0a.853.853,0,0,0,.852.853h72.7a.853.853,0,0,0,.853-.853h0a.853.853,0,0,0-.853-.853H110.583a.852.852,0,0,1-.852-.852h0a.852.852,0,0,1,.852-.853H150.96A.853.853,0,0,0,151.813,476.4Z" transform="translate(-58.216 -475.547)" fill="#00348d"/>
        <path id="Trazado_4077" data-name="Trazado 4077" d="M66.123,481.608h2.769a.854.854,0,0,0,.853-.853h0a.854.854,0,0,0-.853-.853H66.123a.854.854,0,0,0-.853.853h0A.854.854,0,0,0,66.123,481.608Z" transform="translate(-59.743 -476.49)" fill="#00348d"/>
      </g>
      <g id="Grupo_23047" data-name="Grupo 23047" transform="translate(220.88 314.635)">
        <path id="Trazado_4078" data-name="Trazado 4078" d="M433.737,476.4h0a.854.854,0,0,0-.853-.853H340.992a.853.853,0,0,0-.852.853h0a.853.853,0,0,0,.852.853h15.993a.852.852,0,0,1,.852.853h0a.852.852,0,0,1-.852.852h-3.4a.854.854,0,0,0-.853.853h0a.854.854,0,0,0,.853.853h72.7a.854.854,0,0,0,.853-.853h0a.854.854,0,0,0-.853-.853H392.507a.853.853,0,0,1-.853-.852h0a.853.853,0,0,1,.853-.853h40.376A.854.854,0,0,0,433.737,476.4Z" transform="translate(-340.14 -475.547)" fill="#00348d"/>
        <path id="Trazado_4079" data-name="Trazado 4079" d="M348.046,481.608h2.77a.853.853,0,0,0,.852-.853h0a.853.853,0,0,0-.852-.853h-2.77a.853.853,0,0,0-.852.853h0A.853.853,0,0,0,348.046,481.608Z" transform="translate(-341.667 -476.49)" fill="#7dd3e9"/>
      </g>
      <g id="Grupo_23070" data-name="Grupo 23070" transform="translate(168.808 72.138)">
        <g id="Grupo_23051" data-name="Grupo 23051" transform="translate(61.497)">
          <path id="Trazado_4080" data-name="Trazado 4080" d="M371.18,201.392a7.66,7.66,0,0,1-7.109-1.445,12.629,12.629,0,0,1-3.989-6.3,37.655,37.655,0,0,1-1.218-7.459c-.281-2.962-.5-6.184,1.12-8.679,1.438-2.209,4.039-3.361,6.58-4.062,2.7-.747,5.647-1.105,8.277-.129,3.406,1.265,5.7,4.6,6.667,8.105s.8,7.2.628,10.833q-.18,3.8-.36,7.6l1.116,4.939-10.629,1.552Z" transform="translate(-353.577 -167.481)" fill="#eba58e"/>
          <path id="Trazado_4081" data-name="Trazado 4081" d="M373.22,214.566l.711-3.6,12.728-1.757.868,3.268Z" transform="translate(-356.728 -175.381)" fill="#7dd3e9"/>
          <path id="Trazado_4082" data-name="Trazado 4082" d="M379.816,174.358a6.529,6.529,0,0,0-6-6.171c-2.287-.107-4.521,1.029-6.8.78-2.7-.3-4.889-2.469-7.574-2.874a6.58,6.58,0,0,0-6.866,4.189,7.5,7.5,0,0,0,2.063,7.936,9.13,9.13,0,0,0,8.347,1.767,6.14,6.14,0,0,0,2.364,5.766,6.889,6.889,0,0,0,1.639,6.379,6.279,6.279,0,0,1,1.573-4.564,2.6,2.6,0,0,1,3.164-.353,3.069,3.069,0,0,1,1.091,2.172,5.72,5.72,0,0,1-3.979,6.131c2.861,2.645,7.7,3.6,11.527,2.889,2.495-.463,3.772-3.732,4.541-6.149a38.474,38.474,0,0,0,1.352-7.475,21.168,21.168,0,0,0,.164-4.666,7.293,7.293,0,0,0-1.786-4.235A5.649,5.649,0,0,0,379.816,174.358Z" transform="translate(-352.17 -166.032)" fill="#6a3649"/>
          <g id="Grupo_23050" data-name="Grupo 23050" transform="translate(15.711 21.996)">
            <g id="Grupo_23048" data-name="Grupo 23048">
              <path id="Trazado_4083" data-name="Trazado 4083" d="M372.981,200.014a.644.644,0,0,1-.215-.036c-.209-.076-.47-.3-.523-.924a6.257,6.257,0,0,1,1.183-4.177,1.564,1.564,0,0,1,1.149-.769,1.254,1.254,0,0,1,1.108.71,3.438,3.438,0,0,1,.317,1.208.176.176,0,1,1-.349.046,3.112,3.112,0,0,0-.277-1.086.951.951,0,0,0-.762-.527h-.023a1.252,1.252,0,0,0-.879.626,5.9,5.9,0,0,0-1.116,3.939c.02.244.088.55.293.624a.4.4,0,0,0,.366-.093,1.009,1.009,0,0,0,.262-.413,2.593,2.593,0,0,0,.077-1.674.176.176,0,0,1,.338-.1,2.952,2.952,0,0,1-.088,1.9,1.377,1.377,0,0,1-.36.552A.78.78,0,0,1,372.981,200.014Z" transform="translate(-372.223 -194.106)" fill="#422c4f"/>
            </g>
            <g id="Grupo_23049" data-name="Grupo 23049" transform="translate(0.56 1.397)">
              <path id="Trazado_4084" data-name="Trazado 4084" d="M373.113,196.567a.17.17,0,0,1-.136-.066.175.175,0,0,1,.026-.247,1.725,1.725,0,0,1,1.843-.176.176.176,0,0,1-.165.31,1.364,1.364,0,0,0-1.457.139A.173.173,0,0,1,373.113,196.567Z" transform="translate(-372.938 -195.89)" fill="#422c4f"/>
            </g>
          </g>
        </g>
        <g id="Grupo_23054" data-name="Grupo 23054" transform="translate(0 42.841)">
          <g id="Grupo_23052" data-name="Grupo 23052">
            <path id="Trazado_4085" data-name="Trazado 4085" d="M293.735,233.53c0-6.339-3.6-11.59-8.335-12.621v-.2h-1.694c-5.538,0-10.029,5.738-10.029,12.817s4.491,12.818,10.029,12.818H285.4v-.2C290.131,245.12,293.735,239.87,293.735,233.53Z" transform="translate(-273.677 -220.713)" fill="#99a3b0"/>
            <ellipse id="Elipse_1304" data-name="Elipse 1304" cx="10.029" cy="12.817" rx="10.029" ry="12.817" transform="translate(1.694)" fill="#c7d2d7"/>
          </g>
          <g id="Grupo_23053" data-name="Grupo 23053" transform="translate(8.231 5.109)">
            <path id="Trazado_4086" data-name="Trazado 4086" d="M301.023,234.942c0-3.812-2.168-6.97-5.013-7.59v-.118h-5.8c-3.331,0-6.031,3.451-6.031,7.708s2.7,7.708,6.031,7.708h5.8v-.118C298.855,241.912,301.023,238.754,301.023,234.942Z" transform="translate(-284.183 -227.234)" fill="#99a3b0"/>
            <ellipse id="Elipse_1305" data-name="Elipse 1305" cx="6.031" cy="7.708" rx="6.031" ry="7.708" transform="translate(5.796 0)" fill="#c7d2d7"/>
          </g>
        </g>
        <g id="Grupo_23056" data-name="Grupo 23056" transform="translate(17.486 24.07)">
          <g id="Grupo_23055" data-name="Grupo 23055" transform="translate(0 0.638)">
            <path id="Trazado_4087" data-name="Trazado 4087" d="M296.039,231.564c4.292,12.189,4.547,25.472,9.55,37.438,3.62,8.656,10.46,17.067,20.105,19.01,8.958,1.805,18.229-2.632,20.974-11.6,1.659-5.424,1.249-11.307,1.3-16.906.055-6.012.2-12.025.558-18.027.879-14.589,3.026-29.308,8.82-42.828.352-.823-.858-1.54-1.214-.71-8.367,19.52-9.4,41.2-9.575,62.154-.045,5.45.363,11.246-1.41,16.486a15.585,15.585,0,0,1-13.818,10.366c-11.114.94-19.747-7.989-23.977-17.378-5.469-12.143-5.561-25.883-9.959-38.375-.3-.848-1.656-.483-1.355.374Z" transform="translate(-295.996 -197.568)" fill="#454f6b"/>
          </g>
          <circle id="Elipse_1306" data-name="Elipse 1306" cx="1.318" cy="1.318" r="1.318" transform="translate(59.558)" fill="#797c99"/>
        </g>
        <g id="Grupo_23058" data-name="Grupo 23058" transform="translate(81.028 118.215)">
          <path id="Trazado_4088" data-name="Trazado 4088" d="M405.743,330.011l-1.165,102.93h18.9l7.746-116.023Z" transform="translate(-383.048 -316.918)" fill="#454f6b"/>
          <path id="Trazado_4089" data-name="Trazado 4089" d="M409.284,328.358l-1.307,20.3-1.912.262v33.122l6.951-30.059a96.993,96.993,0,0,0,16.535-3.994l2-31.072Z" transform="translate(-383.37 -316.918)" fill="#422c4f"/>
          <path id="Trazado_4090" data-name="Trazado 4090" d="M378.263,330.011,377.1,432.941H396l7.746-116.023Z" transform="translate(-377.098 -316.918)" fill="#454f6b"/>
          <path id="Trazado_4091" data-name="Trazado 4091" d="M378.585,330.011v17.361c6.387,3.772,14.027,5.294,21.53,5.17q.836-.013,1.666-.055l1.553-24.129.736-11.44Z" transform="translate(-377.42 -316.918)" fill="#422c4f"/>
          <g id="Grupo_23057" data-name="Grupo 23057" transform="translate(19.052 41.961)">
            <path id="Trazado_4092" data-name="Trazado 4092" d="M401.591,439.694h-.011a.173.173,0,0,1-.164-.186l4.711-68.865a.169.169,0,0,1,.187-.164.174.174,0,0,1,.164.186l-4.711,68.865A.175.175,0,0,1,401.591,439.694Z" transform="translate(-401.415 -370.475)" fill="#422c4f"/>
          </g>
        </g>
        <g id="Grupo_23069" data-name="Grupo 23069" transform="translate(14.2 36.616)">
          <g id="Grupo_23059" data-name="Grupo 23059" transform="translate(0 11.319)">
            <path id="Trazado_4093" data-name="Trazado 4093" d="M310.234,241.979l-3.045-1.113-4.088-8.631a6.211,6.211,0,0,0-1.878-2.3l-3.351-2.523a.964.964,0,0,0-1.229.057h0a.965.965,0,0,0-.081,1.346l3.541,4.09-6.5-2.506a1.021,1.021,0,0,0-1.316.573h0a1.021,1.021,0,0,0,.437,1.263l6.028,3.482-5.7-.541a1.145,1.145,0,0,0-1.243.983h0a1.145,1.145,0,0,0,.859,1.269l5.851,1.45-4.77.415a.961.961,0,0,0-.866,1.108h0a.96.96,0,0,0,.961.809l4.089-.049c.645,4.685,5.27,5.739,5.27,5.739l4.685,2.4Z" transform="translate(-291.801 -227.214)" fill="#eba58e"/>
            <path id="Trazado_4094" data-name="Trazado 4094" d="M313.508,245.838l-2.19-.8c-3.359,1.371-4.026,4.372-4.4,5.946l4.242,2.174Z" transform="translate(-295.075 -231.074)" fill="#e78882"/>
          </g>
          <path id="Trazado_4095" data-name="Trazado 4095" d="M388.861,219.8a12.575,12.575,0,0,0-13.115-6.9l-19.8,2.892a15.184,15.184,0,0,0-11.3,8.065l-11.96,23.192-20.262-9.838a12.185,12.185,0,0,0-4.451,11.127l21.9,12.019a10.568,10.568,0,0,0,14.346-4.172l6.507-11.829c13.878,16.455,12.3,66.877,10.716,76.364,10.315,4.637,23.687,4.278,33.83,2.96l2.562-22.467a125.444,125.444,0,0,1,1.71,21.832,104.535,104.535,0,0,0,10.738-2.325C416.425,268.656,396.334,235.048,388.861,219.8Z" transform="translate(-295.275 -212.767)" fill="#fff"/>
          <g id="Grupo_23060" data-name="Grupo 23060" transform="translate(12.571 23.483)">
            <path id="Trazado_4096" data-name="Trazado 4096" d="M350.858,246.434l-8.016,13.979a9.365,9.365,0,0,1-12.777,3.468L308.017,251.26a10.616,10.616,0,0,0-.048,3.568l21.9,12.019a10.568,10.568,0,0,0,14.346-4.172l6.507-11.829,4.457-8.1A8.46,8.46,0,0,0,350.858,246.434Z" transform="translate(-307.846 -242.741)" fill="#e4e4e0"/>
            <path id="Trazado_4097" data-name="Trazado 4097" d="M369.813,258.013a41.36,41.36,0,0,0,17.854,6.72,52.777,52.777,0,0,1-21.151-13.948,16.767,16.767,0,0,0,.51-8.044l-4.457,8.1c7.16,8.491,10.206,26.022,11.259,42.308A55.553,55.553,0,0,0,369.813,258.013Z" transform="translate(-319.695 -242.741)" fill="#e4e4e0"/>
          </g>
          <g id="Grupo_23061" data-name="Grupo 23061" transform="translate(48.762 21.17)">
            <path id="Trazado_4098" data-name="Trazado 4098" d="M354.215,262.21a.173.173,0,0,1-.085-.022.175.175,0,0,1-.07-.238L366.2,239.879a.175.175,0,1,1,.307.169l-12.138,22.071A.174.174,0,0,1,354.215,262.21Z" transform="translate(-354.04 -239.788)" fill="#422c4f"/>
          </g>
          <g id="Grupo_23062" data-name="Grupo 23062" transform="translate(80.299 5.747)">
            <path id="Trazado_4099" data-name="Trazado 4099" d="M405.281,248.541a.175.175,0,0,1-.17-.133,123.058,123.058,0,0,0-10.8-28.047.176.176,0,0,1,.31-.165,123.369,123.369,0,0,1,10.829,28.127.175.175,0,0,1-.127.213A.166.166,0,0,1,405.281,248.541Z" transform="translate(-394.291 -220.103)" fill="#422c4f"/>
          </g>
          <g id="Grupo_23063" data-name="Grupo 23063" transform="translate(35.214 22.892)">
            <path id="Trazado_4100" data-name="Trazado 4100" d="M336.923,257.462a.176.176,0,0,1-.157-.256l7.8-15.124a.176.176,0,0,1,.313.161l-7.8,15.124A.178.178,0,0,1,336.923,257.462Z" transform="translate(-336.747 -241.986)" fill="#422c4f"/>
          </g>
          <g id="Grupo_23064" data-name="Grupo 23064" transform="translate(70.095 105.202)">
            <path id="Trazado_4101" data-name="Trazado 4101" d="M399.173,349.961a62.554,62.554,0,0,1-17.78-2.572.176.176,0,1,1,.1-.337,62.178,62.178,0,0,0,25.413,2.071.173.173,0,0,1,.2.152.175.175,0,0,1-.152.2A61.576,61.576,0,0,1,399.173,349.961Z" transform="translate(-381.267 -347.043)" fill="#422c4f"/>
          </g>
          <g id="Grupo_23065" data-name="Grupo 23065" transform="translate(98.065 86.531)">
            <path id="Trazado_4102" data-name="Trazado 4102" d="M417.143,341.3l-.025,0a.175.175,0,0,1-.148-.2l2.618-17.734a.176.176,0,0,1,.348.051l-2.619,17.734A.176.176,0,0,1,417.143,341.3Z" transform="translate(-416.967 -323.213)" fill="#422c4f"/>
          </g>
          <g id="Grupo_23066" data-name="Grupo 23066" transform="translate(104.455 88.425)">
            <path id="Trazado_4103" data-name="Trazado 4103" d="M426.862,332.073a.175.175,0,0,1-.172-.143,51.43,51.43,0,0,0-1.558-6.07.177.177,0,0,1,.114-.222.178.178,0,0,1,.222.113,51.805,51.805,0,0,1,1.567,6.113.174.174,0,0,1-.139.205A.154.154,0,0,1,426.862,332.073Z" transform="translate(-425.123 -325.63)" fill="#422c4f"/>
          </g>
          <g id="Grupo_23067" data-name="Grupo 23067" transform="translate(107.194 105.045)">
            <path id="Trazado_4104" data-name="Trazado 4104" d="M428.8,348.228a.176.176,0,0,1-.034-.348l5.169-1.034a.176.176,0,1,1,.069.345l-5.169,1.033A.182.182,0,0,1,428.8,348.228Z" transform="translate(-428.62 -346.843)" fill="#422c4f"/>
          </g>
          <path id="Trazado_4105" data-name="Trazado 4105" d="M399.836,268.3a30.5,30.5,0,0,1-.942,8.227c14.582-1.406,21.128-6.584,21.128-6.584Z" transform="translate(-314.989 -224.791)" fill="#e4e4e0"/>
          <g id="Grupo_23068" data-name="Grupo 23068" transform="translate(84.671 42.279)">
            <path id="Trazado_4106" data-name="Trazado 4106" d="M420.072,267.716a9.562,9.562,0,0,1,.211,1.934,138.836,138.836,0,0,1-19.206,5,23.655,23.655,0,0,0-.98-6.645q2.141-.543,4.292-1.052" transform="translate(-399.92 -266.779)" fill="#fff"/>
            <path id="Trazado_4107" data-name="Trazado 4107" d="M401.028,274.78a.18.18,0,0,1-.111-.039.177.177,0,0,1-.065-.136,23.513,23.513,0,0,0-.972-6.594.174.174,0,0,1,.015-.138.17.17,0,0,1,.11-.084c1.418-.36,2.864-.714,4.294-1.053a.173.173,0,0,1,.212.13.175.175,0,0,1-.13.212c-1.369.324-2.752.662-4.111,1.006a24,24,0,0,1,.932,6.306,137.91,137.91,0,0,0,18.855-4.912,9.465,9.465,0,0,0-.205-1.775.176.176,0,1,1,.344-.071,9.685,9.685,0,0,1,.214,1.97.176.176,0,0,1-.117.165,138.747,138.747,0,0,1-19.23,5.009A.162.162,0,0,1,401.028,274.78Zm19.2-5.179h0Z" transform="translate(-399.872 -266.73)" fill="#422c4f"/>
          </g>
        </g>
        <path id="Trazado_4108" data-name="Trazado 4108" d="M381.273,473.265h7.476l-1.974-8.259H376.017c-7.737,1.7-15.767,8.259-15.767,8.259h17.5l3.523-2.122Z" transform="translate(-292.422 -230.768)" fill="#422c4f"/>
        <path id="Trazado_4109" data-name="Trazado 4109" d="M410.712,473.265h7.476l-1.974-8.259H405.456c-7.737,1.7-15.767,8.259-15.767,8.259h17.5l3.522-2.122Z" transform="translate(-298.797 -230.768)" fill="#422c4f"/>
      </g>
      <g id="Grupo_23083" data-name="Grupo 23083" transform="translate(6.643 57.935)">
        <g id="Grupo_23072" data-name="Grupo 23072" transform="translate(36.337 27.95)">
          <path id="Trazado_4110" data-name="Trazado 4110" d="M113.074,223.495l16.651-39.917,25.587,7.14-16.651,39.917Z" transform="translate(-113.074 -183.578)" fill="#a64f5a"/>
          <path id="Trazado_4111" data-name="Trazado 4111" d="M117.948,222.575l14.47-34.689,20.13,5.617-14.47,34.69Z" transform="translate(-114.129 -184.511)" fill="#fbeed1"/>
          <g id="Grupo_23071" data-name="Grupo 23071" transform="translate(23.213 0.419)">
            <path id="Trazado_4112" data-name="Trazado 4112" d="M152.932,192.427l.878-5.358-10.23-2.956-.878,5.358Z" transform="translate(-142.702 -184.113)" fill="#c7d2d7"/>
            <path id="Trazado_4113" data-name="Trazado 4113" d="M156.814,187.886l1.116,1.867-1.36-.379Z" transform="translate(-145.705 -184.93)" fill="#99a3b0"/>
          </g>
          <path id="Trazado_4114" data-name="Trazado 4114" d="M142.7,190.65l10.231,2.956.484-2.956-.2.325a2.109,2.109,0,0,1-2.373.9l-7.958-2.318Z" transform="translate(-119.489 -184.872)" fill="#99a3b0"/>
        </g>
        <g id="Grupo_23073" data-name="Grupo 23073" transform="translate(5.539 132.419)">
          <path id="Trazado_4115" data-name="Trazado 4115" d="M96.012,330.011V430.754h-16.5L73.764,316.918Z" transform="translate(-73.764 -316.918)" fill="#454f6b"/>
          <path id="Trazado_4116" data-name="Trazado 4116" d="M93.2,328.358l1.141,20.3,1.67.262v33.122l-4.665-23.107c-4.9-.77-10.68-1.622-15.412-3.371l-2.172-38.646Z" transform="translate(-73.764 -316.918)" fill="#422c4f"/>
          <path id="Trazado_4117" data-name="Trazado 4117" d="M124.51,330.011V430.754H107.932l-5.771-113.836Z" transform="translate(-79.913 -316.918)" fill="#454f6b"/>
          <path id="Trazado_4118" data-name="Trazado 4118" d="M124.51,330.011v24.629c-5.6,3.771-11.972,4.8-18.553,4.674q-.732-.014-1.461-.056l-1.69-30.9-.646-11.44Z" transform="translate(-79.913 -316.918)" fill="#422c4f"/>
        </g>
        <path id="Trazado_4119" data-name="Trazado 4119" d="M119.5,233.117q.319-.5.638-1.007a13.687,13.687,0,0,0,1.214-12.249c-2.506-6.5-5.628-13.3-7.5-19.5h-26.7c-5.68,2.894-8.823,10.065-9.425,16.412s.475,12.742.194,19.112c-.434,9.854-4.079,19.233-6.644,28.757a134.13,134.13,0,0,0-2.223,59.824,81.744,81.744,0,0,0,11.015,3.173l3.394-18.509,3.292,19.65a73.442,73.442,0,0,0,33.8-3.446c1.058-27.675.473-55.361-3.147-82.8A14.189,14.189,0,0,1,119.5,233.117Z" transform="translate(-66.695 -159.262)" fill="#fff"/>
        <path id="Trazado_4120" data-name="Trazado 4120" d="M155.694,218.477l.834-3.074-1.967-2.107a3.536,3.536,0,0,1-.739-1.208l-1.365-3.777a1.046,1.046,0,0,1,.4-1.225h0a1.045,1.045,0,0,1,1.371.187l3,3.474,3.206-7.687.5.746a5.034,5.034,0,0,1,.859,2.812h0l1.724,3.415a2.826,2.826,0,0,1,.176,2.113l-3,9.624Z" transform="translate(-85.251 -159.846)" fill="#f0bf9c"/>
        <path id="Trazado_4121" data-name="Trazado 4121" d="M110.782,190.46l.351-6.07c3.074,0,5.88-2.606,6.922-5.5a10.758,10.758,0,0,0,.119-6.189,32.1,32.1,0,0,0-2.284-5.841l-3.783-8.078c-1.514-3.232-5.914-4.343-9.477-4.13a10.869,10.869,0,0,0-8.752,5.357c-1.715,3.082-1.67,6.9-.664,10.28a39.915,39.915,0,0,0,4.742,9.423l3.121,5.037-.6,5.709Z" transform="translate(-72.285 -149.359)" fill="#f0bf9c"/>
        <g id="Grupo_23074" data-name="Grupo 23074" transform="translate(21.22 55.87)">
          <path id="Trazado_4122" data-name="Trazado 4122" d="M94.816,249.649a.175.175,0,0,0,.112-.184,123.118,123.118,0,0,1,.254-30.053.176.176,0,0,0-.349-.045A123.424,123.424,0,0,0,94.58,249.5a.175.175,0,0,0,.194.154A.153.153,0,0,0,94.816,249.649Z" transform="translate(-93.779 -219.213)" fill="#422c4f"/>
        </g>
        <g id="Grupo_23075" data-name="Grupo 23075" transform="translate(23.299 164.22)">
          <path id="Trazado_4123" data-name="Trazado 4123" d="M104.364,360.426a62.516,62.516,0,0,0,17.779-2.573.175.175,0,0,0-.1-.336,62.194,62.194,0,0,1-25.414,2.071.172.172,0,0,0-.2.152.174.174,0,0,0,.152.2A61.567,61.567,0,0,0,104.364,360.426Z" transform="translate(-96.433 -357.508)" fill="#422c4f"/>
        </g>
        <g id="Grupo_23076" data-name="Grupo 23076" transform="translate(18.196 145.549)">
          <path id="Trazado_4124" data-name="Trazado 4124" d="M92.714,351.763l.026,0a.175.175,0,0,0,.148-.2l-2.619-17.733a.174.174,0,0,0-.2-.149.176.176,0,0,0-.148.2l2.619,17.734A.175.175,0,0,0,92.714,351.763Z" transform="translate(-89.92 -333.677)" fill="#422c4f"/>
        </g>
        <g id="Grupo_23077" data-name="Grupo 23077" transform="translate(12.862 147.443)">
          <path id="Trazado_4125" data-name="Trazado 4125" d="M83.287,342.537a.175.175,0,0,0,.172-.143,51.581,51.581,0,0,1,1.558-6.071.176.176,0,1,0-.335-.108,51.826,51.826,0,0,0-1.568,6.113.175.175,0,0,0,.139.205A.118.118,0,0,0,83.287,342.537Z" transform="translate(-83.111 -336.095)" fill="#422c4f"/>
        </g>
        <g id="Grupo_23078" data-name="Grupo 23078" transform="translate(6.515 164.063)">
          <path id="Trazado_4126" data-name="Trazado 4126" d="M80.356,358.692a.176.176,0,0,0,.034-.348l-5.169-1.034a.176.176,0,0,0-.069.345l5.169,1.034A.177.177,0,0,0,80.356,358.692Z" transform="translate(-75.011 -357.307)" fill="#422c4f"/>
        </g>
        <path id="Trazado_4127" data-name="Trazado 4127" d="M104.711,265.385a30.525,30.525,0,0,0,2.3,7.954c-14.612,1.049-21.93-2.963-21.93-2.963Z" transform="translate(-70.676 -173.341)" fill="#e4e4e0"/>
        <g id="Grupo_23079" data-name="Grupo 23079" transform="translate(14.108 91.548)">
          <path id="Trazado_4128" data-name="Trazado 4128" d="M84.933,268.345a9.565,9.565,0,0,0,.116,1.942,138.879,138.879,0,0,0,19.771,1.725,23.646,23.646,0,0,1-.143-6.716q-2.2-.177-4.408-.32" transform="translate(-84.75 -264.801)" fill="#fff"/>
          <path id="Trazado_4129" data-name="Trazado 4129" d="M104.766,272.139a138.7,138.7,0,0,1-19.8-1.728.174.174,0,0,1-.143-.143,9.692,9.692,0,0,1-.118-1.977.176.176,0,0,1,.351.013,9.456,9.456,0,0,0,.094,1.785,137.96,137.96,0,0,0,19.411,1.694,24,24,0,0,1-.134-6.373c-1.4-.112-2.817-.215-4.221-.306a.174.174,0,0,1-.164-.186.172.172,0,0,1,.186-.164c1.467.094,2.951.2,4.41.32a.174.174,0,0,1,.122.065.17.17,0,0,1,.037.133,23.572,23.572,0,0,0,.143,6.663.177.177,0,0,1-.041.145.18.18,0,0,1-.1.057ZM85,270.239h0Z" transform="translate(-84.701 -264.752)" fill="#422c4f"/>
        </g>
        <path id="Trazado_4130" data-name="Trazado 4130" d="M132.159,238.731l.261-.412h0l-7.262-12.029c-.078,2.946.352,6.2,2.057,8.6a11.674,11.674,0,0,1,1.837,2.933c.523,1.592.031,3.315-.382,4.939a34.8,34.8,0,0,0-.968,13.819,22.1,22.1,0,0,0,4.376,10.343q-.789-9.4-2.01-18.774A14.189,14.189,0,0,1,132.159,238.731Z" transform="translate(-79.352 -164.876)" fill="#e4e4e0"/>
        <path id="Trazado_4131" data-name="Trazado 4131" d="M125.636,200.362h0a8.124,8.124,0,0,1,7.419,4.813l10.184,22.819,4.975-11.688c4.887-.756,7.581,4.632,7.581,4.632L149.2,240.051a6.9,6.9,0,0,1-6.523,4.65h0a6.9,6.9,0,0,1-5.907-3.334l-13.535-22.42C117.262,207.821,125.636,200.362,125.636,200.362Z" transform="translate(-78.472 -159.262)" fill="#fff"/>
        <path id="Trazado_4132" data-name="Trazado 4132" d="M151.417,228.548l-2.205,5.288,1.606,3.6C152.105,234.1,151.417,228.548,151.417,228.548Z" transform="translate(-84.562 -165.365)" fill="#e4e4e0"/>
        <g id="Grupo_23082" data-name="Grupo 23082" transform="translate(44.588 56.866)">
          <g id="Grupo_23080" data-name="Grupo 23080" transform="translate(0 2.643)">
            <path id="Trazado_4133" data-name="Trazado 4133" d="M137.316,246.63a.174.174,0,0,1-.15-.085l-13.535-22.42a.176.176,0,0,1,.3-.181l13.535,22.42a.175.175,0,0,1-.15.266Z" transform="translate(-123.605 -223.86)" fill="#422c4f"/>
          </g>
          <g id="Grupo_23081" data-name="Grupo 23081" transform="translate(14.786)">
            <path id="Trazado_4134" data-name="Trazado 4134" d="M149.806,236.864a.176.176,0,0,1-.161-.1l-7.152-16.027a.176.176,0,1,1,.321-.143l7.152,16.027a.175.175,0,0,1-.089.232A.18.18,0,0,1,149.806,236.864Z" transform="translate(-142.478 -220.486)" fill="#422c4f"/>
          </g>
        </g>
        <path id="Trazado_4135" data-name="Trazado 4135" d="M113.491,157.262a11.906,11.906,0,0,0-7.275-8.566,14.076,14.076,0,0,0-10.669.582A17.583,17.583,0,0,0,85.434,164.97c.009,3.663,1.182,7.221,1.546,10.866a24.756,24.756,0,0,1-1.4,10.984c-1.457,3.948-3.9,7.452-5.69,11.259s-2.936,8.219-1.6,12.21a12.939,12.939,0,0,0,8.087,7.725,21.3,21.3,0,0,0,11.429.4c4.531-.958,9.188-3.256,11.1-7.474,1.186-2.62,1.149-5.606,1.091-8.482,0-6.826-.278-13.664-.417-20.489-.068-3.337-.374-6.767-.161-10.1.132-2.079,1.05-3.472,2.078-5.209A13.092,13.092,0,0,0,113.491,157.262Z" transform="translate(-69.078 -147.903)" fill="#6a3649"/>
        <path id="Trazado_4136" data-name="Trazado 4136" d="M122.779,472.66h12.964a8.43,8.43,0,0,0-4.452-3.991l-.355-.137a8.433,8.433,0,0,1-3.694-2.787l-2.664-3.531h-9.3a10.46,10.46,0,0,0,1.371,10.446h3.395v-3Z" transform="translate(-77.037 -215.96)" fill="#422c4f"/>
        <path id="Trazado_4137" data-name="Trazado 4137" d="M94.279,472.66h12.964a8.43,8.43,0,0,0-4.452-3.991l-.355-.137a8.432,8.432,0,0,1-3.694-2.787l-2.664-3.531h-9.3a10.46,10.46,0,0,0,1.371,10.446h3.395v-3Z" transform="translate(-70.866 -215.96)" fill="#422c4f"/>
      </g>
    </g>
  </g>
</svg>
