<svg xmlns="http://www.w3.org/2000/svg" width="536" height="82" viewBox="0 0 536 82">
  <g id="Grupo_23702" data-name="Grupo 23702" transform="translate(-231 -3221)">
    <g id="Grupo_23694" data-name="Grupo 23694" transform="translate(277.321 3183.592)">
      <circle id="Elipse_1330" data-name="Elipse 1330" cx="5.912" cy="5.912" r="5.912" transform="translate(78.564 51.4)" fill="#dd407b"/>
      <path id="Trazado_9428" data-name="Trazado 9428" d="M86.708,62h-4.6a5.267,5.267,0,0,0-5.255,4.729L75.8,76.713a1.759,1.759,0,0,0,1.051,1.839l2.5.92a.887.887,0,0,1,.525.788l1.314,16.684A1.714,1.714,0,0,0,82.9,98.52h2.759a1.629,1.629,0,0,0,1.708-1.576L88.679,80.26a.887.887,0,0,1,.525-.788l2.5-.92a1.611,1.611,0,0,0,1.051-1.839L91.7,66.729A4.772,4.772,0,0,0,86.708,62Z" transform="translate(0 3.325)" fill="#dd407b"/>
    </g>
    <g id="Grupo_23695" data-name="Grupo 23695" transform="translate(403.825 3212.491)">
      <circle id="Elipse_1331" data-name="Elipse 1331" cx="6.002" cy="6.002" r="6.002" transform="translate(29.004 22.5)" fill="#dd4c82"/>
      <circle id="Elipse_1332" data-name="Elipse 1332" cx="6.002" cy="6.002" r="6.002" transform="translate(59.014 22.5)" fill="#dd4c82"/>
      <path id="Trazado_9429" data-name="Trazado 9429" d="M75.92,39.5h0a3.009,3.009,0,0,0-2.8-2H56.913a2.877,2.877,0,0,0-2.8,2h0l-4.1,11.2-4.1-11.3h0a3.009,3.009,0,0,0-2.8-2H26.9a2.877,2.877,0,0,0-2.8,2h0L18.3,55.406a2.081,2.081,0,0,0,1.2,2.6,1.7,1.7,0,0,0,.7.1,2.051,2.051,0,0,0,1.9-1.3l4.4-12.2h0a1.013,1.013,0,1,1,1.9.7L22.2,62.409H29v11.6a2.5,2.5,0,1,0,5,0v-11.6h2v11.6a2.5,2.5,0,1,0,5,0v-11.6h6.8L41.608,45.3a1.013,1.013,0,1,1,1.9-.7h0l4.5,12.2a2.051,2.051,0,0,0,1.9,1.3h.4a2.051,2.051,0,0,0,1.9-1.3l4.4-12.2h0a1.23,1.23,0,0,1,1.1-.7,1.324,1.324,0,0,1,1.3,1.3v28.81a2.5,2.5,0,1,0,5,0v-9.1a1,1,0,1,1,2,0v9.1a2.5,2.5,0,1,0,5,0V45.2a1.324,1.324,0,0,1,1.3-1.3,1.23,1.23,0,0,1,1.1.7h0l4.6,12.2a2.051,2.051,0,0,0,1.9,1.3,1.7,1.7,0,0,0,.7-.1,2.041,2.041,0,0,0,1.2-2.6Z" transform="translate(0 0.005)" fill="#dd4c82"/>
    </g>
    <circle id="Elipse_1334" data-name="Elipse 1334" cx="6.36" cy="6.36" r="6.36" transform="translate(524.923 3229.063)" fill="#dd5789"/>
    <path id="Trazado_9431" data-name="Trazado 9431" d="M42.064,49.9h-6a6.885,6.885,0,0,0-6.841,6.12L27.9,69.1a2.257,2.257,0,0,0,1.44,2.4l3.24,1.32a1.045,1.045,0,0,1,.72.96l1.68,21.842a2.34,2.34,0,0,0,2.28,2.16h3.6a2.34,2.34,0,0,0,2.28-2.16l1.68-21.962a1.045,1.045,0,0,1,.72-.96l3.24-1.32a2.257,2.257,0,0,0,1.44-2.4L48.9,55.9A6.89,6.89,0,0,0,42.064,49.9Z" transform="translate(492.22 3193.804)" fill="#dd5789"/>
    <g id="Grupo_23697" data-name="Grupo 23697" transform="translate(686.38 3216.314)">
      <path id="Trazado_9432" data-name="Trazado 9432" d="M34.466,26.765c.024.115.048.278.128.323a.3.3,0,0,0,.407-.1,1.122,1.122,0,0,1,.267-.247.418.418,0,0,0,.178.015,1.16,1.16,0,0,0,.822-.57,3.106,3.106,0,0,0,.194-.364,3.05,3.05,0,0,0,.194.364,1.16,1.16,0,0,0,.822.57.417.417,0,0,0,.178-.015,1.1,1.1,0,0,1,.267.247.293.293,0,0,0,.406.1c.079-.044.1-.208.128-.323a1.182,1.182,0,0,0-.007-.281h0a6.8,6.8,0,0,0-.042-.9A1.338,1.338,0,0,0,37,24.5a3.77,3.77,0,0,0-.543.193,3.827,3.827,0,0,0-.543-.193,1.339,1.339,0,0,0-1.408,1.083,6.69,6.69,0,0,0-.042.9h0A1.4,1.4,0,0,0,34.466,26.765Z" transform="translate(-4.6 -3.494)" fill="#e02f72"/>
      <path id="Trazado_9433" data-name="Trazado 9433" d="M76.4,45.336a1.36,1.36,0,0,0,.207-1.2c0-.011,0-.018,0-.029-1.061-4.185-7.748-6.919-8.59-6.963a5.082,5.082,0,0,0-4.413-.013,15.572,15.572,0,0,0-7.619,4.929c-.122-.076-.278-.172-.474-.291-.242.419-.789,1.348-1.479,2.432.394.271.639.433.639.433a1.434,1.434,0,0,0,.577.214c.8.318,2.981-.714,3.9-1.282.32-.2.78-.5,1.269-.821a5.369,5.369,0,0,0,.788,2.3,7.8,7.8,0,0,1,.137,1.424,9.787,9.787,0,0,1-.419,2.582h0c-.064.117-.12.237-.176.359l-.009-.008a27.3,27.3,0,0,0-1.664,6.946h0c-.012.147-.026.3-.041.469-.018.182-.039.361-.053.547-.547,5.519-2.308,18.511-2.308,18.511a33.875,33.875,0,0,0,3.938.9c.341,2.973.918,5.6,1.895,5.6.934,0,1.5-2.405,1.848-5.216.924.039,1.8.032,2.613-.008.348,2.742.913,5.057,1.829,5.057.966,0,1.541-2.573,1.883-5.5a17.417,17.417,0,0,0,4.067-1.248S72.7,59.694,72.125,55.041a31.85,31.85,0,0,0-.825-4.07C72.929,50.224,76.4,45.336,76.4,45.336ZM65.145,38.7a.819.819,0,0,1-.306-1.579.981.981,0,0,0-.041.266,1,1,0,0,0,.987,1A.812.812,0,0,1,65.145,38.7Zm1.3,0a.815.815,0,0,1-.64-.315,1,1,0,0,0,.991-1,.97.97,0,0,0-.041-.265.819.819,0,0,1-.311,1.577Zm4.339,10.591a5.44,5.44,0,0,0-.3-.539,7.705,7.705,0,0,1-.346-2.278,7.611,7.611,0,0,1,.1-1.2,5.379,5.379,0,0,0,.931-2.511c.49.325.95.625,1.27.822a12.418,12.418,0,0,0,1.353.7A36.717,36.717,0,0,0,70.783,49.287Z" transform="translate(-10.422 -7.107)" fill="#e02f72"/>
      <path id="Trazado_9434" data-name="Trazado 9434" d="M69.734,19.312a5.108,5.108,0,0,1,2.131.467,2.205,2.205,0,0,0,.025-.306,2.155,2.155,0,1,0-4.31,0,2.1,2.1,0,0,0,.025.306A5.113,5.113,0,0,1,69.734,19.312Z" transform="translate(-14.454 -1.359)" fill="#e02f72"/>
      <path id="Trazado_9435" data-name="Trazado 9435" d="M44.575,38.386l1.473,6.478c.046.149.071.306.1.459.023.1.048.2.067.3.008.043.022.084.029.127l.025.111h-.008c.015.1.024.2.036.3,0,.032.008.064.011.1a6.077,6.077,0,0,1,.037.633c0,.016,0,.032,0,.047A57.042,57.042,0,0,1,49.284,40.7a13.393,13.393,0,0,1-1.426-.58C47.086,39.75,45.617,38.968,44.575,38.386Zm3.438,3.968c-1.494-1.208-2.778-2.462-2.44-2.983.006-.008.015-.013.02-.021.8.429,1.609.853,2.109,1.1.3.147.679.306,1.072.454C48.5,41.407,48.252,41.887,48.013,42.354Z" transform="translate(-7.61 -7.627)" fill="#e02f72"/>
      <path id="Trazado_9436" data-name="Trazado 9436" d="M35.475,32.357l.606-.209a.2.2,0,0,0,.1-.194v-.12a.2.2,0,0,0-.1-.194l-.606-.209c-.244-.084-.518.03-.518.288v.35C34.957,32.327,35.231,32.441,35.475,32.357Z" transform="translate(-4.748 -5.55)" fill="#e02f72"/>
      <circle id="Elipse_1335" data-name="Elipse 1335" cx="0.375" cy="0.375" r="0.375" transform="translate(31.483 25.969)" fill="#e02f72"/>
      <path id="Trazado_9437" data-name="Trazado 9437" d="M77.064,47.865a7.6,7.6,0,0,0-.1,1.2,7.682,7.682,0,0,0,.346,2.278,5.524,5.524,0,0,1,.3.539,36.549,36.549,0,0,1,3.013-5,12.672,12.672,0,0,1-1.353-.7c-.32-.2-.781-.5-1.27-.822A5.38,5.38,0,0,1,77.064,47.865Z" transform="translate(-17.244 -9.701)" fill="#e02f72"/>
      <path id="Trazado_9438" data-name="Trazado 9438" d="M38.628,32.357c.244.084.518-.03.518-.288v-.35c0-.258-.274-.372-.518-.288l-.606.209a.2.2,0,0,0-.1.194v.12a.2.2,0,0,0,.1.194Z" transform="translate(-5.631 -5.55)" fill="#e02f72"/>
      <path id="Trazado_9439" data-name="Trazado 9439" d="M24.79,64.484a1.786,1.786,0,0,1,.411,1.132h.877a2.662,2.662,0,0,0-.991-2.065A7.348,7.348,0,0,1,24.79,64.484Z" transform="translate(-1.723 -15.114)" fill="#e02f72"/>
      <path id="Trazado_9440" data-name="Trazado 9440" d="M19.007,65.375H19v.1h0V89.89h.872V65.475h0a1.794,1.794,0,0,1,.875-1.538q-.132-.394-.241-.861A2.671,2.671,0,0,0,19.007,65.375Z" transform="translate(0 -14.973)" fill="#e02f72"/>
      <path id="Trazado_9441" data-name="Trazado 9441" d="M45.992,39.758c-.006.008-.015.013-.02.021-.338.521.947,1.775,2.44,2.983.239-.467.488-.947.761-1.455C48.78,41.16,48.4,41,48.1,40.854,47.6,40.61,46.79,40.187,45.992,39.758Z" transform="translate(-8.009 -8.035)" fill="#e02f72"/>
      <path id="Trazado_9442" data-name="Trazado 9442" d="M45.446,38.345a.947.947,0,0,0-.062-.5c-1.056-2.911-4.667-4.882-7.3-5.888A10.607,10.607,0,0,0,24,34.416a6.831,6.831,0,0,0-.8,1.184c-.044.077-.093.151-.136.23h.006c-1.132,2.049-2.687,5.826-2.185,8.924a1.693,1.693,0,0,0-.1.552s.122,9.94,1.726,9.936S24.194,45.3,24.194,45.3a1.691,1.691,0,0,0-.285-.936,13.567,13.567,0,0,0,.645-1.427c.447-1.2,2.449-6.492,2.578-7.1h.195l-1.541,6.76c-.022.077-.034.157-.053.234-.036.14-.07.281-.1.424,0,.012-.006.024-.008.036l-.025.11h.008c-.006.034-.008.068-.013.1-.021.141-.041.282-.054.426,0,.052,0,.106-.008.158-.009.145-.022.288-.022.436a6.846,6.846,0,0,0,1.233,3.924c-.034.152-.067.312-.1.478-.506,1.6-1.423,7.482.077,28.382,0,0,.079.049.221.12v.488a2.082,2.082,0,0,0,1.89,2.23h.011a2.082,2.082,0,0,0,1.89-2.23v-.367a3.924,3.924,0,0,0,.421-.242c.365-9.518-.334-20.466,1.241-24.394a13.472,13.472,0,0,1,.718,3.281c.048.894.1,1.72.152,2.3.027.307.064.686.112,1.1.227,5.04.028,11.667.259,17.713.089.059.179.106.269.156v.407a2.082,2.082,0,0,0,1.89,2.23h.011a2.082,2.082,0,0,0,1.89-2.23v-.37a3.632,3.632,0,0,0,.373-.192c1.678-23.389.329-27.968-.081-28.793a6.868,6.868,0,0,0,.746-1.323.5.5,0,0,0,.2.336c1.4.79,6.376-7.814,6.376-7.814A1.7,1.7,0,0,0,45.446,38.345ZM32.827,31.505a.2.2,0,0,1,.1-.194l.606-.209c.244-.084.518.03.518.288v.35c0,.258-.274.372-.518.288l-.606-.209a.2.2,0,0,1-.1-.194Zm-.435-.315a.375.375,0,1,1-.375.375A.375.375,0,0,1,32.393,31.19Zm-1.649.2c0-.258.274-.372.518-.288l.606.209a.2.2,0,0,1,.1.194v.12a.2.2,0,0,1-.1.194l-.606.209c-.244.084-.518-.03-.518-.288Zm8.53,13.133c0-.016,0-.032,0-.047a6.064,6.064,0,0,0-.037-.633c0-.032-.008-.064-.011-.1-.011-.1-.021-.2-.036-.3H39.2l-.025-.111c-.007-.044-.021-.084-.029-.127-.019-.1-.044-.2-.067-.3-.034-.154-.059-.31-.1-.459L37.5,35.98c1.042.582,2.511,1.364,3.283,1.739a13.607,13.607,0,0,0,1.426.58A56.954,56.954,0,0,0,39.273,44.523Z" transform="translate(-0.534 -5.221)" fill="#e02f72"/>
      <ellipse id="Elipse_1336" data-name="Elipse 1336" cx="1.345" cy="1.165" rx="1.345" ry="1.165" transform="translate(51.894 22.069)" fill="#e02f72"/>
      <ellipse id="Elipse_1337" data-name="Elipse 1337" cx="1.345" cy="1.165" rx="1.345" ry="1.165" transform="translate(55.879 22.069)" fill="#e02f72"/>
      <g id="Grupo_23663" data-name="Grupo 23663" transform="translate(50.288 18.114)">
        <ellipse id="Elipse_1338" data-name="Elipse 1338" cx="1.345" cy="1.165" rx="1.345" ry="1.165" transform="translate(5.59 3.955)" fill="#e02f72"/>
        <ellipse id="Elipse_1339" data-name="Elipse 1339" cx="1.345" cy="1.165" rx="1.345" ry="1.165" transform="translate(1.606 3.955)" fill="#e02f72"/>
        <path id="Trazado_9443" data-name="Trazado 9443" d="M73.525,25.379a4.993,4.993,0,1,0-9.45,2.241.475.475,0,0,0-.053.211.481.481,0,0,0,.3.447.335.335,0,0,0-.164.285.34.34,0,0,0,.651.14,4.976,4.976,0,0,0,7.437,0,.339.339,0,1,0,.487-.425.481.481,0,0,0,.3-.447.475.475,0,0,0-.053-.211A4.948,4.948,0,0,0,73.525,25.379Zm-1.591-.707a1.28,1.28,0,0,1,.322.835,1.532,1.532,0,0,1-1.628,1.411,1.572,1.572,0,0,1-1.6-1.187.518.518,0,0,0-.547-.455.524.524,0,0,0-.533.4,1.559,1.559,0,0,1-1.609,1.24,1.531,1.531,0,0,1-1.628-1.411,1.284,1.284,0,0,1,.322-.835c-.29.111-.7-.333-.365-.194a1.016,1.016,0,0,0,.721-.112l.013-.01-.018.006c-.214.06-.414-.31-.219-.172.151.107.459.035.59,0-.2,0-.277-.355-.143-.2s.585.11.585.11l0,.008c.048,0,.095-.013.145-.013a1.551,1.551,0,0,1,1.614,1.283.742.742,0,0,1,1.061.017,1.547,1.547,0,0,1,1.615-1.3c.049,0,.1.009.145.013l0-.008s.449.051.585-.11.058.2-.143.2c.132.038.44.109.59,0,.195-.138-.006.232-.22.172l-.018-.006.013.01a1.016,1.016,0,0,0,.721.112C72.632,24.338,72.224,24.782,71.934,24.671Z" transform="translate(-63.54 -20.386)" fill="#e02f72"/>
      </g>
      <g id="Grupo_23664" data-name="Grupo 23664" transform="translate(25.737 12.749)">
        <path id="Trazado_9444" data-name="Trazado 9444" d="M38.455,26.484a6.8,6.8,0,0,0-.042-.9A1.338,1.338,0,0,0,37,24.5a3.77,3.77,0,0,0-.543.193,3.858,3.858,0,0,0-.543-.193,1.339,1.339,0,0,0-1.408,1.083,6.69,6.69,0,0,0-.042.9h0a1.221,1.221,0,0,0-.007.281c.024.115.048.278.129.323a.294.294,0,0,0,.406-.1,1.122,1.122,0,0,1,.267-.247.418.418,0,0,0,.178.015,1.16,1.16,0,0,0,.822-.57,3.106,3.106,0,0,0,.194-.364,3,3,0,0,0,.194.364,1.16,1.16,0,0,0,.822.57.417.417,0,0,0,.178-.015,1.1,1.1,0,0,1,.267.247.293.293,0,0,0,.406.1c.079-.044.1-.208.128-.323a1.182,1.182,0,0,0-.007-.281Z" transform="translate(-30.337 -16.243)" fill="#e02f72"/>
        <path id="Trazado_9445" data-name="Trazado 9445" d="M40.493,15.716H38.771a1.841,1.841,0,0,0,.053-.434v-.691a1.842,1.842,0,0,0-1.842-1.842h-4.54A1.842,1.842,0,0,0,30.6,14.591v.691a1.846,1.846,0,0,0,.053.434H28.932c-.188,0-.341.329-.341.736s.152.736.341.736h1.681a4.776,4.776,0,1,0,8.2,0h1.675c.188,0,.341-.329.341-.736S40.681,15.716,40.493,15.716Zm-3.781,7.555c-.024.115-.048.278-.128.323a.294.294,0,0,1-.406-.1,1.122,1.122,0,0,0-.267-.247.418.418,0,0,1-.178.015,1.16,1.16,0,0,1-.822-.57,3.107,3.107,0,0,1-.194-.364,3,3,0,0,1-.194.364,1.16,1.16,0,0,1-.822.57.417.417,0,0,1-.178-.015,1.1,1.1,0,0,0-.267.247.293.293,0,0,1-.406.1c-.079-.044-.1-.208-.129-.323a1.182,1.182,0,0,1,.007-.281h0a6.8,6.8,0,0,1,.042-.9,1.338,1.338,0,0,1,1.408-1.083,3.771,3.771,0,0,1,.543.193,3.827,3.827,0,0,1,.543-.193,1.339,1.339,0,0,1,1.408,1.083,6.69,6.69,0,0,1,.042.9h0A1.348,1.348,0,0,1,36.712,23.271Z" transform="translate(-28.591 -12.749)" fill="#e02f72"/>
      </g>
    </g>
    <g id="Rectángulo_5604" data-name="Rectángulo 5604" transform="translate(231 3221)" fill="#fff" stroke="#f579a8" stroke-width="1">
      <rect width="76" height="82" rx="12" stroke="none"/>
      <rect x="0.5" y="0.5" width="75" height="81" rx="11.5" fill="none"/>
    </g>
    <g id="Grupo_23693" data-name="Grupo 23693" transform="translate(-394.901 529.768)">
      <g id="Grupo_23658" data-name="Grupo 23658" transform="translate(650 2711)">
        <circle id="Elipse_1329" data-name="Elipse 1329" cx="5.871" cy="5.871" r="5.871" transform="translate(8.031 0)" fill="#dd3373"/>
        <path id="Trazado_9425" data-name="Trazado 9425" d="M58.349,64.645,54.342,68l3.023,2.053-3.21,3.914h0l0,0a2.107,2.107,0,0,0,3.253,2.68h0l4.3-5.243a2.279,2.279,0,0,0-.121-3.351Z" transform="translate(-38.226 -39.555)" fill="#dd3373"/>
        <path id="Trazado_9426" data-name="Trazado 9426" d="M33.854,73.966h0l-3.21-3.913L33.665,68l-4.007-3.355-3.236,3.41a2.279,2.279,0,0,0-.121,3.351l4.3,5.242h0a2.107,2.107,0,0,0,3.253-2.68Z" transform="translate(-21.977 -39.554)" fill="#dd3373"/>
        <path id="Trazado_9427" data-name="Trazado 9427" d="M42.78,21.405a1.969,1.969,0,0,0-1.4.578L36.963,26.4a2.908,2.908,0,0,1-2.154,1.06H26.9a2.907,2.907,0,0,1-2.154-1.06l-4.419-4.419a1.977,1.977,0,1,0-2.793,2.8l7.1,7.1V37.5H37.075V31.882l7.1-7.1a1.976,1.976,0,0,0-1.4-3.376Z" transform="translate(-16.953 -14.504)" fill="#dd3373"/>
      </g>
    </g>
    <g id="Rectángulo_5605" data-name="Rectángulo 5605" transform="translate(323 3221)" fill="none" stroke="#f579a8" stroke-width="1">
      <rect width="76" height="82" rx="12" stroke="none"/>
      <rect x="0.5" y="0.5" width="75" height="81" rx="11.5" fill="none"/>
    </g>
    <g id="Rectángulo_5606" data-name="Rectángulo 5606" transform="translate(415 3221)" fill="none" stroke="#f579a8" stroke-width="1">
      <rect width="76" height="82" rx="12" stroke="none"/>
      <rect x="0.5" y="0.5" width="75" height="81" rx="11.5" fill="none"/>
    </g>
    <g id="Rectángulo_5607" data-name="Rectángulo 5607" transform="translate(507 3221)" fill="none" stroke="#f579a8" stroke-width="1">
      <rect width="76" height="82" rx="12" stroke="none"/>
      <rect x="0.5" y="0.5" width="75" height="81" rx="11.5" fill="none"/>
    </g>
    <g id="Rectángulo_5608" data-name="Rectángulo 5608" transform="translate(691 3221)" fill="none" stroke="#f579a8" stroke-width="1">
      <rect width="76" height="82" rx="12" stroke="none"/>
      <rect x="0.5" y="0.5" width="75" height="81" rx="11.5" fill="none"/>
    </g>
    <g id="Grupo_23700" data-name="Grupo 23700" transform="translate(594.38 3216.314)">
      <path id="Trazado_9432-2" data-name="Trazado 9432" d="M34.466,26.765c.024.115.048.278.128.323a.3.3,0,0,0,.407-.1,1.122,1.122,0,0,1,.267-.247.418.418,0,0,0,.178.015,1.16,1.16,0,0,0,.822-.57,3.106,3.106,0,0,0,.194-.364,3.05,3.05,0,0,0,.194.364,1.16,1.16,0,0,0,.822.57.417.417,0,0,0,.178-.015,1.1,1.1,0,0,1,.267.247.293.293,0,0,0,.406.1c.079-.044.1-.208.128-.323a1.182,1.182,0,0,0-.007-.281h0a6.8,6.8,0,0,0-.042-.9A1.338,1.338,0,0,0,37,24.5a3.77,3.77,0,0,0-.543.193,3.827,3.827,0,0,0-.543-.193,1.339,1.339,0,0,0-1.408,1.083,6.69,6.69,0,0,0-.042.9h0A1.4,1.4,0,0,0,34.466,26.765Z" transform="translate(-4.6 -3.494)" fill="#e02f72"/>
      <path id="Trazado_9433-2" data-name="Trazado 9433" d="M76.4,45.336a1.36,1.36,0,0,0,.207-1.2c0-.011,0-.018,0-.029-1.061-4.185-7.748-6.919-8.59-6.963a5.082,5.082,0,0,0-4.413-.013,15.572,15.572,0,0,0-7.619,4.929c-.122-.076-.278-.172-.474-.291-.242.419-.789,1.348-1.479,2.432.394.271.639.433.639.433a1.434,1.434,0,0,0,.577.214c.8.318,2.981-.714,3.9-1.282.32-.2.78-.5,1.269-.821a5.369,5.369,0,0,0,.788,2.3,7.8,7.8,0,0,1,.137,1.424,9.787,9.787,0,0,1-.419,2.582h0c-.064.117-.12.237-.176.359l-.009-.008a27.3,27.3,0,0,0-1.664,6.946h0c-.012.147-.026.3-.041.469-.018.182-.039.361-.053.547-.547,5.519-2.308,18.511-2.308,18.511a33.875,33.875,0,0,0,3.938.9c.341,2.973.918,5.6,1.895,5.6.934,0,1.5-2.405,1.848-5.216.924.039,1.8.032,2.613-.008.348,2.742.913,5.057,1.829,5.057.966,0,1.541-2.573,1.883-5.5a17.417,17.417,0,0,0,4.067-1.248S72.7,59.694,72.125,55.041a31.85,31.85,0,0,0-.825-4.07C72.929,50.224,76.4,45.336,76.4,45.336ZM65.145,38.7a.819.819,0,0,1-.306-1.579.981.981,0,0,0-.041.266,1,1,0,0,0,.987,1A.812.812,0,0,1,65.145,38.7Zm1.3,0a.815.815,0,0,1-.64-.315,1,1,0,0,0,.991-1,.97.97,0,0,0-.041-.265.819.819,0,0,1-.311,1.577Zm4.339,10.591a5.44,5.44,0,0,0-.3-.539,7.705,7.705,0,0,1-.346-2.278,7.611,7.611,0,0,1,.1-1.2,5.379,5.379,0,0,0,.931-2.511c.49.325.95.625,1.27.822a12.418,12.418,0,0,0,1.353.7A36.717,36.717,0,0,0,70.783,49.287Z" transform="translate(-10.422 -7.107)" fill="#e02f72"/>
      <path id="Trazado_9434-2" data-name="Trazado 9434" d="M69.734,19.312a5.108,5.108,0,0,1,2.131.467,2.205,2.205,0,0,0,.025-.306,2.155,2.155,0,1,0-4.31,0,2.1,2.1,0,0,0,.025.306A5.113,5.113,0,0,1,69.734,19.312Z" transform="translate(-14.454 -1.359)" fill="#e02f72"/>
      <path id="Trazado_9435-2" data-name="Trazado 9435" d="M44.575,38.386l1.473,6.478c.046.149.071.306.1.459.023.1.048.2.067.3.008.043.022.084.029.127l.025.111h-.008c.015.1.024.2.036.3,0,.032.008.064.011.1a6.077,6.077,0,0,1,.037.633c0,.016,0,.032,0,.047A57.042,57.042,0,0,1,49.284,40.7a13.393,13.393,0,0,1-1.426-.58C47.086,39.75,45.617,38.968,44.575,38.386Zm3.438,3.968c-1.494-1.208-2.778-2.462-2.44-2.983.006-.008.015-.013.02-.021.8.429,1.609.853,2.109,1.1.3.147.679.306,1.072.454C48.5,41.407,48.252,41.887,48.013,42.354Z" transform="translate(-7.61 -7.627)" fill="#e02f72"/>
      <path id="Trazado_9436-2" data-name="Trazado 9436" d="M35.475,32.357l.606-.209a.2.2,0,0,0,.1-.194v-.12a.2.2,0,0,0-.1-.194l-.606-.209c-.244-.084-.518.03-.518.288v.35C34.957,32.327,35.231,32.441,35.475,32.357Z" transform="translate(-4.748 -5.55)" fill="#e02f72"/>
      <circle id="Elipse_1335-2" data-name="Elipse 1335" cx="0.375" cy="0.375" r="0.375" transform="translate(31.483 25.969)" fill="#e02f72"/>
      <path id="Trazado_9437-2" data-name="Trazado 9437" d="M77.064,47.865a7.6,7.6,0,0,0-.1,1.2,7.682,7.682,0,0,0,.346,2.278,5.524,5.524,0,0,1,.3.539,36.549,36.549,0,0,1,3.013-5,12.672,12.672,0,0,1-1.353-.7c-.32-.2-.781-.5-1.27-.822A5.38,5.38,0,0,1,77.064,47.865Z" transform="translate(-17.244 -9.701)" fill="#e02f72"/>
      <path id="Trazado_9438-2" data-name="Trazado 9438" d="M38.628,32.357c.244.084.518-.03.518-.288v-.35c0-.258-.274-.372-.518-.288l-.606.209a.2.2,0,0,0-.1.194v.12a.2.2,0,0,0,.1.194Z" transform="translate(-5.631 -5.55)" fill="#e02f72"/>
      <path id="Trazado_9439-2" data-name="Trazado 9439" d="M24.79,64.484a1.786,1.786,0,0,1,.411,1.132h.877a2.662,2.662,0,0,0-.991-2.065A7.348,7.348,0,0,1,24.79,64.484Z" transform="translate(-1.723 -15.114)" fill="#e02f72"/>
      <path id="Trazado_9440-2" data-name="Trazado 9440" d="M19.007,65.375H19v.1h0V89.89h.872V65.475h0a1.794,1.794,0,0,1,.875-1.538q-.132-.394-.241-.861A2.671,2.671,0,0,0,19.007,65.375Z" transform="translate(0 -14.973)" fill="#e02f72"/>
      <path id="Trazado_9441-2" data-name="Trazado 9441" d="M45.992,39.758c-.006.008-.015.013-.02.021-.338.521.947,1.775,2.44,2.983.239-.467.488-.947.761-1.455C48.78,41.16,48.4,41,48.1,40.854,47.6,40.61,46.79,40.187,45.992,39.758Z" transform="translate(-8.009 -8.035)" fill="#e02f72"/>
      <path id="Trazado_9442-2" data-name="Trazado 9442" d="M45.446,38.345a.947.947,0,0,0-.062-.5c-1.056-2.911-4.667-4.882-7.3-5.888A10.607,10.607,0,0,0,24,34.416a6.831,6.831,0,0,0-.8,1.184c-.044.077-.093.151-.136.23h.006c-1.132,2.049-2.687,5.826-2.185,8.924a1.693,1.693,0,0,0-.1.552s.122,9.94,1.726,9.936S24.194,45.3,24.194,45.3a1.691,1.691,0,0,0-.285-.936,13.567,13.567,0,0,0,.645-1.427c.447-1.2,2.449-6.492,2.578-7.1h.195l-1.541,6.76c-.022.077-.034.157-.053.234-.036.14-.07.281-.1.424,0,.012-.006.024-.008.036l-.025.11h.008c-.006.034-.008.068-.013.1-.021.141-.041.282-.054.426,0,.052,0,.106-.008.158-.009.145-.022.288-.022.436a6.846,6.846,0,0,0,1.233,3.924c-.034.152-.067.312-.1.478-.506,1.6-1.423,7.482.077,28.382,0,0,.079.049.221.12v.488a2.082,2.082,0,0,0,1.89,2.23h.011a2.082,2.082,0,0,0,1.89-2.23v-.367a3.924,3.924,0,0,0,.421-.242c.365-9.518-.334-20.466,1.241-24.394a13.472,13.472,0,0,1,.718,3.281c.048.894.1,1.72.152,2.3.027.307.064.686.112,1.1.227,5.04.028,11.667.259,17.713.089.059.179.106.269.156v.407a2.082,2.082,0,0,0,1.89,2.23h.011a2.082,2.082,0,0,0,1.89-2.23v-.37a3.632,3.632,0,0,0,.373-.192c1.678-23.389.329-27.968-.081-28.793a6.868,6.868,0,0,0,.746-1.323.5.5,0,0,0,.2.336c1.4.79,6.376-7.814,6.376-7.814A1.7,1.7,0,0,0,45.446,38.345ZM32.827,31.505a.2.2,0,0,1,.1-.194l.606-.209c.244-.084.518.03.518.288v.35c0,.258-.274.372-.518.288l-.606-.209a.2.2,0,0,1-.1-.194Zm-.435-.315a.375.375,0,1,1-.375.375A.375.375,0,0,1,32.393,31.19Zm-1.649.2c0-.258.274-.372.518-.288l.606.209a.2.2,0,0,1,.1.194v.12a.2.2,0,0,1-.1.194l-.606.209c-.244.084-.518-.03-.518-.288Zm8.53,13.133c0-.016,0-.032,0-.047a6.064,6.064,0,0,0-.037-.633c0-.032-.008-.064-.011-.1-.011-.1-.021-.2-.036-.3H39.2l-.025-.111c-.007-.044-.021-.084-.029-.127-.019-.1-.044-.2-.067-.3-.034-.154-.059-.31-.1-.459L37.5,35.98c1.042.582,2.511,1.364,3.283,1.739a13.607,13.607,0,0,0,1.426.58A56.954,56.954,0,0,0,39.273,44.523Z" transform="translate(-0.534 -5.221)" fill="#e02f72"/>
      <ellipse id="Elipse_1336-2" data-name="Elipse 1336" cx="1.345" cy="1.165" rx="1.345" ry="1.165" transform="translate(51.894 22.069)" fill="#e02f72"/>
      <ellipse id="Elipse_1337-2" data-name="Elipse 1337" cx="1.345" cy="1.165" rx="1.345" ry="1.165" transform="translate(55.879 22.069)" fill="#e02f72"/>
      <g id="Grupo_23663-2" data-name="Grupo 23663" transform="translate(50.288 18.114)">
        <ellipse id="Elipse_1338-2" data-name="Elipse 1338" cx="1.345" cy="1.165" rx="1.345" ry="1.165" transform="translate(5.59 3.955)" fill="#e02f72"/>
        <ellipse id="Elipse_1339-2" data-name="Elipse 1339" cx="1.345" cy="1.165" rx="1.345" ry="1.165" transform="translate(1.606 3.955)" fill="#e02f72"/>
        <path id="Trazado_9443-2" data-name="Trazado 9443" d="M73.525,25.379a4.993,4.993,0,1,0-9.45,2.241.475.475,0,0,0-.053.211.481.481,0,0,0,.3.447.335.335,0,0,0-.164.285.34.34,0,0,0,.651.14,4.976,4.976,0,0,0,7.437,0,.339.339,0,1,0,.487-.425.481.481,0,0,0,.3-.447.475.475,0,0,0-.053-.211A4.948,4.948,0,0,0,73.525,25.379Zm-1.591-.707a1.28,1.28,0,0,1,.322.835,1.532,1.532,0,0,1-1.628,1.411,1.572,1.572,0,0,1-1.6-1.187.518.518,0,0,0-.547-.455.524.524,0,0,0-.533.4,1.559,1.559,0,0,1-1.609,1.24,1.531,1.531,0,0,1-1.628-1.411,1.284,1.284,0,0,1,.322-.835c-.29.111-.7-.333-.365-.194a1.016,1.016,0,0,0,.721-.112l.013-.01-.018.006c-.214.06-.414-.31-.219-.172.151.107.459.035.59,0-.2,0-.277-.355-.143-.2s.585.11.585.11l0,.008c.048,0,.095-.013.145-.013a1.551,1.551,0,0,1,1.614,1.283.742.742,0,0,1,1.061.017,1.547,1.547,0,0,1,1.615-1.3c.049,0,.1.009.145.013l0-.008s.449.051.585-.11.058.2-.143.2c.132.038.44.109.59,0,.195-.138-.006.232-.22.172l-.018-.006.013.01a1.016,1.016,0,0,0,.721.112C72.632,24.338,72.224,24.782,71.934,24.671Z" transform="translate(-63.54 -20.386)" fill="#e02f72"/>
      </g>
      <g id="Grupo_23664-2" data-name="Grupo 23664" transform="translate(25.737 12.749)">
        <path id="Trazado_9444-2" data-name="Trazado 9444" d="M38.455,26.484a6.8,6.8,0,0,0-.042-.9A1.338,1.338,0,0,0,37,24.5a3.77,3.77,0,0,0-.543.193,3.858,3.858,0,0,0-.543-.193,1.339,1.339,0,0,0-1.408,1.083,6.69,6.69,0,0,0-.042.9h0a1.221,1.221,0,0,0-.007.281c.024.115.048.278.129.323a.294.294,0,0,0,.406-.1,1.122,1.122,0,0,1,.267-.247.418.418,0,0,0,.178.015,1.16,1.16,0,0,0,.822-.57,3.106,3.106,0,0,0,.194-.364,3,3,0,0,0,.194.364,1.16,1.16,0,0,0,.822.57.417.417,0,0,0,.178-.015,1.1,1.1,0,0,1,.267.247.293.293,0,0,0,.406.1c.079-.044.1-.208.128-.323a1.182,1.182,0,0,0-.007-.281Z" transform="translate(-30.337 -16.243)" fill="#e02f72"/>
        <path id="Trazado_9445-2" data-name="Trazado 9445" d="M40.493,15.716H38.771a1.841,1.841,0,0,0,.053-.434v-.691a1.842,1.842,0,0,0-1.842-1.842h-4.54A1.842,1.842,0,0,0,30.6,14.591v.691a1.846,1.846,0,0,0,.053.434H28.932c-.188,0-.341.329-.341.736s.152.736.341.736h1.681a4.776,4.776,0,1,0,8.2,0h1.675c.188,0,.341-.329.341-.736S40.681,15.716,40.493,15.716Zm-3.781,7.555c-.024.115-.048.278-.128.323a.294.294,0,0,1-.406-.1,1.122,1.122,0,0,0-.267-.247.418.418,0,0,1-.178.015,1.16,1.16,0,0,1-.822-.57,3.107,3.107,0,0,1-.194-.364,3,3,0,0,1-.194.364,1.16,1.16,0,0,1-.822.57.417.417,0,0,1-.178-.015,1.1,1.1,0,0,0-.267.247.293.293,0,0,1-.406.1c-.079-.044-.1-.208-.129-.323a1.182,1.182,0,0,1,.007-.281h0a6.8,6.8,0,0,1,.042-.9,1.338,1.338,0,0,1,1.408-1.083,3.771,3.771,0,0,1,.543.193,3.827,3.827,0,0,1,.543-.193,1.339,1.339,0,0,1,1.408,1.083,6.69,6.69,0,0,1,.042.9h0A1.348,1.348,0,0,1,36.712,23.271Z" transform="translate(-28.591 -12.749)" fill="#e02f72"/>
      </g>
    </g>
    <g id="Rectángulo_5609" data-name="Rectángulo 5609" transform="translate(599 3221)" fill="none" stroke="#f579a8" stroke-width="1">
      <rect width="76" height="82" rx="12" stroke="none"/>
      <rect x="0.5" y="0.5" width="75" height="81" rx="11.5" fill="none"/>
    </g>
    <g id="Grupo_23701" data-name="Grupo 23701" transform="translate(510.375 3223.033)">
      <path id="Trazado_9496" data-name="Trazado 9496" d="M55.032,35.39,53.16,22.44H37.206L35.017,37.758a4.255,4.255,0,0,0,4.227,4.735l8.47-1.735-1.548-3.9c-1.445.553-3.684,1.4-5,1.856-.831.287-1.5-.9-1.4-1.769l.436-3.629-1.84.7-.763-.686,3.056-1.562c.4-.192.991-.065,1.064.369a16.619,16.619,0,0,1,.007,2.794L45.2,33.591a1.194,1.194,0,0,1,1.545.682l.449,1.16.349.9.366.944v3.442l2.894-.593C52.819,39.788,55.318,37.914,55.032,35.39ZM48.45,29.341a.652.652,0,1,1-.652.652A.652.652,0,0,1,48.45,29.341Zm-3.668-.856h.66a2.467,2.467,0,1,0,4.388-1.548v-.9l.011-.014a3.127,3.127,0,1,1-5.06,2.459Zm5.539,7.321a2.133,2.133,0,1,1,1.218-2.76A2.133,2.133,0,0,1,50.321,35.807Z" transform="translate(0 -4.515)" fill="#df3c7a"/>
      <path id="Trazado_9497" data-name="Trazado 9497" d="M50.135,6.427a4.914,4.914,0,0,0-1.452-.373,4.989,4.989,0,1,0,3.361,8.084c1.376,1.156,3.122,4.931,5.88-.165C54.4,16.8,54.525,7.955,50.135,6.427Z" transform="translate(-2.27)" fill="#df3c7a"/>
      <path id="Trazado_9498" data-name="Trazado 9498" d="M53.161,47.767,40.2,50.438,38.807,64.971l2.815,0,1.8,16.794h2.907l.053-16.794H47.62l-.038,16.794H50.25l2.034-16.794,2.976-.015Z" transform="translate(-1.05 -11.483)" fill="#df3c7a"/>
    </g>
  </g>
</svg>
