<svg xmlns="http://www.w3.org/2000/svg" xmlns:xlink="http://www.w3.org/1999/xlink" width="306.136" height="333.133" viewBox="0 0 306.136 333.133">
  <defs>
    <linearGradient id="linear-gradient" x1="-424.62" y1="97.339" x2="-424.403" y2="98.065" gradientUnits="objectBoundingBox">
      <stop offset="0" stop-color="#d89a68"/>
      <stop offset="1" stop-color="#d89a68" stop-opacity="0"/>
    </linearGradient>
  </defs>
  <g id="Grupo_23652" data-name="Grupo 23652" transform="translate(-33.899 -35.297)">
    <g id="Grupo_23638" data-name="Grupo 23638" transform="translate(33.899 57.389)">
      <path id="Trazado_9323" data-name="Trazado 9323" d="M165.826,336.51c-86.677,2.172-141.453-68.672-123.983-132.3s85.07-20,118.869-65.735S217.2,56.441,265.845,70.537c55.7,16.141,90.177,93.4,55.635,165.973C290.369,301.876,252.5,334.338,165.826,336.51Z" transform="translate(-38.599 -67.457)" fill="#ffe5ef"/>
      <path id="Trazado_9325" data-name="Trazado 9325" d="M441.468,132.258c-.4,12.52,8.933,31.53,15.238,18.917S442.256,107.561,441.468,132.258Z" transform="translate(-151.762 -83.052)" fill="#edf6ed"/>
      <path id="Trazado_9326" data-name="Trazado 9326" d="M90.332,177.707c-14.683,4.319-27.063,19.443.262,15.239S121.6,168.511,90.332,177.707Z" transform="translate(-48.654 -97.76)" fill="#edf6ed"/>
    </g>
    <g id="Grupo_23645" data-name="Grupo 23645" transform="translate(68.39 116.872)">
      <path id="Trazado_9327" data-name="Trazado 9327" d="M376.7,337.483s28.005,1.939,34.663,2.154,13.905,20.674,1.176,22.828-35.252,0-35.252,0Z" transform="translate(-168.062 -202.79)" fill="#f9c88c"/>
      <path id="Trazado_9328" data-name="Trazado 9328" d="M310.379,322.833s11.747.618,53.739,7.7c3.012,5.8,3.418,21.349,1.271,31.783-4.151-.3-45.479-.984-48.383-1.527C317.005,360.787,295.21,337.749,310.379,322.833Z" transform="translate(-147.925 -198.675)" fill="#00348d"/>
      <path id="Trazado_9329" data-name="Trazado 9329" d="M255.287,327.661c-14.228,0-17.64-7.893-18.131-10.361a93.606,93.606,0,0,1,32.547-1.173C269.988,318.994,269.261,327.661,255.287,327.661Z" transform="translate(-128.864 -196.538)" fill="#f9c88c"/>
      <path id="Trazado_9330" data-name="Trazado 9330" d="M266.559,300.39l-.519-18.905-24.035.66.4,14.54.519,18.875,24.034-.661Z" transform="translate(-130.226 -187.06)" fill="#f9c88c"/>
      <path id="Trazado_9331" data-name="Trazado 9331" d="M265.89,281.485l-24.418.383.4,8.436.519,15.065c8.875.567,16.931-.824,24.034-4.5Z" transform="translate(-130.077 -187.06)" fill="#eda968"/>
      <path id="Trazado_9332" data-name="Trazado 9332" d="M192.644,328.037a127.918,127.918,0,0,1,30.367-11.109c.723-.158,1.435-.307,2.144-.449.491,2.466,3.155,10.016,17.384,10.016,13.974,0,14.419-8.03,14.135-10.9,1.035.139,2.087.291,3.173.462a225.009,225.009,0,0,1,23.737,5.288s5.8,20.419,4.746,126.853H200.112s6.874-47.321-.188-75.854C199.924,372.347,194.879,345.971,192.644,328.037Z" transform="translate(-116.361 -196.643)" fill="#00348d"/>
      <g id="Grupo_23642" data-name="Grupo 23642" transform="translate(64.513)">
        <g id="Grupo_23641" data-name="Grupo 23641" transform="translate(13.046 18.821)">
          <path id="Trazado_9333" data-name="Trazado 9333" d="M211.6,254c3.147,5.485,3.791,9.98.242,12.253s-12.111,1.313-15.256-4.173-2.823-11.778.726-14.052S208.452,248.512,211.6,254Z" transform="translate(-194.417 -196.259)" fill="#f9c88c"/>
          <path id="Trazado_9334" data-name="Trazado 9334" d="M243.49,283.473c.424-.207.924-.425,1.451-.656a6.322,6.322,0,0,1-.293-.866Z" transform="translate(-208.202 -206.013)" fill="#fff"/>
          <path id="Trazado_9335" data-name="Trazado 9335" d="M204.132,242.454c6.125,19.5,22.419,30.716,42.233,25.857,18.024-4.42,26.737-31.9,23.671-55.276s-18.38-39.889-40.39-36.159C195.936,182.589,191.224,201.366,204.132,242.454Z" transform="translate(-195.288 -176.349)" fill="#f9c88c"/>
          <path id="Trazado_9336" data-name="Trazado 9336" d="M285.264,239.763c-1.432,6.161-.753,10.649,3.3,11.8s11.974-2.233,13.4-8.395-.693-12.09-4.744-13.246S286.694,233.6,285.264,239.763Z" transform="translate(-219.744 -191.351)" fill="#f9c88c"/>
          <path id="Trazado_9339" data-name="Trazado 9339" d="M239.749,276.189c-.935,2.49,3.491,12.467,18.9,5.465" transform="translate(-207.118 -204.394)" fill="none" stroke="#a56052" stroke-miterlimit="10" stroke-width="1.701"/>
          <g id="Grupo_23639" data-name="Grupo 23639" transform="translate(15.701 36.11)">
            <path id="Trazado_9340" data-name="Trazado 9340" d="M232.158,227.361c1.054,3.595,4.767,14.048-5.428,16.5s-9.658-10.413-9.658-10.413S227.514,228.567,232.158,227.361Z" transform="translate(-216.481 -226.788)" fill="url(#linear-gradient)"/>
            <path id="Trazado_9341" data-name="Trazado 9341" d="M235.217,247.272a1.426,1.426,0,1,1-1.274-1.563A1.426,1.426,0,0,1,235.217,247.272Z" transform="translate(-220.78 -231.94)" fill="#643619"/>
            <path id="Trazado_9342" data-name="Trazado 9342" d="M229.6,226.821c-11.714,2.643-17.487,8.347-9.971,7.131S237.326,225.078,229.6,226.821Z" transform="translate(-216.252 -226.564)" fill="#964d1e"/>
          </g>
          <g id="Grupo_23640" data-name="Grupo 23640" transform="translate(42.531 33.731)">
            <path id="Trazado_9344" data-name="Trazado 9344" d="M261.959,243.165a1.426,1.426,0,1,0,.746-1.873A1.426,1.426,0,0,0,261.959,243.165Z" transform="translate(-255.889 -228.29)" fill="#643619"/>
            <path id="Trazado_9345" data-name="Trazado 9345" d="M256.147,223.424c11.967-1,19.186,2.713,11.652,3.809S248.255,224.08,256.147,223.424Z" transform="translate(-253.563 -223.257)" fill="#964d1e"/>
          </g>
          <path id="Trazado_9346" data-name="Trazado 9346" d="M219.158,255.053c.122.8-1.841,1.756-4.385,2.147s-4.7.063-4.827-.732,1.841-1.756,4.384-2.147S219.035,254.258,219.158,255.053Z" transform="translate(-198.778 -198.205)" fill="#f2a09b"/>
          <path id="Trazado_9347" data-name="Trazado 9347" d="M286.685,244.681c.122.795-1.841,1.756-4.384,2.147s-4.705.063-4.827-.732,1.841-1.756,4.384-2.147S286.563,243.885,286.685,244.681Z" transform="translate(-217.747 -195.291)" fill="#f2a09b"/>
        </g>
        <path id="Trazado_9348" data-name="Trazado 9348" d="M184.026,197.641c1.3,10.964,3.988,18.443,5.876,26.116,1.839-3.153,5.151-3.351,7.1,1.661,0,0-3.593-22.695.859-27.211,9.186-9.317,10.126.274,23.682-5.228,9.019-3.66,20.621-14.209,32.111-.971,3.447,3.972,5.343,16.071,8.17,20.058.251-3.083,1.525-3.841,5.932-4.124l1.117-10.43c.973-6.317,2.059-13.027.918-16.7a19.68,19.68,0,0,1-2.157,4.758s1.089-19.222-12.62-28.28c.679,3.168,3.86,8.838,3.86,8.838s-17.409-23.118-46.181-13.694c2.2,6.784,15.128,5.76,15.128,5.76s-29.347-1.844-39.157,11.982c1.591,2.835,7.8-.62,7.8-.62s-14.017,5.232-20.182,17.728c1.692-.26,5.771-1.271,5.771-1.271s-7.277,6.507-3.13,22.23A100.478,100.478,0,0,0,184.026,197.641Z" transform="translate(-176.276 -150.176)" fill="#572c1a"/>
        <path id="Trazado_9349" data-name="Trazado 9349" d="M210.205,205.114s-4.305,3.41-2.433,8.257a20.453,20.453,0,0,1,10.467-5.24,21.537,21.537,0,0,0-5.338,3.575c7.313,1.131,20.914-4.089,20.914-4.089s-6.495,3.377-7.841,5.212c11.831-2.067,16.887-9.107,16.887-9.107s-3.972,3.491-5.432,6.22c9.2-2.916,21.664-9.188,21.975-11.24C241.644,190.894,218.724,199.432,210.205,205.114Z" transform="translate(-184.991 -162.926)" fill="#572c1a"/>
        <path id="Trazado_9350" data-name="Trazado 9350" d="M276.666,201.3c-.378,1.277,2.778,5.954,5.885,10.781a4.7,4.7,0,0,0-.085-3.356,50.769,50.769,0,0,1,3.09,7.985c1.6-3.114-4.409-13.3-4.409-13.3Z" transform="translate(-204.467 -164.536)" fill="#572c1a"/>
      </g>
      <g id="Grupo_23643" data-name="Grupo 23643" transform="translate(188.747 58.77)">
        <path id="Trazado_9351" data-name="Trazado 9351" d="M376.172,267.561c11.982,25.9,18.658,51.278,25.245,63.745s30.47,5.513,20.193-14.327-22.962-41.05-32.108-58.451C384.742,249.47,370.436,258.284,376.172,267.561Z" transform="translate(-356.286 -238.315)" fill="#f9c88c"/>
        <path id="Trazado_9352" data-name="Trazado 9352" d="M358.111,252.626c-4.975-.18-8.462,2.49-8.922,4.085s.156,2.527,1.766,2.017,8.832.423,11.955,2.655,12.22.57,17.733-4.4S377.97,241.3,377.97,241.3s-14.728,1.474-21.269,6.592A26.934,26.934,0,0,0,358.111,252.626Z" transform="translate(-349.04 -234.541)" fill="#f9c88c"/>
        <path id="Trazado_9353" data-name="Trazado 9353" d="M360.318,249.988c-2.619-3.889-4.961-9.468-2.137-11.639s11.045-6.245,15.9-6.442,11.253,9.523,5.912,14.025-10.914,10.29-15.154,2.95C362.885,249.371,360.318,249.988,360.318,249.988Z" transform="translate(-351.247 -231.903)" fill="#f5b384"/>
      </g>
      <path id="Trazado_9354" data-name="Trazado 9354" d="M129.253,371.711s-24.663,13.408-30.629,16.373-4.049,24.584,8.424,21.249,32.059-14.659,32.059-14.659Z" transform="translate(-89.037 -212.405)" fill="#f9c88c"/>
      <path id="Trazado_9355" data-name="Trazado 9355" d="M176.963,331.68s-10.427,5.447-45.671,29.349c.8,5.047,4.5,21.416,10.794,30.012,3.649-2,42.218-20.386,44.634-22.088C186.719,368.953,196.961,338.939,176.963,331.68Z" transform="translate(-99.127 -201.16)" fill="#00348d"/>
      <g id="Grupo_23644" data-name="Grupo 23644" transform="translate(0 90.111)">
        <path id="Trazado_9356" data-name="Trazado 9356" d="M107.372,309.034c-.127,28.539,4.354,54.393,3.549,68.47S85.5,395.189,86.6,372.872s3.812-46.88,4.894-66.51C92.055,296.145,108.731,298.212,107.372,309.034Z" transform="translate(-86.563 -282.291)" fill="#f9c88c"/>
        <path id="Trazado_9357" data-name="Trazado 9357" d="M113.584,290.215c4.45-2.233,8.731-1.255,9.813.005s.909,2.364-.768,2.569-7.855,4.057-9.768,7.386-10.876,5.6-17.956,3.374-4.094-15.38-4.094-15.38,14.007-4.784,22.084-2.849A26.916,26.916,0,0,1,113.584,290.215Z" transform="translate(-87.581 -278.12)" fill="#f9c88c"/>
        <path id="Trazado_9358" data-name="Trazado 9358" d="M113.337,287.582c.764-4.626.575-10.673-2.9-11.474s-12.642-1.086-17.139.753-6.274,13.34.456,15.213,14.2,4.819,15.008-3.619C110.745,288.09,113.337,287.582,113.337,287.582Z" transform="translate(-87.333 -275.487)" fill="#f5b384"/>
      </g>
      <path id="Trazado_9359" data-name="Trazado 9359" d="M384.587,333.1c-2.329-.393-4.56-.764-6.706-1.118,1.554,6.4,3.849,19.768.155,32.64,3.955.1,6.869.192,7.822.261C388.005,354.451,387.6,338.9,384.587,333.1Z" transform="translate(-168.394 -201.246)" fill="#007895"/>
      <path id="Trazado_9360" data-name="Trazado 9360" d="M131.292,370.982c.8,5.046,4.5,21.416,10.794,30.012.708-.388,2.733-1.394,5.55-2.774-6.184-10.737-9.486-25.337-10.618-31.106C135.183,368.35,133.282,369.633,131.292,370.982Z" transform="translate(-99.127 -211.114)" fill="#007895"/>
      <path id="Trazado_9361" data-name="Trazado 9361" d="M287.927,353.506a8.292,8.292,0,0,0-6.6,6.6,8.293,8.293,0,0,0-15.164,5.966c2.176,11.488,19.045,14.514,19.045,14.514s14.429-9.845,12.415-20.474A8.3,8.3,0,0,0,287.927,353.506Z" transform="translate(-136.971 -207.25)" fill="#fff"/>
    </g>
    <circle id="Elipse_1322" data-name="Elipse 1322" cx="30.515" cy="30.515" r="30.515" transform="translate(34.122 122.979)" fill="#00348d"/>
    <circle id="Elipse_1324" data-name="Elipse 1324" cx="30.515" cy="30.515" r="30.515" transform="translate(96.337 48.391)" fill="#00348d"/>
    <path id="Trazado_9389" data-name="Trazado 9389" d="M30.515,0A30.515,30.515,0,1,1,0,30.515,30.515,30.515,0,0,1,30.515,0Z" transform="translate(198.354 35.297)" fill="#00348d"/>
    <circle id="Elipse_1328" data-name="Elipse 1328" cx="30.515" cy="30.515" r="30.515" transform="translate(276.236 90.344)" fill="#00348d"/>
    <g id="Grupo_23648" data-name="Grupo 23648" transform="translate(45.153 133.773)">
      <g id="Grupo_23646" data-name="Grupo 23646" transform="translate(0 15.83)">
        <path id="Trazado_9362" data-name="Trazado 9362" d="M56.978,196.158a2.177,2.177,0,0,0-.366,3.056L69.32,215.376a2.177,2.177,0,0,0,3.422-2.691L60.035,196.523A2.177,2.177,0,0,0,56.978,196.158Z" transform="translate(-54.782 -195.692)" fill="#fff"/>
        <path id="Trazado_9363" data-name="Trazado 9363" d="M55.08,205.541a2.177,2.177,0,0,0-.366,3.056l7.194,9.149a2.177,2.177,0,0,0,3.422-2.691l-7.194-9.149A2.176,2.176,0,0,0,55.08,205.541Z" transform="translate(-54.249 -198.328)" fill="#fff"/>
        <path id="Trazado_9364" data-name="Trazado 9364" d="M59.457,218.028a2.048,2.048,0,1,1-2.531-3.219Z" transform="translate(-54.781 -201.062)" fill="#fff"/>
      </g>
      <g id="Grupo_23647" data-name="Grupo 23647" transform="translate(21.497)">
        <path id="Trazado_9365" data-name="Trazado 9365" d="M84.975,174.144a2.177,2.177,0,0,1,3.056.366l12.708,16.161a2.177,2.177,0,1,1-3.422,2.691L84.609,177.2A2.177,2.177,0,0,1,84.975,174.144Z" transform="translate(-84.144 -173.679)" fill="#fff"/>
        <path id="Trazado_9366" data-name="Trazado 9366" d="M94.541,174.513a2.177,2.177,0,0,1,3.056.366l7.194,9.148a2.177,2.177,0,1,1-3.422,2.691l-7.194-9.148A2.177,2.177,0,0,1,94.541,174.513Z" transform="translate(-86.831 -173.782)" fill="#fff"/>
        <path id="Trazado_9367" data-name="Trazado 9367" d="M105.8,181.662a2.048,2.048,0,1,0-2.531-3.22Z" transform="translate(-89.515 -174.894)" fill="#fff"/>
      </g>
      <rect id="Rectángulo_5596" data-name="Rectángulo 5596" width="18.433" height="3.84" transform="translate(11.155 22.048) rotate(-38.177)" fill="#fff"/>
    </g>
    <g id="Grupo_23649" data-name="Grupo 23649" transform="translate(110.469 58.931)">
      <path id="Trazado_9368" data-name="Trazado 9368" d="M166.857,109.513c-11.909,4.239-20.9-2.919-21.743-12.837-.649-7.627,8.173-10.164,14.269-9.553,1.921-2.935,5.458-7.275,11.823-4.771C181.116,86.251,178.271,105.45,166.857,109.513Z" transform="translate(-145.08 -72.973)" fill="#fff"/>
      <path id="Trazado_9369" data-name="Trazado 9369" d="M162.316,81.565s-3.725-7.418.291-11.964A11.051,11.051,0,0,1,162.316,81.565Z" transform="translate(-149.48 -69.601)" fill="#fff"/>
    </g>
    <g id="Grupo_23650" data-name="Grupo 23650" transform="translate(210.144 45.413)">
      <path id="Trazado_9370" data-name="Trazado 9370" d="M315.46,59.968c-1.924,2.384-3.982,4.662-6.055,6.92-2.074-1.008-4.146-2.023-6.19-3.089a2.222,2.222,0,0,0-.9-.257,2.054,2.054,0,0,0-1.542.127c-2.244.323-4.5.559-6.758.749-1.243.1-2.161.143-3.014,1.188-1.347,1.651-2.419,3.613-3.606,5.385-1.533,2.29,2.164,4.43,3.688,2.155l2.99-4.466q2.648-.22,5.285-.547c-1.3,7.325-3.047,15.164-6.688,21.589a35.237,35.237,0,0,1-5.234-3.572c-2.108-1.729-5.147,1.276-3.019,3.019a38.387,38.387,0,0,0,7.978,5.2,2.2,2.2,0,0,0,2.921-.766,44.122,44.122,0,0,0,4.655-9.88q2.495,1.259,4.992,2.513c-.733,2.28-1.627,4.5-2.531,6.722-1.034,2.544,3.1,3.652,4.118,1.135a76.929,76.929,0,0,0,3.04-8.383A2.162,2.162,0,0,0,308.6,83.3c-2.468-1.223-4.919-2.48-7.382-3.716.977-3.6,1.708-7.267,2.338-10.83q2.623,1.315,5.265,2.592a2.2,2.2,0,0,0,2.587-.334c2.412-2.618,4.83-5.25,7.067-8.022C320.189,60.868,317.186,57.828,315.46,59.968Z" transform="translate(-283.69 -53.172)" fill="#fff"/>
      <path id="Trazado_9371" data-name="Trazado 9371" d="M307.693,60.24a4.72,4.72,0,1,0-4.6-4.839A4.719,4.719,0,0,0,307.693,60.24Z" transform="translate(-289.14 -50.803)" fill="#fff"/>
    </g>
    <path id="Trazado_9372" data-name="Trazado 9372" d="M426.155,141.091a9.56,9.56,0,0,0-10.172,3.509,9.559,9.559,0,0,0-18.726-1.473,15.206,15.206,0,0,0-.05,7.639l7.086,1.906,3.889-6.695a.936.936,0,0,1,1.033-.439l.019.005a.935.935,0,0,1,.691.864l.456,10.724,3.908-7.023a.946.946,0,0,1,1.069-.447.936.936,0,0,1,.683.935l-.15,4.151,4.333,1.165a.935.935,0,0,1-.485,1.806l-5.051-1.358a.935.935,0,0,1-.692-.937l.036-1.005-3.627,6.519a.934.934,0,0,1-1.033.455l-.028-.006a.935.935,0,0,1-.691-.864l-.46-10.837-2.64,4.547a.935.935,0,0,1-1.052.434l-6.652-1.789c3.126,8.556,11.818,14.905,11.818,14.905s19.922-2.917,23.2-14.949A9.563,9.563,0,0,0,426.155,141.091Z" transform="translate(-105.303 -29.343)" fill="#fff"/>
  </g>
</svg>
