<svg xmlns="http://www.w3.org/2000/svg" width="775" height="786.205" viewBox="0 0 775 786.205">
  <g id="Grupo_23716" data-name="Grupo 23716" transform="translate(-296 -3978)">
    <path id="Polígono_9" data-name="Polígono 9" d="M362,0,724,626H0Z" transform="translate(321 4060)" fill="#ffe5ef"/>
    <g id="Grupo_23086" data-name="Grupo 23086" transform="translate(342.989 3908.439)">
      <path id="Trazado_4139" data-name="Trazado 4139" d="M501.363,507.208a211.437,211.437,0,0,1-337.883,0L332.422,380.07Z" transform="translate(8.024 39.926)" fill="#b5cffa"/>
      <path id="Trazado_4140" data-name="Trazado 4140" d="M511.956,420a210.453,210.453,0,0,1-42.494,127.138L300.52,420V208.56C417.29,208.56,511.956,303.226,511.956,420Z" transform="translate(39.926 0)" fill="#d6e5ff"/>
      <path id="Trazado_4141" data-name="Trazado 4141" d="M340.446,208.56V420L171.5,547.134A210.452,210.452,0,0,1,129.01,420C129.01,303.226,223.676,208.56,340.446,208.56Z" transform="translate(0 0)" fill="#c6dbff"/>
    </g>
    <path id="Trazado_9507" data-name="Trazado 9507" d="M-51.748,0V-14.219h5.205a5.8,5.8,0,0,1,4.2,1.636,5.583,5.583,0,0,1,1.689,4.194V-5.83a5.579,5.579,0,0,1-1.689,4.2A5.809,5.809,0,0,1-46.543,0Zm3.3-11.68v9.141h1.9a2.262,2.262,0,0,0,1.851-.918,3.705,3.705,0,0,0,.728-2.373V-8.408a3.673,3.673,0,0,0-.728-2.354,2.262,2.262,0,0,0-1.851-.918ZM-35.186,0h-3.291V-14.219h3.291Zm9.8-3.77a1.418,1.418,0,0,0-.5-1.167A6.46,6.46,0,0,0-27.686-5.8a13.713,13.713,0,0,1-3.931-1.831,3.3,3.3,0,0,1-1.284-2.8,3.43,3.43,0,0,1,1.494-2.891,6.225,6.225,0,0,1,3.8-1.1,6.267,6.267,0,0,1,3.916,1.138,3.688,3.688,0,0,1,1.436,3.208l-.02.059h-3.2a1.794,1.794,0,0,0-.547-1.46,2.54,2.54,0,0,0-1.65-.454,2.118,2.118,0,0,0-1.416.439,1.368,1.368,0,0,0-.518,1.084,1.168,1.168,0,0,0,.532,1,10.391,10.391,0,0,0,1.987.942A10.591,10.591,0,0,1-23.35-6.68a3.557,3.557,0,0,1,1.27,2.891A3.421,3.421,0,0,1-23.545-.854,6.49,6.49,0,0,1-27.432.205,7.1,7.1,0,0,1-31.519-.933a3.917,3.917,0,0,1-1.626-3.579l.02-.059h3.213a2.213,2.213,0,0,0,.61,1.763,2.825,2.825,0,0,0,1.87.522,2.426,2.426,0,0,0,1.543-.41A1.315,1.315,0,0,0-25.381-3.77Zm8.4-1.1V0h-3.3V-14.219h5.43A5.91,5.91,0,0,1-10.84-12.93,4.271,4.271,0,0,1-9.355-9.541,4.256,4.256,0,0,1-10.84-6.157a5.925,5.925,0,0,1-4.014,1.284Zm0-2.539h2.129A2.167,2.167,0,0,0-13.213-8a2.1,2.1,0,0,0,.566-1.519,2.193,2.193,0,0,0-.562-1.553,2.135,2.135,0,0,0-1.646-.605h-2.129ZM.781-6.084h-5.01v3.545H1.777V0H-7.529V-14.219H1.787v2.539H-4.229v3.057H.781Zm6.152.635V0h-3.3V-14.219H8.584A6.147,6.147,0,0,1,12.5-13.076a3.768,3.768,0,0,1,1.445,3.125,3.112,3.112,0,0,1-.581,1.895A4.12,4.12,0,0,1,11.65-6.768a3.182,3.182,0,0,1,1.88,1.235A3.824,3.824,0,0,1,14.1-3.379v.9a5.669,5.669,0,0,0,.166,1.27A1.68,1.68,0,0,0,14.844-.2V0H11.436a1.6,1.6,0,0,1-.508-1.064A9.463,9.463,0,0,1,10.811-2.5v-.859a2.1,2.1,0,0,0-.537-1.553A2.131,2.131,0,0,0,8.7-5.449Zm0-2.539H8.6a2.27,2.27,0,0,0,1.523-.454,1.627,1.627,0,0,0,.527-1.3,1.876,1.876,0,0,0-.542-1.4,2.089,2.089,0,0,0-1.528-.532H6.934ZM23.721-3.77a1.418,1.418,0,0,0-.5-1.167A6.46,6.46,0,0,0,21.416-5.8a13.713,13.713,0,0,1-3.931-1.831,3.3,3.3,0,0,1-1.284-2.8A3.43,3.43,0,0,1,17.7-13.32a6.225,6.225,0,0,1,3.8-1.1,6.267,6.267,0,0,1,3.916,1.138,3.688,3.688,0,0,1,1.436,3.208l-.02.059h-3.2a1.794,1.794,0,0,0-.547-1.46,2.54,2.54,0,0,0-1.65-.454,2.118,2.118,0,0,0-1.416.439,1.368,1.368,0,0,0-.518,1.084,1.168,1.168,0,0,0,.532,1,10.391,10.391,0,0,0,1.987.942,10.591,10.591,0,0,1,3.74,1.787,3.557,3.557,0,0,1,1.27,2.891A3.421,3.421,0,0,1,25.557-.854,6.49,6.49,0,0,1,21.67.205,7.1,7.1,0,0,1,17.583-.933a3.917,3.917,0,0,1-1.626-3.579l.02-.059h3.213a2.213,2.213,0,0,0,.61,1.763,2.825,2.825,0,0,0,1.87.522,2.426,2.426,0,0,0,1.543-.41A1.315,1.315,0,0,0,23.721-3.77ZM36.26-2.764H32.031L31.211,0H27.734l4.639-14.219h1.768v.01l.01-.01h1.768L40.566,0H37.09ZM32.793-5.3H35.5L34.17-9.717h-.059ZM48.916-3.77a1.418,1.418,0,0,0-.5-1.167A6.46,6.46,0,0,0,46.611-5.8a13.713,13.713,0,0,1-3.931-1.831,3.3,3.3,0,0,1-1.284-2.8,3.43,3.43,0,0,1,1.494-2.891,6.225,6.225,0,0,1,3.8-1.1,6.267,6.267,0,0,1,3.916,1.138,3.688,3.688,0,0,1,1.436,3.208l-.02.059h-3.2a1.794,1.794,0,0,0-.547-1.46,2.54,2.54,0,0,0-1.65-.454,2.118,2.118,0,0,0-1.416.439,1.368,1.368,0,0,0-.518,1.084,1.168,1.168,0,0,0,.532,1,10.391,10.391,0,0,0,1.987.942,10.591,10.591,0,0,1,3.74,1.787,3.557,3.557,0,0,1,1.27,2.891A3.421,3.421,0,0,1,50.752-.854,6.49,6.49,0,0,1,46.865.205,7.1,7.1,0,0,1,42.778-.933a3.917,3.917,0,0,1-1.626-3.579l.02-.059h3.213A2.213,2.213,0,0,0,45-2.808a2.825,2.825,0,0,0,1.87.522,2.426,2.426,0,0,0,1.543-.41A1.315,1.315,0,0,0,48.916-3.77Z" transform="translate(573 4343)" fill="#12263f"/>
    <path id="Trazado_9508" data-name="Trazado 9508" d="M-39-5.449V0h-3.3V-14.219h4.951a6.147,6.147,0,0,1,3.916,1.143,3.768,3.768,0,0,1,1.445,3.125,3.112,3.112,0,0,1-.581,1.895,4.12,4.12,0,0,1-1.714,1.289,3.182,3.182,0,0,1,1.88,1.235,3.824,3.824,0,0,1,.571,2.153v.9a5.669,5.669,0,0,0,.166,1.27A1.68,1.68,0,0,0-31.094-.2V0H-34.5a1.6,1.6,0,0,1-.508-1.064A9.463,9.463,0,0,1-35.127-2.5v-.859a2.1,2.1,0,0,0-.537-1.553,2.131,2.131,0,0,0-1.572-.537Zm0-2.539h1.67a2.27,2.27,0,0,0,1.523-.454,1.627,1.627,0,0,0,.527-1.3,1.876,1.876,0,0,0-.542-1.4,2.089,2.089,0,0,0-1.528-.532H-39Zm21.1-6.23V-5a4.755,4.755,0,0,1-1.621,3.823A6.292,6.292,0,0,1-23.75.205a6.361,6.361,0,0,1-4.258-1.382A4.742,4.742,0,0,1-29.639-5v-9.219h3.311V-5a2.679,2.679,0,0,0,.684,1.992,2.582,2.582,0,0,0,1.895.674A2.528,2.528,0,0,0-21.88-3a2.711,2.711,0,0,0,.669-2v-9.219Zm5.488,8.77V0h-3.3V-14.219h4.951a6.147,6.147,0,0,1,3.916,1.143A3.768,3.768,0,0,1-5.4-9.951a3.112,3.112,0,0,1-.581,1.895A4.12,4.12,0,0,1-7.7-6.768a3.182,3.182,0,0,1,1.88,1.235,3.824,3.824,0,0,1,.571,2.153v.9a5.669,5.669,0,0,0,.166,1.27A1.68,1.68,0,0,0-4.5-.2V0H-7.91a1.6,1.6,0,0,1-.508-1.064A9.463,9.463,0,0,1-8.535-2.5v-.859a2.1,2.1,0,0,0-.537-1.553,2.131,2.131,0,0,0-1.572-.537Zm0-2.539h1.67a2.27,2.27,0,0,0,1.523-.454,1.627,1.627,0,0,0,.527-1.3,1.876,1.876,0,0,0-.542-1.4,2.089,2.089,0,0,0-1.528-.532h-1.65ZM4.482-2.764H.254L-.566,0H-4.043L.6-14.219H2.363v.01l.01-.01H4.141L8.789,0H5.313ZM1.016-5.3H3.721L2.393-9.717H2.334Zm12.09,2.764h6.1V0H9.8V-14.219h3.3ZM29.287-6.084h-5.01v3.545h6.006V0H20.977V-14.219h9.316v2.539H24.277v3.057h5.01ZM39.473-3.77a1.418,1.418,0,0,0-.5-1.167A6.46,6.46,0,0,0,37.168-5.8a13.713,13.713,0,0,1-3.931-1.831,3.3,3.3,0,0,1-1.284-2.8,3.43,3.43,0,0,1,1.494-2.891,6.225,6.225,0,0,1,3.8-1.1,6.267,6.267,0,0,1,3.916,1.138A3.688,3.688,0,0,1,42.6-10.078l-.02.059h-3.2a1.794,1.794,0,0,0-.547-1.46,2.54,2.54,0,0,0-1.65-.454,2.118,2.118,0,0,0-1.416.439,1.368,1.368,0,0,0-.518,1.084,1.168,1.168,0,0,0,.532,1,10.391,10.391,0,0,0,1.987.942A10.591,10.591,0,0,1,41.5-6.68a3.557,3.557,0,0,1,1.27,2.891A3.421,3.421,0,0,1,41.309-.854,6.49,6.49,0,0,1,37.422.205,7.1,7.1,0,0,1,33.335-.933a3.917,3.917,0,0,1-1.626-3.579l.02-.059h3.213a2.213,2.213,0,0,0,.61,1.763,2.825,2.825,0,0,0,1.87.522,2.426,2.426,0,0,0,1.543-.41A1.315,1.315,0,0,0,39.473-3.77Z" transform="translate(798 4348)" fill="#12263f"/>
    <path id="Trazado_9509" data-name="Trazado 9509" d="M-33.018-14.219V-5a4.755,4.755,0,0,1-1.621,3.823A6.292,6.292,0,0,1-38.867.205a6.361,6.361,0,0,1-4.258-1.382A4.742,4.742,0,0,1-44.756-5v-9.219h3.311V-5a2.679,2.679,0,0,0,.684,1.992,2.582,2.582,0,0,0,1.895.674A2.528,2.528,0,0,0-37-3a2.711,2.711,0,0,0,.669-2v-9.219Zm5.488,8.77V0h-3.3V-14.219h4.951a6.147,6.147,0,0,1,3.916,1.143,3.768,3.768,0,0,1,1.445,3.125A3.112,3.112,0,0,1-21.1-8.057a4.12,4.12,0,0,1-1.714,1.289,3.182,3.182,0,0,1,1.88,1.235,3.824,3.824,0,0,1,.571,2.153v.9a5.669,5.669,0,0,0,.166,1.27A1.68,1.68,0,0,0-19.619-.2V0h-3.408a1.6,1.6,0,0,1-.508-1.064A9.463,9.463,0,0,1-23.652-2.5v-.859a2.1,2.1,0,0,0-.537-1.553,2.131,2.131,0,0,0-1.572-.537Zm0-2.539h1.67a2.27,2.27,0,0,0,1.523-.454,1.627,1.627,0,0,0,.527-1.3,1.876,1.876,0,0,0-.542-1.4,2.089,2.089,0,0,0-1.528-.532h-1.65ZM-18.076,0V-14.219h4.658a7.415,7.415,0,0,1,4.126.981,3.279,3.279,0,0,1,1.479,2.925,3.45,3.45,0,0,1-.469,1.8A2.887,2.887,0,0,1-9.746-7.324a2.956,2.956,0,0,1,1.88,1.133,3.337,3.337,0,0,1,.61,1.982,3.708,3.708,0,0,1-1.4,3.145,6.5,6.5,0,0,1-4,1.064Zm3.3-6.1v3.564h2.119a2.529,2.529,0,0,0,1.582-.415,1.522,1.522,0,0,0,.527-1.274,1.878,1.878,0,0,0-.464-1.377,2.178,2.178,0,0,0-1.528-.5h-2.236Zm0-2.187h1.3A3.088,3.088,0,0,0-11.7-8.706a1.415,1.415,0,0,0,.586-1.235,1.53,1.53,0,0,0-.566-1.323,2.949,2.949,0,0,0-1.738-.415h-1.357ZM2.119-2.764H-2.109L-2.93,0H-6.406l4.639-14.219H0v.01l.01-.01H1.777L6.426,0H2.949ZM-1.348-5.3H1.357L.029-9.717H-.029ZM19.3,0H16.006L10.8-8.945l-.059.02V0h-3.3V-14.219h3.3l5.205,8.936.059-.02v-8.916H19.3ZM29.18-2.764H24.951L24.131,0H20.654l4.639-14.219h1.768v.01l.01-.01h1.768L33.486,0H30.01ZM25.713-5.3h2.705L27.09-9.717h-.059ZM41.836-3.77a1.418,1.418,0,0,0-.5-1.167A6.46,6.46,0,0,0,39.531-5.8,13.713,13.713,0,0,1,35.6-7.632a3.3,3.3,0,0,1-1.284-2.8,3.43,3.43,0,0,1,1.494-2.891,6.225,6.225,0,0,1,3.8-1.1,6.267,6.267,0,0,1,3.916,1.138,3.688,3.688,0,0,1,1.436,3.208l-.02.059h-3.2a1.794,1.794,0,0,0-.547-1.46,2.54,2.54,0,0,0-1.65-.454,2.118,2.118,0,0,0-1.416.439,1.368,1.368,0,0,0-.518,1.084,1.168,1.168,0,0,0,.532,1,10.391,10.391,0,0,0,1.987.942,10.591,10.591,0,0,1,3.74,1.787,3.557,3.557,0,0,1,1.27,2.891A3.421,3.421,0,0,1,43.672-.854,6.49,6.49,0,0,1,39.785.205,7.1,7.1,0,0,1,35.7-.933a3.917,3.917,0,0,1-1.626-3.579l.02-.059H37.3a2.213,2.213,0,0,0,.61,1.763,2.825,2.825,0,0,0,1.87.522,2.426,2.426,0,0,0,1.543-.41A1.315,1.315,0,0,0,41.836-3.77Z" transform="translate(683 4490)" fill="#12263f"/>
    <rect id="Rectángulo_5358" data-name="Rectángulo 5358" width="226" height="86" rx="10" transform="translate(570 4531)" fill="#ffae54"/>
    <path id="Trazado_9510" data-name="Trazado 9510" d="M-72.905-2.76h-4.148L-77.915,0H-80.6l4.315-12.8h2.628l4.3,12.8h-2.681Zm-3.516-2.013h2.892l-1.415-4.509H-75Zm11.03-7.066V-9.51h1.608v1.8h-1.608v4.843a1.105,1.105,0,0,0,.233.791.818.818,0,0,0,.611.237,2.45,2.45,0,0,0,.352-.022,2.961,2.961,0,0,0,.343-.075l.211,1.854a5.2,5.2,0,0,1-.751.2,4.48,4.48,0,0,1-.8.066,2.735,2.735,0,0,1-2.043-.729,3.2,3.2,0,0,1-.716-2.312V-7.708h-1.389v-1.8h1.389v-2.329ZM-58.078.185A4.279,4.279,0,0,1-61.4-1.121a4.784,4.784,0,0,1-1.2-3.362v-.352a5.207,5.207,0,0,1,1.16-3.5,3.944,3.944,0,0,1,3.19-1.354,3.692,3.692,0,0,1,2.94,1.173,4.637,4.637,0,0,1,1.024,3.16v1.327H-59.95l-.026.053a2.569,2.569,0,0,0,.593,1.582,1.987,1.987,0,0,0,1.578.606,5.279,5.279,0,0,0,1.463-.176A5.971,5.971,0,0,0-55.1-2.5L-54.4-.914a4.764,4.764,0,0,1-1.547.782A6.86,6.86,0,0,1-58.078.185Zm-.167-7.893a1.425,1.425,0,0,0-1.191.532,2.667,2.667,0,0,0-.505,1.411l.018.044h3.129v-.193a2.221,2.221,0,0,0-.343-1.314A1.268,1.268,0,0,0-58.245-7.708Zm7.8-1.8.114,1.362a3.478,3.478,0,0,1,1.169-1.134,3.034,3.034,0,0,1,1.556-.4,2.828,2.828,0,0,1,2.25.927,4.4,4.4,0,0,1,.809,2.931V0h-2.575V-5.818a2.277,2.277,0,0,0-.356-1.446,1.312,1.312,0,0,0-1.068-.426,2.241,2.241,0,0,0-1.006.215,1.965,1.965,0,0,0-.716.593V0h-2.566V-9.51Zm11.786,7.726a1.428,1.428,0,0,0,1.063-.4,1.452,1.452,0,0,0,.4-1.068h2.338l.018.053A2.976,2.976,0,0,1-35.912-.787a4.01,4.01,0,0,1-2.742.971,4.052,4.052,0,0,1-3.261-1.349,5.128,5.128,0,0,1-1.151-3.45v-.264a5.161,5.161,0,0,1,1.147-3.45,4.016,4.016,0,0,1,3.248-1.358,3.922,3.922,0,0,1,2.8,1A3.348,3.348,0,0,1-34.84-6.047l-.018.053H-37.2a1.9,1.9,0,0,0-.391-1.226,1.314,1.314,0,0,0-1.085-.488,1.465,1.465,0,0,0-1.411.8A4.362,4.362,0,0,0-40.5-4.878v.264a4.346,4.346,0,0,0,.417,2.048A1.485,1.485,0,0,0-38.654-1.784ZM-30.647,0h-2.566V-9.51h2.566Zm0-11.786h-2.566v-1.925h2.566Zm1.714,6.943a5.1,5.1,0,0,1,1.187-3.485A4.136,4.136,0,0,1-24.46-9.686a4.18,4.18,0,0,1,3.3,1.354,5.076,5.076,0,0,1,1.2,3.489v.185a5.084,5.084,0,0,1-1.191,3.494A4.162,4.162,0,0,1-24.442.185a4.173,4.173,0,0,1-3.3-1.349,5.084,5.084,0,0,1-1.191-3.494Zm2.558.185a4.137,4.137,0,0,0,.457,2.087,1.578,1.578,0,0,0,1.477.787,1.562,1.562,0,0,0,1.455-.791,4.11,4.11,0,0,0,.461-2.083v-.185a4.068,4.068,0,0,0-.466-2.065,1.576,1.576,0,0,0-1.468-.8,1.557,1.557,0,0,0-1.455.8,4.1,4.1,0,0,0-.461,2.061Zm2.435-8.912h2.856l.018.053L-23.5-11.232H-25.69Zm7.91,4.061.114,1.362a3.478,3.478,0,0,1,1.169-1.134,3.034,3.034,0,0,1,1.556-.4,2.828,2.828,0,0,1,2.25.927,4.4,4.4,0,0,1,.809,2.931V0h-2.575V-5.818a2.277,2.277,0,0,0-.356-1.446,1.312,1.312,0,0,0-1.068-.426,2.241,2.241,0,0,0-1.006.215,1.965,1.965,0,0,0-.716.593V0h-2.566V-9.51ZM-.976-4.641V0H-3.542V-12.8h4.9a5.04,5.04,0,0,1,3.472,1.125A3.772,3.772,0,0,1,6.091-8.71,3.745,3.745,0,0,1,4.825-5.757,5.066,5.066,0,0,1,1.354-4.641Zm0-1.978H1.354A2.135,2.135,0,0,0,2.979-7.2a2.079,2.079,0,0,0,.554-1.49,2.176,2.176,0,0,0-.549-1.525,2.1,2.1,0,0,0-1.63-.6H-.976ZM12.735-7.3l-.94-.026a1.709,1.709,0,0,0-.94.237,1.5,1.5,0,0,0-.562.668V0H7.734V-9.51h2.382L10.23-8.1A3,3,0,0,1,11.1-9.268a1.93,1.93,0,0,1,1.226-.417,1.918,1.918,0,0,1,.356.031q.163.031.33.075ZM16.77,0H14.2V-9.51H16.77Zm0-11.786H14.2v-1.925H16.77ZM21.261-9.51l.105,1.257a3.2,3.2,0,0,1,1.147-1.059,3.3,3.3,0,0,1,1.6-.374,2.905,2.905,0,0,1,1.564.4,2.494,2.494,0,0,1,.984,1.222,3.3,3.3,0,0,1,1.143-1.2,3.1,3.1,0,0,1,1.652-.431,2.71,2.71,0,0,1,2.219,1,4.762,4.762,0,0,1,.813,3.045V0H29.918V-5.651a2.665,2.665,0,0,0-.352-1.591,1.248,1.248,0,0,0-1.046-.448,1.792,1.792,0,0,0-.945.242,1.761,1.761,0,0,0-.637.672q0,.167.009.286t.009.242V0H24.4V-5.651a2.673,2.673,0,0,0-.352-1.578,1.242,1.242,0,0,0-1.055-.461,1.991,1.991,0,0,0-.91.2,1.745,1.745,0,0,0-.646.558V0H18.879V-9.51ZM40.061,0a5.4,5.4,0,0,1-.242-.686,4.769,4.769,0,0,1-.145-.738A3.518,3.518,0,0,1,38.628-.272a2.621,2.621,0,0,1-1.547.457,3.211,3.211,0,0,1-2.3-.769,2.755,2.755,0,0,1-.809-2.1,2.508,2.508,0,0,1,1.077-2.167,5.377,5.377,0,0,1,3.142-.769H39.63v-.756a1.48,1.48,0,0,0-.36-1.063A1.414,1.414,0,0,0,38.2-7.813a1.394,1.394,0,0,0-.962.3,1.059,1.059,0,0,0-.338.831h-2.47l-.018-.053a2.412,2.412,0,0,1,1.05-2.079,4.562,4.562,0,0,1,2.9-.875,4.257,4.257,0,0,1,2.773.861A3,3,0,0,1,42.2-6.354v3.929a7.431,7.431,0,0,0,.1,1.257A6.307,6.307,0,0,0,42.618,0ZM37.714-1.714a2.187,2.187,0,0,0,1.2-.334,1.8,1.8,0,0,0,.721-.773V-4.166H38.188a1.708,1.708,0,0,0-1.235.4,1.329,1.329,0,0,0-.417.993A.992.992,0,0,0,36.848-2,1.234,1.234,0,0,0,37.714-1.714ZM49.122-7.3l-.94-.026a1.709,1.709,0,0,0-.94.237,1.5,1.5,0,0,0-.562.668V0H44.121V-9.51H46.5L46.617-8.1a3,3,0,0,1,.866-1.165,1.93,1.93,0,0,1,1.226-.417,1.918,1.918,0,0,1,.356.031q.163.031.33.075ZM53.156,0H50.59V-9.51h2.566Zm0-11.786H50.59v-1.925h2.566ZM60.873,0a5.4,5.4,0,0,1-.242-.686,4.769,4.769,0,0,1-.145-.738A3.518,3.518,0,0,1,59.44-.272a2.621,2.621,0,0,1-1.547.457,3.211,3.211,0,0,1-2.3-.769,2.755,2.755,0,0,1-.809-2.1,2.508,2.508,0,0,1,1.077-2.167A5.377,5.377,0,0,1,59-5.616h1.441v-.756a1.48,1.48,0,0,0-.36-1.063,1.414,1.414,0,0,0-1.072-.378,1.394,1.394,0,0,0-.962.3,1.059,1.059,0,0,0-.338.831h-2.47l-.018-.053a2.412,2.412,0,0,1,1.05-2.079,4.562,4.562,0,0,1,2.9-.875,4.257,4.257,0,0,1,2.773.861,3,3,0,0,1,1.059,2.47v3.929a7.431,7.431,0,0,0,.1,1.257A6.307,6.307,0,0,0,63.431,0ZM58.526-1.714a2.187,2.187,0,0,0,1.2-.334,1.8,1.8,0,0,0,.721-.773V-4.166H59a1.708,1.708,0,0,0-1.235.4,1.329,1.329,0,0,0-.417.993A.992.992,0,0,0,57.661-2,1.234,1.234,0,0,0,58.526-1.714ZM74.892-4.482H69.715V-6.46h5.177ZM-50.045,20.66a1.5,1.5,0,0,0-.514-1.187,5.166,5.166,0,0,0-1.806-.844,10.264,10.264,0,0,1-3.362-1.573,2.977,2.977,0,0,1-1.147-2.47,3.106,3.106,0,0,1,1.292-2.571,5.236,5.236,0,0,1,3.3-1,5.2,5.2,0,0,1,3.423,1.072A3.354,3.354,0,0,1-47.61,14.9l-.018.053h-2.487a1.864,1.864,0,0,0-.58-1.472,2.369,2.369,0,0,0-1.626-.514,2.148,2.148,0,0,0-1.468.457,1.488,1.488,0,0,0-.519,1.169,1.277,1.277,0,0,0,.563,1.068,7.525,7.525,0,0,0,1.942.883,8.357,8.357,0,0,1,3.217,1.56,3.2,3.2,0,0,1,1.107,2.536,3.052,3.052,0,0,1-1.283,2.593,5.571,5.571,0,0,1-3.393.949A6.062,6.062,0,0,1-55.7,23.156a3.392,3.392,0,0,1-1.437-3.067l.018-.053h2.487a2.013,2.013,0,0,0,.668,1.67,2.812,2.812,0,0,0,1.811.536,2.471,2.471,0,0,0,1.569-.431A1.4,1.4,0,0,0-50.045,20.66Zm9.87,3.34a5.4,5.4,0,0,1-.242-.686,4.769,4.769,0,0,1-.145-.738,3.518,3.518,0,0,1-1.046,1.151,2.621,2.621,0,0,1-1.547.457,3.211,3.211,0,0,1-2.3-.769,2.755,2.755,0,0,1-.809-2.1,2.508,2.508,0,0,1,1.077-2.167,5.377,5.377,0,0,1,3.142-.769h1.441v-.756a1.48,1.48,0,0,0-.36-1.063,1.414,1.414,0,0,0-1.072-.378,1.394,1.394,0,0,0-.962.3,1.059,1.059,0,0,0-.338.831h-2.47l-.018-.053a2.412,2.412,0,0,1,1.05-2.079,4.562,4.562,0,0,1,2.9-.875,4.257,4.257,0,0,1,2.773.861,3,3,0,0,1,1.059,2.47v3.929a7.431,7.431,0,0,0,.1,1.257A6.307,6.307,0,0,0-37.617,24Zm-2.347-1.714a2.187,2.187,0,0,0,1.2-.334,1.8,1.8,0,0,0,.721-.773V19.834h-1.441a1.708,1.708,0,0,0-1.235.4,1.329,1.329,0,0,0-.417.993.992.992,0,0,0,.312.769A1.234,1.234,0,0,0-42.521,22.286ZM-33.416,24h-2.566V10.289h2.566Zm7.937-1.406A3.229,3.229,0,0,1-26.6,23.771a2.959,2.959,0,0,1-1.573.413,2.892,2.892,0,0,1-2.351-1.02A4.89,4.89,0,0,1-31.368,20V14.49h2.558v5.528a3.07,3.07,0,0,0,.338,1.709,1.216,1.216,0,0,0,1.05.461,2.557,2.557,0,0,0,1.055-.2,1.778,1.778,0,0,0,.721-.584V14.49h2.566V24h-2.127Zm3.938-3.27a6.18,6.18,0,0,1,.971-3.63,3.154,3.154,0,0,1,2.738-1.38,2.663,2.663,0,0,1,1.283.308,3.087,3.087,0,0,1,1,.879V10.289h2.575V24h-2.188l-.22-1.169a3.179,3.179,0,0,1-1.063,1.006,2.812,2.812,0,0,1-1.406.347,3.215,3.215,0,0,1-2.72-1.283,5.479,5.479,0,0,1-.971-3.393Zm2.558.185a3.874,3.874,0,0,0,.422,1.964,1.469,1.469,0,0,0,1.371.716,2,2,0,0,0,.967-.224,1.788,1.788,0,0,0,.677-.655V17.259a1.975,1.975,0,0,0-.672-.7,1.788,1.788,0,0,0-.954-.25,1.448,1.448,0,0,0-1.375.835,4.718,4.718,0,0,0-.435,2.18Zm20.153-.826H-3.744V24H-6.311V11.2H2.065v1.978h-5.81v3.524H1.169ZM8.815,24a5.4,5.4,0,0,1-.242-.686,4.769,4.769,0,0,1-.145-.738,3.518,3.518,0,0,1-1.046,1.151,2.621,2.621,0,0,1-1.547.457,3.211,3.211,0,0,1-2.3-.769,2.755,2.755,0,0,1-.809-2.1A2.508,2.508,0,0,1,3.8,19.153a5.377,5.377,0,0,1,3.142-.769H8.385v-.756a1.48,1.48,0,0,0-.36-1.063,1.414,1.414,0,0,0-1.072-.378,1.394,1.394,0,0,0-.962.3,1.059,1.059,0,0,0-.338.831H3.182l-.018-.053a2.412,2.412,0,0,1,1.05-2.079,4.562,4.562,0,0,1,2.9-.875,4.257,4.257,0,0,1,2.773.861,3,3,0,0,1,1.059,2.47v3.929a7.43,7.43,0,0,0,.1,1.257A6.307,6.307,0,0,0,11.373,24ZM6.469,22.286a2.187,2.187,0,0,0,1.2-.334,1.8,1.8,0,0,0,.721-.773V19.834H6.943a1.708,1.708,0,0,0-1.235.4,1.329,1.329,0,0,0-.417.993A.992.992,0,0,0,5.6,22,1.234,1.234,0,0,0,6.469,22.286Zm8.789-7.8.105,1.257a3.2,3.2,0,0,1,1.147-1.059,3.3,3.3,0,0,1,1.6-.374,2.905,2.905,0,0,1,1.564.4,2.494,2.494,0,0,1,.984,1.222,3.3,3.3,0,0,1,1.143-1.2,3.1,3.1,0,0,1,1.652-.431,2.71,2.71,0,0,1,2.219,1,4.762,4.762,0,0,1,.813,3.045V24H23.915V18.349a2.665,2.665,0,0,0-.352-1.591,1.248,1.248,0,0,0-1.046-.448,1.792,1.792,0,0,0-.945.242,1.761,1.761,0,0,0-.637.672q0,.167.009.286t.009.242V24H18.4V18.349a2.673,2.673,0,0,0-.352-1.578,1.242,1.242,0,0,0-1.055-.461,1.991,1.991,0,0,0-.91.2,1.745,1.745,0,0,0-.646.558V24H12.876V14.49ZM31.148,24H28.582V14.49h2.566Zm0-11.786H28.582V10.289h2.566ZM35.956,24H33.39V10.289h2.566Zm4.808,0H38.2V14.49h2.566Zm0-11.786H38.2V10.289h2.566ZM48.48,24a5.4,5.4,0,0,1-.242-.686,4.769,4.769,0,0,1-.145-.738,3.518,3.518,0,0,1-1.046,1.151,2.621,2.621,0,0,1-1.547.457,3.211,3.211,0,0,1-2.3-.769,2.755,2.755,0,0,1-.809-2.1,2.508,2.508,0,0,1,1.077-2.167,5.377,5.377,0,0,1,3.142-.769H48.05v-.756a1.48,1.48,0,0,0-.36-1.063,1.414,1.414,0,0,0-1.072-.378,1.394,1.394,0,0,0-.962.3,1.059,1.059,0,0,0-.338.831h-2.47l-.018-.053a2.412,2.412,0,0,1,1.05-2.079,4.562,4.562,0,0,1,2.9-.875,4.257,4.257,0,0,1,2.773.861,3,3,0,0,1,1.059,2.47v3.929a7.431,7.431,0,0,0,.1,1.257A6.307,6.307,0,0,0,51.038,24Zm-2.347-1.714a2.187,2.187,0,0,0,1.2-.334,1.8,1.8,0,0,0,.721-.773V19.834H46.608a1.708,1.708,0,0,0-1.235.4,1.329,1.329,0,0,0-.417.993.992.992,0,0,0,.312.769A1.234,1.234,0,0,0,46.134,22.286ZM57.542,16.7l-.94-.026a1.709,1.709,0,0,0-.94.237,1.5,1.5,0,0,0-.562.668V24H52.541V14.49h2.382l.114,1.406a3,3,0,0,1,.866-1.165,2.022,2.022,0,0,1,1.582-.387q.163.031.33.075Z" transform="translate(683 4567)" fill="#fff"/>
    <g id="Elipse_1307" data-name="Elipse 1307" transform="translate(321 4014)" fill="none" stroke="#12263f" stroke-width="2" stroke-dasharray="10">
      <circle cx="360" cy="360" r="360" stroke="none"/>
      <circle cx="360" cy="360" r="359" fill="none"/>
    </g>
    <rect id="Rectángulo_5353" data-name="Rectángulo 5353" width="176" height="86" rx="10" transform="translate(595 3978)" fill="#00348d"/>
    <path id="Trazado_9504" data-name="Trazado 9504" d="M-27.061-6.084h-5.01v3.545h6.006V0h-9.307V-14.219h9.316v2.539H-32.07v3.057h5.01Zm5.693-4.482.127,1.484a3.825,3.825,0,0,1,1.279-1.235,3.31,3.31,0,0,1,1.7-.444,2.979,2.979,0,0,1,2.427,1.055,5.218,5.218,0,0,1,.874,3.35V0h-3.3V-6.367A2.421,2.421,0,0,0-18.584-7.8a1.1,1.1,0,0,0-.937-.425,2.32,2.32,0,0,0-.947.186,1.891,1.891,0,0,0-.7.527V0h-3.291V-10.566Zm11.992-2.627v2.627h1.67v2.285h-1.67v4.844a1.185,1.185,0,0,0,.229.815.8.8,0,0,0,.62.249,3.318,3.318,0,0,0,.405-.02,3.509,3.509,0,0,0,.386-.078L-7.51-.029a7.968,7.968,0,0,1-.9.181,7.236,7.236,0,0,1-.947.054,3.3,3.3,0,0,1-2.476-.869,3.836,3.836,0,0,1-.845-2.754V-8.281H-14.15v-2.285h1.475v-2.627ZM-2.646,0H-5.957V-10.566h3.311Zm0-13.018H-5.957v-2.217h3.311Zm1.582,7.754A6.719,6.719,0,0,1,.015-9.248a3.518,3.518,0,0,1,3.042-1.514,2.623,2.623,0,0,1,1.323.337,3.5,3.5,0,0,1,1.06.962v-5.771h3.3V0H5.85L5.625-1.289A3.553,3.553,0,0,1,4.507-.181a2.79,2.79,0,0,1-1.47.386A3.552,3.552,0,0,1,.01-1.24,6.248,6.248,0,0,1-1.064-5.059Zm3.3.205a4.388,4.388,0,0,0,.376,2.007,1.314,1.314,0,0,0,1.265.718,2.081,2.081,0,0,0,.913-.19,1.636,1.636,0,0,0,.649-.562V-7.354A1.8,1.8,0,0,0,4.795-8a1.77,1.77,0,0,0-.9-.225,1.317,1.317,0,0,0-1.27.811,4.989,4.989,0,0,0-.391,2.148ZM16.719-.01A3.986,3.986,0,0,1,16.4-.762a5.765,5.765,0,0,1-.2-.879A4.038,4.038,0,0,1,15.142-.3a2.558,2.558,0,0,1-1.646.5,3.659,3.659,0,0,1-2.583-.854A3.019,3.019,0,0,1,9.99-2.979a2.817,2.817,0,0,1,1.182-2.427,6.126,6.126,0,0,1,3.584-.854h1.357v-.752a1.505,1.505,0,0,0-.322-1.035,1.255,1.255,0,0,0-.986-.361,1.19,1.19,0,0,0-.854.269,1.114,1.114,0,0,0-.278.835l-3.2-.01-.02-.059A2.756,2.756,0,0,1,11.655-9.79a5.4,5.4,0,0,1,3.364-.972,4.921,4.921,0,0,1,3.179.977,3.375,3.375,0,0,1,1.216,2.793v3.984a8.128,8.128,0,0,0,.142,1.563A8.368,8.368,0,0,0,19.98,0ZM14.395-2.148a2.011,2.011,0,0,0,1.069-.283,1.621,1.621,0,0,0,.649-.674V-4.5H14.785a1.492,1.492,0,0,0-1.143.381,1.37,1.37,0,0,0-.352.967.935.935,0,0,0,.308.728A1.141,1.141,0,0,0,14.395-2.148Zm6.387-3.115A6.719,6.719,0,0,1,21.86-9.248,3.518,3.518,0,0,1,24.9-10.762a2.623,2.623,0,0,1,1.323.337,3.5,3.5,0,0,1,1.06.962v-5.771h3.3V0H27.7l-.225-1.289A3.553,3.553,0,0,1,26.353-.181a2.79,2.79,0,0,1-1.47.386A3.552,3.552,0,0,1,21.855-1.24a6.248,6.248,0,0,1-1.074-3.818Zm3.3.205a4.388,4.388,0,0,0,.376,2.007,1.314,1.314,0,0,0,1.265.718,2.081,2.081,0,0,0,.913-.19,1.636,1.636,0,0,0,.649-.562V-7.354A1.8,1.8,0,0,0,26.641-8a1.77,1.77,0,0,0-.9-.225,1.317,1.317,0,0,0-1.27.811,4.989,4.989,0,0,0-.391,2.148ZM-32.627,16.32h-3.76V28h-3.3V16.32h-3.691V13.781h10.752Zm4.961,11.885a4.906,4.906,0,0,1-3.765-1.455,5.174,5.174,0,0,1-1.362-3.682V22.7a5.912,5.912,0,0,1,1.284-3.945,4.562,4.562,0,0,1,3.716-1.514,4.279,4.279,0,0,1,3.315,1.279A4.98,4.98,0,0,1-23.3,22.023v1.729h-6.055l-.02.059a2.052,2.052,0,0,0,.615,1.343,2.148,2.148,0,0,0,1.543.513,6.687,6.687,0,0,0,1.577-.156,9.942,9.942,0,0,0,1.44-.5l.791,2.012a6.04,6.04,0,0,1-1.836.84A8.473,8.473,0,0,1-27.666,28.205Zm-.127-8.428a1.362,1.362,0,0,0-1.167.5,2.523,2.523,0,0,0-.435,1.362l.02.049h2.852v-.254a2.2,2.2,0,0,0-.288-1.24A1.1,1.1,0,0,0-27.793,19.777Zm11.729.469-1.074-.01a1.829,1.829,0,0,0-.928.21,1.3,1.3,0,0,0-.537.591V28h-3.3V17.434H-18.8l.117,1.553A3.186,3.186,0,0,1-17.8,17.7a1.929,1.929,0,0,1,1.279-.459,2.454,2.454,0,0,1,.4.029,3.029,3.029,0,0,1,.371.088Zm7.051,0-1.074-.01a1.829,1.829,0,0,0-.928.21,1.3,1.3,0,0,0-.537.591V28h-3.3V17.434h3.105l.117,1.553a3.186,3.186,0,0,1,.879-1.289,1.929,1.929,0,0,1,1.279-.459,2.454,2.454,0,0,1,.4.029,3.029,3.029,0,0,1,.371.088ZM-4.346,28H-7.656V17.434h3.311Zm0-13.018H-7.656V12.766h3.311Zm5.811-.176v2.627h1.67v2.285H1.465v4.844a1.185,1.185,0,0,0,.229.815.8.8,0,0,0,.62.249,3.318,3.318,0,0,0,.405-.02,3.509,3.509,0,0,0,.386-.078l.225,2.441a7.968,7.968,0,0,1-.9.181,7.236,7.236,0,0,1-.947.054,3.3,3.3,0,0,1-2.476-.869,3.836,3.836,0,0,1-.845-2.754V19.719H-3.311V17.434h1.475V14.807ZM4.3,22.619a5.585,5.585,0,0,1,1.348-3.882,4.8,4.8,0,0,1,3.76-1.5,4.808,4.808,0,0,1,3.77,1.5,5.585,5.585,0,0,1,1.348,3.882v.205a5.581,5.581,0,0,1-1.348,3.887,4.792,4.792,0,0,1-3.75,1.494,4.829,4.829,0,0,1-3.779-1.494A5.581,5.581,0,0,1,4.3,22.824Zm3.3.205a4.368,4.368,0,0,0,.415,2.085,1.477,1.477,0,0,0,1.411.757,1.459,1.459,0,0,0,1.387-.762,4.331,4.331,0,0,0,.42-2.08v-.205a4.347,4.347,0,0,0-.42-2.065A1.471,1.471,0,0,0,9.4,19.777a1.45,1.45,0,0,0-1.392.781A4.4,4.4,0,0,0,7.6,22.619Zm14.219-2.578-1.074-.01a1.829,1.829,0,0,0-.928.21,1.3,1.3,0,0,0-.537.591V28h-3.3V17.434h3.105l.117,1.553a3.186,3.186,0,0,1,.879-1.289,1.929,1.929,0,0,1,1.279-.459,2.454,2.454,0,0,1,.4.029,3.029,3.029,0,0,1,.371.088ZM26.484,28H23.174V17.434h3.311Zm0-13.018H23.174V12.766h3.311ZM34.609,27.99a3.986,3.986,0,0,1-.317-.752,5.765,5.765,0,0,1-.2-.879,4.038,4.038,0,0,1-1.06,1.343,2.558,2.558,0,0,1-1.646.5,3.659,3.659,0,0,1-2.583-.854,3.019,3.019,0,0,1-.923-2.329,2.817,2.817,0,0,1,1.182-2.427,6.126,6.126,0,0,1,3.584-.854H34v-.752a1.505,1.505,0,0,0-.322-1.035,1.255,1.255,0,0,0-.986-.361,1.19,1.19,0,0,0-.854.269,1.114,1.114,0,0,0-.278.835l-3.2-.01-.02-.059a2.756,2.756,0,0,1,1.206-2.417,5.4,5.4,0,0,1,3.364-.972,4.921,4.921,0,0,1,3.179.977A3.375,3.375,0,0,1,37.3,21.008v3.984a8.128,8.128,0,0,0,.142,1.563A8.368,8.368,0,0,0,37.871,28Zm-2.324-2.139a2.011,2.011,0,0,0,1.069-.283A1.621,1.621,0,0,0,34,24.895V23.5H32.676a1.492,1.492,0,0,0-1.143.381,1.37,1.37,0,0,0-.352.967.935.935,0,0,0,.308.728A1.141,1.141,0,0,0,32.285,25.852ZM42.568,28H39.258V12.766h3.311Z" transform="translate(683 4013)" fill="#fff"/>
    <rect id="Rectángulo_5354" data-name="Rectángulo 5354" width="176" height="86" rx="10" transform="translate(296 4617)" fill="#00348d"/>
    <path id="Trazado_9512" data-name="Trazado 9512" d="M-8.73-6.084h-5.01v3.545h6.006V0h-9.307V-14.219h9.316v2.539H-13.74v3.057h5.01Zm6.152,1.211V0h-3.3V-14.219h5.43A5.91,5.91,0,0,1,3.564-12.93,4.271,4.271,0,0,1,5.049-9.541,4.256,4.256,0,0,1,3.564-6.157,5.925,5.925,0,0,1-.449-4.873Zm0-2.539H-.449A2.167,2.167,0,0,0,1.191-8a2.1,2.1,0,0,0,.566-1.519A2.193,2.193,0,0,0,1.2-11.074,2.135,2.135,0,0,0-.449-11.68H-2.578ZM14.209-3.77a1.418,1.418,0,0,0-.5-1.167A6.46,6.46,0,0,0,11.9-5.8,13.713,13.713,0,0,1,7.974-7.632a3.3,3.3,0,0,1-1.284-2.8A3.43,3.43,0,0,1,8.184-13.32a6.225,6.225,0,0,1,3.8-1.1A6.267,6.267,0,0,1,15.9-13.286a3.688,3.688,0,0,1,1.436,3.208l-.02.059h-3.2a1.794,1.794,0,0,0-.547-1.46,2.54,2.54,0,0,0-1.65-.454,2.118,2.118,0,0,0-1.416.439A1.368,1.368,0,0,0,9.98-10.41a1.168,1.168,0,0,0,.532,1,10.391,10.391,0,0,0,1.987.942A10.591,10.591,0,0,1,16.24-6.68a3.557,3.557,0,0,1,1.27,2.891A3.421,3.421,0,0,1,16.045-.854,6.49,6.49,0,0,1,12.158.205,7.1,7.1,0,0,1,8.071-.933,3.917,3.917,0,0,1,6.445-4.512l.02-.059H9.678a2.213,2.213,0,0,0,.61,1.763,2.825,2.825,0,0,0,1.87.522A2.426,2.426,0,0,0,13.7-2.7,1.315,1.315,0,0,0,14.209-3.77Z" transform="translate(384 4667)" fill="#fff"/>
    <rect id="Rectángulo_5355" data-name="Rectángulo 5355" width="176" height="86" rx="10" transform="translate(895 4617)" fill="#00348d"/>
    <path id="Trazado_9513" data-name="Trazado 9513" d="M-38.691,0h-3.291V-14.219h3.291Zm5.771-4.873V0h-3.3V-14.219h5.43a5.91,5.91,0,0,1,4.014,1.289,4.271,4.271,0,0,1,1.484,3.389,4.256,4.256,0,0,1-1.484,3.384,5.925,5.925,0,0,1-4.014,1.284Zm0-2.539h2.129A2.167,2.167,0,0,0-29.15-8a2.1,2.1,0,0,0,.566-1.519,2.193,2.193,0,0,0-.562-1.553,2.135,2.135,0,0,0-1.646-.605H-32.92ZM-16.133-3.77a1.418,1.418,0,0,0-.5-1.167A6.46,6.46,0,0,0-18.437-5.8a13.713,13.713,0,0,1-3.931-1.831,3.3,3.3,0,0,1-1.284-2.8,3.43,3.43,0,0,1,1.494-2.891,6.225,6.225,0,0,1,3.8-1.1,6.267,6.267,0,0,1,3.916,1.138,3.688,3.688,0,0,1,1.436,3.208l-.02.059h-3.2a1.794,1.794,0,0,0-.547-1.46,2.54,2.54,0,0,0-1.65-.454,2.118,2.118,0,0,0-1.416.439,1.368,1.368,0,0,0-.518,1.084,1.168,1.168,0,0,0,.532,1,10.391,10.391,0,0,0,1.987.942A10.591,10.591,0,0,1-14.1-6.68a3.557,3.557,0,0,1,1.27,2.891A3.421,3.421,0,0,1-14.3-.854,6.49,6.49,0,0,1-18.184.205,7.1,7.1,0,0,1-22.271-.933,3.917,3.917,0,0,1-23.9-4.512l.02-.059h3.213a2.213,2.213,0,0,0,.61,1.763,2.825,2.825,0,0,0,1.87.522,2.426,2.426,0,0,0,1.543-.41A1.315,1.315,0,0,0-16.133-3.77ZM-.117-4.854H-5.869V-7.4H-.117Zm10.889-.6V0h-3.3V-14.219h4.951a6.147,6.147,0,0,1,3.916,1.143,3.768,3.768,0,0,1,1.445,3.125A3.112,3.112,0,0,1,17.2-8.057a4.12,4.12,0,0,1-1.714,1.289,3.182,3.182,0,0,1,1.88,1.235,3.824,3.824,0,0,1,.571,2.153v.9a5.669,5.669,0,0,0,.166,1.27A1.68,1.68,0,0,0,18.682-.2V0H15.273a1.6,1.6,0,0,1-.508-1.064A9.463,9.463,0,0,1,14.648-2.5v-.859a2.1,2.1,0,0,0-.537-1.553,2.131,2.131,0,0,0-1.572-.537Zm0-2.539h1.67a2.27,2.27,0,0,0,1.523-.454,1.627,1.627,0,0,0,.527-1.3,1.876,1.876,0,0,0-.542-1.4,2.089,2.089,0,0,0-1.528-.532h-1.65Zm17.764,1.9h-5.01v3.545h6.006V0H20.225V-14.219h9.316v2.539H23.525v3.057h5.01ZM31.387,0V-14.219h5.205a5.8,5.8,0,0,1,4.2,1.636A5.583,5.583,0,0,1,42.48-8.389V-5.83a5.579,5.579,0,0,1-1.689,4.2A5.809,5.809,0,0,1,36.592,0Zm3.3-11.68v9.141h1.9a2.262,2.262,0,0,0,1.851-.918A3.705,3.705,0,0,0,39.17-5.83V-8.408a3.673,3.673,0,0,0-.728-2.354,2.262,2.262,0,0,0-1.851-.918Z" transform="translate(983 4667)" fill="#fff"/>
    <path id="Trazado_9511" data-name="Trazado 9511" d="M-149.717-1.963a5.933,5.933,0,0,1-2.09,1.533,8.165,8.165,0,0,1-3.467.635,5.87,5.87,0,0,1-4.3-1.621,5.64,5.64,0,0,1-1.65-4.209V-8.594a5.731,5.731,0,0,1,1.606-4.2,5.553,5.553,0,0,1,4.136-1.631,6.094,6.094,0,0,1,4.116,1.216,4.053,4.053,0,0,1,1.343,3.325l-.02.059h-3.1a2,2,0,0,0-.557-1.553,2.422,2.422,0,0,0-1.68-.508,2.233,2.233,0,0,0-1.855.908,3.752,3.752,0,0,0-.7,2.363v2.988a3.8,3.8,0,0,0,.7,2.388,2.333,2.333,0,0,0,1.958.9,5.522,5.522,0,0,0,1.431-.146,2.293,2.293,0,0,0,.825-.391V-5.41h-2.52V-7.6h5.82Zm6.475,2.168a4.906,4.906,0,0,1-3.765-1.455,5.174,5.174,0,0,1-1.362-3.682V-5.3a5.912,5.912,0,0,1,1.284-3.945,4.562,4.562,0,0,1,3.716-1.514,4.279,4.279,0,0,1,3.315,1.279,4.98,4.98,0,0,1,1.177,3.506v1.729h-6.055l-.02.059a2.052,2.052,0,0,0,.615,1.343,2.148,2.148,0,0,0,1.543.513,6.687,6.687,0,0,0,1.577-.156,9.942,9.942,0,0,0,1.44-.5l.791,2.012a6.04,6.04,0,0,1-1.836.84A8.473,8.473,0,0,1-143.242.205Zm-.127-8.428a1.362,1.362,0,0,0-1.167.5,2.523,2.523,0,0,0-.435,1.362l.02.049h2.852v-.254a2.2,2.2,0,0,0-.288-1.24A1.1,1.1,0,0,0-143.369-8.223Zm11.4,5.254a.862.862,0,0,0-.444-.7,4.792,4.792,0,0,0-1.616-.552,6.38,6.38,0,0,1-2.783-1.118,2.533,2.533,0,0,1-.937-2.085,2.971,2.971,0,0,1,1.172-2.368,4.82,4.82,0,0,1,3.174-.972,5.45,5.45,0,0,1,3.359.942,2.771,2.771,0,0,1,1.191,2.437l-.02.059h-3.2a1.309,1.309,0,0,0-.312-.947,1.383,1.383,0,0,0-1.025-.322,1.341,1.341,0,0,0-.869.283.888.888,0,0,0-.352.723.86.86,0,0,0,.405.713,4.584,4.584,0,0,0,1.636.527,6.571,6.571,0,0,1,2.871,1.138,2.609,2.609,0,0,1,.928,2.144,2.8,2.8,0,0,1-1.265,2.349,5.547,5.547,0,0,1-3.345.923,5.016,5.016,0,0,1-3.413-1.094,3.013,3.013,0,0,1-1.2-2.441l.02-.059h2.988a1.325,1.325,0,0,0,.454,1.084,2,2,0,0,0,1.235.332,1.649,1.649,0,0,0,1.006-.259A.87.87,0,0,0-131.973-2.969Zm8.516-10.225v2.627h1.67v2.285h-1.67v4.844a1.185,1.185,0,0,0,.229.815.8.8,0,0,0,.62.249,3.318,3.318,0,0,0,.405-.02,3.509,3.509,0,0,0,.386-.078l.225,2.441a7.968,7.968,0,0,1-.9.181,7.236,7.236,0,0,1-.947.054,3.3,3.3,0,0,1-2.476-.869,3.836,3.836,0,0,1-.845-2.754V-8.281h-1.475v-2.285h1.475v-2.627ZM-116.729,0h-3.311V-10.566h3.311Zm0-13.018h-3.311v-2.217h3.311Zm1.582,7.637A5.585,5.585,0,0,1-113.8-9.263a4.8,4.8,0,0,1,3.76-1.5,4.808,4.808,0,0,1,3.77,1.5,5.585,5.585,0,0,1,1.348,3.882v.205a5.581,5.581,0,0,1-1.348,3.887A4.792,4.792,0,0,1-110.02.205,4.829,4.829,0,0,1-113.8-1.289a5.581,5.581,0,0,1-1.348-3.887Zm3.3.205a4.368,4.368,0,0,0,.415,2.085,1.477,1.477,0,0,0,1.411.757,1.459,1.459,0,0,0,1.387-.762,4.331,4.331,0,0,0,.42-2.08v-.205a4.347,4.347,0,0,0-.42-2.065,1.471,1.471,0,0,0-1.406-.776,1.45,1.45,0,0,0-1.392.781,4.4,4.4,0,0,0-.415,2.061Zm2.207-9.912h3.623l.02.059-2.744,2.539h-2.91Zm9.209,4.521.127,1.484a3.825,3.825,0,0,1,1.279-1.235,3.31,3.31,0,0,1,1.7-.444A2.979,2.979,0,0,1-94.9-9.707a5.218,5.218,0,0,1,.874,3.35V0h-3.3V-6.367A2.421,2.421,0,0,0-97.646-7.8a1.1,1.1,0,0,0-.937-.425,2.32,2.32,0,0,0-.947.186,1.891,1.891,0,0,0-.7.527V0h-3.291V-10.566ZM-83.555,0h-3.291V-14.219h3.291Zm5.313-10.566.127,1.484a3.825,3.825,0,0,1,1.279-1.235,3.31,3.31,0,0,1,1.7-.444A2.979,2.979,0,0,1-72.71-9.707a5.218,5.218,0,0,1,.874,3.35V0h-3.3V-6.367A2.421,2.421,0,0,0-75.459-7.8a1.1,1.1,0,0,0-.937-.425,2.32,2.32,0,0,0-.947.186,1.891,1.891,0,0,0-.7.527V0h-3.291V-10.566Zm11.992-2.627v2.627h1.67v2.285h-1.67v4.844a1.185,1.185,0,0,0,.229.815.8.8,0,0,0,.62.249A3.318,3.318,0,0,0-65-2.393a3.509,3.509,0,0,0,.386-.078l.225,2.441a7.968,7.968,0,0,1-.9.181,7.236,7.236,0,0,1-.947.054,3.3,3.3,0,0,1-2.476-.869,3.836,3.836,0,0,1-.845-2.754V-8.281h-1.475v-2.285h1.475v-2.627Zm7.959,13.4A4.906,4.906,0,0,1-62.056-1.25a5.174,5.174,0,0,1-1.362-3.682V-5.3a5.912,5.912,0,0,1,1.284-3.945,4.562,4.562,0,0,1,3.716-1.514A4.279,4.279,0,0,1-55.1-9.482a4.98,4.98,0,0,1,1.177,3.506v1.729H-59.98l-.02.059a2.052,2.052,0,0,0,.615,1.343,2.148,2.148,0,0,0,1.543.513,6.687,6.687,0,0,0,1.577-.156,9.942,9.942,0,0,0,1.44-.5l.791,2.012a6.04,6.04,0,0,1-1.836.84A8.473,8.473,0,0,1-58.291.205Zm-.127-8.428a1.362,1.362,0,0,0-1.167.5,2.523,2.523,0,0,0-.435,1.362l.02.049h2.852v-.254a2.2,2.2,0,0,0-.288-1.24A1.1,1.1,0,0,0-58.418-8.223Zm5.439,2.959A6.719,6.719,0,0,1-51.9-9.248a3.518,3.518,0,0,1,3.042-1.514,2.712,2.712,0,0,1,1.465.4A3.492,3.492,0,0,1-46.3-9.248l.215-1.318h2.91V-.117A3.913,3.913,0,0,1-44.6,3.12a6.133,6.133,0,0,1-3.94,1.147,7.086,7.086,0,0,1-1.719-.225,9.6,9.6,0,0,1-1.719-.605L-51.416,1a7.845,7.845,0,0,0,1.362.464,6.6,6.6,0,0,0,1.489.151A2.443,2.443,0,0,0-47,1.191a1.618,1.618,0,0,0,.513-1.328v-.82a3.018,3.018,0,0,1-1.04.869,3.005,3.005,0,0,1-1.353.293A3.552,3.552,0,0,1-51.9-1.24a6.248,6.248,0,0,1-1.074-3.818Zm3.291.205a4.388,4.388,0,0,0,.376,2.007,1.322,1.322,0,0,0,1.274.718,2.326,2.326,0,0,0,.923-.166,1.506,1.506,0,0,0,.63-.5V-7.441a1.643,1.643,0,0,0-.625-.581,1.928,1.928,0,0,0-.908-.2,1.326,1.326,0,0,0-1.274.815,4.942,4.942,0,0,0-.4,2.144Zm14.238-2.7-1.074-.01a1.829,1.829,0,0,0-.928.21,1.3,1.3,0,0,0-.537.591V0h-3.3V-10.566h3.105l.117,1.553a3.186,3.186,0,0,1,.879-1.289,1.929,1.929,0,0,1,1.279-.459,2.454,2.454,0,0,1,.4.029,3.029,3.029,0,0,1,.371.088ZM-28.135-.01a3.986,3.986,0,0,1-.317-.752,5.765,5.765,0,0,1-.2-.879A4.038,4.038,0,0,1-29.712-.3a2.558,2.558,0,0,1-1.646.5A3.659,3.659,0,0,1-33.94-.649a3.019,3.019,0,0,1-.923-2.329,2.817,2.817,0,0,1,1.182-2.427A6.126,6.126,0,0,1-30.1-6.26h1.357v-.752a1.505,1.505,0,0,0-.322-1.035,1.255,1.255,0,0,0-.986-.361,1.19,1.19,0,0,0-.854.269,1.114,1.114,0,0,0-.278.835l-3.2-.01-.02-.059A2.756,2.756,0,0,1-33.2-9.79a5.4,5.4,0,0,1,3.364-.972,4.921,4.921,0,0,1,3.179.977,3.375,3.375,0,0,1,1.216,2.793v3.984A8.128,8.128,0,0,0-25.3-1.445,8.368,8.368,0,0,0-24.873,0Zm-2.324-2.139a2.011,2.011,0,0,0,1.069-.283,1.621,1.621,0,0,0,.649-.674V-4.5h-1.328a1.492,1.492,0,0,0-1.143.381,1.37,1.37,0,0,0-.352.967.935.935,0,0,0,.308.728A1.141,1.141,0,0,0-30.459-2.148ZM-20.176,0h-3.311V-15.234h3.311Zm6.563-5.264a6.719,6.719,0,0,1,1.079-3.984,3.518,3.518,0,0,1,3.042-1.514,2.623,2.623,0,0,1,1.323.337,3.5,3.5,0,0,1,1.06.962v-5.771h3.3V0H-6.7l-.225-1.289A3.553,3.553,0,0,1-8.042-.181a2.79,2.79,0,0,1-1.47.386A3.552,3.552,0,0,1-12.539-1.24a6.248,6.248,0,0,1-1.074-3.818Zm3.3.205a4.388,4.388,0,0,0,.376,2.007,1.314,1.314,0,0,0,1.265.718,2.081,2.081,0,0,0,.913-.19,1.636,1.636,0,0,0,.649-.562V-7.354A1.8,1.8,0,0,0-7.754-8a1.77,1.77,0,0,0-.9-.225,1.317,1.317,0,0,0-1.27.811,4.989,4.989,0,0,0-.391,2.148ZM2.754.205A4.906,4.906,0,0,1-1.011-1.25,5.174,5.174,0,0,1-2.373-4.932V-5.3A5.912,5.912,0,0,1-1.089-9.248a4.562,4.562,0,0,1,3.716-1.514A4.279,4.279,0,0,1,5.942-9.482,4.98,4.98,0,0,1,7.119-5.977v1.729H1.064l-.02.059A2.052,2.052,0,0,0,1.66-2.847,2.148,2.148,0,0,0,3.2-2.334,6.687,6.687,0,0,0,4.78-2.49a9.942,9.942,0,0,0,1.44-.5L7.012-.977a6.04,6.04,0,0,1-1.836.84A8.473,8.473,0,0,1,2.754.205ZM2.627-8.223a1.362,1.362,0,0,0-1.167.5,2.523,2.523,0,0,0-.435,1.362l.02.049H3.9v-.254A2.2,2.2,0,0,0,3.608-7.8,1.1,1.1,0,0,0,2.627-8.223ZM11.973,0H8.662V-15.234h3.311Zm10.5-5.449V0h-3.3V-14.219h4.951a6.147,6.147,0,0,1,3.916,1.143,3.768,3.768,0,0,1,1.445,3.125A3.112,3.112,0,0,1,28.9-8.057a4.12,4.12,0,0,1-1.714,1.289,3.182,3.182,0,0,1,1.88,1.235,3.824,3.824,0,0,1,.571,2.153v.9a5.669,5.669,0,0,0,.166,1.27A1.68,1.68,0,0,0,30.381-.2V0H26.973a1.6,1.6,0,0,1-.508-1.064A9.463,9.463,0,0,1,26.348-2.5v-.859a2.1,2.1,0,0,0-.537-1.553,2.131,2.131,0,0,0-1.572-.537Zm0-2.539h1.67a2.27,2.27,0,0,0,1.523-.454,1.627,1.627,0,0,0,.527-1.3,1.876,1.876,0,0,0-.542-1.4,2.089,2.089,0,0,0-1.528-.532h-1.65ZM35.186,0H31.875V-10.566h3.311Zm0-13.018H31.875v-2.217h3.311ZM41.895.205A4.906,4.906,0,0,1,38.13-1.25a5.174,5.174,0,0,1-1.362-3.682V-5.3a5.912,5.912,0,0,1,1.284-3.945,4.562,4.562,0,0,1,3.716-1.514,4.279,4.279,0,0,1,3.315,1.279A4.98,4.98,0,0,1,46.26-5.977v1.729H40.205l-.02.059A2.052,2.052,0,0,0,40.8-2.847a2.148,2.148,0,0,0,1.543.513,6.687,6.687,0,0,0,1.577-.156,9.942,9.942,0,0,0,1.44-.5l.791,2.012a6.04,6.04,0,0,1-1.836.84A8.473,8.473,0,0,1,41.895.205Zm-.127-8.428a1.362,1.362,0,0,0-1.167.5,2.523,2.523,0,0,0-.435,1.362l.02.049h2.852v-.254a2.2,2.2,0,0,0-.288-1.24A1.1,1.1,0,0,0,41.768-8.223Zm11.4,5.254a.862.862,0,0,0-.444-.7A4.792,4.792,0,0,0,51.1-4.219,6.38,6.38,0,0,1,48.32-5.337a2.533,2.533,0,0,1-.937-2.085A2.971,2.971,0,0,1,48.555-9.79a4.82,4.82,0,0,1,3.174-.972,5.45,5.45,0,0,1,3.359.942,2.771,2.771,0,0,1,1.191,2.437l-.02.059h-3.2a1.309,1.309,0,0,0-.312-.947,1.383,1.383,0,0,0-1.025-.322,1.341,1.341,0,0,0-.869.283.888.888,0,0,0-.352.723.86.86,0,0,0,.405.713,4.584,4.584,0,0,0,1.636.527A6.571,6.571,0,0,1,55.41-5.21a2.609,2.609,0,0,1,.928,2.144A2.8,2.8,0,0,1,55.073-.718a5.547,5.547,0,0,1-3.345.923A5.016,5.016,0,0,1,48.315-.889a3.013,3.013,0,0,1-1.2-2.441l.02-.059h2.988A1.325,1.325,0,0,0,50.581-2.3a2,2,0,0,0,1.235.332,1.649,1.649,0,0,0,1.006-.259A.87.87,0,0,0,53.164-2.969Zm4.277-2.295a6.719,6.719,0,0,1,1.079-3.984,3.518,3.518,0,0,1,3.042-1.514,2.712,2.712,0,0,1,1.465.4,3.492,3.492,0,0,1,1.094,1.118l.215-1.318h2.91V-.117A3.913,3.913,0,0,1,65.815,3.12a6.133,6.133,0,0,1-3.94,1.147,7.086,7.086,0,0,1-1.719-.225,9.6,9.6,0,0,1-1.719-.605L59,1a7.845,7.845,0,0,0,1.362.464,6.6,6.6,0,0,0,1.489.151,2.443,2.443,0,0,0,1.567-.42,1.618,1.618,0,0,0,.513-1.328v-.82a3.018,3.018,0,0,1-1.04.869,3.005,3.005,0,0,1-1.353.293A3.552,3.552,0,0,1,58.516-1.24a6.248,6.248,0,0,1-1.074-3.818Zm3.291.205a4.388,4.388,0,0,0,.376,2.007,1.322,1.322,0,0,0,1.274.718,2.326,2.326,0,0,0,.923-.166,1.506,1.506,0,0,0,.63-.5V-7.441a1.643,1.643,0,0,0-.625-.581,1.928,1.928,0,0,0-.908-.2,1.326,1.326,0,0,0-1.274.815,4.942,4.942,0,0,0-.4,2.144Zm7.959-.322a5.585,5.585,0,0,1,1.348-3.882,4.8,4.8,0,0,1,3.76-1.5,4.808,4.808,0,0,1,3.77,1.5,5.585,5.585,0,0,1,1.348,3.882v.205a5.581,5.581,0,0,1-1.348,3.887A4.792,4.792,0,0,1,73.818.205a4.829,4.829,0,0,1-3.779-1.494,5.581,5.581,0,0,1-1.348-3.887Zm3.3.205a4.368,4.368,0,0,0,.415,2.085,1.477,1.477,0,0,0,1.411.757A1.459,1.459,0,0,0,75.205-3.1a4.331,4.331,0,0,0,.42-2.08v-.205a4.347,4.347,0,0,0-.42-2.065A1.471,1.471,0,0,0,73.8-8.223a1.45,1.45,0,0,0-1.392.781,4.4,4.4,0,0,0-.415,2.061ZM90.039.205A4.906,4.906,0,0,1,86.274-1.25a5.174,5.174,0,0,1-1.362-3.682V-5.3A5.912,5.912,0,0,1,86.2-9.248a4.562,4.562,0,0,1,3.716-1.514,4.279,4.279,0,0,1,3.315,1.279A4.98,4.98,0,0,1,94.4-5.977v1.729H88.35l-.02.059a2.052,2.052,0,0,0,.615,1.343,2.148,2.148,0,0,0,1.543.513,6.687,6.687,0,0,0,1.577-.156,9.942,9.942,0,0,0,1.44-.5L94.3-.977a6.04,6.04,0,0,1-1.836.84A8.473,8.473,0,0,1,90.039.205Zm-.127-8.428a1.362,1.362,0,0,0-1.167.5,2.523,2.523,0,0,0-.435,1.362l.02.049h2.852v-.254a2.2,2.2,0,0,0-.288-1.24A1.1,1.1,0,0,0,89.912-8.223Zm8.926-2.344.127,1.484a3.825,3.825,0,0,1,1.279-1.235,3.31,3.31,0,0,1,1.7-.444,2.979,2.979,0,0,1,2.427,1.055,5.218,5.218,0,0,1,.874,3.35V0h-3.3V-6.367a2.421,2.421,0,0,0-.322-1.431,1.1,1.1,0,0,0-.937-.425,2.32,2.32,0,0,0-.947.186,1.891,1.891,0,0,0-.7.527V0H95.742V-10.566Zm20.713,6.8a1.418,1.418,0,0,0-.5-1.167,6.46,6.46,0,0,0-1.807-.864,13.713,13.713,0,0,1-3.931-1.831,3.3,3.3,0,0,1-1.284-2.8,3.43,3.43,0,0,1,1.494-2.891,6.225,6.225,0,0,1,3.8-1.1,6.267,6.267,0,0,1,3.916,1.138,3.688,3.688,0,0,1,1.436,3.208l-.02.059h-3.2a1.794,1.794,0,0,0-.547-1.46,2.54,2.54,0,0,0-1.65-.454,2.118,2.118,0,0,0-1.416.439,1.368,1.368,0,0,0-.518,1.084,1.168,1.168,0,0,0,.532,1,10.391,10.391,0,0,0,1.987.942,10.591,10.591,0,0,1,3.74,1.787,3.557,3.557,0,0,1,1.27,2.891,3.421,3.421,0,0,1-1.465,2.935A6.49,6.49,0,0,1,117.5.205a7.1,7.1,0,0,1-4.087-1.138,3.917,3.917,0,0,1-1.626-3.579l.02-.059h3.213a2.213,2.213,0,0,0,.61,1.763,2.825,2.825,0,0,0,1.87.522,2.426,2.426,0,0,0,1.543-.41A1.315,1.315,0,0,0,119.551-3.77ZM130.557-.01a3.986,3.986,0,0,1-.317-.752,5.766,5.766,0,0,1-.2-.879A4.037,4.037,0,0,1,128.979-.3a2.558,2.558,0,0,1-1.646.5,3.659,3.659,0,0,1-2.583-.854,3.019,3.019,0,0,1-.923-2.329,2.817,2.817,0,0,1,1.182-2.427,6.126,6.126,0,0,1,3.584-.854h1.357v-.752a1.505,1.505,0,0,0-.322-1.035,1.255,1.255,0,0,0-.986-.361,1.19,1.19,0,0,0-.854.269,1.114,1.114,0,0,0-.278.835l-3.2-.01-.02-.059a2.756,2.756,0,0,1,1.206-2.417,5.4,5.4,0,0,1,3.364-.972,4.921,4.921,0,0,1,3.179.977,3.375,3.375,0,0,1,1.216,2.793v3.984a8.128,8.128,0,0,0,.142,1.563A8.369,8.369,0,0,0,133.818,0Zm-2.324-2.139a2.011,2.011,0,0,0,1.069-.283,1.621,1.621,0,0,0,.649-.674V-4.5h-1.328a1.492,1.492,0,0,0-1.143.381,1.37,1.37,0,0,0-.352.967.935.935,0,0,0,.308.728A1.141,1.141,0,0,0,128.232-2.148ZM138.516,0h-3.311V-15.234h3.311ZM146.9-1.582a3.473,3.473,0,0,1-1.216,1.323,3.2,3.2,0,0,1-1.724.464,3.129,3.129,0,0,1-2.573-1.152,5.618,5.618,0,0,1-.933-3.564v-6.055h3.291v6.074a3.2,3.2,0,0,0,.317,1.7,1.111,1.111,0,0,0,.981.459,2.694,2.694,0,0,0,.928-.146,1.793,1.793,0,0,0,.684-.439v-7.646h3.3V0H147.3Zm4.434-3.682a6.719,6.719,0,0,1,1.079-3.984,3.518,3.518,0,0,1,3.042-1.514,2.623,2.623,0,0,1,1.323.337,3.5,3.5,0,0,1,1.06.962v-5.771h3.3V0h-2.891l-.225-1.289a3.553,3.553,0,0,1-1.118,1.108,2.79,2.79,0,0,1-1.47.386,3.552,3.552,0,0,1-3.027-1.445,6.248,6.248,0,0,1-1.074-3.818Zm3.3.205a4.388,4.388,0,0,0,.376,2.007,1.314,1.314,0,0,0,1.265.718,2.081,2.081,0,0,0,.913-.19,1.636,1.636,0,0,0,.649-.562V-7.354A1.8,1.8,0,0,0,157.2-8a1.77,1.77,0,0,0-.9-.225,1.317,1.317,0,0,0-1.27.811,4.989,4.989,0,0,0-.391,2.148Z" transform="translate(683 4667)" fill="#12263f"/>
    <rect id="Rectángulo_5356" data-name="Rectángulo 5356" width="226" height="86" rx="10" transform="translate(324 4100)" fill="#f45b37"/>
    <path id="Trazado_9506" data-name="Trazado 9506" d="M-72.905-2.76h-4.148L-77.915,0H-80.6l4.315-12.8h2.628l4.3,12.8h-2.681Zm-3.516-2.013h2.892l-1.415-4.509H-75Zm11.03-7.066V-9.51h1.608v1.8h-1.608v4.843a1.105,1.105,0,0,0,.233.791.818.818,0,0,0,.611.237,2.45,2.45,0,0,0,.352-.022,2.961,2.961,0,0,0,.343-.075l.211,1.854a5.2,5.2,0,0,1-.751.2,4.48,4.48,0,0,1-.8.066,2.735,2.735,0,0,1-2.043-.729,3.2,3.2,0,0,1-.716-2.312V-7.708h-1.389v-1.8h1.389v-2.329ZM-58.078.185A4.279,4.279,0,0,1-61.4-1.121a4.784,4.784,0,0,1-1.2-3.362v-.352a5.207,5.207,0,0,1,1.16-3.5,3.944,3.944,0,0,1,3.19-1.354,3.692,3.692,0,0,1,2.94,1.173,4.637,4.637,0,0,1,1.024,3.16v1.327H-59.95l-.026.053a2.569,2.569,0,0,0,.593,1.582,1.987,1.987,0,0,0,1.578.606,5.279,5.279,0,0,0,1.463-.176A5.971,5.971,0,0,0-55.1-2.5L-54.4-.914a4.764,4.764,0,0,1-1.547.782A6.86,6.86,0,0,1-58.078.185Zm-.167-7.893a1.425,1.425,0,0,0-1.191.532,2.667,2.667,0,0,0-.505,1.411l.018.044h3.129v-.193a2.221,2.221,0,0,0-.343-1.314A1.268,1.268,0,0,0-58.245-7.708Zm7.8-1.8.114,1.362a3.478,3.478,0,0,1,1.169-1.134,3.034,3.034,0,0,1,1.556-.4,2.828,2.828,0,0,1,2.25.927,4.4,4.4,0,0,1,.809,2.931V0h-2.575V-5.818a2.277,2.277,0,0,0-.356-1.446,1.312,1.312,0,0,0-1.068-.426,2.241,2.241,0,0,0-1.006.215,1.965,1.965,0,0,0-.716.593V0h-2.566V-9.51Zm11.786,7.726a1.428,1.428,0,0,0,1.063-.4,1.452,1.452,0,0,0,.4-1.068h2.338l.018.053A2.976,2.976,0,0,1-35.912-.787a4.01,4.01,0,0,1-2.742.971,4.052,4.052,0,0,1-3.261-1.349,5.128,5.128,0,0,1-1.151-3.45v-.264a5.161,5.161,0,0,1,1.147-3.45,4.016,4.016,0,0,1,3.248-1.358,3.922,3.922,0,0,1,2.8,1A3.348,3.348,0,0,1-34.84-6.047l-.018.053H-37.2a1.9,1.9,0,0,0-.391-1.226,1.314,1.314,0,0,0-1.085-.488,1.465,1.465,0,0,0-1.411.8A4.362,4.362,0,0,0-40.5-4.878v.264a4.346,4.346,0,0,0,.417,2.048A1.485,1.485,0,0,0-38.654-1.784ZM-30.647,0h-2.566V-9.51h2.566Zm0-11.786h-2.566v-1.925h2.566Zm1.714,6.943a5.1,5.1,0,0,1,1.187-3.485A4.136,4.136,0,0,1-24.46-9.686a4.18,4.18,0,0,1,3.3,1.354,5.076,5.076,0,0,1,1.2,3.489v.185a5.084,5.084,0,0,1-1.191,3.494A4.162,4.162,0,0,1-24.442.185a4.173,4.173,0,0,1-3.3-1.349,5.084,5.084,0,0,1-1.191-3.494Zm2.558.185a4.137,4.137,0,0,0,.457,2.087,1.578,1.578,0,0,0,1.477.787,1.562,1.562,0,0,0,1.455-.791,4.11,4.11,0,0,0,.461-2.083v-.185a4.068,4.068,0,0,0-.466-2.065,1.576,1.576,0,0,0-1.468-.8,1.557,1.557,0,0,0-1.455.8,4.1,4.1,0,0,0-.461,2.061Zm2.435-8.912h2.856l.018.053L-23.5-11.232H-25.69Zm7.91,4.061.114,1.362a3.478,3.478,0,0,1,1.169-1.134,3.034,3.034,0,0,1,1.556-.4,2.828,2.828,0,0,1,2.25.927,4.4,4.4,0,0,1,.809,2.931V0h-2.575V-5.818a2.277,2.277,0,0,0-.356-1.446,1.312,1.312,0,0,0-1.068-.426,2.241,2.241,0,0,0-1.006.215,1.965,1.965,0,0,0-.716.593V0h-2.566V-9.51ZM-.976-4.641V0H-3.542V-12.8h4.9a5.04,5.04,0,0,1,3.472,1.125A3.772,3.772,0,0,1,6.091-8.71,3.745,3.745,0,0,1,4.825-5.757,5.066,5.066,0,0,1,1.354-4.641Zm0-1.978H1.354A2.135,2.135,0,0,0,2.979-7.2a2.079,2.079,0,0,0,.554-1.49,2.176,2.176,0,0,0-.549-1.525,2.1,2.1,0,0,0-1.63-.6H-.976ZM12.735-7.3l-.94-.026a1.709,1.709,0,0,0-.94.237,1.5,1.5,0,0,0-.562.668V0H7.734V-9.51h2.382L10.23-8.1A3,3,0,0,1,11.1-9.268a1.93,1.93,0,0,1,1.226-.417,1.918,1.918,0,0,1,.356.031q.163.031.33.075ZM16.77,0H14.2V-9.51H16.77Zm0-11.786H14.2v-1.925H16.77ZM21.261-9.51l.105,1.257a3.2,3.2,0,0,1,1.147-1.059,3.3,3.3,0,0,1,1.6-.374,2.905,2.905,0,0,1,1.564.4,2.494,2.494,0,0,1,.984,1.222,3.3,3.3,0,0,1,1.143-1.2,3.1,3.1,0,0,1,1.652-.431,2.71,2.71,0,0,1,2.219,1,4.762,4.762,0,0,1,.813,3.045V0H29.918V-5.651a2.665,2.665,0,0,0-.352-1.591,1.248,1.248,0,0,0-1.046-.448,1.792,1.792,0,0,0-.945.242,1.761,1.761,0,0,0-.637.672q0,.167.009.286t.009.242V0H24.4V-5.651a2.673,2.673,0,0,0-.352-1.578,1.242,1.242,0,0,0-1.055-.461,1.991,1.991,0,0,0-.91.2,1.745,1.745,0,0,0-.646.558V0H18.879V-9.51ZM40.061,0a5.4,5.4,0,0,1-.242-.686,4.769,4.769,0,0,1-.145-.738A3.518,3.518,0,0,1,38.628-.272a2.621,2.621,0,0,1-1.547.457,3.211,3.211,0,0,1-2.3-.769,2.755,2.755,0,0,1-.809-2.1,2.508,2.508,0,0,1,1.077-2.167,5.377,5.377,0,0,1,3.142-.769H39.63v-.756a1.48,1.48,0,0,0-.36-1.063A1.414,1.414,0,0,0,38.2-7.813a1.394,1.394,0,0,0-.962.3,1.059,1.059,0,0,0-.338.831h-2.47l-.018-.053a2.412,2.412,0,0,1,1.05-2.079,4.562,4.562,0,0,1,2.9-.875,4.257,4.257,0,0,1,2.773.861A3,3,0,0,1,42.2-6.354v3.929a7.431,7.431,0,0,0,.1,1.257A6.307,6.307,0,0,0,42.618,0ZM37.714-1.714a2.187,2.187,0,0,0,1.2-.334,1.8,1.8,0,0,0,.721-.773V-4.166H38.188a1.708,1.708,0,0,0-1.235.4,1.329,1.329,0,0,0-.417.993A.992.992,0,0,0,36.848-2,1.234,1.234,0,0,0,37.714-1.714ZM49.122-7.3l-.94-.026a1.709,1.709,0,0,0-.94.237,1.5,1.5,0,0,0-.562.668V0H44.121V-9.51H46.5L46.617-8.1a3,3,0,0,1,.866-1.165,1.93,1.93,0,0,1,1.226-.417,1.918,1.918,0,0,1,.356.031q.163.031.33.075ZM53.156,0H50.59V-9.51h2.566Zm0-11.786H50.59v-1.925h2.566ZM60.873,0a5.4,5.4,0,0,1-.242-.686,4.769,4.769,0,0,1-.145-.738A3.518,3.518,0,0,1,59.44-.272a2.621,2.621,0,0,1-1.547.457,3.211,3.211,0,0,1-2.3-.769,2.755,2.755,0,0,1-.809-2.1,2.508,2.508,0,0,1,1.077-2.167A5.377,5.377,0,0,1,59-5.616h1.441v-.756a1.48,1.48,0,0,0-.36-1.063,1.414,1.414,0,0,0-1.072-.378,1.394,1.394,0,0,0-.962.3,1.059,1.059,0,0,0-.338.831h-2.47l-.018-.053a2.412,2.412,0,0,1,1.05-2.079,4.562,4.562,0,0,1,2.9-.875,4.257,4.257,0,0,1,2.773.861,3,3,0,0,1,1.059,2.47v3.929a7.431,7.431,0,0,0,.1,1.257A6.307,6.307,0,0,0,63.431,0ZM58.526-1.714a2.187,2.187,0,0,0,1.2-.334,1.8,1.8,0,0,0,.721-.773V-4.166H59a1.708,1.708,0,0,0-1.235.4,1.329,1.329,0,0,0-.417.993A.992.992,0,0,0,57.661-2,1.234,1.234,0,0,0,58.526-1.714ZM74.892-4.482H69.715V-6.46h5.177ZM-50.045,20.66a1.5,1.5,0,0,0-.514-1.187,5.166,5.166,0,0,0-1.806-.844,10.264,10.264,0,0,1-3.362-1.573,2.977,2.977,0,0,1-1.147-2.47,3.106,3.106,0,0,1,1.292-2.571,5.236,5.236,0,0,1,3.3-1,5.2,5.2,0,0,1,3.423,1.072A3.354,3.354,0,0,1-47.61,14.9l-.018.053h-2.487a1.864,1.864,0,0,0-.58-1.472,2.369,2.369,0,0,0-1.626-.514,2.148,2.148,0,0,0-1.468.457,1.488,1.488,0,0,0-.519,1.169,1.277,1.277,0,0,0,.563,1.068,7.525,7.525,0,0,0,1.942.883,8.357,8.357,0,0,1,3.217,1.56,3.2,3.2,0,0,1,1.107,2.536,3.052,3.052,0,0,1-1.283,2.593,5.571,5.571,0,0,1-3.393.949A6.062,6.062,0,0,1-55.7,23.156a3.392,3.392,0,0,1-1.437-3.067l.018-.053h2.487a2.013,2.013,0,0,0,.668,1.67,2.812,2.812,0,0,0,1.811.536,2.471,2.471,0,0,0,1.569-.431A1.4,1.4,0,0,0-50.045,20.66Zm9.87,3.34a5.4,5.4,0,0,1-.242-.686,4.769,4.769,0,0,1-.145-.738,3.518,3.518,0,0,1-1.046,1.151,2.621,2.621,0,0,1-1.547.457,3.211,3.211,0,0,1-2.3-.769,2.755,2.755,0,0,1-.809-2.1,2.508,2.508,0,0,1,1.077-2.167,5.377,5.377,0,0,1,3.142-.769h1.441v-.756a1.48,1.48,0,0,0-.36-1.063,1.414,1.414,0,0,0-1.072-.378,1.394,1.394,0,0,0-.962.3,1.059,1.059,0,0,0-.338.831h-2.47l-.018-.053a2.412,2.412,0,0,1,1.05-2.079,4.562,4.562,0,0,1,2.9-.875,4.257,4.257,0,0,1,2.773.861,3,3,0,0,1,1.059,2.47v3.929a7.431,7.431,0,0,0,.1,1.257A6.307,6.307,0,0,0-37.617,24Zm-2.347-1.714a2.187,2.187,0,0,0,1.2-.334,1.8,1.8,0,0,0,.721-.773V19.834h-1.441a1.708,1.708,0,0,0-1.235.4,1.329,1.329,0,0,0-.417.993.992.992,0,0,0,.312.769A1.234,1.234,0,0,0-42.521,22.286ZM-33.416,24h-2.566V10.289h2.566Zm7.937-1.406A3.229,3.229,0,0,1-26.6,23.771a2.959,2.959,0,0,1-1.573.413,2.892,2.892,0,0,1-2.351-1.02A4.89,4.89,0,0,1-31.368,20V14.49h2.558v5.528a3.07,3.07,0,0,0,.338,1.709,1.216,1.216,0,0,0,1.05.461,2.557,2.557,0,0,0,1.055-.2,1.778,1.778,0,0,0,.721-.584V14.49h2.566V24h-2.127Zm3.938-3.27a6.18,6.18,0,0,1,.971-3.63,3.154,3.154,0,0,1,2.738-1.38,2.663,2.663,0,0,1,1.283.308,3.087,3.087,0,0,1,1,.879V10.289h2.575V24h-2.188l-.22-1.169a3.179,3.179,0,0,1-1.063,1.006,2.812,2.812,0,0,1-1.406.347,3.215,3.215,0,0,1-2.72-1.283,5.479,5.479,0,0,1-.971-3.393Zm2.558.185a3.874,3.874,0,0,0,.422,1.964,1.469,1.469,0,0,0,1.371.716,2,2,0,0,0,.967-.224,1.788,1.788,0,0,0,.677-.655V17.259a1.975,1.975,0,0,0-.672-.7,1.788,1.788,0,0,0-.954-.25,1.448,1.448,0,0,0-1.375.835,4.718,4.718,0,0,0-.435,2.18Zm20.153-.826H-3.744V24H-6.311V11.2H2.065v1.978h-5.81v3.524H1.169ZM8.815,24a5.4,5.4,0,0,1-.242-.686,4.769,4.769,0,0,1-.145-.738,3.518,3.518,0,0,1-1.046,1.151,2.621,2.621,0,0,1-1.547.457,3.211,3.211,0,0,1-2.3-.769,2.755,2.755,0,0,1-.809-2.1A2.508,2.508,0,0,1,3.8,19.153a5.377,5.377,0,0,1,3.142-.769H8.385v-.756a1.48,1.48,0,0,0-.36-1.063,1.414,1.414,0,0,0-1.072-.378,1.394,1.394,0,0,0-.962.3,1.059,1.059,0,0,0-.338.831H3.182l-.018-.053a2.412,2.412,0,0,1,1.05-2.079,4.562,4.562,0,0,1,2.9-.875,4.257,4.257,0,0,1,2.773.861,3,3,0,0,1,1.059,2.47v3.929a7.43,7.43,0,0,0,.1,1.257A6.307,6.307,0,0,0,11.373,24ZM6.469,22.286a2.187,2.187,0,0,0,1.2-.334,1.8,1.8,0,0,0,.721-.773V19.834H6.943a1.708,1.708,0,0,0-1.235.4,1.329,1.329,0,0,0-.417.993A.992.992,0,0,0,5.6,22,1.234,1.234,0,0,0,6.469,22.286Zm8.789-7.8.105,1.257a3.2,3.2,0,0,1,1.147-1.059,3.3,3.3,0,0,1,1.6-.374,2.905,2.905,0,0,1,1.564.4,2.494,2.494,0,0,1,.984,1.222,3.3,3.3,0,0,1,1.143-1.2,3.1,3.1,0,0,1,1.652-.431,2.71,2.71,0,0,1,2.219,1,4.762,4.762,0,0,1,.813,3.045V24H23.915V18.349a2.665,2.665,0,0,0-.352-1.591,1.248,1.248,0,0,0-1.046-.448,1.792,1.792,0,0,0-.945.242,1.761,1.761,0,0,0-.637.672q0,.167.009.286t.009.242V24H18.4V18.349a2.673,2.673,0,0,0-.352-1.578,1.242,1.242,0,0,0-1.055-.461,1.991,1.991,0,0,0-.91.2,1.745,1.745,0,0,0-.646.558V24H12.876V14.49ZM31.148,24H28.582V14.49h2.566Zm0-11.786H28.582V10.289h2.566ZM35.956,24H33.39V10.289h2.566Zm4.808,0H38.2V14.49h2.566Zm0-11.786H38.2V10.289h2.566ZM48.48,24a5.4,5.4,0,0,1-.242-.686,4.769,4.769,0,0,1-.145-.738,3.518,3.518,0,0,1-1.046,1.151,2.621,2.621,0,0,1-1.547.457,3.211,3.211,0,0,1-2.3-.769,2.755,2.755,0,0,1-.809-2.1,2.508,2.508,0,0,1,1.077-2.167,5.377,5.377,0,0,1,3.142-.769H48.05v-.756a1.48,1.48,0,0,0-.36-1.063,1.414,1.414,0,0,0-1.072-.378,1.394,1.394,0,0,0-.962.3,1.059,1.059,0,0,0-.338.831h-2.47l-.018-.053a2.412,2.412,0,0,1,1.05-2.079,4.562,4.562,0,0,1,2.9-.875,4.257,4.257,0,0,1,2.773.861,3,3,0,0,1,1.059,2.47v3.929a7.431,7.431,0,0,0,.1,1.257A6.307,6.307,0,0,0,51.038,24Zm-2.347-1.714a2.187,2.187,0,0,0,1.2-.334,1.8,1.8,0,0,0,.721-.773V19.834H46.608a1.708,1.708,0,0,0-1.235.4,1.329,1.329,0,0,0-.417.993.992.992,0,0,0,.312.769A1.234,1.234,0,0,0,46.134,22.286ZM57.542,16.7l-.94-.026a1.709,1.709,0,0,0-.94.237,1.5,1.5,0,0,0-.562.668V24H52.541V14.49h2.382l.114,1.406a3,3,0,0,1,.866-1.165,2.022,2.022,0,0,1,1.582-.387q.163.031.33.075Z" transform="translate(437 4136)" fill="#fff"/>
    <rect id="Rectángulo_5357" data-name="Rectángulo 5357" width="226" height="86" rx="10" transform="translate(814 4100)" fill="#fc923c"/>
    <path id="Trazado_9505" data-name="Trazado 9505" d="M-22.509-4.236l.018.053A4.006,4.006,0,0,1-23.739-.976,5.089,5.089,0,0,1-27.281.185,4.906,4.906,0,0,1-31-1.3a5.312,5.312,0,0,1-1.415-3.828v-2.54a5.41,5.41,0,0,1,1.38-3.828,4.7,4.7,0,0,1,3.621-1.49,5.4,5.4,0,0,1,3.656,1.143,3.934,3.934,0,0,1,1.283,3.217l-.018.053h-2.5a2.516,2.516,0,0,0-.593-1.833,2.474,2.474,0,0,0-1.833-.6,2.069,2.069,0,0,0-1.8.927,4.1,4.1,0,0,0-.646,2.4v2.558a3.98,3.98,0,0,0,.681,2.408,2.214,2.214,0,0,0,1.894.932,2.253,2.253,0,0,0,1.718-.6A2.619,2.619,0,0,0-25-4.236Zm7.488,2.83A3.229,3.229,0,0,1-16.137-.229,2.959,2.959,0,0,1-17.71.185a2.892,2.892,0,0,1-2.351-1.02A4.89,4.89,0,0,1-20.909-4V-9.51h2.558v5.528a3.07,3.07,0,0,0,.338,1.709,1.216,1.216,0,0,0,1.05.461,2.557,2.557,0,0,0,1.055-.2,1.778,1.778,0,0,0,.721-.584V-9.51h2.566V0h-2.127ZM-7.989,0h-2.566V-9.51h2.566Zm0-11.786h-2.566v-1.925h2.566Zm1.714,7.11A6.18,6.18,0,0,1-5.3-8.306a3.154,3.154,0,0,1,2.738-1.38,2.663,2.663,0,0,1,1.283.308,3.087,3.087,0,0,1,1,.879v-5.212H2.294V0H.105l-.22-1.169A3.179,3.179,0,0,1-1.178-.163,2.812,2.812,0,0,1-2.584.185,3.215,3.215,0,0,1-5.3-1.1a5.479,5.479,0,0,1-.971-3.393Zm2.558.185A3.874,3.874,0,0,0-3.3-2.527a1.469,1.469,0,0,0,1.371.716,2,2,0,0,0,.967-.224,1.788,1.788,0,0,0,.677-.655V-6.741a1.975,1.975,0,0,0-.672-.7,1.788,1.788,0,0,0-.954-.25,1.448,1.448,0,0,0-1.375.835,4.718,4.718,0,0,0-.435,2.18ZM9.888,0a5.4,5.4,0,0,1-.242-.686A4.769,4.769,0,0,1,9.5-1.424,3.518,3.518,0,0,1,8.455-.272,2.621,2.621,0,0,1,6.908.185a3.211,3.211,0,0,1-2.3-.769,2.755,2.755,0,0,1-.809-2.1A2.508,2.508,0,0,1,4.874-4.847a5.377,5.377,0,0,1,3.142-.769H9.457v-.756A1.48,1.48,0,0,0,9.1-7.436a1.414,1.414,0,0,0-1.072-.378,1.394,1.394,0,0,0-.962.3,1.059,1.059,0,0,0-.338.831H4.254l-.018-.053a2.412,2.412,0,0,1,1.05-2.079,4.562,4.562,0,0,1,2.9-.875,4.257,4.257,0,0,1,2.773.861,3,3,0,0,1,1.059,2.47v3.929a7.43,7.43,0,0,0,.1,1.257A6.307,6.307,0,0,0,12.445,0ZM7.541-1.714a2.187,2.187,0,0,0,1.2-.334,1.8,1.8,0,0,0,.721-.773V-4.166H8.016a1.708,1.708,0,0,0-1.235.4,1.329,1.329,0,0,0-.417.993A.992.992,0,0,0,6.675-2,1.234,1.234,0,0,0,7.541-1.714Zm6.012-2.962a6.18,6.18,0,0,1,.971-3.63,3.154,3.154,0,0,1,2.738-1.38,2.663,2.663,0,0,1,1.283.308,3.087,3.087,0,0,1,1,.879v-5.212h2.575V0H19.934l-.22-1.169A3.179,3.179,0,0,1,18.65-.163a2.812,2.812,0,0,1-1.406.347A3.215,3.215,0,0,1,14.524-1.1a5.479,5.479,0,0,1-.971-3.393Zm2.558.185a3.874,3.874,0,0,0,.422,1.964,1.469,1.469,0,0,0,1.371.716,2,2,0,0,0,.967-.224,1.788,1.788,0,0,0,.677-.655V-6.741a1.975,1.975,0,0,0-.672-.7,1.788,1.788,0,0,0-.954-.25,1.448,1.448,0,0,0-1.375.835,4.718,4.718,0,0,0-.435,2.18Zm7.6-.352A5.1,5.1,0,0,1,24.9-8.328a4.136,4.136,0,0,1,3.287-1.358,4.18,4.18,0,0,1,3.3,1.354,5.076,5.076,0,0,1,1.2,3.489v.185A5.084,5.084,0,0,1,31.5-1.165,4.162,4.162,0,0,1,28.2.185a4.173,4.173,0,0,1-3.3-1.349,5.084,5.084,0,0,1-1.191-3.494Zm2.558.185a4.137,4.137,0,0,0,.457,2.087,1.578,1.578,0,0,0,1.477.787,1.562,1.562,0,0,0,1.455-.791,4.11,4.11,0,0,0,.461-2.083v-.185a4.068,4.068,0,0,0-.466-2.065,1.576,1.576,0,0,0-1.468-.8,1.557,1.557,0,0,0-1.455.8,4.1,4.1,0,0,0-.461,2.061Z" transform="translate(927 4148)" fill="#fff"/>
    <path id="Trazado_9514" data-name="Trazado 9514" d="M-104.141,0V-14.219h5.205a5.8,5.8,0,0,1,4.2,1.636,5.583,5.583,0,0,1,1.689,4.194V-5.83a5.579,5.579,0,0,1-1.689,4.2A5.809,5.809,0,0,1-98.936,0Zm3.3-11.68v9.141h1.9a2.262,2.262,0,0,0,1.851-.918,3.705,3.705,0,0,0,.728-2.373V-8.408a3.673,3.673,0,0,0-.728-2.354,2.262,2.262,0,0,0-1.851-.918ZM-86.582.205A4.906,4.906,0,0,1-90.347-1.25a5.174,5.174,0,0,1-1.362-3.682V-5.3a5.912,5.912,0,0,1,1.284-3.945,4.562,4.562,0,0,1,3.716-1.514,4.279,4.279,0,0,1,3.315,1.279,4.98,4.98,0,0,1,1.177,3.506v1.729h-6.055l-.02.059a2.052,2.052,0,0,0,.615,1.343,2.148,2.148,0,0,0,1.543.513,6.687,6.687,0,0,0,1.577-.156,9.942,9.942,0,0,0,1.44-.5l.791,2.012a6.04,6.04,0,0,1-1.836.84A8.473,8.473,0,0,1-86.582.205Zm-.127-8.428a1.362,1.362,0,0,0-1.167.5,2.523,2.523,0,0,0-.435,1.362l.02.049h2.852v-.254a2.2,2.2,0,0,0-.288-1.24A1.1,1.1,0,0,0-86.709-8.223Zm9.678-4.971v2.627h1.67v2.285h-1.67v4.844a1.185,1.185,0,0,0,.229.815.8.8,0,0,0,.62.249,3.318,3.318,0,0,0,.405-.02,3.509,3.509,0,0,0,.386-.078l.225,2.441a7.968,7.968,0,0,1-.9.181,7.236,7.236,0,0,1-.947.054,3.3,3.3,0,0,1-2.476-.869,3.836,3.836,0,0,1-.845-2.754V-8.281h-1.475v-2.285h1.475v-2.627Zm7.959,13.4A4.906,4.906,0,0,1-72.837-1.25,5.174,5.174,0,0,1-74.2-4.932V-5.3a5.912,5.912,0,0,1,1.284-3.945A4.562,4.562,0,0,1-69.2-10.762a4.279,4.279,0,0,1,3.315,1.279,4.98,4.98,0,0,1,1.177,3.506v1.729h-6.055l-.02.059a2.052,2.052,0,0,0,.615,1.343,2.148,2.148,0,0,0,1.543.513,6.687,6.687,0,0,0,1.577-.156,9.942,9.942,0,0,0,1.44-.5l.791,2.012a6.04,6.04,0,0,1-1.836.84A8.473,8.473,0,0,1-69.072.205ZM-69.2-8.223a1.362,1.362,0,0,0-1.167.5A2.523,2.523,0,0,0-70.8-6.357l.02.049h2.852v-.254a2.2,2.2,0,0,0-.288-1.24A1.1,1.1,0,0,0-69.2-8.223Zm11.729.469-1.074-.01a1.829,1.829,0,0,0-.928.21,1.3,1.3,0,0,0-.537.591V0h-3.3V-10.566h3.105l.117,1.553a3.186,3.186,0,0,1,.879-1.289,1.929,1.929,0,0,1,1.279-.459,2.454,2.454,0,0,1,.4.029,3.029,3.029,0,0,1,.371.088Zm4.316-2.812.117,1.4a3.5,3.5,0,0,1,1.255-1.177,3.546,3.546,0,0,1,1.733-.415,3.23,3.23,0,0,1,1.7.43,2.64,2.64,0,0,1,1.074,1.309,3.547,3.547,0,0,1,1.255-1.284,3.45,3.45,0,0,1,1.792-.454A2.934,2.934,0,0,1-41.8-9.653a5.434,5.434,0,0,1,.884,3.413V0h-3.311V-6.24A2.744,2.744,0,0,0-44.546-7.8a1.113,1.113,0,0,0-.952-.425,1.977,1.977,0,0,0-.845.171,1.782,1.782,0,0,0-.62.474q0,.166.01.288t.01.239V0h-3.3V-6.24A2.777,2.777,0,0,0-50.557-7.8a1.126,1.126,0,0,0-.967-.42,1.9,1.9,0,0,0-.815.171,1.782,1.782,0,0,0-.62.474V0h-3.3V-10.566ZM-35.576,0h-3.311V-10.566h3.311Zm0-13.018h-3.311v-2.217h3.311Zm5.059,2.451.127,1.484a3.825,3.825,0,0,1,1.279-1.235,3.31,3.31,0,0,1,1.7-.444,2.979,2.979,0,0,1,2.427,1.055,5.218,5.218,0,0,1,.874,3.35V0h-3.3V-6.367A2.421,2.421,0,0,0-27.734-7.8a1.1,1.1,0,0,0-.937-.425,2.32,2.32,0,0,0-.947.186,1.891,1.891,0,0,0-.7.527V0h-3.291V-10.566ZM-16.211-.01a3.986,3.986,0,0,1-.317-.752,5.765,5.765,0,0,1-.2-.879A4.038,4.038,0,0,1-17.788-.3a2.558,2.558,0,0,1-1.646.5,3.659,3.659,0,0,1-2.583-.854,3.019,3.019,0,0,1-.923-2.329,2.817,2.817,0,0,1,1.182-2.427,6.126,6.126,0,0,1,3.584-.854h1.357v-.752a1.505,1.505,0,0,0-.322-1.035,1.255,1.255,0,0,0-.986-.361,1.19,1.19,0,0,0-.854.269,1.114,1.114,0,0,0-.278.835l-3.2-.01-.02-.059A2.756,2.756,0,0,1-21.274-9.79a5.4,5.4,0,0,1,3.364-.972,4.921,4.921,0,0,1,3.179.977,3.375,3.375,0,0,1,1.216,2.793v3.984a8.128,8.128,0,0,0,.142,1.563A8.368,8.368,0,0,0-12.949,0Zm-2.324-2.139a2.011,2.011,0,0,0,1.069-.283,1.621,1.621,0,0,0,.649-.674V-4.5h-1.328a1.492,1.492,0,0,0-1.143.381,1.37,1.37,0,0,0-.352.967.935.935,0,0,0,.308.728A1.141,1.141,0,0,0-18.535-2.148Zm9.863-8.418.127,1.484a3.825,3.825,0,0,1,1.279-1.235,3.31,3.31,0,0,1,1.7-.444A2.979,2.979,0,0,1-3.14-9.707a5.218,5.218,0,0,1,.874,3.35V0h-3.3V-6.367A2.421,2.421,0,0,0-5.889-7.8a1.1,1.1,0,0,0-.937-.425,2.32,2.32,0,0,0-.947.186,1.891,1.891,0,0,0-.7.527V0h-3.291V-10.566ZM3.32-13.193v2.627H4.99v2.285H3.32v4.844a1.185,1.185,0,0,0,.229.815.8.8,0,0,0,.62.249,3.318,3.318,0,0,0,.405-.02,3.509,3.509,0,0,0,.386-.078L5.186-.029a7.968,7.968,0,0,1-.9.181A7.236,7.236,0,0,1,3.34.205,3.3,3.3,0,0,1,.864-.664,3.836,3.836,0,0,1,.02-3.418V-8.281H-1.455v-2.285H.02v-2.627ZM11.279.205A4.906,4.906,0,0,1,7.515-1.25,5.174,5.174,0,0,1,6.152-4.932V-5.3A5.912,5.912,0,0,1,7.437-9.248a4.562,4.562,0,0,1,3.716-1.514,4.279,4.279,0,0,1,3.315,1.279,4.98,4.98,0,0,1,1.177,3.506v1.729H9.59l-.02.059a2.052,2.052,0,0,0,.615,1.343,2.148,2.148,0,0,0,1.543.513,6.687,6.687,0,0,0,1.577-.156,9.942,9.942,0,0,0,1.44-.5l.791,2.012a6.04,6.04,0,0,1-1.836.84A8.473,8.473,0,0,1,11.279.205Zm-.127-8.428a1.362,1.362,0,0,0-1.167.5,2.523,2.523,0,0,0-.435,1.362l.02.049h2.852v-.254a2.2,2.2,0,0,0-.288-1.24A1.1,1.1,0,0,0,11.152-8.223Zm11.4,5.254a.862.862,0,0,0-.444-.7,4.792,4.792,0,0,0-1.616-.552,6.38,6.38,0,0,1-2.783-1.118,2.533,2.533,0,0,1-.937-2.085A2.971,2.971,0,0,1,17.939-9.79a4.82,4.82,0,0,1,3.174-.972,5.45,5.45,0,0,1,3.359.942,2.771,2.771,0,0,1,1.191,2.437l-.02.059h-3.2a1.309,1.309,0,0,0-.312-.947A1.383,1.383,0,0,0,21.1-8.594a1.341,1.341,0,0,0-.869.283.888.888,0,0,0-.352.723.86.86,0,0,0,.405.713,4.584,4.584,0,0,0,1.636.527A6.571,6.571,0,0,1,24.795-5.21a2.609,2.609,0,0,1,.928,2.144A2.8,2.8,0,0,1,24.458-.718a5.547,5.547,0,0,1-3.345.923A5.016,5.016,0,0,1,17.7-.889,3.013,3.013,0,0,1,16.5-3.33l.02-.059h2.988A1.325,1.325,0,0,0,19.966-2.3a2,2,0,0,0,1.235.332,1.649,1.649,0,0,0,1.006-.259A.87.87,0,0,0,22.549-2.969Zm15.215,0a.862.862,0,0,0-.444-.7A4.792,4.792,0,0,0,35.7-4.219,6.38,6.38,0,0,1,32.92-5.337a2.533,2.533,0,0,1-.937-2.085A2.971,2.971,0,0,1,33.154-9.79a4.82,4.82,0,0,1,3.174-.972,5.45,5.45,0,0,1,3.359.942,2.771,2.771,0,0,1,1.191,2.437l-.02.059h-3.2a1.309,1.309,0,0,0-.312-.947,1.383,1.383,0,0,0-1.025-.322,1.341,1.341,0,0,0-.869.283.888.888,0,0,0-.352.723.86.86,0,0,0,.405.713,4.584,4.584,0,0,0,1.636.527A6.571,6.571,0,0,1,40.01-5.21a2.609,2.609,0,0,1,.928,2.144A2.8,2.8,0,0,1,39.673-.718a5.547,5.547,0,0,1-3.345.923A5.016,5.016,0,0,1,32.915-.889a3.013,3.013,0,0,1-1.2-2.441l.02-.059h2.988A1.325,1.325,0,0,0,35.181-2.3a2,2,0,0,0,1.235.332,1.649,1.649,0,0,0,1.006-.259A.87.87,0,0,0,37.764-2.969Zm4.287-2.412A5.585,5.585,0,0,1,43.4-9.263a4.8,4.8,0,0,1,3.76-1.5,4.808,4.808,0,0,1,3.77,1.5,5.585,5.585,0,0,1,1.348,3.882v.205a5.581,5.581,0,0,1-1.348,3.887A4.792,4.792,0,0,1,47.178.205,4.829,4.829,0,0,1,43.4-1.289a5.581,5.581,0,0,1-1.348-3.887Zm3.3.205a4.368,4.368,0,0,0,.415,2.085,1.477,1.477,0,0,0,1.411.757A1.459,1.459,0,0,0,48.564-3.1a4.331,4.331,0,0,0,.42-2.08v-.205a4.347,4.347,0,0,0-.42-2.065,1.471,1.471,0,0,0-1.406-.776,1.45,1.45,0,0,0-1.392.781,4.4,4.4,0,0,0-.415,2.061Zm12.9,2.842A1.291,1.291,0,0,0,59.258-2.7a1.526,1.526,0,0,0,.332-1.06H62.6l.02.059a3.469,3.469,0,0,1-1.2,2.817A4.616,4.616,0,0,1,58.252.205a4.675,4.675,0,0,1-3.716-1.489,5.679,5.679,0,0,1-1.3-3.882v-.225a5.7,5.7,0,0,1,1.3-3.877,4.64,4.64,0,0,1,3.7-1.494A4.545,4.545,0,0,1,61.45-9.644a3.857,3.857,0,0,1,1.167,3.062l-.02.059H59.59a2.045,2.045,0,0,0-.342-1.226,1.172,1.172,0,0,0-1.016-.474,1.357,1.357,0,0,0-1.333.767,4.74,4.74,0,0,0-.376,2.065v.225a4.723,4.723,0,0,0,.376,2.08A1.378,1.378,0,0,0,58.252-2.334ZM67.422,0H64.111V-10.566h3.311Zm0-13.018H64.111v-2.217h3.311ZM75.547-.01a3.987,3.987,0,0,1-.317-.752,5.765,5.765,0,0,1-.2-.879A4.038,4.038,0,0,1,73.97-.3a2.558,2.558,0,0,1-1.646.5,3.659,3.659,0,0,1-2.583-.854,3.019,3.019,0,0,1-.923-2.329A2.817,2.817,0,0,1,70-5.405a6.126,6.126,0,0,1,3.584-.854h1.357v-.752a1.505,1.505,0,0,0-.322-1.035,1.255,1.255,0,0,0-.986-.361,1.19,1.19,0,0,0-.854.269A1.114,1.114,0,0,0,72.5-7.3l-3.2-.01-.02-.059A2.756,2.756,0,0,1,70.483-9.79a5.4,5.4,0,0,1,3.364-.972,4.921,4.921,0,0,1,3.179.977,3.375,3.375,0,0,1,1.216,2.793v3.984a8.129,8.129,0,0,0,.142,1.563A8.367,8.367,0,0,0,78.809,0ZM73.223-2.148a2.011,2.011,0,0,0,1.069-.283,1.621,1.621,0,0,0,.649-.674V-4.5H73.613a1.492,1.492,0,0,0-1.143.381,1.37,1.37,0,0,0-.352.967.935.935,0,0,0,.308.728A1.141,1.141,0,0,0,73.223-2.148ZM83.506,0H80.2V-15.234h3.311Zm6.709.205A4.906,4.906,0,0,1,86.45-1.25a5.174,5.174,0,0,1-1.362-3.682V-5.3a5.912,5.912,0,0,1,1.284-3.945,4.562,4.562,0,0,1,3.716-1.514A4.279,4.279,0,0,1,93.4-9.482,4.98,4.98,0,0,1,94.58-5.977v1.729H88.525l-.02.059a2.052,2.052,0,0,0,.615,1.343,2.148,2.148,0,0,0,1.543.513,6.687,6.687,0,0,0,1.577-.156,9.942,9.942,0,0,0,1.44-.5l.791,2.012a6.04,6.04,0,0,1-1.836.84A8.473,8.473,0,0,1,90.215.205Zm-.127-8.428a1.362,1.362,0,0,0-1.167.5,2.523,2.523,0,0,0-.435,1.362l.02.049h2.852v-.254a2.2,2.2,0,0,0-.288-1.24A1.1,1.1,0,0,0,90.088-8.223Zm11.4,5.254a.862.862,0,0,0-.444-.7,4.792,4.792,0,0,0-1.616-.552,6.38,6.38,0,0,1-2.783-1.118A2.533,2.533,0,0,1,95.7-7.422,2.971,2.971,0,0,1,96.875-9.79a4.82,4.82,0,0,1,3.174-.972,5.45,5.45,0,0,1,3.359.942A2.771,2.771,0,0,1,104.6-7.383l-.02.059h-3.2a1.309,1.309,0,0,0-.312-.947,1.383,1.383,0,0,0-1.025-.322,1.341,1.341,0,0,0-.869.283.888.888,0,0,0-.352.723.86.86,0,0,0,.405.713,4.584,4.584,0,0,0,1.636.527A6.571,6.571,0,0,1,103.73-5.21a2.609,2.609,0,0,1,.928,2.144,2.8,2.8,0,0,1-1.265,2.349,5.547,5.547,0,0,1-3.345.923A5.016,5.016,0,0,1,96.636-.889a3.013,3.013,0,0,1-1.2-2.441l.02-.059h2.988A1.325,1.325,0,0,0,98.9-2.3a2,2,0,0,0,1.235.332,1.649,1.649,0,0,0,1.006-.259A.87.87,0,0,0,101.484-2.969Z" transform="translate(683 4764)" fill="#12263f"/>
    <path id="Trazado_9481" data-name="Trazado 9481" d="M115.825,96.711A73.108,73.108,0,0,0,89,94.2V83.3h8.273l-29-19.377L39.158,83.3h8.36v9.578a105.583,105.583,0,0,0-14.648-.486V81.4a9.176,9.176,0,0,1-2.944-3.644,7.848,7.848,0,0,1,7.1-11.193c.159,0,.316.006.473.016a7.847,7.847,0,0,0,0,15.667c.157.009.312.014.472.014a7.849,7.849,0,0,0,1.159-15.612A7.843,7.843,0,0,0,26.22,59.81a7.938,7.938,0,0,0-1.354,1.508,7.811,7.811,0,0,0-1.377,4.439,7.642,7.642,0,0,0,.078,1.09,7.847,7.847,0,1,0,5.522,14.614V92.589a85.132,85.132,0,0,0-11.81,1.566c35.279-2.715,70.558,13.956,70.558,13.956a70.29,70.29,0,0,0-13.753-8.229A174.4,174.4,0,0,1,115.825,96.711Z" transform="translate(727.863 4194.092)" fill="#12263f"/>
    <path id="Trazado_9482" data-name="Trazado 9482" d="M138.992,77.241a5.816,5.816,0,1,0-5.815-5.816A5.816,5.816,0,0,0,138.992,77.241Z" transform="translate(676.128 4190.654)" fill="#12263f"/>
    <g id="Grupo_23684" data-name="Grupo 23684" transform="translate(653.698 4389.376)">
      <path id="Trazado_9483" data-name="Trazado 9483" d="M25.95,34.35a.592.592,0,0,1,.595-.595h3.7a.592.592,0,0,1,.595.595v7.929h13.15V4.482A1.975,1.975,0,0,0,42.073,2.5H14.716A1.933,1.933,0,0,0,12.8,4.482V42.346H25.95ZM35,7.258a.592.592,0,0,1,.595-.595h3.7a.592.592,0,0,1,.595.595v3.7a.592.592,0,0,1-.595.595H35.6A.592.592,0,0,1,35,10.958Zm0,9.053a.592.592,0,0,1,.595-.595h3.7a.592.592,0,0,1,.595.595v3.7a.592.592,0,0,1-.595.595H35.6A.592.592,0,0,1,35,20.011ZM35,25.3A.592.592,0,0,1,35.6,24.7h3.7a.592.592,0,0,1,.595.595V29a.592.592,0,0,1-.595.595H35.6A.592.592,0,0,1,35,29Zm0,9.053a.592.592,0,0,1,.595-.595h3.7a.592.592,0,0,1,.595.595v3.7a.592.592,0,0,1-.595.595H35.6A.592.592,0,0,1,35,38.05ZM25.95,7.258a.592.592,0,0,1,.595-.595h3.7a.592.592,0,0,1,.595.595v3.7a.592.592,0,0,1-.595.595h-3.7a.592.592,0,0,1-.595-.595Zm0,9.053a.592.592,0,0,1,.595-.595h3.7a.592.592,0,0,1,.595.595v3.7a.592.592,0,0,1-.595.595h-3.7a.592.592,0,0,1-.595-.595Zm0,8.987a.592.592,0,0,1,.595-.595h3.7a.592.592,0,0,1,.595.595V29a.592.592,0,0,1-.595.595h-3.7A.592.592,0,0,1,25.95,29ZM21.787,38.116a.592.592,0,0,1-.595.595h-3.7a.592.592,0,0,1-.595-.595v-3.7a.592.592,0,0,1,.595-.595h3.7a.592.592,0,0,1,.595.595Zm0-9.053a.592.592,0,0,1-.595.595h-3.7a.592.592,0,0,1-.595-.595V25.3a.592.592,0,0,1,.595-.595h3.7a.592.592,0,0,1,.595.595Zm0-9.053a.592.592,0,0,1-.595.595h-3.7a.592.592,0,0,1-.595-.595v-3.7a.592.592,0,0,1,.595-.595h3.7a.592.592,0,0,1,.595.595Zm0-9.053a.592.592,0,0,1-.595.595h-3.7a.592.592,0,0,1-.595-.595v-3.7a.592.592,0,0,1,.595-.595h3.7a.592.592,0,0,1,.595.595Z" transform="translate(-7.58 -2.5)" fill="#12263f"/>
      <path id="Trazado_9484" data-name="Trazado 9484" d="M68.595,37.309a4,4,0,0,0,4.031,4.031,3.356,3.356,0,0,0,1.123-.2v8.194h3.04V41.141a3.087,3.087,0,0,0,1.123.2A4.034,4.034,0,0,0,81.216,35a4.457,4.457,0,0,0,1.322-3.106,4.321,4.321,0,0,0-2.313-3.833A4.954,4.954,0,0,0,75.269,23.3a5.021,5.021,0,0,0-3.436,1.388,5.159,5.159,0,0,0-1.52,3.37A4.323,4.323,0,0,0,69.322,35,4.005,4.005,0,0,0,68.595,37.309Z" transform="translate(-26.304 -9.556)" fill="#12263f"/>
      <path id="Trazado_9485" data-name="Trazado 9485" d="M6.42,69.24H62.983a1.52,1.52,0,0,0,0-3.04H6.42a1.52,1.52,0,0,0,0,3.04Z" transform="translate(-4.9 -24.108)" fill="#12263f"/>
      <path id="Trazado_9486" data-name="Trazado 9486" d="M9.22,79.6a1.52,1.52,0,1,0,0,3.04h3.634a1.52,1.52,0,1,0,0-3.04Z" transform="translate(-5.85 -28.653)" fill="#12263f"/>
      <path id="Trazado_9487" data-name="Trazado 9487" d="M24.12,79.6a1.52,1.52,0,1,0,0,3.04h3.634a1.52,1.52,0,1,0,0-3.04Z" transform="translate(-10.904 -28.653)" fill="#12263f"/>
      <path id="Trazado_9488" data-name="Trazado 9488" d="M39.02,79.6a1.52,1.52,0,1,0,0,3.04h3.634a1.52,1.52,0,1,0,0-3.04Z" transform="translate(-15.958 -28.653)" fill="#12263f"/>
      <path id="Trazado_9489" data-name="Trazado 9489" d="M53.92,79.6a1.52,1.52,0,1,0,0,3.04h3.634a1.52,1.52,0,1,0,0-3.04Z" transform="translate(-21.013 -28.653)" fill="#12263f"/>
      <path id="Trazado_9490" data-name="Trazado 9490" d="M68.82,79.6a1.52,1.52,0,0,0,0,3.04h3.634a1.52,1.52,0,1,0,0-3.04Z" transform="translate(-26.067 -28.653)" fill="#12263f"/>
      <path id="Trazado_9491" data-name="Trazado 9491" d="M83.72,79.6a1.52,1.52,0,0,0,0,3.04h3.634a1.52,1.52,0,1,0,0-3.04Z" transform="translate(-31.121 -28.653)" fill="#12263f"/>
      <path id="Trazado_9492" data-name="Trazado 9492" d="M62.983,92.9H6.42a1.52,1.52,0,0,0,0,3.04H62.983a1.52,1.52,0,0,0,0-3.04Z" transform="translate(-4.9 -33.165)" fill="#12263f"/>
    </g>
    <g id="Grupo_23686" data-name="Grupo 23686" transform="translate(544.238 4241)">
      <circle id="Elipse_1340" data-name="Elipse 1340" cx="7.416" cy="7.416" r="7.416" transform="translate(39.929)" fill="#12263f"/>
      <path id="Trazado_9493" data-name="Trazado 9493" d="M15.351,20.288H18.2a3.423,3.423,0,0,0,3.423,3.423h5.7a3.423,3.423,0,0,0,0-6.846h-3.48a2.853,2.853,0,0,0-2.795-2.282h-5.7a2.852,2.852,0,0,0,0,5.7Z" transform="translate(-5.657 -6.597)" fill="#12263f"/>
      <path id="Trazado_9494" data-name="Trazado 9494" d="M26.289,44.658a6,6,0,0,0-10.371,0L.128,72.166a.977.977,0,0,0,.867,1.449H20.2l.639-1.129L31.515,53.762Z" transform="translate(-0.006 -18.85)" fill="#12263f"/>
      <path id="Trazado_9495" data-name="Trazado 9495" d="M73.463,78.463,62.133,58.645a4.679,4.679,0,0,0-8.169,0l-2.282,4L41.665,80.209H72.436a1.173,1.173,0,0,0,1.027-1.745Z" transform="translate(-18.85 -25.444)" fill="#12263f"/>
    </g>
  </g>
</svg>
