<svg xmlns="http://www.w3.org/2000/svg" width="72.819" height="65.744" viewBox="0 0 72.819 65.744">
  <g id="Grupo_23988" data-name="Grupo 23988" transform="translate(0 -24.872)">
    <path id="Trazado_9905" data-name="Trazado 9905" d="M69.26,57.888c-.014.014.046,0-.181,0a3.215,3.215,0,0,0-3.21,4.283c-.4.423,1.33-1.308-27.954,27.823a2.133,2.133,0,0,1-3.011,0C5.629,60.87,7.355,62.6,6.95,62.171a3.229,3.229,0,0,0-3.388-4.279l0,0A21.472,21.472,0,0,1,0,45.777c.331-16.548,20.525-28.75,36.405-14.86,15.871-13.882,36.074-1.7,36.405,14.86A21.471,21.471,0,0,1,69.26,57.888Z" transform="translate(0)" fill="#f04f8c"/>
    <path id="Trazado_9906" data-name="Trazado 9906" d="M288.85,57.9c-.014.014.046,0-.181,0a3.215,3.215,0,0,0-3.21,4.283c-.4.423,1.33-1.308-27.954,27.823a2.129,2.129,0,0,1-1.505.622v-59.7c9.886-8.647,22.22-7.542,30.077.312A20.9,20.9,0,0,1,288.85,57.9Z" transform="translate(-219.59 -0.009)" fill="#fa5d99"/>
    <path id="Trazado_9907" data-name="Trazado 9907" d="M90.724,167.766a28.06,28.06,0,0,1-3.377,4.269H71.534a2.135,2.135,0,0,1-1.88-1.123l-5.967-11.082L55.25,177.645a2.135,2.135,0,0,1-3.73.232l-6.114-9.608L43.766,171a2.132,2.132,0,0,1-1.83,1.036H28.4a28.062,28.062,0,0,1-3.377-4.269H40.728l2.793-4.656a2.133,2.133,0,0,1,3.63-.047l5.894,9.261,8.59-18.136a2.137,2.137,0,0,1,3.809-.1l7.364,13.676H90.724Z" transform="translate(-21.464 -109.879)" fill="#e1f3ff"/>
    <path id="Trazado_9908" data-name="Trazado 9908" d="M263.572,154.093a2.137,2.137,0,0,0-3.809.1L256,162.133v9.974l5.814-12.275,5.967,11.082a2.135,2.135,0,0,0,1.88,1.123h15.813a28.063,28.063,0,0,0,3.377-4.269H270.936Z" transform="translate(-219.59 -109.881)" fill="#b1d5f1"/>
  </g>
</svg>
