<svg xmlns="http://www.w3.org/2000/svg" width="65" height="65" viewBox="0 0 65 65">
  <g id="Grupo_25035" data-name="Grupo 25035" transform="translate(-179 -7786)">
    <rect id="Rectángulo_5777" data-name="Rectángulo 5777" width="65" height="65" rx="32.5" transform="translate(179 7786)" fill="#f0f0f0"/>
    <g id="Grupo_24785" data-name="Grupo 24785" transform="translate(-356.955 5978.968)">
      <g id="Grupo_24549" data-name="Grupo 24549" transform="translate(541.302 1848.397)">
        <path id="Trazado_11342" data-name="Trazado 11342" d="M71.426,368.648v-12H29.013l-5.623,5.533v5.556l5.388,3.748H71.426Z" transform="translate(-20.97 -355.067)" fill="#fdd79b"/>
        <path id="Trazado_11343" data-name="Trazado 11343" d="M36.1,370.394a8.943,8.943,0,0,1,1.329-13.742H29.013l-5.623,5.533v5.556l5.388,3.748H37.43a8.983,8.983,0,0,1-1.329-1.1Z" transform="translate(-20.97 -355.067)" fill="#fccd7f"/>
        <g id="Grupo_24544" data-name="Grupo 24544" transform="translate(0 0)">
          <g id="Grupo_24543" data-name="Grupo 24543" transform="translate(0)">
            <g id="Grupo_24542" data-name="Grupo 24542">
              <path id="Trazado_11344" data-name="Trazado 11344" d="M53.98,356.125v2.5a.806.806,0,0,1-.806.806H9.268a8.942,8.942,0,1,1,0-17.885H53.174a.807.807,0,0,1,.806.807v2.5a.806.806,0,0,1-.806.806H9.354a4.9,4.9,0,0,0-4.91,4.911,4.831,4.831,0,0,0,4.825,4.741H53.174a.806.806,0,0,1,.806.806Z" transform="translate(-0.326 -341.551)" fill="#fec165"/>
            </g>
          </g>
        </g>
        <path id="Trazado_11345" data-name="Trazado 11345" d="M9.354,345.668H14.29a8.937,8.937,0,0,1,7.228-4.051.166.166,0,0,0,.063-.015l.112-.051H9.383A9.016,9.016,0,0,0,.327,350.39a8.943,8.943,0,0,0,8.942,9.047H20.752a8.949,8.949,0,0,1-6.54-4.116H9.269a4.831,4.831,0,0,1-4.825-4.741,4.9,4.9,0,0,1,4.91-4.911Z" transform="translate(-0.326 -341.552)" fill="#fdb441"/>
        <path id="Trazado_11346" data-name="Trazado 11346" d="M152.031,435.474l-2.9-1.2-2.9,1.2a.428.428,0,0,1-.591-.4v-8.3h6.977v8.3A.428.428,0,0,1,152.031,435.474Z" transform="translate(-130.397 -417.834)" fill="#fee45a"/>
        <g id="Grupo_24545" data-name="Grupo 24545" transform="translate(12.637 8.13)">
          <path id="Trazado_11347" data-name="Trazado 11347" d="M131.762,420.659h-10.19a.812.812,0,0,1,0-1.625h10.19a.812.812,0,1,1,0,1.625Z" transform="translate(-120.759 -419.034)" fill="#fccd7f"/>
        </g>
      </g>
      <g id="Grupo_24552" data-name="Grupo 24552" transform="translate(550.721 1812.39)">
        <g id="Grupo_24550" data-name="Grupo 24550" transform="translate(0 21.206)">
          <path id="Trazado_11348" data-name="Trazado 11348" d="M22.816,320.018l-.048.067a1.547,1.547,0,0,1-1.254.641H16.248a2.067,2.067,0,0,0-2.081,1.982,2.04,2.04,0,0,0,2.039,2.1H9.721l-6.182-6.273A2.067,2.067,0,0,0,.567,321.4L7.3,328.457a5.933,5.933,0,0,0,4.291,1.836H35.76a.734.734,0,0,0,.734-.734v-8.1a.734.734,0,0,0-.734-.734H31.934a1.547,1.547,0,0,1-1.266-.658,4.82,4.82,0,0,0-7.852-.051Z" transform="translate(0.002 -317.914)" fill="#a5b6d3"/>
          <path id="Trazado_11349" data-name="Trazado 11349" d="M324.992,357.354c-.452,4.551-4.494,8.315-9.915,9.567h13.3a.734.734,0,0,0,.734-.734v-8.1a.734.734,0,0,0-.734-.734h-3.387Z" transform="translate(-292.618 -354.543)" fill="#8aa1c9"/>
        </g>
        <g id="Grupo_24551" data-name="Grupo 24551" transform="translate(4.038)">
          <path id="Trazado_11350" data-name="Trazado 11350" d="M69.824,44.01a1.469,1.469,0,0,0,2.083,0L82.936,32.916A7.316,7.316,0,1,0,70.866,25.3a7.316,7.316,0,1,0-12.071,7.615Z" transform="translate(-56.652 -20.426)" fill="#e7a2cb"/>
          <path id="Trazado_11351" data-name="Trazado 11351" d="M177.354,50.615c-.657,4.553-4.159,9.4-9.583,12.531a21.573,21.573,0,0,1-9.462,2.94l5.926,5.96a1.469,1.469,0,0,0,2.083,0l11.029-11.094A7.316,7.316,0,0,0,177.354,50.615Z" transform="translate(-151.063 -48.463)" fill="#e278b1"/>
          <path id="Trazado_11352" data-name="Trazado 11352" d="M195.542,133.17h-1.91a.734.734,0,0,1-.734-.734v-1.91a.734.734,0,0,0-.734-.734h-1.712a.734.734,0,0,0-.734.734v1.91a.734.734,0,0,1-.734.734h-1.91a.734.734,0,0,0-.734.734v1.712a.734.734,0,0,0,.734.734h1.91a.734.734,0,0,1,.734.734v1.91a.734.734,0,0,0,.734.734h1.712a.734.734,0,0,0,.734-.734v-1.91a.734.734,0,0,1,.734-.734h1.91a.734.734,0,0,0,.734-.734V133.9A.734.734,0,0,0,195.542,133.17Z" transform="translate(-177.094 -121.995)" fill="#ecf4ff"/>
        </g>
        <path id="Trazado_11353" data-name="Trazado 11353" d="M210.953,399.678a.551.551,0,0,0-.551-.551h-8.455a2.039,2.039,0,0,0,1.811,1.1H210.4a.551.551,0,0,0,.551-.551Z" transform="translate(-187.553 -372.132)" fill="#8aa1c9"/>
      </g>
    </g>
  </g>
</svg>
