<svg xmlns="http://www.w3.org/2000/svg" width="65" height="65" viewBox="0 0 65 65">
  <g id="Grupo_25033" data-name="Grupo 25033" transform="translate(-179 -7219)">
    <rect id="Rectángulo_5773" data-name="Rectángulo 5773" width="65" height="65" rx="32.5" transform="translate(179 7219)" fill="#f0f0f0"/>
    <g id="Grupo_24897" data-name="Grupo 24897" transform="translate(185 7225)">
      <path id="Trazado_12096" data-name="Trazado 12096" d="M53.722,26.861a26.842,26.842,0,0,1-18.716,25.6,26.334,26.334,0,0,1-3.872.92l-.018,0q-.976.156-1.973.24-.213.018-.427.033c-.2.013-.4.025-.605.034q-.622.029-1.25.029-.645,0-1.28-.031-.288-.013-.576-.034c-.144-.01-.286-.02-.429-.032q-1.021-.085-2.02-.248c-.318-.052-.635-.107-.948-.17a26.542,26.542,0,0,1-3.96-1.108q-1.11-.4-2.173-.9-.362-.17-.719-.352-.917-.464-1.792-1A26.861,26.861,0,1,1,53.722,26.861Z" transform="translate(0)" fill="#ffe152"/>
      <path id="Trazado_12097" data-name="Trazado 12097" d="M41.268,270.112v18.35a26.541,26.541,0,0,1-3.96-1.108q-1.11-.4-2.173-.9-.362-.17-.719-.352-.917-.464-1.792-1a26.939,26.939,0,0,1-10.658-12.087v-2.9a7.281,7.281,0,0,1,5.393-7.032c.114-.031.228-.059.344-.083a7.039,7.039,0,0,1,.947-.141c.2-.015.395-.024.6-.024h4.742A7.238,7.238,0,0,1,35.53,263l.085.018c.084.019.168.039.25.061l.007,0a7.288,7.288,0,0,1,5.4,7.033Z" transform="translate(-19.66 -235.254)" fill="#2ba1cf"/>
      <path id="Trazado_12098" data-name="Trazado 12098" d="M67.92,270.112v18.35a26.541,26.541,0,0,1-3.96-1.108q-1.11-.4-2.173-.9-.362-.17-.719-.352-.917-.464-1.792-1a27,27,0,0,1-7.533-6.794v-8.2a7.281,7.281,0,0,1,5.393-7.032c.114-.031.228-.059.344-.083a7.059,7.059,0,0,1,.947-.141c.2-.015.395-.024.6-.024h1.617a7.238,7.238,0,0,1,1.544.165l.085.018c.084.019.168.039.25.061l.007,0a7.288,7.288,0,0,1,5.4,7.033Z" transform="translate(-46.313 -235.254)" fill="#66baed"/>
      <path id="Trazado_12099" data-name="Trazado 12099" d="M81.752,264.4l-.017.082-2.178,10.13a2.119,2.119,0,0,1-2.061,1.68h-.037a2.118,2.118,0,0,1-2.061-1.68L73.22,264.481,73.2,264.4Z" transform="translate(-65.522 -236.656)" fill="#f2f0ec"/>
      <path id="Trazado_12100" data-name="Trazado 12100" d="M77.477,256.984,74.2,258.806l-1-4.638,2.037-1.2" transform="translate(-65.522 -226.426)" fill="#d8d5d0"/>
      <path id="Trazado_12101" data-name="Trazado 12101" d="M113.941,256.984l3.278,1.822,1-4.638-2.037-1.2" transform="translate(-101.986 -226.426)" fill="#d8d5d0"/>
      <path id="Trazado_12102" data-name="Trazado 12102" d="M20.676,68.958V57.978a9.787,9.787,0,1,1,19.573,0V68.958" transform="translate(-18.507 -43.135)" fill="#cc7a3b"/>
      <path id="Trazado_12103" data-name="Trazado 12103" d="M24.7,58.414c0,3.883,2.274,8.376,3.523,10.551H20.672V57.985A9.78,9.78,0,0,1,30.387,48.2C27.379,48.274,24.7,53.1,24.7,58.414Z" transform="translate(-18.503 -43.142)" fill="#a35418"/>
      <path id="Trazado_12104" data-name="Trazado 12104" d="M94.39,236.1v3.188a2.6,2.6,0,0,1-5.195,0V236.1Z" transform="translate(-79.836 -211.332)" fill="#eab599"/>
      <path id="Trazado_12105" data-name="Trazado 12105" d="M107.676,264.563v.2a2.6,2.6,0,0,1-1.829,2.481,2.6,2.6,0,0,1-1.808-2.143q.26.016.523.016a8.97,8.97,0,0,0,3.114-.556Z" transform="translate(-93.123 -236.804)" fill="#f6caae"/>
      <path id="Trazado_12106" data-name="Trazado 12106" d="M4.831,165.712A2.416,2.416,0,1,1,2.8,163.328,2.416,2.416,0,0,1,4.831,165.712Z" transform="translate(0 -146.163)" fill="#f6caae"/>
      <path id="Trazado_12107" data-name="Trazado 12107" d="M26,165.978a2.416,2.416,0,0,1-2.029,2.385,9.028,9.028,0,0,1,0-4.769A2.415,2.415,0,0,1,26,165.978Z" transform="translate(-21.17 -146.429)" fill="#eab599"/>
      <path id="Trazado_12108" data-name="Trazado 12108" d="M16.52,178.953a.863.863,0,1,1-.864-.863A.863.863,0,0,1,16.52,178.953Z" transform="translate(-13.241 -159.404)" fill="#eab599"/>
      <path id="Trazado_12109" data-name="Trazado 12109" d="M43.486,110.151v8.3a8.954,8.954,0,0,1-4.76,2.369l-.044.007a8.867,8.867,0,0,1-1.4.109,8.987,8.987,0,0,1-8.987-8.987v-3.422a9.059,9.059,0,0,1,.092-1.291,5.7,5.7,0,0,0,7.157-.46,5.09,5.09,0,0,0,1.35-2.11,5.93,5.93,0,0,0,1.855,3.7A6.633,6.633,0,0,0,43.486,110.151Z" transform="translate(-25.328 -93.686)" fill="#eab599"/>
      <path id="Trazado_12110" data-name="Trazado 12110" d="M67.36,110.151v8.3a8.954,8.954,0,0,1-4.76,2.369l-.044.007a8.988,8.988,0,0,1-7.587-8.878v-3.422q0-.136,0-.272a5.632,5.632,0,0,0,4.446-1.48,5.088,5.088,0,0,0,1.35-2.11,5.93,5.93,0,0,0,1.855,3.7A6.633,6.633,0,0,0,67.36,110.151Z" transform="translate(-49.201 -93.686)" fill="#f6caae"/>
      <path id="Trazado_12111" data-name="Trazado 12111" d="M134.481,154.118a1.493,1.493,0,1,0-2.985,0" transform="translate(-117.699 -136.611)" fill="#eab599"/>
      <path id="Trazado_12112" data-name="Trazado 12112" d="M70.946,154.118a1.493,1.493,0,1,0-2.985,0" transform="translate(-60.83 -136.611)" fill="#eab599"/>
      <path id="Trazado_12113" data-name="Trazado 12113" d="M74.508,164.21a1.02,1.02,0,1,1-1.02-1.019A1.02,1.02,0,0,1,74.508,164.21Z" transform="translate(-64.865 -146.068)" fill="#3d4159"/>
      <path id="Trazado_12114" data-name="Trazado 12114" d="M138.047,164.21a1.019,1.019,0,1,1-1.019-1.019A1.019,1.019,0,0,1,138.047,164.21Z" transform="translate(-121.737 -146.068)" fill="#3d4159"/>
      <path id="Trazado_12115" data-name="Trazado 12115" d="M102.526,189.868h-2.039a.44.44,0,0,1,0-.88h2.039a.44.44,0,0,1,0,.88Z" transform="translate(-89.55 -169.158)" fill="#eab599"/>
      <path id="Trazado_12116" data-name="Trazado 12116" d="M93.494,212.664A4.539,4.539,0,0,1,91.3,212.1a.4.4,0,1,1,.385-.7,3.73,3.73,0,0,0,3.612,0,.4.4,0,1,1,.385.7A4.539,4.539,0,0,1,93.494,212.664Z" transform="translate(-81.537 -189.172)" fill="#eab599"/>
      <path id="Trazado_12117" data-name="Trazado 12117" d="M82.468,167.464a.437.437,0,1,1-.437-.437A.437.437,0,0,1,82.468,167.464Z" transform="translate(-73.033 -149.502)" fill="#fff"/>
      <path id="Trazado_12118" data-name="Trazado 12118" d="M146.482,167.464a.437.437,0,1,1-.437-.437A.437.437,0,0,1,146.482,167.464Z" transform="translate(-130.331 -149.502)" fill="#fff"/>
      <path id="Trazado_12119" data-name="Trazado 12119" d="M153.149,187.022a1.12,1.12,0,1,1-1.12-1.12A1.12,1.12,0,0,1,153.149,187.022Z" transform="translate(-135.076 -166.396)" fill="#eab599"/>
      <path id="Trazado_12120" data-name="Trazado 12120" d="M57.891,187.022a1.119,1.119,0,1,1-1.119-1.12A1.119,1.119,0,0,1,57.891,187.022Z" transform="translate(-49.813 -166.396)" fill="#eab599"/>
      <path id="Trazado_12121" data-name="Trazado 12121" d="M316.746,265.142V268.5a26.968,26.968,0,0,1-13.064,13.2,26.81,26.81,0,0,1-7.113,2.186l-.018,0V265.142a7.615,7.615,0,0,1,6.994-7.59c.206-.018.413-.025.623-.025h4.96a7.6,7.6,0,0,1,7.619,7.615Z" transform="translate(-265.435 -230.506)" fill="#bfd5de"/>
      <path id="Trazado_12122" data-name="Trazado 12122" d="M349.93,265.142V268.5a26.968,26.968,0,0,1-13.064,13.2,26.588,26.588,0,0,1-3.241,1.266V265.142a7.617,7.617,0,0,1,7.618-7.615h1.07A7.616,7.616,0,0,1,349.93,265.142Z" transform="translate(-298.619 -230.506)" fill="#dde8ed"/>
      <path id="Trazado_12123" data-name="Trazado 12123" d="M278.616,155.906a2.526,2.526,0,1,1-2.122-2.495A2.527,2.527,0,0,1,278.616,155.906Z" transform="translate(-244.858 -137.286)" fill="#d3a489"/>
      <path id="Trazado_12124" data-name="Trazado 12124" d="M377.387,283.711l-2.045,3.28-2.045-3.28" transform="translate(-334.129 -253.943)" fill="#f74f4f"/>
      <path id="Trazado_12125" data-name="Trazado 12125" d="M372.065,316.954l-2.751,3.472-2.751-3.472,2.752-10.118Z" transform="translate(-328.1 -274.641)" fill="#f74f4f"/>
      <path id="Trazado_12126" data-name="Trazado 12126" d="M300.77,156.183a2.527,2.527,0,0,1-2.122,2.495,9.447,9.447,0,0,1,0-4.99A2.528,2.528,0,0,1,300.77,156.183Z" transform="translate(-267.012 -137.562)" fill="#bf8e75"/>
      <path id="Trazado_12127" data-name="Trazado 12127" d="M290.849,169.762a.9.9,0,1,1-.9-.9A.9.9,0,0,1,290.849,169.762Z" transform="translate(-258.715 -151.141)" fill="#bf8e75"/>
      <path id="Trazado_12128" data-name="Trazado 12128" d="M354.628,251.4,351.2,253.3l-1.043-4.852,2.13-1.255" transform="translate(-313.416 -221.258)" fill="#bfd5de"/>
      <path id="Trazado_12129" data-name="Trazado 12129" d="M392.777,251.4l3.429,1.906,1.043-4.852-2.131-1.255" transform="translate(-351.565 -221.258)" fill="#bfd5de"/>
      <path id="Trazado_12130" data-name="Trazado 12130" d="M463.828,155.906a2.526,2.526,0,1,0,2.122-2.495A2.527,2.527,0,0,0,463.828,155.906Z" transform="translate(-415.161 -137.286)" fill="#d3a489"/>
      <g id="Grupo_24896" data-name="Grupo 24896" transform="translate(31.81 7.859)">
        <path id="Trazado_12131" data-name="Trazado 12131" d="M463.828,156.183a2.527,2.527,0,0,0,2.122,2.495,9.451,9.451,0,0,0,0-4.99A2.528,2.528,0,0,0,463.828,156.183Z" transform="translate(-446.971 -145.421)" fill="#bf8e75"/>
        <path id="Trazado_12132" data-name="Trazado 12132" d="M481.112,169.762a.9.9,0,1,1-.9-.9A.9.9,0,0,1,481.112,169.762Z" transform="translate(-460.824 -159)" fill="#bf8e75"/>
        <path id="Trazado_12133" data-name="Trazado 12133" d="M321.974,84.319A9.4,9.4,0,0,1,314.08,93.6a9.283,9.283,0,0,1-1.509.121,9.4,9.4,0,0,1-9.4-9.4c0-2.457.853-6.146,2.4-7.821,1.718-1.865,4.27-1.582,7.006-1.582a9.3,9.3,0,0,1,1.509.122A9.4,9.4,0,0,1,321.974,84.319Z" transform="translate(-303.168 -74.901)" fill="#bf8e75"/>
        <path id="Trazado_12134" data-name="Trazado 12134" d="M372.318,229.559v3.335a2.718,2.718,0,0,1-5.435,0v-3.335Z" transform="translate(-360.198 -213.331)" fill="#bf8e75"/>
      </g>
      <path id="Trazado_12135" data-name="Trazado 12135" d="M386.22,259.328v.212a1.965,1.965,0,1,1-3.806.354q.272.016.548.017a9.348,9.348,0,0,0,1.509-.121A9.246,9.246,0,0,0,386.22,259.328Z" transform="translate(-342.289 -232.118)" fill="#d3a489"/>
      <path id="Trazado_12136" data-name="Trazado 12136" d="M347.721,85.485a9.4,9.4,0,1,1-.046-.938Q347.721,85.01,347.721,85.485Z" transform="translate(-297.106 -68.207)" fill="#d3a489"/>
      <path id="Trazado_12137" data-name="Trazado 12137" d="M371.378,197.057a4.749,4.749,0,0,1-2.292-.592.418.418,0,1,1,.4-.733,3.905,3.905,0,0,0,3.779,0,.418.418,0,0,1,.4.733A4.751,4.751,0,0,1,371.378,197.057Z" transform="translate(-330.165 -175.149)" fill="#bf8e75"/>
      <path id="Trazado_12138" data-name="Trazado 12138" d="M355.5,150.348a1.067,1.067,0,1,1-1.067-1.067A1.067,1.067,0,0,1,355.5,150.348Z" transform="translate(-316.29 -133.618)" fill="#3d4159"/>
      <path id="Trazado_12139" data-name="Trazado 12139" d="M414,150.348a1.067,1.067,0,1,1-1.066-1.067A1.066,1.066,0,0,1,414,150.348Z" transform="translate(-368.652 -133.618)" fill="#3d4159"/>
      <path id="Trazado_12140" data-name="Trazado 12140" d="M363.828,153.754a.457.457,0,1,1-.457-.457A.457.457,0,0,1,363.828,153.754Z" transform="translate(-324.835 -137.212)" fill="#fff"/>
      <path id="Trazado_12141" data-name="Trazado 12141" d="M422.828,153.754a.457.457,0,1,1-.457-.457A.457.457,0,0,1,422.828,153.754Z" transform="translate(-377.645 -137.212)" fill="#fff"/>
      <path id="Trazado_12142" data-name="Trazado 12142" d="M380.824,177.193H378.69a.46.46,0,1,1,0-.92h2.133a.46.46,0,1,1,0,.92Z" transform="translate(-338.544 -157.778)" fill="#bf8e75"/>
      <path id="Trazado_12143" data-name="Trazado 12143" d="M422.289,327.727h4.1v1.255h-4.1Z" transform="translate(-377.98 -293.34)" fill="#bfd5de"/>
      <path id="Trazado_12144" data-name="Trazado 12144" d="M387.539,49.323a5.7,5.7,0,0,1,5.28,5.4l.027.544h1.639l.882,5.868,2.138-.662-.287-5.75a5.7,5.7,0,0,0-5.714-5.416Z" transform="translate(-346.876 -44.135)" fill="#2a2f4f"/>
      <path id="Trazado_12145" data-name="Trazado 12145" d="M407.987,27.816a5.808,5.808,0,0,1-8.214,8.214Z" transform="translate(-357.827 -24.897)" fill="#3d4159"/>
      <path id="Trazado_12146" data-name="Trazado 12146" d="M313.2,55.264h-7.128l-.883,5.869-2.137-.662.286-5.751a5.7,5.7,0,0,1,5.714-5.416l10.3.039,1.361,2.45" transform="translate(-271.253 -44.131)" fill="#3d4159"/>
      <path id="Trazado_12147" data-name="Trazado 12147" d="M313.013,49.323a5.7,5.7,0,0,0-5.28,5.4l-.027.544h-1.638l-.883,5.868-2.137-.662.287-5.75a5.7,5.7,0,0,1,5.714-5.416Z" transform="translate(-271.25 -44.135)" fill="#2a2f4f"/>
      <path id="Trazado_12148" data-name="Trazado 12148" d="M170.249,395.472v2.014a26.932,26.932,0,0,1-22.772,0v-2.013a8.59,8.59,0,0,1,6.363-8.3c.134-.036.269-.069.406-.1a8.493,8.493,0,0,1,1.117-.164c.232-.019.466-.029.7-.029h5.593a8.609,8.609,0,0,1,1.822.193l.1.022c.1.023.2.047.295.073l.008,0a8.6,8.6,0,0,1,6.364,8.3Z" transform="translate(-132.003 -346.289)" fill="#3d4159"/>
      <path id="Trazado_12149" data-name="Trazado 12149" d="M218.012,388.723l-.021.1-2.739,12.741q-.213.018-.427.033c-.2.013-.4.025-.605.034q-.622.029-1.25.029-.645,0-1.28-.031-.288-.013-.576-.034c-.144-.01-.286-.02-.429-.032l-2.739-12.74-.02-.1Z" transform="translate(-186.109 -347.936)" fill="#66baed"/>
      <path id="Trazado_12150" data-name="Trazado 12150" d="M238.631,416.422l-2.306,3.7-2.305-3.7" transform="translate(-209.465 -372.729)" fill="#3d4159"/>
      <path id="Trazado_12151" data-name="Trazado 12151" d="M242.02,449.722c-.2.013-.4.025-.605.034q-.622.029-1.25.029-.645,0-1.28-.031c-.192-.009-.384-.02-.576-.034l1.856-7.228Z" transform="translate(-213.304 -396.063)" fill="#3d4159"/>
      <path id="Trazado_12152" data-name="Trazado 12152" d="M212.965,379.98l-3.867,2.149-1.176-5.471,2.4-1.415" transform="translate(-186.106 -335.87)" fill="#2ba1cf"/>
      <path id="Trazado_12153" data-name="Trazado 12153" d="M255.988,379.98l3.867,2.149,1.176-5.471-2.4-1.415" transform="translate(-229.128 -335.87)" fill="#2ba1cf"/>
      <path id="Trazado_12154" data-name="Trazado 12154" d="M271.848,396.107h1.227l-2.142,5.212a26.734,26.734,0,0,1-3.023.309l3.764-12.81.029-.1,2.646.864Z" transform="translate(-239.799 -347.936)" fill="#2a2f4f"/>
      <path id="Trazado_12155" data-name="Trazado 12155" d="M188.869,401.627a26.6,26.6,0,0,1-3.025-.314l-2.14-5.206h1.227l-2.5-6.52,2.646-.864.029.1Z" transform="translate(-163.288 -347.936)" fill="#2a2f4f"/>
      <path id="Trazado_12156" data-name="Trazado 12156" d="M232.914,355.352v3.76a3.065,3.065,0,0,1-6.129,0v-3.76Z" transform="translate(-202.99 -318.067)" fill="#eab599"/>
      <path id="Trazado_12157" data-name="Trazado 12157" d="M248.589,388.922v.238a2.216,2.216,0,1,1-4.292.4q.307.019.617.019a10.568,10.568,0,0,0,3.674-.656Z" transform="translate(-218.664 -348.114)" fill="#f6caae"/>
      <path id="Trazado_12158" data-name="Trazado 12158" d="M127.251,272.3a2.851,2.851,0,0,1-2.394,2.813,2.893,2.893,0,0,1-.456.036,2.85,2.85,0,1,1,2.85-2.85Z" transform="translate(-108.797 -241.173)" fill="#f6caae"/>
      <path id="Trazado_12159" data-name="Trazado 12159" d="M152.232,272.61a2.851,2.851,0,0,1-2.394,2.813,10.663,10.663,0,0,1,0-5.627A2.851,2.851,0,0,1,152.232,272.61Z" transform="translate(-133.779 -241.489)" fill="#eab599"/>
      <path id="Trazado_12160" data-name="Trazado 12160" d="M141.045,287.921a1.019,1.019,0,1,1-1.019-1.018A1.019,1.019,0,0,1,141.045,287.921Z" transform="translate(-124.423 -256.799)" fill="#eab599"/>
      <path id="Trazado_12161" data-name="Trazado 12161" d="M336.1,272.3a2.851,2.851,0,0,0,2.394,2.813,2.889,2.889,0,0,0,.456.036,2.85,2.85,0,1,0-2.85-2.85Z" transform="translate(-300.839 -241.173)" fill="#f6caae"/>
      <path id="Trazado_12162" data-name="Trazado 12162" d="M336.1,272.61a2.851,2.851,0,0,0,2.394,2.813,10.659,10.659,0,0,0,0-5.627A2.851,2.851,0,0,0,336.1,272.61Z" transform="translate(-300.839 -241.489)" fill="#eab599"/>
      <path id="Trazado_12163" data-name="Trazado 12163" d="M176.147,153.241v4.038a10.6,10.6,0,0,1-8.9,10.466l-.052.009a10.423,10.423,0,0,1-1.65.128,10.6,10.6,0,0,1-10.6-10.6v-4.038a10.6,10.6,0,0,1,10.6-10.6h0a10.6,10.6,0,0,1,10.6,10.6Z" transform="translate(-138.684 -127.671)" fill="#eab599"/>
      <path id="Trazado_12164" data-name="Trazado 12164" d="M355.6,287.921a1.019,1.019,0,1,1-1.018-1.018A1.018,1.018,0,0,1,355.6,287.921Z" transform="translate(-316.462 -256.799)" fill="#eab599"/>
      <path id="Trazado_12165" data-name="Trazado 12165" d="M204.31,154.334v4.038a10.6,10.6,0,0,1-8.9,10.466l-.052.009a10.6,10.6,0,0,1-8.951-10.474v-4.038a10.605,10.605,0,0,1,8.953-10.475A10.6,10.6,0,0,1,204.31,154.334Z" transform="translate(-166.847 -128.765)" fill="#f6caae"/>
      <path id="Trazado_12166" data-name="Trazado 12166" d="M213.949,266.031a1.2,1.2,0,1,1-1.2-1.2A1.2,1.2,0,0,1,213.949,266.031Z" transform="translate(-189.347 -237.041)" fill="#3d4159"/>
      <path id="Trazado_12167" data-name="Trazado 12167" d="M279.918,266.031a1.2,1.2,0,1,1-1.2-1.2A1.2,1.2,0,0,1,279.918,266.031Z" transform="translate(-248.394 -237.041)" fill="#3d4159"/>
      <path id="Trazado_12168" data-name="Trazado 12168" d="M223.34,269.871a.515.515,0,1,1-.516-.516A.515.515,0,0,1,223.34,269.871Z" transform="translate(-198.983 -241.093)" fill="#fff"/>
      <path id="Trazado_12169" data-name="Trazado 12169" d="M289.871,269.871a.515.515,0,1,1-.515-.516A.515.515,0,0,1,289.871,269.871Z" transform="translate(-258.533 -241.093)" fill="#fff"/>
      <path id="Trazado_12170" data-name="Trazado 12170" d="M242.507,291.808H240.1a.519.519,0,0,1,0-1.038h2.406a.519.519,0,1,1,0,1.038Z" transform="translate(-214.444 -260.261)" fill="#eab599"/>
      <path id="Trazado_12171" data-name="Trazado 12171" d="M231.853,318.7a5.357,5.357,0,0,1-2.585-.668.472.472,0,0,1,.455-.827,4.4,4.4,0,0,0,4.261,0,.472.472,0,0,1,.455.827A5.358,5.358,0,0,1,231.853,318.7Z" transform="translate(-204.993 -283.87)" fill="#eab599"/>
      <path id="Trazado_12172" data-name="Trazado 12172" d="M176.143,135.947v4.136H174.17v-3.239L159.925,134.2l-3.014-.56v6.446h-1.974v-4.136a8.536,8.536,0,0,1,8.536-8.537h4.135c.112,0,.225,0,.337.008A8.535,8.535,0,0,1,176.143,135.947Z" transform="translate(-138.68 -114.041)" fill="#2a2f4f"/>
      <path id="Trazado_12173" data-name="Trazado 12173" d="M218.692,136.013v4.136h-1.974V136.91l-14.245-2.647a8.173,8.173,0,0,1,16.219,1.75Z" transform="translate(-181.228 -114.108)" fill="#3d4159"/>
    </g>
  </g>
</svg>
