<svg xmlns="http://www.w3.org/2000/svg" width="65" height="65" viewBox="0 0 65 65">
  <g id="Grupo_25039" data-name="Grupo 25039" transform="translate(-709 -7993)">
    <rect id="Rectángulo_5783" data-name="Rectángulo 5783" width="65" height="65" rx="32.5" transform="translate(709 7993)" fill="#f0f0f0"/>
    <g id="Grupo_25015" data-name="Grupo 25015" transform="translate(698.334 7969.522)">
      <g id="Grupo_24928" data-name="Grupo 24928" transform="translate(36.411 36.33)">
        <g id="Grupo_24927" data-name="Grupo 24927" transform="translate(0 0)">
          <g id="Grupo_24926" data-name="Grupo 24926">
            <g id="Grupo_24925" data-name="Grupo 24925">
              <path id="Trazado_12290" data-name="Trazado 12290" d="M214.267,89.744h3.711a9.278,9.278,0,0,0,9.278-9.278V77.683a.928.928,0,0,0-.928-.928h-8.35V73.036a3.7,3.7,0,0,0-3.7-3.7h-9.285a1.856,1.856,0,0,0-1.856,1.856v5.567H192v34.637h33.4l-5.885-5.885a17.919,17.919,0,0,1-5.248-12.671Z" transform="translate(-192 -69.333)" fill="#fab991"/>
            </g>
          </g>
        </g>
      </g>
      <g id="Grupo_24978" data-name="Grupo 24978" transform="translate(16 32)">
        <g id="Grupo_24932" data-name="Grupo 24932" transform="translate(3.711 9.278)">
          <g id="Grupo_24931" data-name="Grupo 24931">
            <g id="Grupo_24930" data-name="Grupo 24930">
              <g id="Grupo_24929" data-name="Grupo 24929">
                <path id="Trazado_12291" data-name="Trazado 12291" d="M57.278,141.689H49.856A1.856,1.856,0,0,1,48,139.833V112H59.133v27.833A1.856,1.856,0,0,1,57.278,141.689Z" transform="translate(-48 -112)" fill="#5ad7ff"/>
              </g>
            </g>
          </g>
        </g>
        <g id="Grupo_24936" data-name="Grupo 24936" transform="translate(3.711 9.278)">
          <g id="Grupo_24935" data-name="Grupo 24935">
            <g id="Grupo_24934" data-name="Grupo 24934">
              <g id="Grupo_24933" data-name="Grupo 24933">
                <path id="Trazado_12292" data-name="Trazado 12292" d="M48,112v1.856h3.711a1.855,1.855,0,0,1,1.856,1.856v24.122a1.856,1.856,0,0,1-1.856,1.856h5.567a1.856,1.856,0,0,0,1.856-1.856V112Z" transform="translate(-48 -112)" fill="#23aae6"/>
              </g>
            </g>
          </g>
        </g>
        <g id="Grupo_24945" data-name="Grupo 24945" transform="translate(3.711 31.545)">
          <g id="Grupo_24940" data-name="Grupo 24940">
            <g id="Grupo_24939" data-name="Grupo 24939">
              <g id="Grupo_24938" data-name="Grupo 24938">
                <g id="Grupo_24937" data-name="Grupo 24937">
                  <path id="Trazado_12293" data-name="Trazado 12293" d="M48,304v5.567a1.855,1.855,0,0,0,1.856,1.856h7.422a1.855,1.855,0,0,0,1.856-1.856V304Z" transform="translate(-48 -304)" fill="#ffd205"/>
                </g>
              </g>
            </g>
          </g>
          <g id="Grupo_24944" data-name="Grupo 24944" transform="translate(3.711)">
            <g id="Grupo_24943" data-name="Grupo 24943">
              <g id="Grupo_24942" data-name="Grupo 24942">
                <g id="Grupo_24941" data-name="Grupo 24941">
                  <path id="Trazado_12294" data-name="Trazado 12294" d="M81.856,304v5.567A1.855,1.855,0,0,1,80,311.422h5.567a1.855,1.855,0,0,0,1.856-1.856V304Z" transform="translate(-80 -304)" fill="#faa019"/>
                </g>
              </g>
            </g>
          </g>
        </g>
        <g id="Grupo_24949" data-name="Grupo 24949" transform="translate(0 5.567)">
          <g id="Grupo_24948" data-name="Grupo 24948">
            <g id="Grupo_24947" data-name="Grupo 24947">
              <g id="Grupo_24946" data-name="Grupo 24946">
                <path id="Trazado_12295" data-name="Trazado 12295" d="M32.7,80H17.856a1.856,1.856,0,1,0,0,3.711H32.7A1.856,1.856,0,1,0,32.7,80Z" transform="translate(-16 -80)" fill="#5ad7ff"/>
              </g>
            </g>
          </g>
        </g>
        <g id="Grupo_24953" data-name="Grupo 24953" transform="translate(1.856 0)">
          <g id="Grupo_24952" data-name="Grupo 24952">
            <g id="Grupo_24951" data-name="Grupo 24951">
              <g id="Grupo_24950" data-name="Grupo 24950">
                <path id="Trazado_12296" data-name="Trazado 12296" d="M44.989,32H33.856a1.856,1.856,0,0,0,0,3.711H44.989a1.856,1.856,0,0,0,0-3.711Z" transform="translate(-32 -32)" fill="#5ad7ff"/>
              </g>
            </g>
          </g>
        </g>
        <g id="Grupo_24957" data-name="Grupo 24957" transform="translate(5.567 3.711)">
          <g id="Grupo_24956" data-name="Grupo 24956">
            <g id="Grupo_24955" data-name="Grupo 24955">
              <g id="Grupo_24954" data-name="Grupo 24954">
                <path id="Trazado_12297" data-name="Trazado 12297" d="M64,64h7.422v1.856H64Z" transform="translate(-64 -64)" fill="#23aae6"/>
              </g>
            </g>
          </g>
        </g>
        <g id="Grupo_24961" data-name="Grupo 24961" transform="translate(5.567 38.967)">
          <g id="Grupo_24960" data-name="Grupo 24960">
            <g id="Grupo_24959" data-name="Grupo 24959">
              <g id="Grupo_24958" data-name="Grupo 24958">
                <path id="Trazado_12298" data-name="Trazado 12298" d="M69.567,371.711H65.856A1.855,1.855,0,0,1,64,369.856V368h7.422v1.856A1.855,1.855,0,0,1,69.567,371.711Z" transform="translate(-64 -368)" fill="#faa019"/>
              </g>
            </g>
          </g>
        </g>
        <g id="Grupo_24965" data-name="Grupo 24965" transform="translate(8.041 42.678)">
          <g id="Grupo_24964" data-name="Grupo 24964">
            <g id="Grupo_24963" data-name="Grupo 24963">
              <g id="Grupo_24962" data-name="Grupo 24962">
                <path id="Trazado_12299" data-name="Trazado 12299" d="M86.57,409.278a7.366,7.366,0,0,1-1.237-4.086V400h2.474v5.192A7.365,7.365,0,0,1,86.57,409.278Z" transform="translate(-85.333 -400)" fill="#d7e6f0"/>
              </g>
            </g>
          </g>
        </g>
        <g id="Grupo_24969" data-name="Grupo 24969" transform="translate(8.041 42.678)">
          <g id="Grupo_24968" data-name="Grupo 24968">
            <g id="Grupo_24967" data-name="Grupo 24967">
              <g id="Grupo_24966" data-name="Grupo 24966">
                <path id="Trazado_12300" data-name="Trazado 12300" d="M85.333,400v1.546a1.237,1.237,0,0,1,1.237,1.237v6.494a7.366,7.366,0,0,0,1.237-4.086V400Z" transform="translate(-85.333 -400)" fill="#a5c3dc"/>
              </g>
            </g>
          </g>
        </g>
        <g id="Grupo_24973" data-name="Grupo 24973" transform="translate(5.567 12.989)">
          <g id="Grupo_24972" data-name="Grupo 24972">
            <g id="Grupo_24971" data-name="Grupo 24971">
              <g id="Grupo_24970" data-name="Grupo 24970">
                <path id="Trazado_12301" data-name="Trazado 12301" d="M64.928,168.122a.928.928,0,0,1-.928-.928V144.928a.928.928,0,0,1,1.856,0v22.267A.928.928,0,0,1,64.928,168.122Z" transform="translate(-64 -144)" fill="#a5ffff"/>
              </g>
            </g>
          </g>
        </g>
        <g id="Grupo_24977" data-name="Grupo 24977" transform="translate(5.567 31.545)">
          <g id="Grupo_24976" data-name="Grupo 24976">
            <g id="Grupo_24975" data-name="Grupo 24975">
              <g id="Grupo_24974" data-name="Grupo 24974">
                <path id="Trazado_12302" data-name="Trazado 12302" d="M64.928,309.567a.928.928,0,0,1-.928-.928V304h1.856v4.639A.928.928,0,0,1,64.928,309.567Z" transform="translate(-64 -304)" fill="#ffff50"/>
              </g>
            </g>
          </g>
        </g>
      </g>
      <g id="Grupo_24982" data-name="Grupo 24982" transform="translate(54.967 36.33)">
        <g id="Grupo_24981" data-name="Grupo 24981" transform="translate(0 0)">
          <g id="Grupo_24980" data-name="Grupo 24980">
            <g id="Grupo_24979" data-name="Grupo 24979">
              <path id="Trazado_12303" data-name="Trazado 12303" d="M355.7,76.755h3.719V73.036a3.7,3.7,0,0,0-3.7-3.7H352v3.719A3.7,3.7,0,0,0,355.7,76.755Z" transform="translate(-352 -69.333)" fill="#f0915a"/>
            </g>
          </g>
        </g>
      </g>
      <g id="Grupo_24986" data-name="Grupo 24986" transform="translate(47.545 43.752)">
        <g id="Grupo_24985" data-name="Grupo 24985" transform="translate(0 0)">
          <g id="Grupo_24984" data-name="Grupo 24984">
            <g id="Grupo_24983" data-name="Grupo 24983">
              <path id="Trazado_12304" data-name="Trazado 12304" d="M288,146.322a5.257,5.257,0,0,1,5.257-5.257h9.587a5.567,5.567,0,0,0,5.567-5.567v-1.237a.928.928,0,0,1,.928-.928h1.856a.928.928,0,0,1,.928.928v2.783a9.278,9.278,0,0,1-9.278,9.278Z" transform="translate(-288 -133.333)" fill="#f0915a"/>
            </g>
          </g>
        </g>
      </g>
      <g id="Grupo_24990" data-name="Grupo 24990" transform="translate(32.7 36.33)">
        <g id="Grupo_24989" data-name="Grupo 24989" transform="translate(0 0)">
          <g id="Grupo_24988" data-name="Grupo 24988">
            <g id="Grupo_24987" data-name="Grupo 24987">
              <path id="Trazado_12305" data-name="Trazado 12305" d="M167.422,87.889A7.422,7.422,0,0,1,160,80.466a11.133,11.133,0,0,1,11.133-11.133H176.7a1.856,1.856,0,0,0-1.856,1.856v9.278A7.422,7.422,0,0,1,167.422,87.889Z" transform="translate(-160 -69.333)" fill="#463c4b"/>
            </g>
          </g>
        </g>
      </g>
      <g id="Grupo_24994" data-name="Grupo 24994" transform="translate(49.4 39.113)">
        <g id="Grupo_24993" data-name="Grupo 24993" transform="translate(0 0)">
          <g id="Grupo_24992" data-name="Grupo 24992">
            <g id="Grupo_24991" data-name="Grupo 24991">
              <circle id="Elipse_1537" data-name="Elipse 1537" cx="1.856" cy="1.856" r="1.856" fill="#463c4b"/>
            </g>
          </g>
        </g>
      </g>
      <g id="Grupo_24998" data-name="Grupo 24998" transform="translate(56.822 39.113)">
        <g id="Grupo_24997" data-name="Grupo 24997" transform="translate(0 0)">
          <g id="Grupo_24996" data-name="Grupo 24996">
            <g id="Grupo_24995" data-name="Grupo 24995">
              <circle id="Elipse_1538" data-name="Elipse 1538" cx="1.856" cy="1.856" r="1.856" fill="#463c4b"/>
            </g>
          </g>
        </g>
      </g>
      <g id="Grupo_25002" data-name="Grupo 25002" transform="translate(67.956 43.752)">
        <g id="Grupo_25001" data-name="Grupo 25001" transform="translate(0 0)">
          <g id="Grupo_25000" data-name="Grupo 25000">
            <g id="Grupo_24999" data-name="Grupo 24999">
              <path id="Trazado_12306" data-name="Trazado 12306" d="M465.856,137.044a1.855,1.855,0,0,0,1.856-1.856v-.928a.928.928,0,0,0-.928-.928h-1.856a.928.928,0,0,0-.928.928v.928A1.856,1.856,0,0,0,465.856,137.044Z" transform="translate(-464 -133.333)" fill="#463c4b"/>
            </g>
          </g>
        </g>
      </g>
      <g id="Grupo_25006" data-name="Grupo 25006" transform="translate(36.411 56.741)">
        <g id="Grupo_25005" data-name="Grupo 25005" transform="translate(0 0)">
          <g id="Grupo_25004" data-name="Grupo 25004">
            <g id="Grupo_25003" data-name="Grupo 25003">
              <path id="Trazado_12307" data-name="Trazado 12307" d="M192,245.333h22.267v3.093H192Z" transform="translate(-192 -245.333)" fill="#5ad7ff"/>
            </g>
          </g>
        </g>
      </g>
      <g id="Grupo_25010" data-name="Grupo 25010" transform="translate(47.545 56.741)">
        <g id="Grupo_25009" data-name="Grupo 25009" transform="translate(0 0)">
          <g id="Grupo_25008" data-name="Grupo 25008">
            <g id="Grupo_25007" data-name="Grupo 25007">
              <path id="Trazado_12308" data-name="Trazado 12308" d="M288,245.333h11.133v3.093H288Z" transform="translate(-288 -245.333)" fill="#23aae6"/>
            </g>
          </g>
        </g>
      </g>
      <g id="Grupo_25014" data-name="Grupo 25014" transform="translate(47.545 59.833)">
        <g id="Grupo_25013" data-name="Grupo 25013" transform="translate(0 0)">
          <g id="Grupo_25012" data-name="Grupo 25012">
            <g id="Grupo_25011" data-name="Grupo 25011">
              <path id="Trazado_12309" data-name="Trazado 12309" d="M299.133,272H288v18.556h22.267l-5.885-5.885A17.919,17.919,0,0,1,299.133,272Z" transform="translate(-288 -272)" fill="#f0915a"/>
            </g>
          </g>
        </g>
      </g>
    </g>
  </g>
</svg>
