<svg xmlns="http://www.w3.org/2000/svg" width="65" height="65" viewBox="0 0 65 65">
  <g id="Grupo_25037" data-name="Grupo 25037" transform="translate(-709 -7208)">
    <rect id="Rectángulo_5780" data-name="Rectángulo 5780" width="65" height="65" rx="32.5" transform="translate(709 7208)" fill="#f0f0f0"/>
    <g id="Grupo_24915" data-name="Grupo 24915" transform="translate(713.998 7212)">
      <path id="Trazado_12237" data-name="Trazado 12237" d="M104.613,120.085l-.983,6.1s-12.292,9.8-16.552,9.736H79.288c-5.051-.183-17.039-12.171-17.039-12.171l-.428-3.408c-.954-15.023,9.308-20.232,9.727-20.446h.01c1.848-1.1,5.621-.893,6.747-.02l.01.02a16.476,16.476,0,0,1,4.751,3.9h.292a16.986,16.986,0,0,1,4.742-3.9,16.133,16.133,0,0,1,6.757-.02l.01.02S105.46,104.944,104.613,120.085Z" transform="translate(-54.945 -88.208)" fill="#d75e72"/>
      <path id="Trazado_12238" data-name="Trazado 12238" d="M77.339,115.519a5.778,5.778,0,0,0,1.675,4.089c-1.022.759-4.6,3.982-4.6,11.489l-.078.1a5.278,5.278,0,0,0-1.714-.964,18.42,18.42,0,0,1-5.024-3.047c-.3-.243-.594-.477-.867-.711-1.383-1.168-3.437-.545-4.712.73l.224,2.434-.428-3.408c-.954-15.023,9.308-20.232,9.727-20.446h.01a6.162,6.162,0,0,0,3.349.974,6.258,6.258,0,0,0,3.4-.993l.01.02a16.475,16.475,0,0,1,4.751,3.9A5.832,5.832,0,0,0,77.339,115.519Z" transform="translate(-54.943 -94.098)" fill="#46b29d"/>
      <g id="Grupo_24911" data-name="Grupo 24911" transform="translate(13.639 -0.001)">
        <path id="Trazado_12239" data-name="Trazado 12239" d="M136.291,6.329a6.336,6.336,0,0,1-6.329,6.329,6.194,6.194,0,0,1-3.359-.974,6.326,6.326,0,1,1,9.688-5.355Z" transform="translate(-123.639 0.001)" fill="#fdd7ad"/>
        <path id="Trazado_12240" data-name="Trazado 12240" d="M286.36,6.329a6.337,6.337,0,0,1-6.329,6.329,6.194,6.194,0,0,1-3.359-.974,6.326,6.326,0,1,1,9.688-5.355Z" transform="translate(-257.156 0.001)" fill="#fdd7ad"/>
      </g>
      <path id="Trazado_12241" data-name="Trazado 12241" d="M193.528,242.874a6.674,6.674,0,0,0-1.081,1.081,9.243,9.243,0,0,0-1.918,5.774v2.785h-.974a.977.977,0,0,0-.974.974h-7.789a.977.977,0,0,0-.974-.974h-.974v-2.785a9.243,9.243,0,0,0-1.918-5.774,6.673,6.673,0,0,0-1.081-1.081l.078-.1c0-7.507,3.573-10.73,4.6-11.489a5.831,5.831,0,0,0,8.334,0c1.022.76,4.6,3.982,4.6,11.489Z" transform="translate(-156.449 -205.779)" fill="#f0c419"/>
      <path id="Trazado_12242" data-name="Trazado 12242" d="M214.721,147.086a5.842,5.842,0,1,1-5.959-5.832.472.472,0,0,1,.117-.01,1.058,1.058,0,0,1,.175.01A5.835,5.835,0,0,1,214.721,147.086Z" transform="translate(-180.641 -125.666)" fill="#fdd7ad"/>
      <path id="Trazado_12243" data-name="Trazado 12243" d="M105.3,200.014a.974.974,0,0,1-.959-.813c-1.009-6.054,1.889-12.912,2.013-13.2a.974.974,0,0,1,1.79.767c-.028.066-2.8,6.631-1.882,12.114a.974.974,0,0,1-.961,1.134Z" transform="translate(-92.639 -164.963)" fill="#527f72"/>
      <path id="Trazado_12244" data-name="Trazado 12244" d="M373.684,199.99a.974.974,0,0,1-.961-1.134c.916-5.5-1.854-12.048-1.882-12.114a.974.974,0,1,1,1.789-.767c.124.289,3.022,7.147,2.013,13.2A.974.974,0,0,1,373.684,199.99Z" transform="translate(-329.867 -164.938)" fill="#802d40"/>
      <g id="Grupo_24912" data-name="Grupo 24912" transform="translate(20.449 32.129)">
        <path id="Trazado_12245" data-name="Trazado 12245" d="M186.356,302.987a.974.974,0,0,1-.974-.974c0-.267.036-6.576,3.142-10.355a.974.974,0,1,1,1.5,1.237c-2.668,3.245-2.7,9.059-2.7,9.118A.974.974,0,0,1,186.356,302.987Z" transform="translate(-185.382 -291.302)" fill="#f29c1f"/>
        <path id="Trazado_12246" data-name="Trazado 12246" d="M286.388,303.008a.974.974,0,0,1-.974-.972c0-.058-.039-5.884-2.7-9.119a.974.974,0,0,1,1.5-1.237c3.107,3.779,3.142,10.088,3.142,10.355a.973.973,0,0,1-.973.973h0Z" transform="translate(-271.783 -291.323)" fill="#f29c1f"/>
      </g>
      <g id="Grupo_24913" data-name="Grupo 24913" transform="translate(0.002 25.519)">
        <path id="Trazado_12247" data-name="Trazado 12247" d="M22.4,249.808v2.785l.274,1.232-9.726.228.028-1.46-7.039-7.039a9.212,9.212,0,0,1-1.918-2.765L.2,234.4A2.085,2.085,0,0,1,0,233.509a2.137,2.137,0,0,1,2.132-2.132,2.114,2.114,0,0,1,1.957,1.295l2.181,5.082c.058.136.127.282.195.419a1.776,1.776,0,0,0,.156.3c0,.02.01.029.02.049.02.039.049.088.068.127l.37-.195v-.01a3.51,3.51,0,0,1,4.712-.214c.273.234.565.467.867.711a18.416,18.416,0,0,0,5.024,3.047,5.281,5.281,0,0,1,1.714.964,6.674,6.674,0,0,1,1.081,1.081A9.242,9.242,0,0,1,22.4,249.808Z" transform="translate(-0.002 -231.377)" fill="#fdd7ad"/>
        <path id="Trazado_12248" data-name="Trazado 12248" d="M330.708,233.509a2.083,2.083,0,0,1-.195.886l-3.817,8.393a9.211,9.211,0,0,1-1.918,2.765l-7.039,7.039-.029,1.764-9.477-.3.081-1.46v-2.785a9.243,9.243,0,0,1,1.918-5.774,6.674,6.674,0,0,1,1.081-1.081,5.279,5.279,0,0,1,1.714-.964,18.419,18.419,0,0,0,5.024-3.047c.3-.243.594-.477.867-.711a3.491,3.491,0,0,1,4.712.214v.01l.37.195c.088-.166.175-.331.253-.5.068-.127.127-.263.185-.4l2.181-5.082a2.114,2.114,0,0,1,1.957-1.295A2.137,2.137,0,0,1,330.708,233.509Z" transform="translate(-274.236 -231.377)" fill="#fdd7ad"/>
      </g>
      <g id="Grupo_24914" data-name="Grupo 24914" transform="translate(6.642 31.789)">
        <path id="Trazado_12249" data-name="Trazado 12249" d="M66.915,295.1a.987.987,0,0,1-1.383,0l-3.612-3.622a9.027,9.027,0,0,1-1.645-2.2.648.648,0,0,1-.068-.175c.02.039.049.088.068.127l.37-.195v-.01a3.416,3.416,0,0,1,1.246-.8.694.694,0,0,1,.1.136,7.48,7.48,0,0,0,1.3,1.743l3.622,3.612A.981.981,0,0,1,66.915,295.1Z" transform="translate(-60.207 -288.226)" fill="#fac176"/>
        <path id="Trazado_12250" data-name="Trazado 12250" d="M388.7,295.1a.987.987,0,0,0,1.383,0l3.612-3.622a9.028,9.028,0,0,0,1.646-2.2.649.649,0,0,0,.068-.175c-.02.039-.049.088-.068.127l-.37-.195v-.01a3.416,3.416,0,0,0-1.246-.8.7.7,0,0,0-.1.136,7.481,7.481,0,0,1-1.3,1.743l-3.622,3.612A.982.982,0,0,0,388.7,295.1Z" transform="translate(-352.216 -288.226)" fill="#fac176"/>
      </g>
      <path id="Trazado_12251" data-name="Trazado 12251" d="M106.907,423.73h10.71a.974.974,0,0,1,.974.974v7.789a.974.974,0,0,1-.974.974h-10.71a.974.974,0,0,1-.974-.974V424.7A.974.974,0,0,1,106.907,423.73Z" transform="translate(-94.247 -376.995)" fill="#4482c3"/>
      <path id="Trazado_12252" data-name="Trazado 12252" d="M178.5,460.986h-.974a.974.974,0,1,1,0-1.947h.974a.974.974,0,1,1,0,1.947Z" transform="translate(-157.079 -408.41)" fill="#285680"/>
      <path id="Trazado_12253" data-name="Trazado 12253" d="M292.287,423.73H303a.974.974,0,0,1,.974.974v7.789a.974.974,0,0,1-.974.974h-10.71a.974.974,0,0,1-.974-.974V424.7A.974.974,0,0,1,292.287,423.73Z" transform="translate(-259.181 -376.995)" fill="#4482c3"/>
      <path id="Trazado_12254" data-name="Trazado 12254" d="M310.915,460.986h-.974a.974.974,0,1,1,0-1.947h.974a.974.974,0,1,1,0,1.947Z" transform="translate(-274.888 -408.41)" fill="#285680"/>
    </g>
  </g>
</svg>
