<svg xmlns="http://www.w3.org/2000/svg" width="65" height="65" viewBox="0 0 65 65">
  <g id="Grupo_25036" data-name="Grupo 25036" transform="translate(-179 -8384)">
    <rect id="Rectángulo_5779" data-name="Rectángulo 5779" width="65" height="65" rx="32.5" transform="translate(179 8384)" fill="#f0f0f0"/>
    <g id="Grupo_24910" data-name="Grupo 24910" transform="translate(115.35 8388.19)">
      <path id="Trazado_12209" data-name="Trazado 12209" d="M115.261,371.665l-1.61-8.087a4.991,4.991,0,0,0-3.25-3.78l-.661-.195h0c-.076-.022-6.537-1.949-6.88-2.051H88.135l-6.9,2.051h0l-.661.195a4.991,4.991,0,0,0-3.25,3.78L75.7,371.752a2.327,2.327,0,0,0,2.283,2.78h34.924A2.4,2.4,0,0,0,115.261,371.665Z" transform="translate(0 -318.245)" fill="#48aef9"/>
      <path id="Trazado_12210" data-name="Trazado 12210" d="M78.76,384.288c.646-3.25,1.623-9.193,1.623-9.193a4.9,4.9,0,0,1,2.542-3.458c-2.2.654-2.361.7-2.35.7a4.991,4.991,0,0,0-3.25,3.78L75.7,384.288a2.327,2.327,0,0,0,2.283,2.781h3.058A2.327,2.327,0,0,1,78.76,384.288Z" transform="translate(-0.001 -330.782)" fill="#3997ee"/>
      <path id="Trazado_12211" data-name="Trazado 12211" d="M219.725,315.448a10.493,10.493,0,0,1-5.054-1.025v3.437h0l1.84,4.126.706,1.671,3.991.017,2.522-5.828v-3.384A10.632,10.632,0,0,1,219.725,315.448Z" transform="translate(-123.732 -279.857)" fill="#edb87e"/>
      <path id="Trazado_12212" data-name="Trazado 12212" d="M220.274,323.656l-.706-1.671-1.451-3.254a4.486,4.486,0,0,1-.389-1.827v-1.551a10.494,10.494,0,0,1-3.058-.931v3.437l1.84,4.126.706,1.671,3.063.013Z" transform="translate(-123.731 -279.856)" fill="#e4a970"/>
      <path id="Trazado_12213" data-name="Trazado 12213" d="M130.245.032a15.535,15.535,0,0,0-14.46,15.553V20.39H146.7V15.457A15.474,15.474,0,0,0,130.245.032Z" transform="translate(-35.717 0)" fill="#647892"/>
      <path id="Trazado_12214" data-name="Trazado 12214" d="M123.863,15.585A15.589,15.589,0,0,1,135.277.536a15.457,15.457,0,0,0-19.492,15.049V20.39h8.078V15.585Z" transform="translate(-35.717 -0.001)" fill="#4d6682"/>
      <g id="Grupo_24907" data-name="Grupo 24907" transform="translate(83.069 50.682)">
        <path id="Trazado_12215" data-name="Trazado 12215" d="M144.78,461.861a.849.849,0,0,0-1.7,0v4.756h1.7v-4.756Z" transform="translate(-143.082 -461.012)" fill="#3997ee"/>
        <path id="Trazado_12216" data-name="Trazado 12216" d="M355.945,466.617v-4.756a.849.849,0,0,0-1.7,0v4.756Z" transform="translate(-331.032 -461.012)" fill="#3997ee"/>
      </g>
      <path id="Trazado_12217" data-name="Trazado 12217" d="M237.427,395.6h-4.041l-.547.4L233.853,399h3.1l1.019-2.994Z" transform="translate(-139.903 -352.112)" fill="#fac149"/>
      <path id="Trazado_12218" data-name="Trazado 12218" d="M236.314,395.6h-2.928l-.547.4L233.853,399h3.1l-.967-2.35a.931.931,0,0,1,.329-1.047Z" transform="translate(-139.903 -352.112)" fill="#f8a748"/>
      <path id="Trazado_12219" data-name="Trazado 12219" d="M179.185,128.91l-3.668-2.856a1.99,1.99,0,0,0-1.982-.326h0c-2.5.965-9.07,3.3-14.675,3.525v0s-.841.051-.841.718v6.792a10.815,10.815,0,1,0,21.629.154V130.1A1.663,1.663,0,0,0,179.185,128.91Z" transform="translate(-73.308 -111.787)" fill="#f4c48b"/>
      <path id="Trazado_12220" data-name="Trazado 12220" d="M161.09,164.629v-6.813a1.726,1.726,0,0,1,.367-1.087c-.876.119-1.748.2-2.6.235v0s-.841.051-.841.718v6.792a10.914,10.914,0,0,0,11.327,10.956q.518-.024,1.023-.1A10.816,10.816,0,0,1,161.09,164.629Z" transform="translate(-73.307 -139.498)" fill="#edb87e"/>
      <path id="Trazado_12221" data-name="Trazado 12221" d="M236.643,435.9l-1.228-9.4h-3.076l-1.228,9.4Z" transform="translate(-138.365 -379.617)" fill="#fac149"/>
      <path id="Trazado_12222" data-name="Trazado 12222" d="M235.415,426.5h-3.076l-1.228,9.4h3.077l1.227-9.392Z" transform="translate(-138.365 -379.617)" fill="#f8a748"/>
      <g id="Grupo_24908" data-name="Grupo 24908" transform="translate(88.135 37.402)">
        <path id="Trazado_12223" data-name="Trazado 12223" d="M276.861,340.221l-2.5,6.088,2.094,1.541a.892.892,0,0,0,1.372-.417l1.894-5.307Z" transform="translate(-264.998 -340.221)" fill="#3997ee"/>
        <path id="Trazado_12224" data-name="Trazado 12224" d="M191.972,340.221l2.556,6.088-2.094,1.541a.892.892,0,0,1-1.372-.417l-1.894-5.307Z" transform="translate(-189.168 -340.221)" fill="#3997ee"/>
      </g>
      <g id="Grupo_24909" data-name="Grupo 24909" transform="translate(82.372 2.251)">
        <path id="Trazado_12225" data-name="Trazado 12225" d="M149.871,229.308h-6.079c-3.756,0-7.051-2.476-7.051-6.309v-1.74a.849.849,0,0,1,1.7,0V223c0,2.844,2.5,4.611,5.352,4.611h6.079a.849.849,0,0,1,0,1.7Z" transform="translate(-136.742 -198.43)" fill="#efefef"/>
        <path id="Trazado_12226" data-name="Trazado 12226" d="M162.5,36.975a.849.849,0,0,1-.849-.849V33.817a11.494,11.494,0,1,0-22.988-.146v2.455a.849.849,0,1,1-1.7,0V33.671a13.193,13.193,0,1,1,26.385.146v2.309A.85.85,0,0,1,162.5,36.975Z" transform="translate(-136.942 -20.478)" fill="#efefef"/>
      </g>
      <path id="Trazado_12227" data-name="Trazado 12227" d="M382.557,168.221v7.248a3.91,3.91,0,0,0,0-7.248Z" transform="translate(-273.162 -149.727)" fill="#fac149"/>
      <path id="Trazado_12228" data-name="Trazado 12228" d="M382.557,184.657v3.992a3.906,3.906,0,0,0,1.891-5.62A3.939,3.939,0,0,1,382.557,184.657Z" transform="translate(-273.162 -162.908)" fill="#f8a748"/>
      <path id="Trazado_12229" data-name="Trazado 12229" d="M110.629,168.221v7.248A3.908,3.908,0,0,1,110.629,168.221Z" transform="translate(-28.951 -149.727)" fill="#fac149"/>
      <path id="Trazado_12230" data-name="Trazado 12230" d="M108.778,181.812a3.9,3.9,0,0,0,1.813,5.754v-4.254A3.951,3.951,0,0,1,108.778,181.812Z" transform="translate(-28.914 -161.824)" fill="#f8a748"/>
      <path id="Trazado_12231" data-name="Trazado 12231" d="M234.125,282.267h2.047a1.56,1.56,0,0,0,1.575-1.46,1.529,1.529,0,0,0-1.527-1.6h-2.143a1.529,1.529,0,0,0-1.527,1.6A1.56,1.56,0,0,0,234.125,282.267Z" transform="translate(-139.644 -248.515)" fill="#3997ee"/>
      <path id="Trazado_12232" data-name="Trazado 12232" d="M235.151,280.808a1.528,1.528,0,0,1,1.3-1.579,1.541,1.541,0,0,0-.229-.019h-2.142a1.529,1.529,0,0,0-1.527,1.6,1.56,1.56,0,0,0,1.575,1.46h2.047a1.6,1.6,0,0,0,.277-.025A1.549,1.549,0,0,1,235.151,280.808Z" transform="translate(-139.645 -248.515)" fill="#1e88d8"/>
      <path id="Trazado_12233" data-name="Trazado 12233" d="M130.334,162.707v-7.247a1.56,1.56,0,0,1,1.46-1.575,1.529,1.529,0,0,1,1.6,1.527v7.342a1.529,1.529,0,0,1-1.6,1.527A1.56,1.56,0,0,1,130.334,162.707Z" transform="translate(-48.667 -136.967)" fill="#f8a748"/>
      <path id="Trazado_12234" data-name="Trazado 12234" d="M131.794,195.03a1.56,1.56,0,0,1-1.46-1.575v4.473a1.56,1.56,0,0,0,1.46,1.575,1.529,1.529,0,0,0,1.6-1.527V193.5A1.529,1.529,0,0,1,131.794,195.03Z" transform="translate(-48.667 -172.187)" fill="#f38d1a"/>
      <path id="Trazado_12235" data-name="Trazado 12235" d="M354.8,162.707v-7.247a1.561,1.561,0,0,1,1.461-1.575,1.529,1.529,0,0,1,1.6,1.527v7.342a1.529,1.529,0,0,1-1.6,1.527A1.561,1.561,0,0,1,354.8,162.707Z" transform="translate(-248.458 -136.967)" fill="#f8a748"/>
      <path id="Trazado_12236" data-name="Trazado 12236" d="M356.263,195.03a1.561,1.561,0,0,1-1.461-1.575v4.473a1.561,1.561,0,0,0,1.461,1.575,1.529,1.529,0,0,0,1.6-1.527V193.5A1.529,1.529,0,0,1,356.263,195.03Z" transform="translate(-248.458 -172.187)" fill="#f38d1a"/>
    </g>
  </g>
</svg>
