<svg xmlns="http://www.w3.org/2000/svg" width="65" height="65" viewBox="0 0 65 65">
  <g id="Grupo_25040" data-name="Grupo 25040" transform="translate(-709 -8187)">
    <rect id="Rectángulo_5785" data-name="Rectángulo 5785" width="65" height="65" rx="32.5" transform="translate(709 8187)" fill="#f0f0f0"/>
    <g id="Grupo_25017" data-name="Grupo 25017" transform="translate(706.63 8193.479)">
      <path id="Trazado_12310" data-name="Trazado 12310" d="M59.968.582A.783.783,0,0,0,59.211,0H54.465V.011H10.654A.784.784,0,0,0,10,.784v.969h.027V43.2H10v8.074a.783.783,0,0,0,.653.772H59.341a.784.784,0,0,0,.626-.567Z" fill="#f195d6"/>
      <path id="Trazado_12311" data-name="Trazado 12311" d="M472.919,0h-2.4a.783.783,0,0,1,.756.582V51.474a.783.783,0,0,1-.626.567h2.4a.784.784,0,0,0,.626-.567V.582A.783.783,0,0,0,472.919,0Z" transform="translate(-413.708)" fill="#e480be"/>
      <g id="Grupo_25016" data-name="Grupo 25016" transform="translate(10.027 0.027)">
        <path id="Trazado_12312" data-name="Trazado 12312" d="M142.4,6.129a28.9,28.9,0,0,1,4.328,14.53c0,6.981-3.034,15.393-5.471,22.153-1.5,4.153-2.695,7.474-2.809,9.468h1.639c.131-1.754,1.328-5.078,2.705-8.9,2.482-6.883,5.571-15.449,5.571-22.725A30.594,30.594,0,0,0,143.77,5.222,36.917,36.917,0,0,0,140.221.27H138c.011.012.019.025.031.036A32.677,32.677,0,0,1,142.4,6.129Z" transform="translate(-125.014 -0.27)" fill="#ce6cba"/>
        <path id="Trazado_12313" data-name="Trazado 12313" d="M36.8,6.129a28.9,28.9,0,0,1,4.328,14.53c0,6.981-3.033,15.393-5.471,22.153-1.5,4.153-2.695,7.474-2.808,9.468h1.639c.131-1.754,1.329-5.078,2.706-8.9,2.482-6.883,5.571-15.449,5.571-22.725A30.589,30.589,0,0,0,38.171,5.222,36.845,36.845,0,0,0,34.623.27H32.4c.011.012.02.025.031.036A32.659,32.659,0,0,1,36.8,6.129Z" transform="translate(-30.149 -0.27)" fill="#ce6cba"/>
        <path id="Trazado_12314" data-name="Trazado 12314" d="M268.487,6.129a28.9,28.9,0,0,1,4.328,14.53c0,6.981-3.034,15.393-5.472,22.153-1.5,4.153-2.694,7.474-2.808,9.468h1.639c.131-1.754,1.328-5.078,2.705-8.9,2.482-6.883,5.571-15.449,5.571-22.725a30.59,30.59,0,0,0-4.592-15.437A36.928,36.928,0,0,0,266.311.27h-2.225c.011.012.019.025.031.036A32.661,32.661,0,0,1,268.487,6.129Z" transform="translate(-238.287 -0.27)" fill="#ce6cba"/>
        <path id="Trazado_12315" data-name="Trazado 12315" d="M377.991,6.129a28.9,28.9,0,0,1,4.328,14.53c0,6.981-3.034,15.393-5.471,22.153-1.5,4.153-2.695,7.474-2.809,9.468h1.639c.131-1.754,1.329-5.078,2.705-8.9,2.482-6.883,5.571-15.449,5.571-22.725a30.594,30.594,0,0,0-4.592-15.437A36.928,36.928,0,0,0,375.815.27H373.59c.011.012.019.025.031.036A32.638,32.638,0,0,1,377.991,6.129Z" transform="translate(-336.661 -0.27)" fill="#ce6cba"/>
        <path id="Trazado_12316" data-name="Trazado 12316" d="M60.21,124.789a.814.814,0,0,0-.518.252,31.211,31.211,0,0,1-5.518,4.366,26.356,26.356,0,0,1-13.752,4.321c-6.61,0-14.583-3.032-20.989-5.468-4.06-1.544-7.284-2.769-9.163-2.82v1.637c1.6.06,4.844,1.291,8.582,2.713,6.531,2.484,14.66,5.575,21.571,5.575a28,28,0,0,0,14.666-4.6,34.57,34.57,0,0,0,5.121-3.939Z" transform="translate(-10.27 -112.133)" fill="#ce6cba"/>
        <path id="Trazado_12317" data-name="Trazado 12317" d="M60.21,23.391a.814.814,0,0,0-.518.252,31.223,31.223,0,0,1-5.518,4.367,26.36,26.36,0,0,1-13.752,4.321c-6.61,0-14.583-3.032-20.989-5.468-4.06-1.544-7.284-2.769-9.163-2.82v1.637c1.6.06,4.844,1.291,8.582,2.713,6.531,2.483,14.66,5.575,21.571,5.575a28,28,0,0,0,14.666-4.6,34.6,34.6,0,0,0,5.121-3.939V23.391Z" transform="translate(-10.27 -21.041)" fill="#ce6cba"/>
        <path id="Trazado_12318" data-name="Trazado 12318" d="M60.21,248.961a.812.812,0,0,0-.3.2,31.262,31.262,0,0,1-5.528,4.367,26.441,26.441,0,0,1-13.778,4.321c-6.623,0-14.61-3.032-21.027-5.468-4.154-1.577-7.435-2.822-9.3-2.822h-.01v1.635h.01c1.564,0,4.878,1.259,8.717,2.716,6.543,2.484,14.685,5.575,21.608,5.575a28.091,28.091,0,0,0,14.691-4.6,35,35,0,0,0,4.913-3.738Z" transform="translate(-10.27 -223.683)" fill="#ce6cba"/>
        <path id="Trazado_12319" data-name="Trazado 12319" d="M60.21,361.75a.814.814,0,0,0-.518.253,31.212,31.212,0,0,1-5.518,4.366,26.356,26.356,0,0,1-13.752,4.321c-6.61,0-14.583-3.032-20.989-5.468-4.06-1.544-7.284-2.769-9.163-2.82v1.637c1.6.06,4.844,1.291,8.582,2.713,6.531,2.484,14.66,5.574,21.571,5.574a28.005,28.005,0,0,0,14.666-4.6,34.628,34.628,0,0,0,5.121-3.939Z" transform="translate(-10.27 -325.008)" fill="#ce6cba"/>
      </g>
    </g>
  </g>
</svg>
