<svg xmlns="http://www.w3.org/2000/svg" width="1007.203" height="510.671" viewBox="0 0 1007.203 510.671">
  <g id="Grupo_24394" data-name="Grupo 24394" transform="translate(-179.797 -7817)">
    <path id="Trazado_10432" data-name="Trazado 10432" d="M1129.859,477.412v4.4c-49.846-78.274-154.894-144.929-197.906-170.049-11.83-6.914-18.973-10.678-18.973-10.678-80.359-43.742-155.105-42.132-220.274-19.923-93.262,31.753-166.918,105.655-209.34,149.089-8.4,8.6-15.577,16.017-21.444,21.664C408.831,503.069,260.832,497.994,245,497.29v-4.4c15.832.7,163.831,5.779,216.923-45.378,5.867-5.647,13.044-13.062,21.444-21.664,42.422-43.434,116.078-117.336,209.34-149.089,65.168-22.209,139.915-23.819,220.274,19.923,0,0,7.142,3.765,18.973,10.678C974.965,332.483,1080.013,399.138,1129.859,477.412Z" transform="translate(49.225 7623.614)" fill="#ed1e79"/>
    <path id="Trazado_10426" data-name="Trazado 10426" d="M492.69,476.98" transform="translate(19.398 7596.908)" fill="none" stroke="#ff1d25" stroke-miterlimit="10" stroke-width="2"/>
    <path id="Trazado_10427" data-name="Trazado 10427" d="M484.437,452.35V585.3H246.07V519.392c15.832.7,163.831,5.779,216.922-45.378C468.859,468.367,476.037,460.952,484.437,452.35Z" transform="translate(49.096 7599.874)" fill="#dbdbdb"/>
    <path id="Trazado_10428" data-name="Trazado 10428" d="M726.41,282.85V564.888H517.07V431.939C559.492,388.505,633.148,314.6,726.41,282.85Z" transform="translate(16.463 7620.285)" fill="#efefef"/>
    <path id="Trazado_10429" data-name="Trazado 10429" d="M994.316,311.362V562.8H755.07V280.761c65.168-22.209,139.915-23.819,220.274,19.923C975.344,300.684,982.486,304.449,994.316,311.362Z" transform="translate(-12.197 7622.374)" fill="#e5e5e5"/>
    <path id="Trazado_10430" data-name="Trazado 10430" d="M1224.976,487.69v81.388H1027.07V317.64C1070.082,342.761,1175.13,409.416,1224.976,487.69Z" transform="translate(-44.951 7616.096)" fill="#f2f2f2"/>
    <path id="Trazado_10431" data-name="Trazado 10431" d="M729.542,292.605" transform="translate(-9.123 7619.11)" fill="none" stroke="#f15a24" stroke-miterlimit="10" stroke-width="1"/>
    <path id="Trazado_10433" data-name="Trazado 10433" d="M492.69,478.163s316.482-97.616,668.315,32.342" transform="translate(19.398 7601.002)" fill="none" stroke="#fd2c7b" stroke-miterlimit="10" stroke-width="1" stroke-dasharray="12"/>
    <path id="Trazado_10434" data-name="Trazado 10434" d="M556.572,402.406s273.444,14.679,392.649-97.123c0,0-123.485,129.387-239.628-9.678" transform="translate(11.705 7618.749)" fill="none" stroke="#fd2c7b" stroke-miterlimit="10" stroke-width="1" stroke-dasharray="12"/>
    <path id="Trazado_10756" data-name="Trazado 10756" d="M0,0H183.152" transform="translate(613.753 7978.35)" fill="none" stroke="#f83881" stroke-width="1" stroke-dasharray="12"/>
    <g id="Grupo_24238" data-name="Grupo 24238" transform="translate(476.758 8036.515)">
      <ellipse id="Elipse_1330" data-name="Elipse 1330" cx="4.832" cy="4.832" rx="4.832" ry="4.832" transform="translate(2.271 0)" fill="#f579a8"/>
      <path id="Trazado_9428" data-name="Trazado 9428" d="M84.713,62H80.955a4.3,4.3,0,0,0-4.295,3.865l-.859,8.16a1.438,1.438,0,0,0,.859,1.5l2.04.752a.725.725,0,0,1,.429.644L80.2,90.56a1.4,1.4,0,0,0,1.4,1.288h2.255a1.331,1.331,0,0,0,1.4-1.288l1.074-13.636a.725.725,0,0,1,.429-.644l2.04-.752a1.316,1.316,0,0,0,.859-1.5l-.859-8.16A3.9,3.9,0,0,0,84.713,62Z" transform="translate(-75.785 -50.619)" fill="#f579a8"/>
    </g>
    <path id="Trazado_10435" data-name="Trazado 10435" d="M261.413,171.435c-.008,7.114-.1,9.148-1.069,9.743.02.073.848,4.9,1.326,5.016,1.572.3,5.579-.317,7.506-.5a1.828,1.828,0,0,1,.345,3.639c-2.377.229-6.4.862-8.536.454-1.984-.377-2.437-1.209-2.882-2.838-.49-1.793-.936-4-1.444-5.79-1.74.2-4.92.492-6.086,1.913-.791.964-.132,8.057-.048,9.764a1.83,1.83,0,0,1-3.655.172c-.163-3.268-1.122-9.819.871-12.249,1.145-1.394,3.033-2.108,6.478-2.833-.011-2.608-.142-5.956-.01-8.6-1.771.4-2.84.728-3.578.953-1.648.5-3.191.862-4.375-.6-1.579-1.941-2.7-6.769-2.706-6.784a1.829,1.829,0,0,1,3.56-.84c0,.013,1.131,4.805,1.488,5a5.374,5.374,0,0,0,.973-.267c1.8-.547,5.933-1.781,7.832-1.774a4.689,4.689,0,0,1,2.915,1.1c1.75,1.329,3.188,2.326,5.079,3.572,3.973,2.616,3.942,2.9,3.267,8.982-.079.715-.169,1.534-.247,2.3a1.827,1.827,0,0,1-3.634-.377c.1-.972.178-1.69.249-2.33.439-3.948.459-4.131-1.645-5.516l-1.973-1.3Zm-1.383-15.8a4.171,4.171,0,1,0,1.527,5.7A4.17,4.17,0,0,0,260.029,155.637Z" transform="translate(301.476 7811.234)" fill="#f579a8" fill-rule="evenodd"/>
    <g id="Grupo_24239" data-name="Grupo 24239" transform="translate(669.585 7868.742)">
      <path id="Trazado_9446" data-name="Trazado 9446" d="M4.506,90.564a.565.565,0,1,0-1.127,0v8.368c0,1.931-3.38,1.931-3.38,0V87.345A4.432,4.432,0,0,1,4.345,83H15.288a4.432,4.432,0,0,1,4.345,4.345V98.932c0,1.931-3.219,1.931-3.219,0V90.564a.645.645,0,0,0-1.287,0v28.162c0,2.575-4.667,2.575-4.667,0V104.081c0-.644-1.127-.644-1.127,0v14.644c0,2.414-4.828,2.414-4.828,0Z" transform="translate(0 -69.643)" fill="#f579a8" fill-rule="evenodd"/>
      <path id="Trazado_9447" data-name="Trazado 9447" d="M31.633,0a5.737,5.737,0,0,1,5.793,5.632A5.714,5.714,0,1,1,26,5.632,5.7,5.7,0,0,1,31.633,0Z" transform="translate(-21.816 0)" fill="#f579a8" fill-rule="evenodd"/>
    </g>
    <g id="Grupo_24242" data-name="Grupo 24242" transform="translate(811.051 7817)">
      <ellipse id="Elipse_1441" data-name="Elipse 1441" cx="5.595" cy="5.595" rx="5.595" ry="5.595" transform="translate(4.236 0)" fill="#f579a8"/>
      <path id="Trazado_10436" data-name="Trazado 10436" d="M40.357,49.9H35.079a6.056,6.056,0,0,0-6.017,5.383L27.9,66.789A1.985,1.985,0,0,0,29.167,68.9l2.85,1.161a.92.92,0,0,1,.633.844l1.478,19.212a2.058,2.058,0,0,0,2.006,1.9H39.3a2.058,2.058,0,0,0,2.006-1.9L42.784,70.8a.919.919,0,0,1,.633-.844l2.85-1.161a1.985,1.985,0,0,0,1.267-2.111L46.373,55.178A6.061,6.061,0,0,0,40.357,49.9Z" transform="translate(-27.888 -37.022)" fill="#f579a8"/>
      <g id="Grupo_24240" data-name="Grupo 24240" transform="translate(22.215 0.001)">
        <path id="Trazado_9496" data-name="Trazado 9496" d="M52.618,33.831,50.972,22.44H36.939L35.013,35.913a3.743,3.743,0,0,0,3.718,4.165l7.45-1.526L44.82,35.125c-1.271.486-3.24,1.232-4.4,1.632-.731.252-1.318-.787-1.227-1.556l.384-3.192-1.619.616-.671-.6,2.688-1.374c.348-.169.872-.057.936.325a14.619,14.619,0,0,1,.006,2.458l3.051-1.183a1.05,1.05,0,0,1,1.359.6l.4,1.02.307.791.322.831v3.028L48.9,38C50.672,37.7,52.87,36.05,52.618,33.831ZM46.829,28.51a.573.573,0,1,1-.573.573A.573.573,0,0,1,46.829,28.51ZM43.6,27.757h.581a2.17,2.17,0,1,0,3.86-1.361v-.789l.01-.012a2.751,2.751,0,1,1-4.45,2.163Zm4.872,6.44a1.876,1.876,0,1,1,1.071-2.427A1.876,1.876,0,0,1,48.475,34.2Z" transform="translate(-34.989 -11.977)" fill="#f579a8"/>
        <path id="Trazado_9497" data-name="Trazado 9497" d="M49.3,6.379a4.322,4.322,0,0,0-1.277-.328,4.388,4.388,0,1,0,2.956,7.11c1.21,1.017,2.746,4.337,5.172-.145C53.057,15.5,53.166,7.723,49.3,6.379Z" transform="translate(-37.979 -6.03)" fill="#f579a8"/>
        <path id="Trazado_9498" data-name="Trazado 9498" d="M51.432,47.767l-11.4,2.349L38.807,62.9l2.476,0L42.87,77.673h2.557L45.473,62.9h1.086l-.033,14.771h2.346L50.661,62.9l2.618-.013Z" transform="translate(-36.373 -21.156)" fill="#f579a8"/>
      </g>
    </g>
    <g id="Grupo_24241" data-name="Grupo 24241" transform="translate(1071.331 7926.873)">
      <path id="Trazado_9432" data-name="Trazado 9432" d="M34.465,26.491c.021.1.043.245.112.284a.259.259,0,0,0,.358-.086.987.987,0,0,1,.235-.218.368.368,0,0,0,.156.013,1.02,1.02,0,0,0,.723-.5,2.733,2.733,0,0,0,.171-.32,2.683,2.683,0,0,0,.171.32,1.02,1.02,0,0,0,.723.5.367.367,0,0,0,.156-.013.963.963,0,0,1,.235.218.258.258,0,0,0,.357.086c.07-.039.092-.183.112-.284a1.04,1.04,0,0,0-.006-.247h0a5.979,5.979,0,0,0-.037-.79A1.177,1.177,0,0,0,36.7,24.5a3.316,3.316,0,0,0-.478.17,3.366,3.366,0,0,0-.478-.17,1.178,1.178,0,0,0-1.238.953,5.884,5.884,0,0,0-.037.79h0A1.227,1.227,0,0,0,34.465,26.491Z" transform="translate(-24.905 -17.236)" fill="#f579a8"/>
      <path id="Trazado_9433" data-name="Trazado 9433" d="M73.708,44.288a1.2,1.2,0,0,0,.182-1.053c0-.009,0-.015,0-.025-.934-3.681-6.815-6.086-7.556-6.125a4.47,4.47,0,0,0-3.882-.012,13.7,13.7,0,0,0-6.7,4.336c-.108-.067-.245-.151-.417-.256-.213.368-.694,1.186-1.3,2.139.347.239.562.381.562.381a1.262,1.262,0,0,0,.507.188c.7.279,2.622-.628,3.432-1.128.282-.174.686-.437,1.116-.722a4.723,4.723,0,0,0,.693,2.022,6.859,6.859,0,0,1,.12,1.252,8.609,8.609,0,0,1-.369,2.271h0c-.056.1-.106.209-.154.316l-.008-.007a24.017,24.017,0,0,0-1.464,6.109h0c-.01.129-.023.267-.036.412s-.034.318-.046.481c-.481,4.855-2.03,16.282-2.03,16.282a29.794,29.794,0,0,0,3.464.793c.3,2.615.808,4.928,1.666,4.928.821,0,1.321-2.116,1.626-4.588.813.034,1.58.028,2.3-.007.306,2.412.8,4.448,1.608,4.448.85,0,1.355-2.263,1.656-4.842a15.32,15.32,0,0,0,3.578-1.1s-1.8-13.867-2.3-17.96a28.017,28.017,0,0,0-.726-3.58C70.653,48.588,73.708,44.288,73.708,44.288Zm-9.9-5.84a.721.721,0,0,1-.269-1.389.863.863,0,0,0-.036.234.878.878,0,0,0,.868.877A.714.714,0,0,1,63.807,38.448Zm1.143,0a.717.717,0,0,1-.563-.277.878.878,0,0,0,.872-.877.854.854,0,0,0-.036-.233.72.72,0,0,1-.273,1.387Zm3.816,9.316a4.787,4.787,0,0,0-.264-.474,6.777,6.777,0,0,1-.3-2,6.7,6.7,0,0,1,.092-1.055,4.731,4.731,0,0,0,.819-2.208c.431.286.835.549,1.117.723a10.923,10.923,0,0,0,1.19.619A32.3,32.3,0,0,0,68.765,47.764Z" transform="translate(-32.383 -21.876)" fill="#f579a8"/>
      <path id="Trazado_9434" data-name="Trazado 9434" d="M69.475,19.072a4.493,4.493,0,0,1,1.874.411,1.941,1.941,0,0,0,.022-.269,1.9,1.9,0,1,0-3.791,0,1.849,1.849,0,0,0,.022.269A4.5,4.5,0,0,1,69.475,19.072Z" transform="translate(-37.56 -14.495)" fill="#f579a8"/>
      <path id="Trazado_9435" data-name="Trazado 9435" d="M44.575,38.386l1.3,5.7c.04.131.062.269.092.4.02.087.042.172.059.26.007.038.019.074.025.112l.022.1h-.007c.013.086.021.173.032.26,0,.028.007.056.01.085a5.344,5.344,0,0,1,.033.557c0,.014,0,.028,0,.041a50.173,50.173,0,0,1,2.582-5.475,11.781,11.781,0,0,1-1.254-.51C46.783,39.585,45.492,38.9,44.575,38.386ZM47.6,41.877c-1.314-1.062-2.444-2.165-2.147-2.624,0-.007.013-.012.018-.019.7.378,1.415.75,1.855.964.265.129.6.269.943.4C48.029,41.043,47.809,41.466,47.6,41.877Z" transform="translate(-28.77 -22.545)" fill="#f579a8"/>
      <path id="Trazado_9436" data-name="Trazado 9436" d="M35.412,32.242l.533-.184a.18.18,0,0,0,.086-.171v-.106a.179.179,0,0,0-.086-.171l-.533-.184c-.214-.074-.455.027-.455.253v.308C34.957,32.216,35.2,32.316,35.412,32.242Z" transform="translate(-25.095 -19.877)" fill="#f579a8"/>
      <ellipse id="Elipse_1335" data-name="Elipse 1335" cx="0.33" cy="0.33" rx="0.33" ry="0.33" transform="translate(10.982 11.628)" fill="#f579a8"/>
      <path id="Trazado_9437" data-name="Trazado 9437" d="M77.051,47.563a6.513,6.513,0,0,0,.212,3.059,4.86,4.86,0,0,1,.264.474,32.148,32.148,0,0,1,2.65-4.4,11.146,11.146,0,0,1-1.19-.619c-.282-.174-.687-.437-1.117-.723A4.732,4.732,0,0,1,77.051,47.563Z" transform="translate(-41.144 -25.208)" fill="#f579a8"/>
      <path id="Trazado_9438" data-name="Trazado 9438" d="M38.543,32.243c.214.074.455-.027.455-.253v-.308c0-.227-.241-.327-.455-.253l-.533.184a.18.18,0,0,0-.086.171v.106a.179.179,0,0,0,.086.171Z" transform="translate(-26.229 -19.877)" fill="#f579a8"/>
      <path id="Trazado_9439" data-name="Trazado 9439" d="M24.79,64.372a1.571,1.571,0,0,1,.361,1h.772a2.342,2.342,0,0,0-.872-1.816A6.463,6.463,0,0,1,24.79,64.372Z" transform="translate(-21.211 -32.161)" fill="#f579a8"/>
      <path id="Trazado_9440" data-name="Trazado 9440" d="M19.006,65.1H19v.088h0V86.661h.767V65.186h0a1.578,1.578,0,0,1,.77-1.353q-.116-.347-.212-.758A2.349,2.349,0,0,0,19.006,65.1Z" transform="translate(-18.997 -31.979)" fill="#f579a8"/>
      <path id="Trazado_9441" data-name="Trazado 9441" d="M45.983,39.758c-.006.007-.014.011-.018.019-.3.458.833,1.561,2.147,2.624.21-.411.429-.833.669-1.28-.346-.13-.678-.27-.943-.4C47.4,40.508,46.685,40.136,45.983,39.758Z" transform="translate(-29.283 -23.069)" fill="#f579a8"/>
      <path id="Trazado_9442" data-name="Trazado 9442" d="M42.477,37.376a.833.833,0,0,0-.054-.443c-.929-2.561-4.1-4.294-6.422-5.179a9.33,9.33,0,0,0-12.383,2.166,6.008,6.008,0,0,0-.7,1.042c-.039.067-.082.133-.119.2H22.8c-1,1.8-2.363,5.124-1.922,7.849a1.489,1.489,0,0,0-.087.486s.107,8.743,1.518,8.74,1.473-8.748,1.473-8.748a1.487,1.487,0,0,0-.251-.823,11.934,11.934,0,0,0,.567-1.255c.393-1.056,2.154-5.71,2.268-6.249h.171L25.184,41.11c-.019.067-.03.138-.047.206-.032.124-.062.247-.085.373,0,.011-.006.021-.007.032l-.022.1h.007c0,.03-.007.06-.011.09-.019.124-.036.248-.048.374,0,.046,0,.093-.007.139-.008.127-.019.253-.019.383a6.021,6.021,0,0,0,1.084,3.452c-.03.133-.059.274-.089.42-.445,1.411-1.252,6.581.067,24.964,0,0,.07.043.194.106v.429a1.831,1.831,0,0,0,1.663,1.962h.009a1.831,1.831,0,0,0,1.663-1.962v-.323a3.452,3.452,0,0,0,.371-.213c.321-8.372-.294-18,1.092-21.457a11.85,11.85,0,0,1,.631,2.886c.043.787.09,1.513.133,2.019.023.27.056.6.1.971.2,4.433.025,10.262.228,15.58.078.052.158.093.237.137v.358A1.831,1.831,0,0,0,33.991,74.1H34a1.831,1.831,0,0,0,1.663-1.962v-.326a3.2,3.2,0,0,0,.328-.169c1.476-20.573.29-24.6-.072-25.326a6.041,6.041,0,0,0,.656-1.164.441.441,0,0,0,.179.3c1.228.7,5.608-6.873,5.608-6.873A1.492,1.492,0,0,0,42.477,37.376Zm-11.1-6.016a.179.179,0,0,1,.086-.171L32,31.005c.214-.074.455.027.455.253v.308c0,.227-.241.327-.455.253l-.533-.184a.18.18,0,0,1-.086-.171ZM31,31.082a.33.33,0,1,1-.33.33A.33.33,0,0,1,31,31.082Zm-1.451.176c0-.227.241-.327.455-.253l.533.184a.18.18,0,0,1,.086.171v.106a.179.179,0,0,1-.086.171L30,31.82c-.214.074-.455-.027-.455-.253Zm7.5,11.552c0-.014,0-.028,0-.041a5.335,5.335,0,0,0-.033-.557c0-.028-.007-.056-.01-.085-.01-.087-.019-.174-.032-.26h.007l-.022-.1c-.006-.038-.019-.074-.025-.112-.017-.088-.038-.174-.059-.26-.03-.135-.052-.273-.092-.4l-1.3-5.7c.917.512,2.209,1.2,2.887,1.53a11.969,11.969,0,0,0,1.254.51A50.1,50.1,0,0,0,37.047,42.81Z" transform="translate(-19.683 -19.455)" fill="#f579a8"/>
      <ellipse id="Elipse_1336" data-name="Elipse 1336" cx="1.183" cy="1.025" rx="1.183" ry="1.025" transform="translate(28.935 8.198)" fill="#f579a8"/>
      <ellipse id="Elipse_1337" data-name="Elipse 1337" cx="1.183" cy="1.025" rx="1.183" ry="1.025" transform="translate(32.44 8.198)" fill="#f579a8"/>
      <g id="Grupo_23663" data-name="Grupo 23663" transform="translate(27.523 4.719)">
        <ellipse id="Elipse_1338" data-name="Elipse 1338" cx="1.183" cy="1.025" rx="1.183" ry="1.025" transform="translate(4.917 3.479)" fill="#f579a8"/>
        <ellipse id="Elipse_1339" data-name="Elipse 1339" cx="1.183" cy="1.025" rx="1.183" ry="1.025" transform="translate(1.412 3.479)" fill="#f579a8"/>
        <path id="Trazado_9443" data-name="Trazado 9443" d="M72.323,24.777a4.391,4.391,0,1,0-8.312,1.971.418.418,0,0,0-.047.185.423.423,0,0,0,.268.394.3.3,0,0,0-.145.251.3.3,0,0,0,.573.123,4.377,4.377,0,0,0,6.541,0,.3.3,0,1,0,.428-.374.423.423,0,0,0,.268-.394.418.418,0,0,0-.047-.185A4.352,4.352,0,0,0,72.323,24.777Zm-1.4-.622a1.126,1.126,0,0,1,.283.735,1.347,1.347,0,0,1-1.432,1.241,1.383,1.383,0,0,1-1.409-1.044.456.456,0,0,0-.481-.4.461.461,0,0,0-.469.353A1.372,1.372,0,0,1,66,26.131a1.347,1.347,0,0,1-1.432-1.241,1.129,1.129,0,0,1,.283-.735c-.255.1-.614-.293-.321-.171a.894.894,0,0,0,.634-.1l.012-.009-.016,0c-.188.053-.365-.272-.193-.151.133.094.4.031.519,0-.176,0-.244-.312-.125-.172s.515.1.515.1l0,.007c.043,0,.083-.011.127-.011a1.364,1.364,0,0,1,1.419,1.128.653.653,0,0,1,.934.015,1.36,1.36,0,0,1,1.421-1.143c.043,0,.085.008.127.011l0-.007s.395.045.515-.1.051.174-.125.172c.116.033.387.1.519,0,.171-.121-.006.2-.193.151l-.016,0,.012.009a.894.894,0,0,0,.634.1C71.537,23.862,71.178,24.253,70.923,24.155Z" transform="translate(-63.54 -20.386)" fill="#f579a8"/>
      </g>
      <g id="Grupo_23664" data-name="Grupo 23664" transform="translate(5.928 0)">
        <path id="Trazado_9444" data-name="Trazado 9444" d="M37.974,26.244a5.978,5.978,0,0,0-.037-.79A1.177,1.177,0,0,0,36.7,24.5a3.316,3.316,0,0,0-.478.17,3.393,3.393,0,0,0-.478-.17,1.178,1.178,0,0,0-1.238.953,5.884,5.884,0,0,0-.037.79h0a1.074,1.074,0,0,0-.006.247c.021.1.043.245.113.284a.258.258,0,0,0,.357-.086.987.987,0,0,1,.235-.218.368.368,0,0,0,.156.013,1.02,1.02,0,0,0,.723-.5,2.732,2.732,0,0,0,.171-.32,2.638,2.638,0,0,0,.171.32,1.02,1.02,0,0,0,.723.5.367.367,0,0,0,.156-.013.963.963,0,0,1,.235.218.258.258,0,0,0,.357.086c.07-.039.092-.183.112-.284a1.04,1.04,0,0,0-.006-.247Z" transform="translate(-30.833 -17.236)" fill="#f579a8"/>
        <path id="Trazado_9445" data-name="Trazado 9445" d="M39.059,15.359H37.545a1.619,1.619,0,0,0,.047-.382v-.608a1.62,1.62,0,0,0-1.62-1.62H31.979a1.62,1.62,0,0,0-1.62,1.62v.608a1.624,1.624,0,0,0,.047.382H28.891c-.166,0-.3.29-.3.648s.134.648.3.648H30.37a4.2,4.2,0,1,0,7.216,0h1.473c.166,0,.3-.29.3-.648S39.225,15.359,39.059,15.359ZM35.734,22c-.021.1-.043.245-.112.284a.258.258,0,0,1-.357-.086.987.987,0,0,0-.235-.218.368.368,0,0,1-.156.013,1.02,1.02,0,0,1-.723-.5,2.734,2.734,0,0,1-.171-.32,2.637,2.637,0,0,1-.171.32,1.02,1.02,0,0,1-.723.5.367.367,0,0,1-.156-.013.963.963,0,0,0-.235.218.258.258,0,0,1-.357.086c-.07-.039-.092-.183-.113-.284a1.04,1.04,0,0,1,.006-.247h0a5.978,5.978,0,0,1,.037-.79,1.177,1.177,0,0,1,1.238-.953,3.316,3.316,0,0,1,.478.17,3.366,3.366,0,0,1,.478-.17,1.178,1.178,0,0,1,1.238.953,5.884,5.884,0,0,1,.037.79h0A1.186,1.186,0,0,1,35.734,22Z" transform="translate(-28.591 -12.749)" fill="#f579a8"/>
      </g>
    </g>
    <g id="Grupo_24245" data-name="Grupo 24245" transform="translate(835.476 7996.651)">
      <g id="Grupo_24244" data-name="Grupo 24244" transform="translate(0 0)">
        <path id="Trazado_10439" data-name="Trazado 10439" d="M44.971,10.671v.011c.038,0,.074,0,.112-.005s.075.005.113.005v-.011a4.282,4.282,0,0,0,0-8.553V2.106c-.038,0-.075,0-.113.005s-.074-.005-.112-.005v.012a4.282,4.282,0,0,0,0,8.553Z" transform="translate(-29.583 -2.106)" fill="#00348d"/>
        <path id="Trazado_10440" data-name="Trazado 10440" d="M62.715,49.454l-.894-9.61a2.343,2.343,0,0,0-1.9-2.086,2.794,2.794,0,0,0-.9-.151H52.464l-1-8.23c-.222-1.833-2.218-3.1-4.458-2.825s-3.873,1.979-3.65,3.811l1.211,9.954a2.808,2.808,0,0,0,.412,1.147,2.787,2.787,0,0,0,2.573,1.716h9.87l.624,6.708a2.345,2.345,0,0,0,4.67-.435Z" transform="translate(-31.001 -16.345)" fill="#00348d"/>
        <path id="Trazado_10441" data-name="Trazado 10441" d="M36.263,54.068a1.046,1.046,0,0,0-1.2.852A9.694,9.694,0,1,1,23.823,43.74a1.042,1.042,0,1,0-.361-2.052A11.777,11.777,0,1,0,37.116,55.269,1.042,1.042,0,0,0,36.263,54.068Z" transform="translate(-13.73 -25.188)" fill="#00348d"/>
      </g>
    </g>
    <g id="Grupo_24246" data-name="Grupo 24246" transform="translate(850.216 7904.591)">
      <path id="Trazado_10442" data-name="Trazado 10442" d="M29.785,6c-.185.229.092.6.276.368A3.082,3.082,0,0,0,30.628,3.9c-.169-.9-.812-1.336-.464-2.365A2.7,2.7,0,0,1,30.829.5c.2-.194.008-.646-.2-.449a3.246,3.246,0,0,0-.979,2.029c-.09.906.579,1.487.654,2.338A2.391,2.391,0,0,1,29.785,6Z" transform="translate(-23.447 0)" fill="#00348d"/>
      <path id="Trazado_10443" data-name="Trazado 10443" d="M40.716,6c-.184.229.092.6.276.368A3.082,3.082,0,0,0,41.56,3.9c-.169-.9-.812-1.336-.464-2.365A2.7,2.7,0,0,1,41.761.5c.2-.194.008-.646-.2-.449a3.248,3.248,0,0,0-.979,2.029c-.089.906.579,1.487.655,2.338A2.39,2.39,0,0,1,40.716,6Z" transform="translate(-32.092 0)" fill="#00348d"/>
      <path id="Trazado_10444" data-name="Trazado 10444" d="M51.649,6c-.184.229.092.6.276.368A3.083,3.083,0,0,0,52.493,3.9c-.169-.9-.812-1.336-.464-2.365A2.7,2.7,0,0,1,52.693.5c.2-.194.008-.646-.2-.449a3.248,3.248,0,0,0-.979,2.029c-.09.906.579,1.487.654,2.338A2.388,2.388,0,0,1,51.649,6Z" transform="translate(-40.739 0)" fill="#00348d"/>
      <path id="Trazado_10445" data-name="Trazado 10445" d="M.12,90.634a1.673,1.673,0,0,0,1.67,1.593l.081,0a1.673,1.673,0,0,0,1.591-1.751A51.822,51.822,0,0,1,3.9,78.633l.447.089a51.492,51.492,0,0,0-.429,11.732,2.123,2.123,0,0,1-.509,1.483v16.684a2.585,2.585,0,0,0,5.171,0V89.744h.969v18.877a2.585,2.585,0,0,0,5.171,0V91.936a2.122,2.122,0,0,1-.509-1.483,51.492,51.492,0,0,0-.429-11.732l.447-.089a51.8,51.8,0,0,1,.441,11.842,1.673,1.673,0,0,0,1.591,1.751l.081,0a1.673,1.673,0,0,0,1.67-1.593,55.493,55.493,0,0,0-.5-12.654c-.476-2.414-1.227-4.064-2.262-4.974a3.079,3.079,0,0,0-1.449-.743,5.164,5.164,0,0,1-9.483,0,3.079,3.079,0,0,0-1.448.743c-1.034.91-1.786,2.56-2.262,4.974A55.5,55.5,0,0,0,.12,90.634Z" transform="translate(-0.001 -57.152)" fill="#00348d"/>
      <path id="Trazado_10446" data-name="Trazado 10446" d="M25.566,49.389a4.7,4.7,0,1,0-4.7-4.7A4.7,4.7,0,0,0,25.566,49.389Zm2.526-2.862-.187.6a5.284,5.284,0,0,0-4.251.56l-.356-.517A5.853,5.853,0,0,1,28.092,46.527Z" transform="translate(-16.499 -31.619)" fill="#00348d"/>
    </g>
    <g id="Grupo_24253" data-name="Grupo 24253" transform="translate(610.874 7987.014)">
      <g id="Grupo_24248" data-name="Grupo 24248" transform="translate(0 7.437)">
        <g id="Grupo_24247" data-name="Grupo 24247">
          <path id="Trazado_10447" data-name="Trazado 10447" d="M26.582,21.261a1.989,1.989,0,0,1-2.733.489l-1.655-1.117v4.1a.557.557,0,0,1-.556.556H13.278a.584.584,0,0,1-.394-.161.559.559,0,0,1-.161-.394l.022-4.461-2.05,1.333a1.992,1.992,0,0,1-2.733-.483,1.921,1.921,0,0,1,.506-2.705l5.644-3.528a4.908,4.908,0,0,0,6.611.094l5.35,3.578A1.916,1.916,0,0,1,26.582,21.261Z" transform="translate(-7.611 -14.889)" fill="#00348d"/>
        </g>
      </g>
      <g id="Grupo_24249" data-name="Grupo 24249" transform="translate(6.035 0)">
        <ellipse id="Elipse_1442" data-name="Elipse 1442" cx="3.827" cy="3.827" rx="3.827" ry="3.827" transform="translate(0)" fill="#00348d"/>
      </g>
      <g id="Grupo_24252" data-name="Grupo 24252" transform="translate(3.489 18.665)">
        <g id="Grupo_24250" data-name="Grupo 24250">
          <path id="Trazado_10448" data-name="Trazado 10448" d="M16.069,35.382h3.55l-1.383,5.494A2.206,2.206,0,1,1,13.958,39.8l1.189-4.7A1.683,1.683,0,0,0,16.069,35.382Z" transform="translate(-13.892 -35.099)" fill="#00348d"/>
        </g>
        <g id="Grupo_24251" data-name="Grupo 24251" transform="translate(7.005 0.011)">
          <path id="Trazado_10449" data-name="Trazado 10449" d="M30.54,42.485a2.206,2.206,0,0,1-2.678-1.6L26.5,35.391h3.533a1.69,1.69,0,0,0,.917-.272l1.189,4.689A2.2,2.2,0,0,1,30.54,42.485Z" transform="translate(-26.501 -35.119)" fill="#00348d"/>
        </g>
      </g>
    </g>
    <g id="Grupo_24254" data-name="Grupo 24254" transform="translate(568.503 8026.797)">
      <path id="Trazado_10450" data-name="Trazado 10450" d="M27.727,7.489ZM35.738,12.1,28.654,7.634a1.206,1.206,0,0,0-.928-.145L22.108,8.767a1.26,1.26,0,0,0-.835.708l-1.726,3.762L15.739,14.9a1.294,1.294,0,0,0-.591,1.664,1.4,1.4,0,0,0,.626.7,2,2,0,0,0-.726,1.77.6.6,0,1,0,1.2,0s-.011-.9.711-.9c.682,0,.746.679.749.882V29.735a.6.6,0,1,0,1.2,0V19.012c0-1.37-.6-1.87-1.332-2.021,1.434-.582,3.538-1.6,3.538-1.6a1.469,1.469,0,0,0,.586-.577l.626-1.365,1.154,5.087v10.3a1.712,1.712,0,0,0,3.4,0V19.606l.671-.153v9.379a1.712,1.712,0,0,0,3.4,0s-.007-10.83-.007-11S29.411,11.2,29.411,11.2l4.939,3.116A1.31,1.31,0,0,0,35.738,12.1ZM19.3,5.024l.833-.189c.429,1.811,1.9,3.372,4.134,2.865,2.279-.517,2.887-2.551,2.491-4.37l.922-.209a.465.465,0,0,0-.206-.907l-.981.223C26.085.654,25.314-.442,22.6.174S19.536,2.146,19.94,3.925l-.848.193a.465.465,0,0,0,.206.906Z" transform="translate(-15.047 -0.001)" fill="#00348d"/>
    </g>
    <path id="Trazado_10757" data-name="Trazado 10757" d="M7.8-5.078H3.133v3.5H8.594V0H1.156V-11.375H8.539v1.594H3.133v3.141H7.8Zm3.977-3.375.055.977A3.039,3.039,0,0,1,14.3-8.609q2.641,0,2.688,3.023V0h-1.9V-5.477a1.741,1.741,0,0,0-.348-1.191A1.462,1.462,0,0,0,13.6-7.055a1.829,1.829,0,0,0-1.711,1.039V0h-1.9V-8.453ZM19.586,0V-7.047H18.3V-8.453h1.289v-.773a2.9,2.9,0,0,1,.781-2.172,2.993,2.993,0,0,1,2.188-.766,4.388,4.388,0,0,1,1.063.141l-.047,1.484a3.739,3.739,0,0,0-.727-.062,1.219,1.219,0,0,0-1.359,1.4v.75H23.2v1.406H21.484V0Zm8.539.156A3.928,3.928,0,0,1,25.2-.98a4.124,4.124,0,0,1-1.121-3.027v-.234A5.072,5.072,0,0,1,24.566-6.5a3.716,3.716,0,0,1,1.371-1.551,3.625,3.625,0,0,1,1.969-.555,3.318,3.318,0,0,1,2.668,1.1,4.658,4.658,0,0,1,.941,3.117v.766H25.992a2.539,2.539,0,0,0,.7,1.656,2.1,2.1,0,0,0,1.543.609,2.571,2.571,0,0,0,2.125-1.055l1.023.977A3.418,3.418,0,0,1,30.027-.262,4.244,4.244,0,0,1,28.125.156ZM27.9-7.086a1.6,1.6,0,0,0-1.262.547,2.835,2.835,0,0,0-.613,1.523h3.617v-.141A2.307,2.307,0,0,0,29.133-6.6,1.586,1.586,0,0,0,27.9-7.086Zm9.516.367a4.7,4.7,0,0,0-.773-.062,1.741,1.741,0,0,0-1.758,1V0h-1.9V-8.453H34.8l.047.945a2.139,2.139,0,0,1,1.906-1.1,1.777,1.777,0,0,1,.672.109ZM40.4-8.453l.055.883a3.042,3.042,0,0,1,2.438-1.039,2.337,2.337,0,0,1,2.32,1.3,3,3,0,0,1,2.594-1.3,2.636,2.636,0,0,1,2.082.773,3.405,3.405,0,0,1,.7,2.281V0h-1.9V-5.5a1.681,1.681,0,0,0-.352-1.18,1.539,1.539,0,0,0-1.164-.375,1.581,1.581,0,0,0-1.059.348,1.833,1.833,0,0,0-.574.91L45.547,0h-1.9V-5.562a1.354,1.354,0,0,0-1.523-1.492,1.671,1.671,0,0,0-1.617.93V0h-1.9V-8.453ZM56.258.156A3.928,3.928,0,0,1,53.332-.98a4.124,4.124,0,0,1-1.121-3.027v-.234A5.072,5.072,0,0,1,52.7-6.5,3.716,3.716,0,0,1,54.07-8.055a3.625,3.625,0,0,1,1.969-.555,3.318,3.318,0,0,1,2.668,1.1,4.658,4.658,0,0,1,.941,3.117v.766H54.125a2.539,2.539,0,0,0,.7,1.656,2.1,2.1,0,0,0,1.543.609,2.571,2.571,0,0,0,2.125-1.055l1.023.977A3.418,3.418,0,0,1,58.16-.262,4.244,4.244,0,0,1,56.258.156Zm-.227-7.242a1.6,1.6,0,0,0-1.262.547,2.835,2.835,0,0,0-.613,1.523h3.617v-.141A2.307,2.307,0,0,0,57.266-6.6,1.586,1.586,0,0,0,56.031-7.086Zm4.734,2.8a5.026,5.026,0,0,1,.906-3.137A2.9,2.9,0,0,1,64.1-8.609a2.759,2.759,0,0,1,2.172.938V-12h1.9V0H66.453l-.094-.875A2.8,2.8,0,0,1,64.086.156a2.887,2.887,0,0,1-2.4-1.2A5.21,5.21,0,0,1,60.766-4.289Zm1.9.164a3.519,3.519,0,0,0,.5,2.012,1.61,1.61,0,0,0,1.41.723,1.793,1.793,0,0,0,1.7-1.039V-6.039a1.766,1.766,0,0,0-1.687-1.016,1.622,1.622,0,0,0-1.422.73A3.919,3.919,0,0,0,62.664-4.125ZM75.2,0a2.93,2.93,0,0,1-.219-.789,2.955,2.955,0,0,1-2.219.945A2.982,2.982,0,0,1,70.688-.57a2.325,2.325,0,0,1-.8-1.8,2.4,2.4,0,0,1,1-2.074,4.865,4.865,0,0,1,2.871-.723h1.164v-.555a1.481,1.481,0,0,0-.367-1.051,1.456,1.456,0,0,0-1.117-.395,1.672,1.672,0,0,0-1.062.324,1,1,0,0,0-.414.824h-1.9a2.107,2.107,0,0,1,.461-1.3,3.071,3.071,0,0,1,1.254-.949,4.4,4.4,0,0,1,1.77-.344,3.547,3.547,0,0,1,2.367.746,2.661,2.661,0,0,1,.906,2.1v3.813a4.321,4.321,0,0,0,.32,1.82V0ZM73.117-1.367a2.159,2.159,0,0,0,1.059-.273,1.827,1.827,0,0,0,.746-.734V-3.969H73.9a2.8,2.8,0,0,0-1.586.367,1.189,1.189,0,0,0-.531,1.039,1.109,1.109,0,0,0,.363.871A1.407,1.407,0,0,0,73.117-1.367Zm5.336-2.922a5.026,5.026,0,0,1,.906-3.137,2.9,2.9,0,0,1,2.43-1.184,2.759,2.759,0,0,1,2.172.938V-12h1.9V0H84.141l-.094-.875A2.8,2.8,0,0,1,81.773.156a2.887,2.887,0,0,1-2.4-1.2A5.21,5.21,0,0,1,78.453-4.289Zm1.9.164a3.519,3.519,0,0,0,.5,2.012,1.61,1.61,0,0,0,1.41.723,1.793,1.793,0,0,0,1.7-1.039V-6.039a1.766,1.766,0,0,0-1.687-1.016,1.622,1.622,0,0,0-1.422.73A3.918,3.918,0,0,0,80.352-4.125Z" transform="translate(756.319 7938.34)" fill="#00348d"/>
    <path id="Trazado_10758" data-name="Trazado 10758" d="M1.156,0V-11.375H4.516a5.269,5.269,0,0,1,2.676.672A4.581,4.581,0,0,1,9-8.8a6.051,6.051,0,0,1,.641,2.828v.57A6.026,6.026,0,0,1,9-2.555,4.526,4.526,0,0,1,7.16-.664,5.513,5.513,0,0,1,4.43,0ZM3.133-9.781v8.2H4.422a2.968,2.968,0,0,0,2.387-.973,4.237,4.237,0,0,0,.848-2.793v-.633a4.347,4.347,0,0,0-.8-2.828,2.853,2.853,0,0,0-2.336-.977ZM13.445,0h-1.9V-8.453h1.9ZM11.43-10.648a1.008,1.008,0,0,1,.277-.727,1.048,1.048,0,0,1,.793-.289,1.061,1.061,0,0,1,.8.289,1,1,0,0,1,.281.727.977.977,0,0,1-.281.715,1.069,1.069,0,0,1-.8.285,1.056,1.056,0,0,1-.793-.285A.984.984,0,0,1,11.43-10.648ZM20.25-2.3a.861.861,0,0,0-.418-.773,4.445,4.445,0,0,0-1.387-.469,7.129,7.129,0,0,1-1.617-.516,2.158,2.158,0,0,1-1.422-1.992,2.25,2.25,0,0,1,.922-1.828,3.644,3.644,0,0,1,2.344-.734,3.792,3.792,0,0,1,2.449.75,2.38,2.38,0,0,1,.934,1.945h-1.9a1.17,1.17,0,0,0-.406-.91,1.557,1.557,0,0,0-1.078-.363,1.682,1.682,0,0,0-1.02.289.911.911,0,0,0-.395.773.769.769,0,0,0,.367.68,5.049,5.049,0,0,0,1.484.488,7.027,7.027,0,0,1,1.754.586,2.484,2.484,0,0,1,.945.816A2.082,2.082,0,0,1,22.117-2.4a2.2,2.2,0,0,1-.945,1.848A4.031,4.031,0,0,1,18.7.156a4.371,4.371,0,0,1-1.852-.375A3.047,3.047,0,0,1,15.578-1.25a2.441,2.441,0,0,1-.453-1.414h1.844a1.338,1.338,0,0,0,.508,1.035,1.973,1.973,0,0,0,1.242.363,1.92,1.92,0,0,0,1.141-.285A.883.883,0,0,0,20.25-2.3Zm6.992.938a1.716,1.716,0,0,0,1.18-.414,1.415,1.415,0,0,0,.5-1.023h1.789a2.789,2.789,0,0,1-.492,1.473,3.228,3.228,0,0,1-1.25,1.082,3.725,3.725,0,0,1-1.7.4A3.6,3.6,0,0,1,24.453-.992a4.555,4.555,0,0,1-1.039-3.172v-.2a4.479,4.479,0,0,1,1.031-3.09,3.571,3.571,0,0,1,2.813-1.16,3.473,3.473,0,0,1,2.457.879,3.148,3.148,0,0,1,1,2.309H28.922a1.738,1.738,0,0,0-.5-1.2,1.6,1.6,0,0,0-1.184-.469,1.671,1.671,0,0,0-1.422.668,3.408,3.408,0,0,0-.508,2.027v.3a3.465,3.465,0,0,0,.5,2.051A1.669,1.669,0,0,0,27.242-1.359ZM37.2,0a2.93,2.93,0,0,1-.219-.789,2.955,2.955,0,0,1-2.219.945A2.982,2.982,0,0,1,32.68-.57a2.325,2.325,0,0,1-.8-1.8,2.4,2.4,0,0,1,1-2.074,4.865,4.865,0,0,1,2.871-.723h1.164v-.555a1.481,1.481,0,0,0-.367-1.051,1.456,1.456,0,0,0-1.117-.395,1.672,1.672,0,0,0-1.062.324,1,1,0,0,0-.414.824h-1.9a2.107,2.107,0,0,1,.461-1.3,3.071,3.071,0,0,1,1.254-.949,4.4,4.4,0,0,1,1.77-.344,3.547,3.547,0,0,1,2.367.746,2.661,2.661,0,0,1,.906,2.1v3.813a4.321,4.321,0,0,0,.32,1.82V0ZM35.109-1.367a2.16,2.16,0,0,0,1.059-.273,1.827,1.827,0,0,0,.746-.734V-3.969H35.891A2.8,2.8,0,0,0,34.3-3.6a1.189,1.189,0,0,0-.531,1.039,1.109,1.109,0,0,0,.363.871A1.407,1.407,0,0,0,35.109-1.367ZM48.2-4.141a5.033,5.033,0,0,1-.891,3.129A2.852,2.852,0,0,1,44.922.156,2.871,2.871,0,0,1,42.7-.758V3.25H40.8v-11.7h1.75l.078.859A2.788,2.788,0,0,1,44.9-8.609a2.881,2.881,0,0,1,2.426,1.152,5.167,5.167,0,0,1,.879,3.2ZM46.313-4.3a3.526,3.526,0,0,0-.5-2.008,1.638,1.638,0,0,0-1.441-.742,1.747,1.747,0,0,0-1.672.961v3.75a1.763,1.763,0,0,0,1.688.984A1.636,1.636,0,0,0,45.8-2.09,3.881,3.881,0,0,0,46.313-4.3ZM54.859,0a2.93,2.93,0,0,1-.219-.789,2.955,2.955,0,0,1-2.219.945A2.982,2.982,0,0,1,50.344-.57a2.325,2.325,0,0,1-.8-1.8,2.4,2.4,0,0,1,1-2.074,4.865,4.865,0,0,1,2.871-.723h1.164v-.555a1.481,1.481,0,0,0-.367-1.051,1.456,1.456,0,0,0-1.117-.395,1.672,1.672,0,0,0-1.062.324,1,1,0,0,0-.414.824h-1.9a2.107,2.107,0,0,1,.461-1.3,3.071,3.071,0,0,1,1.254-.949,4.4,4.4,0,0,1,1.77-.344,3.547,3.547,0,0,1,2.367.746,2.661,2.661,0,0,1,.906,2.1v3.813a4.321,4.321,0,0,0,.32,1.82V0ZM52.773-1.367a2.16,2.16,0,0,0,1.059-.273,1.827,1.827,0,0,0,.746-.734V-3.969H53.555a2.8,2.8,0,0,0-1.586.367,1.189,1.189,0,0,0-.531,1.039,1.109,1.109,0,0,0,.363.871A1.407,1.407,0,0,0,52.773-1.367Zm9.164.008a1.716,1.716,0,0,0,1.18-.414,1.415,1.415,0,0,0,.5-1.023h1.789a2.789,2.789,0,0,1-.492,1.473,3.228,3.228,0,0,1-1.25,1.082,3.725,3.725,0,0,1-1.7.4A3.6,3.6,0,0,1,59.148-.992a4.555,4.555,0,0,1-1.039-3.172v-.2a4.479,4.479,0,0,1,1.031-3.09,3.571,3.571,0,0,1,2.813-1.16,3.473,3.473,0,0,1,2.457.879,3.148,3.148,0,0,1,1,2.309H63.617a1.738,1.738,0,0,0-.5-1.2,1.6,1.6,0,0,0-1.184-.469,1.671,1.671,0,0,0-1.422.668,3.408,3.408,0,0,0-.508,2.027v.3a3.465,3.465,0,0,0,.5,2.051A1.669,1.669,0,0,0,61.938-1.359ZM68.859,0h-1.9V-8.453h1.9ZM66.844-10.648a1.008,1.008,0,0,1,.277-.727,1.048,1.048,0,0,1,.793-.289,1.061,1.061,0,0,1,.8.289,1,1,0,0,1,.281.727.977.977,0,0,1-.281.715,1.069,1.069,0,0,1-.8.285,1.056,1.056,0,0,1-.793-.285A.984.984,0,0,1,66.844-10.648ZM70.57-4.289a5.026,5.026,0,0,1,.906-3.137,2.9,2.9,0,0,1,2.43-1.184,2.759,2.759,0,0,1,2.172.938V-12h1.9V0H76.258l-.094-.875A2.8,2.8,0,0,1,73.891.156a2.887,2.887,0,0,1-2.4-1.2A5.21,5.21,0,0,1,70.57-4.289Zm1.9.164a3.519,3.519,0,0,0,.5,2.012,1.61,1.61,0,0,0,1.41.723,1.793,1.793,0,0,0,1.7-1.039V-6.039a1.766,1.766,0,0,0-1.687-1.016,1.622,1.622,0,0,0-1.422.73A3.918,3.918,0,0,0,72.469-4.125ZM85.008,0a2.93,2.93,0,0,1-.219-.789A2.955,2.955,0,0,1,82.57.156,2.982,2.982,0,0,1,80.492-.57a2.325,2.325,0,0,1-.8-1.8,2.4,2.4,0,0,1,1-2.074,4.865,4.865,0,0,1,2.871-.723h1.164v-.555a1.481,1.481,0,0,0-.367-1.051,1.456,1.456,0,0,0-1.117-.395,1.672,1.672,0,0,0-1.062.324,1,1,0,0,0-.414.824h-1.9a2.107,2.107,0,0,1,.461-1.3,3.071,3.071,0,0,1,1.254-.949,4.4,4.4,0,0,1,1.77-.344,3.547,3.547,0,0,1,2.367.746,2.661,2.661,0,0,1,.906,2.1v3.813a4.321,4.321,0,0,0,.32,1.82V0ZM82.922-1.367a2.159,2.159,0,0,0,1.059-.273,1.827,1.827,0,0,0,.746-.734V-3.969H83.7a2.8,2.8,0,0,0-1.586.367,1.189,1.189,0,0,0-.531,1.039,1.109,1.109,0,0,0,.363.871A1.407,1.407,0,0,0,82.922-1.367Zm5.336-2.922a5.026,5.026,0,0,1,.906-3.137,2.9,2.9,0,0,1,2.43-1.184,2.759,2.759,0,0,1,2.172.938V-12h1.9V0H93.945l-.094-.875A2.8,2.8,0,0,1,91.578.156a2.887,2.887,0,0,1-2.4-1.2A5.21,5.21,0,0,1,88.258-4.289Zm1.9.164a3.519,3.519,0,0,0,.5,2.012,1.61,1.61,0,0,0,1.41.723,1.793,1.793,0,0,0,1.7-1.039V-6.039a1.766,1.766,0,0,0-1.687-1.016,1.622,1.622,0,0,0-1.422.73A3.918,3.918,0,0,0,90.156-4.125Z" transform="translate(869.833 8015.586)" fill="#00348d"/>
    <path id="Trazado_10759" data-name="Trazado 10759" d="M7.8-5.078H3.133v3.5H8.594V0H1.156V-11.375H8.539v1.594H3.133v3.141H7.8Zm3.977-3.375.055.977A3.039,3.039,0,0,1,14.3-8.609q2.641,0,2.688,3.023V0h-1.9V-5.477a1.741,1.741,0,0,0-.348-1.191A1.462,1.462,0,0,0,13.6-7.055a1.829,1.829,0,0,0-1.711,1.039V0h-1.9V-8.453ZM21.3-10.508v2.055h1.492v1.406H21.3v4.719a1.039,1.039,0,0,0,.191.7.888.888,0,0,0,.684.215,2.924,2.924,0,0,0,.664-.078V-.023a4.676,4.676,0,0,1-1.25.18Q19.4.156,19.4-2.258V-7.047H18.008V-8.453H19.4v-2.055Zm2.352,6.2a4.984,4.984,0,0,1,.492-2.238,3.6,3.6,0,0,1,1.383-1.531,3.9,3.9,0,0,1,2.047-.535,3.692,3.692,0,0,1,2.777,1.1A4.333,4.333,0,0,1,31.5-4.586l.008.445a5.029,5.029,0,0,1-.48,2.234A3.551,3.551,0,0,1,29.652-.383a3.925,3.925,0,0,1-2.066.539,3.667,3.667,0,0,1-2.863-1.191,4.563,4.563,0,0,1-1.074-3.176Zm1.9.164A3.406,3.406,0,0,0,26.086-2.1a1.752,1.752,0,0,0,1.5.738,1.733,1.733,0,0,0,1.5-.75,3.762,3.762,0,0,0,.535-2.2,3.362,3.362,0,0,0-.551-2.031,1.759,1.759,0,0,0-1.5-.75,1.743,1.743,0,0,0-1.477.738A3.691,3.691,0,0,0,25.547-4.141ZM37.539-6.719a4.7,4.7,0,0,0-.773-.062,1.741,1.741,0,0,0-1.758,1V0h-1.9V-8.453h1.813l.047.945a2.139,2.139,0,0,1,1.906-1.1,1.777,1.777,0,0,1,.672.109ZM40.5-8.453l.055.977a3.039,3.039,0,0,1,2.461-1.133q2.641,0,2.688,3.023V0H43.8V-5.477a1.741,1.741,0,0,0-.348-1.191,1.462,1.462,0,0,0-1.137-.387,1.829,1.829,0,0,0-1.711,1.039V0h-1.9V-8.453ZM47.281-4.3a4.984,4.984,0,0,1,.492-2.238,3.6,3.6,0,0,1,1.383-1.531A3.9,3.9,0,0,1,51.2-8.609a3.692,3.692,0,0,1,2.777,1.1,4.333,4.333,0,0,1,1.152,2.922l.008.445a5.029,5.029,0,0,1-.48,2.234A3.551,3.551,0,0,1,53.285-.383a3.925,3.925,0,0,1-2.066.539,3.667,3.667,0,0,1-2.863-1.191,4.563,4.563,0,0,1-1.074-3.176Zm1.9.164A3.406,3.406,0,0,0,49.719-2.1a1.752,1.752,0,0,0,1.5.738,1.733,1.733,0,0,0,1.5-.75,3.762,3.762,0,0,0,.535-2.2A3.362,3.362,0,0,0,52.7-6.336a1.759,1.759,0,0,0-1.5-.75,1.743,1.743,0,0,0-1.477.738A3.691,3.691,0,0,0,49.18-4.141ZM69.945,0H67.977V-5.055H62.891V0H60.914V-11.375h1.977v4.734h5.086v-4.734h1.969Zm1.8-4.3a4.984,4.984,0,0,1,.492-2.238,3.6,3.6,0,0,1,1.383-1.531,3.9,3.9,0,0,1,2.047-.535,3.692,3.692,0,0,1,2.777,1.1,4.333,4.333,0,0,1,1.152,2.922l.008.445a5.029,5.029,0,0,1-.48,2.234A3.551,3.551,0,0,1,77.746-.383,3.925,3.925,0,0,1,75.68.156a3.667,3.667,0,0,1-2.863-1.191,4.563,4.563,0,0,1-1.074-3.176Zm1.9.164A3.406,3.406,0,0,0,74.18-2.1a1.752,1.752,0,0,0,1.5.738,1.733,1.733,0,0,0,1.5-.75,3.762,3.762,0,0,0,.535-2.2,3.362,3.362,0,0,0-.551-2.031,1.759,1.759,0,0,0-1.5-.75,1.743,1.743,0,0,0-1.477.738A3.691,3.691,0,0,0,73.641-4.141Zm7.234-.148A4.944,4.944,0,0,1,81.8-7.434a2.971,2.971,0,0,1,2.457-1.176A2.784,2.784,0,0,1,86.531-7.6l.086-.852h1.711v8.2a3.406,3.406,0,0,1-1.035,2.625,3.943,3.943,0,0,1-2.793.961,4.5,4.5,0,0,1-1.816-.387A3.227,3.227,0,0,1,81.336,1.93l.9-1.141a2.713,2.713,0,0,0,2.156,1.039,2.1,2.1,0,0,0,1.492-.512,1.961,1.961,0,0,0,.547-1.5v-.57a2.8,2.8,0,0,1-2.187.914,2.964,2.964,0,0,1-2.426-1.18A5.1,5.1,0,0,1,80.875-4.289Zm1.891.164a3.4,3.4,0,0,0,.52,2,1.671,1.671,0,0,0,1.441.73,1.827,1.827,0,0,0,1.7-.984V-6.094a1.8,1.8,0,0,0-1.687-.961,1.677,1.677,0,0,0-1.457.742A3.811,3.811,0,0,0,82.766-4.125ZM95.328,0a2.93,2.93,0,0,1-.219-.789,2.955,2.955,0,0,1-2.219.945A2.982,2.982,0,0,1,90.813-.57a2.325,2.325,0,0,1-.8-1.8,2.4,2.4,0,0,1,1-2.074,4.865,4.865,0,0,1,2.871-.723h1.164v-.555A1.481,1.481,0,0,0,94.68-6.77a1.456,1.456,0,0,0-1.117-.395A1.672,1.672,0,0,0,92.5-6.84a1,1,0,0,0-.414.824h-1.9a2.107,2.107,0,0,1,.461-1.3A3.071,3.071,0,0,1,91.9-8.266a4.4,4.4,0,0,1,1.77-.344,3.547,3.547,0,0,1,2.367.746,2.661,2.661,0,0,1,.906,2.1v3.813a4.321,4.321,0,0,0,.32,1.82V0ZM93.242-1.367A2.159,2.159,0,0,0,94.3-1.641a1.827,1.827,0,0,0,.746-.734V-3.969H94.023a2.8,2.8,0,0,0-1.586.367,1.189,1.189,0,0,0-.531,1.039,1.109,1.109,0,0,0,.363.871A1.407,1.407,0,0,0,93.242-1.367Zm10.117-5.352a4.7,4.7,0,0,0-.773-.062,1.741,1.741,0,0,0-1.758,1V0h-1.9V-8.453h1.813l.047.945a2.139,2.139,0,0,1,1.906-1.1,1.777,1.777,0,0,1,.672.109Z" transform="translate(371.628 8160.235)" fill="#12263f"/>
    <path id="Trazado_10760" data-name="Trazado 10760" d="M7.8-5.078H3.133v3.5H8.594V0H1.156V-11.375H8.539v1.594H3.133v3.141H7.8Zm3.977-3.375.055.977A3.039,3.039,0,0,1,14.3-8.609q2.641,0,2.688,3.023V0h-1.9V-5.477a1.741,1.741,0,0,0-.348-1.191A1.462,1.462,0,0,0,13.6-7.055a1.829,1.829,0,0,0-1.711,1.039V0h-1.9V-8.453ZM21.3-10.508v2.055h1.492v1.406H21.3v4.719a1.039,1.039,0,0,0,.191.7.888.888,0,0,0,.684.215,2.924,2.924,0,0,0,.664-.078V-.023a4.676,4.676,0,0,1-1.25.18Q19.4.156,19.4-2.258V-7.047H18.008V-8.453H19.4v-2.055Zm2.352,6.2a4.984,4.984,0,0,1,.492-2.238,3.6,3.6,0,0,1,1.383-1.531,3.9,3.9,0,0,1,2.047-.535,3.692,3.692,0,0,1,2.777,1.1A4.333,4.333,0,0,1,31.5-4.586l.008.445a5.029,5.029,0,0,1-.48,2.234A3.551,3.551,0,0,1,29.652-.383a3.925,3.925,0,0,1-2.066.539,3.667,3.667,0,0,1-2.863-1.191,4.563,4.563,0,0,1-1.074-3.176Zm1.9.164A3.406,3.406,0,0,0,26.086-2.1a1.752,1.752,0,0,0,1.5.738,1.733,1.733,0,0,0,1.5-.75,3.762,3.762,0,0,0,.535-2.2,3.362,3.362,0,0,0-.551-2.031,1.759,1.759,0,0,0-1.5-.75,1.743,1.743,0,0,0-1.477.738A3.691,3.691,0,0,0,25.547-4.141ZM37.539-6.719a4.7,4.7,0,0,0-.773-.062,1.741,1.741,0,0,0-1.758,1V0h-1.9V-8.453h1.813l.047.945a2.139,2.139,0,0,1,1.906-1.1,1.777,1.777,0,0,1,.672.109ZM40.5-8.453l.055.977a3.039,3.039,0,0,1,2.461-1.133q2.641,0,2.688,3.023V0H43.8V-5.477a1.741,1.741,0,0,0-.348-1.191,1.462,1.462,0,0,0-1.137-.387,1.829,1.829,0,0,0-1.711,1.039V0h-1.9V-8.453ZM47.281-4.3a4.984,4.984,0,0,1,.492-2.238,3.6,3.6,0,0,1,1.383-1.531A3.9,3.9,0,0,1,51.2-8.609a3.692,3.692,0,0,1,2.777,1.1,4.333,4.333,0,0,1,1.152,2.922l.008.445a5.029,5.029,0,0,1-.48,2.234A3.551,3.551,0,0,1,53.285-.383a3.925,3.925,0,0,1-2.066.539,3.667,3.667,0,0,1-2.863-1.191,4.563,4.563,0,0,1-1.074-3.176Zm1.9.164A3.406,3.406,0,0,0,49.719-2.1a1.752,1.752,0,0,0,1.5.738,1.733,1.733,0,0,0,1.5-.75,3.762,3.762,0,0,0,.535-2.2A3.362,3.362,0,0,0,52.7-6.336a1.759,1.759,0,0,0-1.5-.75,1.743,1.743,0,0,0-1.477.738A3.691,3.691,0,0,0,49.18-4.141Zm18.383-.937H62.891v3.5h5.461V0H60.914V-11.375H68.3v1.594H62.891v3.141h4.672Zm1.711.789a5.026,5.026,0,0,1,.906-3.137,2.9,2.9,0,0,1,2.43-1.184,2.759,2.759,0,0,1,2.172.938V-12h1.9V0H74.961l-.094-.875A2.8,2.8,0,0,1,72.594.156a2.887,2.887,0,0,1-2.4-1.2A5.21,5.21,0,0,1,69.273-4.289Zm1.9.164a3.519,3.519,0,0,0,.5,2.012,1.61,1.61,0,0,0,1.41.723,1.793,1.793,0,0,0,1.7-1.039V-6.039a1.766,1.766,0,0,0-1.687-1.016,1.622,1.622,0,0,0-1.422.73A3.918,3.918,0,0,0,71.172-4.125Zm12.609,3.3a2.944,2.944,0,0,1-2.375.984,2.624,2.624,0,0,1-2.082-.8,3.423,3.423,0,0,1-.707-2.328V-8.453h1.9V-3q0,1.609,1.336,1.609a1.876,1.876,0,0,0,1.867-.992v-6.07h1.9V0H83.828Zm7.242-.531a1.716,1.716,0,0,0,1.18-.414A1.415,1.415,0,0,0,92.7-2.8h1.789A2.789,2.789,0,0,1,94-1.324,3.228,3.228,0,0,1,92.75-.242a3.725,3.725,0,0,1-1.7.4A3.6,3.6,0,0,1,88.234-.992,4.555,4.555,0,0,1,87.2-4.164v-.2a4.479,4.479,0,0,1,1.031-3.09,3.571,3.571,0,0,1,2.813-1.16A3.473,3.473,0,0,1,93.5-7.73a3.148,3.148,0,0,1,1,2.309H92.7a1.738,1.738,0,0,0-.5-1.2,1.6,1.6,0,0,0-1.184-.469,1.671,1.671,0,0,0-1.422.668,3.408,3.408,0,0,0-.508,2.027v.3a3.465,3.465,0,0,0,.5,2.051A1.669,1.669,0,0,0,91.023-1.359ZM100.977,0a2.93,2.93,0,0,1-.219-.789,2.955,2.955,0,0,1-2.219.945A2.982,2.982,0,0,1,96.461-.57a2.325,2.325,0,0,1-.8-1.8,2.4,2.4,0,0,1,1-2.074,4.865,4.865,0,0,1,2.871-.723H100.7v-.555a1.481,1.481,0,0,0-.367-1.051,1.456,1.456,0,0,0-1.117-.395,1.672,1.672,0,0,0-1.062.324,1,1,0,0,0-.414.824h-1.9a2.107,2.107,0,0,1,.461-1.3,3.071,3.071,0,0,1,1.254-.949,4.4,4.4,0,0,1,1.77-.344,3.547,3.547,0,0,1,2.367.746,2.661,2.661,0,0,1,.906,2.1v3.813a4.321,4.321,0,0,0,.32,1.82V0ZM98.891-1.367a2.159,2.159,0,0,0,1.059-.273,1.827,1.827,0,0,0,.746-.734V-3.969H99.672a2.8,2.8,0,0,0-1.586.367,1.189,1.189,0,0,0-.531,1.039,1.109,1.109,0,0,0,.363.871A1.407,1.407,0,0,0,98.891-1.367Zm8.07-9.141v2.055h1.492v1.406h-1.492v4.719a1.039,1.039,0,0,0,.191.7.888.888,0,0,0,.684.215,2.924,2.924,0,0,0,.664-.078V-.023a4.676,4.676,0,0,1-1.25.18q-2.188,0-2.187-2.414V-7.047h-1.391V-8.453h1.391v-2.055ZM111.922,0h-1.9V-8.453h1.9Zm-2.016-10.648a1.008,1.008,0,0,1,.277-.727,1.048,1.048,0,0,1,.793-.289,1.061,1.061,0,0,1,.8.289,1,1,0,0,1,.281.727.977.977,0,0,1-.281.715,1.069,1.069,0,0,1-.8.285,1.056,1.056,0,0,1-.793-.285A.984.984,0,0,1,109.906-10.648Zm7.063,8.242,1.789-6.047h1.961L117.789,0h-1.648l-2.953-8.453h1.969Zm4.461-1.9a4.984,4.984,0,0,1,.492-2.238A3.6,3.6,0,0,1,123.3-8.074a3.9,3.9,0,0,1,2.047-.535,3.692,3.692,0,0,1,2.777,1.1,4.333,4.333,0,0,1,1.152,2.922l.008.445a5.029,5.029,0,0,1-.48,2.234,3.551,3.551,0,0,1-1.375,1.523,3.925,3.925,0,0,1-2.066.539A3.667,3.667,0,0,1,122.5-1.035a4.563,4.563,0,0,1-1.074-3.176Zm1.9.164a3.406,3.406,0,0,0,.539,2.043,1.752,1.752,0,0,0,1.5.738,1.733,1.733,0,0,0,1.5-.75,3.762,3.762,0,0,0,.535-2.2,3.362,3.362,0,0,0-.551-2.031,1.759,1.759,0,0,0-1.5-.75,1.743,1.743,0,0,0-1.477.738A3.691,3.691,0,0,0,123.328-4.141Z" transform="translate(589.764 8160.235)" fill="#12263f"/>
    <path id="Trazado_10761" data-name="Trazado 10761" d="M7.8-5.078H3.133v3.5H8.594V0H1.156V-11.375H8.539v1.594H3.133v3.141H7.8Zm3.977-3.375.055.977A3.039,3.039,0,0,1,14.3-8.609q2.641,0,2.688,3.023V0h-1.9V-5.477a1.741,1.741,0,0,0-.348-1.191A1.462,1.462,0,0,0,13.6-7.055a1.829,1.829,0,0,0-1.711,1.039V0h-1.9V-8.453ZM21.3-10.508v2.055h1.492v1.406H21.3v4.719a1.039,1.039,0,0,0,.191.7.888.888,0,0,0,.684.215,2.924,2.924,0,0,0,.664-.078V-.023a4.676,4.676,0,0,1-1.25.18Q19.4.156,19.4-2.258V-7.047H18.008V-8.453H19.4v-2.055Zm2.352,6.2a4.984,4.984,0,0,1,.492-2.238,3.6,3.6,0,0,1,1.383-1.531,3.9,3.9,0,0,1,2.047-.535,3.692,3.692,0,0,1,2.777,1.1A4.333,4.333,0,0,1,31.5-4.586l.008.445a5.029,5.029,0,0,1-.48,2.234A3.551,3.551,0,0,1,29.652-.383a3.925,3.925,0,0,1-2.066.539,3.667,3.667,0,0,1-2.863-1.191,4.563,4.563,0,0,1-1.074-3.176Zm1.9.164A3.406,3.406,0,0,0,26.086-2.1a1.752,1.752,0,0,0,1.5.738,1.733,1.733,0,0,0,1.5-.75,3.762,3.762,0,0,0,.535-2.2,3.362,3.362,0,0,0-.551-2.031,1.759,1.759,0,0,0-1.5-.75,1.743,1.743,0,0,0-1.477.738A3.691,3.691,0,0,0,25.547-4.141ZM37.539-6.719a4.7,4.7,0,0,0-.773-.062,1.741,1.741,0,0,0-1.758,1V0h-1.9V-8.453h1.813l.047.945a2.139,2.139,0,0,1,1.906-1.1,1.777,1.777,0,0,1,.672.109ZM40.5-8.453l.055.977a3.039,3.039,0,0,1,2.461-1.133q2.641,0,2.688,3.023V0H43.8V-5.477a1.741,1.741,0,0,0-.348-1.191,1.462,1.462,0,0,0-1.137-.387,1.829,1.829,0,0,0-1.711,1.039V0h-1.9V-8.453ZM47.281-4.3a4.984,4.984,0,0,1,.492-2.238,3.6,3.6,0,0,1,1.383-1.531A3.9,3.9,0,0,1,51.2-8.609a3.692,3.692,0,0,1,2.777,1.1,4.333,4.333,0,0,1,1.152,2.922l.008.445a5.029,5.029,0,0,1-.48,2.234A3.551,3.551,0,0,1,53.285-.383a3.925,3.925,0,0,1-2.066.539,3.667,3.667,0,0,1-2.863-1.191,4.563,4.563,0,0,1-1.074-3.176Zm1.9.164A3.406,3.406,0,0,0,49.719-2.1a1.752,1.752,0,0,0,1.5.738,1.733,1.733,0,0,0,1.5-.75,3.762,3.762,0,0,0,.535-2.2A3.362,3.362,0,0,0,52.7-6.336a1.759,1.759,0,0,0-1.5-.75,1.743,1.743,0,0,0-1.477.738A3.691,3.691,0,0,0,49.18-4.141ZM62.891-1.578h5.164V0H60.914V-11.375h1.977ZM74.438,0a2.93,2.93,0,0,1-.219-.789A2.955,2.955,0,0,1,72,.156,2.982,2.982,0,0,1,69.922-.57a2.325,2.325,0,0,1-.8-1.8,2.4,2.4,0,0,1,1-2.074,4.865,4.865,0,0,1,2.871-.723h1.164v-.555a1.481,1.481,0,0,0-.367-1.051,1.456,1.456,0,0,0-1.117-.395,1.672,1.672,0,0,0-1.062.324,1,1,0,0,0-.414.824H69.3a2.107,2.107,0,0,1,.461-1.3,3.071,3.071,0,0,1,1.254-.949,4.4,4.4,0,0,1,1.77-.344,3.547,3.547,0,0,1,2.367.746,2.661,2.661,0,0,1,.906,2.1v3.813a4.321,4.321,0,0,0,.32,1.82V0ZM72.352-1.367a2.159,2.159,0,0,0,1.059-.273,1.827,1.827,0,0,0,.746-.734V-3.969H73.133a2.8,2.8,0,0,0-1.586.367,1.189,1.189,0,0,0-.531,1.039,1.109,1.109,0,0,0,.363.871A1.407,1.407,0,0,0,72.352-1.367ZM85.461-4.141a5.078,5.078,0,0,1-.879,3.133A2.863,2.863,0,0,1,82.164.156a2.758,2.758,0,0,1-2.312-1.07L79.758,0H78.039V-12h1.9v4.359a2.748,2.748,0,0,1,2.211-.969,2.9,2.9,0,0,1,2.43,1.148,5.162,5.162,0,0,1,.883,3.211Zm-1.9-.164a3.589,3.589,0,0,0-.484-2.062,1.613,1.613,0,0,0-1.406-.687,1.763,1.763,0,0,0-1.734,1.078v3.484a1.781,1.781,0,0,0,1.75,1.1,1.6,1.6,0,0,0,1.375-.664,3.477,3.477,0,0,0,.5-2.008Zm3.133,0a4.984,4.984,0,0,1,.492-2.238A3.6,3.6,0,0,1,88.57-8.074a3.9,3.9,0,0,1,2.047-.535,3.692,3.692,0,0,1,2.777,1.1,4.333,4.333,0,0,1,1.152,2.922l.008.445a5.029,5.029,0,0,1-.48,2.234A3.551,3.551,0,0,1,92.7-.383a3.925,3.925,0,0,1-2.066.539A3.667,3.667,0,0,1,87.77-1.035,4.563,4.563,0,0,1,86.7-4.211Zm1.9.164A3.406,3.406,0,0,0,89.133-2.1a1.752,1.752,0,0,0,1.5.738,1.733,1.733,0,0,0,1.5-.75,3.762,3.762,0,0,0,.535-2.2,3.362,3.362,0,0,0-.551-2.031,1.759,1.759,0,0,0-1.5-.75,1.743,1.743,0,0,0-1.477.738A3.691,3.691,0,0,0,88.594-4.141Zm11.992-2.578a4.7,4.7,0,0,0-.773-.062,1.741,1.741,0,0,0-1.758,1V0h-1.9V-8.453h1.813l.047.945a2.139,2.139,0,0,1,1.906-1.1,1.777,1.777,0,0,1,.672.109ZM106.6,0a2.93,2.93,0,0,1-.219-.789,2.955,2.955,0,0,1-2.219.945,2.982,2.982,0,0,1-2.078-.727,2.325,2.325,0,0,1-.8-1.8,2.4,2.4,0,0,1,1-2.074,4.865,4.865,0,0,1,2.871-.723h1.164v-.555a1.481,1.481,0,0,0-.367-1.051,1.456,1.456,0,0,0-1.117-.395,1.672,1.672,0,0,0-1.062.324,1,1,0,0,0-.414.824h-1.9a2.107,2.107,0,0,1,.461-1.3,3.071,3.071,0,0,1,1.254-.949,4.4,4.4,0,0,1,1.77-.344,3.547,3.547,0,0,1,2.367.746,2.661,2.661,0,0,1,.906,2.1v3.813a4.321,4.321,0,0,0,.32,1.82V0Zm-2.086-1.367a2.159,2.159,0,0,0,1.059-.273,1.827,1.827,0,0,0,.746-.734V-3.969H105.3a2.8,2.8,0,0,0-1.586.367,1.189,1.189,0,0,0-.531,1.039,1.109,1.109,0,0,0,.363.871A1.407,1.407,0,0,0,104.516-1.367ZM112.227,0h-1.9V-12h1.9Z" transform="translate(817.576 8160.235)" fill="#12263f"/>
    <g id="Trazado_10762" data-name="Trazado 10762" transform="translate(711.146 7904.591)" fill="#fff">
      <path d="M 6.596863746643066 12.44372177124023 C 3.372893810272217 12.44372177124023 0.7500037550926208 9.820832252502441 0.7500037550926208 6.596861839294434 C 0.7500037550926208 3.372891902923584 3.372893810272217 0.750001847743988 6.596863746643066 0.750001847743988 C 9.820834159851074 0.750001847743988 12.44372367858887 3.372891902923584 12.44372367858887 6.596861839294434 C 12.44372367858887 9.820832252502441 9.820834159851074 12.44372177124023 6.596863746643066 12.44372177124023 Z" stroke="none"/>
      <path d="M 6.596863746643066 1.500001907348633 C 3.786443710327148 1.500001907348633 1.500003814697266 3.786441802978516 1.500003814697266 6.596861839294434 C 1.500003814697266 9.407281875610352 3.786443710327148 11.69372177124023 6.596863746643066 11.69372177124023 C 9.407283782958984 11.69372177124023 11.69372367858887 9.407281875610352 11.69372367858887 6.596861839294434 C 11.69372367858887 3.786441802978516 9.407283782958984 1.500001907348633 6.596863746643066 1.500001907348633 M 6.596863746643066 1.9073486328125e-06 C 10.24021339416504 1.9073486328125e-06 13.19372367858887 2.953512191772461 13.19372367858887 6.596861839294434 C 13.19372367858887 10.24021148681641 10.24021339416504 13.19372177124023 6.596863746643066 13.19372177124023 C 2.953514099121094 13.19372177124023 3.814697265625e-06 10.24021148681641 3.814697265625e-06 6.596861839294434 C 3.814697265625e-06 2.953512191772461 2.953514099121094 1.9073486328125e-06 6.596863746643066 1.9073486328125e-06 Z" stroke="none" fill="#ff3984"/>
    </g>
    <g id="Trazado_10763" data-name="Trazado 10763" transform="translate(604.718 7969.681)" fill="#fff">
      <path d="M 6.596863746643066 12.44372177124023 C 3.372893810272217 12.44372177124023 0.7500037550926208 9.820832252502441 0.7500037550926208 6.596861839294434 C 0.7500037550926208 3.372891902923584 3.372893810272217 0.750001847743988 6.596863746643066 0.750001847743988 C 9.820834159851074 0.750001847743988 12.44372367858887 3.372891902923584 12.44372367858887 6.596861839294434 C 12.44372367858887 9.820832252502441 9.820834159851074 12.44372177124023 6.596863746643066 12.44372177124023 Z" stroke="none"/>
      <path d="M 6.596863746643066 1.500001907348633 C 3.786443710327148 1.500001907348633 1.500003814697266 3.786441802978516 1.500003814697266 6.596861839294434 C 1.500003814697266 9.407281875610352 3.786443710327148 11.69372177124023 6.596863746643066 11.69372177124023 C 9.407283782958984 11.69372177124023 11.69372367858887 9.407281875610352 11.69372367858887 6.596861839294434 C 11.69372367858887 3.786441802978516 9.407283782958984 1.500001907348633 6.596863746643066 1.500001907348633 M 6.596863746643066 1.9073486328125e-06 C 10.24021339416504 1.9073486328125e-06 13.19372367858887 2.953512191772461 13.19372367858887 6.596861839294434 C 13.19372367858887 10.24021148681641 10.24021339416504 13.19372177124023 6.596863746643066 13.19372177124023 C 2.953514099121094 13.19372177124023 3.814697265625e-06 10.24021148681641 3.814697265625e-06 6.596861839294434 C 3.814697265625e-06 2.953512191772461 2.953514099121094 1.9073486328125e-06 6.596863746643066 1.9073486328125e-06 Z" stroke="none" fill="#ff3984"/>
    </g>
    <g id="Trazado_10764" data-name="Trazado 10764" transform="translate(557.22 8012.78)" fill="#fff">
      <path d="M 6.596863746643066 12.44372177124023 C 3.372893810272217 12.44372177124023 0.7500037550926208 9.820832252502441 0.7500037550926208 6.596861839294434 C 0.7500037550926208 3.372891902923584 3.372893810272217 0.750001847743988 6.596863746643066 0.750001847743988 C 9.820834159851074 0.750001847743988 12.44372367858887 3.372891902923584 12.44372367858887 6.596861839294434 C 12.44372367858887 9.820832252502441 9.820834159851074 12.44372177124023 6.596863746643066 12.44372177124023 Z" stroke="none"/>
      <path d="M 6.596863746643066 1.500001907348633 C 3.786443710327148 1.500001907348633 1.500003814697266 3.786441802978516 1.500003814697266 6.596861839294434 C 1.500003814697266 9.407281875610352 3.786443710327148 11.69372177124023 6.596863746643066 11.69372177124023 C 9.407283782958984 11.69372177124023 11.69372367858887 9.407281875610352 11.69372367858887 6.596861839294434 C 11.69372367858887 3.786441802978516 9.407283782958984 1.500001907348633 6.596863746643066 1.500001907348633 M 6.596863746643066 1.9073486328125e-06 C 10.24021339416504 1.9073486328125e-06 13.19372367858887 2.953512191772461 13.19372367858887 6.596861839294434 C 13.19372367858887 10.24021148681641 10.24021339416504 13.19372177124023 6.596863746643066 13.19372177124023 C 2.953514099121094 13.19372177124023 3.814697265625e-06 10.24021148681641 3.814697265625e-06 6.596861839294434 C 3.814697265625e-06 2.953512191772461 2.953514099121094 1.9073486328125e-06 6.596863746643066 1.9073486328125e-06 Z" stroke="none" fill="#ff3984"/>
    </g>
    <g id="Trazado_10765" data-name="Trazado 10765" transform="translate(500.927 8070.833)" fill="#fff">
      <path d="M 6.596863746643066 12.44372177124023 C 3.372893810272217 12.44372177124023 0.7500037550926208 9.820832252502441 0.7500037550926208 6.596861839294434 C 0.7500037550926208 3.372891902923584 3.372893810272217 0.750001847743988 6.596863746643066 0.750001847743988 C 9.820834159851074 0.750001847743988 12.44372367858887 3.372891902923584 12.44372367858887 6.596861839294434 C 12.44372367858887 9.820832252502441 9.820834159851074 12.44372177124023 6.596863746643066 12.44372177124023 Z" stroke="none"/>
      <path d="M 6.596863746643066 1.500001907348633 C 3.786443710327148 1.500001907348633 1.500003814697266 3.786441802978516 1.500003814697266 6.596861839294434 C 1.500003814697266 9.407281875610352 3.786443710327148 11.69372177124023 6.596863746643066 11.69372177124023 C 9.407283782958984 11.69372177124023 11.69372367858887 9.407281875610352 11.69372367858887 6.596861839294434 C 11.69372367858887 3.786441802978516 9.407283782958984 1.500001907348633 6.596863746643066 1.500001907348633 M 6.596863746643066 1.9073486328125e-06 C 10.24021339416504 1.9073486328125e-06 13.19372367858887 2.953512191772461 13.19372367858887 6.596861839294434 C 13.19372367858887 10.24021148681641 10.24021339416504 13.19372177124023 6.596863746643066 13.19372177124023 C 2.953514099121094 13.19372177124023 3.814697265625e-06 10.24021148681641 3.814697265625e-06 6.596861839294434 C 3.814697265625e-06 2.953512191772461 2.953514099121094 1.9073486328125e-06 6.596863746643066 1.9073486328125e-06 Z" stroke="none" fill="#ff3984"/>
    </g>
    <path id="Trazado_10451" data-name="Trazado 10451" d="M-15429.93-3661.2v-132.93" transform="translate(15963.463 11846.378)" fill="none" stroke="#00348d" stroke-width="1" stroke-dasharray="6"/>
    <path id="Trazado_10452" data-name="Trazado 10452" d="M-15429.93-3512.1v-282.038" transform="translate(16172.804 11697.27)" fill="none" stroke="#00348d" stroke-width="1" stroke-dasharray="6"/>
    <path id="Trazado_10453" data-name="Trazado 10453" d="M-15429.93-3542.7v-251.437" transform="translate(16412.051 11727.871)" fill="none" stroke="#00348d" stroke-width="1" stroke-dasharray="6"/>
    <path id="Trazado_10454" data-name="Trazado 10454" d="M-15429.93-3715.418v-78.717" transform="translate(16610.334 11900.59)" fill="none" stroke="#00348d" stroke-width="1" stroke-dasharray="6"/>
    <path id="Trazado_10766" data-name="Trazado 10766" d="M6.6,0A6.6,6.6,0,1,1,0,6.6,6.6,6.6,0,0,1,6.6,0Z" transform="translate(1173.807 8099.858)" fill="#ff468c"/>
    <g id="Trazado_10767" data-name="Trazado 10767" transform="translate(294.225 8185.178)" fill="#c6c6c6">
      <path d="M 886.1184692382812 36.44243621826172 L 0.5000123977661133 36.44243621826172 L 0.5000123977661133 0.4999901652336121 L 886.1184692382812 0.4999901652336121 L 886.1184692382812 36.44243621826172 Z" stroke="none"/>
      <path d="M 1 0.9999885559082031 L 1 35.94243621826172 L 885.6184692382812 35.94243621826172 L 885.6184692382812 0.9999885559082031 L 1 0.9999885559082031 M 0 -1.1444091796875e-05 L 886.6184692382812 -1.1444091796875e-05 L 886.6184692382812 36.94243621826172 L 0 36.94243621826172 L 0 -1.1444091796875e-05 Z" stroke="none" fill="#707070"/>
    </g>
    <path id="Trazado_10768" data-name="Trazado 10768" d="M7.8-5.078H3.133v3.5H8.594V0H1.156V-11.375H8.539v1.594H3.133v3.141H7.8Zm3.977-3.375.055.977A3.039,3.039,0,0,1,14.3-8.609q2.641,0,2.688,3.023V0h-1.9V-5.477a1.741,1.741,0,0,0-.348-1.191A1.462,1.462,0,0,0,13.6-7.055a1.829,1.829,0,0,0-1.711,1.039V0h-1.9V-8.453ZM21.3-10.508v2.055h1.492v1.406H21.3v4.719a1.039,1.039,0,0,0,.191.7.888.888,0,0,0,.684.215,2.924,2.924,0,0,0,.664-.078V-.023a4.676,4.676,0,0,1-1.25.18Q19.4.156,19.4-2.258V-7.047H18.008V-8.453H19.4v-2.055Zm2.352,6.2a4.984,4.984,0,0,1,.492-2.238,3.6,3.6,0,0,1,1.383-1.531,3.9,3.9,0,0,1,2.047-.535,3.692,3.692,0,0,1,2.777,1.1A4.333,4.333,0,0,1,31.5-4.586l.008.445a5.029,5.029,0,0,1-.48,2.234A3.551,3.551,0,0,1,29.652-.383a3.925,3.925,0,0,1-2.066.539,3.667,3.667,0,0,1-2.863-1.191,4.563,4.563,0,0,1-1.074-3.176Zm1.9.164A3.406,3.406,0,0,0,26.086-2.1a1.752,1.752,0,0,0,1.5.738,1.733,1.733,0,0,0,1.5-.75,3.762,3.762,0,0,0,.535-2.2,3.362,3.362,0,0,0-.551-2.031,1.759,1.759,0,0,0-1.5-.75,1.743,1.743,0,0,0-1.477.738A3.691,3.691,0,0,0,25.547-4.141ZM37.539-6.719a4.7,4.7,0,0,0-.773-.062,1.741,1.741,0,0,0-1.758,1V0h-1.9V-8.453h1.813l.047.945a2.139,2.139,0,0,1,1.906-1.1,1.777,1.777,0,0,1,.672.109ZM40.5-8.453l.055.977a3.039,3.039,0,0,1,2.461-1.133q2.641,0,2.688,3.023V0H43.8V-5.477a1.741,1.741,0,0,0-.348-1.191,1.462,1.462,0,0,0-1.137-.387,1.829,1.829,0,0,0-1.711,1.039V0h-1.9V-8.453ZM47.281-4.3a4.984,4.984,0,0,1,.492-2.238,3.6,3.6,0,0,1,1.383-1.531A3.9,3.9,0,0,1,51.2-8.609a3.692,3.692,0,0,1,2.777,1.1,4.333,4.333,0,0,1,1.152,2.922l.008.445a5.029,5.029,0,0,1-.48,2.234A3.551,3.551,0,0,1,53.285-.383a3.925,3.925,0,0,1-2.066.539,3.667,3.667,0,0,1-2.863-1.191,4.563,4.563,0,0,1-1.074-3.176Zm1.9.164A3.406,3.406,0,0,0,49.719-2.1a1.752,1.752,0,0,0,1.5.738,1.733,1.733,0,0,0,1.5-.75,3.762,3.762,0,0,0,.535-2.2A3.362,3.362,0,0,0,52.7-6.336a1.759,1.759,0,0,0-1.5-.75,1.743,1.743,0,0,0-1.477.738A3.691,3.691,0,0,0,49.18-4.141ZM69.594-3.7A4.107,4.107,0,0,1,68.25-.863,4.581,4.581,0,0,1,65.133.156a4.436,4.436,0,0,1-2.395-.645,4.231,4.231,0,0,1-1.6-1.832,6.611,6.611,0,0,1-.586-2.758V-6.141a6.659,6.659,0,0,1,.57-2.836,4.3,4.3,0,0,1,1.637-1.891,4.566,4.566,0,0,1,2.465-.664,4.386,4.386,0,0,1,3.031,1.023,4.276,4.276,0,0,1,1.336,2.891H67.625a2.81,2.81,0,0,0-.715-1.77,2.363,2.363,0,0,0-1.684-.543,2.309,2.309,0,0,0-1.98.941,4.7,4.7,0,0,0-.707,2.762v1.008a4.988,4.988,0,0,0,.66,2.813,2.191,2.191,0,0,0,1.934.969,2.555,2.555,0,0,0,1.75-.523A2.729,2.729,0,0,0,67.625-3.7Zm1.227-.6a4.984,4.984,0,0,1,.492-2.238A3.6,3.6,0,0,1,72.7-8.074a3.9,3.9,0,0,1,2.047-.535,3.692,3.692,0,0,1,2.777,1.1,4.333,4.333,0,0,1,1.152,2.922l.008.445a5.029,5.029,0,0,1-.48,2.234A3.551,3.551,0,0,1,76.824-.383a3.925,3.925,0,0,1-2.066.539,3.667,3.667,0,0,1-2.863-1.191A4.563,4.563,0,0,1,70.82-4.211Zm1.9.164A3.406,3.406,0,0,0,73.258-2.1a1.752,1.752,0,0,0,1.5.738,1.733,1.733,0,0,0,1.5-.75,3.762,3.762,0,0,0,.535-2.2,3.362,3.362,0,0,0-.551-2.031,1.759,1.759,0,0,0-1.5-.75,1.743,1.743,0,0,0-1.477.738A3.691,3.691,0,0,0,72.719-4.141ZM82.07-8.453l.055.883a3.042,3.042,0,0,1,2.438-1.039,2.337,2.337,0,0,1,2.32,1.3,3,3,0,0,1,2.594-1.3,2.636,2.636,0,0,1,2.082.773,3.405,3.405,0,0,1,.7,2.281V0h-1.9V-5.5a1.681,1.681,0,0,0-.352-1.18,1.539,1.539,0,0,0-1.164-.375,1.581,1.581,0,0,0-1.059.348,1.833,1.833,0,0,0-.574.91L87.219,0h-1.9V-5.562A1.354,1.354,0,0,0,83.8-7.055a1.671,1.671,0,0,0-1.617.93V0h-1.9V-8.453ZM99.328-.828a2.944,2.944,0,0,1-2.375.984,2.624,2.624,0,0,1-2.082-.8,3.423,3.423,0,0,1-.707-2.328V-8.453h1.9V-3q0,1.609,1.336,1.609a1.876,1.876,0,0,0,1.867-.992v-6.07h1.9V0H99.375Zm5.531-7.625.055.977a3.039,3.039,0,0,1,2.461-1.133q2.641,0,2.688,3.023V0h-1.9V-5.477a1.741,1.741,0,0,0-.348-1.191,1.462,1.462,0,0,0-1.137-.387,1.829,1.829,0,0,0-1.711,1.039V0h-1.9V-8.453ZM114.016,0h-1.9V-8.453h1.9ZM112-10.648a1.008,1.008,0,0,1,.277-.727,1.048,1.048,0,0,1,.793-.289,1.061,1.061,0,0,1,.8.289,1,1,0,0,1,.281.727.977.977,0,0,1-.281.715,1.069,1.069,0,0,1-.8.285,1.056,1.056,0,0,1-.793-.285A.984.984,0,0,1,112-10.648Zm6.461.141v2.055h1.492v1.406h-1.492v4.719a1.039,1.039,0,0,0,.191.7.888.888,0,0,0,.684.215A2.924,2.924,0,0,0,120-1.492V-.023a4.676,4.676,0,0,1-1.25.18q-2.188,0-2.187-2.414V-7.047h-1.391V-8.453h1.391v-2.055ZM126.453,0a2.93,2.93,0,0,1-.219-.789,2.955,2.955,0,0,1-2.219.945,2.982,2.982,0,0,1-2.078-.727,2.325,2.325,0,0,1-.8-1.8,2.4,2.4,0,0,1,1-2.074,4.865,4.865,0,0,1,2.871-.723h1.164v-.555A1.481,1.481,0,0,0,125.8-6.77a1.456,1.456,0,0,0-1.117-.395,1.672,1.672,0,0,0-1.062.324,1,1,0,0,0-.414.824h-1.9a2.107,2.107,0,0,1,.461-1.3,3.071,3.071,0,0,1,1.254-.949,4.4,4.4,0,0,1,1.77-.344,3.547,3.547,0,0,1,2.367.746,2.661,2.661,0,0,1,.906,2.1v3.813a4.321,4.321,0,0,0,.32,1.82V0Zm-2.086-1.367a2.159,2.159,0,0,0,1.059-.273,1.827,1.827,0,0,0,.746-.734V-3.969h-1.023a2.8,2.8,0,0,0-1.586.367,1.189,1.189,0,0,0-.531,1.039,1.109,1.109,0,0,0,.363.871A1.407,1.407,0,0,0,124.367-1.367Zm10.117-5.352a4.7,4.7,0,0,0-.773-.062,1.741,1.741,0,0,0-1.758,1V0h-1.9V-8.453h1.813l.047.945a2.139,2.139,0,0,1,1.906-1.1,1.777,1.777,0,0,1,.672.109ZM137.7,0h-1.9V-8.453h1.9Zm-2.016-10.648a1.008,1.008,0,0,1,.277-.727,1.048,1.048,0,0,1,.793-.289,1.061,1.061,0,0,1,.8.289,1,1,0,0,1,.281.727.977.977,0,0,1-.281.715,1.069,1.069,0,0,1-.8.285,1.056,1.056,0,0,1-.793-.285A.984.984,0,0,1,135.688-10.648ZM139.414-4.3a4.984,4.984,0,0,1,.492-2.238,3.6,3.6,0,0,1,1.383-1.531,3.9,3.9,0,0,1,2.047-.535,3.692,3.692,0,0,1,2.777,1.1,4.333,4.333,0,0,1,1.152,2.922l.008.445a5.029,5.029,0,0,1-.48,2.234,3.551,3.551,0,0,1-1.375,1.523,3.925,3.925,0,0,1-2.066.539,3.667,3.667,0,0,1-2.863-1.191,4.563,4.563,0,0,1-1.074-3.176Zm1.9.164a3.406,3.406,0,0,0,.539,2.043,1.752,1.752,0,0,0,1.5.738,1.733,1.733,0,0,0,1.5-.75,3.762,3.762,0,0,0,.535-2.2,3.362,3.362,0,0,0-.551-2.031,1.759,1.759,0,0,0-1.5-.75,1.743,1.743,0,0,0-1.477.738A3.691,3.691,0,0,0,141.313-4.141Z" transform="translate(672.445 8208.854)" fill="#12263f"/>
    <g id="Trazado_10769" data-name="Trazado 10769" transform="translate(294.225 8222.12)" fill="#dbe8ff">
      <path d="M 886.1184692382812 105.0497817993164 L 0.5000123977661133 105.0497817993164 L 0.5000123977661133 0.500005841255188 L 886.1184692382812 0.500005841255188 L 886.1184692382812 105.0497817993164 Z" stroke="none"/>
      <path d="M 1 1.000007629394531 L 1 104.5497817993164 L 885.6184692382812 104.5497817993164 L 885.6184692382812 1.000007629394531 L 1 1.000007629394531 M 0 7.62939453125e-06 L 886.6184692382812 7.62939453125e-06 L 886.6184692382812 105.5497817993164 L 0 105.5497817993164 L 0 7.62939453125e-06 Z" stroke="none" fill="#89ace8"/>
    </g>
    <g id="Grupo_24255" data-name="Grupo 24255" transform="translate(596 8248.912)">
      <path id="Trazado_10456" data-name="Trazado 10456" d="M64.556,39.989h4.372L67.51,24.634a4.436,4.436,0,0,0-8.822,0l-.042.447a2.983,2.983,0,0,1-.493.253c-2.31.838-5.869-.8-7.048-1.5a1.916,1.916,0,0,0-1.97,3.287c.142.086.585.335,1.2.634A33.83,33.83,0,0,1,27.26,41.729l1.246,1.821A35.764,35.764,0,0,0,52.2,28.6a.632.632,0,0,0,.027-.063,13.469,13.469,0,0,0,4.456.861,8.823,8.823,0,0,0,1.581-.155l-.991,10.747h3.419a21.652,21.652,0,0,0,1.294,10.578,1.917,1.917,0,0,0,3.588-1.349A17.621,17.621,0,0,1,64.556,39.989Z" transform="translate(23.071 -6.141)" fill="#547fc9"/>
      <ellipse id="Elipse_1448" data-name="Elipse 1448" cx="4.552" cy="4.552" rx="4.552" ry="4.552" transform="translate(81.618 2.622)" fill="#547fc9"/>
      <ellipse id="Elipse_1449" data-name="Elipse 1449" cx="4.552" cy="4.552" rx="4.552" ry="4.552" transform="translate(1.277 2.622)" fill="#547fc9"/>
      <path id="Trazado_10457" data-name="Trazado 10457" d="M37.072,40.732A34.539,34.539,0,0,1,18.187,28.368a17.755,17.755,0,0,0,2.607-1.252,1.916,1.916,0,0,0-1.974-3.285c-1.089.654-4.717,2.336-7.036,1.5a2.722,2.722,0,0,1-.5-.253l-.04-.449a4.437,4.437,0,0,0-8.824,0L1,39.989H5.376a17.669,17.669,0,0,1-1.018,9.229,1.917,1.917,0,0,0,3.588,1.349A21.65,21.65,0,0,0,9.24,39.989h3.419l-.991-10.747a10.252,10.252,0,0,0,4.452-.224c5.762,6.879,11.661,11.559,21.564,13.9l-.326-.824A4.112,4.112,0,0,1,37.072,40.732Z" transform="translate(-1 -6.141)" fill="#547fc9"/>
      <path id="Trazado_10458" data-name="Trazado 10458" d="M33.478,47.469l2.632-7.255a1.959,1.959,0,0,0,.05-.33,1.83,1.83,0,0,0,.065-.324V26.755L45.055,20a1.917,1.917,0,1,0-2.329-3.046L33.22,24.227H29.494l-9.07-10.478a1.917,1.917,0,0,0-2.9,2.507L26.642,26.79V39.285l-2.289,7.791a1.921,1.921,0,0,0,.059,1.252l2.875,7.188a1.917,1.917,0,0,0,3.559-1.424l-2.628-6.572,1.773-6.041h1.583l-2.034,5.6a1.921,1.921,0,0,0,.217,1.731L34.64,56a1.916,1.916,0,1,0,3.17-2.154Z" transform="translate(13.719 -13.086)" fill="#547fc9"/>
      <ellipse id="Elipse_1450" data-name="Elipse 1450" cx="3.714" cy="3.714" rx="3.714" ry="3.714" transform="translate(41.438 1.677)" fill="#547fc9"/>
    </g>
    <g id="Grupo_24256" data-name="Grupo 24256" transform="translate(843.627 8245.762)">
      <ellipse id="Elipse_1441-2" data-name="Elipse 1441" cx="5.484" cy="5.484" rx="5.484" ry="5.484" transform="translate(4.153 0)" fill="#547fc9"/>
      <path id="Trazado_10436-2" data-name="Trazado 10436" d="M40.111,49.9H34.937a5.936,5.936,0,0,0-5.9,5.277L27.9,66.456a1.946,1.946,0,0,0,1.242,2.069l2.794,1.138a.9.9,0,0,1,.621.828l1.449,18.833a2.018,2.018,0,0,0,1.966,1.863h3.1a2.018,2.018,0,0,0,1.966-1.863L42.49,70.388a.9.9,0,0,1,.621-.828l2.794-1.138a1.946,1.946,0,0,0,1.242-2.069L46.009,55.074A5.941,5.941,0,0,0,40.111,49.9Z" transform="translate(-27.887 -37.276)" fill="#547fc9"/>
      <g id="Grupo_24240-2" data-name="Grupo 24240" transform="translate(21.778 0.001)">
        <path id="Trazado_9496-2" data-name="Trazado 9496" d="M52.27,33.606,50.657,22.44H36.9L35.013,35.648a3.669,3.669,0,0,0,3.645,4.083l7.3-1.5-1.335-3.36c-1.246.477-3.176,1.208-4.311,1.6-.717.248-1.292-.772-1.2-1.525l.376-3.129-1.587.6-.658-.591,2.635-1.347c.341-.166.854-.056.918.318a14.33,14.33,0,0,1,.006,2.409l2.991-1.159a1.03,1.03,0,0,1,1.333.588l.388,1,.3.775.316.814V38.2l2.5-.511C50.362,37.4,52.517,35.782,52.27,33.606ZM46.6,28.391a.562.562,0,1,1-.562.562A.562.562,0,0,1,46.6,28.391Zm-3.163-.738H44a2.127,2.127,0,1,0,3.784-1.334v-.774l.009-.012a2.7,2.7,0,1,1-4.363,2.12Zm4.776,6.313a1.839,1.839,0,1,1,1.05-2.379A1.839,1.839,0,0,1,48.209,33.965Z" transform="translate(-34.989 -12.184)" fill="#547fc9"/>
        <path id="Trazado_9497-2" data-name="Trazado 9497" d="M49.185,6.373a4.237,4.237,0,0,0-1.252-.321,4.3,4.3,0,1,0,2.9,6.97c1.186,1,2.692,4.252,5.07-.142C52.863,15.315,52.97,7.689,49.185,6.373Z" transform="translate(-38.082 -6.03)" fill="#547fc9"/>
        <path id="Trazado_9498-2" data-name="Trazado 9498" d="M51.183,47.767,40.01,50.07,38.807,62.6l2.428,0,1.555,14.48H45.3l.046-14.48h1.064l-.033,14.48h2.3L50.427,62.6l2.566-.013Z" transform="translate(-36.421 -21.681)" fill="#547fc9"/>
      </g>
    </g>
    <g id="Grupo_24257" data-name="Grupo 24257" transform="translate(1059.743 8245.762)">
      <path id="Trazado_9432-2" data-name="Trazado 9432" d="M34.465,26.6c.022.107.045.258.119.3a.273.273,0,0,0,.378-.091,1.041,1.041,0,0,1,.248-.23.388.388,0,0,0,.165.014,1.077,1.077,0,0,0,.763-.529,2.885,2.885,0,0,0,.18-.338,2.831,2.831,0,0,0,.18.338,1.077,1.077,0,0,0,.763.529.387.387,0,0,0,.165-.014,1.016,1.016,0,0,1,.248.23.272.272,0,0,0,.377.091c.074-.041.1-.193.119-.3a1.1,1.1,0,0,0-.007-.261h0a6.31,6.31,0,0,0-.039-.833A1.242,1.242,0,0,0,36.82,24.5a3.5,3.5,0,0,0-.5.179,3.553,3.553,0,0,0-.5-.179,1.243,1.243,0,0,0-1.307,1.006,6.212,6.212,0,0,0-.039.833h0A1.3,1.3,0,0,0,34.465,26.6Z" transform="translate(-24.376 -16.834)" fill="#547fc9"/>
      <path id="Trazado_9433-2" data-name="Trazado 9433" d="M74.8,44.712a1.262,1.262,0,0,0,.192-1.111c0-.01,0-.016,0-.027-.985-3.885-7.192-6.423-7.974-6.464a4.718,4.718,0,0,0-4.1-.012,14.455,14.455,0,0,0-7.072,4.576c-.113-.07-.258-.16-.44-.27-.225.389-.732,1.251-1.373,2.258.366.252.593.4.593.4a1.331,1.331,0,0,0,.535.2c.74.295,2.767-.663,3.622-1.19.3-.183.724-.461,1.178-.762a4.984,4.984,0,0,0,.732,2.134,7.239,7.239,0,0,1,.127,1.322,9.085,9.085,0,0,1-.389,2.4h0c-.059.108-.112.22-.163.333l-.008-.007a25.347,25.347,0,0,0-1.545,6.448h0c-.011.136-.024.282-.038.435-.016.169-.036.335-.049.507C58.113,61,56.478,73.062,56.478,73.062a31.444,31.444,0,0,0,3.656.837c.316,2.76.852,5.2,1.759,5.2.867,0,1.394-2.233,1.716-4.842.858.036,1.667.03,2.425-.008.323,2.545.847,4.694,1.7,4.694.9,0,1.43-2.388,1.748-5.11a16.168,16.168,0,0,0,3.776-1.159s-1.9-14.635-2.427-18.955a29.567,29.567,0,0,0-.766-3.778C71.574,49.25,74.8,44.712,74.8,44.712Zm-10.45-6.164a.76.76,0,0,1-.284-1.466.91.91,0,0,0-.038.247.927.927,0,0,0,.916.926A.754.754,0,0,1,64.348,38.548Zm1.206,0a.757.757,0,0,1-.594-.292.927.927,0,0,0,.92-.926.9.9,0,0,0-.038-.246.76.76,0,0,1-.288,1.464Zm4.027,9.832a5.045,5.045,0,0,0-.279-.5,7.153,7.153,0,0,1-.321-2.115,7.066,7.066,0,0,1,.1-1.113,4.993,4.993,0,0,0,.864-2.331c.455.3.882.58,1.179.763a11.525,11.525,0,0,0,1.256.653A34.083,34.083,0,0,0,69.581,48.38Z" transform="translate(-31.184 -21.059)" fill="#547fc9"/>
      <path id="Trazado_9434-2" data-name="Trazado 9434" d="M69.58,19.169a4.742,4.742,0,0,1,1.978.434,2.048,2.048,0,0,0,.023-.284,2,2,0,1,0-4,0,1.951,1.951,0,0,0,.023.284A4.746,4.746,0,0,1,69.58,19.169Z" transform="translate(-35.898 -14.338)" fill="#547fc9"/>
      <path id="Trazado_9435-2" data-name="Trazado 9435" d="M44.575,38.386,45.942,44.4c.042.138.066.284.1.426.022.091.044.181.063.274.007.04.02.078.027.118l.023.1h-.008c.014.091.022.183.033.274,0,.03.008.059.01.089a5.641,5.641,0,0,1,.035.588c0,.015,0,.029,0,.044a52.954,52.954,0,0,1,2.725-5.778A12.434,12.434,0,0,1,47.622,40C46.906,39.652,45.543,38.927,44.575,38.386Zm3.191,3.684c-1.386-1.121-2.579-2.285-2.265-2.77.005-.008.014-.012.019-.02.741.4,1.493.792,1.958,1.017.28.136.63.284,1,.421C48.22,41.19,47.988,41.636,47.766,42.07Z" transform="translate(-27.895 -21.668)" fill="#547fc9"/>
      <path id="Trazado_9436-2" data-name="Trazado 9436" d="M35.438,32.289,36,32.094a.19.19,0,0,0,.091-.18V31.8a.189.189,0,0,0-.091-.18l-.563-.194c-.226-.078-.481.028-.481.267v.325C34.957,32.261,35.211,32.367,35.438,32.289Z" transform="translate(-24.55 -19.238)" fill="#547fc9"/>
      <ellipse id="Elipse_1335-2" data-name="Elipse 1335" cx="0.348" cy="0.348" rx="0.348" ry="0.348" transform="translate(11.59 12.272)" fill="#547fc9"/>
      <path id="Trazado_9437-2" data-name="Trazado 9437" d="M77.056,47.685a7.058,7.058,0,0,0-.1,1.113,7.131,7.131,0,0,0,.321,2.115,5.134,5.134,0,0,1,.279.5,33.928,33.928,0,0,1,2.8-4.642,11.764,11.764,0,0,1-1.256-.653c-.3-.183-.725-.461-1.179-.763A4.994,4.994,0,0,1,77.056,47.685Z" transform="translate(-39.161 -24.092)" fill="#547fc9"/>
      <path id="Trazado_9438-2" data-name="Trazado 9438" d="M38.577,32.289c.226.078.481-.028.481-.267V31.7c0-.239-.254-.346-.481-.267l-.563.194a.19.19,0,0,0-.091.18v.112a.189.189,0,0,0,.091.18Z" transform="translate(-25.582 -19.239)" fill="#547fc9"/>
      <path id="Trazado_9439-2" data-name="Trazado 9439" d="M24.79,64.417a1.658,1.658,0,0,1,.381,1.051h.814a2.471,2.471,0,0,0-.92-1.917A6.821,6.821,0,0,1,24.79,64.417Z" transform="translate(-21.013 -30.422)" fill="#547fc9"/>
      <path id="Trazado_9440-2" data-name="Trazado 9440" d="M19.006,65.21H19V65.3h0V87.967h.81V65.3h0a1.665,1.665,0,0,1,.813-1.427q-.122-.366-.224-.8A2.479,2.479,0,0,0,19.006,65.21Z" transform="translate(-18.997 -30.257)" fill="#547fc9"/>
      <path id="Trazado_9441-2" data-name="Trazado 9441" d="M45.987,39.758c-.006.007-.014.012-.019.02-.314.484.879,1.648,2.265,2.77.222-.434.453-.879.706-1.351-.365-.137-.715-.285-1-.421C47.48,40.549,46.728,40.156,45.987,39.758Z" transform="translate(-28.362 -22.145)" fill="#547fc9"/>
      <path id="Trazado_9442-2" data-name="Trazado 9442" d="M43.678,37.768a.879.879,0,0,0-.057-.468c-.98-2.7-4.332-4.532-6.777-5.465a9.847,9.847,0,0,0-13.069,2.286,6.341,6.341,0,0,0-.741,1.1c-.041.071-.086.14-.126.213h.006c-1.051,1.9-2.494,5.408-2.028,8.284a1.571,1.571,0,0,0-.091.513s.113,9.228,1.6,9.224,1.555-9.232,1.555-9.232a1.569,1.569,0,0,0-.265-.869,12.594,12.594,0,0,0,.6-1.324c.415-1.114,2.273-6.026,2.393-6.595h.181l-1.43,6.275c-.02.071-.032.145-.05.217-.033.13-.065.261-.09.394,0,.011-.006.022-.008.033l-.023.1h.008c-.005.031-.007.063-.012.095-.02.131-.038.262-.05.4,0,.048,0,.1-.007.147-.008.134-.02.267-.02.4a6.355,6.355,0,0,0,1.144,3.643c-.031.141-.063.29-.094.443-.47,1.489-1.321,6.946.071,26.347,0,0,.074.046.2.112v.453a1.933,1.933,0,0,0,1.755,2.07h.01a1.932,1.932,0,0,0,1.755-2.07v-.34a3.641,3.641,0,0,0,.391-.225c.338-8.836-.31-19,1.152-22.645a12.506,12.506,0,0,1,.666,3.046c.045.83.095,1.6.141,2.131.025.285.059.636.1,1.025.211,4.678.026,10.83.241,16.443.083.055.166.1.25.145v.378a1.933,1.933,0,0,0,1.755,2.07h.01a1.932,1.932,0,0,0,1.755-2.07v-.344a3.37,3.37,0,0,0,.346-.179c1.558-21.712.306-25.963-.076-26.728a6.375,6.375,0,0,0,.693-1.228.465.465,0,0,0,.188.312c1.3.734,5.919-7.254,5.919-7.254A1.575,1.575,0,0,0,43.678,37.768ZM31.964,31.419a.189.189,0,0,1,.091-.18l.563-.194c.226-.078.481.028.481.267v.325c0,.239-.254.346-.481.267l-.563-.194a.19.19,0,0,1-.091-.18Zm-.4-.293a.348.348,0,1,1-.348.348A.348.348,0,0,1,31.561,31.126Zm-1.531.186c0-.239.254-.346.481-.267l.563.194a.19.19,0,0,1,.091.18v.112a.189.189,0,0,1-.091.18l-.563.194c-.226.078-.481-.028-.481-.267ZM37.948,43.5c0-.015,0-.029,0-.044a5.63,5.63,0,0,0-.035-.588c0-.03-.007-.059-.01-.089-.01-.091-.02-.183-.033-.274h.008l-.023-.1c-.007-.04-.02-.078-.027-.118-.018-.093-.04-.183-.063-.274-.031-.143-.055-.288-.1-.426L36.3,35.573c.968.541,2.331,1.266,3.047,1.615a12.632,12.632,0,0,0,1.324.538A52.87,52.87,0,0,0,37.948,43.5Z" transform="translate(-19.622 -18.854)" fill="#547fc9"/>
      <ellipse id="Elipse_1336-2" data-name="Elipse 1336" cx="1.248" cy="1.082" rx="1.248" ry="1.082" transform="translate(30.538 8.652)" fill="#547fc9"/>
      <ellipse id="Elipse_1337-2" data-name="Elipse 1337" cx="1.248" cy="1.082" rx="1.248" ry="1.082" transform="translate(34.237 8.652)" fill="#547fc9"/>
      <g id="Grupo_23663-2" data-name="Grupo 23663" transform="translate(29.047 4.98)">
        <ellipse id="Elipse_1338-2" data-name="Elipse 1338" cx="1.248" cy="1.082" rx="1.248" ry="1.082" transform="translate(5.19 3.671)" fill="#547fc9"/>
        <ellipse id="Elipse_1339-2" data-name="Elipse 1339" cx="1.248" cy="1.082" rx="1.248" ry="1.082" transform="translate(1.491 3.671)" fill="#547fc9"/>
        <path id="Trazado_9443-2" data-name="Trazado 9443" d="M72.809,25.021a4.635,4.635,0,1,0-8.772,2.08.441.441,0,0,0-.05.2.447.447,0,0,0,.283.415.311.311,0,0,0-.153.265.316.316,0,0,0,.6.13,4.619,4.619,0,0,0,6.9,0,.315.315,0,1,0,.452-.395.446.446,0,0,0,.283-.415.441.441,0,0,0-.05-.2A4.593,4.593,0,0,0,72.809,25.021Zm-1.477-.657a1.189,1.189,0,0,1,.3.775,1.422,1.422,0,0,1-1.512,1.31,1.46,1.46,0,0,1-1.487-1.1.481.481,0,0,0-.507-.422.487.487,0,0,0-.495.373,1.448,1.448,0,0,1-1.493,1.151,1.422,1.422,0,0,1-1.512-1.31,1.192,1.192,0,0,1,.3-.775c-.269.1-.648-.309-.338-.18a.943.943,0,0,0,.669-.1l.012-.009-.017.005c-.2.056-.385-.288-.2-.16.14.1.426.033.548,0-.186,0-.258-.329-.132-.181s.543.1.543.1l0,.007c.045,0,.088-.012.134-.012a1.44,1.44,0,0,1,1.5,1.191.689.689,0,0,1,.985.016,1.436,1.436,0,0,1,1.5-1.206c.046,0,.089.008.134.012l0-.007s.417.048.543-.1.053.184-.132.181c.123.035.408.1.548,0,.181-.128-.006.215-.2.16l-.017-.005L71,24.08a.944.944,0,0,0,.669.1C71.98,24.054,71.6,24.467,71.332,24.364Z" transform="translate(-63.54 -20.386)" fill="#547fc9"/>
      </g>
      <g id="Grupo_23664-2" data-name="Grupo 23664" transform="translate(6.256 0)">
        <path id="Trazado_9444-2" data-name="Trazado 9444" d="M38.168,26.341a6.31,6.31,0,0,0-.039-.833A1.242,1.242,0,0,0,36.822,24.5a3.5,3.5,0,0,0-.5.179,3.582,3.582,0,0,0-.5-.179,1.243,1.243,0,0,0-1.307,1.006,6.212,6.212,0,0,0-.039.833h0a1.133,1.133,0,0,0-.007.261c.022.107.045.258.119.3a.273.273,0,0,0,.377-.091,1.042,1.042,0,0,1,.248-.23.388.388,0,0,0,.165.014,1.077,1.077,0,0,0,.763-.529,2.884,2.884,0,0,0,.18-.338,2.782,2.782,0,0,0,.18.338,1.077,1.077,0,0,0,.763.529.387.387,0,0,0,.165-.014,1.016,1.016,0,0,1,.248.23.272.272,0,0,0,.377.091c.074-.041.1-.193.119-.3a1.1,1.1,0,0,0-.007-.261Z" transform="translate(-30.632 -16.834)" fill="#547fc9"/>
        <path id="Trazado_9445-2" data-name="Trazado 9445" d="M39.639,15.5h-1.6a1.709,1.709,0,0,0,.05-.4v-.642a1.71,1.71,0,0,0-1.71-1.71H32.167a1.71,1.71,0,0,0-1.71,1.71V15.1a1.714,1.714,0,0,0,.05.4h-1.6c-.175,0-.317.306-.317.683s.142.683.317.683h1.561a4.433,4.433,0,1,0,7.615,0h1.555c.175,0,.317-.306.317-.683S39.814,15.5,39.639,15.5Zm-3.51,7.013c-.022.107-.045.258-.119.3a.273.273,0,0,1-.377-.091,1.041,1.041,0,0,0-.248-.23.388.388,0,0,1-.165.014,1.077,1.077,0,0,1-.763-.529,2.884,2.884,0,0,1-.18-.338,2.781,2.781,0,0,1-.18.338,1.077,1.077,0,0,1-.763.529.387.387,0,0,1-.165-.014,1.017,1.017,0,0,0-.248.23.272.272,0,0,1-.377.091c-.074-.041-.1-.193-.119-.3a1.1,1.1,0,0,1,.007-.261h0a6.308,6.308,0,0,1,.039-.833,1.242,1.242,0,0,1,1.307-1.006,3.5,3.5,0,0,1,.5.179,3.552,3.552,0,0,1,.5-.179,1.243,1.243,0,0,1,1.307,1.006,6.211,6.211,0,0,1,.039.833h0A1.251,1.251,0,0,1,36.13,22.516Z" transform="translate(-28.591 -12.749)" fill="#547fc9"/>
      </g>
    </g>
    <g id="Grupo_24258" data-name="Grupo 24258" transform="translate(402.525 8245.762)">
      <g id="Grupo_23658" data-name="Grupo 23658" transform="translate(0 0)">
        <ellipse id="Elipse_1329" data-name="Elipse 1329" cx="7.57" cy="7.57" rx="7.57" ry="7.57" transform="translate(10.355 0)" fill="#547fc9"/>
        <path id="Trazado_9425" data-name="Trazado 9425" d="M59.7,64.645l-5.166,4.326,3.9,2.648-4.139,5.047h0l0,0a2.717,2.717,0,0,0,4.195,3.455h0l5.544-6.76a2.939,2.939,0,0,0-.156-4.321Z" transform="translate(-33.755 -32.292)" fill="#547fc9"/>
        <path id="Trazado_9426" data-name="Trazado 9426" d="M36.236,76.665h0L32.1,71.617l3.9-2.647-5.167-4.326-4.172,4.4a2.939,2.939,0,0,0-.156,4.321l5.545,6.759h0a2.717,2.717,0,0,0,4.2-3.455Z" transform="translate(-20.921 -32.292)" fill="#547fc9"/>
        <path id="Trazado_9427" data-name="Trazado 9427" d="M50.255,21.405a2.538,2.538,0,0,0-1.8.746l-5.7,5.7a3.749,3.749,0,0,1-2.778,1.367h-10.2A3.748,3.748,0,0,1,27,27.848l-5.7-5.7a2.549,2.549,0,1,0-3.6,3.607l9.156,9.156v7.241H42.9V34.915l9.155-9.157a2.548,2.548,0,0,0-1.8-4.353Z" transform="translate(-16.953 -12.507)" fill="#547fc9"/>
      </g>
    </g>
    <path id="Trazado_10459" data-name="Trazado 10459" d="M-15429.93-3688.59v-105.545" transform="translate(15963.463 12016.261)" fill="none" stroke="#00348d" stroke-width="1" stroke-dasharray="6"/>
    <path id="Trazado_10460" data-name="Trazado 10460" d="M-15429.93-3688.59v-105.545" transform="translate(16172.804 12016.261)" fill="none" stroke="#00348d" stroke-width="1" stroke-dasharray="6"/>
    <path id="Trazado_10461" data-name="Trazado 10461" d="M-15429.93-3688.59v-105.545" transform="translate(16411.818 12016.261)" fill="none" stroke="#00348d" stroke-width="1" stroke-dasharray="6"/>
    <g id="Grupo_23659" data-name="Grupo 23659" transform="translate(380.425 8059.606)">
      <g id="Grupo_23658-2" data-name="Grupo 23658" transform="translate(0 0)">
        <ellipse id="Elipse_1329-2" data-name="Elipse 1329" cx="5.625" cy="5.625" rx="5.625" ry="5.625" transform="translate(7.695 0)" fill="#f579a8"/>
        <path id="Trazado_9425-2" data-name="Trazado 9425" d="M58.153,64.645,54.314,67.86l2.9,1.967-3.076,3.75h0l0,0a2.019,2.019,0,0,0,3.117,2.567h0l4.119-5.023a2.184,2.184,0,0,0-.116-3.211Z" transform="translate(-38.873 -40.605)" fill="#f579a8"/>
        <path id="Trazado_9426-2" data-name="Trazado 9426" d="M33.509,73.576h0l-3.076-3.75,2.9-1.967-3.839-3.215-3.1,3.267a2.184,2.184,0,0,0-.116,3.211l4.12,5.022h0a2.019,2.019,0,0,0,3.117-2.567Z" transform="translate(-22.13 -40.605)" fill="#f579a8"/>
        <path id="Trazado_9427-2" data-name="Trazado 9427" d="M41.7,21.405a1.886,1.886,0,0,0-1.339.554l-4.234,4.234a2.786,2.786,0,0,1-2.064,1.016H26.483a2.785,2.785,0,0,1-2.064-1.016l-4.234-4.234a1.894,1.894,0,1,0-2.676,2.68l6.8,6.8v5.381h11.92V31.443l6.8-6.8A1.894,1.894,0,0,0,41.7,21.405Z" transform="translate(-16.953 -14.793)" fill="#f579a8"/>
      </g>
    </g>
    <g id="Grupo_24243" data-name="Grupo 24243" transform="translate(295.167 8026.797)">
      <path id="Trazado_10437" data-name="Trazado 10437" d="M31.478,30.7l4.888-2.046L33.979,32.29l3.183,2.16,4.093-6.139A10.576,10.576,0,0,0,49.44,32.29,10.345,10.345,0,1,0,38.981,21.945a6.482,6.482,0,0,0,.114,1.478L30,27.174ZM51.031,15.693a6.48,6.48,0,0,1-1.705,12.732,6.758,6.758,0,0,1-5.116-2.5C47.734,24.446,50.463,20.581,51.031,15.693Z" transform="translate(-30 -11.6)" fill="#f54d8d"/>
      <path id="Trazado_10438" data-name="Trazado 10438" d="M64.672,49.645c0-8.753-6.707-12.732-8.867-13.755L54.668,31.91l-10.459-.568a2.378,2.378,0,0,0-.455-.682,1.96,1.96,0,0,0-2.728.114L32.5,40.323l7.162,3.3.682-3.979,14.779,6.821a1.912,1.912,0,0,1,.909,2.5A1.99,1.99,0,0,1,54.327,50.1a2.108,2.108,0,0,1-.8-.227L39.662,43.506l-.568,3.183L36.365,67.152h4.661l1.705,20.463,3.865-.341L44.891,67.152h2.046V87.5H50.8V67.379h6.025L54.9,62.945C57.965,61.695,64.672,57.83,64.672,49.645Z" transform="translate(-29.658 -9.061)" fill="#f54d8d"/>
    </g>
    <path id="Trazado_10455" data-name="Trazado 10455" d="M-15429.93-3731.329v-62.806" transform="translate(15725.039 11916.502)" fill="none" stroke="#00348d" stroke-width="1" stroke-dasharray="6"/>
    <path id="Trazado_10770" data-name="Trazado 10770" d="M7.523-2.648H3.117L2.2,0H.141l4.3-11.375H6.211L10.516,0H8.453ZM3.672-4.242h3.3L5.32-8.961ZM16.656-.828a2.944,2.944,0,0,1-2.375.984,2.624,2.624,0,0,1-2.082-.8,3.423,3.423,0,0,1-.707-2.328V-8.453h1.9V-3q0,1.609,1.336,1.609a1.876,1.876,0,0,0,1.867-.992v-6.07h1.9V0H16.7Zm6.148-9.68v2.055H24.3v1.406H22.8v4.719a1.039,1.039,0,0,0,.191.7.888.888,0,0,0,.684.215,2.924,2.924,0,0,0,.664-.078V-.023a4.676,4.676,0,0,1-1.25.18q-2.188,0-2.187-2.414V-7.047H19.516V-8.453h1.391v-2.055Zm2.352,6.2a4.984,4.984,0,0,1,.492-2.238,3.6,3.6,0,0,1,1.383-1.531,3.9,3.9,0,0,1,2.047-.535,3.692,3.692,0,0,1,2.777,1.1,4.333,4.333,0,0,1,1.152,2.922l.008.445a5.029,5.029,0,0,1-.48,2.234A3.551,3.551,0,0,1,31.16-.383a3.925,3.925,0,0,1-2.066.539A3.667,3.667,0,0,1,26.23-1.035a4.563,4.563,0,0,1-1.074-3.176Zm1.9.164A3.406,3.406,0,0,0,27.594-2.1a1.752,1.752,0,0,0,1.5.738,1.733,1.733,0,0,0,1.5-.75,3.762,3.762,0,0,0,.535-2.2,3.362,3.362,0,0,0-.551-2.031,1.759,1.759,0,0,0-1.5-.75,1.743,1.743,0,0,0-1.477.738A3.691,3.691,0,0,0,27.055-4.141Zm9.328-4.312.055.977A3.039,3.039,0,0,1,38.9-8.609q2.641,0,2.688,3.023V0h-1.9V-5.477a1.741,1.741,0,0,0-.348-1.191A1.462,1.462,0,0,0,38.2-7.055a1.829,1.829,0,0,0-1.711,1.039V0h-1.9V-8.453ZM43.164-4.3a4.984,4.984,0,0,1,.492-2.238,3.6,3.6,0,0,1,1.383-1.531,3.9,3.9,0,0,1,2.047-.535,3.692,3.692,0,0,1,2.777,1.1,4.333,4.333,0,0,1,1.152,2.922l.008.445a5.029,5.029,0,0,1-.48,2.234A3.551,3.551,0,0,1,49.168-.383,3.925,3.925,0,0,1,47.1.156a3.667,3.667,0,0,1-2.863-1.191,4.563,4.563,0,0,1-1.074-3.176Zm1.9.164A3.406,3.406,0,0,0,45.6-2.1a1.752,1.752,0,0,0,1.5.738,1.733,1.733,0,0,0,1.5-.75,3.762,3.762,0,0,0,.535-2.2,3.362,3.362,0,0,0-.551-2.031,1.759,1.759,0,0,0-1.5-.75,1.743,1.743,0,0,0-1.477.738A3.691,3.691,0,0,0,45.063-4.141Zm9.352-4.312.055.883a3.042,3.042,0,0,1,2.438-1.039,2.337,2.337,0,0,1,2.32,1.3,3,3,0,0,1,2.594-1.3,2.636,2.636,0,0,1,2.082.773,3.405,3.405,0,0,1,.7,2.281V0H62.7V-5.5a1.681,1.681,0,0,0-.352-1.18,1.539,1.539,0,0,0-1.164-.375,1.581,1.581,0,0,0-1.059.348,1.833,1.833,0,0,0-.574.91L59.563,0h-1.9V-5.562a1.354,1.354,0,0,0-1.523-1.492,1.671,1.671,0,0,0-1.617.93V0h-1.9V-8.453ZM68.594,0H66.7V-8.453h1.9Zm-.359-11.945H70.4L68.234-9.578H66.711ZM75.8,0a2.93,2.93,0,0,1-.219-.789,2.955,2.955,0,0,1-2.219.945A2.982,2.982,0,0,1,71.289-.57a2.325,2.325,0,0,1-.8-1.8,2.4,2.4,0,0,1,1-2.074,4.865,4.865,0,0,1,2.871-.723h1.164v-.555a1.481,1.481,0,0,0-.367-1.051,1.456,1.456,0,0,0-1.117-.395,1.672,1.672,0,0,0-1.062.324,1,1,0,0,0-.414.824h-1.9a2.107,2.107,0,0,1,.461-1.3,3.071,3.071,0,0,1,1.254-.949,4.4,4.4,0,0,1,1.77-.344,3.547,3.547,0,0,1,2.367.746,2.661,2.661,0,0,1,.906,2.1v3.813a4.321,4.321,0,0,0,.32,1.82V0ZM73.719-1.367a2.159,2.159,0,0,0,1.059-.273,1.827,1.827,0,0,0,.746-.734V-3.969H74.5a2.8,2.8,0,0,0-1.586.367,1.189,1.189,0,0,0-.531,1.039,1.109,1.109,0,0,0,.363.871A1.407,1.407,0,0,0,73.719-1.367Z" transform="translate(196 8127.655)" fill="#12263f"/>
    <path id="Trazado_10771" data-name="Trazado 10771" d="M9.836-3.7A4.107,4.107,0,0,1,8.492-.863,4.581,4.581,0,0,1,5.375.156,4.436,4.436,0,0,1,2.98-.488a4.231,4.231,0,0,1-1.6-1.832A6.611,6.611,0,0,1,.8-5.078V-6.141a6.659,6.659,0,0,1,.57-2.836A4.3,4.3,0,0,1,3-10.867a4.566,4.566,0,0,1,2.465-.664A4.386,4.386,0,0,1,8.5-10.508,4.276,4.276,0,0,1,9.836-7.617H7.867a2.81,2.81,0,0,0-.715-1.77A2.363,2.363,0,0,0,5.469-9.93a2.309,2.309,0,0,0-1.98.941,4.7,4.7,0,0,0-.707,2.762v1.008a4.988,4.988,0,0,0,.66,2.813,2.191,2.191,0,0,0,1.934.969,2.555,2.555,0,0,0,1.75-.523A2.729,2.729,0,0,0,7.867-3.7ZM16.469,0a2.93,2.93,0,0,1-.219-.789,2.955,2.955,0,0,1-2.219.945A2.982,2.982,0,0,1,11.953-.57a2.325,2.325,0,0,1-.8-1.8,2.4,2.4,0,0,1,1-2.074,4.865,4.865,0,0,1,2.871-.723h1.164v-.555A1.481,1.481,0,0,0,15.82-6.77,1.456,1.456,0,0,0,14.7-7.164a1.672,1.672,0,0,0-1.062.324,1,1,0,0,0-.414.824h-1.9a2.107,2.107,0,0,1,.461-1.3,3.071,3.071,0,0,1,1.254-.949,4.4,4.4,0,0,1,1.77-.344,3.547,3.547,0,0,1,2.367.746,2.661,2.661,0,0,1,.906,2.1v3.813a4.321,4.321,0,0,0,.32,1.82V0ZM14.383-1.367a2.159,2.159,0,0,0,1.059-.273,1.827,1.827,0,0,0,.746-.734V-3.969H15.164a2.8,2.8,0,0,0-1.586.367,1.189,1.189,0,0,0-.531,1.039,1.109,1.109,0,0,0,.363.871A1.407,1.407,0,0,0,14.383-1.367ZM27.477-4.141a5.033,5.033,0,0,1-.891,3.129A2.852,2.852,0,0,1,24.2.156a2.871,2.871,0,0,1-2.227-.914V3.25h-1.9v-11.7h1.75l.078.859a2.788,2.788,0,0,1,2.273-1.016A2.881,2.881,0,0,1,26.6-7.457a5.167,5.167,0,0,1,.879,3.2ZM25.586-4.3a3.526,3.526,0,0,0-.5-2.008,1.638,1.638,0,0,0-1.441-.742,1.747,1.747,0,0,0-1.672.961v3.75a1.763,1.763,0,0,0,1.688.984,1.636,1.636,0,0,0,1.418-.73A3.881,3.881,0,0,0,25.586-4.3ZM31.1,0H29.2V-8.453h1.9ZM29.086-10.648a1.008,1.008,0,0,1,.277-.727,1.048,1.048,0,0,1,.793-.289,1.061,1.061,0,0,1,.8.289,1,1,0,0,1,.281.727.977.977,0,0,1-.281.715,1.069,1.069,0,0,1-.8.285,1.056,1.056,0,0,1-.793-.285A.984.984,0,0,1,29.086-10.648Zm6.461.141v2.055h1.492v1.406H35.547v4.719a1.039,1.039,0,0,0,.191.7.888.888,0,0,0,.684.215,2.924,2.924,0,0,0,.664-.078V-.023a4.676,4.676,0,0,1-1.25.18q-2.187,0-2.187-2.414V-7.047H32.258V-8.453h1.391v-2.055ZM43.539,0a2.93,2.93,0,0,1-.219-.789A2.955,2.955,0,0,1,41.1.156,2.982,2.982,0,0,1,39.023-.57a2.325,2.325,0,0,1-.8-1.8,2.4,2.4,0,0,1,1-2.074,4.865,4.865,0,0,1,2.871-.723h1.164v-.555a1.481,1.481,0,0,0-.367-1.051,1.456,1.456,0,0,0-1.117-.395,1.672,1.672,0,0,0-1.062.324,1,1,0,0,0-.414.824H38.4a2.107,2.107,0,0,1,.461-1.3,3.071,3.071,0,0,1,1.254-.949,4.4,4.4,0,0,1,1.77-.344,3.547,3.547,0,0,1,2.367.746,2.661,2.661,0,0,1,.906,2.1v3.813a4.321,4.321,0,0,0,.32,1.82V0ZM41.453-1.367a2.16,2.16,0,0,0,1.059-.273,1.827,1.827,0,0,0,.746-.734V-3.969H42.234a2.8,2.8,0,0,0-1.586.367,1.189,1.189,0,0,0-.531,1.039,1.109,1.109,0,0,0,.363.871A1.407,1.407,0,0,0,41.453-1.367ZM49.164,0h-1.9V-12h1.9Zm12.18-2.93a1.374,1.374,0,0,0-.527-1.156,6.345,6.345,0,0,0-1.9-.82,9.186,9.186,0,0,1-2.187-.922,2.919,2.919,0,0,1-1.555-2.547,2.772,2.772,0,0,1,1.121-2.266,4.538,4.538,0,0,1,2.91-.891,4.916,4.916,0,0,1,2.117.438,3.475,3.475,0,0,1,1.461,1.246,3.2,3.2,0,0,1,.531,1.793H61.344a1.782,1.782,0,0,0-.559-1.395,2.305,2.305,0,0,0-1.6-.5,2.408,2.408,0,0,0-1.5.414,1.379,1.379,0,0,0-.535,1.156,1.247,1.247,0,0,0,.578,1.043,6.66,6.66,0,0,0,1.906.813,8.768,8.768,0,0,1,2.133.9,3.392,3.392,0,0,1,1.18,1.156,3.011,3.011,0,0,1,.375,1.527A2.707,2.707,0,0,1,62.23-.684a4.727,4.727,0,0,1-2.957.84A5.557,5.557,0,0,1,57-.3a3.812,3.812,0,0,1-1.609-1.262,3.144,3.144,0,0,1-.574-1.875H56.8a1.84,1.84,0,0,0,.641,1.5,2.805,2.805,0,0,0,1.836.531,2.437,2.437,0,0,0,1.551-.418A1.349,1.349,0,0,0,61.344-2.93ZM69.922,0A2.93,2.93,0,0,1,69.7-.789a2.955,2.955,0,0,1-2.219.945A2.982,2.982,0,0,1,65.406-.57a2.325,2.325,0,0,1-.8-1.8,2.4,2.4,0,0,1,1-2.074,4.865,4.865,0,0,1,2.871-.723h1.164v-.555a1.481,1.481,0,0,0-.367-1.051,1.456,1.456,0,0,0-1.117-.395,1.672,1.672,0,0,0-1.062.324,1,1,0,0,0-.414.824h-1.9a2.107,2.107,0,0,1,.461-1.3A3.071,3.071,0,0,1,66.5-8.266a4.4,4.4,0,0,1,1.77-.344,3.547,3.547,0,0,1,2.367.746,2.661,2.661,0,0,1,.906,2.1v3.813a4.321,4.321,0,0,0,.32,1.82V0ZM67.836-1.367a2.159,2.159,0,0,0,1.059-.273,1.827,1.827,0,0,0,.746-.734V-3.969H68.617a2.8,2.8,0,0,0-1.586.367A1.189,1.189,0,0,0,66.5-2.562a1.109,1.109,0,0,0,.363.871A1.407,1.407,0,0,0,67.836-1.367ZM75.547,0h-1.9V-12h1.9Zm7.188-.828a2.944,2.944,0,0,1-2.375.984,2.624,2.624,0,0,1-2.082-.8,3.423,3.423,0,0,1-.707-2.328V-8.453h1.9V-3q0,1.609,1.336,1.609a1.876,1.876,0,0,0,1.867-.992v-6.07h1.9V0H82.781Zm3.414-3.461a5.026,5.026,0,0,1,.906-3.137,2.9,2.9,0,0,1,2.43-1.184,2.759,2.759,0,0,1,2.172.938V-12h1.9V0H91.836l-.094-.875A2.8,2.8,0,0,1,89.469.156a2.887,2.887,0,0,1-2.4-1.2A5.21,5.21,0,0,1,86.148-4.289Zm1.9.164a3.519,3.519,0,0,0,.5,2.012,1.61,1.61,0,0,0,1.41.723,1.793,1.793,0,0,0,1.7-1.039V-6.039a1.766,1.766,0,0,0-1.687-1.016,1.622,1.622,0,0,0-1.422.73A3.918,3.918,0,0,0,88.047-4.125Z" transform="translate(179 8162.319)" fill="#12263f"/>
    <path id="Trazado_10772" data-name="Trazado 10772" d="M9.836-3.7A4.107,4.107,0,0,1,8.492-.863,4.581,4.581,0,0,1,5.375.156,4.436,4.436,0,0,1,2.98-.488a4.231,4.231,0,0,1-1.6-1.832A6.611,6.611,0,0,1,.8-5.078V-6.141a6.659,6.659,0,0,1,.57-2.836A4.3,4.3,0,0,1,3-10.867a4.566,4.566,0,0,1,2.465-.664A4.386,4.386,0,0,1,8.5-10.508,4.276,4.276,0,0,1,9.836-7.617H7.867a2.81,2.81,0,0,0-.715-1.77A2.363,2.363,0,0,0,5.469-9.93a2.309,2.309,0,0,0-1.98.941,4.7,4.7,0,0,0-.707,2.762v1.008a4.988,4.988,0,0,0,.66,2.813,2.191,2.191,0,0,0,1.934.969,2.555,2.555,0,0,0,1.75-.523A2.729,2.729,0,0,0,7.867-3.7ZM16.469,0a2.93,2.93,0,0,1-.219-.789,2.955,2.955,0,0,1-2.219.945A2.982,2.982,0,0,1,11.953-.57a2.325,2.325,0,0,1-.8-1.8,2.4,2.4,0,0,1,1-2.074,4.865,4.865,0,0,1,2.871-.723h1.164v-.555A1.481,1.481,0,0,0,15.82-6.77,1.456,1.456,0,0,0,14.7-7.164a1.672,1.672,0,0,0-1.062.324,1,1,0,0,0-.414.824h-1.9a2.107,2.107,0,0,1,.461-1.3,3.071,3.071,0,0,1,1.254-.949,4.4,4.4,0,0,1,1.77-.344,3.547,3.547,0,0,1,2.367.746,2.661,2.661,0,0,1,.906,2.1v3.813a4.321,4.321,0,0,0,.32,1.82V0ZM14.383-1.367a2.159,2.159,0,0,0,1.059-.273,1.827,1.827,0,0,0,.746-.734V-3.969H15.164a2.8,2.8,0,0,0-1.586.367,1.189,1.189,0,0,0-.531,1.039,1.109,1.109,0,0,0,.363.871A1.407,1.407,0,0,0,14.383-1.367ZM27.477-4.141a5.033,5.033,0,0,1-.891,3.129A2.852,2.852,0,0,1,24.2.156a2.871,2.871,0,0,1-2.227-.914V3.25h-1.9v-11.7h1.75l.078.859a2.788,2.788,0,0,1,2.273-1.016A2.881,2.881,0,0,1,26.6-7.457a5.167,5.167,0,0,1,.879,3.2ZM25.586-4.3a3.526,3.526,0,0,0-.5-2.008,1.638,1.638,0,0,0-1.441-.742,1.747,1.747,0,0,0-1.672.961v3.75a1.763,1.763,0,0,0,1.688.984,1.636,1.636,0,0,0,1.418-.73A3.881,3.881,0,0,0,25.586-4.3ZM31.1,0H29.2V-8.453h1.9ZM29.086-10.648a1.008,1.008,0,0,1,.277-.727,1.048,1.048,0,0,1,.793-.289,1.061,1.061,0,0,1,.8.289,1,1,0,0,1,.281.727.977.977,0,0,1-.281.715,1.069,1.069,0,0,1-.8.285,1.056,1.056,0,0,1-.793-.285A.984.984,0,0,1,29.086-10.648Zm6.461.141v2.055h1.492v1.406H35.547v4.719a1.039,1.039,0,0,0,.191.7.888.888,0,0,0,.684.215,2.924,2.924,0,0,0,.664-.078V-.023a4.676,4.676,0,0,1-1.25.18q-2.187,0-2.187-2.414V-7.047H32.258V-8.453h1.391v-2.055ZM43.539,0a2.93,2.93,0,0,1-.219-.789A2.955,2.955,0,0,1,41.1.156,2.982,2.982,0,0,1,39.023-.57a2.325,2.325,0,0,1-.8-1.8,2.4,2.4,0,0,1,1-2.074,4.865,4.865,0,0,1,2.871-.723h1.164v-.555a1.481,1.481,0,0,0-.367-1.051,1.456,1.456,0,0,0-1.117-.395,1.672,1.672,0,0,0-1.062.324,1,1,0,0,0-.414.824H38.4a2.107,2.107,0,0,1,.461-1.3,3.071,3.071,0,0,1,1.254-.949,4.4,4.4,0,0,1,1.77-.344,3.547,3.547,0,0,1,2.367.746,2.661,2.661,0,0,1,.906,2.1v3.813a4.321,4.321,0,0,0,.32,1.82V0ZM41.453-1.367a2.16,2.16,0,0,0,1.059-.273,1.827,1.827,0,0,0,.746-.734V-3.969H42.234a2.8,2.8,0,0,0-1.586.367,1.189,1.189,0,0,0-.531,1.039,1.109,1.109,0,0,0,.363.871A1.407,1.407,0,0,0,41.453-1.367ZM49.164,0h-1.9V-12h1.9Zm12.18-2.93a1.374,1.374,0,0,0-.527-1.156,6.345,6.345,0,0,0-1.9-.82,9.186,9.186,0,0,1-2.187-.922,2.919,2.919,0,0,1-1.555-2.547,2.772,2.772,0,0,1,1.121-2.266,4.538,4.538,0,0,1,2.91-.891,4.916,4.916,0,0,1,2.117.438,3.475,3.475,0,0,1,1.461,1.246,3.2,3.2,0,0,1,.531,1.793H61.344a1.782,1.782,0,0,0-.559-1.395,2.305,2.305,0,0,0-1.6-.5,2.408,2.408,0,0,0-1.5.414,1.379,1.379,0,0,0-.535,1.156,1.247,1.247,0,0,0,.578,1.043,6.66,6.66,0,0,0,1.906.813,8.768,8.768,0,0,1,2.133.9,3.392,3.392,0,0,1,1.18,1.156,3.011,3.011,0,0,1,.375,1.527A2.707,2.707,0,0,1,62.23-.684a4.727,4.727,0,0,1-2.957.84A5.557,5.557,0,0,1,57-.3a3.812,3.812,0,0,1-1.609-1.262,3.144,3.144,0,0,1-.574-1.875H56.8a1.84,1.84,0,0,0,.641,1.5,2.805,2.805,0,0,0,1.836.531,2.437,2.437,0,0,0,1.551-.418A1.349,1.349,0,0,0,61.344-2.93ZM64.516-4.3a4.984,4.984,0,0,1,.492-2.238,3.6,3.6,0,0,1,1.383-1.531,3.9,3.9,0,0,1,2.047-.535,3.692,3.692,0,0,1,2.777,1.1,4.333,4.333,0,0,1,1.152,2.922l.008.445a5.029,5.029,0,0,1-.48,2.234A3.551,3.551,0,0,1,70.52-.383a3.925,3.925,0,0,1-2.066.539A3.667,3.667,0,0,1,65.59-1.035a4.563,4.563,0,0,1-1.074-3.176Zm1.9.164A3.406,3.406,0,0,0,66.953-2.1a1.752,1.752,0,0,0,1.5.738,1.733,1.733,0,0,0,1.5-.75,3.762,3.762,0,0,0,.535-2.2,3.362,3.362,0,0,0-.551-2.031,1.759,1.759,0,0,0-1.5-.75,1.743,1.743,0,0,0-1.477.738A3.691,3.691,0,0,0,66.414-4.141ZM77.453-1.359a1.716,1.716,0,0,0,1.18-.414,1.415,1.415,0,0,0,.5-1.023h1.789a2.789,2.789,0,0,1-.492,1.473A3.228,3.228,0,0,1,79.18-.242a3.725,3.725,0,0,1-1.7.4A3.6,3.6,0,0,1,74.664-.992a4.555,4.555,0,0,1-1.039-3.172v-.2a4.479,4.479,0,0,1,1.031-3.09,3.571,3.571,0,0,1,2.813-1.16,3.473,3.473,0,0,1,2.457.879,3.148,3.148,0,0,1,1,2.309H79.133a1.738,1.738,0,0,0-.5-1.2,1.6,1.6,0,0,0-1.184-.469,1.671,1.671,0,0,0-1.422.668,3.408,3.408,0,0,0-.508,2.027v.3a3.465,3.465,0,0,0,.5,2.051A1.669,1.669,0,0,0,77.453-1.359ZM84.375,0h-1.9V-8.453h1.9ZM82.359-10.648a1.008,1.008,0,0,1,.277-.727,1.048,1.048,0,0,1,.793-.289,1.061,1.061,0,0,1,.8.289,1,1,0,0,1,.281.727.977.977,0,0,1-.281.715,1.069,1.069,0,0,1-.8.285,1.056,1.056,0,0,1-.793-.285A.984.984,0,0,1,82.359-10.648ZM91.492,0a2.93,2.93,0,0,1-.219-.789,2.955,2.955,0,0,1-2.219.945A2.982,2.982,0,0,1,86.977-.57a2.325,2.325,0,0,1-.8-1.8,2.4,2.4,0,0,1,1-2.074,4.865,4.865,0,0,1,2.871-.723h1.164v-.555a1.481,1.481,0,0,0-.367-1.051,1.456,1.456,0,0,0-1.117-.395,1.672,1.672,0,0,0-1.062.324,1,1,0,0,0-.414.824h-1.9a2.107,2.107,0,0,1,.461-1.3,3.071,3.071,0,0,1,1.254-.949,4.4,4.4,0,0,1,1.77-.344,3.547,3.547,0,0,1,2.367.746,2.661,2.661,0,0,1,.906,2.1v3.813a4.321,4.321,0,0,0,.32,1.82V0ZM89.406-1.367a2.159,2.159,0,0,0,1.059-.273,1.827,1.827,0,0,0,.746-.734V-3.969H90.188A2.8,2.8,0,0,0,88.6-3.6a1.189,1.189,0,0,0-.531,1.039,1.109,1.109,0,0,0,.363.871A1.407,1.407,0,0,0,89.406-1.367ZM97.117,0h-1.9V-12h1.9Z" transform="translate(179 8283.979)" fill="#00348d"/>
  </g>
</svg>
