<svg xmlns="http://www.w3.org/2000/svg" width="358.229" height="358.248" viewBox="0 0 358.229 358.248">
  <g id="Grupo_23508" data-name="Grupo 23508" transform="translate(-688.9 -8312)">
    <path id="Trazado_9150" data-name="Trazado 9150" d="M594.785,157.7V335.824L427.85,273.568A178.148,178.148,0,0,1,594.785,157.7Z" transform="translate(273.24 8155.3)" fill="#89ace8" stroke="#12263f" stroke-width="2"/>
    <path id="Trazado_9151" data-name="Trazado 9151" d="M600.174,280.016,479.926,411.433A178.327,178.327,0,0,1,433.239,217.76Z" transform="translate(267.85 8211.107)" fill="#ffe5ef" stroke="#12263f" stroke-width="2"/>
    <path id="Trazado_9152" data-name="Trazado 9152" d="M684.018,388.759a178.13,178.13,0,0,1-231.968-7.312L572.3,250.03Z" transform="translate(295.726 8241.094)" fill="#f579a8" stroke="#12263f" stroke-width="2"/>
    <path id="Trazado_9153" data-name="Trazado 9153" d="M692.485,276.42A177.781,177.781,0,0,1,626.1,415.149L514.38,276.42l169.5-54.79A177.4,177.4,0,0,1,692.485,276.42Z" transform="translate(353.644 8214.704)" fill="#ebe6a9" stroke="#12263f" stroke-width="2"/>
    <path id="Trazado_9154" data-name="Trazado 9154" d="M683.88,281.034l-169.5,54.79V157.7A178.135,178.135,0,0,1,683.88,281.034Z" transform="translate(353.644 8155.3)" fill="#c1dbb1" stroke="#12263f" stroke-width="2"/>
    <path id="Trazado_9515" data-name="Trazado 9515" d="M11.885-4.648l.02.059a4.384,4.384,0,0,1-1.4,3.472A5.5,5.5,0,0,1,6.631.205,5.217,5.217,0,0,1,2.607-1.47,6.073,6.073,0,0,1,1.064-5.752V-8.457a6.141,6.141,0,0,1,1.523-4.282,5.107,5.107,0,0,1,3.975-1.685,5.738,5.738,0,0,1,3.95,1.279,4.339,4.339,0,0,1,1.4,3.506l-.02.059H9.6a2.922,2.922,0,0,0-.771-2.183,3.107,3.107,0,0,0-2.266-.757,2.7,2.7,0,0,0-2.29,1.147,4.754,4.754,0,0,0-.845,2.9v2.725a4.73,4.73,0,0,0,.859,2.915A2.771,2.771,0,0,0,6.631-1.689a2.986,2.986,0,0,0,2.212-.762,2.986,2.986,0,0,0,.757-2.2Zm13.164-9.57v9.365a4.646,4.646,0,0,1-1.558,3.716A5.935,5.935,0,0,1,19.473.205a5.747,5.747,0,0,1-3.945-1.343A4.7,4.7,0,0,1,14-4.854v-9.365h2.373v9.365a3.11,3.11,0,0,0,.85,2.339,3.087,3.087,0,0,0,2.246.825A3.258,3.258,0,0,0,21.8-2.515a3.052,3.052,0,0,0,.879-2.339v-9.365ZM30.391,0H28.018V-14.219h2.373Zm3.184,0V-14.219h4.7a5.961,5.961,0,0,1,4.4,1.689,5.873,5.873,0,0,1,1.694,4.346v2.158A5.853,5.853,0,0,1,42.671-1.68,5.98,5.98,0,0,1,38.271,0Zm2.373-12.314v10.42h2.324a3.414,3.414,0,0,0,2.715-1.157,4.369,4.369,0,0,0,1.006-2.974V-8.2a4.34,4.34,0,0,0-1.006-2.954,3.414,3.414,0,0,0-2.715-1.157ZM54.17-3.32H49.131L48.037,0H45.586l4.961-14.219H52.8L57.705,0H55.254ZM49.785-5.3h3.74L51.7-10.908h-.059Zm12.051-.6V0H59.463V-14.219h4.893a5.611,5.611,0,0,1,3.672,1.074,3.754,3.754,0,0,1,1.3,3.066,3.171,3.171,0,0,1-.571,1.9A3.92,3.92,0,0,1,67.09-6.9a3,3,0,0,1,1.733,1.24,3.973,3.973,0,0,1,.532,2.129v1.182a4.791,4.791,0,0,0,.156,1.221,1.748,1.748,0,0,0,.518.908V0H67.588a1.562,1.562,0,0,1-.5-1.006,8.794,8.794,0,0,1-.107-1.367V-3.516a2.38,2.38,0,0,0-.63-1.738A2.286,2.286,0,0,0,64.639-5.9Zm0-1.9h2.393a3.221,3.221,0,0,0,2.08-.547,2.053,2.053,0,0,0,.654-1.67,2.209,2.209,0,0,0-.645-1.685,2.765,2.765,0,0,0-1.963-.61h-2.52ZM77.168,0V-14.219h4.7a5.961,5.961,0,0,1,4.4,1.689,5.873,5.873,0,0,1,1.694,4.346v2.158A5.853,5.853,0,0,1,86.265-1.68,5.98,5.98,0,0,1,81.865,0Zm2.373-12.314v10.42h2.324A3.414,3.414,0,0,0,84.58-3.052a4.369,4.369,0,0,0,1.006-2.974V-8.2a4.34,4.34,0,0,0-1.006-2.954,3.414,3.414,0,0,0-2.715-1.157ZM98.506-6.4H92.939v4.5H99.5V0H90.566V-14.219h8.867v1.9H92.939V-8.3h5.566Zm5.508,4.5h6.66V0h-9.033V-14.219h2.373ZM3.867,17.609V23H1.494V8.781H6.943A5.268,5.268,0,0,1,10.63,10a4.123,4.123,0,0,1,1.333,3.2A4.116,4.116,0,0,1,10.63,16.4a5.3,5.3,0,0,1-3.687,1.206Zm0-1.9H6.943A2.6,2.6,0,0,0,8.926,15a2.5,2.5,0,0,0,.664-1.787,2.568,2.568,0,0,0-.664-1.807,2.561,2.561,0,0,0-1.982-.723H3.867Zm12.734,5.4h6.66V23H14.229V8.781H16.6Zm16.26-1.426H27.822L26.729,23H24.277L29.238,8.781h2.256L36.4,23H33.945ZM28.477,17.7h3.74l-1.826-5.605h-.059ZM49.258,23H46.885l-6.3-10.244-.059.02V23H38.154V8.781h2.373l6.3,10.244.059-.02V8.781h2.373Zm10.928-6.4H54.619v4.5h6.563V23H52.246V8.781h8.867v1.9H54.619V14.7h5.566Zm13.066-5.918H68.857V23H66.484V10.686H62.158v-1.9H73.252ZM81.4,19.68H76.357L75.264,23H72.813L77.773,8.781h2.256L84.932,23H82.48ZM77.012,17.7h3.74l-1.826-5.605h-.059Z" transform="translate(741.836 8400.722)" fill="#12263f"/>
    <path id="Trazado_9516" data-name="Trazado 9516" d="M11.885-4.648l.02.059a4.384,4.384,0,0,1-1.4,3.472A5.5,5.5,0,0,1,6.631.205,5.217,5.217,0,0,1,2.607-1.47,6.073,6.073,0,0,1,1.064-5.752V-8.457a6.141,6.141,0,0,1,1.523-4.282,5.107,5.107,0,0,1,3.975-1.685,5.738,5.738,0,0,1,3.95,1.279,4.339,4.339,0,0,1,1.4,3.506l-.02.059H9.6a2.922,2.922,0,0,0-.771-2.183,3.107,3.107,0,0,0-2.266-.757,2.7,2.7,0,0,0-2.29,1.147,4.754,4.754,0,0,0-.845,2.9v2.725a4.73,4.73,0,0,0,.859,2.915A2.771,2.771,0,0,0,6.631-1.689a2.986,2.986,0,0,0,2.212-.762,2.986,2.986,0,0,0,.757-2.2Zm13.164-9.57v9.365a4.646,4.646,0,0,1-1.558,3.716A5.935,5.935,0,0,1,19.473.205a5.747,5.747,0,0,1-3.945-1.343A4.7,4.7,0,0,1,14-4.854v-9.365h2.373v9.365a3.11,3.11,0,0,0,.85,2.339,3.087,3.087,0,0,0,2.246.825A3.258,3.258,0,0,0,21.8-2.515a3.052,3.052,0,0,0,.879-2.339v-9.365ZM30.391,0H28.018V-14.219h2.373Zm3.184,0V-14.219h4.7a5.961,5.961,0,0,1,4.4,1.689,5.873,5.873,0,0,1,1.694,4.346v2.158A5.853,5.853,0,0,1,42.671-1.68,5.98,5.98,0,0,1,38.271,0Zm2.373-12.314v10.42h2.324a3.414,3.414,0,0,0,2.715-1.157,4.369,4.369,0,0,0,1.006-2.974V-8.2a4.34,4.34,0,0,0-1.006-2.954,3.414,3.414,0,0,0-2.715-1.157ZM54.17-3.32H49.131L48.037,0H45.586l4.961-14.219H52.8L57.705,0H55.254ZM49.785-5.3h3.74L51.7-10.908h-.059Zm12.051-.6V0H59.463V-14.219h4.893a5.611,5.611,0,0,1,3.672,1.074,3.754,3.754,0,0,1,1.3,3.066,3.171,3.171,0,0,1-.571,1.9A3.92,3.92,0,0,1,67.09-6.9a3,3,0,0,1,1.733,1.24,3.973,3.973,0,0,1,.532,2.129v1.182a4.791,4.791,0,0,0,.156,1.221,1.748,1.748,0,0,0,.518.908V0H67.588a1.562,1.562,0,0,1-.5-1.006,8.794,8.794,0,0,1-.107-1.367V-3.516a2.38,2.38,0,0,0-.63-1.738A2.286,2.286,0,0,0,64.639-5.9Zm0-1.9h2.393a3.221,3.221,0,0,0,2.08-.547,2.053,2.053,0,0,0,.654-1.67,2.209,2.209,0,0,0-.645-1.685,2.765,2.765,0,0,0-1.963-.61h-2.52ZM77.168,0V-14.219h4.7a5.961,5.961,0,0,1,4.4,1.689,5.873,5.873,0,0,1,1.694,4.346v2.158A5.853,5.853,0,0,1,86.265-1.68,5.98,5.98,0,0,1,81.865,0Zm2.373-12.314v10.42h2.324A3.414,3.414,0,0,0,84.58-3.052a4.369,4.369,0,0,0,1.006-2.974V-8.2a4.34,4.34,0,0,0-1.006-2.954,3.414,3.414,0,0,0-2.715-1.157ZM98.506-6.4H92.939v4.5H99.5V0H90.566V-14.219h8.867v1.9H92.939V-8.3h5.566ZM8.984,19.348a1.868,1.868,0,0,0-.63-1.455,5.8,5.8,0,0,0-2.231-1.016,9.517,9.517,0,0,1-3.54-1.665,3.325,3.325,0,0,1-1.245-2.69A3.5,3.5,0,0,1,2.705,9.689,5.389,5.389,0,0,1,6.221,8.576,5.325,5.325,0,0,1,9.907,9.812a3.785,3.785,0,0,1,1.333,3.052l-.02.059H8.936a2.271,2.271,0,0,0-.747-1.787A2.881,2.881,0,0,0,6.2,10.471a2.73,2.73,0,0,0-1.851.566A1.854,1.854,0,0,0,3.7,12.5a1.623,1.623,0,0,0,.713,1.353,7.746,7.746,0,0,0,2.363,1.011,8.262,8.262,0,0,1,3.408,1.7,3.584,3.584,0,0,1,1.172,2.759A3.366,3.366,0,0,1,9.971,22.15a5.859,5.859,0,0,1-3.643,1.055,6.327,6.327,0,0,1-3.779-1.152A3.651,3.651,0,0,1,.986,18.8l.02-.059H3.291a2.24,2.24,0,0,0,.884,1.929,3.536,3.536,0,0,0,2.153.649,3.168,3.168,0,0,0,1.958-.532A1.716,1.716,0,0,0,8.984,19.348ZM16.357,23H13.984V8.781h2.373Zm15.361-3.281h.059L35.889,8.781h3.027V23H36.543V12.785l-.059-.01L32.568,23H30.938L26.953,12.58l-.059.02V23H24.521V8.781h3.115ZM44.482,23H42.109V8.781h2.373Zm10.674-3.652a1.868,1.868,0,0,0-.63-1.455,5.8,5.8,0,0,0-2.231-1.016,9.517,9.517,0,0,1-3.54-1.665,3.325,3.325,0,0,1-1.245-2.69,3.5,3.5,0,0,1,1.367-2.832,5.389,5.389,0,0,1,3.516-1.113,5.325,5.325,0,0,1,3.687,1.235,3.785,3.785,0,0,1,1.333,3.052l-.02.059H55.107a2.271,2.271,0,0,0-.747-1.787,2.881,2.881,0,0,0-1.987-.664,2.73,2.73,0,0,0-1.851.566,1.854,1.854,0,0,0-.649,1.465,1.623,1.623,0,0,0,.713,1.353,7.746,7.746,0,0,0,2.363,1.011,8.262,8.262,0,0,1,3.408,1.7,3.584,3.584,0,0,1,1.172,2.759,3.366,3.366,0,0,1-1.387,2.822A5.859,5.859,0,0,1,52.5,23.205a6.327,6.327,0,0,1-3.779-1.152A3.651,3.651,0,0,1,47.158,18.8l.02-.059h2.285a2.24,2.24,0,0,0,.884,1.929,3.536,3.536,0,0,0,2.153.649,3.168,3.168,0,0,0,1.958-.532A1.716,1.716,0,0,0,55.156,19.348Zm12,.371h.059L71.328,8.781h3.027V23H71.982V12.785l-.059-.01L68.008,23H66.377L62.393,12.58l-.059.02V23H59.961V8.781h3.115ZM88.525,17.17a6.009,6.009,0,0,1-1.636,4.321,5.613,5.613,0,0,1-4.253,1.714,5.422,5.422,0,0,1-4.15-1.714,6.081,6.081,0,0,1-1.6-4.321V14.611a6.1,6.1,0,0,1,1.6-4.316,5.41,5.41,0,0,1,4.155-1.719,5.609,5.609,0,0,1,4.248,1.719,6,6,0,0,1,1.641,4.316Zm-2.373-2.578a4.422,4.422,0,0,0-.947-2.92,3.161,3.161,0,0,0-2.568-1.143,2.984,2.984,0,0,0-2.476,1.143,4.565,4.565,0,0,0-.9,2.92V17.17a4.6,4.6,0,0,0,.908,2.944,2.982,2.982,0,0,0,2.471,1.147,3.158,3.158,0,0,0,2.573-1.143,4.483,4.483,0,0,0,.942-2.949Z" transform="translate(881.533 8400.722)" fill="#12263f"/>
    <path id="Trazado_9519" data-name="Trazado 9519" d="M11.885-4.648l.02.059a4.384,4.384,0,0,1-1.4,3.472A5.5,5.5,0,0,1,6.631.205,5.217,5.217,0,0,1,2.607-1.47,6.073,6.073,0,0,1,1.064-5.752V-8.457a6.141,6.141,0,0,1,1.523-4.282,5.107,5.107,0,0,1,3.975-1.685,5.738,5.738,0,0,1,3.95,1.279,4.339,4.339,0,0,1,1.4,3.506l-.02.059H9.6a2.922,2.922,0,0,0-.771-2.183,3.107,3.107,0,0,0-2.266-.757,2.7,2.7,0,0,0-2.29,1.147,4.754,4.754,0,0,0-.845,2.9v2.725a4.73,4.73,0,0,0,.859,2.915A2.771,2.771,0,0,0,6.631-1.689a2.986,2.986,0,0,0,2.212-.762,2.986,2.986,0,0,0,.757-2.2Zm13.164-9.57v9.365a4.646,4.646,0,0,1-1.558,3.716A5.935,5.935,0,0,1,19.473.205a5.747,5.747,0,0,1-3.945-1.343A4.7,4.7,0,0,1,14-4.854v-9.365h2.373v9.365a3.11,3.11,0,0,0,.85,2.339,3.087,3.087,0,0,0,2.246.825A3.258,3.258,0,0,0,21.8-2.515a3.052,3.052,0,0,0,.879-2.339v-9.365ZM30.391,0H28.018V-14.219h2.373Zm3.184,0V-14.219h4.7a5.961,5.961,0,0,1,4.4,1.689,5.873,5.873,0,0,1,1.694,4.346v2.158A5.853,5.853,0,0,1,42.671-1.68,5.98,5.98,0,0,1,38.271,0Zm2.373-12.314v10.42h2.324a3.414,3.414,0,0,0,2.715-1.157,4.369,4.369,0,0,0,1.006-2.974V-8.2a4.34,4.34,0,0,0-1.006-2.954,3.414,3.414,0,0,0-2.715-1.157ZM54.17-3.32H49.131L48.037,0H45.586l4.961-14.219H52.8L57.705,0H55.254ZM49.785-5.3h3.74L51.7-10.908h-.059Zm12.051-.6V0H59.463V-14.219h4.893a5.611,5.611,0,0,1,3.672,1.074,3.754,3.754,0,0,1,1.3,3.066,3.171,3.171,0,0,1-.571,1.9A3.92,3.92,0,0,1,67.09-6.9a3,3,0,0,1,1.733,1.24,3.973,3.973,0,0,1,.532,2.129v1.182a4.791,4.791,0,0,0,.156,1.221,1.748,1.748,0,0,0,.518.908V0H67.588a1.562,1.562,0,0,1-.5-1.006,8.794,8.794,0,0,1-.107-1.367V-3.516a2.38,2.38,0,0,0-.63-1.738A2.286,2.286,0,0,0,64.639-5.9Zm0-1.9h2.393a3.221,3.221,0,0,0,2.08-.547,2.053,2.053,0,0,0,.654-1.67,2.209,2.209,0,0,0-.645-1.685,2.765,2.765,0,0,0-1.963-.61h-2.52ZM77.168,0V-14.219h4.7a5.961,5.961,0,0,1,4.4,1.689,5.873,5.873,0,0,1,1.694,4.346v2.158A5.853,5.853,0,0,1,86.265-1.68,5.98,5.98,0,0,1,81.865,0Zm2.373-12.314v10.42h2.324A3.414,3.414,0,0,0,84.58-3.052a4.369,4.369,0,0,0,1.006-2.974V-8.2a4.34,4.34,0,0,0-1.006-2.954,3.414,3.414,0,0,0-2.715-1.157ZM98.506-6.4H92.939v4.5H99.5V0H90.566V-14.219h8.867v1.9H92.939V-8.3h5.566ZM3.867,21.105h6.66V23H1.494V8.781H3.867Zm19.6-3.936a6.009,6.009,0,0,1-1.636,4.321,5.613,5.613,0,0,1-4.253,1.714,5.422,5.422,0,0,1-4.15-1.714,6.081,6.081,0,0,1-1.6-4.321V14.611a6.1,6.1,0,0,1,1.6-4.316,5.41,5.41,0,0,1,4.155-1.719,5.609,5.609,0,0,1,4.248,1.719,6,6,0,0,1,1.641,4.316Zm-2.373-2.578a4.422,4.422,0,0,0-.947-2.92,3.161,3.161,0,0,0-2.568-1.143A2.984,2.984,0,0,0,15.1,11.672a4.565,4.565,0,0,0-.9,2.92V17.17a4.6,4.6,0,0,0,.908,2.944,2.982,2.982,0,0,0,2.471,1.147,3.158,3.158,0,0,0,2.573-1.143,4.483,4.483,0,0,0,.942-2.949Zm12.383,4.756a1.868,1.868,0,0,0-.63-1.455,5.8,5.8,0,0,0-2.231-1.016,9.517,9.517,0,0,1-3.54-1.665,3.325,3.325,0,0,1-1.245-2.69A3.5,3.5,0,0,1,27.2,9.689a5.389,5.389,0,0,1,3.516-1.113A5.325,5.325,0,0,1,34.4,9.812a3.785,3.785,0,0,1,1.333,3.052l-.02.059H33.428a2.271,2.271,0,0,0-.747-1.787,2.881,2.881,0,0,0-1.987-.664,2.73,2.73,0,0,0-1.851.566,1.854,1.854,0,0,0-.649,1.465,1.623,1.623,0,0,0,.713,1.353,7.746,7.746,0,0,0,2.363,1.011,8.262,8.262,0,0,1,3.408,1.7,3.584,3.584,0,0,1,1.172,2.759,3.366,3.366,0,0,1-1.387,2.822,5.859,5.859,0,0,1-3.643,1.055,6.327,6.327,0,0,1-3.779-1.152A3.651,3.651,0,0,1,25.479,18.8l.02-.059h2.285a2.24,2.24,0,0,0,.884,1.929,3.536,3.536,0,0,0,2.153.649,3.168,3.168,0,0,0,1.958-.532A1.716,1.716,0,0,0,33.477,19.348ZM9.434,39.6H3.867v4.5H10.43V46H1.494V31.781h8.867v1.9H3.867V37.7H9.434Zm7.988-2.568,3-5.254h2.813l-4.375,7.051L23.4,46H20.547l-3.086-5.342L14.375,46H11.563l4.473-7.168L11.66,31.781h2.793ZM35.2,33.686H30.8V46H28.428V33.686H24.1v-1.9H35.2Zm4.18,6.416V46H37V31.781h4.893a5.611,5.611,0,0,1,3.672,1.074,3.754,3.754,0,0,1,1.3,3.066,3.171,3.171,0,0,1-.571,1.9A3.92,3.92,0,0,1,44.629,39.1a3,3,0,0,1,1.733,1.24,3.973,3.973,0,0,1,.532,2.129v1.182a4.791,4.791,0,0,0,.156,1.221,1.748,1.748,0,0,0,.518.908V46H45.127a1.562,1.562,0,0,1-.5-1.006,8.794,8.794,0,0,1-.107-1.367V42.484a2.38,2.38,0,0,0-.63-1.738,2.286,2.286,0,0,0-1.714-.645Zm0-1.9h2.393a3.221,3.221,0,0,0,2.08-.547,2.053,2.053,0,0,0,.654-1.67,2.209,2.209,0,0,0-.645-1.685,2.765,2.765,0,0,0-1.963-.61h-2.52ZM57.129,42.68H52.09L51,46H48.545l4.961-14.219h2.256L60.664,46H58.213ZM52.744,40.7h3.74l-1.826-5.605H54.6ZM73.525,46H71.152l-6.3-10.244-.059.02V46H62.422V31.781h2.373l6.3,10.244.059-.02V31.781h2.373ZM71.484,27.914A2.288,2.288,0,0,1,70.9,29.5a1.885,1.885,0,0,1-1.465.654,3.186,3.186,0,0,1-1.5-.435,2.966,2.966,0,0,0-1.3-.435.809.809,0,0,0-.645.317,1.147,1.147,0,0,0-.264.757l-1.279-.342a2.378,2.378,0,0,1,.581-1.6,1.842,1.842,0,0,1,1.46-.679,3.417,3.417,0,0,1,1.421.435,3.389,3.389,0,0,0,1.382.435.832.832,0,0,0,.645-.312,1.116,1.116,0,0,0,.273-.762Zm16.2,12.256a6.009,6.009,0,0,1-1.636,4.321A5.613,5.613,0,0,1,81.8,46.205a5.422,5.422,0,0,1-4.15-1.714,6.081,6.081,0,0,1-1.6-4.321V37.611a6.1,6.1,0,0,1,1.6-4.316A5.41,5.41,0,0,1,81.8,31.576a5.609,5.609,0,0,1,4.248,1.719,6,6,0,0,1,1.641,4.316Zm-2.373-2.578a4.422,4.422,0,0,0-.947-2.92A3.161,3.161,0,0,0,81.8,33.529a2.984,2.984,0,0,0-2.476,1.143,4.565,4.565,0,0,0-.9,2.92V40.17a4.6,4.6,0,0,0,.908,2.944A2.982,2.982,0,0,0,81.8,44.262a3.158,3.158,0,0,0,2.573-1.143,4.483,4.483,0,0,0,.942-2.949ZM97.7,42.348a1.868,1.868,0,0,0-.63-1.455,5.8,5.8,0,0,0-2.231-1.016,9.517,9.517,0,0,1-3.54-1.665,3.325,3.325,0,0,1-1.245-2.69,3.5,3.5,0,0,1,1.367-2.832,5.389,5.389,0,0,1,3.516-1.113,5.325,5.325,0,0,1,3.687,1.235,3.785,3.785,0,0,1,1.333,3.052l-.02.059H97.646a2.271,2.271,0,0,0-.747-1.787,2.881,2.881,0,0,0-1.987-.664,2.73,2.73,0,0,0-1.851.566,1.854,1.854,0,0,0-.649,1.465,1.623,1.623,0,0,0,.713,1.353,7.746,7.746,0,0,0,2.363,1.011,8.262,8.262,0,0,1,3.408,1.7,3.584,3.584,0,0,1,1.172,2.759,3.366,3.366,0,0,1-1.387,2.822,5.859,5.859,0,0,1-3.643,1.055,6.327,6.327,0,0,1-3.779-1.152A3.651,3.651,0,0,1,89.7,41.8l.02-.059H92a2.24,2.24,0,0,0,.884,1.929,3.536,3.536,0,0,0,2.153.649A3.168,3.168,0,0,0,97,43.788,1.716,1.716,0,0,0,97.7,42.348Z" transform="translate(706.912 8500.989)" fill="#12263f"/>
    <path id="Trazado_9517" data-name="Trazado 9517" d="M11.885-4.648l.02.059a4.384,4.384,0,0,1-1.4,3.472A5.5,5.5,0,0,1,6.631.205,5.217,5.217,0,0,1,2.607-1.47,6.073,6.073,0,0,1,1.064-5.752V-8.457a6.141,6.141,0,0,1,1.523-4.282,5.107,5.107,0,0,1,3.975-1.685,5.738,5.738,0,0,1,3.95,1.279,4.339,4.339,0,0,1,1.4,3.506l-.02.059H9.6a2.922,2.922,0,0,0-.771-2.183,3.107,3.107,0,0,0-2.266-.757,2.7,2.7,0,0,0-2.29,1.147,4.754,4.754,0,0,0-.845,2.9v2.725a4.73,4.73,0,0,0,.859,2.915A2.771,2.771,0,0,0,6.631-1.689a2.986,2.986,0,0,0,2.212-.762,2.986,2.986,0,0,0,.757-2.2Zm13.164-9.57v9.365a4.646,4.646,0,0,1-1.558,3.716A5.935,5.935,0,0,1,19.473.205a5.747,5.747,0,0,1-3.945-1.343A4.7,4.7,0,0,1,14-4.854v-9.365h2.373v9.365a3.11,3.11,0,0,0,.85,2.339,3.087,3.087,0,0,0,2.246.825A3.258,3.258,0,0,0,21.8-2.515a3.052,3.052,0,0,0,.879-2.339v-9.365ZM30.391,0H28.018V-14.219h2.373Zm3.184,0V-14.219h4.7a5.961,5.961,0,0,1,4.4,1.689,5.873,5.873,0,0,1,1.694,4.346v2.158A5.853,5.853,0,0,1,42.671-1.68,5.98,5.98,0,0,1,38.271,0Zm2.373-12.314v10.42h2.324a3.414,3.414,0,0,0,2.715-1.157,4.369,4.369,0,0,0,1.006-2.974V-8.2a4.34,4.34,0,0,0-1.006-2.954,3.414,3.414,0,0,0-2.715-1.157ZM54.17-3.32H49.131L48.037,0H45.586l4.961-14.219H52.8L57.705,0H55.254ZM49.785-5.3h3.74L51.7-10.908h-.059Zm12.051-.6V0H59.463V-14.219h4.893a5.611,5.611,0,0,1,3.672,1.074,3.754,3.754,0,0,1,1.3,3.066,3.171,3.171,0,0,1-.571,1.9A3.92,3.92,0,0,1,67.09-6.9a3,3,0,0,1,1.733,1.24,3.973,3.973,0,0,1,.532,2.129v1.182a4.791,4.791,0,0,0,.156,1.221,1.748,1.748,0,0,0,.518.908V0H67.588a1.562,1.562,0,0,1-.5-1.006,8.794,8.794,0,0,1-.107-1.367V-3.516a2.38,2.38,0,0,0-.63-1.738A2.286,2.286,0,0,0,64.639-5.9Zm0-1.9h2.393a3.221,3.221,0,0,0,2.08-.547,2.053,2.053,0,0,0,.654-1.67,2.209,2.209,0,0,0-.645-1.685,2.765,2.765,0,0,0-1.963-.61h-2.52ZM77.168,0V-14.219h4.7a5.961,5.961,0,0,1,4.4,1.689,5.873,5.873,0,0,1,1.694,4.346v2.158A5.853,5.853,0,0,1,86.265-1.68,5.98,5.98,0,0,1,81.865,0Zm2.373-12.314v10.42h2.324A3.414,3.414,0,0,0,84.58-3.052a4.369,4.369,0,0,0,1.006-2.974V-8.2a4.34,4.34,0,0,0-1.006-2.954,3.414,3.414,0,0,0-2.715-1.157ZM98.506-6.4H92.939v4.5H99.5V0H90.566V-14.219h8.867v1.9H92.939V-8.3h5.566ZM3.867,21.105h6.66V23H1.494V8.781H3.867Zm19.6-3.936a6.009,6.009,0,0,1-1.636,4.321,5.613,5.613,0,0,1-4.253,1.714,5.422,5.422,0,0,1-4.15-1.714,6.081,6.081,0,0,1-1.6-4.321V14.611a6.1,6.1,0,0,1,1.6-4.316,5.41,5.41,0,0,1,4.155-1.719,5.609,5.609,0,0,1,4.248,1.719,6,6,0,0,1,1.641,4.316Zm-2.373-2.578a4.422,4.422,0,0,0-.947-2.92,3.161,3.161,0,0,0-2.568-1.143A2.984,2.984,0,0,0,15.1,11.672a4.565,4.565,0,0,0-.9,2.92V17.17a4.6,4.6,0,0,0,.908,2.944,2.982,2.982,0,0,0,2.471,1.147,3.158,3.158,0,0,0,2.573-1.143,4.483,4.483,0,0,0,.942-2.949Zm12.383,4.756a1.868,1.868,0,0,0-.63-1.455,5.8,5.8,0,0,0-2.231-1.016,9.517,9.517,0,0,1-3.54-1.665,3.325,3.325,0,0,1-1.245-2.69A3.5,3.5,0,0,1,27.2,9.689a5.389,5.389,0,0,1,3.516-1.113A5.325,5.325,0,0,1,34.4,9.812a3.785,3.785,0,0,1,1.333,3.052l-.02.059H33.428a2.271,2.271,0,0,0-.747-1.787,2.881,2.881,0,0,0-1.987-.664,2.73,2.73,0,0,0-1.851.566,1.854,1.854,0,0,0-.649,1.465,1.623,1.623,0,0,0,.713,1.353,7.746,7.746,0,0,0,2.363,1.011,8.262,8.262,0,0,1,3.408,1.7,3.584,3.584,0,0,1,1.172,2.759,3.366,3.366,0,0,1-1.387,2.822,5.859,5.859,0,0,1-3.643,1.055,6.327,6.327,0,0,1-3.779-1.152A3.651,3.651,0,0,1,25.479,18.8l.02-.059h2.285a2.24,2.24,0,0,0,.884,1.929,3.536,3.536,0,0,0,2.153.649,3.168,3.168,0,0,0,1.958-.532A1.716,1.716,0,0,0,33.477,19.348Zm-21.592,22,.02.059a4.384,4.384,0,0,1-1.4,3.472,5.5,5.5,0,0,1-3.877,1.323A5.217,5.217,0,0,1,2.607,44.53a6.073,6.073,0,0,1-1.543-4.282V37.543a6.141,6.141,0,0,1,1.523-4.282,5.107,5.107,0,0,1,3.975-1.685,5.738,5.738,0,0,1,3.95,1.279,4.339,4.339,0,0,1,1.4,3.506l-.02.059H9.6a2.922,2.922,0,0,0-.771-2.183,3.107,3.107,0,0,0-2.266-.757,2.7,2.7,0,0,0-2.29,1.147,4.754,4.754,0,0,0-.845,2.9v2.725a4.73,4.73,0,0,0,.859,2.915,2.771,2.771,0,0,0,2.344,1.147,2.986,2.986,0,0,0,2.212-.762,2.986,2.986,0,0,0,.757-2.2ZM22.129,39.6H16.563v4.5h6.563V46H14.189V31.781h8.867v1.9H16.563V37.7h5.566Zm5.508.5V46H25.264V31.781h4.893a5.611,5.611,0,0,1,3.672,1.074,3.754,3.754,0,0,1,1.3,3.066,3.171,3.171,0,0,1-.571,1.9A3.92,3.92,0,0,1,32.891,39.1a3,3,0,0,1,1.733,1.24,3.973,3.973,0,0,1,.532,2.129v1.182a4.791,4.791,0,0,0,.156,1.221,1.748,1.748,0,0,0,.518.908V46H33.389a1.562,1.562,0,0,1-.5-1.006,8.794,8.794,0,0,1-.107-1.367V42.484a2.38,2.38,0,0,0-.63-1.738,2.286,2.286,0,0,0-1.714-.645Zm0-1.9h2.393a3.221,3.221,0,0,0,2.08-.547,2.053,2.053,0,0,0,.654-1.67,2.209,2.209,0,0,0-.645-1.685,2.765,2.765,0,0,0-1.963-.61h-2.52Zm20.742,3.154.02.059A4.384,4.384,0,0,1,47,44.882a5.5,5.5,0,0,1-3.877,1.323A5.217,5.217,0,0,1,39.1,44.53a6.073,6.073,0,0,1-1.543-4.282V37.543a6.141,6.141,0,0,1,1.523-4.282,5.107,5.107,0,0,1,3.975-1.685,5.738,5.738,0,0,1,3.95,1.279,4.339,4.339,0,0,1,1.4,3.506l-.02.059H46.094a2.922,2.922,0,0,0-.771-2.183,3.107,3.107,0,0,0-2.266-.757,2.7,2.7,0,0,0-2.29,1.147,4.754,4.754,0,0,0-.845,2.9v2.725a4.73,4.73,0,0,0,.859,2.915,2.771,2.771,0,0,0,2.344,1.147,2.66,2.66,0,0,0,2.969-2.959Zm9.707,1.328H53.047L51.953,46H49.5l4.961-14.219h2.256L61.621,46H59.17ZM53.7,40.7h3.74l-1.826-5.605h-.059ZM74.482,46H72.109l-6.3-10.244-.059.02V46H63.379V31.781h2.373l6.3,10.244.059-.02V31.781h2.373Zm14.16-5.83a6.009,6.009,0,0,1-1.636,4.321,5.613,5.613,0,0,1-4.253,1.714,5.422,5.422,0,0,1-4.15-1.714A6.081,6.081,0,0,1,77,40.17V37.611a6.1,6.1,0,0,1,1.6-4.316,5.41,5.41,0,0,1,4.155-1.719A5.609,5.609,0,0,1,87,33.295a6,6,0,0,1,1.641,4.316ZM86.27,37.592a4.422,4.422,0,0,0-.947-2.92,3.161,3.161,0,0,0-2.568-1.143,2.984,2.984,0,0,0-2.476,1.143,4.565,4.565,0,0,0-.9,2.92V40.17a4.6,4.6,0,0,0,.908,2.944,2.982,2.982,0,0,0,2.471,1.147,3.158,3.158,0,0,0,2.573-1.143,4.483,4.483,0,0,0,.942-2.949Zm12.383,4.756a1.868,1.868,0,0,0-.63-1.455,5.8,5.8,0,0,0-2.231-1.016,9.517,9.517,0,0,1-3.54-1.665,3.325,3.325,0,0,1-1.245-2.69,3.5,3.5,0,0,1,1.367-2.832,5.389,5.389,0,0,1,3.516-1.113,5.325,5.325,0,0,1,3.687,1.235,3.785,3.785,0,0,1,1.333,3.052l-.02.059H98.6a2.271,2.271,0,0,0-.747-1.787,2.881,2.881,0,0,0-1.987-.664,2.73,2.73,0,0,0-1.851.566,1.854,1.854,0,0,0-.649,1.465,1.623,1.623,0,0,0,.713,1.353,7.746,7.746,0,0,0,2.363,1.011,8.262,8.262,0,0,1,3.408,1.7,3.584,3.584,0,0,1,1.172,2.759,3.366,3.366,0,0,1-1.387,2.822A5.859,5.859,0,0,1,96,46.205a6.327,6.327,0,0,1-3.779-1.152A3.651,3.651,0,0,1,90.654,41.8l.02-.059h2.285a2.24,2.24,0,0,0,.884,1.929A3.536,3.536,0,0,0,96,44.32a3.168,3.168,0,0,0,1.958-.532A1.716,1.716,0,0,0,98.652,42.348Z" transform="translate(926.597 8500.989)" fill="#12263f"/>
    <path id="Trazado_9518" data-name="Trazado 9518" d="M11.885-4.648l.02.059a4.384,4.384,0,0,1-1.4,3.472A5.5,5.5,0,0,1,6.631.205,5.217,5.217,0,0,1,2.607-1.47,6.073,6.073,0,0,1,1.064-5.752V-8.457a6.141,6.141,0,0,1,1.523-4.282,5.107,5.107,0,0,1,3.975-1.685,5.738,5.738,0,0,1,3.95,1.279,4.339,4.339,0,0,1,1.4,3.506l-.02.059H9.6a2.922,2.922,0,0,0-.771-2.183,3.107,3.107,0,0,0-2.266-.757,2.7,2.7,0,0,0-2.29,1.147,4.754,4.754,0,0,0-.845,2.9v2.725a4.73,4.73,0,0,0,.859,2.915A2.771,2.771,0,0,0,6.631-1.689a2.986,2.986,0,0,0,2.212-.762,2.986,2.986,0,0,0,.757-2.2Zm13.164-9.57v9.365a4.646,4.646,0,0,1-1.558,3.716A5.935,5.935,0,0,1,19.473.205a5.747,5.747,0,0,1-3.945-1.343A4.7,4.7,0,0,1,14-4.854v-9.365h2.373v9.365a3.11,3.11,0,0,0,.85,2.339,3.087,3.087,0,0,0,2.246.825A3.258,3.258,0,0,0,21.8-2.515a3.052,3.052,0,0,0,.879-2.339v-9.365ZM30.391,0H28.018V-14.219h2.373Zm3.184,0V-14.219h4.7a5.961,5.961,0,0,1,4.4,1.689,5.873,5.873,0,0,1,1.694,4.346v2.158A5.853,5.853,0,0,1,42.671-1.68,5.98,5.98,0,0,1,38.271,0Zm2.373-12.314v10.42h2.324a3.414,3.414,0,0,0,2.715-1.157,4.369,4.369,0,0,0,1.006-2.974V-8.2a4.34,4.34,0,0,0-1.006-2.954,3.414,3.414,0,0,0-2.715-1.157ZM54.17-3.32H49.131L48.037,0H45.586l4.961-14.219H52.8L57.705,0H55.254ZM49.785-5.3h3.74L51.7-10.908h-.059Zm12.051-.6V0H59.463V-14.219h4.893a5.611,5.611,0,0,1,3.672,1.074,3.754,3.754,0,0,1,1.3,3.066,3.171,3.171,0,0,1-.571,1.9A3.92,3.92,0,0,1,67.09-6.9a3,3,0,0,1,1.733,1.24,3.973,3.973,0,0,1,.532,2.129v1.182a4.791,4.791,0,0,0,.156,1.221,1.748,1.748,0,0,0,.518.908V0H67.588a1.562,1.562,0,0,1-.5-1.006,8.794,8.794,0,0,1-.107-1.367V-3.516a2.38,2.38,0,0,0-.63-1.738A2.286,2.286,0,0,0,64.639-5.9Zm0-1.9h2.393a3.221,3.221,0,0,0,2.08-.547,2.053,2.053,0,0,0,.654-1.67,2.209,2.209,0,0,0-.645-1.685,2.765,2.765,0,0,0-1.963-.61h-2.52ZM77.168,0V-14.219h4.7a5.961,5.961,0,0,1,4.4,1.689,5.873,5.873,0,0,1,1.694,4.346v2.158A5.853,5.853,0,0,1,86.265-1.68,5.98,5.98,0,0,1,81.865,0Zm2.373-12.314v10.42h2.324A3.414,3.414,0,0,0,84.58-3.052a4.369,4.369,0,0,0,1.006-2.974V-8.2a4.34,4.34,0,0,0-1.006-2.954,3.414,3.414,0,0,0-2.715-1.157ZM98.506-6.4H92.939v4.5H99.5V0H90.566V-14.219h8.867v1.9H92.939V-8.3h5.566ZM3.867,21.105h6.66V23H1.494V8.781H3.867Zm19.6-3.936a6.009,6.009,0,0,1-1.636,4.321,5.613,5.613,0,0,1-4.253,1.714,5.422,5.422,0,0,1-4.15-1.714,6.081,6.081,0,0,1-1.6-4.321V14.611a6.1,6.1,0,0,1,1.6-4.316,5.41,5.41,0,0,1,4.155-1.719,5.609,5.609,0,0,1,4.248,1.719,6,6,0,0,1,1.641,4.316Zm-2.373-2.578a4.422,4.422,0,0,0-.947-2.92,3.161,3.161,0,0,0-2.568-1.143A2.984,2.984,0,0,0,15.1,11.672a4.565,4.565,0,0,0-.9,2.92V17.17a4.6,4.6,0,0,0,.908,2.944,2.982,2.982,0,0,0,2.471,1.147,3.158,3.158,0,0,0,2.573-1.143,4.483,4.483,0,0,0,.942-2.949Zm12.383,4.756a1.868,1.868,0,0,0-.63-1.455,5.8,5.8,0,0,0-2.231-1.016,9.517,9.517,0,0,1-3.54-1.665,3.325,3.325,0,0,1-1.245-2.69A3.5,3.5,0,0,1,27.2,9.689a5.389,5.389,0,0,1,3.516-1.113A5.325,5.325,0,0,1,34.4,9.812a3.785,3.785,0,0,1,1.333,3.052l-.02.059H33.428a2.271,2.271,0,0,0-.747-1.787,2.881,2.881,0,0,0-1.987-.664,2.73,2.73,0,0,0-1.851.566,1.854,1.854,0,0,0-.649,1.465,1.623,1.623,0,0,0,.713,1.353,7.746,7.746,0,0,0,2.363,1.011,8.262,8.262,0,0,1,3.408,1.7,3.584,3.584,0,0,1,1.172,2.759,3.366,3.366,0,0,1-1.387,2.822,5.859,5.859,0,0,1-3.643,1.055,6.327,6.327,0,0,1-3.779-1.152A3.651,3.651,0,0,1,25.479,18.8l.02-.059h2.285a2.24,2.24,0,0,0,.884,1.929,3.536,3.536,0,0,0,2.153.649,3.168,3.168,0,0,0,1.958-.532A1.716,1.716,0,0,0,33.477,19.348Zm12.158,1.758h6.66V23H43.262V8.781h2.373Zm16.611-4.5H56.68v4.5h6.563V23H54.307V8.781h8.867v1.9H56.68V14.7h5.566Zm8.838-7.822h2.363v9.951A4.34,4.34,0,0,1,72.2,21.994a4.434,4.434,0,0,1-3.228,1.211,4.887,4.887,0,0,1-3.33-1.074A3.809,3.809,0,0,1,64.463,19l.02-.059h2.295a2.442,2.442,0,0,0,.581,1.792,2.185,2.185,0,0,0,1.616.581,1.893,1.893,0,0,0,1.519-.7,2.819,2.819,0,0,0,.591-1.875ZM83.6,19.68H78.564L77.471,23H75.02L79.98,8.781h2.256L87.139,23H84.688ZM79.219,17.7h3.74l-1.826-5.605h-.059ZM100,23H97.627l-6.3-10.244-.059.02V23H88.9V8.781H91.27l6.3,10.244.059-.02V8.781H100Zm14.16-5.83a6.009,6.009,0,0,1-1.636,4.321,5.613,5.613,0,0,1-4.253,1.714,5.422,5.422,0,0,1-4.15-1.714,6.081,6.081,0,0,1-1.6-4.321V14.611a6.1,6.1,0,0,1,1.6-4.316,5.41,5.41,0,0,1,4.155-1.719,5.609,5.609,0,0,1,4.248,1.719,6,6,0,0,1,1.641,4.316Zm-2.373-2.578a4.422,4.422,0,0,0-.947-2.92,3.161,3.161,0,0,0-2.568-1.143,2.984,2.984,0,0,0-2.476,1.143,4.565,4.565,0,0,0-.9,2.92V17.17a4.6,4.6,0,0,0,.908,2.944,2.982,2.982,0,0,0,2.471,1.147,3.158,3.158,0,0,0,2.573-1.143,4.483,4.483,0,0,0,.942-2.949Zm12.383,4.756a1.868,1.868,0,0,0-.63-1.455,5.8,5.8,0,0,0-2.231-1.016,9.517,9.517,0,0,1-3.54-1.665,3.325,3.325,0,0,1-1.245-2.69,3.5,3.5,0,0,1,1.367-2.832,5.389,5.389,0,0,1,3.516-1.113,5.325,5.325,0,0,1,3.687,1.235,3.785,3.785,0,0,1,1.333,3.052l-.02.059h-2.285a2.271,2.271,0,0,0-.747-1.787,2.881,2.881,0,0,0-1.987-.664,2.73,2.73,0,0,0-1.851.566,1.854,1.854,0,0,0-.649,1.465,1.623,1.623,0,0,0,.713,1.353,7.746,7.746,0,0,0,2.363,1.011,8.262,8.262,0,0,1,3.408,1.7,3.584,3.584,0,0,1,1.172,2.759,3.366,3.366,0,0,1-1.387,2.822,5.859,5.859,0,0,1-3.643,1.055,6.327,6.327,0,0,1-3.779-1.152,3.651,3.651,0,0,1-1.562-3.252l.02-.059h2.285a2.24,2.24,0,0,0,.884,1.929,3.536,3.536,0,0,0,2.153.649,3.168,3.168,0,0,0,1.958-.532A1.716,1.716,0,0,0,124.17,19.348Z" transform="translate(810.558 8599.002)" fill="#12263f"/>
  </g>
</svg>
