<svg xmlns="http://www.w3.org/2000/svg" xmlns:xlink="http://www.w3.org/1999/xlink" width="788" height="455.814" viewBox="0 0 788 455.814">
  <defs>
    <linearGradient id="linear-gradient" x1="0.971" y1="0.692" x2="0.16" y2="0.681" gradientUnits="objectBoundingBox">
      <stop offset="0" stop-color="#00348d"/>
      <stop offset="1" stop-color="#fc3a83"/>
    </linearGradient>
  </defs>
  <g id="Grupo_24237" data-name="Grupo 24237" transform="translate(-289 -552.186)">
    <g id="Grupo_23515" data-name="Grupo 23515" transform="translate(167.443 528.175)">
      <path id="Trazado_9161" data-name="Trazado 9161" d="M250.69,248.49H201.685l-19.628,16.476h49.005Z" transform="translate(0 97.592)" fill="#2846bd"/>
      <rect id="Rectángulo_5580" data-name="Rectángulo 5580" width="49.005" height="35.971" transform="translate(201.685 310.111)" fill="#2846bd"/>
      <rect id="Rectángulo_5581" data-name="Rectángulo 5581" width="49.005" height="35.971" transform="translate(182.057 326.587)" fill="#355efc"/>
      <path id="Trazado_9162" data-name="Trazado 9162" d="M250.69,228.257H201.685l-19.628,16.476h49.005Z" transform="translate(0 81.855)" fill="#6080fc"/>
      <path id="Trazado_9163" data-name="Trazado 9163" d="M292.393,248.49H243.388L223.76,264.965h49.005Z" transform="translate(32.438 97.592)" fill="#4a30ba"/>
      <rect id="Rectángulo_5582" data-name="Rectángulo 5582" width="49.005" height="98.869" transform="translate(275.826 247.213)" fill="#4a30ba"/>
      <rect id="Rectángulo_5583" data-name="Rectángulo 5583" width="49.005" height="98.869" transform="translate(256.198 263.688)" fill="#5b3ce6"/>
      <path id="Trazado_9164" data-name="Trazado 9164" d="M292.393,192.878H243.388L223.76,209.353h49.005Z" transform="translate(32.438 54.335)" fill="#7b5ffa"/>
      <path id="Trazado_9165" data-name="Trazado 9165" d="M334.1,248.49H285.091l-19.628,16.476h49.005Z" transform="translate(64.877 97.592)" fill="#8428c7"/>
      <rect id="Rectángulo_5584" data-name="Rectángulo 5584" width="49.005" height="158.306" transform="translate(349.968 187.776)" fill="#8428c7"/>
      <rect id="Rectángulo_5585" data-name="Rectángulo 5585" width="49.005" height="158.306" transform="translate(330.34 204.252)" fill="#a933ff"/>
      <path id="Trazado_9166" data-name="Trazado 9166" d="M334.1,159.446H285.091l-19.628,16.476h49.005Z" transform="translate(64.877 28.33)" fill="#bb5eff"/>
      <path id="Trazado_9167" data-name="Trazado 9167" d="M375.8,248.49H326.794l-19.628,16.476h49.005Z" transform="translate(97.315 97.592)" fill="#be30c2"/>
      <rect id="Rectángulo_5586" data-name="Rectángulo 5586" width="49.005" height="223.058" transform="translate(424.109 123.024)" fill="#be30c2"/>
      <rect id="Rectángulo_5587" data-name="Rectángulo 5587" width="49.005" height="223.058" transform="translate(404.481 139.5)" fill="#f03df5"/>
      <path id="Trazado_9168" data-name="Trazado 9168" d="M375.8,123.024H326.794L307.166,139.5h49.005Z" transform="translate(97.315 0)" fill="#f162f5"/>
    </g>
    <g id="Grupo_23516" data-name="Grupo 23516" transform="translate(713.785 651.199)">
      <path id="Trazado_9161-2" data-name="Trazado 9161" d="M182.057,248.49h49.005l19.628,16.476H201.685Z" transform="translate(40.367 -25.432)" fill="#2846bd"/>
      <rect id="Rectángulo_5580-2" data-name="Rectángulo 5580" width="49.005" height="35.971" transform="translate(222.424 187.087)" fill="#2846bd"/>
      <rect id="Rectángulo_5581-2" data-name="Rectángulo 5581" width="49.005" height="35.971" transform="translate(242.052 203.563)" fill="#355efc"/>
      <path id="Trazado_9162-2" data-name="Trazado 9162" d="M182.057,228.257h49.005l19.628,16.476H201.685Z" transform="translate(40.367 -41.17)" fill="#6080fc"/>
      <path id="Trazado_9163-2" data-name="Trazado 9163" d="M223.76,248.49h49.005l19.628,16.476H243.388Z" transform="translate(-75.477 -25.432)" fill="#4a30ba"/>
      <rect id="Rectángulo_5582-2" data-name="Rectángulo 5582" width="49.005" height="98.869" transform="translate(148.283 124.188)" fill="#4a30ba"/>
      <rect id="Rectángulo_5583-2" data-name="Rectángulo 5583" width="49.005" height="98.869" transform="translate(167.911 140.664)" fill="#5b3ce6"/>
      <path id="Trazado_9164-2" data-name="Trazado 9164" d="M223.76,192.878h49.005l19.628,16.476H243.388Z" transform="translate(-75.477 -68.689)" fill="#7b5ffa"/>
      <path id="Trazado_9165-2" data-name="Trazado 9165" d="M265.463,248.49h49.005L334.1,264.965H285.091Z" transform="translate(-191.321 -25.432)" fill="#8428c7"/>
      <rect id="Rectángulo_5584-2" data-name="Rectángulo 5584" width="49.005" height="158.305" transform="translate(74.141 64.752)" fill="#8428c7"/>
      <rect id="Rectángulo_5585-2" data-name="Rectángulo 5585" width="49.005" height="158.305" transform="translate(93.77 81.228)" fill="#a933ff"/>
      <path id="Trazado_9166-2" data-name="Trazado 9166" d="M265.463,159.446h49.005L334.1,175.922H285.091Z" transform="translate(-191.321 -94.694)" fill="#bb5eff"/>
      <path id="Trazado_9167-2" data-name="Trazado 9167" d="M307.166,248.49h49.005L375.8,264.965H326.794Z" transform="translate(-307.166 -25.432)" fill="#be30c2"/>
      <rect id="Rectángulo_5586-2" data-name="Rectángulo 5586" width="49.005" height="223.057" transform="translate(0 0)" fill="#be30c2"/>
      <rect id="Rectángulo_5587-2" data-name="Rectángulo 5587" width="49.005" height="223.057" transform="translate(19.628 16.476)" fill="#f03df5"/>
      <path id="Trazado_9168-2" data-name="Trazado 9168" d="M307.166,123.024h49.005L375.8,139.5H326.794Z" transform="translate(-307.166 -123.024)" fill="#f162f5"/>
    </g>
    <path id="Trazado_10422" data-name="Trazado 10422" d="M15.258-2.109A6.614,6.614,0,0,1,12.48-.41,11.979,11.979,0,0,1,8.473.234,7.146,7.146,0,0,1,3.117-1.816,8.3,8.3,0,0,1,.973-7.523L.961-9a10.182,10.182,0,0,1,.891-4.4A6.614,6.614,0,0,1,4.4-16.295a7.21,7.21,0,0,1,3.838-1.014,7.559,7.559,0,0,1,4.951,1.459A6.182,6.182,0,0,1,15.246-11.5H11.285a3.235,3.235,0,0,0-.914-2.039,2.949,2.949,0,0,0-1.992-.609,2.684,2.684,0,0,0-2.391,1.313,7.008,7.008,0,0,0-.855,3.75v1.031a6.86,6.86,0,0,0,.873,3.838A3.088,3.088,0,0,0,8.754-2.93a3.456,3.456,0,0,0,2.391-.715V-6.293H8.285V-9.117h6.973ZM24.609,0a4.459,4.459,0,0,1-.375-1.137A3.672,3.672,0,0,1,21.188.234,4.5,4.5,0,0,1,18.141-.85a3.45,3.45,0,0,1-1.254-2.725A3.546,3.546,0,0,1,18.41-6.691a7.761,7.761,0,0,1,4.43-1.055h1.219v-.668q0-1.746-1.512-1.746a1.233,1.233,0,0,0-1.406,1.383H17.191a3.546,3.546,0,0,1,1.564-2.988,6.569,6.569,0,0,1,3.99-1.148,5.764,5.764,0,0,1,3.832,1.184A4.115,4.115,0,0,1,28.02-8.484v5.613A5.748,5.748,0,0,0,28.559-.2V0ZM22.137-2.578a2.2,2.2,0,0,0,1.225-.316,1.983,1.983,0,0,0,.7-.715V-5.637H22.91q-2.062,0-2.062,1.852a1.131,1.131,0,0,0,.363.873A1.315,1.315,0,0,0,22.137-2.578Zm11.7-10.1.129,1.488a4.3,4.3,0,0,1,3.621-1.723,3.618,3.618,0,0,1,2.959,1.184,5.635,5.635,0,0,1,1.014,3.563V0H37.594V-8a2.14,2.14,0,0,0-.387-1.412A1.789,1.789,0,0,0,35.8-9.867a1.883,1.883,0,0,0-1.723.914V0H30.129V-12.68ZM50.883,0a4.459,4.459,0,0,1-.375-1.137A3.672,3.672,0,0,1,47.461.234,4.5,4.5,0,0,1,44.414-.85,3.45,3.45,0,0,1,43.16-3.574a3.546,3.546,0,0,1,1.523-3.117,7.761,7.761,0,0,1,4.43-1.055h1.219v-.668q0-1.746-1.512-1.746a1.233,1.233,0,0,0-1.406,1.383H43.465a3.546,3.546,0,0,1,1.564-2.988,6.569,6.569,0,0,1,3.99-1.148,5.764,5.764,0,0,1,3.832,1.184,4.115,4.115,0,0,1,1.441,3.246v5.613A5.748,5.748,0,0,0,54.832-.2V0ZM48.41-2.578a2.2,2.2,0,0,0,1.225-.316,1.983,1.983,0,0,0,.7-.715V-5.637H49.184q-2.062,0-2.062,1.852a1.131,1.131,0,0,0,.363.873A1.315,1.315,0,0,0,48.41-2.578Zm11.7-10.1.129,1.488a4.3,4.3,0,0,1,3.621-1.723,3.618,3.618,0,0,1,2.959,1.184,5.635,5.635,0,0,1,1.014,3.563V0H63.867V-8a2.14,2.14,0,0,0-.387-1.412,1.789,1.789,0,0,0-1.406-.451,1.883,1.883,0,0,0-1.723.914V0H56.4V-12.68Zm15.27,9.867a1.756,1.756,0,0,0,1.289-.451,1.654,1.654,0,0,0,.445-1.26h3.7A4.384,4.384,0,0,1,79.318-1.1,5.558,5.558,0,0,1,75.469.234,5.627,5.627,0,0,1,71.109-1.5a6.834,6.834,0,0,1-1.594-4.8v-.164a7.723,7.723,0,0,1,.709-3.393,5.162,5.162,0,0,1,2.045-2.262,6.1,6.1,0,0,1,3.164-.791,5.488,5.488,0,0,1,3.926,1.371,4.863,4.863,0,0,1,1.453,3.715h-3.7a2.168,2.168,0,0,0-.48-1.512,1.658,1.658,0,0,0-1.289-.527q-1.535,0-1.793,1.957A13.809,13.809,0,0,0,73.465-6.2a5.424,5.424,0,0,0,.457,2.648A1.582,1.582,0,0,0,75.375-2.812ZM86.648,0H82.688V-12.68h3.961Zm-4.2-15.949a1.763,1.763,0,0,1,.609-1.383,2.3,2.3,0,0,1,1.582-.539,2.3,2.3,0,0,1,1.582.539,1.763,1.763,0,0,1,.609,1.383,1.763,1.763,0,0,1-.609,1.383,2.3,2.3,0,0,1-1.582.539,2.3,2.3,0,0,1-1.582-.539A1.763,1.763,0,0,1,82.453-15.949ZM96.223,0a4.459,4.459,0,0,1-.375-1.137A3.672,3.672,0,0,1,92.8.234,4.5,4.5,0,0,1,89.754-.85,3.45,3.45,0,0,1,88.5-3.574a3.546,3.546,0,0,1,1.523-3.117,7.761,7.761,0,0,1,4.43-1.055h1.219v-.668q0-1.746-1.512-1.746a1.233,1.233,0,0,0-1.406,1.383H88.8a3.546,3.546,0,0,1,1.564-2.988,6.569,6.569,0,0,1,3.99-1.148,5.764,5.764,0,0,1,3.832,1.184,4.115,4.115,0,0,1,1.441,3.246v5.613A5.748,5.748,0,0,0,100.172-.2V0ZM93.75-2.578a2.2,2.2,0,0,0,1.225-.316,1.983,1.983,0,0,0,.7-.715V-5.637H94.523q-2.062,0-2.062,1.852a1.131,1.131,0,0,0,.363.873A1.315,1.315,0,0,0,93.75-2.578Zm14.707-.984a.912.912,0,0,0-.527-.809,8.021,8.021,0,0,0-2-.633,9.138,9.138,0,0,1-2.437-.861,4.083,4.083,0,0,1-1.465-1.295,3.092,3.092,0,0,1-.5-1.746,3.5,3.5,0,0,1,1.441-2.877,5.938,5.938,0,0,1,3.773-1.131,6.579,6.579,0,0,1,4.031,1.137,3.555,3.555,0,0,1,1.523,2.988h-3.961q0-1.523-1.605-1.523a1.591,1.591,0,0,0-1.043.346,1.07,1.07,0,0,0-.422.861.982.982,0,0,0,.516.855,4.872,4.872,0,0,0,1.646.539,14.228,14.228,0,0,1,1.986.5q2.859.984,2.859,3.527a3.321,3.321,0,0,1-1.541,2.824,6.758,6.758,0,0,1-3.99,1.09,6.9,6.9,0,0,1-2.906-.586,4.86,4.86,0,0,1-1.992-1.594,3.609,3.609,0,0,1-.715-2.121h3.691a1.526,1.526,0,0,0,.586,1.283,2.41,2.41,0,0,0,1.441.4,1.9,1.9,0,0,0,1.213-.328A1.05,1.05,0,0,0,108.457-3.562Zm17.766,3.8a6.518,6.518,0,0,1-4.723-1.74,6.009,6.009,0,0,1-1.8-4.529v-.328a7.787,7.787,0,0,1,.721-3.434,5.274,5.274,0,0,1,2.1-2.3,6.35,6.35,0,0,1,3.281-.814,5.489,5.489,0,0,1,4.219,1.658,6.516,6.516,0,0,1,1.547,4.623V-5.1h-7.852a2.846,2.846,0,0,0,.926,1.676,2.755,2.755,0,0,0,1.852.609,3.549,3.549,0,0,0,2.93-1.312l1.8,2.133a5.045,5.045,0,0,1-2.092,1.623A7.069,7.069,0,0,1,126.223.234Zm-.445-10.1q-1.734,0-2.062,2.3H127.7v-.3a1.956,1.956,0,0,0-.48-1.471A1.912,1.912,0,0,0,125.777-9.867Zm11-2.812.129,1.488a4.3,4.3,0,0,1,3.621-1.723,3.618,3.618,0,0,1,2.959,1.184A5.635,5.635,0,0,1,144.5-8.168V0h-3.961V-8a2.14,2.14,0,0,0-.387-1.412,1.789,1.789,0,0,0-1.406-.451,1.883,1.883,0,0,0-1.723.914V0h-3.949V-12.68Zm24.867,8.145a1.69,1.69,0,0,0-.639-1.406,7.938,7.938,0,0,0-2.244-1.043,21.53,21.53,0,0,1-2.625-1.043q-3.316-1.629-3.316-4.477a4.014,4.014,0,0,1,.826-2.5,5.344,5.344,0,0,1,2.338-1.687,9.1,9.1,0,0,1,3.4-.6,7.958,7.958,0,0,1,3.3.656,5.223,5.223,0,0,1,2.268,1.869A4.881,4.881,0,0,1,165.762-12h-4.1a2.063,2.063,0,0,0-.639-1.617,2.489,2.489,0,0,0-1.729-.574,2.807,2.807,0,0,0-1.74.486,1.492,1.492,0,0,0-.639,1.236,1.5,1.5,0,0,0,.7,1.189,8.867,8.867,0,0,0,2.473,1.1A15.147,15.147,0,0,1,163-8.953a4.884,4.884,0,0,1,2.766,4.395,4.166,4.166,0,0,1-1.687,3.516A7.506,7.506,0,0,1,159.445.234a9.184,9.184,0,0,1-3.756-.744,5.663,5.663,0,0,1-2.531-2.039,5.313,5.313,0,0,1-.85-2.982h4.125a2.617,2.617,0,0,0,.709,2.021,3.351,3.351,0,0,0,2.3.65,2.647,2.647,0,0,0,1.611-.439A1.45,1.45,0,0,0,161.648-4.535ZM174.832,0a4.459,4.459,0,0,1-.375-1.137A3.672,3.672,0,0,1,171.41.234,4.5,4.5,0,0,1,168.363-.85a3.45,3.45,0,0,1-1.254-2.725,3.546,3.546,0,0,1,1.523-3.117,7.761,7.761,0,0,1,4.43-1.055h1.219v-.668q0-1.746-1.512-1.746a1.233,1.233,0,0,0-1.406,1.383h-3.949a3.546,3.546,0,0,1,1.564-2.988,6.569,6.569,0,0,1,3.99-1.148A5.764,5.764,0,0,1,176.8-11.73a4.115,4.115,0,0,1,1.441,3.246v5.613A5.748,5.748,0,0,0,178.781-.2V0Zm-2.473-2.578a2.2,2.2,0,0,0,1.225-.316,1.983,1.983,0,0,0,.7-.715V-5.637h-1.148q-2.062,0-2.062,1.852a1.131,1.131,0,0,0,.363.873A1.315,1.315,0,0,0,172.359-2.578ZM184.594,0h-3.961V-18h3.961Zm9.984-1.371A4.072,4.072,0,0,1,191.191.234a3.993,3.993,0,0,1-3.158-1.213,5.1,5.1,0,0,1-1.072-3.486V-12.68h3.949v8.238a1.419,1.419,0,0,0,1.582,1.629,2.064,2.064,0,0,0,1.934-.973V-12.68H198.4V0h-3.7Zm5.484-5.062a7.746,7.746,0,0,1,1.3-4.746A4.282,4.282,0,0,1,205-12.914a3.641,3.641,0,0,1,2.859,1.336V-18h3.961V0h-3.551l-.2-1.359A3.739,3.739,0,0,1,204.973.234,4.274,4.274,0,0,1,201.387-1.5,7.991,7.991,0,0,1,200.063-6.434Zm3.949.246q0,3.375,1.969,3.375a1.944,1.944,0,0,0,1.875-1.1V-8.742A1.892,1.892,0,0,0,206-9.867q-1.828,0-1.98,2.953Z" transform="translate(381.844 936)" fill="#12263f"/>
    <path id="Trazado_10423" data-name="Trazado 10423" d="M15.094-5.777a6.231,6.231,0,0,1-.961,3.146A5.8,5.8,0,0,1,11.666-.516a8.4,8.4,0,0,1-3.627.75,6.7,6.7,0,0,1-5.3-2.191A9.048,9.048,0,0,1,.809-8.145v-.844a10.328,10.328,0,0,1,.873-4.389A6.615,6.615,0,0,1,4.2-16.283a7.013,7.013,0,0,1,3.8-1.025,7.354,7.354,0,0,1,4.992,1.635,6.459,6.459,0,0,1,2.145,4.506h-4.1a3.056,3.056,0,0,0-.785-2.238,3.229,3.229,0,0,0-2.25-.68,2.457,2.457,0,0,0-2.25,1.148,7.381,7.381,0,0,0-.75,3.668v1.207a8.167,8.167,0,0,0,.686,3.9A2.509,2.509,0,0,0,8.039-2.988a3.159,3.159,0,0,0,2.168-.668A2.835,2.835,0,0,0,11-5.777ZM24,0a4.459,4.459,0,0,1-.375-1.137A3.672,3.672,0,0,1,20.578.234,4.5,4.5,0,0,1,17.531-.85a3.45,3.45,0,0,1-1.254-2.725A3.546,3.546,0,0,1,17.8-6.691a7.761,7.761,0,0,1,4.43-1.055h1.219v-.668q0-1.746-1.512-1.746a1.233,1.233,0,0,0-1.406,1.383H16.582a3.546,3.546,0,0,1,1.564-2.988,6.569,6.569,0,0,1,3.99-1.148,5.764,5.764,0,0,1,3.832,1.184A4.115,4.115,0,0,1,27.41-8.484v5.613A5.748,5.748,0,0,0,27.949-.2V0ZM21.527-2.578a2.2,2.2,0,0,0,1.225-.316,1.983,1.983,0,0,0,.7-.715V-5.637H22.3q-2.062,0-2.062,1.852a1.131,1.131,0,0,0,.363.873A1.315,1.315,0,0,0,21.527-2.578ZM37.266-9.105l-1.3-.094a2.336,2.336,0,0,0-2.391,1.172V0H29.625V-12.68h3.7l.129,1.629a3.058,3.058,0,0,1,2.777-1.863,3.851,3.851,0,0,1,1.1.141ZM38-6.434a8.561,8.561,0,0,1,.633-3.4,5.094,5.094,0,0,1,1.816-2.279,4.788,4.788,0,0,1,2.754-.8A3.807,3.807,0,0,1,46.3-11.578l.141-1.1h3.586V-.48a5.346,5.346,0,0,1-.779,2.912,5,5,0,0,1-2.256,1.9,8.292,8.292,0,0,1-3.422.662,7.153,7.153,0,0,1-2.7-.527,4.876,4.876,0,0,1-2-1.371L40.523.773a3.621,3.621,0,0,0,2.906,1.3q2.625,0,2.625-2.7v-.4A3.708,3.708,0,0,1,43.184.234a4.583,4.583,0,0,1-3.75-1.775A7.356,7.356,0,0,1,38-6.293Zm3.961.246a4.511,4.511,0,0,0,.586,2.467,1.849,1.849,0,0,0,1.641.908,2.1,2.1,0,0,0,1.863-.855V-9a2.045,2.045,0,0,0-1.84-.867,1.861,1.861,0,0,0-1.652.943A5.144,5.144,0,0,0,41.965-6.187ZM59.414,0a4.459,4.459,0,0,1-.375-1.137A3.672,3.672,0,0,1,55.992.234,4.5,4.5,0,0,1,52.945-.85a3.45,3.45,0,0,1-1.254-2.725,3.546,3.546,0,0,1,1.523-3.117,7.761,7.761,0,0,1,4.43-1.055h1.219v-.668q0-1.746-1.512-1.746a1.233,1.233,0,0,0-1.406,1.383H52a3.546,3.546,0,0,1,1.564-2.988,6.569,6.569,0,0,1,3.99-1.148,5.764,5.764,0,0,1,3.832,1.184,4.115,4.115,0,0,1,1.441,3.246v5.613A5.748,5.748,0,0,0,63.363-.2V0ZM56.941-2.578a2.2,2.2,0,0,0,1.225-.316,1.983,1.983,0,0,0,.7-.715V-5.637H57.715q-2.062,0-2.062,1.852a1.131,1.131,0,0,0,.363.873A1.315,1.315,0,0,0,56.941-2.578ZM70.488-6.434a7.746,7.746,0,0,1,1.3-4.746,4.282,4.282,0,0,1,3.633-1.734,3.641,3.641,0,0,1,2.859,1.336V-18h3.961V0H78.691l-.2-1.359A3.739,3.739,0,0,1,75.4.234,4.274,4.274,0,0,1,71.813-1.5,7.991,7.991,0,0,1,70.488-6.434Zm3.949.246q0,3.375,1.969,3.375a1.944,1.944,0,0,0,1.875-1.1V-8.742A1.892,1.892,0,0,0,76.43-9.867q-1.828,0-1.98,2.953ZM90.621.234A6.518,6.518,0,0,1,85.9-1.506a6.009,6.009,0,0,1-1.8-4.529v-.328A7.787,7.787,0,0,1,84.814-9.8a5.274,5.274,0,0,1,2.1-2.3,6.35,6.35,0,0,1,3.281-.814,5.489,5.489,0,0,1,4.219,1.658,6.516,6.516,0,0,1,1.547,4.623V-5.1H88.113a2.846,2.846,0,0,0,.926,1.676,2.755,2.755,0,0,0,1.852.609,3.549,3.549,0,0,0,2.93-1.312l1.8,2.133A5.045,5.045,0,0,1,93.533-.369,7.069,7.069,0,0,1,90.621.234Zm-.445-10.1q-1.734,0-2.062,2.3H92.1v-.3a1.956,1.956,0,0,0-.48-1.471A1.912,1.912,0,0,0,90.176-9.867ZM107.7,0h-3.961V-18H107.7Zm9.574,0a4.459,4.459,0,0,1-.375-1.137A3.672,3.672,0,0,1,113.848.234,4.5,4.5,0,0,1,110.8-.85a3.45,3.45,0,0,1-1.254-2.725,3.546,3.546,0,0,1,1.523-3.117,7.761,7.761,0,0,1,4.43-1.055h1.219v-.668q0-1.746-1.512-1.746A1.233,1.233,0,0,0,113.8-8.777h-3.949a3.546,3.546,0,0,1,1.564-2.988,6.569,6.569,0,0,1,3.99-1.148,5.764,5.764,0,0,1,3.832,1.184,4.115,4.115,0,0,1,1.441,3.246v5.613A5.748,5.748,0,0,0,121.219-.2V0ZM114.8-2.578a2.2,2.2,0,0,0,1.225-.316,1.983,1.983,0,0,0,.7-.715V-5.637H115.57q-2.062,0-2.062,1.852a1.131,1.131,0,0,0,.363.873A1.315,1.315,0,0,0,114.8-2.578ZM134.977.234a6.518,6.518,0,0,1-4.723-1.74,6.009,6.009,0,0,1-1.8-4.529v-.328A7.787,7.787,0,0,1,129.17-9.8a5.274,5.274,0,0,1,2.1-2.3,6.35,6.35,0,0,1,3.281-.814,5.489,5.489,0,0,1,4.219,1.658,6.516,6.516,0,0,1,1.547,4.623V-5.1h-7.852a2.846,2.846,0,0,0,.926,1.676,2.755,2.755,0,0,0,1.852.609,3.549,3.549,0,0,0,2.93-1.312l1.8,2.133a5.045,5.045,0,0,1-2.092,1.623A7.069,7.069,0,0,1,134.977.234Zm-.445-10.1q-1.734,0-2.062,2.3h3.984v-.3a1.956,1.956,0,0,0-.48-1.471A1.912,1.912,0,0,0,134.531-9.867Zm11-2.812.129,1.488a4.3,4.3,0,0,1,3.621-1.723,3.618,3.618,0,0,1,2.959,1.184,5.635,5.635,0,0,1,1.014,3.563V0H149.3V-8a2.14,2.14,0,0,0-.387-1.412,1.789,1.789,0,0,0-1.406-.451,1.883,1.883,0,0,0-1.723.914V0h-3.949V-12.68ZM156.316,0V-9.937h-1.84V-12.68h1.84v-1.008a4.381,4.381,0,0,1,1.277-3.363,5.047,5.047,0,0,1,3.586-1.2,7.853,7.853,0,0,1,1.852.246l.012,2.906a3.608,3.608,0,0,0-.973-.105q-1.793,0-1.793,1.547v.973h2.473v2.742h-2.473V0Zm13.676.234a6.518,6.518,0,0,1-4.723-1.74,6.009,6.009,0,0,1-1.8-4.529v-.328a7.787,7.787,0,0,1,.721-3.434,5.274,5.274,0,0,1,2.1-2.3,6.35,6.35,0,0,1,3.281-.814,5.489,5.489,0,0,1,4.219,1.658,6.516,6.516,0,0,1,1.547,4.623V-5.1h-7.852a2.846,2.846,0,0,0,.926,1.676,2.755,2.755,0,0,0,1.852.609,3.549,3.549,0,0,0,2.93-1.312L175-1.992A5.045,5.045,0,0,1,172.9-.369,7.069,7.069,0,0,1,169.992.234Zm-.445-10.1q-1.734,0-2.062,2.3h3.984v-.3a1.956,1.956,0,0,0-.48-1.471A1.912,1.912,0,0,0,169.547-9.867Zm15.047.762-1.3-.094A2.336,2.336,0,0,0,180.9-8.027V0h-3.949V-12.68h3.7l.129,1.629a3.058,3.058,0,0,1,2.777-1.863,3.851,3.851,0,0,1,1.1.141Zm5.156-3.574.129,1.488a4.36,4.36,0,0,1,3.621-1.723A3.21,3.21,0,0,1,196.746-11a4.22,4.22,0,0,1,3.727-1.91q3.855,0,3.961,4.664V0h-3.961V-8a2.417,2.417,0,0,0-.328-1.418,1.4,1.4,0,0,0-1.2-.445A1.871,1.871,0,0,0,197.2-8.824l.012.164V0h-3.961V-7.98a2.541,2.541,0,0,0-.316-1.441,1.393,1.393,0,0,0-1.207-.445A1.894,1.894,0,0,0,190-8.824V0h-3.949V-12.68ZM212.824.234a6.518,6.518,0,0,1-4.723-1.74,6.009,6.009,0,0,1-1.8-4.529v-.328a7.787,7.787,0,0,1,.721-3.434,5.274,5.274,0,0,1,2.1-2.3,6.35,6.35,0,0,1,3.281-.814,5.489,5.489,0,0,1,4.219,1.658,6.516,6.516,0,0,1,1.547,4.623V-5.1h-7.852a2.846,2.846,0,0,0,.926,1.676,2.755,2.755,0,0,0,1.852.609,3.549,3.549,0,0,0,2.93-1.312l1.8,2.133a5.045,5.045,0,0,1-2.092,1.623A7.069,7.069,0,0,1,212.824.234Zm-.445-10.1q-1.734,0-2.062,2.3H214.3v-.3a1.956,1.956,0,0,0-.48-1.471A1.912,1.912,0,0,0,212.379-9.867Zm6.879,3.434a7.746,7.746,0,0,1,1.3-4.746,4.282,4.282,0,0,1,3.633-1.734,3.641,3.641,0,0,1,2.859,1.336V-18h3.961V0h-3.551l-.2-1.359A3.739,3.739,0,0,1,224.168.234,4.274,4.274,0,0,1,220.582-1.5,7.991,7.991,0,0,1,219.258-6.434Zm3.949.246q0,3.375,1.969,3.375a1.944,1.944,0,0,0,1.875-1.1V-8.742A1.892,1.892,0,0,0,225.2-9.867q-1.828,0-1.98,2.953ZM240.4,0a4.459,4.459,0,0,1-.375-1.137A3.672,3.672,0,0,1,236.977.234,4.5,4.5,0,0,1,233.93-.85a3.45,3.45,0,0,1-1.254-2.725A3.546,3.546,0,0,1,234.2-6.691a7.761,7.761,0,0,1,4.43-1.055h1.219v-.668q0-1.746-1.512-1.746a1.233,1.233,0,0,0-1.406,1.383H232.98a3.546,3.546,0,0,1,1.564-2.988,6.569,6.569,0,0,1,3.99-1.148,5.764,5.764,0,0,1,3.832,1.184,4.115,4.115,0,0,1,1.441,3.246v5.613A5.748,5.748,0,0,0,244.348-.2V0Zm-2.473-2.578a2.2,2.2,0,0,0,1.225-.316,1.983,1.983,0,0,0,.7-.715V-5.637H238.7q-2.062,0-2.062,1.852a1.131,1.131,0,0,0,.363.873A1.315,1.315,0,0,0,237.926-2.578Zm7.57-3.855a7.746,7.746,0,0,1,1.3-4.746,4.282,4.282,0,0,1,3.633-1.734,3.641,3.641,0,0,1,2.859,1.336V-18h3.961V0H253.7l-.2-1.359A3.739,3.739,0,0,1,250.406.234,4.274,4.274,0,0,1,246.82-1.5,7.991,7.991,0,0,1,245.5-6.434Zm3.949.246q0,3.375,1.969,3.375a1.944,1.944,0,0,0,1.875-1.1V-8.742a1.892,1.892,0,0,0-1.852-1.125q-1.828,0-1.98,2.953Z" transform="translate(746.844 936)" fill="#12263f"/>
    <g id="Grupo_23517" data-name="Grupo 23517" transform="translate(93.844 47)">
      <path id="Trazado_9169" data-name="Trazado 9169" d="M-12826.844-10949.536c4.411-4.479,143.208-7.579,236.349-172.084" transform="translate(13056 11700)" fill="none" stroke="#f579a8" stroke-width="2"/>
      <path id="Polígono_10" data-name="Polígono 10" d="M14.5,0,29,25H0Z" transform="matrix(0.921, 0.391, -0.391, 0.921, 461.037, 551.328)" fill="#f579a8"/>
    </g>
    <g id="Grupo_23518" data-name="Grupo 23518" transform="matrix(0.259, 0.966, -0.966, 0.259, 1448.789, 181.958)">
      <path id="Trazado_9169-2" data-name="Trazado 9169" d="M-12826.844-10949.536c4.411-4.479,143.208-7.579,236.349-172.084" transform="translate(13056 11700)" fill="none" stroke="#00348d" stroke-width="2"/>
      <path id="Polígono_10-2" data-name="Polígono 10" d="M14.5,0,29,25H0Z" transform="matrix(0.921, 0.391, -0.391, 0.921, 461.037, 551.328)" fill="#00348d"/>
    </g>
    <path id="Trazado_10424" data-name="Trazado 10424" d="M0,0H788V53H0Z" transform="translate(289 955)" fill="url(#linear-gradient)"/>
    <path id="Trazado_10425" data-name="Trazado 10425" d="M12.079-1.67A5.236,5.236,0,0,1,9.88-.325a9.483,9.483,0,0,1-3.173.51,5.657,5.657,0,0,1-4.24-1.624A6.572,6.572,0,0,1,.77-5.956L.761-7.125a8.061,8.061,0,0,1,.705-3.484A5.236,5.236,0,0,1,3.484-12.9a5.708,5.708,0,0,1,3.038-.8,5.984,5.984,0,0,1,3.92,1.155A4.894,4.894,0,0,1,12.07-9.1H8.934a2.561,2.561,0,0,0-.724-1.614A2.335,2.335,0,0,0,6.633-11.2a2.125,2.125,0,0,0-1.893,1.039A5.548,5.548,0,0,0,4.063-7.19v.816a5.431,5.431,0,0,0,.691,3.038A2.445,2.445,0,0,0,6.93-2.319a2.736,2.736,0,0,0,1.893-.566v-2.1H6.559V-7.218h5.52Zm9.565-.854H17.182L16.4,0H12.923l4.954-13.508h3.062L25.93,0h-3.5ZM17.961-5.038h2.9L19.408-9.723Zm13.972.269H30.17V0H26.914V-13.508h5.316a5.929,5.929,0,0,1,3.757,1.067,3.617,3.617,0,0,1,1.354,3.015,4.394,4.394,0,0,1-.571,2.338,4.051,4.051,0,0,1-1.786,1.5l2.82,5.446V0H34.317ZM30.17-7.283h2.06a1.851,1.851,0,0,0,1.4-.487,1.88,1.88,0,0,0,.469-1.359,1.9,1.9,0,0,0-.473-1.368,1.834,1.834,0,0,0-1.392-.5H30.17ZM46.98-2.523H42.518L41.739,0H38.26l4.954-13.508h3.062L51.267,0h-3.5ZM43.3-5.038h2.9L44.745-9.723ZM63.531,0H60.293L55.506-8.405V0H52.25V-13.508h3.256L60.284-5.1v-8.405h3.247ZM75.926-10.994H71.872V0H68.615V-10.994h-3.98v-2.514H75.926ZM80.769,0H77.521V-13.508h3.247Zm5.919-2.5h6.457V0H82.624V-1.716l6.438-9.277H82.587v-2.514H93.08v1.67Zm15.725-.019H97.95L97.171,0H93.692l4.954-13.508h3.062L106.7,0h-3.5ZM98.729-5.038h2.9l-1.457-4.685Zm13.972.269h-1.763V0h-3.256V-13.508H113a5.929,5.929,0,0,1,3.757,1.067,3.617,3.617,0,0,1,1.354,3.015,4.394,4.394,0,0,1-.571,2.338,4.051,4.051,0,0,1-1.786,1.5l2.82,5.446V0h-3.488Zm-1.763-2.514H113a1.851,1.851,0,0,0,1.4-.487,1.88,1.88,0,0,0,.469-1.359,1.9,1.9,0,0,0-.473-1.368,1.834,1.834,0,0,0-1.392-.5h-2.06Zm24.8,2.709a4.933,4.933,0,0,1-.761,2.491,4.591,4.591,0,0,1-1.953,1.675,6.647,6.647,0,0,1-2.871.594,5.3,5.3,0,0,1-4.193-1.735,7.163,7.163,0,0,1-1.531-4.9v-.668a8.176,8.176,0,0,1,.691-3.474,5.237,5.237,0,0,1,1.99-2.3,5.552,5.552,0,0,1,3.006-.812,5.822,5.822,0,0,1,3.952,1.294,5.113,5.113,0,0,1,1.7,3.567h-3.247a2.419,2.419,0,0,0-.622-1.772,2.556,2.556,0,0,0-1.781-.538,1.945,1.945,0,0,0-1.781.909,5.843,5.843,0,0,0-.594,2.9v.956a6.466,6.466,0,0,0,.543,3.089,1.986,1.986,0,0,0,1.869.928,2.5,2.5,0,0,0,1.716-.529,2.244,2.244,0,0,0,.631-1.679Zm12.979-1.9a7.966,7.966,0,0,1-.733,3.5A5.417,5.417,0,0,1,145.9-.635a5.8,5.8,0,0,1-3.075.821,5.881,5.881,0,0,1-3.062-.793,5.408,5.408,0,0,1-2.083-2.268,7.736,7.736,0,0,1-.784-3.386v-.761a8,8,0,0,1,.728-3.5,5.4,5.4,0,0,1,2.087-2.343,5.84,5.84,0,0,1,3.094-.826,5.783,5.783,0,0,1,3.062.816,5.5,5.5,0,0,1,2.092,2.324,7.771,7.771,0,0,1,.756,3.456ZM145.4-7.042a5.68,5.68,0,0,0-.673-3.057,2.157,2.157,0,0,0-1.925-1.044q-2.449,0-2.588,3.674l-.009.993a5.842,5.842,0,0,0,.659,3.052,2.154,2.154,0,0,0,1.958,1.067,2.128,2.128,0,0,0,1.9-1.048A5.683,5.683,0,0,0,145.4-6.42ZM161.676,0h-3.238l-4.787-8.405V0H150.4V-13.508h3.256L158.429-5.1v-8.405h3.247Zm2.06,0V-13.508h4.351a6.4,6.4,0,0,1,3.219.812,5.706,5.706,0,0,1,2.231,2.292,6.919,6.919,0,0,1,.812,3.317v.622a6.958,6.958,0,0,1-.784,3.326,5.731,5.731,0,0,1-2.208,2.3A6.26,6.26,0,0,1,168.18,0Zm3.256-10.994V-2.5h1.132a2.533,2.533,0,0,0,2.152-1,4.887,4.887,0,0,0,.751-2.964v-.584a4.847,4.847,0,0,0-.751-2.95,2.577,2.577,0,0,0-2.189-.993ZM179.489,0h-3.247V-13.508h3.247Zm13.192-4.574a4.933,4.933,0,0,1-.761,2.491,4.591,4.591,0,0,1-1.953,1.675A6.647,6.647,0,0,1,187.1.186,5.3,5.3,0,0,1,182.9-1.549a7.163,7.163,0,0,1-1.531-4.9v-.668a8.176,8.176,0,0,1,.691-3.474,5.237,5.237,0,0,1,1.99-2.3,5.552,5.552,0,0,1,3.006-.812,5.822,5.822,0,0,1,3.952,1.294,5.113,5.113,0,0,1,1.7,3.567h-3.247a2.419,2.419,0,0,0-.622-1.772,2.556,2.556,0,0,0-1.781-.538,1.945,1.945,0,0,0-1.781.909,5.843,5.843,0,0,0-.594,2.9v.956a6.466,6.466,0,0,0,.543,3.089,1.986,1.986,0,0,0,1.869.928,2.5,2.5,0,0,0,1.716-.529,2.244,2.244,0,0,0,.631-1.679ZM197.691,0h-3.247V-13.508h3.247Zm13.7-6.476a7.966,7.966,0,0,1-.733,3.5,5.417,5.417,0,0,1-2.083,2.343A5.8,5.8,0,0,1,205.5.186a5.881,5.881,0,0,1-3.062-.793,5.408,5.408,0,0,1-2.083-2.268,7.736,7.736,0,0,1-.784-3.386v-.761a8,8,0,0,1,.728-3.5,5.4,5.4,0,0,1,2.087-2.343,5.84,5.84,0,0,1,3.094-.826,5.783,5.783,0,0,1,3.062.816,5.5,5.5,0,0,1,2.092,2.324,7.771,7.771,0,0,1,.756,3.456Zm-3.312-.566a5.68,5.68,0,0,0-.673-3.057,2.157,2.157,0,0,0-1.925-1.044q-2.449,0-2.588,3.674l-.009.993a5.842,5.842,0,0,0,.659,3.052A2.154,2.154,0,0,0,205.5-2.356,2.128,2.128,0,0,0,207.4-3.4a5.683,5.683,0,0,0,.677-3.015ZM224.354,0h-3.238l-4.787-8.405V0h-3.256V-13.508h3.256L221.107-5.1v-8.405h3.247Zm10.437-5.724H229.67V-2.5h6.049V0h-9.305V-13.508h9.324v2.514H229.67v2.848h5.121Zm9.222,2.134a1.338,1.338,0,0,0-.506-1.113,6.284,6.284,0,0,0-1.777-.826,17.044,17.044,0,0,1-2.078-.826q-2.625-1.29-2.625-3.544a3.178,3.178,0,0,1,.654-1.981,4.23,4.23,0,0,1,1.851-1.336,7.2,7.2,0,0,1,2.69-.478,6.3,6.3,0,0,1,2.612.52,4.135,4.135,0,0,1,1.8,1.48,3.864,3.864,0,0,1,.64,2.194h-3.247a1.633,1.633,0,0,0-.506-1.28,1.971,1.971,0,0,0-1.368-.455,2.223,2.223,0,0,0-1.378.385,1.181,1.181,0,0,0-.506.979,1.189,1.189,0,0,0,.557.942,7.02,7.02,0,0,0,1.958.872,11.991,11.991,0,0,1,2.3.969,3.866,3.866,0,0,1,2.189,3.479,3.3,3.3,0,0,1-1.336,2.783A5.942,5.942,0,0,1,242.269.186,7.27,7.27,0,0,1,239.3-.4a4.483,4.483,0,0,1-2-1.614,4.206,4.206,0,0,1-.673-2.361h3.266a2.072,2.072,0,0,0,.561,1.6,2.653,2.653,0,0,0,1.823.515,2.1,2.1,0,0,0,1.276-.348A1.148,1.148,0,0,0,244.013-3.59ZM264.3,0h-3.238l-4.787-8.405V0h-3.256V-13.508h3.256L261.055-5.1v-8.405H264.3Zm10.437-5.724h-5.121V-2.5h6.049V0h-9.305V-13.508h9.324v2.514h-6.067v2.848h5.121Zm13.183,1.15a4.933,4.933,0,0,1-.761,2.491,4.591,4.591,0,0,1-1.953,1.675,6.647,6.647,0,0,1-2.871.594,5.3,5.3,0,0,1-4.193-1.735,7.163,7.163,0,0,1-1.531-4.9v-.668a8.176,8.176,0,0,1,.691-3.474,5.237,5.237,0,0,1,1.99-2.3A5.552,5.552,0,0,1,282.3-13.7a5.822,5.822,0,0,1,3.952,1.294,5.114,5.114,0,0,1,1.7,3.567H284.7a2.419,2.419,0,0,0-.622-1.772,2.556,2.556,0,0,0-1.781-.538,1.945,1.945,0,0,0-1.781.909,5.843,5.843,0,0,0-.594,2.9v.956a6.466,6.466,0,0,0,.543,3.089,1.986,1.986,0,0,0,1.869.928,2.5,2.5,0,0,0,1.716-.529,2.244,2.244,0,0,0,.631-1.679Zm9.917-1.15h-5.121V-2.5h6.049V0h-9.305V-13.508h9.324v2.514h-6.067v2.848h5.121Zm9.222,2.134a1.338,1.338,0,0,0-.506-1.113,6.284,6.284,0,0,0-1.777-.826,17.045,17.045,0,0,1-2.078-.826q-2.626-1.29-2.625-3.544a3.178,3.178,0,0,1,.654-1.981,4.23,4.23,0,0,1,1.851-1.336,7.2,7.2,0,0,1,2.69-.478,6.3,6.3,0,0,1,2.612.52,4.135,4.135,0,0,1,1.8,1.48,3.864,3.864,0,0,1,.64,2.194H307.07a1.633,1.633,0,0,0-.506-1.28,1.971,1.971,0,0,0-1.368-.455,2.222,2.222,0,0,0-1.378.385,1.181,1.181,0,0,0-.506.979,1.189,1.189,0,0,0,.557.942,7.019,7.019,0,0,0,1.958.872,11.991,11.991,0,0,1,2.3.969,3.866,3.866,0,0,1,2.189,3.479,3.3,3.3,0,0,1-1.336,2.783A5.942,5.942,0,0,1,305.317.186,7.27,7.27,0,0,1,302.344-.4a4.483,4.483,0,0,1-2-1.614,4.206,4.206,0,0,1-.673-2.361h3.266a2.072,2.072,0,0,0,.561,1.6,2.653,2.653,0,0,0,1.823.515,2.1,2.1,0,0,0,1.276-.348A1.148,1.148,0,0,0,307.061-3.59Zm12.6,1.067H315.2L314.418,0h-3.479l4.954-13.508h3.062L323.946,0h-3.5Zm-3.683-2.514h2.9l-1.457-4.685Zm13.972.269h-1.763V0h-3.256V-13.508h5.316A5.929,5.929,0,0,1,334-12.441a3.617,3.617,0,0,1,1.354,3.015,4.394,4.394,0,0,1-.571,2.338A4.051,4.051,0,0,1,333-5.585l2.82,5.446V0h-3.488Zm-1.763-2.514h2.06a1.851,1.851,0,0,0,1.4-.487,1.88,1.88,0,0,0,.469-1.359,1.9,1.9,0,0,0-.473-1.368,1.834,1.834,0,0,0-1.392-.5h-2.06ZM340.793,0h-3.247V-13.508h3.247Zm10.1-2.523h-4.462L345.655,0h-3.479l4.954-13.508h3.062L355.183,0h-3.5Zm-3.683-2.514h2.9l-1.457-4.685Zm15.92,1.447a1.338,1.338,0,0,0-.506-1.113,6.284,6.284,0,0,0-1.777-.826,17.045,17.045,0,0,1-2.078-.826q-2.626-1.29-2.625-3.544a3.178,3.178,0,0,1,.654-1.981,4.23,4.23,0,0,1,1.851-1.336,7.2,7.2,0,0,1,2.69-.478,6.3,6.3,0,0,1,2.612.52,4.135,4.135,0,0,1,1.8,1.48,3.864,3.864,0,0,1,.64,2.194h-3.247a1.633,1.633,0,0,0-.506-1.28,1.971,1.971,0,0,0-1.368-.455,2.222,2.222,0,0,0-1.378.385,1.181,1.181,0,0,0-.506.979,1.189,1.189,0,0,0,.557.942,7.019,7.019,0,0,0,1.958.872,11.991,11.991,0,0,1,2.3.969,3.866,3.866,0,0,1,2.189,3.479,3.3,3.3,0,0,1-1.336,2.783A5.942,5.942,0,0,1,361.389.186,7.27,7.27,0,0,1,358.416-.4a4.483,4.483,0,0,1-2-1.614,4.206,4.206,0,0,1-.673-2.361H359a2.072,2.072,0,0,0,.561,1.6,2.653,2.653,0,0,0,1.823.515,2.1,2.1,0,0,0,1.276-.348A1.148,1.148,0,0,0,363.133-3.59Zm12.914-.993V0h-3.256V-13.508h5.39a6.278,6.278,0,0,1,2.741.571,4.3,4.3,0,0,1,1.846,1.624,4.434,4.434,0,0,1,.654,2.389,3.909,3.909,0,0,1-1.415,3.159,5.87,5.87,0,0,1-3.883,1.183Zm0-2.514h2.134a2.012,2.012,0,0,0,1.443-.473,1.758,1.758,0,0,0,.5-1.336,2.173,2.173,0,0,0-.51-1.512,1.807,1.807,0,0,0-1.392-.575h-2.171Zm15.131,4.574h-4.462L385.937,0h-3.479l4.954-13.508h3.062L395.465,0h-3.5ZM387.5-5.038h2.9l-1.457-4.685Zm13.972.269H399.7V0h-3.256V-13.508h5.316a5.929,5.929,0,0,1,3.757,1.067,3.617,3.617,0,0,1,1.354,3.015,4.394,4.394,0,0,1-.571,2.338,4.051,4.051,0,0,1-1.786,1.5l2.82,5.446V0h-3.488ZM399.7-7.283h2.06a1.851,1.851,0,0,0,1.4-.487,1.88,1.88,0,0,0,.469-1.359,1.9,1.9,0,0,0-.473-1.368,1.834,1.834,0,0,0-1.392-.5H399.7Zm16.811,4.759h-4.462L411.273,0h-3.479l4.954-13.508h3.062L420.8,0h-3.5Zm-3.683-2.514h2.9l-1.457-4.685ZM429.772-2.5h5.668V0h-8.925V-13.508h3.256Zm14.89-.019H440.2L439.421,0h-3.479L440.9-13.508h3.062L448.949,0h-3.5Zm-3.683-2.514h2.9l-1.457-4.685Zm21.356,2.514h-4.462L457.094,0h-3.479l4.954-13.508h3.062L466.622,0h-3.5Zm-3.683-2.514h2.9L460.1-9.723ZM477.1-10.994h-4.054V0h-3.256V-10.994h-3.98v-2.514H477.1Zm9.75,5.27h-5.121V-2.5h6.049V0h-9.305V-13.508h9.324v2.514h-6.067v2.848h5.121ZM500.382,0h-3.238l-4.787-8.405V0H489.1V-13.508h3.256L497.135-5.1v-8.405h3.247Zm12.988-4.574a4.933,4.933,0,0,1-.761,2.491,4.591,4.591,0,0,1-1.953,1.675,6.647,6.647,0,0,1-2.871.594,5.3,5.3,0,0,1-4.193-1.735,7.163,7.163,0,0,1-1.531-4.9v-.668a8.176,8.176,0,0,1,.691-3.474,5.237,5.237,0,0,1,1.99-2.3,5.552,5.552,0,0,1,3.006-.812,5.822,5.822,0,0,1,3.952,1.294,5.113,5.113,0,0,1,1.7,3.567h-3.247a2.419,2.419,0,0,0-.622-1.772,2.556,2.556,0,0,0-1.781-.538,1.945,1.945,0,0,0-1.781.909,5.843,5.843,0,0,0-.594,2.9v.956a6.466,6.466,0,0,0,.543,3.089,1.986,1.986,0,0,0,1.869.928,2.5,2.5,0,0,0,1.716-.529,2.244,2.244,0,0,0,.631-1.679ZM518.38,0h-3.247V-13.508h3.247Zm13.7-6.476a7.966,7.966,0,0,1-.733,3.5,5.417,5.417,0,0,1-2.083,2.343,5.8,5.8,0,0,1-3.075.821,5.881,5.881,0,0,1-3.062-.793,5.407,5.407,0,0,1-2.083-2.268,7.736,7.736,0,0,1-.784-3.386v-.761a8,8,0,0,1,.728-3.5,5.4,5.4,0,0,1,2.087-2.343,5.84,5.84,0,0,1,3.094-.826,5.783,5.783,0,0,1,3.062.816,5.5,5.5,0,0,1,2.092,2.324,7.771,7.771,0,0,1,.756,3.456Zm-3.312-.566A5.68,5.68,0,0,0,528.1-10.1a2.157,2.157,0,0,0-1.925-1.044q-2.449,0-2.588,3.674l-.009.993a5.842,5.842,0,0,0,.659,3.052,2.154,2.154,0,0,0,1.958,1.067,2.128,2.128,0,0,0,1.9-1.048,5.682,5.682,0,0,0,.677-3.015Zm-2.217-10.084h3.3l-2.579,2.913h-2.551ZM545.043,0h-3.238l-4.787-8.405V0h-3.256V-13.508h3.256L541.8-5.1v-8.405h3.247ZM555.3,0h-3.247V-13.508H555.3Zm13.545,0h-3.238l-4.787-8.405V0h-3.256V-13.508h3.256L565.6-5.1v-8.405h3.247Zm12.395-10.994h-4.054V0h-3.256V-10.994h-3.98v-2.514h11.291Zm9.75,5.27h-5.121V-2.5h6.049V0h-9.305V-13.508h9.324v2.514h-6.067v2.848h5.121ZM604.307-1.67a5.236,5.236,0,0,1-2.2,1.345,9.483,9.483,0,0,1-3.173.51,5.657,5.657,0,0,1-4.24-1.624A6.572,6.572,0,0,1,593-5.956l-.009-1.169a8.061,8.061,0,0,1,.705-3.484,5.235,5.235,0,0,1,2.018-2.292,5.708,5.708,0,0,1,3.038-.8,5.984,5.984,0,0,1,3.92,1.155A4.894,4.894,0,0,1,604.3-9.1h-3.136a2.561,2.561,0,0,0-.724-1.614,2.335,2.335,0,0,0-1.577-.482,2.125,2.125,0,0,0-1.893,1.039,5.548,5.548,0,0,0-.677,2.969v.816a5.431,5.431,0,0,0,.691,3.038,2.445,2.445,0,0,0,2.176,1.016,2.736,2.736,0,0,0,1.893-.566v-2.1h-2.264V-7.218h5.52Zm6.912-3.1h-1.763V0H606.2V-13.508h5.316a5.929,5.929,0,0,1,3.757,1.067,3.617,3.617,0,0,1,1.354,3.015,4.394,4.394,0,0,1-.571,2.338,4.05,4.05,0,0,1-1.786,1.5l2.82,5.446V0H613.6Zm-1.763-2.514h2.06a1.851,1.851,0,0,0,1.4-.487,1.88,1.88,0,0,0,.469-1.359,1.9,1.9,0,0,0-.473-1.368,1.834,1.834,0,0,0-1.392-.5h-2.06Zm16.811,4.759H621.8L621.025,0h-3.479L622.5-13.508h3.062L630.553,0h-3.5Zm-3.683-2.514h2.9l-1.457-4.685ZM634.792-2.5h5.668V0h-8.925V-13.508h3.256Zm20.15-3.219h-5.121V-2.5h6.049V0h-9.305V-13.508h9.324v2.514h-6.067v2.848h5.121ZM668.479,0h-3.238l-4.787-8.405V0H657.2V-13.508h3.256L665.231-5.1v-8.405h3.247Zm13.758-3.59a1.338,1.338,0,0,0-.506-1.113,6.284,6.284,0,0,0-1.777-.826,17.043,17.043,0,0,1-2.078-.826q-2.625-1.29-2.625-3.544a3.178,3.178,0,0,1,.654-1.981,4.23,4.23,0,0,1,1.851-1.336,7.2,7.2,0,0,1,2.69-.478,6.3,6.3,0,0,1,2.612.52,4.135,4.135,0,0,1,1.8,1.48,3.864,3.864,0,0,1,.64,2.194h-3.247a1.633,1.633,0,0,0-.506-1.28,1.971,1.971,0,0,0-1.368-.455,2.223,2.223,0,0,0-1.378.385,1.181,1.181,0,0,0-.506.979,1.189,1.189,0,0,0,.557.942A7.02,7.02,0,0,0,681-8.057a11.991,11.991,0,0,1,2.3.969,3.866,3.866,0,0,1,2.189,3.479,3.3,3.3,0,0,1-1.336,2.783A5.942,5.942,0,0,1,680.493.186,7.27,7.27,0,0,1,677.519-.4a4.483,4.483,0,0,1-2-1.614,4.206,4.206,0,0,1-.673-2.361h3.266a2.072,2.072,0,0,0,.561,1.6,2.653,2.653,0,0,0,1.823.515,2.1,2.1,0,0,0,1.276-.348A1.148,1.148,0,0,0,682.237-3.59Zm12.6,1.067h-4.462L689.594,0h-3.479l4.954-13.508h3.062L699.122,0h-3.5Zm-3.683-2.514h2.9L692.6-9.723ZM703.361-2.5h5.668V0H700.1V-13.508h3.256Zm17.414-11v8.841a5.081,5.081,0,0,1-.64,2.6A4.147,4.147,0,0,1,718.3-.39a6.471,6.471,0,0,1-2.83.575,5.59,5.59,0,0,1-3.887-1.28A4.566,4.566,0,0,1,710.134-4.6v-8.906h3.275v8.971q.056,2.217,2.06,2.217A1.994,1.994,0,0,0,717-2.876a2.6,2.6,0,0,0,.52-1.809v-8.823ZM722.807,0V-13.508h4.351a6.4,6.4,0,0,1,3.219.812,5.706,5.706,0,0,1,2.231,2.292,6.919,6.919,0,0,1,.812,3.317v.622a6.958,6.958,0,0,1-.784,3.326,5.731,5.731,0,0,1-2.208,2.3A6.26,6.26,0,0,1,727.25,0Zm3.256-10.994V-2.5h1.132a2.533,2.533,0,0,0,2.152-1,4.887,4.887,0,0,0,.751-2.964v-.584a4.847,4.847,0,0,0-.751-2.95,2.577,2.577,0,0,0-2.189-.993Z" transform="translate(307 989)" fill="#fff"/>
  </g>
</svg>
