<svg xmlns="http://www.w3.org/2000/svg" width="368" height="267.53" viewBox="0 0 368 267.53">
  <g id="Grupo_23633" data-name="Grupo 23633" transform="translate(-78.07 -39.862)">
    <g id="Grupo_23521" data-name="Grupo 23521" transform="translate(78.07 39.862)">
      <path id="Trazado_9170" data-name="Trazado 9170" d="M177.011,297.409c57.528,14.434,151.571,16.046,215.044-14.339,58.632-28.063,70.7-131.242,30.461-189.767-28.6-41.59-83.383-58.182-135.918-52.287-61.989,6.954-78.434,49.819-119.568,80.617-25.595,19.161-77.87,14.447-87.742,70.357C68.045,255.711,137.292,287.441,177.011,297.409Z" transform="translate(-78.07 -39.862)" fill="#ffe5ef"/>
    </g>
    <g id="Grupo_23623" data-name="Grupo 23623" transform="translate(148.288 82.185)">
      <g id="Grupo_23589" data-name="Grupo 23589" transform="translate(0 29.758)">
        <g id="Grupo_23547" data-name="Grupo 23547" transform="translate(0 7.119)">
          <g id="Grupo_23527" data-name="Grupo 23527" transform="translate(0.247 112.43)">
            <g id="Grupo_23525" data-name="Grupo 23525" transform="translate(0 9.492)">
              <rect id="Rectángulo_5589" data-name="Rectángulo 5589" width="46.742" height="4.346" transform="translate(4.283 43.303)" fill="#326894"/>
              <g id="Grupo_23522" data-name="Grupo 23522" transform="translate(0 0.467)">
                <path id="Trazado_9171" data-name="Trazado 9171" d="M201.414,360.184a2.886,2.886,0,0,1-.025.33l-.723,5.99L194.2,419.869a2.545,2.545,0,0,1-2.836,2.265,2.589,2.589,0,0,1-2.233-2.582,2.892,2.892,0,0,1,.025-.33l6.383-52.719.8-6.63a2.545,2.545,0,0,1,5.076.311Z" transform="translate(-189.13 -357.586)" fill="#4d8ab3"/>
                <path id="Trazado_9172" data-name="Trazado 9172" d="M205.109,360.184a2.886,2.886,0,0,1-.025.33l-.723,5.99h-5.12l.8-6.63a2.542,2.542,0,0,1,5.07.311Z" transform="translate(-192.825 -357.586)" fill="#326894"/>
              </g>
              <g id="Grupo_23523" data-name="Grupo 23523" transform="translate(25.747)">
                <path id="Trazado_9173" data-name="Trazado 9173" d="M234.806,359.464V419.27a2.569,2.569,0,0,1-2.538,2.608,2.5,2.5,0,0,1-1.8-.768,2.63,2.63,0,0,1-.742-1.846V359.458a2.573,2.573,0,0,1,2.538-2.608,2.476,2.476,0,0,1,1.8.768A2.665,2.665,0,0,1,234.806,359.464Z" transform="translate(-229.717 -356.85)" fill="#4d8ab3"/>
                <path id="Trazado_9174" data-name="Trazado 9174" d="M234.05,357.631a2.614,2.614,0,0,1,.742,1.846v6.764H229.71v-6.764a2.573,2.573,0,0,1,2.538-2.608A2.45,2.45,0,0,1,234.05,357.631Z" transform="translate(-229.71 -356.857)" fill="#326894"/>
              </g>
              <g id="Grupo_23524" data-name="Grupo 23524" transform="translate(44.103 0.456)">
                <path id="Trazado_9175" data-name="Trazado 9175" d="M270.917,419.533a2.581,2.581,0,0,1-2.227,2.589,2.554,2.554,0,0,1-2.836-2.265l-6.465-53.366-.723-5.99a2.892,2.892,0,0,1-.025-.33,2.594,2.594,0,0,1,2.233-2.582,2.557,2.557,0,0,1,2.836,2.265l.8,6.63,6.383,52.719A2.028,2.028,0,0,1,270.917,419.533Z" transform="translate(-258.64 -357.568)" fill="#4d8ab3"/>
                <path id="Trazado_9176" data-name="Trazado 9176" d="M264.519,366.49H259.4l-.723-5.99a2.885,2.885,0,0,1-.025-.33,2.594,2.594,0,0,1,2.233-2.582,2.557,2.557,0,0,1,2.836,2.265Z" transform="translate(-258.644 -357.568)" fill="#326894"/>
              </g>
            </g>
            <g id="Grupo_23526" data-name="Grupo 23526" transform="translate(2.29)">
              <path id="Trazado_9177" data-name="Trazado 9177" d="M251.455,347.251v1.694a5.359,5.359,0,0,1-5.361,5.361H198.1a5.359,5.359,0,0,1-5.361-5.361v-1.694a5.359,5.359,0,0,1,5.361-5.361h47.992A5.355,5.355,0,0,1,251.455,347.251Z" transform="translate(-192.74 -341.89)" fill="#994403"/>
              <path id="Trazado_9178" data-name="Trazado 9178" d="M254.006,347.251v1.694a5.359,5.359,0,0,1-5.361,5.361H205.081a5.359,5.359,0,0,1-5.361-5.361v-1.694a5.359,5.359,0,0,1,5.361-5.361h43.563A5.355,5.355,0,0,1,254.006,347.251Z" transform="translate(-195.291 -341.89)" fill="#852e03"/>
            </g>
          </g>
          <g id="Grupo_23546" data-name="Grupo 23546">
            <path id="Trazado_9179" data-name="Trazado 9179" d="M199.875,178.463c-.6,1.231-1.212,2.468-1.751,3.655a26.669,26.669,0,0,0,0,6.44,18.291,18.291,0,0,1-.362,6.415,7.187,7.187,0,0,1-4.073,4.822c-1.345.514-2.95.552-3.991,1.529-1.18,1.11-1.1,2.976-.666,4.511a7.01,7.01,0,0,0,1.954,3.464c1.021.895,2.665,1.478,3.781.831a2.73,2.73,0,0,1,3.369.8c.8.977,1.174,2.24,1.961,3.23a6.358,6.358,0,0,0,4.822,2.183,9.71,9.71,0,0,0,5.012-.977c2.62-1.643,5.888-2.735,8.572-1.193,1.415.812,2.532,2.106,4.061,2.69a4.989,4.989,0,0,0,4.042-.247c1.225-.647,1.694-2.03,2.462-3.09,1.409-1.942,4.822-.374,7.182-1.015a5.18,5.18,0,0,0,3.636-5.945c-.59-2.481-3.337-3.363-5.786-3.731-1.681-.254-2.373-2.392-2.76-3.991a17.755,17.755,0,0,1-.247-4.924c.146-3.356,1.675-11.186.7-12.239a16.251,16.251,0,0,0-3.1-2.259q-4.778-2.179-9.555-4.365c-2.9-1.326-5.939-2.677-9.143-2.589C206.8,172.537,202.172,173.787,199.875,178.463Z" transform="translate(-188.74 -167.531)" fill="#732d02"/>
            <g id="Grupo_23529" data-name="Grupo 23529" transform="translate(6.366 32.98)">
              <path id="Trazado_9180" data-name="Trazado 9180" d="M214.583,229.55s-14.136,2.233-15.634,7.239,7.087,40.036,7.087,40.036l31.762-1.942s2.31-40.378-2.741-42.91S214.583,229.55,214.583,229.55Z" transform="translate(-198.774 -221.377)" fill="#ebf5ff"/>
              <g id="Grupo_23528" data-name="Grupo 23528" transform="translate(10.41)">
                <path id="Trazado_9181" data-name="Trazado 9181" d="M232.907,226.232s-2.062,7.024-5.805,8.559-11.922-7.829-11.922-7.829c1.65-1.047,2.271-3.566,2.474-5.863a25.55,25.55,0,0,0-.025-4.429l11.357,2.183c-.292,3.515.742,5.361,1.827,6.332A4.147,4.147,0,0,0,232.907,226.232Z" transform="translate(-215.18 -216.67)" fill="#fbbd9a"/>
                <path id="Trazado_9182" data-name="Trazado 9182" d="M232.224,225.195c-5.393.711-10.279-1.992-13.159-4.086a25.549,25.549,0,0,0-.025-4.429l11.357,2.183C230.1,222.371,231.14,224.224,232.224,225.195Z" transform="translate(-216.591 -216.674)" fill="#f0997f"/>
              </g>
            </g>
            <g id="Grupo_23536" data-name="Grupo 23536" transform="translate(6.967 82.901)">
              <g id="Grupo_23531" data-name="Grupo 23531" transform="translate(24.161 6.58)">
                <g id="Grupo_23530" data-name="Grupo 23530" transform="translate(11.655 63.093)">
                  <path id="Trazado_9183" data-name="Trazado 9183" d="M278.65,426.831c-1.225,2.037-22.48-11.065-22.48-13.324,0-1.472,2.773-3.6,4.7-4.9,1.034-.7,1.821-1.161,1.821-1.161l4.962-2.278,2.233,1.2a123.4,123.4,0,0,1,7.918,15.519C278.732,424.287,279.106,426.076,278.65,426.831Z" transform="translate(-256.17 -405.164)" fill="#d43226"/>
                  <path id="Trazado_9184" data-name="Trazado 9184" d="M280.524,421.879c-6.091.254-14.143-9.6-16.934-13.28,1.034-.7,1.821-1.161,1.821-1.161l4.962-2.278,2.233,1.2A122.556,122.556,0,0,1,280.524,421.879Z" transform="translate(-258.882 -405.16)" fill="#f0997f"/>
                </g>
                <path id="Trazado_9185" data-name="Trazado 9185" d="M250.064,305.72s38.691,4.9,40,14.8S265.8,374.13,265.8,374.13l-9.2-2.4,12-39.071-30.8-13.07,6.135-13.87Z" transform="translate(-237.8 -305.72)" fill="#002a42"/>
              </g>
              <g id="Grupo_23535" data-name="Grupo 23535">
                <g id="Grupo_23532" data-name="Grupo 23532" transform="translate(26.413 70.802)">
                  <path id="Trazado_9186" data-name="Trazado 9186" d="M263.83,428.611c-1.225,2.037-22.48-11.065-22.48-13.324,0-1.472,2.773-3.6,4.7-4.9,1.034-.7,1.821-1.161,1.821-1.161l4.962-2.278,2.233,1.2a123.412,123.412,0,0,1,7.918,15.519C263.912,426.067,264.286,427.856,263.83,428.611Z" transform="translate(-241.35 -406.944)" fill="#eb4a2a"/>
                  <path id="Trazado_9187" data-name="Trazado 9187" d="M265.7,423.659c-6.091.254-14.143-9.6-16.934-13.28,1.034-.7,1.821-1.161,1.821-1.161l4.962-2.278,2.233,1.2A122.556,122.556,0,0,1,265.7,423.659Z" transform="translate(-244.062 -406.94)" fill="#fbbd9a"/>
                </g>
                <g id="Grupo_23534" data-name="Grupo 23534">
                  <path id="Trazado_9188" data-name="Trazado 9188" d="M203.514,298.611s-13.407,26.509,10.183,29.37c17.137,2.081,28.494,1.662,28.85,2.614.584,1.529-11.148,38.545-11.148,38.545l11.554,3.655s23.914-51.361,22.613-55.834c-1.072-3.68-34.072-9.3-34.072-9.3,2.779-1.32,4.822-6.123,4.524-12.315Z" transform="translate(-199.72 -295.35)" fill="#06384f"/>
                  <g id="Grupo_23533" data-name="Grupo 23533" transform="translate(3.59 0.964)">
                    <path id="Trazado_9189" data-name="Trazado 9189" d="M209.3,296.87s-7.69,16.922-1.535,23.787c7.252,8.09,38.97,5.482,41.178,8.343,1.77,2.29-12.252,39.706-12.252,39.706" transform="translate(-205.378 -296.87)" fill="none" stroke="#27788f" stroke-linecap="round" stroke-miterlimit="10" stroke-width="1"/>
                    <line id="Línea_109" data-name="Línea 109" x2="11.18" y2="3.407" transform="translate(29.023 71.271)" fill="none" stroke="#27788f" stroke-linecap="round" stroke-miterlimit="10" stroke-width="1"/>
                  </g>
                </g>
              </g>
            </g>
            <g id="Grupo_23540" data-name="Grupo 23540" transform="translate(6.705)">
              <path id="Trazado_9190" data-name="Trazado 9190" d="M249.06,197.43c2.726-.309,5.12,1.055,5.345,3.047s-1.8,3.856-4.528,4.165-5.119-1.055-5.345-3.047S246.334,197.739,249.06,197.43Z" transform="translate(-215.832 -176.641)" fill="#f0997f"/>
              <g id="Grupo_23537" data-name="Grupo 23537" transform="translate(6.238 3.591)">
                <path id="Trazado_9191" data-name="Trazado 9191" d="M209.14,187.386c0-9.409,5.977-17.036,14-17.036s14.536,7.626,14.536,17.036-4.105,17.505-11.662,17.8C218.4,205.475,209.14,196.789,209.14,187.386Z" transform="translate(-209.14 -170.35)" fill="#fbbd9a"/>
                <path id="Trazado_9192" data-name="Trazado 9192" d="M210.37,190.537a16.942,16.942,0,0,0,8.851-9.314,14.41,14.41,0,0,0,8.223,4.264,43.613,43.613,0,0,0,9.232.387,5.582,5.582,0,0,1,1.865,3.217,18.942,18.942,0,0,0-.869-8.331q-11.992-3.655-23.837-7.76C212.654,178.628,211.474,184.256,210.37,190.537Z" transform="translate(-209.59 -171.319)" fill="#f0997f"/>
              </g>
              <g id="Grupo_23538" data-name="Grupo 23538" transform="translate(2.504)">
                <path id="Trazado_9193" data-name="Trazado 9193" d="M221.345,173.877c1.719,3.242,5.044,5.4,8.54,6.516a39.787,39.787,0,0,0,10.932,1.4,24.647,24.647,0,0,1,.7,6.529,22.7,22.7,0,0,0,2.062-7.963c.032-.711.032-1.434.013-2.2a12.535,12.535,0,0,0-5.2-10.329,16.28,16.28,0,0,0-10.044-3.147c-3.585,0-5.863.812-7.227,2.227a5.474,5.474,0,0,0-1.117,1.713C219.422,170,220.076,171.492,221.345,173.877Z" transform="translate(-209.298 -164.69)" fill="#8c4206"/>
                <path id="Trazado_9194" data-name="Trazado 9194" d="M203.347,190.237c-.121-4.6-.412-12.474,1.44-16.236a8.566,8.566,0,0,1,6.224-4.879c2.722-.362,5.729,1.32,6.357,3.991a32.027,32.027,0,0,1-8.705,16.3A8.776,8.776,0,0,1,203.347,190.237Z" transform="translate(-203.254 -166.292)" fill="#8c4206"/>
                <path id="Trazado_9195" data-name="Trazado 9195" d="M221.88,166.927a18.22,18.22,0,0,1,15.494,3.122,19.989,19.989,0,0,1,6.973,10.323c.032-.711.032-1.434.013-2.2a12.535,12.535,0,0,0-5.2-10.329,16.28,16.28,0,0,0-10.044-3.147C225.522,164.7,223.244,165.512,221.88,166.927Z" transform="translate(-210.062 -164.694)" fill="#a66317"/>
              </g>
              <ellipse id="Elipse_1308" data-name="Elipse 1308" cx="3.629" cy="4.968" rx="3.629" ry="4.968" transform="matrix(0.248, -0.969, 0.969, 0.248, 0, 27.606)" fill="#fbbd9a"/>
              <g id="Grupo_23539" data-name="Grupo 23539" transform="translate(16.193 19.215)">
                <ellipse id="Elipse_1309" data-name="Elipse 1309" cx="0.755" cy="1.206" rx="0.755" ry="1.206" transform="translate(3.832 4.902)" fill="#2f344d"/>
                <ellipse id="Elipse_1310" data-name="Elipse 1310" cx="0.755" cy="1.206" rx="0.755" ry="1.206" transform="translate(14.333 4.908)" fill="#2f344d"/>
                <path id="Trazado_9196" data-name="Trazado 9196" d="M245.13,195.6a5.277,5.277,0,0,1,4.41.533" transform="translate(-232.25 -195.111)" fill="none" stroke="#8c4206" stroke-linecap="round" stroke-miterlimit="10" stroke-width="2"/>
                <path id="Trazado_9197" data-name="Trazado 9197" d="M230.064,195.333c-1.415-.628-4.01-.495-5.234.9" transform="translate(-224.83 -194.974)" fill="none" stroke="#8c4206" stroke-linecap="round" stroke-miterlimit="10" stroke-width="2"/>
                <path id="Trazado_9198" data-name="Trazado 9198" d="M240.344,203.45a6.638,6.638,0,0,1-.324,3.877" transform="translate(-230.382 -198.072)" fill="none" stroke="#d45e4e" stroke-linecap="round" stroke-miterlimit="10" stroke-width="2"/>
                <path id="Trazado_9199" data-name="Trazado 9199" d="M235.913,214.274c-1.675.33-4.708-.628-5.533-2.024" transform="translate(-226.859 -201.289)" fill="none" stroke="#d45e4e" stroke-linecap="round" stroke-miterlimit="10" stroke-width="2"/>
              </g>
            </g>
            <g id="Grupo_23543" data-name="Grupo 23543" transform="translate(32.586 41.514)">
              <g id="Grupo_23542" data-name="Grupo 23542" transform="translate(5.052 0.717)">
                <path id="Trazado_9200" data-name="Trazado 9200" d="M248.61,236.51l5.666-3.42s4.778.406,8.013,6.351c3.217,5.913,9.276,25.03,11.186,25.874s25.189,1.142,25.189,1.142l.317,6.821s-28.513,4.524-31.914,2.652-14.409-23.92-14.409-23.92Z" transform="translate(-248.261 -231.923)" fill="#fbbd9a"/>
                <path id="Trazado_9201" data-name="Trazado 9201" d="M248.06,235.07l1.091-3.82s6.256.267,9.454,2.773,5.818,9.321,5.818,9.321l-8.134,13.134Z" transform="translate(-248.06 -231.25)" fill="#f89abe"/>
                <path id="Trazado_9202" data-name="Trazado 9202" d="M263.27,273.316s8.737-7.544,10.082-9.428c.666-.933,5.393,10.05,4.594,11.4-1.275,2.145-9.238,7.3-9.682,7S263.27,273.316,263.27,273.316Z" transform="translate(-253.62 -243.159)" fill="#163649"/>
                <path id="Trazado_9203" data-name="Trazado 9203" d="M259.4,260.278q3.95-6.272,7.893-12.537a1.994,1.994,0,0,1,.527-.622,1.369,1.369,0,0,1,1.872.838,3.891,3.891,0,0,1-.127,2.322,1.665,1.665,0,0,1,1.707,1.535,4.221,4.221,0,0,1-.66,2.436,22.741,22.741,0,0,1-11.344,10.31C259.042,263.127,258.6,261.535,259.4,260.278Z" transform="translate(-252.038 -236.993)" fill="#f579a8"/>
                <g id="Grupo_23541" data-name="Grupo 23541" transform="translate(46.806 28.386)">
                  <path id="Trazado_9204" data-name="Trazado 9204" d="M321.83,283.2c3.261-2.29,9.568-6.833,10.044-7.049a17.184,17.184,0,0,1,6.478.355,7.181,7.181,0,0,1,4.784,4.124c.209.577.266,1.345-.241,1.681a1.085,1.085,0,0,1-1.129-.057,4.243,4.243,0,0,1-.869-.818,6.317,6.317,0,0,0-4.949-2.24,6.233,6.233,0,0,1,5.253,4.727c.159.527.222,1.193-.2,1.535a1.063,1.063,0,0,1-1.206-.038,4.146,4.146,0,0,1-.882-.939,9.249,9.249,0,0,0-3.82-2.861,6.769,6.769,0,0,1,3.959,5.152,1.843,1.843,0,0,1-.057.983.762.762,0,0,1-.774.495,1.156,1.156,0,0,1-.609-.438,16.1,16.1,0,0,0-3.521-3.547c1.37,1.827,2.525,4.8,2.24,5.571-.089.235-.673.641-1.326-.006-.742-.742-1.263-2.011-2.417-3.426a8.51,8.51,0,0,1-8.039,2.576C323.613,287.03,322.7,285.069,321.83,283.2Z" transform="translate(-321.83 -275.989)" fill="#fbbd9a"/>
                  <path id="Trazado_9205" data-name="Trazado 9205" d="M331.16,281.491a66.652,66.652,0,0,1,7.074-2.113,2.812,2.812,0,0,1,.971-.114,1,1,0,0,1,.793.5.964.964,0,0,1-.146.952,2.557,2.557,0,0,1-.774.647,32.627,32.627,0,0,1-3.211,1.7,4.68,4.68,0,0,1-3.1,3.756" transform="translate(-325.24 -277.183)" fill="#fbbd9a" stroke="#d45e4e" stroke-linecap="round" stroke-miterlimit="10" stroke-width="1"/>
                </g>
              </g>
              <path id="Trazado_9206" data-name="Trazado 9206" d="M240.112,230.222c1.358,1.18,2.24,7.829,2.938,12.055,1.047,6.332,6.377,33.862,6.694,35.81.565,3.439,11.452,3.2,11.89,1.409.082-.33-3.179-1.846-3.7-4.042-.463-1.967-4.08-40.3-5.825-42.313C249.807,230.475,239.674,229.841,240.112,230.222Z" transform="translate(-240.098 -230.121)" fill="#f579a8"/>
            </g>
            <g id="Grupo_23545" data-name="Grupo 23545" transform="translate(2.532 41.613)">
              <path id="Trazado_9207" data-name="Trazado 9207" d="M208.789,230.279c1.136.406,4.7,7.982,6.4,14.917,3.54,14.485,1.434,35.994,0,38.836s-15.329,4.092-17.689,3.337c-1.37-.438-2.862-43.8-1.916-49.242C196.213,234.5,208.446,230.158,208.789,230.279Z" transform="translate(-193.663 -230.276)" fill="#f579a8"/>
              <path id="Trazado_9208" data-name="Trazado 9208" d="M248.989,304.782c2.931-1.072,11.414-3.306,12.588-3.185a4.382,4.382,0,0,1,3.147,1.535,6.711,6.711,0,0,1,.933,2.221l1.085,3.807a3.36,3.36,0,0,1,.19,1.364,1.033,1.033,0,0,1-.812.945c-.609.051-.99-.679-1.212-1.294-.571-1.58-1.142-3.16-1.707-4.708.374,1.948.742,3.9,1.117,5.85a3.356,3.356,0,0,1,.07,1.4,1.039,1.039,0,0,1-.9.876c-.647-.013-.958-.844-1.1-1.529a42.122,42.122,0,0,0-1.155-4.562,13.019,13.019,0,0,1,.279,6.694,1.975,1.975,0,0,1-.406.933.641.641,0,0,1-.876.1,1.122,1.122,0,0,1-.247-.723c-.2-1.967-.393-3.94-.59-5.907a16.658,16.658,0,0,1-.209,6.2,2.028,2.028,0,0,1-.5.952.729.729,0,0,1-.945.089,1.315,1.315,0,0,1-.3-.977c-.044-1.237-.089-2.474-.1-3.921a6.994,6.994,0,0,1-4.194,2.373,10.731,10.731,0,0,1-4.828-.622C248.45,310.385,248.583,308.075,248.989,304.782Z" transform="translate(-213.046 -256.344)" fill="#fbbd9a"/>
              <path id="Trazado_9209" data-name="Trazado 9209" d="M206.974,245.178c-.888-4.105-4.568-10.761-7.569-9.384-1.719.793-6.675,2.449-6.675,13.305,0,14.676,1.929,33.957,6.675,37.187,2.411,1.643,28.78,3.255,28.78,3.255l1.929-9.447s-19.434-3.6-20.329-6.269C208.522,270.062,209.334,256.1,206.974,245.178Z" transform="translate(-192.73 -232.226)" fill="#f579a8"/>
              <g id="Grupo_23544" data-name="Grupo 23544" transform="translate(2.925 10.7)">
                <path id="Trazado_9210" data-name="Trazado 9210" d="M211.56,247.14c3.261,11.027,3.946,29.789,4.429,30.918.438,1.028,2.919,1.459,4.866,2.126" transform="translate(-202.538 -247.14)" fill="none" stroke="#b82621" stroke-linecap="round" stroke-miterlimit="10" stroke-width="1"/>
                <path id="Trazado_9211" data-name="Trazado 9211" d="M210.087,312.395c-3.617-.362-8.109-1.066-9.111-1.815-1.18-.882-2.62-5.2-3.636-8.14" transform="translate(-197.34 -267.353)" fill="none" stroke="#b82621" stroke-linecap="round" stroke-miterlimit="10" stroke-width="1"/>
                <path id="Trazado_9212" data-name="Trazado 9212" d="M216.6,271.5c1.3-1.631,1.834-4.333,1.942-7.626" transform="translate(-204.38 -253.255)" fill="none" stroke="#b82621" stroke-linecap="round" stroke-miterlimit="10" stroke-width="1"/>
              </g>
            </g>
          </g>
        </g>
        <g id="Grupo_23588" data-name="Grupo 23588" transform="translate(60.098)">
          <g id="Grupo_23585" data-name="Grupo 23585" transform="translate(24.787)">
            <g id="Grupo_23553" data-name="Grupo 23553" transform="translate(24.804 119.549)">
              <g id="Grupo_23551" data-name="Grupo 23551" transform="translate(0 9.498)">
                <rect id="Rectángulo_5590" data-name="Rectángulo 5590" width="46.742" height="4.232" transform="translate(4.276 42.168)" fill="#326894"/>
                <g id="Grupo_23548" data-name="Grupo 23548" transform="translate(0 0.436)">
                  <path id="Trazado_9213" data-name="Trazado 9213" d="M373.9,360.087a2.791,2.791,0,0,1-.025.324l-.723,5.831-6.465,51.97a2.545,2.545,0,0,1-5.069-.3,2.777,2.777,0,0,1,.025-.324l6.383-51.348.8-6.459a2.548,2.548,0,0,1,5.076.311Z" transform="translate(-361.62 -357.548)" fill="#4d8ab3"/>
                  <path id="Trazado_9214" data-name="Trazado 9214" d="M377.6,360.091a2.784,2.784,0,0,1-.025.324l-.723,5.831h-5.12l.8-6.459a2.545,2.545,0,0,1,5.07.3Z" transform="translate(-365.315 -357.551)" fill="#326894"/>
                </g>
                <g id="Grupo_23549" data-name="Grupo 23549" transform="translate(25.747)">
                  <path id="Trazado_9215" data-name="Trazado 9215" d="M407.286,359.4v58.245a2.538,2.538,0,1,1-5.076,0V359.4a2.537,2.537,0,0,1,2.538-2.538,2.535,2.535,0,0,1,2.538,2.538Z" transform="translate(-402.204 -356.86)" fill="#4d8ab3"/>
                  <path id="Trazado_9216" data-name="Trazado 9216" d="M406.54,357.6a2.516,2.516,0,0,1,.742,1.8v6.592H402.2V359.4a2.544,2.544,0,0,1,4.34-1.8Z" transform="translate(-402.2 -356.86)" fill="#326894"/>
                </g>
                <g id="Grupo_23550" data-name="Grupo 23550" transform="translate(44.103 0.443)">
                  <path id="Trazado_9217" data-name="Trazado 9217" d="M443.407,417.908a2.541,2.541,0,0,1-5.063.317l-6.465-51.97-.723-5.831a2.773,2.773,0,0,1-.025-.324,2.545,2.545,0,0,1,5.069-.3l.8,6.459,6.383,51.348A1.645,1.645,0,0,1,443.407,417.908Z" transform="translate(-431.13 -357.561)" fill="#4d8ab3"/>
                  <path id="Trazado_9218" data-name="Trazado 9218" d="M437.009,366.245h-5.12l-.723-5.831a2.784,2.784,0,0,1-.025-.324,2.545,2.545,0,0,1,5.07-.3Z" transform="translate(-431.134 -357.558)" fill="#326894"/>
                </g>
              </g>
              <g id="Grupo_23552" data-name="Grupo 23552" transform="translate(2.29)">
                <path id="Trazado_9219" data-name="Trazado 9219" d="M423.945,347.251v1.694a5.359,5.359,0,0,1-5.361,5.361H370.591a5.359,5.359,0,0,1-5.361-5.361v-1.694a5.359,5.359,0,0,1,5.361-5.361h47.992A5.355,5.355,0,0,1,423.945,347.251Z" transform="translate(-365.23 -341.89)" fill="#994403"/>
                <path id="Trazado_9220" data-name="Trazado 9220" d="M426.5,347.251v1.694a5.359,5.359,0,0,1-5.361,5.361H377.581a5.359,5.359,0,0,1-5.361-5.361v-1.694a5.359,5.359,0,0,1,5.361-5.361h43.557A5.355,5.355,0,0,1,426.5,347.251Z" transform="translate(-367.785 -341.89)" fill="#852e03"/>
              </g>
            </g>
            <g id="Grupo_23560" data-name="Grupo 23560" transform="translate(10.772 37.187)">
              <g id="Grupo_23559" data-name="Grupo 23559">
                <g id="Grupo_23555" data-name="Grupo 23555">
                  <g id="Grupo_23554" data-name="Grupo 23554">
                    <path id="Trazado_9221" data-name="Trazado 9221" d="M351.684,223.164c.964-1.58.025-3.636.33-5.463a2.158,2.158,0,0,1,.7-1.345,1.1,1.1,0,0,1,1.415-.006c.451.438.3,1.174.292,1.8a15.361,15.361,0,0,0,.761,3.28c.571,2.677-.85,4.879-2.208,7.189a13.219,13.219,0,0,1-5.437,2.151c-.9.089-5.514-2.455-7.316-7.925-.907-2.741-.8-3.877-.495-4.251a.985.985,0,0,1,1.288-.26,1.455,1.455,0,0,1,.438.736c.577,1.643,1.148,3.287,1.713,4.993a10.567,10.567,0,0,1-3.293-8.217c.032-.584.209-1.288.768-1.459a1.051,1.051,0,0,1,1.022.317,3.2,3.2,0,0,1,.59.952c.8,1.732,1.605,3.458,2.728,5.514a8,8,0,0,1-2.183-7.709c.121-.457.393-.99.869-1s.768.527.939.983q1.218,3.264,2.436,6.535a9.253,9.253,0,0,1-1.37-6.167c.1-.774.495-1.707,1.282-1.738a1.294,1.294,0,0,1,1.091.666,4.32,4.32,0,0,1,.438,1.263C349.089,216.5,350.193,218.856,351.684,223.164Z" transform="translate(-339.505 -212.079)" fill="#fdbd9b"/>
                    <path id="Trazado_9222" data-name="Trazado 9222" d="M340.62,221.995c.723-.2,1.231.057,1.51,1.1.393,1.478,1.44,4.9,2.519,5.666" transform="translate(-339.912 -215.681)" fill="none" stroke="#b0514a" stroke-linecap="round" stroke-miterlimit="10" stroke-width="0.5"/>
                  </g>
                  <path id="Trazado_9223" data-name="Trazado 9223" d="M356.77,236.02l2.658,6.2-7.03,4.257L349.27,238.2Z" transform="translate(-343.074 -220.83)" fill="#fdbd9b"/>
                </g>
                <g id="Grupo_23558" data-name="Grupo 23558" transform="translate(2.54 2.469)">
                  <g id="Grupo_23556" data-name="Grupo 23556" transform="translate(0 0.057)">
                    <path id="Trazado_9224" data-name="Trazado 9224" d="M354.371,221.428a6.093,6.093,0,0,0-5.089-5.171l-.038-.2s-1.275.228-1.7.324c-2.779.622-4.5,3.737-3.927,6.96s3.268,5.545,6.091,5.171c.431-.057,1.707-.286,1.707-.286l-.038-.2A6.065,6.065,0,0,0,354.371,221.428Z" transform="translate(-343.508 -216.06)" fill="#316382"/>
                  </g>
                  <path id="Trazado_9225" data-name="Trazado 9225" d="M349.853,216.046c2.967-.529,5.858,1.769,6.458,5.132s-1.319,6.519-4.286,7.048-5.858-1.768-6.458-5.132S346.886,216.575,349.853,216.046Z" transform="translate(-344.22 -215.971)" fill="#407c91"/>
                  <g id="Grupo_23557" data-name="Grupo 23557" transform="translate(2.486 1.426)">
                    <path id="Trazado_9226" data-name="Trazado 9226" d="M355.784,222.223a4.514,4.514,0,0,0-4.974-3.946.815.815,0,0,0-.121.025,4.809,4.809,0,0,0,1.675,9.359.792.792,0,0,0,.121-.019A4.5,4.5,0,0,0,355.784,222.223Z" transform="translate(-347.425 -218.219)" fill="#ebf5ff"/>
                  </g>
                </g>
              </g>
              <path id="Trazado_9227" data-name="Trazado 9227" d="M377.491,231.513l-4.327-3.293a11.553,11.553,0,0,0-4.327,4.943c-1.5,3.344-3.5,14.5-3.5,14.5l-8.083-13.426-10.3,7.309s11.421,28.907,18.3,29.256,11.719-6.021,11.719-6.021Z" transform="translate(-342.23 -217.979)" fill="#fff"/>
            </g>
            <g id="Grupo_23567" data-name="Grupo 23567" transform="translate(0 92.685)">
              <g id="Grupo_23562" data-name="Grupo 23562" transform="translate(0 82.298)">
                <path id="Trazado_9228" data-name="Trazado 9228" d="M341.32,429.913l1.313,8.28,5.418,2.2,6.224-2.976-1.129-8.159Z" transform="translate(-329.396 -429.26)" fill="#fbbd9a"/>
                <g id="Grupo_23561" data-name="Grupo 23561" transform="translate(0 7.423)">
                  <path id="Trazado_9229" data-name="Trazado 9229" d="M350.909,452.628l-28.088-.406a7.14,7.14,0,0,1-.266-1.428,5.058,5.058,0,0,1,1.738-4.581c2.36-1.834,6.11-2.087,8.546-3.033a5.429,5.429,0,0,0,2.341-2l4,.228s.33,2.227,1.815,2.094,6.389-2.538,6.389-2.538a24.71,24.71,0,0,1,3.483,9.834A10.081,10.081,0,0,1,350.909,452.628Z" transform="translate(-322.527 -440.96)" fill="#502202"/>
                  <path id="Trazado_9230" data-name="Trazado 9230" d="M350.925,458.294l-28.088-.406a7.143,7.143,0,0,1-.266-1.428h28.3A9.818,9.818,0,0,1,350.925,458.294Z" transform="translate(-322.543 -446.625)" fill="#855321"/>
                </g>
              </g>
              <g id="Grupo_23566" data-name="Grupo 23566" transform="translate(7.215)">
                <g id="Grupo_23564" data-name="Grupo 23564" transform="translate(26.375 82.298)">
                  <path id="Trazado_9231" data-name="Trazado 9231" d="M394.26,429.913l1.313,8.28,5.418,2.2,6.224-2.976-1.129-8.159Z" transform="translate(-382.336 -429.26)" fill="#fbbd9a"/>
                  <g id="Grupo_23563" data-name="Grupo 23563" transform="translate(0 7.423)">
                    <path id="Trazado_9232" data-name="Trazado 9232" d="M403.849,452.628l-28.088-.406a7.143,7.143,0,0,1-.266-1.428,5.058,5.058,0,0,1,1.738-4.581c2.36-1.834,6.11-2.087,8.546-3.033a5.428,5.428,0,0,0,2.341-2l4,.228s.33,2.227,1.815,2.094,6.389-2.538,6.389-2.538a24.709,24.709,0,0,1,3.483,9.834A10.078,10.078,0,0,1,403.849,452.628Z" transform="translate(-375.467 -440.96)" fill="#502202"/>
                    <path id="Trazado_9233" data-name="Trazado 9233" d="M403.865,458.294l-28.088-.406a7.141,7.141,0,0,1-.266-1.428h28.3A9.821,9.821,0,0,1,403.865,458.294Z" transform="translate(-375.483 -446.625)" fill="#855321"/>
                  </g>
                </g>
                <g id="Grupo_23565" data-name="Grupo 23565">
                  <path id="Trazado_9234" data-name="Trazado 9234" d="M370.547,301.29l-4.6,7.455s-26.337,4.01-30.6,10.463c-3.934,5.951,1.4,66.278,1.4,66.278h18.089s-1.383-44.56,0-48.684,42.859-3.889,45.238-9.485,3.172-25.233,3.172-25.233" transform="translate(-333.898 -300.186)" fill="#112c45"/>
                  <path id="Trazado_9235" data-name="Trazado 9235" d="M419.1,309.258s1.022,16.148-4.283,20.012c-4.606,3.356-16.319,4.232-16.319,4.232l2.259,50.225-17.3,1.129s-8.591-58.62-8.185-64.241,17.042-9.689,15.906-10.488c0,0-12.823-4.353-8.071-9.137.108-.108.228-.222.349-.33,1.1-.977,14.612.032,14.612.032l12.455-1.142,4.93,5.59Z" transform="translate(-349.016 -299.55)" fill="#163a4a"/>
                </g>
              </g>
            </g>
            <path id="Trazado_9236" data-name="Trazado 9236" d="M422.94,314.368c-.108.793-.228,1.643-.355,2.506-2.132-2.709-5.577-6.675-8.616-8.343-6.3-3.464-26.439-5.831-26.439-5.831l.076-1.719c.108-.108.228-.222.349-.33,1.1-.977,14.612.032,14.612.032l12.455-1.142,4.93,5.59Z" transform="translate(-346.287 -206.861)" fill="#112c45"/>
            <g id="Grupo_23577" data-name="Grupo 23577" transform="translate(37.845)">
              <g id="Grupo_23568" data-name="Grupo 23568" transform="translate(10.199 32.473)">
                <path id="Trazado_9237" data-name="Trazado 9237" d="M418.515,214.8s-7.417,9.581-12.036,9.092-8.229-5.6-8.229-5.6,1.853-.685,2.652-3.712a16.775,16.775,0,0,0-.222-7.893l13.73-2.037a19.016,19.016,0,0,0,.514,4.759C415.444,211.515,416.472,213.761,418.515,214.8Z" transform="translate(-398.25 -204.65)" fill="#fdbd9b"/>
                <path id="Trazado_9238" data-name="Trazado 9238" d="M402.3,214.59a16.775,16.775,0,0,0-.222-7.893l13.73-2.037a19.016,19.016,0,0,0,.514,4.759A23.314,23.314,0,0,1,402.3,214.59Z" transform="translate(-399.65 -204.654)" fill="#f0997f"/>
              </g>
              <g id="Grupo_23576" data-name="Grupo 23576">
                <g id="Grupo_23570" data-name="Grupo 23570" transform="translate(0 23.51)">
                  <path id="Trazado_9239" data-name="Trazado 9239" d="M382.191,193.4c.21-1.856,2.441-3.127,4.983-2.839s4.432,2.026,4.221,3.881-2.441,3.127-4.983,2.839S381.98,195.257,382.191,193.4Z" transform="translate(-382.175 -190.523)" fill="#f0997f"/>
                  <g id="Grupo_23569" data-name="Grupo 23569" transform="translate(2.408 2.219)">
                    <path id="Trazado_9240" data-name="Trazado 9240" d="M388.793,195.175v-.051a1.1,1.1,0,0,0-1.1-1.1h-.615a1.1,1.1,0,0,0-1.1,1.1v.051a1.1,1.1,0,0,0,1.1,1.1h.615A1.1,1.1,0,0,0,388.793,195.175Z" transform="translate(-385.97 -194.02)" fill="#4b8394"/>
                    <rect id="Rectángulo_5591" data-name="Rectángulo 5591" width="0.926" height="2.538" transform="translate(0 1.129)" fill="#4b8394"/>
                  </g>
                </g>
                <g id="Grupo_23571" data-name="Grupo 23571" transform="translate(3.626 5.705)">
                  <path id="Trazado_9241" data-name="Trazado 9241" d="M415.435,178.341c0-8.769-6.066-15.881-13.552-15.881s-13.552,4.682-13.552,15.881c0,8.768,3.4,16.376,11.459,16.909C407.256,195.738,415.435,187.116,415.435,178.341Z" transform="translate(-388.051 -162.46)" fill="#fdbd9b"/>
                  <path id="Trazado_9242" data-name="Trazado 9242" d="M413.675,184.27a19.061,19.061,0,0,1-5.222-8.826,4.133,4.133,0,0,1-3.636-.552,10.083,10.083,0,0,1-8.515-.489,7.094,7.094,0,0,1-6.313-.2,13.466,13.466,0,0,0-2.1,4.308q.286-4.53.584-9.067,10.726-1.513,21.547-2.106a2.353,2.353,0,0,1,1.206.146,2.326,2.326,0,0,1,.952,1.5A34.421,34.421,0,0,1,413.675,184.27Z" transform="translate(-387.89 -164.239)" fill="#f0997f"/>
                </g>
                <g id="Grupo_23572" data-name="Grupo 23572" transform="translate(2.543)">
                  <path id="Trazado_9243" data-name="Trazado 9243" d="M416.5,163.416c-.3,4.5-.59,10.317-.888,14.764-.419,1.529-1.732,1.472-3.515,2.043a44.093,44.093,0,0,1-3.287-12.03,8.734,8.734,0,0,1-5.38-.355,11.48,11.48,0,0,1-8.381-.019,9.673,9.673,0,0,1-6.231.114,38.873,38.873,0,0,0-1.275,7.937c-.254-2.164-1.091-8.857-1.3-13.445a15.486,15.486,0,0,1,.159-4.219c.85-2.493,3.6-1.688,4.34-.831a4.127,4.127,0,0,1,2.8-2.335,4.538,4.538,0,0,1,3.705.882,4.729,4.729,0,0,1,3.978-2.443,3.94,3.94,0,0,1,3.813,2.436,8.305,8.305,0,0,1,2.392-.964,3.489,3.489,0,0,1,2.5.387,2.7,2.7,0,0,1,.876.933,3.848,3.848,0,0,1,.489,1.428,2.531,2.531,0,0,1,3.166-.59,4.122,4.122,0,0,1,1.942,2.8A11.986,11.986,0,0,1,416.5,163.416Z" transform="translate(-386.186 -153.473)" fill="#502202"/>
                  <path id="Trazado_9244" data-name="Trazado 9244" d="M410.8,156.268a4.678,4.678,0,0,0-2.881-.279,4.3,4.3,0,0,0-2.893,2.221,3.954,3.954,0,0,0-3.788-2.5,4.614,4.614,0,0,0-3.858,3.179,4.188,4.188,0,0,0-3.617-1.428,3.987,3.987,0,0,0-3.172,2.36,1.8,1.8,0,0,0-1.973-.4,3.484,3.484,0,0,0-1.586,1.4,7.686,7.686,0,0,0-.8,1.6,15.486,15.486,0,0,1,.159-4.219c.85-2.494,3.6-1.688,4.34-.831a4.127,4.127,0,0,1,2.8-2.335,4.538,4.538,0,0,1,3.705.882,4.729,4.729,0,0,1,3.978-2.443,3.94,3.94,0,0,1,3.813,2.436,8.3,8.3,0,0,1,2.392-.964,3.489,3.489,0,0,1,2.5.387A2.73,2.73,0,0,1,410.8,156.268Z" transform="translate(-386.182 -153.469)" fill="#6b4019"/>
                </g>
                <g id="Grupo_23573" data-name="Grupo 23573" transform="translate(5.955 20.798)">
                  <path id="Trazado_9245" data-name="Trazado 9245" d="M395.005,186.364a4.409,4.409,0,0,0-3.445.628" transform="translate(-391.56 -186.248)" fill="none" stroke="#502202" stroke-linecap="round" stroke-miterlimit="10" stroke-width="2"/>
                  <path id="Trazado_9246" data-name="Trazado 9246" d="M411.1,186.6a4.175,4.175,0,0,1,3.959.387" transform="translate(-398.702 -186.257)" fill="none" stroke="#502202" stroke-linecap="round" stroke-miterlimit="10" stroke-width="2"/>
                  <path id="Trazado_9247" data-name="Trazado 9247" d="M402.54,194.43a26.428,26.428,0,0,0,.368,3.743" transform="translate(-395.573 -189.239)" fill="none" stroke="#b0514a" stroke-linecap="round" stroke-miterlimit="10" stroke-width="2"/>
                  <path id="Trazado_9248" data-name="Trazado 9248" d="M405.33,204.938a5.909,5.909,0,0,0,4.181-1.548" transform="translate(-396.593 -192.514)" fill="none" stroke="#b0514a" stroke-linecap="round" stroke-miterlimit="10" stroke-width="2"/>
                  <path id="Trazado_9249" data-name="Trazado 9249" d="M411.558,193.987c.383-.068.765.283.853.784a.835.835,0,0,1-.534,1.028c-.383.067-.765-.284-.853-.784A.834.834,0,0,1,411.558,193.987Z" transform="translate(-398.668 -189.074)" fill="#2d3a5e"/>
                  <path id="Trazado_9250" data-name="Trazado 9250" d="M394.817,194.216c.383-.068.765.283.853.784a.835.835,0,0,1-.534,1.028c-.383.067-.765-.284-.853-.784A.834.834,0,0,1,394.817,194.216Z" transform="translate(-392.549 -189.158)" fill="#2d3a5e"/>
                </g>
                <g id="Grupo_23575" data-name="Grupo 23575" transform="translate(25.691 23.489)">
                  <path id="Trazado_9251" data-name="Trazado 9251" d="M426.816,190.55c2.534-.35,4.795.867,5.051,2.717s-1.593,3.634-4.127,3.983-4.795-.867-5.05-2.717S424.282,190.9,426.816,190.55Z" transform="translate(-422.667 -190.491)" fill="#fdbd9b"/>
                  <g id="Grupo_23574" data-name="Grupo 23574" transform="translate(4.006 2.239)">
                    <path id="Trazado_9252" data-name="Trazado 9252" d="M428.98,195.175v-.051a1.1,1.1,0,0,1,1.1-1.1h.615a1.1,1.1,0,0,1,1.1,1.1v.051a1.1,1.1,0,0,1-1.1,1.1h-.615A1.1,1.1,0,0,1,428.98,195.175Z" transform="translate(-428.98 -194.02)" fill="#4b8394"/>
                    <rect id="Rectángulo_5592" data-name="Rectángulo 5592" width="0.926" height="2.538" transform="translate(1.897 1.129)" fill="#4b8394"/>
                  </g>
                </g>
              </g>
            </g>
            <g id="Grupo_23578" data-name="Grupo 23578" transform="translate(41.668 40.41)">
              <path id="Trazado_9253" data-name="Trazado 9253" d="M413.154,217.34s-7.519,4.543-8.826,6.174a9.833,9.833,0,0,0-1.707,3.87,34.833,34.833,0,0,0-2.208-4.118c-.406-.317-3.559-3.306-3.559-3.306l-3.7,2.8-4.955,2.576.209,47.6,33.513,2.271.863-51.653Z" transform="translate(-388.2 -217.225)" fill="#69c5c9"/>
              <path id="Trazado_9254" data-name="Trazado 9254" d="M408.966,233.61c-1.586,13.349,1.167,36.679-3.306,45.74" transform="translate(-394.582 -223.172)" fill="none" stroke="#3e7c8a" stroke-linecap="round" stroke-miterlimit="10" stroke-width="0.5"/>
              <path id="Trazado_9255" data-name="Trazado 9255" d="M411.89,225.338a6.944,6.944,0,0,1,1.865-3.147c1.3-1.041,8.007-4.987,8.185-5.031s3.471,2.252,3.471,2.252l-4.974,7.062s-5.1-3.585-6.294-3.28C413,223.492,411.89,225.338,411.89,225.338Z" transform="translate(-396.859 -217.159)" fill="#9bebe7"/>
              <path id="Trazado_9256" data-name="Trazado 9256" d="M404.606,226.558a7.428,7.428,0,0,0-1.066-2.322,28.23,28.23,0,0,0-3.655-3.756c-.267.013-2.906,1.6-3.375,2.557s-.2,5.488-.2,5.488,4.454-4.238,6.193-3.756A4.75,4.75,0,0,1,404.606,226.558Z" transform="translate(-391.136 -218.373)" fill="#9bebe7"/>
            </g>
            <g id="Grupo_23579" data-name="Grupo 23579" transform="translate(61.992 41.078)">
              <path id="Trazado_9257" data-name="Trazado 9257" d="M428,219.41s-5.818,5.469-6.694,11.021-.539,34.763,4.847,44.483c4.67,8.432,5.114,35.29,5.114,47.757l16.344-5.634s-.07-22.365-5.349-43.075c-4.092-16.052-.165-45.384-2.506-48.252C438.127,223.705,428,219.41,428,219.41Z" transform="translate(-420.49 -218.649)" fill="#fff"/>
              <path id="Trazado_9258" data-name="Trazado 9258" d="M420.846,250.144s-1.351-15.431-.044-20.4,5.089-11.281,6.11-11.5c1.688-.362,5.463,2.563,5.463,2.563a37.262,37.262,0,0,0-3.959,13.318c-.082.723-6.078,2.938-6.078,2.938s4.682,3.426,4.619,3.762S420.846,250.144,420.846,250.144Z" transform="translate(-420.232 -218.211)" fill="#dae8f7"/>
            </g>
            <g id="Grupo_23582" data-name="Grupo 23582" transform="translate(45.526 44.475)">
              <g id="Grupo_23580" data-name="Grupo 23580" transform="translate(0 48.723)">
                <ellipse id="Elipse_1311" data-name="Elipse 1311" cx="6.351" cy="3.953" rx="6.351" ry="3.953" transform="translate(0 2.152)" fill="#407c91"/>
                <path id="Trazado_9259" data-name="Trazado 9259" d="M410.892,301.286l-6.472-.857a3.116,3.116,0,0,0-1.726.1,2.329,2.329,0,0,0-1.129,2.043c1.079.1,2.157.184,3.249.362a21.289,21.289,0,0,1-4.759,4.727,5.226,5.226,0,0,0-1.136.971,1.539,1.539,0,0,0-.324,1.4,1.468,1.468,0,0,0,1.123.882,12.483,12.483,0,0,0,1.574.044,1.717,1.717,0,0,0,.831,1.872,2.063,2.063,0,0,0,2.157-.279,2.3,2.3,0,0,0,1.669,1.174A5.117,5.117,0,0,0,408,313.4a2.708,2.708,0,0,0,2.062.926,3.432,3.432,0,0,0,2.17-.945,16.691,16.691,0,0,0,4.321-6.072A46.316,46.316,0,0,1,410.892,301.286Z" transform="translate(-395.835 -300.358)" fill="#fbbd9a"/>
              </g>
              <g id="Grupo_23581" data-name="Grupo 23581" transform="translate(12.182)">
                <path id="Trazado_9260" data-name="Trazado 9260" d="M426.81,233.111c-.159-3.065,1.4-8.832,3.6-9.435,3.439-.933,9.282,4.232,10.818,8.343s6.173,29.307,4.873,32.739c-1.783,4.682-25.328,17.277-25.328,17.277l-7.3-10.666s16.325-8.857,17.3-11.674C431.379,257.932,427.185,240.3,426.81,233.111Z" transform="translate(-413.48 -223.566)" fill="#fff"/>
                <path id="Trazado_9261" data-name="Trazado 9261" d="M439.264,230.29s-2.633,3.445-2.633,9.65,1.523,20.9,1.167,21.439-11.858,8-11.858,8" transform="translate(-418.034 -226.024)" fill="none" stroke="#b8c8e3" stroke-linecap="round" stroke-miterlimit="10" stroke-width="1"/>
                <path id="Trazado_9262" data-name="Trazado 9262" d="M441.087,256.226a16.129,16.129,0,0,1-3.477-6.986" transform="translate(-422.3 -232.95)" fill="none" stroke="#b8c8e3" stroke-linecap="round" stroke-miterlimit="10" stroke-width="1"/>
                <path id="Trazado_9263" data-name="Trazado 9263" d="M433.24,307.23a98.253,98.253,0,0,0,12.4-7.81" transform="translate(-420.703 -251.292)" fill="none" stroke="#b8c8e3" stroke-linecap="round" stroke-miterlimit="10" stroke-width="1"/>
              </g>
            </g>
            <g id="Grupo_23584" data-name="Grupo 23584" transform="translate(28.141 42.511)">
              <path id="Trazado_9264" data-name="Trazado 9264" d="M388.122,221.12a45.607,45.607,0,0,0-.99,10.425c0,11.1-1.447,41.977-7.29,46.539-4.594,3.585-10.348,3.356-12.962,3.356,0,0,5.437-2.893,7.468-6.25,2.259-3.731,2.639-15.589,2.938-21.769.317-6.548.907-24.592,1.656-26.166C380.566,223.861,388.122,221.12,388.122,221.12Z" transform="translate(-366.88 -220.708)" fill="#fff"/>
              <path id="Trazado_9265" data-name="Trazado 9265" d="M393.573,251.915A175.951,175.951,0,0,0,394.9,234.2a65.014,65.014,0,0,1,1.339-13.73s-4.619,1.466-5.127,2.214-2.9,5.044-4.124,13.184c-.2,1.345,5.254,2.455,5.254,2.455s-4.207,3.268-4.207,4.086C388.04,244,393.573,251.915,393.573,251.915Z" transform="translate(-374.227 -220.47)" fill="#dae8f7"/>
              <g id="Grupo_23583" data-name="Grupo 23583" transform="translate(9.295 9.777)">
                <path id="Trazado_9266" data-name="Trazado 9266" d="M384.119,235.88a264.806,264.806,0,0,1-2.379,36.781" transform="translate(-381.607 -235.88)" fill="none" stroke="#b8c8e3" stroke-linecap="round" stroke-miterlimit="10" stroke-width="1"/>
                <path id="Trazado_9267" data-name="Trazado 9267" d="M381.53,245.88a14.948,14.948,0,0,0,2.24,5.812" transform="translate(-381.53 -239.535)" fill="none" stroke="#b8c8e3" stroke-linecap="round" stroke-miterlimit="10" stroke-width="1"/>
              </g>
            </g>
          </g>
          <g id="Grupo_23587" data-name="Grupo 23587" transform="translate(0 29.326)">
            <path id="Trazado_9268" data-name="Trazado 9268" d="M386.67,199.722s.869,20.424,13.115,21.2c10.336.66,16.071-12.042,16.071-21.236" transform="translate(-321.185 -199.69)" fill="none" stroke="#163649" stroke-miterlimit="10" stroke-width="1"/>
            <g id="Grupo_23586" data-name="Grupo 23586" transform="translate(0 21.49)">
              <path id="Trazado_9269" data-name="Trazado 9269" d="M363.02,233.56s-7.531,27.524-28.425,32.5c-25.57,6.091-50.625-.755-50.625-.755" transform="translate(-283.646 -233.56)" fill="none" stroke="#163649" stroke-linecap="round" stroke-miterlimit="10" stroke-width="1"/>
              <path id="Trazado_9270" data-name="Trazado 9270" d="M329.253,234.79s2.887,16.687-10.05,25.328c-11.459,7.658-35.233,5.292-35.233,5.292" transform="translate(-283.646 -234.01)" fill="none" stroke="#163649" stroke-linecap="round" stroke-miterlimit="10" stroke-width="1"/>
              <path id="Trazado_9271" data-name="Trazado 9271" d="M354.2,300.232s-46.863.1-70.745-16.642" transform="translate(-283.46 -251.847)" fill="none" stroke="#163649" stroke-linecap="round" stroke-miterlimit="10" stroke-width="1"/>
            </g>
          </g>
        </g>
      </g>
      <g id="Grupo_23622" data-name="Grupo 23622" transform="translate(175.446)">
        <path id="Trazado_9272" data-name="Trazado 9272" d="M549.581,118.04a10.878,10.878,0,0,1,20.716-5.228c1.815,3.883,1.193,8.432.317,12.632s-1.954,8.546-.958,12.715c.844,3.509,3.109,6.6,3.559,10.183a10.7,10.7,0,0,1-7.652,11.287c-2.716.7-6.224-.165-7.087-2.836-.8-2.474,1.028-5.108.66-7.677-.311-2.157-2.068-3.756-3.515-5.38C550.292,137.735,550.215,129.087,549.581,118.04Z" transform="translate(-496.075 -106.567)" fill="#381b07"/>
        <g id="Grupo_23591" data-name="Grupo 23591" transform="translate(0 49.161)">
          <path id="Trazado_9273" data-name="Trazado 9273" d="M473.7,211.172c-2.43-2.773-4.207-7.766-4.207-9.447,0-1.986-.317-4.023.381-5.882a14.75,14.75,0,0,1,1.466-2.69c.628-.983,1.25-1.967,1.878-2.95a1.985,1.985,0,0,1,1.022-.964c.78-.209,1.5.673,1.459,1.485a3.17,3.17,0,0,1-1.5,2.208,8.75,8.75,0,0,1,2.138-3.965,1.181,1.181,0,0,1,1.034-.495c.641.152.622,1.066.451,1.7-.431,1.593-.857,3.185-1.2,4.556,1.358,2.589,1.237,5.66,1.263,8.578s.311,6.078,2.24,8.274C478.27,212.391,476.087,209.155,473.7,211.172Z" transform="translate(-466.779 -185.66)" fill="#db8e62"/>
          <path id="Trazado_9274" data-name="Trazado 9274" d="M475.72,219.476s6.44,22,11.306,22.454c5.888.552,10.672-4.892,10.672-4.892l3.845-19.707-8.718-5.222L488.016,227.9l-6.865-7.76Z" transform="translate(-469.083 -194.307)" fill="#db8e62"/>
          <path id="Trazado_9275" data-name="Trazado 9275" d="M513.133,210.362c-4.8-1.815-9.612-3.591-14.4-5.431,1.307-6.262,3.122-13.768,4.708-16.167a10.646,10.646,0,0,1,7.766-4.714l2.189,6.478-.26,19.7Z" transform="translate(-477.494 -184.05)" fill="#1d9fb3"/>
          <g id="Grupo_23590" data-name="Grupo 23590" transform="translate(0 2.811)">
            <path id="Trazado_9276" data-name="Trazado 9276" d="M496.476,224.728,482.454,188.48l-17.194,4.46L481.173,233.3Z" transform="translate(-465.26 -188.48)" fill="#b23f37"/>
            <path id="Trazado_9277" data-name="Trazado 9277" d="M495.424,223.883,482.792,191.62l-14.022,3.8,13.813,35.3Z" transform="translate(-466.543 -189.628)" fill="#ebf5ff"/>
            <path id="Trazado_9278" data-name="Trazado 9278" d="M480.539,190.24l.876,2.341-5.5,1.529-.983-2.392Z" transform="translate(-468.795 -189.123)" fill="#678ca8"/>
          </g>
        </g>
        <g id="Grupo_23595" data-name="Grupo 23595" transform="translate(22.93 98.733)">
          <g id="Grupo_23594" data-name="Grupo 23594" transform="translate(0 95.743)">
            <g id="Grupo_23593" data-name="Grupo 23593">
              <g id="Grupo_23592" data-name="Grupo 23592" transform="translate(0 11.357)">
                <path id="Trazado_9279" data-name="Trazado 9279" d="M501.4,444.387c.051,2.379,25,1.573,26.128-.387.73-1.282-.615-4.5-1.643-6.592-.546-1.123-1-1.916-1-1.916l-3.172-4.441-2.532-.07a122.324,122.324,0,0,0-14.587,9.53C502.6,442.147,501.381,443.5,501.4,444.387Z" transform="translate(-501.4 -430.98)" fill="#136d94"/>
                <path id="Trazado_9280" data-name="Trazado 9280" d="M506.43,440.52c5.158,3.248,17.042-1.294,21.293-3.1-.546-1.123-1-1.916-1-1.916l-3.172-4.441-2.531-.07A121.8,121.8,0,0,0,506.43,440.52Z" transform="translate(-503.238 -430.984)" fill="#db8e62"/>
              </g>
              <path id="Trazado_9281" data-name="Trazado 9281" d="M518.5,414.653l.882,9.727.317,3.49.222,2.4,10.095-1.06.083-1.694v-.006l.082-1.777.558-11.5.057-1.155-6.148.787Z" transform="translate(-507.65 -413.08)" fill="#db8e62"/>
            </g>
            <path id="Trazado_9282" data-name="Trazado 9282" d="M518.5,415.107l.882,9.727,5.05.628h.006L528.7,426l1.485.184.558-11.5-6.091-.368Z" transform="translate(-507.65 -413.533)" fill="#cf6e4a"/>
          </g>
          <path id="Trazado_9283" data-name="Trazado 9283" d="M505.189,262.18s-4.34,12-3.483,29.072,8.052,76.588,8.052,76.588l17.93-.844-3.071-76.836-4.327-23.793" transform="translate(-501.47 -262.18)" fill="#1d9fb3"/>
        </g>
        <g id="Grupo_23600" data-name="Grupo 23600" transform="translate(24.072 94.869)">
          <g id="Grupo_23598" data-name="Grupo 23598" transform="translate(36.939 90.267)">
            <g id="Grupo_23597" data-name="Grupo 23597">
              <g id="Grupo_23596" data-name="Grupo 23596" transform="translate(6.349 10.545)">
                <path id="Trazado_9284" data-name="Trazado 9284" d="M571.86,438.3c1.58,1.777,20.05-15.025,19.637-17.239-.273-1.447-3.388-3.026-5.526-3.946-1.142-.495-2-.806-2-.806l-5.3-1.32-1.973,1.586a121.983,121.983,0,0,0-4.917,16.712C571.314,435.814,571.276,437.641,571.86,438.3Z" transform="translate(-571.426 -414.984)" fill="#136d94"/>
                <path id="Trazado_9285" data-name="Trazado 9285" d="M571.98,433.278c6.034-.876,12.131-12.042,14.193-16.173-1.142-.495-2-.806-2-.806l-5.3-1.32-1.973,1.586A121.721,121.721,0,0,0,571.98,433.278Z" transform="translate(-571.628 -414.98)" fill="#db8e62"/>
              </g>
              <path id="Trazado_9286" data-name="Trazado 9286" d="M561.42,407.535l4.194,4.105,5.285,5.171,1.726,1.681,7-7.347-1.041-1.351-3.026-3.921-5.8-7.512Z" transform="translate(-561.42 -398.36)" fill="#db8e62"/>
            </g>
            <path id="Trazado_9287" data-name="Trazado 9287" d="M561.42,407.535l4.194,4.105,9.942-5.767-5.8-7.512Z" transform="translate(-561.42 -398.36)" fill="#cf6e4a"/>
          </g>
          <g id="Grupo_23599" data-name="Grupo 23599">
            <path id="Trazado_9288" data-name="Trazado 9288" d="M503.391,271.235c1.745,4.847,14.885,13.388,14.885,13.388s-.127,33.837.362,42.364S536.8,363.355,536.8,363.355l16.56-14.7s-12.836-21.464-13.717-26.509,4.67-31.572,4.67-42.371a41.69,41.69,0,0,0-.489-6.1,76.05,76.05,0,0,0-2.95-12.176c-1.06-3.268-1.954-5.412-1.954-5.412a163.255,163.255,0,0,0-17.981,3.82c-8.223,2.3-16.414,5.615-17.664,9.847A2.388,2.388,0,0,0,503.391,271.235Z" transform="translate(-503.2 -256.09)" fill="#25b2c2"/>
            <path id="Trazado_9289" data-name="Trazado 9289" d="M503.391,273.435a106.675,106.675,0,0,0,13.635,6.8,20.493,20.493,0,0,1,.99-2.341c.412.895.831,1.777,1.339,2.988,8.1-2.03,16.268-3.75,24.472-5.006a76.052,76.052,0,0,0-2.95-12.176q-9.955-.933-19.935-1.593c-8.223,2.3-16.414,5.615-17.664,9.847A2.338,2.338,0,0,0,503.391,273.435Z" transform="translate(-503.201 -258.29)" fill="#1d9fb3"/>
          </g>
        </g>
        <path id="Trazado_9290" data-name="Trazado 9290" d="M547.733,187.558c-.628-3.807-15.037-8.7-19.935-8.255-10.52.958-18.14,2.868-20.538,4.372s-4.587,15.551-4.587,19.466c0,4.632,1.593,13.724,1.167,17.391-.825,7.113-5.139,22.175-5.139,22.175l15.856,5.558,1.967-3.464,1.8,4.391,26.2-6.008s-2.005-20.868-2.005-24.529C542.524,215.146,548.545,192.469,547.733,187.558Z" transform="translate(-477.483 -133.144)" fill="#27b8c1"/>
        <g id="Grupo_23602" data-name="Grupo 23602" transform="translate(39.014 56.902)">
          <path id="Trazado_9291" data-name="Trazado 9291" d="M533.507,196.25c-5.266,27.429-5.558,35.283-6.757,54.553" transform="translate(-526.75 -196.25)" fill="none" stroke="#51dbdb" stroke-linecap="round" stroke-miterlimit="10" stroke-width="1"/>
          <g id="Grupo_23601" data-name="Grupo 23601" transform="translate(1.783 4.549)">
            <circle id="Elipse_1312" data-name="Elipse 1312" cx="0.882" cy="0.882" r="0.882" transform="translate(4.79)" fill="#136d94"/>
            <circle id="Elipse_1313" data-name="Elipse 1313" cx="0.882" cy="0.882" r="0.882" transform="translate(2.582 11.998)" fill="#136d94"/>
            <circle id="Elipse_1314" data-name="Elipse 1314" cx="0.882" cy="0.882" r="0.882" transform="translate(0.882 24.643)" fill="#136d94"/>
            <circle id="Elipse_1315" data-name="Elipse 1315" cx="0.882" cy="0.882" r="0.882" transform="translate(0 39.141)" fill="#136d94"/>
          </g>
        </g>
        <g id="Grupo_23611" data-name="Grupo 23611" transform="translate(15.189 50.452)">
          <g id="Grupo_23610" data-name="Grupo 23610" transform="translate(0 15.231)">
            <g id="Grupo_23608" data-name="Grupo 23608">
              <g id="Grupo_23607" data-name="Grupo 23607">
                <g id="Grupo_23604" data-name="Grupo 23604" transform="translate(0 0.13)">
                  <path id="Trazado_9292" data-name="Trazado 9292" d="M489.2,218.362l2.627.209.2.019,17.613-4.625a1.931,1.931,0,0,0,1.123-2.436,1.993,1.993,0,0,0-2.544-1.117l-16.8,5.939-.171.152Z" transform="translate(-489.2 -210.294)" fill="#136d94"/>
                  <g id="Grupo_23603" data-name="Grupo 23603" transform="translate(0 6.209)">
                    <path id="Trazado_9293" data-name="Trazado 9293" d="M489.2,221.939l.723.057,1.9.152a1.23,1.23,0,0,1-.171-.146.87.87,0,0,1-.26-.85c.038-.127.114-.26.063-.381a.612.612,0,0,0-.114-.14.632.632,0,0,1-.1-.552l-1.5,1.371Z" transform="translate(-489.2 -220.08)" fill="#d68a5a"/>
                    <path id="Trazado_9294" data-name="Trazado 9294" d="M489.2,222.729l.723.057a.7.7,0,0,1-.159-.286.714.714,0,0,1-.025-.26Z" transform="translate(-489.2 -220.87)" fill="#24151a"/>
                  </g>
                </g>
                <g id="Grupo_23606" data-name="Grupo 23606" transform="translate(4.673)">
                  <path id="Trazado_9295" data-name="Trazado 9295" d="M512.7,222.2c-1.732-3.21-3.458-6.421-5.3-9.638a17.466,17.466,0,0,0-4.486-2.474,12.482,12.482,0,0,0-5.095,3.242c-.355.374-.73.9-.565,1.4a.817.817,0,0,0,.857.52,2.443,2.443,0,0,0,1-.4c.958-.558,1.916-1.123,3.026-1.662a8.117,8.117,0,0,1,.857.806,7.259,7.259,0,0,0-2.068.241,32.619,32.619,0,0,0-3.623,2,1.327,1.327,0,0,0-.73.907.843.843,0,0,0,.451.8,1.574,1.574,0,0,0,.888.127,5.861,5.861,0,0,0,3.109-1.161,4.077,4.077,0,0,1,1.015.393,5.161,5.161,0,0,0-1.4.4,1.94,1.94,0,0,0-.914,2.754.735.735,0,0,0-.381.723,2.041,2.041,0,0,0,.266.818,16.226,16.226,0,0,0,.895,1.554,2.843,2.843,0,0,0,1.155,1.123,1.141,1.141,0,0,0,1.453-.552,6.476,6.476,0,0,0,6.129,3.331A19.663,19.663,0,0,0,512.7,222.2Z" transform="translate(-496.565 -210.09)" fill="#db8e62"/>
                  <g id="Grupo_23605" data-name="Grupo 23605" transform="translate(3.245 3.858)">
                    <path id="Trazado_9296" data-name="Trazado 9296" d="M508.963,216.589a6.931,6.931,0,0,0-1.973-.419" transform="translate(-503.621 -216.17)" fill="none" stroke="#a8473e" stroke-linecap="round" stroke-miterlimit="10" stroke-width="0.5"/>
                    <path id="Trazado_9297" data-name="Trazado 9297" d="M507.092,221.184a7.254,7.254,0,0,0-1.732.051" transform="translate(-503.025 -217.992)" fill="none" stroke="#a8473e" stroke-linecap="round" stroke-miterlimit="10" stroke-width="0.5"/>
                    <path id="Trazado_9298" data-name="Trazado 9298" d="M501.68,225.733a6.279,6.279,0,0,1,3.344-.641" transform="translate(-501.68 -219.42)" fill="none" stroke="#a8473e" stroke-linecap="round" stroke-miterlimit="10" stroke-width="0.5"/>
                    <path id="Trazado_9299" data-name="Trazado 9299" d="M506.044,230.843a6.736,6.736,0,0,1-.7-1.9" transform="translate(-503.018 -220.838)" fill="none" stroke="#a8473e" stroke-linecap="round" stroke-miterlimit="10" stroke-width="0.5"/>
                    <path id="Trazado_9300" data-name="Trazado 9300" d="M505,230.57a5.73,5.73,0,0,1-1.142.089" transform="translate(-502.477 -221.433)" fill="none" stroke="#a8473e" stroke-linecap="round" stroke-miterlimit="10" stroke-width="0.5"/>
                  </g>
                </g>
              </g>
            </g>
            <g id="Grupo_23609" data-name="Grupo 23609" transform="translate(16.281 2.5)">
              <path id="Trazado_9301" data-name="Trazado 9301" d="M514.86,228.077s21.928,18.6,27.847,16.5c2.354-.838,4.689-7.665,6.383-14.022,1.561-5.844,2.576-11.281,2.576-11.281l-12.423-5.247s-.831,5.634-1.669,10.215c-.552,3.09-1.11,5.7-1.408,5.774-1.269.355-17.366-6.808-17.366-6.808Z" transform="translate(-514.86 -214.03)" fill="#db8e62"/>
              <path id="Trazado_9302" data-name="Trazado 9302" d="M550.66,224.255a69.8,69.8,0,0,0,11.509,6.313c1.561-5.844,2.576-11.281,2.576-11.281l-12.423-5.247S551.5,219.674,550.66,224.255Z" transform="translate(-527.946 -214.034)" fill="#cf6e4a"/>
            </g>
          </g>
          <path id="Trazado_9303" data-name="Trazado 9303" d="M564.248,215.68a92.462,92.462,0,0,1-14.948-3.788c.736-6.1,2.455-17.144,3.851-20.544.99-2.411,4.879-6.649,9.263-4.816s6.066,4.727,5.6,12.36C567.846,201.607,565.264,210.154,564.248,215.68Z" transform="translate(-511.168 -186.085)" fill="#32c9cf"/>
        </g>
        <g id="Grupo_23621" data-name="Grupo 23621" transform="translate(30.03 3.108)">
          <g id="Grupo_23614" data-name="Grupo 23614" transform="translate(10.88 32.627)">
            <g id="Grupo_23612" data-name="Grupo 23612" transform="translate(0.851)">
              <path id="Trazado_9304" data-name="Trazado 9304" d="M531.08,176.094s1.275,5.774,3.737,7.461,11.782-8.692,11.782-8.692c-1.605-1.5-1.992-4.435-1.973-7.036a30.151,30.151,0,0,1,.463-4.936l-11.357,3.28a22.791,22.791,0,0,1-.47,6.281C532.489,175.6,531.08,176.094,531.08,176.094Z" transform="translate(-531.08 -162.89)" fill="#db8e62"/>
              <path id="Trazado_9305" data-name="Trazado 9305" d="M534.53,172.452c5.234,1.11,9.238-2.221,11.357-4.625a30.155,30.155,0,0,1,.463-4.936l-11.357,3.28A22.564,22.564,0,0,1,534.53,172.452Z" transform="translate(-532.341 -162.89)" fill="#cf6e4a"/>
            </g>
            <g id="Grupo_23613" data-name="Grupo 23613" transform="translate(0 8.716)">
              <path id="Trazado_9306" data-name="Trazado 9306" d="M537.619,188.779a14.632,14.632,0,0,1,.952-4.257c.368-.336,9.321-8.178,9.854-7.887.78.419,2.068,2.906,2.068,2.906a32.794,32.794,0,0,1-5.311,5.311C542.8,186.787,538.989,189.014,537.619,188.779Z" transform="translate(-532.612 -176.627)" fill="#136d94"/>
              <path id="Trazado_9307" data-name="Trazado 9307" d="M534.746,189.569a16.156,16.156,0,0,0-.431-4.416,15,15,0,0,1-2-6.313s-2.259.857-2.538,1.351.952,4.162,1.9,5.907C533.28,189.036,534.587,189.728,534.746,189.569Z" transform="translate(-529.739 -177.436)" fill="#136d94"/>
            </g>
          </g>
          <g id="Grupo_23620" data-name="Grupo 23620" transform="translate(0)">
            <g id="Grupo_23617" data-name="Grupo 23617" transform="translate(0)">
              <ellipse id="Elipse_1316" data-name="Elipse 1316" cx="3.451" cy="4.727" rx="3.451" ry="4.727" transform="matrix(0.113, -0.994, 0.994, 0.113, 0, 29.92)" fill="#cf6e4a"/>
              <g id="Grupo_23615" data-name="Grupo 23615" transform="translate(4.349 5.389)">
                <path id="Trazado_9308" data-name="Trazado 9308" d="M547.088,136.158c0-8.946-6.186-16.2-13.819-16.2s-13.819,7.252-13.819,16.2S523.263,154,531,153.683C538.618,153.365,547.088,145.1,547.088,136.158Z" transform="translate(-519.447 -119.96)" fill="#db8e62"/>
                <path id="Trazado_9309" data-name="Trazado 9309" d="M544.022,140.3a15.129,15.129,0,0,1-2.868-6.44,7.56,7.56,0,0,1-4.327-3.9c-2.341,2.341-11.237,3.661-14.206,2.887-2.113,2.608-2.176,3.9-2.925,7.233a36.422,36.422,0,0,1,.628-12.214,130.9,130.9,0,0,0,16.287-6.484c.9-.431,1.979-.869,2.842-.362a3.354,3.354,0,0,1,1.123,1.529,19.406,19.406,0,0,0,4.987,6.338c.539.451,1.155.958,1.18,1.656a2.512,2.512,0,0,1-.444,1.275C545.3,133.651,545.474,138.061,544.022,140.3Z" transform="translate(-519.445 -120.264)" fill="#cf6e4a"/>
              </g>
              <g id="Grupo_23616" data-name="Grupo 23616" transform="translate(2.004)">
                <path id="Trazado_9310" data-name="Trazado 9310" d="M515.75,127.575c-.044,3.388,2.716,10.425,2.716,10.425s.019-5.793,2.658-9.555c5.463,0,11.516-.254,14.866-3.363a7.417,7.417,0,0,0,4.651,4.568c-.063,3.071,1.345,5.945,2.227,8.527,1.719-1.047,3.014-.6,4.416-2.259.812-3,1.675-7.69,1.428-10.589a14.6,14.6,0,0,0-2.106-6.656,10.327,10.327,0,0,0-1.015-1.339,8.265,8.265,0,0,0-7.861-2.722,9.032,9.032,0,0,0-6.377-3.122,12.679,12.679,0,0,0-6.9,1.821,16.339,16.339,0,0,0-8.337,10.945A17.426,17.426,0,0,0,515.75,127.575Z" transform="translate(-515.749 -111.47)" fill="#412408"/>
                <path id="Trazado_9311" data-name="Trazado 9311" d="M515.75,127.572a13.327,13.327,0,0,1,.412-1.294,18.417,18.417,0,0,1,3.509-5.571,17.378,17.378,0,0,1,8.166-5.6,9.868,9.868,0,0,1,9.39,2,9.312,9.312,0,0,1,9.371,1.561,10.326,10.326,0,0,0-1.015-1.339,8.265,8.265,0,0,0-7.861-2.722,9.032,9.032,0,0,0-6.377-3.122,12.679,12.679,0,0,0-6.9,1.821,16.339,16.339,0,0,0-8.337,10.945A18.079,18.079,0,0,0,515.75,127.572Z" transform="translate(-515.749 -111.466)" fill="#664216"/>
              </g>
              <path id="Trazado_9312" data-name="Trazado 9312" d="M559.492,148.761c2.529-.647,4.962.325,5.435,2.172s-1.194,3.869-3.723,4.516-4.963-.325-5.436-2.172S556.962,149.408,559.492,148.761Z" transform="translate(-528.344 -125.025)" fill="#db8e62"/>
            </g>
            <g id="Grupo_23619" data-name="Grupo 23619" transform="translate(6.256 21.493)">
              <g id="Grupo_23618" data-name="Grupo 23618">
                <ellipse id="Elipse_1317" data-name="Elipse 1317" cx="0.603" cy="0.964" rx="0.603" ry="0.964" transform="translate(12.252 5.119)" fill="#411f00"/>
                <ellipse id="Elipse_1318" data-name="Elipse 1318" cx="0.603" cy="0.964" rx="0.603" ry="0.964" transform="translate(1.18 5.119)" fill="#411f00"/>
                <path id="Trazado_9313" data-name="Trazado 9313" d="M526.009,145.582a4.494,4.494,0,0,0-3.559.286" transform="translate(-522.45 -145.341)" fill="none" stroke="#412408" stroke-linecap="round" stroke-miterlimit="10" stroke-width="2"/>
                <path id="Trazado_9314" data-name="Trazado 9314" d="M541.23,146.317a4.255,4.255,0,0,1,4.035.393" transform="translate(-529.314 -145.575)" fill="none" stroke="#412408" stroke-linecap="round" stroke-miterlimit="10" stroke-width="2"/>
                <path id="Trazado_9315" data-name="Trazado 9315" d="M531.748,156.09a11.732,11.732,0,0,0,.013,2.709" transform="translate(-525.822 -149.27)" fill="none" stroke="#a8473e" stroke-linecap="round" stroke-miterlimit="10" stroke-width="2"/>
              </g>
              <path id="Trazado_9316" data-name="Trazado 9316" d="M532.86,163.962a3.482,3.482,0,0,0,4.346-1.072" transform="translate(-526.255 -151.756)" fill="none" stroke="#a8473e" stroke-linecap="round" stroke-miterlimit="10" stroke-width="2"/>
            </g>
          </g>
        </g>
      </g>
    </g>
    <g id="Grupo_23632" data-name="Grupo 23632" transform="translate(148.294 44.778)">
      <g id="Grupo_23625" data-name="Grupo 23625" transform="translate(0 7.614)">
        <circle id="Elipse_1319" data-name="Elipse 1319" cx="23.279" cy="23.279" r="23.279" fill="#00348d"/>
        <g id="Grupo_23624" data-name="Grupo 23624" transform="translate(6.389 11.935)">
          <path id="Trazado_9317" data-name="Trazado 9317" d="M201.108,81.935c5.095-9.492,15.17,3.249,15.17,3.249s10.095-10.888,15.17-3.813c5.273,7.341-15.17,24.44-15.17,24.44S196.775,90.012,201.108,81.935Z" transform="translate(-199.427 -78.421)" fill="#f579a8"/>
          <path id="Trazado_9318" data-name="Trazado 9318" d="M198.82,93.856l7.062.076,2.2-8.591,4.524,16.332,3.578-19.783,3.889,17.816,2.322-12.918,2.487,6.776,7.722.209" transform="translate(-198.82 -79.689)" fill="none" stroke="#fff" stroke-linecap="round" stroke-miterlimit="10" stroke-width="1"/>
        </g>
      </g>
      <g id="Grupo_23627" data-name="Grupo 23627" transform="translate(63.924 43.379)">
        <circle id="Elipse_1320" data-name="Elipse 1320" cx="23.793" cy="23.793" r="23.793" fill="#00348d"/>
        <g id="Grupo_23626" data-name="Grupo 23626" transform="translate(7.463 11.355)">
          <path id="Trazado_9319" data-name="Trazado 9319" d="M330.289,147.368,312.079,157.8a7.224,7.224,0,1,1-7.182-12.537l18.21-10.431A7.222,7.222,0,0,1,333.664,143,7.155,7.155,0,0,1,330.289,147.368Z" transform="translate(-301.263 -133.876)" fill="#fff"/>
          <path id="Trazado_9320" data-name="Trazado 9320" d="M337.623,147.368l-9.111,5.215-7.182-12.537,9.111-5.215A7.222,7.222,0,0,1,341,143,7.155,7.155,0,0,1,337.623,147.368Z" transform="translate(-308.598 -133.876)" fill="#f579a8"/>
        </g>
      </g>
      <g id="Grupo_23631" data-name="Grupo 23631" transform="translate(124.948)">
        <circle id="Elipse_1321" data-name="Elipse 1321" cx="23.279" cy="23.279" r="23.279" fill="#00348d"/>
        <g id="Grupo_23630" data-name="Grupo 23630" transform="translate(11.408 8.223)">
          <g id="Grupo_23628" data-name="Grupo 23628">
            <path id="Trazado_9321" data-name="Trazado 9321" d="M427.4,63.945V79.9a11.554,11.554,0,0,1-5.266,9.676l-6.6,3.851L409.478,89.5a11.585,11.585,0,0,1-5.818-10.018V63.945l11.789-3.375.082.025Z" transform="translate(-403.66 -60.57)" fill="#fff"/>
            <path id="Trazado_9322" data-name="Trazado 9322" d="M434.235,63.96V79.917a11.554,11.554,0,0,1-5.266,9.676l-6.6,3.851V60.61Z" transform="translate(-410.499 -60.585)" fill="#f2e4e5"/>
          </g>
          <g id="Grupo_23629" data-name="Grupo 23629" transform="translate(2.849 7.411)">
            <rect id="Rectángulo_5593" data-name="Rectángulo 5593" width="5.476" height="18.032" transform="translate(6.281)" fill="#f579a8"/>
            <rect id="Rectángulo_5594" data-name="Rectángulo 5594" width="18.032" height="5.476" transform="translate(0 6.28)" fill="#f579a8"/>
          </g>
        </g>
      </g>
    </g>
  </g>
</svg>
