<svg xmlns="http://www.w3.org/2000/svg" width="675.274" height="289.92" viewBox="0 0 675.274 289.92">
  <g id="Grupo_24480" data-name="Grupo 24480" transform="translate(-64.1 -383.515)">
    <g id="Grupo_24479" data-name="Grupo 24479" transform="translate(64.1 383.515)">
      <path id="Trazado_11198" data-name="Trazado 11198" d="M320.113,672.539s-105.84-53.94-51.6-146.208c29.252-49.763,113.286-54.68,158.482-23.794,19.25,13.155,66.332,56.209,105.229-42.222,45.466-115.052,355.916-106.725,274.934,65.109-34.559,73.329,72.251,79.12,15.861,147.283Z" transform="translate(-208.617 -383.514)" fill="#ffe5ef"/>
      <g id="Grupo_24446" data-name="Grupo 24446" transform="translate(491.243 178.615)">
        <g id="Grupo_24445" data-name="Grupo 24445">
          <path id="Trazado_11199" data-name="Trazado 11199" d="M2201.624,1277.836l-23.214-.031-12.28-.016a8.693,8.693,0,0,1-8.653-8.679l.114-85.78a8.687,8.687,0,0,1,8.675-8.654l10.89.015,24.6.032a8.69,8.69,0,0,1,8.653,8.677l-.112,85.78A8.693,8.693,0,0,1,2201.624,1277.836Z" transform="translate(-2156.484 -1167.258)" fill="#f1a34f" opacity="0.8"/>
          <path id="Trazado_11200" data-name="Trazado 11200" d="M2213.139,1396.411l-.612-4.515h0l-.612-4.517a4.244,4.244,0,0,0-4.76-3.624c-.127.017-.252.042-.375.071a4.191,4.191,0,0,0,.729-2,4.228,4.228,0,0,0,8.017-2.6l-1.056-4.432h0l-1.057-4.434a4.23,4.23,0,0,0-8.23,1.96l1.592,6.68a4.186,4.186,0,0,0-3.335-1.8,11.585,11.585,0,0,0-.87-8.923l-7.02-5.814a4.229,4.229,0,0,0-5.771,6.161,4.177,4.177,0,0,0-1.127.143l-4.4,1.2h0l-4.4,1.2a4.238,4.238,0,0,0-2.993,3.079l-.46-1.106h0l-1.752-4.206a4.23,4.23,0,1,0-7.81,3.253l1.752,4.206h0l1.123,2.7a4.24,4.24,0,0,0-2.676,3.712l-.235,4.55h0l-.235,4.552a4.215,4.215,0,0,0,5.435,4.265,4.266,4.266,0,0,0-.339,2.859,4.2,4.2,0,0,0-1.8,2.035l-1.745,4.209h0l-1.745,4.211a15.31,15.31,0,0,1,8.326,6.186,4.242,4.242,0,0,0,5.931-.782l2.773-3.615h0l2.775-3.617a2.761,2.761,0,0,1,3.575-2.328l.726-.5-1.006,1.312h0l-2.773,3.616a4.23,4.23,0,1,0,6.713,5.149l2.773-3.615h0l2.774-3.617c.035-.046.065-.1.1-.143a4.22,4.22,0,0,0,.81.955l-.988,1.287a4.23,4.23,0,0,0,6.713,5.15l5.548-7.232a4.215,4.215,0,0,0-1.792-6.5c.052-.005.1-.006.154-.013A4.242,4.242,0,0,0,2213.139,1396.411Zm-38.117-4.076.08-1.552a4.052,4.052,0,0,0,1.573,1.531l-1.939,1.335A4.163,4.163,0,0,0,2175.021,1392.335Zm28.51-3.822.822,6.073a4.241,4.241,0,0,0-4.389-2.332,4.187,4.187,0,0,0,1.153-1.029l2.381-3.1C2203.5,1388.25,2203.514,1388.381,2203.531,1388.513Zm-9.6-16.412,1.065.882-1.1.755A4.187,4.187,0,0,0,2193.927,1372.1Zm.906,13.415a1.14,1.14,0,0,1,.163-2.266l3.336-2.3Zm2.759,7.918a4.259,4.259,0,0,0-3.187-.965l.091-1.139a2.172,2.172,0,1,1,3.1,2.1Zm-8.506-16.019a4.242,4.242,0,0,0,.027,4.748c.019.027.04.051.059.077a.929.929,0,1,1-.7-1.4,4.215,4.215,0,0,0-1.613-2.8l-.013-.009Zm-4.221,10.167,1.634-2.13c-.023.131-.042.265-.053.4l-.313,3.913a4.234,4.234,0,0,0-2.148-1.037l.88-1.147Zm-7.656,17.872.48-1.158a4.2,4.2,0,0,0,.206-2.573c.1-.056.194-.112.287-.177l7.509-5.167c.048-.033.091-.071.138-.106a4.22,4.22,0,0,0,.476,1.158l-1.337.92a6.393,6.393,0,0,1-5.492,4.148Zm19.909-5.195.233.979a4.21,4.21,0,0,0-1.171-.333Zm8.935,1-.325-1.363h0l-.062-.259a1.072,1.072,0,1,1,.386,1.622Zm-25.6-21.82-2.3,3h0l-2.773,3.616c-.013.016-.023.034-.035.051l.148-2.869c0-.074,0-.146,0-.219.13-.04.26-.085.388-.139a2.9,2.9,0,0,1,4.571-3.437Z" transform="translate(-2163.051 -1310.147)" fill="#eb9342"/>
          <path id="Trazado_11201" data-name="Trazado 11201" d="M2178.41,1277.805l-12.28-.016a8.693,8.693,0,0,1-8.653-8.679l.114-85.78a8.687,8.687,0,0,1,8.675-8.654l10.89.015a10.625,10.625,0,0,1,1.416,5.36l-.127,96.889Q2178.445,1277.378,2178.41,1277.805Z" transform="translate(-2156.484 -1167.258)" fill="#e58435" opacity="0.5"/>
          <path id="Trazado_11202" data-name="Trazado 11202" d="M2206.619,1154.645l-32.97-.043-18.712-.026a1.687,1.687,0,0,1-1.682-1.687l.01-8.078a1.69,1.69,0,0,1,1.688-1.682l18.686.024h0l32.992.043a1.69,1.69,0,0,1,1.682,1.687l-.01,8.078A1.69,1.69,0,0,1,2206.619,1154.645Z" transform="translate(-2153.255 -1143.128)" fill="#699ff0"/>
          <path id="Trazado_11203" data-name="Trazado 11203" d="M2173.649,1154.6l-18.712-.026a1.687,1.687,0,0,1-1.682-1.687l.01-8.078a1.69,1.69,0,0,1,1.688-1.682l18.686.024h0a1.69,1.69,0,0,1,1.678,1.687l-.01,8.078A1.691,1.691,0,0,1,2173.649,1154.6Z" transform="translate(-2153.255 -1143.128)" fill="#4a75cb"/>
        </g>
      </g>
      <g id="Grupo_24447" data-name="Grupo 24447" transform="translate(555.884 276.147)">
        <path id="Trazado_11204" data-name="Trazado 11204" d="M2472.155,1564.455a6.567,6.567,0,0,1-6.545,6.546H2434.7a6.544,6.544,0,0,1,0-13.089h30.908A6.564,6.564,0,0,1,2472.155,1564.455Z" transform="translate(-2428.159 -1557.912)" fill="#e58435"/>
        <path id="Trazado_11205" data-name="Trazado 11205" d="M2456.211,1564.455a6.564,6.564,0,0,1-6.543,6.546H2434.7a6.544,6.544,0,0,1,0-13.089h14.966A6.562,6.562,0,0,1,2456.211,1564.455Z" transform="translate(-2428.159 -1557.912)" fill="#f1a34f"/>
        <path id="Rectángulo_5722" data-name="Rectángulo 5722" d="M1.032,0H30.3a1.032,1.032,0,0,1,1.032,1.032v0A1.032,1.032,0,0,1,30.3,2.064H1.032A1.032,1.032,0,0,1,0,1.032v0A1.032,1.032,0,0,1,1.032,0Z" transform="translate(7.566 1.451)" fill="#ffe2cc" opacity="0.5"/>
      </g>
      <g id="Grupo_24448" data-name="Grupo 24448" transform="translate(78.526 233.526)">
        <path id="Trazado_11206" data-name="Trazado 11206" d="M417.077,1514.417l-13.125.855a4.743,4.743,0,0,1-5.029-4.411l-.858-13.125a4.748,4.748,0,0,1,4.414-5.029l13.124-.858a4.746,4.746,0,0,1,4.947,3.794,4.642,4.642,0,0,1,.082.62l.858,13.122A4.747,4.747,0,0,1,417.077,1514.417Z" transform="translate(-398.055 -1464.754)" fill="#699ff0"/>
        <path id="Trazado_11207" data-name="Trazado 11207" d="M416.177,1507.1c-2.1-9.028-18.032-8.165-18.111-9.367a4.748,4.748,0,0,1,4.414-5.029l13.124-.858a4.746,4.746,0,0,1,4.947,3.794C419.026,1504.185,417.232,1511.64,416.177,1507.1Z" transform="translate(-398.055 -1464.754)" fill="#4a75cb"/>
        <path id="Trazado_11208" data-name="Trazado 11208" d="M636.157,1433.195l-100.908-.278-56.927-.157a6.246,6.246,0,0,1-6.212-5.839l-1.054-16.115-.238-3.638a8.668,8.668,0,0,1,7.563-9.161l54.141-6.833,100.064-12.63,2.2,33.691Z" transform="translate(-453.694 -1378.099)" fill="#f7e0cb"/>
        <path id="Trazado_11209" data-name="Trazado 11209" d="M634.787,1412.235l-99.252-.048-60.417-.028a6.692,6.692,0,0,1-4.062-1.353l-.238-3.638a8.668,8.668,0,0,1,7.563-9.161l54.141-6.833,100.064-12.63Z" transform="translate(-453.694 -1378.099)" fill="#efcbab" opacity="0.5"/>
        <path id="Trazado_11210" data-name="Trazado 11210" d="M1169.228,1431.3l-6.811.445-1.37-20.96-2.2-33.691,6.811-.445,2.215,33.9Z" transform="translate(-979.953 -1376.651)" fill="#e58435"/>
        <path id="Trazado_11211" data-name="Trazado 11211" d="M534.968,1474l-57.3-.158a5.852,5.852,0,0,1-5.821-5.469l-.992-15.176-.413-6.326a7.194,7.194,0,0,1,6.279-7.607l55.515-7.007,1.411,21.6Z" transform="translate(-453.413 -1419.181)" fill="#f1a34f"/>
        <path id="Trazado_11212" data-name="Trazado 11212" d="M533.652,1453.856l-60.187-.165a7.145,7.145,0,0,1-2.6-.5l-.413-6.326a7.194,7.194,0,0,1,6.279-7.607l55.515-7.007Z" transform="translate(-453.413 -1419.181)" fill="#eb9342"/>
        <path id="Trazado_11213" data-name="Trazado 11213" d="M1167.872,1410.556l-6.825.231-2.2-33.691,6.811-.445Z" transform="translate(-979.953 -1376.651)" fill="#ce732e"/>
      </g>
      <g id="Grupo_24451" data-name="Grupo 24451" transform="translate(252.357 109.54)">
        <g id="Grupo_24450" data-name="Grupo 24450">
          <g id="Grupo_24449" data-name="Grupo 24449">
            <path id="Trazado_11214" data-name="Trazado 11214" d="M1208.966,859.143v87.633a9.807,9.807,0,0,1-9.778,9.778H1147.1a9.663,9.663,0,0,1-3.925-.828,9.812,9.812,0,0,1-5.854-8.95V859.143a9.807,9.807,0,0,1,9.778-9.778h52.087A9.805,9.805,0,0,1,1208.966,859.143Z" transform="translate(-1137.322 -849.365)" fill="#fcecdb"/>
            <path id="Trazado_11215" data-name="Trazado 11215" d="M1321.421,922.465a10.644,10.644,0,1,1,13.706-6.223A10.643,10.643,0,0,1,1321.421,922.465Z" transform="translate(-1272.85 -889.511)" fill="#f7e0cb"/>
            <path id="Trazado_11216" data-name="Trazado 11216" d="M1337.346,916.242l-19.929-7.483a10.644,10.644,0,1,1,19.929,7.483Z" transform="translate(-1275.069 -889.511)" fill="#efcbab"/>
            <path id="Trazado_11217" data-name="Trazado 11217" d="M1178.18,920.753a10.644,10.644,0,1,1,14.977-1.514A10.643,10.643,0,0,1,1178.18,920.753Z" transform="translate(-1165.58 -889.519)" fill="#f7e0cb"/>
            <path id="Trazado_11218" data-name="Trazado 11218" d="M1200.961,919.239l-16.491-13.462a10.644,10.644,0,1,1,16.491,13.462Z" transform="translate(-1173.384 -889.519)" fill="#efcbab"/>
          </g>
        </g>
        <path id="Trazado_11219" data-name="Trazado 11219" d="M1228.007,917.476v81.4a9.807,9.807,0,0,1-9.778,9.778h-52.087a9.665,9.665,0,0,1-3.925-.828V928.744a11.29,11.29,0,0,1,11.268-11.268Z" transform="translate(-1156.363 -901.46)" fill="#efcbab" opacity="0.5"/>
      </g>
      <g id="Grupo_24453" data-name="Grupo 24453" transform="translate(265.501 131.803)">
        <g id="Grupo_24452" data-name="Grupo 24452" transform="translate(0)">
          <path id="Rectángulo_5723" data-name="Rectángulo 5723" d="M35.822,0h0A35.822,35.822,0,0,1,71.644,35.822V71.367a35.822,35.822,0,0,1-35.822,35.822h0A35.821,35.821,0,0,1,0,71.368V35.822A35.822,35.822,0,0,1,35.822,0Z" fill="#fcecdb"/>
          <path id="Trazado_11220" data-name="Trazado 11220" d="M1377.32,1017.15a10.644,10.644,0,1,1,13.706-6.223A10.643,10.643,0,0,1,1377.32,1017.15Z" transform="translate(-1328.75 -984.196)" fill="#f7e0cb"/>
          <path id="Trazado_11221" data-name="Trazado 11221" d="M1393.245,1010.927l-19.929-7.483a10.644,10.644,0,0,1,19.929,7.483Z" transform="translate(-1330.969 -984.196)" fill="#efcbab"/>
          <path id="Trazado_11222" data-name="Trazado 11222" d="M1234.081,1015.439a10.644,10.644,0,1,1,14.977-1.515A10.644,10.644,0,0,1,1234.081,1015.439Z" transform="translate(-1221.48 -984.204)" fill="#f7e0cb"/>
          <path id="Trazado_11223" data-name="Trazado 11223" d="M1256.861,1013.925l-16.491-13.462a10.644,10.644,0,0,1,16.491,13.462Z" transform="translate(-1229.284 -984.204)" fill="#efcbab"/>
        </g>
      </g>
      <g id="Grupo_24455" data-name="Grupo 24455" transform="translate(240.287 166.758)">
        <rect id="Rectángulo_5724" data-name="Rectángulo 5724" width="81.808" height="122.088" transform="translate(6.988 0.001)" fill="#e58435"/>
        <rect id="Rectángulo_5725" data-name="Rectángulo 5725" width="81.808" height="122.089" transform="translate(18.383)" fill="#f1a34f"/>
        <path id="Trazado_11224" data-name="Trazado 11224" d="M1127.1,1099.788l-3.921,6.1h-7.475V1092.7H1127.1Z" transform="translate(-1108.722 -1092.703)" fill="#ce732e"/>
        <path id="Trazado_11225" data-name="Trazado 11225" d="M1092.979,1092.7l-6.988,9.618h11.395l6.988-9.618Z" transform="translate(-1085.991 -1092.703)" fill="#f1a34f"/>
        <path id="Trazado_11226" data-name="Trazado 11226" d="M1164.172,1116.363v116.914h42.193V1120.418Z" transform="translate(-1145.789 -1110.799)" fill="#efcbab" opacity="0.5"/>
        <g id="Grupo_24454" data-name="Grupo 24454" transform="translate(18.383)">
          <path id="Trazado_11227" data-name="Trazado 11227" d="M1245.98,1102.32l-6.638,3.564h-71.227l-3.943-6.1V1092.7Z" transform="translate(-1164.171 -1092.701)" fill="#eb9342"/>
          <path id="Trazado_11228" data-name="Trazado 11228" d="M1245.976,1092.7h-81.808l5.779,9.618h81.808Z" transform="translate(-1164.168 -1092.703)" fill="#f1a34f"/>
        </g>
      </g>
      <g id="Grupo_24458" data-name="Grupo 24458" transform="translate(211.907 217.221)">
        <g id="Grupo_24457" data-name="Grupo 24457">
          <path id="Rectángulo_5726" data-name="Rectángulo 5726" d="M35.821,0H71.368a35.822,35.822,0,0,1,35.822,35.822v0A35.822,35.822,0,0,1,71.367,71.644H35.822A35.822,35.822,0,0,1,0,35.822v0A35.821,35.821,0,0,1,35.821,0Z" fill="#fcecdb"/>
          <path id="Trazado_11229" data-name="Trazado 11229" d="M1038.4,1358.637a10.644,10.644,0,1,1-6.223-13.707A10.644,10.644,0,0,1,1038.4,1358.637Z" transform="translate(-1005.444 -1335.563)" fill="#f7e0cb"/>
          <path id="Trazado_11230" data-name="Trazado 11230" d="M1032.175,1344.93l-7.483,19.93a10.644,10.644,0,0,1,7.483-19.93Z" transform="translate(-1005.444 -1335.563)" fill="#efcbab"/>
          <path id="Trazado_11231" data-name="Trazado 11231" d="M1036.687,1501.894a10.644,10.644,0,1,1-1.514-14.976A10.644,10.644,0,0,1,1036.687,1501.894Z" transform="translate(-1005.452 -1442.851)" fill="#f7e0cb"/>
          <path id="Trazado_11232" data-name="Trazado 11232" d="M1035.173,1486.917l-13.462,16.491a10.644,10.644,0,1,1,13.462-16.491Z" transform="translate(-1005.452 -1442.851)" fill="#efcbab"/>
          <path id="Trazado_11233" data-name="Trazado 11233" d="M1314.532,1358.637a10.644,10.644,0,1,1-6.223-13.707A10.643,10.643,0,0,1,1314.532,1358.637Z" transform="translate(-1216.647 -1335.563)" fill="#f7e0cb"/>
          <path id="Trazado_11234" data-name="Trazado 11234" d="M1308.32,1344.93l-7.483,19.93a10.644,10.644,0,0,1,7.483-19.93Z" transform="translate(-1216.656 -1335.563)" fill="#efcbab"/>
          <path id="Trazado_11235" data-name="Trazado 11235" d="M1312.82,1501.891a10.638,10.638,0,0,1-14.5,1.878c-.162-.113-.32-.236-.477-.364a10.644,10.644,0,1,1,13.462-16.49c.155.128.3.256.452.391A10.643,10.643,0,0,1,1312.82,1501.891Z" transform="translate(-1216.656 -1442.848)" fill="#f7e0cb"/>
          <path id="Trazado_11236" data-name="Trazado 11236" d="M1311.759,1487.306l-13.437,16.463c-.162-.113-.32-.236-.477-.364a10.644,10.644,0,1,1,13.462-16.49C1311.461,1487.043,1311.611,1487.171,1311.759,1487.306Z" transform="translate(-1216.656 -1442.848)" fill="#efcbab"/>
          <g id="Grupo_24456" data-name="Grupo 24456" transform="translate(46.017 8.686)">
            <path id="Trazado_11237" data-name="Trazado 11237" d="M1181.262,1350.338a10.644,10.644,0,1,1-14.177-5.06A10.643,10.643,0,0,1,1181.262,1350.338Z" transform="translate(-1160.997 -1344.251)" fill="#f7e0cb"/>
            <path id="Trazado_11238" data-name="Trazado 11238" d="M1167.085,1348.622l9.117,19.237a10.644,10.644,0,1,1-9.117-19.237Z" transform="translate(-1160.997 -1347.594)" fill="#efcbab"/>
          </g>
          <path id="Trazado_11239" data-name="Trazado 11239" d="M1167.686,1505.034a10.644,10.644,0,1,1,13.837-5.927A10.643,10.643,0,0,1,1167.686,1505.034Z" transform="translate(-1114.978 -1442.84)" fill="#f7e0cb"/>
          <path id="Trazado_11240" data-name="Trazado 11240" d="M1184.011,1499.108l-19.763-7.91a10.644,10.644,0,1,1,19.763,7.91Z" transform="translate(-1117.466 -1442.84)" fill="#efcbab"/>
        </g>
      </g>
      <g id="Grupo_24460" data-name="Grupo 24460" transform="translate(310.74 146.718)">
        <g id="Grupo_24459" data-name="Grupo 24459" transform="translate(0 13.488)">
          <path id="Trazado_11241" data-name="Trazado 11241" d="M1701.852,1193.868H1551.3l-31.5-129.03h150.548Z" transform="translate(-1488.252 -1064.838)" fill="#4a75cb"/>
          <path id="Trazado_11242" data-name="Trazado 11242" d="M1385.613,1193.868h150.548l31.5-129.03H1417.111Z" transform="translate(-1385.613 -1064.838)" fill="#699ff0"/>
          <path id="Trazado_11243" data-name="Trazado 11243" d="M1429.493,1210.342h133.483l27.927-114.4H1457.421Z" transform="translate(-1419.175 -1088.625)" fill="#fcecdb"/>
          <path id="Trazado_11244" data-name="Trazado 11244" d="M2088.914,1593.619l-31.976-6.135-31.076,6.135Z" transform="translate(-1875.314 -1464.589)" fill="#35488b"/>
        </g>
        <path id="Trazado_11245" data-name="Trazado 11245" d="M2001.309,1007.477a13.946,13.946,0,0,1,13.923,13.534h-5.573a8.359,8.359,0,1,0-8.349,8.758,2.787,2.787,0,0,1,0,5.573,13.933,13.933,0,1,1,0-27.865Z" transform="translate(-1845.878 -1007.477)" fill="#1c468a"/>
        <path id="Trazado_11246" data-name="Trazado 11246" d="M1851.2,1007.477a13.946,13.946,0,0,1,13.923,13.534h-5.573a8.359,8.359,0,1,0-8.349,8.758,2.787,2.787,0,0,1,0,5.573,13.933,13.933,0,1,1,0-27.865Z" transform="translate(-1731.066 -1007.477)" fill="#1c468a"/>
        <path id="Trazado_11247" data-name="Trazado 11247" d="M1701.09,1007.477a13.946,13.946,0,0,1,13.923,13.534h-5.573a8.359,8.359,0,1,0-8.35,8.758,2.787,2.787,0,0,1,0,5.573,13.933,13.933,0,1,1,0-27.865Z" transform="translate(-1616.252 -1007.477)" fill="#1c468a"/>
        <path id="Trazado_11248" data-name="Trazado 11248" d="M1550.981,1007.477a13.947,13.947,0,0,1,13.923,13.534h-5.573a8.359,8.359,0,1,0-8.349,8.758,2.787,2.787,0,0,1,0,5.573,13.933,13.933,0,1,1,0-27.865Z" transform="translate(-1501.44 -1007.477)" fill="#1c468a"/>
        <path id="Trazado_11249" data-name="Trazado 11249" d="M1905.09,1202.095h29.96l5.427-20.23h-29.96Z" transform="translate(-1782.94 -1140.86)" fill="#efcbab"/>
        <path id="Trazado_11250" data-name="Trazado 11250" d="M1723.652,1202.095h29.96l5.427-20.23h-29.961Z" transform="translate(-1644.166 -1140.86)" fill="#efcbab"/>
        <path id="Trazado_11251" data-name="Trazado 11251" d="M1550.007,1202.095h29.96l5.427-20.23h-29.96Z" transform="translate(-1511.351 -1140.86)" fill="#efcbab"/>
        <path id="Trazado_11252" data-name="Trazado 11252" d="M1871.482,1321.417h29.96l5.426-20.23h-29.96Z" transform="translate(-1757.235 -1232.125)" fill="#efcbab"/>
        <path id="Trazado_11253" data-name="Trazado 11253" d="M1690.044,1321.417H1720l5.426-20.23h-29.96Z" transform="translate(-1618.46 -1232.125)" fill="#efcbab"/>
        <path id="Trazado_11254" data-name="Trazado 11254" d="M1516.4,1321.417h29.96l5.427-20.23h-29.96Z" transform="translate(-1485.646 -1232.125)" fill="#efcbab"/>
        <path id="Trazado_11255" data-name="Trazado 11255" d="M1836.883,1443.239h29.96l5.427-20.23h-29.96Z" transform="translate(-1730.771 -1325.301)" fill="#efcbab"/>
        <path id="Trazado_11256" data-name="Trazado 11256" d="M1655.444,1443.239H1685.4l5.427-20.23h-29.96Z" transform="translate(-1591.996 -1325.301)" fill="#efcbab"/>
        <path id="Trazado_11257" data-name="Trazado 11257" d="M1481.8,1443.239h29.96l5.427-20.23h-29.961Z" transform="translate(-1459.182 -1325.301)" fill="#efcbab"/>
        <path id="Trazado_11258" data-name="Trazado 11258" d="M2158.444,1064.838l-.422,122.895,31.976,6.135Z" transform="translate(-1976.399 -1051.35)" fill="#699ff0"/>
      </g>
      <g id="Grupo_24461" data-name="Grupo 24461" transform="translate(297.856 277.779)">
        <path id="Trazado_11259" data-name="Trazado 11259" d="M1368.025,1570.384a5.553,5.553,0,0,1-5.535,5.535h-26.136a5.534,5.534,0,0,1,0-11.068h26.136A5.551,5.551,0,0,1,1368.025,1570.384Z" transform="translate(-1330.821 -1564.851)" fill="#2b478b"/>
        <path id="Trazado_11260" data-name="Trazado 11260" d="M1354.543,1570.384a5.551,5.551,0,0,1-5.533,5.535h-12.655a5.534,5.534,0,0,1,0-11.068h12.655A5.549,5.549,0,0,1,1354.543,1570.384Z" transform="translate(-1330.821 -1564.851)" fill="#6bb7bf"/>
        <path id="Rectángulo_5727" data-name="Rectángulo 5727" d="M.873,0H25.626A.872.872,0,0,1,26.5.872v0a.873.873,0,0,1-.873.873H.873A.873.873,0,0,1,0,.873v0A.873.873,0,0,1,.873,0Z" transform="translate(6.398 1.227)" fill="#e9f3fe" opacity="0.4"/>
      </g>
      <g id="Grupo_24462" data-name="Grupo 24462" transform="translate(276.877 264.402)">
        <path id="Trazado_11261" data-name="Trazado 11261" d="M1277.481,1511.2a5.888,5.888,0,0,1-2.617,7.875l-24.772,12.414a5.867,5.867,0,0,1-5.257-10.49l24.772-12.414A5.885,5.885,0,0,1,1277.481,1511.2Z" transform="translate(-1241.601 -1507.961)" fill="#e58435"/>
        <path id="Trazado_11262" data-name="Trazado 11262" d="M1264.7,1538.428a5.885,5.885,0,0,1-2.616,7.874l-11.995,6.011a5.867,5.867,0,0,1-5.257-10.49l11.995-6.011A5.884,5.884,0,0,1,1264.7,1538.428Z" transform="translate(-1241.601 -1528.79)" fill="#f1a34f"/>
        <path id="Trazado_11263" data-name="Trazado 11263" d="M1287.818,1514.9l-.084-.168a.834.834,0,0,0-1.116-.371l-23.629,11.841a.834.834,0,0,0-.371,1.116l.084.167a.834.834,0,0,0,1.116.371l23.629-11.841A.834.834,0,0,0,1287.818,1514.9Z" transform="translate(-1257.609 -1512.787)" fill="#ffe2cc" opacity="0.5"/>
      </g>
      <g id="Grupo_24472" data-name="Grupo 24472" transform="translate(75.394 66.979)">
        <g id="Grupo_24466" data-name="Grupo 24466">
          <g id="Grupo_24463" data-name="Grupo 24463" transform="translate(22.504 29.012)">
            <path id="Trazado_11264" data-name="Trazado 11264" d="M521.492,791.746s-8.154,3.858-10.007,3.371-8.891-1.729-9.88-1.291c0,0-1.121,1.788-.275,2.964s7.694,4.358,10.168,4.473,11.864-1.586,13.856-3.142Z" transform="translate(-496.176 -791.746)" fill="#e8945b"/>
            <path id="Trazado_11265" data-name="Trazado 11265" d="M486.114,799s-3.144-1.305-4.173.153-1.613,2.935-1.485,3.682,2.251,1.076,3.1.5a20.618,20.618,0,0,1,2.951-1.392Z" transform="translate(-480.438 -796.881)" fill="#e8945b"/>
          </g>
          <path id="Trazado_11266" data-name="Trazado 11266" d="M521.827,808.018s3.636,14.676,9,25.646a40.677,40.677,0,0,0,4.878,7.952,14.575,14.575,0,0,0,2.58,2.5c9.165,6.657,23.628-3.963,23.628-3.963.517-6.455-11.183-17.286-18.666-23.757-2.938-2.542-5.225-4.411-5.866-5.079-1.243-1.294-3.889-2.079-6.653-2.556A59.892,59.892,0,0,0,521.827,808.018Z" transform="translate(-489.591 -775.179)" fill="#f579a8"/>
          <path id="Trazado_11267" data-name="Trazado 11267" d="M401.728,1571.259a13.278,13.278,0,0,1,1.774,6.067,1.306,1.306,0,0,1-1.309,1.316H391.372a1.609,1.609,0,0,1-1.563-2c.5-1.982,1.582-4.976,3.743-6.793C397,1566.948,401.728,1571.259,401.728,1571.259Z" transform="translate(-388.577 -1357.106)" fill="#163560"/>
          <path id="Trazado_11268" data-name="Trazado 11268" d="M513.474,1556.39s.622,10.033,2.563,10.177c.258.019,9.845.019,9.845.019h12.366a4.227,4.227,0,0,0-3.785-3.643c-3.577-.624-9.565-3.138-11.732-7.865C520.451,1550.1,513.474,1556.39,513.474,1556.39Z" transform="translate(-483.202 -1345.111)" fill="#163560"/>
          <g id="Grupo_24464" data-name="Grupo 24464" transform="translate(17.578 96.416)">
            <path id="Trazado_11269" data-name="Trazado 11269" d="M467,1131.283c.433,5.573.489,9.973-.083,12.059-2.552,9.331,4.6,51.465,4.6,51.465,5.273,2.522,12.76-.027,12.76-.027-.455-5.837,2.32-58.085,4.9-89.959,1.081-13.382,1.892-22.745,1.892-22.745l-31.583-3.677S465.509,1111.925,467,1131.283Z" transform="translate(-459.491 -1078.399)" fill="#2b478b"/>
            <path id="Trazado_11270" data-name="Trazado 11270" d="M459.491,1078.4s6.018,33.526,7.513,52.884l22.178-26.461c1.081-13.382,1.892-22.745,1.892-22.745Z" transform="translate(-459.491 -1078.399)" fill="#233862"/>
          </g>
          <path id="Trazado_11271" data-name="Trazado 11271" d="M424.589,1094.925s-15.987,93.091-18.738,111.117a20.193,20.193,0,0,1-12.1-.919s-.791-43.258,1.3-56.289-1.115-53.315,2.258-57.062S424.589,1094.925,424.589,1094.925Z" transform="translate(-391.518 -991.359)" fill="#2b478b"/>
          <path id="Trazado_11272" data-name="Trazado 11272" d="M472.658,769.1s1.227,8.273.69,10.744-8.757,3.814-12.195,1.773-2.4-2.8-2.4-2.8.525-9.471,1.007-10.147S472.658,769.1,472.658,769.1Z" transform="translate(-441.233 -744.915)" fill="#ffb27d"/>
          <path id="Trazado_11273" data-name="Trazado 11273" d="M400.332,880.02s2.31,1.352,8.112,2.5a98.225,98.225,0,0,0,18.882,1.568c15.522,0,20.63-4.424,20.63-4.424.835.015-2.933-21.559-2.933-39.977,0-17.033-4.988-29.784-13.586-31.278a23.788,23.788,0,0,0-2.806-.419c0,1.4-2.2,3.982-5.6,4.2-4.032.265-9.032-1.881-9.032-4.2,0-.111-9.407.464-12.409,17.733-1.025,5.884-1.3,13.705-.216,24.1C401.745,853.406,399.039,880,400.332,880.02Z" transform="translate(-396.394 -775.148)" fill="#f579a8"/>
          <path id="Trazado_11274" data-name="Trazado 11274" d="M400.332,924.5s2.31,1.352,8.112,2.5c8.019-3.552,23.937-12.733,24.559-28.148.825-20.506-24.21-32.717-24.21-32.717s-3.359,1.866-7.207,4.068c-1.025,5.884-1.3,13.705-.216,24.1C401.745,897.886,399.039,924.481,400.332,924.5Z" transform="translate(-396.394 -819.628)" fill="#dd608f"/>
          <path id="Trazado_11275" data-name="Trazado 11275" d="M475.436,775.172s-3.188,4.493-6.559,4.534-6.812-4.463-6.812-4.463Z" transform="translate(-443.881 -750.057)" fill="#e8945b"/>
          <path id="Trazado_11276" data-name="Trazado 11276" d="M469.539,715.946a21.627,21.627,0,0,1-4.468,2.288,5.522,5.522,0,0,1-3.821.081,50.706,50.706,0,0,1-5.39-2.074c-1.688-1.024-1.579-3.095-1.666-5.974-.1-3.409-.447-6.086-.067-8.051.452-2.351,1.943-3.688,6.116-4.051,7.66-.665,10.851,1.253,10.985,3.822.035.689.067,1.347.089,1.97C471.623,711.964,470.99,714.8,469.539,715.946Z" transform="translate(-437.676 -691.055)" fill="#ffb27d"/>
          <path id="Trazado_11277" data-name="Trazado 11277" d="M465.475,680.239a3.218,3.218,0,0,0-3.611-1.124c-2.358.725-2.6,2.74-6.629,2.418s-5-2.229-5.721-1.276-1.145,6.586-1.145,6.586-8.1-18.471,8.318-18.471c0,0,16.921-1.022,8.788,17.754Z" transform="translate(-431.878 -668.362)" fill="#2c3a64"/>
          <path id="Trazado_11278" data-name="Trazado 11278" d="M654.418,793.269l-.022.013C654.415,793.291,654.418,793.269,654.418,793.269Z" transform="translate(-590.988 -763.898)" fill="#ffb27d"/>
          <path id="Trazado_11279" data-name="Trazado 11279" d="M692.122,679.381c.138-.307.235-.508.235-.508A1.649,1.649,0,0,0,692.122,679.381Z" transform="translate(-619.843 -676.402)" fill="#d35c2b"/>
          <path id="Trazado_11280" data-name="Trazado 11280" d="M493.78,958.39a9.238,9.238,0,0,0,5.291,1.692s3.206-3.533,5.906-6.949c1.749-2.213,3.285-4.377,3.6-5.5.806-2.859,15.886-3.665,17.733-5.68s-7.493-7.069-7.493-7.069-15.309,2.342-17.61,5.349a42.072,42.072,0,0,0-3.589,7.641C495.64,952.9,493.78,958.39,493.78,958.39Z" transform="translate(-468.139 -872.213)" fill="#e8945b"/>
          <path id="Trazado_11281" data-name="Trazado 11281" d="M569.929,838.568s-2.9-5.633-4.335-5.469,3.294,11.66,3.724,17.247S569.929,838.568,569.929,838.568Z" transform="translate(-522.86 -794.36)" fill="#a02e2e"/>
          <path id="Trazado_11282" data-name="Trazado 11282" d="M538.541,950.958a85.044,85.044,0,0,0,4.954,9.878l.036.059h.047c.488,0,4.692-.1,5.1-1.784,0,0,.135-5.84-.1-10.48a24.54,24.54,0,0,0-.577-4.874s22.8-.153,22.4-6.6-12.318-9.86-19.169-6.516c0,0-9.085,3.3-13.866,7.662C535.017,940.444,536.462,945.93,538.541,950.958Z" transform="translate(-500.551 -867.97)" fill="#ffb27d"/>
          <path id="Trazado_11283" data-name="Trazado 11283" d="M587.712,924.14s3.035,4.461,2.323,8.623-9.371,6.386-15.431,6.651c0,0-17.332-3.972-14.644-10.882C560.569,926.966,587.712,924.14,587.712,924.14Z" transform="translate(-518.541 -863.997)" fill="#2b478b"/>
          <g id="Grupo_24465" data-name="Grupo 24465" transform="translate(43.007 1.885)">
            <path id="Trazado_11284" data-name="Trazado 11284" d="M630.621,679.815s2.753-5.789,9.4-2.343.176,16.581,3.665,19.825-1.265,5.369-.556,7.7-1.315,4.972-5.968,4.661-9.553-.06-11.655-4.131-1.624-13.028-.812-14.287S630.621,679.815,630.621,679.815Z" transform="translate(-610.75 -676.377)" fill="#aa443e"/>
            <path id="Trazado_11285" data-name="Trazado 11285" d="M606.313,776.3l11.306-6.823c-.063-.025-.291-.366-1.136-2.812a13.649,13.649,0,0,1-.645-2.665c-.009-.072-.019-.141-.025-.21a7.289,7.289,0,0,1-.031-1.644l-2.477.9-4.581,1.66a5.673,5.673,0,0,1-.357,2.539,2.04,2.04,0,0,1-1.744,1.371Z" transform="translate(-597.218 -741.981)" fill="#ffb27d"/>
            <path id="Trazado_11286" data-name="Trazado 11286" d="M615.049,770.157a8.494,8.494,0,0,0,7.471-3.241c.081-.106.122-.166.122-.166l-.147-.044c-.36-.107-1.337-.4-2.508-.748l-4.581,1.66A5.674,5.674,0,0,1,615.049,770.157Z" transform="translate(-603.9 -744.894)" fill="#ed985f"/>
            <path id="Trazado_11287" data-name="Trazado 11287" d="M600.226,725.18s9.836,1.081,10.037-5.57,1.655-9.694-5.15-10.287-8.413,1.859-8.814,4.109C595.046,720.461,597.455,724.882,600.226,725.18Z" transform="translate(-589.298 -701.507)" fill="#ffb27d"/>
            <path id="Trazado_11288" data-name="Trazado 11288" d="M604.3,693.749c3.481-.881,2.15,5.285,3.029,4.863.984-.472,2.675-.465,2.408.723a22.849,22.849,0,0,1-.853,2.355c-.2.742,0,2.211.811,1.915s8.336-8.891,3.021-15.586-21.162-2.57-16.171,4.432C597.418,693.683,601.818,694.377,604.3,693.749Z" transform="translate(-589.01 -682.685)" fill="#aa443e"/>
            <path id="Trazado_11289" data-name="Trazado 11289" d="M570.287,821.693a16.937,16.937,0,0,0,7.609,1.495,52.906,52.906,0,0,0,13.307-2.794c2.307-.83,3.884-1.718,3.694-2.463-.273-1.074-2.248-9.318-4.074-16.947-1.669-6.976-3.213-13.437-3.213-13.437s-4.606,3.273-7.291,2.119-2.34-2.461-2.34-2.461a32.634,32.634,0,0,0-4.021-.287,54.569,54.569,0,0,0-6.207,1.925s-.636,1.787,1.05,4.576c1.4,2.31,2.755,2.758,2.755,2.758S567.6,808.639,570.287,821.693Z" transform="translate(-567.633 -760.912)" fill="#6bb7bf"/>
            <path id="Trazado_11290" data-name="Trazado 11290" d="M625.493,886.933s-2.841-.53-3.952.2-1.44,1.866-.64,2.331a5.177,5.177,0,0,0,5.049-.154Z" transform="translate(-608.038 -837.28)" fill="#ffb27d"/>
            <path id="Trazado_11291" data-name="Trazado 11291" d="M659.784,861.062c2.307-.83,3.884-1.718,3.694-2.463-.273-1.074-2.248-9.318-4.074-16.946-.539-.989-.882-1.58-.882-1.58S655.059,855.908,659.784,861.062Z" transform="translate(-636.214 -801.581)" fill="#599dad"/>
            <path id="Trazado_11292" data-name="Trazado 11292" d="M642.485,793.431s8.75,1.852,12.2,15.454a4.125,4.125,0,0,1-.931,3.771c-1.586,1.758-5.085,4.33-13.218,5.276-.888.1-1.008-2.15-1.008-2.15.088.18,5.526-3.513,7.84-5.5a1.277,1.277,0,0,0,.1-1.573,36.985,36.985,0,0,1-2.535-4.315C644.288,802.853,640.039,794.132,642.485,793.431Z" transform="translate(-622.623 -765.907)" fill="#ffb27d"/>
            <path id="Trazado_11293" data-name="Trazado 11293" d="M649.309,789.646s5.144.366,9.339,5.959c0,0-1.419,5.145-8.083,6.518C650.564,802.123,646.457,792.86,649.309,789.646Z" transform="translate(-629.333 -763.012)" fill="#6bb7bf"/>
          </g>
          <path id="Trazado_11294" data-name="Trazado 11294" d="M546.295,1013.722a85.026,85.026,0,0,0,4.954,9.878c.027.019.055.039.082.06.488-.005,4.692-.1,5.1-1.784,0,0,.135-5.84-.1-10.48C555.668,1012.036,553.086,1013.951,546.295,1013.722Z" transform="translate(-508.306 -930.734)" fill="#ebf2f9"/>
          <path id="Trazado_11295" data-name="Trazado 11295" d="M493.78,1000.644a9.238,9.238,0,0,0,5.291,1.692s3.206-3.533,5.906-6.95a29.524,29.524,0,0,1-7.357-5.26C495.64,995.154,493.78,1000.644,493.78,1000.644Z" transform="translate(-468.139 -914.467)" fill="#ebf2f9"/>
          <path id="Trazado_11296" data-name="Trazado 11296" d="M539.739,1062.555a.966.966,0,0,0,1.148.767,44.679,44.679,0,0,0,4.482-1.087c1.339-.487,3.909-2.005,5.248-2.493.46-.167,1.567-.614,2.283-.905a.8.8,0,0,0,.467-.963,16.909,16.909,0,0,0-1.351-3.371,1.229,1.229,0,0,0-.559-.5,5.2,5.2,0,0,1-3.256,1.177,7.127,7.127,0,0,1-2.937-.619c-.091.187-1.918,3.871-3.212,4.342A3.21,3.21,0,0,0,539.739,1062.555Z" transform="translate(-503.247 -963.326)" fill="#2b478b"/>
          <path id="Trazado_11297" data-name="Trazado 11297" d="M458.237,1025.761a.967.967,0,0,0,.427,1.313,44.512,44.512,0,0,0,4.192,1.922c1.353.447,4.311.847,5.665,1.294.465.153,1.611.488,2.353.7a.8.8,0,0,0,.963-.467,16.924,16.924,0,0,0,1.027-3.484,1.23,1.23,0,0,0-.132-.735,5.2,5.2,0,0,1-3.285-1.093,7.129,7.129,0,0,1-1.923-2.305c-.187.091-3.9,1.851-5.211,1.419A3.211,3.211,0,0,0,458.237,1025.761Z" transform="translate(-440.868 -939.54)" fill="#2b478b"/>
          <path id="Trazado_11298" data-name="Trazado 11298" d="M537.036,943.024s.656,3.8,3.128,5.552c0,0,10.039-1.381,19.385-3.745,6.87-1.737,13.369-4,15.227-6.646,4.39-6.231-2.3-13.815-2.3-13.815s-12.888,6.219-26.842,13.839C542.78,939.769,539.88,941.389,537.036,943.024Z" transform="translate(-501.224 -864.172)" fill="#bc3f3f"/>
          <path id="Trazado_11299" data-name="Trazado 11299" d="M596.516,1027.314s2.982.242,4.109,1.37,2.837,4.409,1.62,5.71-7.019-1.551-7.18-2.019S596.516,1027.314,596.516,1027.314Z" transform="translate(-545.599 -942.91)" fill="#ffb27d"/>
          <path id="Trazado_11300" data-name="Trazado 11300" d="M537.036,988.039s.656,3.8,3.128,5.552c0,0,10.039-1.381,19.385-3.745-4.393-3.819-10.134-5.721-13.912-6.622C542.78,984.784,539.88,986.4,537.036,988.039Z" transform="translate(-501.224 -909.188)" fill="#a02e2e"/>
          <path id="Trazado_11301" data-name="Trazado 11301" d="M436.053,858.742c-14.021-10.182-23.97-13.892-24.257-13.864-1.776-7.427-3.389-18.984-10.1-36.605,0,0-13.2.182-15.206,4.949-2.866,6.809-4.947,28.9,16.884,43.157q.194.135.418.272l.18.117.012,0c6.747,3.956,30.906,9.288,30.906,9.288A8.078,8.078,0,0,0,436.053,858.742Z" transform="translate(-384.734 -775.374)" fill="#f579a8"/>
        </g>
        <g id="Grupo_24468" data-name="Grupo 24468" transform="translate(69.901 22.414)">
          <path id="Trazado_11302" data-name="Trazado 11302" d="M754.392,768.451c-.086-.472-1.2-5.53-9.02-4.667,0,0,3.9-.1,4.8,1.488,0,0-2.909-1.7-4.935-.724s-2.733,4.878-2.568,6.1,1.917,5,3.313,5.138a4.157,4.157,0,0,0,1.632-.235,18.571,18.571,0,0,0-.775,2.019c-2.181,6.828,1.928,12.6,4.458,11.526,1.623-.687,2.518,2.123,2.518,2.123l14.463-15.646S760.451,763.992,754.392,768.451Z" transform="translate(-728.388 -763.685)" fill="#2c3a64"/>
          <path id="Trazado_11303" data-name="Trazado 11303" d="M778.648,1229.833l-3.518,1.31s-15.278-21.19-17.159-39.834a28.32,28.32,0,0,1,.5-9.532s-.149-.853-.411-2.361c-.121-.7-.27-1.551-.439-2.522-.5-2.846-1.18-6.74-1.962-11.174-1.8-10.2-4.127-23.247-5.936-32.836l.948-.3,10.255-3.308,2.119-6.732,7.636-2.01s1.706,3.337,3.231,19.1c.281,2.068.537,4.348.729,6.821a134.981,134.981,0,0,1-.727,27.612q-.526,4.11-1.341,8.474a37.815,37.815,0,0,0-.293,8.369C773.054,1206.147,778.648,1229.833,778.648,1229.833Z" transform="translate(-733.803 -1036.621)" fill="#bc3f3f"/>
          <path id="Trazado_11304" data-name="Trazado 11304" d="M774.645,1146.451l-16.582,32.965c-.121-.7-.27-1.551-.439-2.522-.5-2.846-1.18-6.74-1.962-11.174-1.8-10.2-4.127-23.247-5.936-32.836l.948-.3,10.255-3.308,2.119-6.732,7.636-2.01s1.706,3.337,3.231,19.1C774.2,1141.7,774.452,1143.978,774.645,1146.451Z" transform="translate(-733.803 -1036.621)" fill="#a02e2e"/>
          <path id="Trazado_11305" data-name="Trazado 11305" d="M717.5,1112.29l-.018.078c-.053.218-.215.885-.447,1.839-1.1,4.537-3.8,15.55-3.958,15.541-1.478,10.328-3.7,23.709-6.463,33.995-1.461,5.439-3.071,10.014-4.806,12.812a23.922,23.922,0,0,0-1.92,4.615c-3.99,12.063-8.9,39.366-8.9,39.366l-2.239.9s-8.628-24.535-1.152-44.456a37.824,37.824,0,0,1,2.813-5.914,1.149,1.149,0,0,0,.186-.712.024.024,0,0,0,0-.009c-.1-.829-.34-2.907-.614-5.827-.763-8.057-1.492-35.284-1.89-41.691a34.15,34.15,0,0,1,.186-6.505,24.378,24.378,0,0,1,2.609-8.5,13.8,13.8,0,0,1,2.618-3.6s17.183,6.481,23.614,4.772Z" transform="translate(-683.951 -1024.15)" fill="#bc3f3f"/>
          <path id="Trazado_11306" data-name="Trazado 11306" d="M729.6,1125.634c-.138.1-.285.2-.445.29-5.926,3.463-26.714,2.246-28.759,2.117a24.377,24.377,0,0,1,2.609-8.5c8.892.789,23.629,2.39,26.6,4.541C730.275,1124.574,730.343,1125.092,729.6,1125.634Z" transform="translate(-696.071 -1035.867)" fill="#a02e2e"/>
          <path id="Trazado_11307" data-name="Trazado 11307" d="M858.966,978.989l-1.043,3.085s-.21-.037-.572-.13c-1.138-.286-3.913-.949-7.022-1.861-4.683-1.331-10.191-3.189-12.193-4.984-3.054-2.714-7.53-10.148-10.04-17.228a4.264,4.264,0,0,1-.177-.519c-1.3-3.75-2.026-7.371-1.644-10.088a13.772,13.772,0,0,1,1.22-4.216,11.129,11.129,0,0,1,2.638-3.528,1.988,1.988,0,0,1,.447-.38c1.526-1.266,2.6-2.126,2.6-2.126.676-.149,1.572.741,2.142,1.629a23.071,23.071,0,0,1,1.321,3.024c.021.031.043.062.038.088.088.259.172.545.278.862a.671.671,0,0,1,.071.2q.269.982.525,2.042c1.957,7.6,3.472,18.857,5.756,22.541.985,1.584,6.136,5.272,10.257,8.07C856.535,977.469,858.966,978.989,858.966,978.989Z" transform="translate(-792.274 -896.246)" fill="#ed985f"/>
          <path id="Trazado_11308" data-name="Trazado 11308" d="M773,896.314a20.024,20.024,0,0,1-7.081,2.781c-10.855,2.188-14.731-7.044-16.107-13.344a9.273,9.273,0,0,1,3.686-1.02c.782-.07,1.6-.108,2.283-.122,1.237-.893,3.149-4.639,3.714-10.522l.5.151,8.434,2.566s-.466,2.691-.728,5.239c-.2,1.994-.281,3.9.084,4.381.659.163,1.055.268,1.055.268a.019.019,0,0,0,0,.008A54.742,54.742,0,0,1,773,896.314Z" transform="translate(-733.868 -848.127)" fill="#ffb27d"/>
          <path id="Trazado_11309" data-name="Trazado 11309" d="M740.045,937.719c-.051.231-.111.457-.178.69-1.9,6.37-3.446,31.838-3.446,31.838,1.376,4.339-33.532,3.976-34.207-.058-1.825-4.117,2.642-11.805,5.224-15.712a9.926,9.926,0,0,0,.832-1.542,9.807,9.807,0,0,0,.806-4.284,142.626,142.626,0,0,0-1.661-14.445h0c.538-.534,1.06-1.03,1.546-1.5a15.594,15.594,0,0,0,1.85-2.05,3.217,3.217,0,0,0,.721-2.133,10.72,10.72,0,0,0-.285-1.659c-.064-.26-.137-.52-.215-.778a22.8,22.8,0,0,0-2.354-5.064c2.764-1.614,8.087-1.664,8.087-1.664s.036.291.1.766c.26,1.909.988,6.8,1.733,7.642.932,1.043,15.651,4.069,16.163,2.4.5-1.646-2.536-8.573-2.649-8.835a.018.018,0,0,1,0-.008c4.95,1.159,6.848,2.459,6.848,2.459C736.4,926.013,741.388,931.613,740.045,937.719Z" transform="translate(-697.136 -882.75)" fill="#2b478b"/>
          <path id="Trazado_11310" data-name="Trazado 11310" d="M801.563,877.3s-.467,2.689-.728,5.239c-4.8-.618-6.907-5.266-7.706-7.8Z" transform="translate(-767 -848.622)" fill="#ed985f"/>
          <path id="Trazado_11311" data-name="Trazado 11311" d="M799.875,832.34s-11.412-.953-10.709-8.051-.3-12,7.019-11.692,8.461,3.156,8.8,5.582S802.861,832.4,799.875,832.34Z" transform="translate(-763.945 -801.085)" fill="#ffb27d"/>
          <path id="Trazado_11312" data-name="Trazado 11312" d="M793.77,808.844c-1.547-2.311-2.925-1.976-3.735-1.409-5.885-4.047-12.174-.208-12.174-.208a30.635,30.635,0,0,1-3.466,8.386s1.948,1.491,6.859.739a8.178,8.178,0,0,0,4.146-2.288,26.714,26.714,0,0,1-5.134,5.129c5.983-2.071,9.076-9.794,9.389-10.612a8.972,8.972,0,0,1,2.153,3.56c.387,1.864.27,5.61,1.367,5.592C793.174,817.734,796.091,812.31,793.77,808.844Z" transform="translate(-752.671 -795.73)" fill="#2c3a64"/>
          <path id="Trazado_11313" data-name="Trazado 11313" d="M744.328,1000.029c-6.743.906-13.459-5.258-17.754-10.34a9.808,9.808,0,0,0,.806-4.284,142.606,142.606,0,0,0-1.661-14.445h0c.538-.534,1.06-1.03,1.546-1.5a15.59,15.59,0,0,0,1.85-2.05C735.98,975.927,753.47,998.8,744.328,1000.029Z" transform="translate(-715.44 -919.505)" fill="#233862"/>
          <g id="Grupo_24467" data-name="Grupo 24467" transform="translate(8.395 38.049)">
            <path id="Trazado_11314" data-name="Trazado 11314" d="M761.831,987.716l1.193,4.048s-3.01-.685-4.9-.869c-.566-.057-.891-.108-.891-.108-1.511-.163-3.323-.406-5.295-.663l-.027,0c-3.385-.507-7.18-1.14-10.4-1.93a27.925,27.925,0,0,1-5.619-1.943,3.121,3.121,0,0,1-.394-.234c-3.3-1.984-7.561-8.294-11.042-15.152-.483-.947-.941-1.9-1.393-2.819a72.717,72.717,0,0,1-3.9-9.816,28.452,28.452,0,0,1-1.134-4.737,11.846,11.846,0,0,1-.143-1.351c-.019-.245-.035-.485-.045-.717a12.267,12.267,0,0,1,8.6-3.121c.087.149.174.3.261.454,1.808,3.29,3.783,7.58,5.651,11.854,1.033,2.341,2.036,4.686,3.025,6.845.569,1.313,1.131,2.547,1.656,3.677a36.618,36.618,0,0,0,2.677,4.977,12.878,12.878,0,0,0,3.518,2.662,119.141,119.141,0,0,0,11.067,5.612c1.559.72,3.031,1.368,4.254,1.9C760.528,987.161,761.831,987.716,761.831,987.716Z" transform="translate(-717.813 -942.931)" fill="#ed985f"/>
            <path id="Trazado_11315" data-name="Trazado 11315" d="M726.6,931.34c-5.228-.964-8.82,3.364-8.82,3.364-.6-7.684,3.128-9.067,3.128-9.067C722.388,924.867,724.4,927.375,726.6,931.34Z" transform="translate(-717.711 -925.499)" fill="#2b478b"/>
          </g>
          <path id="Trazado_11316" data-name="Trazado 11316" d="M699.822,1578H682.1a9.728,9.728,0,0,1,.5-4.748c.887-1.966,2.275-2.859,1.943-5.237a6.381,6.381,0,0,0,5.522,2.112,19.43,19.43,0,0,0,3.074,3.985C694.3,1574.947,699.465,1574.651,699.822,1578Z" transform="translate(-682.008 -1378.887)" fill="#233862"/>
          <path id="Trazado_11317" data-name="Trazado 11317" d="M861.3,1580.588H843.585s-.662-2.826.5-4.748c1.029-1.7.635-2.671-.127-4.078a6.879,6.879,0,0,0,2.984.562,6.242,6.242,0,0,0,2.635-.927,63.736,63.736,0,0,0,5.048,5.3C855.782,1577.531,860.945,1577.235,861.3,1580.588Z" transform="translate(-805.448 -1381.472)" fill="#233862"/>
          <path id="Trazado_11318" data-name="Trazado 11318" d="M823.235,877.75s.16.939,2.472.941c0,0,1.941,0,1.946-1.019A6.233,6.233,0,0,0,823.235,877.75Z" transform="translate(-790.027 -850.6)" fill="#fff"/>
        </g>
        <g id="Grupo_24471" data-name="Grupo 24471" transform="translate(101.476 76.213)">
          <path id="Trazado_11319" data-name="Trazado 11319" d="M1011.578,1005.856c-.749-.288-1.671,2.88-2.247,3s-.346-.864-.861-1.018-.752,2.573-.349,3.623a6.552,6.552,0,0,1,.346,2.3s-3.428,13.239-4.165,14.72-12.82,12.259-12.82,12.259l2.657,8.584s14.232-13.15,15.445-16.243,1.762-18.969,1.762-18.969a16.5,16.5,0,0,0,1.295-4.593C1012.872,1007.21,1012.327,1006.144,1011.578,1005.856Z" transform="translate(-950.288 -1002.696)" fill="#ffb27d"/>
          <path id="Trazado_11320" data-name="Trazado 11320" d="M840.639,1029.564s-8.375-10.845-12.451-14.21c0,0-5.575-13.747-6.028-14.653a.426.426,0,0,0-.081-.109,7.259,7.259,0,0,1-.041-2.526c.245-1.241-.543-4.217-1.085-3.948s-.1,1.311-.758,1.294-2.292-3.351-3.067-2.888-1.174,1.749-.474,4.259a18.3,18.3,0,0,0,2.194,4.653l-.035.02s2.048,13.363,4.207,17.325,8.856,17.256,13.583,17.75S840.639,1029.564,840.639,1029.564Z" transform="translate(-816.292 -992.479)" fill="#ffb27d"/>
          <path id="Trazado_11321" data-name="Trazado 11321" d="M1004.751,1581.947a4.821,4.821,0,0,0,3.042,2.3,5.249,5.249,0,0,1,3.155,1.938,1.23,1.23,0,0,1-.989,1.96h-10.64a1.53,1.53,0,0,1-1.523-1.683c.079-.788.162-1.706.2-2.41a4.532,4.532,0,0,1,1.618-2.774Z" transform="translate(-955.111 -1442.83)" fill="#d3671e"/>
          <path id="Trazado_11322" data-name="Trazado 11322" d="M961.872,1377.987s-2.553,1.508-6.872.6c0,0-7.343-18.778-7.778-27.614-.02-.355-.026-.693-.02-1.014.148-8.311-7.525-29.952-5.456-34.386s18.794,1.993,18.794,1.993l.332,15.08Z" transform="translate(-911.976 -1238.406)" fill="#35488b"/>
          <path id="Trazado_11323" data-name="Trazado 11323" d="M960.872,1332.644l-13.65,18.327c-.02-.355-.026-.693-.02-1.014.148-8.311-7.525-29.952-5.456-34.386s18.794,1.993,18.794,1.993Z" transform="translate(-911.976 -1238.406)" fill="#2c3a64"/>
          <path id="Trazado_11324" data-name="Trazado 11324" d="M887.92,1581.947a4.82,4.82,0,0,0,3.042,2.3,5.249,5.249,0,0,1,3.155,1.938,1.23,1.23,0,0,1-.989,1.96H882.488a1.529,1.529,0,0,1-1.522-1.683c.079-.788.162-1.706.2-2.41a4.532,4.532,0,0,1,1.618-2.774Z" transform="translate(-865.752 -1442.83)" fill="#d3671e"/>
          <path id="Trazado_11325" data-name="Trazado 11325" d="M903.146,1313.687s-14.78,55.157-15.233,60.555c0,0-2.883,1.479-7.563-1.133,0,0-2.717-24.722,0-31.478s-.539-27.176,6.373-31.782S903.146,1313.687,903.146,1313.687Z" transform="translate(-864.363 -1234.17)" fill="#35488b"/>
          <path id="Trazado_11326" data-name="Trazado 11326" d="M953.3,1103.8l-9.075,4.638-1.819-6.3a19.291,19.291,0,0,0,1.679-5.748,23.96,23.96,0,0,0,.188-5.182l7.394,3.786a14.049,14.049,0,0,0-.294,1.693,12.31,12.31,0,0,0,.128,3.957A5.476,5.476,0,0,0,953.3,1103.8Z" transform="translate(-912.748 -1067.998)" fill="#ffb27d"/>
          <path id="Trazado_11327" data-name="Trazado 11327" d="M905.443,1134.211c.05-.755,4.594-3.824,4.594-3.824a12.8,12.8,0,0,0-2.695-9.868l-5.472,3.893a2.683,2.683,0,0,0-1.51.448,17.7,17.7,0,0,0-3.608-.029c.04,1.3-.307,2.524-2.6,2.824-3.046.4-5.769-1.681-7.148-3.094a11.565,11.565,0,0,0-4.16.594,6.215,6.215,0,0,0-2.315-.609l-4.479-4.026s-5.248,1.515-6.076,9.424c0,0,5.892,4.483,6.317,8.025h0l.161,1.342.571,4.756,1,8.342-2.992,16.615a2.484,2.484,0,0,0-.04.434,2.45,2.45,0,0,0,1.876,2.378s.257.043.731.109c3.172.445,16.047,1.981,26.142-.76a4.9,4.9,0,0,0,3.577-5.13l-2.136-26.8h0S905.392,1134.966,905.443,1134.211Z" transform="translate(-857.354 -1090.411)" fill="#6bb7bf"/>
          <path id="Trazado_11328" data-name="Trazado 11328" d="M898.029,1235.272c-.2,5.8-.768,10.709-4.085,12.545-.474-.066-.731-.109-.731-.109a2.449,2.449,0,0,1-1.876-2.378,2.483,2.483,0,0,1,.04-.434l2.992-16.615-1-8.342.074-.223S898.283,1227.849,898.029,1235.272Z" transform="translate(-873.691 -1166.283)" fill="#599dad"/>
          <path id="Trazado_11329" data-name="Trazado 11329" d="M956.958,1117.508c-4.2-.112-7.415-4.253-7.415-4.253l7.287.3A12.305,12.305,0,0,0,956.958,1117.508Z" transform="translate(-918.21 -1084.856)" fill="#ea9c68"/>
          <g id="Grupo_24470" data-name="Grupo 24470" transform="translate(22.817 6.962)">
            <path id="Trazado_11330" data-name="Trazado 11330" d="M949.031,1064.829s-8.387,2.214-11.28-4.455c-3.122-7.2.3-12.441,3.151-12.795,5.679-.705,8.978,1.46,9.976,3.749S953.658,1063.648,949.031,1064.829Z" transform="translate(-931.061 -1041.481)" fill="#ffb27d"/>
            <path id="Trazado_11331" data-name="Trazado 11331" d="M975.613,1101.952s.351.865,2.563.38c0,0,1.858-.407,1.647-1.385A6.109,6.109,0,0,0,975.613,1101.952Z" transform="translate(-960.968 -1082.359)" fill="#fff"/>
            <g id="Grupo_24469" data-name="Grupo 24469">
              <path id="Trazado_11332" data-name="Trazado 11332" d="M921.517,1043.312a15.555,15.555,0,0,1-.866-4.427s-2.189-2.791-.914-3.481,1.963.961,2.256.636.748-5.808,2.3-5.635,7.278,1.949,9.79-.217-3.582-10.629-13.908-7.36S911.953,1037.578,921.517,1043.312Z" transform="translate(-913.33 -1022.086)" fill="#2c3a64"/>
              <path id="Trazado_11333" data-name="Trazado 11333" d="M920.116,1036.611a3.632,3.632,0,0,1,.034-2.392,3.821,3.821,0,0,0,.564,1.983C921.253,1036.813,920.116,1036.611,920.116,1036.611Z" transform="translate(-918.369 -1031.366)" fill="#2c3a64"/>
              <path id="Trazado_11334" data-name="Trazado 11334" d="M915.558,1040.217a2.06,2.06,0,0,0-1.88.838,1.642,1.642,0,0,1,1.809.037Z" transform="translate(-913.596 -1035.948)" fill="#2c3a64"/>
            </g>
          </g>
        </g>
        <path id="Trazado_11335" data-name="Trazado 11335" d="M904.913,1115.962s5.2,1.069,5.659,1.626,3.736,4.424,2.229,4.883-4.349-.468-5.165-.861a4.785,4.785,0,0,1-1.53-1.6Z" transform="translate(-782.598 -1010.714)" fill="#ed985f"/>
      </g>
      <g id="Grupo_24477" data-name="Grupo 24477" transform="translate(376.485 63.816)">
        <g id="Grupo_24473" data-name="Grupo 24473" transform="translate(17.077 109.114)">
          <path id="Trazado_11336" data-name="Trazado 11336" d="M1961.406,1539.8s3.423,3.173,2.755,5.427-3.757,3.757-4.175,6.512S1957.9,1556,1956.4,1556h-7.165s-1.106-1.939,1.565-2.523,3.679-3.822,3.512-6.828a53.791,53.791,0,0,1,.25-7.014l5.677-1.336Z" transform="translate(-1899.351 -1439.694)" fill="#2c3a64"/>
          <path id="Trazado_11337" data-name="Trazado 11337" d="M1757.229,1579.82a1.153,1.153,0,0,1-.225.077h-19.165c.167-.678.781-1.968,3.025-2.332,2.993-.485,8.178-2.225,9.336-6.051.036-.123.07-.25.1-.378.919-4.09,7.6,1.253,7.6,1.253s.02.163.049.44C1758.1,1574.329,1758.5,1579.185,1757.229,1579.82Z" transform="translate(-1737.839 -1463.63)" fill="#2c3a64"/>
          <path id="Trazado_11338" data-name="Trazado 11338" d="M1754.084,1142.009s1.014,12.657,2.207,27.871c1.62,20.667,3.569,46.053,3.762,50.862.333,8.351,1.67,21.709,1.67,21.709s3.171,3.173,9.519,1.836a218.524,218.524,0,0,0,7.271-39.245c.025-.331.05-.664.075-1,1.5-20.539,3.84-63.789,3.84-63.789Z" transform="translate(-1750.264 -1135.246)" fill="#35488b"/>
          <path id="Trazado_11339" data-name="Trazado 11339" d="M1754.084,1142.009s1.014,12.657,2.207,27.871l22.222,35.162c.025-.331.05-.664.075-1,1.5-20.539,3.84-63.789,3.84-63.789Z" transform="translate(-1750.264 -1135.246)" fill="#2c3a64"/>
          <path id="Trazado_11340" data-name="Trazado 11340" d="M1773.786,1127.217s18.285,45.838,30.308,67.379,15.78,27.553,15.78,27.553,6.888-2.755,7.514-4.634c0,0-4.6-41.586-12.649-51.724-4.55-5.728-9.894-22.918-10.144-28.93s-1.628-17.909-1.628-17.909Z" transform="translate(-1765.333 -1118.951)" fill="#35488b"/>
        </g>
        <g id="Grupo_24476" data-name="Grupo 24476">
          <path id="Trazado_11341" data-name="Trazado 11341" d="M1801.723,750.753c6.8,2.145,18.569-3.646,18.569-3.646a17.347,17.347,0,0,1-5.9-12.242c-.01-.114-.017-.227-.021-.342-.035-.612-.044-1.25-.022-1.908l-1.862,1.5-6.968,5.618s.357,2.769.5,7.385a14.527,14.527,0,0,0-2.659,1.87A10.652,10.652,0,0,0,1801.723,750.753Z" transform="translate(-1769.625 -714.343)" fill="#f4ac75"/>
          <path id="Trazado_11342" data-name="Trazado 11342" d="M1803.094,788.876s-17.976-2.836-29.819,5c0,0-8.046,52.6-1.04,57.577s30.859,0,30.859,0Z" transform="translate(-1744.879 -756.993)" fill="#f4ac75"/>
          <path id="Trazado_11343" data-name="Trazado 11343" d="M1810.714,905.371H1843.2s-3.775-55.429-4.853-68.922c-.875-10.944-2.727-37.185-3.4-46.712l-.247-3.533-7.755-1.321-13.32,17.263s-2.107,46.038-2.03,53.294-.841,35.529-.884,40.283S1810.714,905.371,1810.714,905.371Z" transform="translate(-1776.487 -754.321)" fill="#e9f2ff"/>
          <path id="Trazado_11344" data-name="Trazado 11344" d="M1763.907,809.339l-2.913,103.224h-15.3s.708-67.891.76-74.128-1.663-33.108,3.113-37.278c3.993-3.486,13.6-6.87,13.6-6.87Z" transform="translate(-1726.767 -761.513)" fill="#e9f2ff"/>
          <path id="Trazado_11345" data-name="Trazado 11345" d="M1805.906,784.156s-4.363,3.006-4.2,4.086a20.185,20.185,0,0,0,.763,2.786l2.669-.542-2.252,1.585s2.554,7.448,3.863,9.521Z" transform="translate(-1769.608 -753.765)" fill="#e9f2ff"/>
          <path id="Trazado_11346" data-name="Trazado 11346" d="M1849.227,902.357c-1.91-11.741-23.984,5.609-22.149,21.008,3.395,28.489,17.851,60.255,28.568,68.9Z" transform="translate(-1788.935 -841.219)" fill="#b2cbfd" opacity="0.2"/>
          <path id="Trazado_11347" data-name="Trazado 11347" d="M1826.742,739.742a.82.82,0,0,1,.1-.315l-.12-.027-1.883-.409-6.968,5.618s.3,2.616.517,7.4C1818.4,751.982,1825.566,748.017,1826.742,739.742Z" transform="translate(-1781.974 -719.22)" fill="#c97c47"/>
          <path id="Trazado_11348" data-name="Trazado 11348" d="M1790.638,702.887s12.131-.34,11.8-7.891,1.017-12.681-6.742-12.783-9.138,2.844-9.641,5.391S1787.474,702.781,1790.638,702.887Z" transform="translate(-1757.581 -675.792)" fill="#f4ac75"/>
          <path id="Trazado_11349" data-name="Trazado 11349" d="M1789.744,675.117a2.8,2.8,0,0,1-2.831-1.251c-1.251-1.668-3.336-8.09-6.089-8.507s-6.38,1.626-7.551.459c-1.705-1.7-3.905-4.487-3.905-4.487s13.652-9.733,19.1-5.229S1795.827,667.193,1789.744,675.117Z" transform="translate(-1744.878 -654.911)" fill="#2c3a64"/>
          <g id="Grupo_24474" data-name="Grupo 24474" transform="translate(35.307 47.804)">
            <path id="Trazado_11350" data-name="Trazado 11350" d="M1816.018,961.457a170.576,170.576,0,0,0,.759-19.538c-.128-3.818-.02-8.307.084-12.649.149-6.192.482-12.156-.018-16.044-.856-6.654-.685-36.9-.334-40.178a26.12,26.12,0,0,0-.3-7.759c-.323-1.077,1.061-6.975,1.076-7.035l-.162-.042c-.064.247-1.557,6.056-1.22,7.178a24.3,24.3,0,0,1,.442,7.641c-.352,3.281-1.025,33.521-.167,40.182a117.881,117.881,0,0,1,.519,16.054c-.1,4.343-.213,8.835-.085,12.658a128.748,128.748,0,0,1-1.24,19.533Z" transform="translate(-1815.369 -858.212)" fill="#b2cbfd"/>
          </g>
          <path id="Trazado_11351" data-name="Trazado 11351" d="M1697.975,944.174s-4.11,7.075.2,8.937,4.775-.1,4.775-.1Z" transform="translate(-1688.919 -876.157)" fill="#e9f2ff"/>
          <path id="Trazado_11352" data-name="Trazado 11352" d="M1848.284,825.774a5.967,5.967,0,0,0-.58,2.53,17.23,17.23,0,0,0,.663,3.142s25.375,5.4,30.306.886c5.294-4.848-4.529-41.27-8.733-44.833-1.812-1.536-5.631-2.474-9.158-3.034-1.943-.31-3.8-.505-5.176-.624-1.421-.123-2.342-.163-2.342-.163l.572,2.115,2.225,8.224,2.594,9.591s7.756,15.965,8.007,17.467S1848.284,825.774,1848.284,825.774Z" transform="translate(-1804.789 -753.399)" fill="#e9f2ff"/>
          <path id="Trazado_11353" data-name="Trazado 11353" d="M1835.17,799.2s6.471-2.817,11.121-5.384c3.037-1.676,4.591-4.814,4.909-8.824-1.943-.31-3.8-.505-5.176-.624-.223.072-.357.12-.357.12l-1.413,1.831Z" transform="translate(-1795.207 -753.931)" fill="#b2cbfd" opacity="0.2"/>
          <path id="Trazado_11354" data-name="Trazado 11354" d="M1823.165,795.783l10.078-19.22s3.76.762,5.022,1.945a57.7,57.7,0,0,1-1.142,7.059,9.455,9.455,0,0,0-2.224-.055,11.217,11.217,0,0,0,1.223,1.613S1827.361,791.208,1823.165,795.783Z" transform="translate(-1786.025 -747.958)" fill="#e9f2ff"/>
          <path id="Trazado_11355" data-name="Trazado 11355" d="M1810.61,906.534a.809.809,0,1,0-.809.809A.809.809,0,0,0,1810.61,906.534Z" transform="translate(-1775.184 -846.749)" fill="#b2cbfd" opacity="0.5"/>
          <path id="Trazado_11356" data-name="Trazado 11356" d="M1810.61,1099.3a.809.809,0,1,0-.809.809A.809.809,0,0,0,1810.61,1099.3Z" transform="translate(-1775.184 -994.185)" fill="#b2cbfd" opacity="0.5"/>
          <path id="Trazado_11357" data-name="Trazado 11357" d="M1808.873,1011.2a.809.809,0,1,0-.809.809A.809.809,0,0,0,1808.873,1011.2Z" transform="translate(-1773.856 -926.805)" fill="#b2cbfd" opacity="0.5"/>
          <path id="Trazado_11358" data-name="Trazado 11358" d="M1808.873,1183.054a.809.809,0,1,0-.809.809A.809.809,0,0,0,1808.873,1183.054Z" transform="translate(-1773.856 -1058.248)" fill="#b2cbfd" opacity="0.5"/>
          <path id="Trazado_11359" data-name="Trazado 11359" d="M1828.336,802.924a12.5,12.5,0,0,1-7.338.526l.51,12.5Z" transform="translate(-1784.367 -768.12)" fill="#7a97f3"/>
          <g id="Grupo_24475" data-name="Grupo 24475" transform="translate(0 45.699)">
            <path id="Trazado_11360" data-name="Trazado 11360" d="M1691.485,865.793l-26.244,2.351,16.014,28.447,24.7-1.419Z" transform="translate(-1665.235 -861.905)" fill="#699eee"/>
            <path id="Trazado_11361" data-name="Trazado 11361" d="M1749.891,853.016s-.011-4.021-2.234-3.743-2.893,4.317-2.893,4.317Z" transform="translate(-1726.059 -849.259)" fill="#b2cbfd"/>
            <path id="Trazado_11362" data-name="Trazado 11362" d="M1665.392,866.618l26.244-2.351,14.472,29.38-.177.365-14.472-29.38-26.244,2.351Z" transform="translate(-1665.215 -860.738)" fill="#2c3a64"/>
            <path id="Trazado_11363" data-name="Trazado 11363" d="M1694.175,849.318s-3.708,1.821-2.4,7.654,2.943,9.034,1.992,12.485l-17.679,1.623a12.491,12.491,0,0,0-.213-9.231c-2.134-4.643-.618-9.949,1.341-10.411Z" transform="translate(-1672.577 -849.304)" fill="#e9f2ff"/>
          </g>
          <path id="Trazado_11364" data-name="Trazado 11364" d="M1705.34,948.3s2.687-3.229,2.132-5.565-2.558-2.875-3.781-2.049-3,2.717-2.669,4.162S1703.987,948.974,1705.34,948.3Z" transform="translate(-1692.571 -873.213)" fill="#f4ac75"/>
          <path id="Trazado_11365" data-name="Trazado 11365" d="M1817.595,961.119s-4.553-2-6.638-1.418-4.9,1-5.118,1.752,1.5,3.529,4.06,3.67,7.063,1.335,8.147,0S1817.595,961.119,1817.595,961.119Z" transform="translate(-1772.758 -887.951)" fill="#f4ac75"/>
        </g>
      </g>
      <g id="Grupo_24478" data-name="Grupo 24478" transform="translate(0 264.838)">
        <path id="Trazado_11366" data-name="Trazado 11366" d="M2808.151,1537.573a20.6,20.6,0,0,1-3.787-.3c1.441-1.061,4.472-3.256,6.941-4.8,3.365-2.1,5.273-5.64.525-6.241-4.043-.514-7.223,8.312-8.078,10.936-.554-.1-1.1-.213-1.619-.327a88.6,88.6,0,0,1,3.426-8.581c1.823-3.724,8.27-10.014,1.823-10.73-5.734-.639-7.256,15.269-7.523,18.808a11.3,11.3,0,0,0-2.955-.35c-1.834.134-3.59,2.133-2.552,3.013h19.362C2813.086,1538.472,2811.468,1537.494,2808.151,1537.573Z" transform="translate(-2152.125 -1515.699)" fill="#86d1cd"/>
        <path id="Trazado_11367" data-name="Trazado 11367" d="M144.783,1528.981h0c-2.934-7.079-9.257-20.637-14.066-19.034-4.752,1.584,5.933,13.327,11.948,19.457-1.2.251-2.275.5-3.271.727-4.637-4.222-12.294-11.139-12.992-8.294-.612,2.5,5.958,6.265,10.983,8.748-3.129.682-5.5,1.006-8.434.338a7.162,7.162,0,0,0-7.31,2.184H158.57S152.486,1527.529,144.783,1528.981Z" transform="translate(-108.112 -1509.817)" fill="#86d1cd"/>
        <path id="Rectángulo_5728" data-name="Rectángulo 5728" d="M.9,0H674.379a.9.9,0,0,1,.9.9v0a.9.9,0,0,1-.9.9H.9A.9.9,0,0,1,0,.9v0A.9.9,0,0,1,.9,0Z" transform="translate(0 23.291)" fill="#f579a8"/>
      </g>
    </g>
  </g>
</svg>
