<svg xmlns="http://www.w3.org/2000/svg" width="148" height="148" viewBox="0 0 148 148">
  <g id="Grupo_23855" data-name="Grupo 23855" transform="translate(-615 -4993)">
    <ellipse id="Elipse_1387" data-name="Elipse 1387" cx="58.945" cy="58.945" rx="58.945" ry="58.945" transform="translate(627.979 4999.237)" fill="#f579a8"/>
    <g id="Grupo_23846" data-name="Grupo 23846" transform="translate(630.455 5042.553)">
      <g id="Grupo_23845" data-name="Grupo 23845" transform="translate(0 0)">
        <path id="Trazado_9570" data-name="Trazado 9570" d="M37.8,79.985A25.893,25.893,0,0,1,83.661,65.7a2.505,2.505,0,0,0,3.88,0A25.893,25.893,0,0,1,133.4,79.985c1.723,23.667-26.419,48.328-43.865,57.116a8.75,8.75,0,0,1-7.872,0C64.219,128.313,36.077,103.652,37.8,79.985Z" transform="translate(-28.913 -56.186)" fill="#00348d"/>
        <path id="Trazado_9571" data-name="Trazado 9571" d="M258.344,235.285a32.946,32.946,0,0,0,2.467,12.538c14.5-7.984,34.69-25.547,40.272-44.241a33.131,33.131,0,0,0-42.739,31.7Z" transform="translate(-198.002 -168.063)" fill="#ffe5ef"/>
        <path id="Trazado_9577" data-name="Trazado 9577" d="M84.53,209.849,71.451,196.77a5.111,5.111,0,0,0-7.229,0L47.956,213.036,36,201.077a5.111,5.111,0,0,0-7.228,0L20,209.849H5.111a5.111,5.111,0,1,0,0,10.222h17a5.112,5.112,0,0,0,3.614-1.5l6.655-6.655,11.958,11.958a5.113,5.113,0,0,0,7.229,0l16.266-16.266L78.8,218.575a5.112,5.112,0,0,0,3.614,1.5H93.964a5.111,5.111,0,0,0,0-10.222H84.53Z" transform="translate(0 -162.786)" fill="#ffe5ef"/>
        <g id="Grupo_23844" data-name="Grupo 23844" transform="translate(0 38.875)">
          <path id="Trazado_9578" data-name="Trazado 9578" d="M25.729,241.288l4.927-4.927c-3.005-2.354-4.329-7.869-3-11.453L20,232.562H5.111a5.111,5.111,0,0,0,0,10.223h17a5.114,5.114,0,0,0,3.614-1.5Z" transform="translate(0 -224.374)" fill="#ffe5ef"/>
          <path id="Trazado_9579" data-name="Trazado 9579" d="M321.885,231.915a5.088,5.088,0,0,0-3.17-1.1H309.28l-8.189-8.189a33.369,33.369,0,0,0-7.849,6.608l10.306,10.306a5.112,5.112,0,0,0,3.614,1.5h7.894A77.775,77.775,0,0,0,321.885,231.915Z" transform="translate(-224.75 -222.623)" fill="#ffe5ef"/>
        </g>
      </g>
      <path id="Trazado_9581" data-name="Trazado 9581" d="M26.116,0A26.116,26.116,0,1,1,0,26.116,26.116,26.116,0,0,1,26.116,0Z" transform="translate(67.334 41.107)" fill="#00348d"/>
      <path id="Trazado_9580" data-name="Trazado 9580" d="M354.551,286.68V279.1a1.368,1.368,0,0,0-1.368-1.368H345.6a1.368,1.368,0,0,0-1.368,1.368v7.581a1.368,1.368,0,0,1-1.368,1.368h-7.581a1.368,1.368,0,0,0-1.368,1.368V297a1.368,1.368,0,0,0,1.368,1.368h7.581a1.368,1.368,0,0,1,1.368,1.368v7.581a1.368,1.368,0,0,0,1.368,1.368h7.581a1.368,1.368,0,0,0,1.368-1.368v-7.581a1.368,1.368,0,0,1,1.368-1.368H363.5A1.368,1.368,0,0,0,364.867,297v-7.581a1.368,1.368,0,0,0-1.368-1.368h-7.581A1.368,1.368,0,0,1,354.551,286.68Z" transform="translate(-255.924 -225.985)" fill="#fff"/>
    </g>
    <rect id="Rectángulo_5623" data-name="Rectángulo 5623" width="148" height="148" transform="translate(615 4993)" fill="none"/>
  </g>
</svg>
