<?xml version="1.0" encoding="UTF-8" standalone="no"?><!DOCTYPE svg PUBLIC "-//W3C//DTD SVG 1.1//EN" "http://www.w3.org/Graphics/SVG/1.1/DTD/svg11.dtd"><svg width="100%" height="100%" viewBox="0 0 673 177" version="1.1" xmlns="http://www.w3.org/2000/svg" xmlns:xlink="http://www.w3.org/1999/xlink" xml:space="preserve" xmlns:serif="http://www.serif.com/" style="fill-rule:evenodd;clip-rule:evenodd;"><g id="Grupo_24237"><g id="Trazado_10268"><path d="M268.531,40.5l68,0c6.583,0 12,5.417 12,12l0,67c0,6.583 -5.417,12 -12,12l-68,0c-6.583,0 -12,-5.417 -12,-12l0,-67c0,-6.583 5.417,-12 12,-12Z" style="fill:none;fill-rule:nonzero;"/><path d="M268.531,41.5c-2.938,0 -5.701,1.144 -7.778,3.222c-2.078,2.077 -3.222,4.84 -3.222,7.778l0,67c0,2.938 1.144,5.701 3.222,7.778c2.077,2.078 4.84,3.222 7.778,3.222l68,0c2.938,0 5.701,-1.144 7.778,-3.222c2.078,-2.077 3.222,-4.84 3.222,-7.778l0,-67c0,-2.938 -1.144,-5.701 -3.222,-7.778c-2.077,-2.078 -4.84,-3.222 -7.778,-3.222l-68,0m0,-1l68,0c6.627,0 12,5.373 12,12l0,67c0,6.627 -5.373,12 -12,12l-68,0c-6.627,0 -12,-5.373 -12,-12l0,-67c0,-6.627 5.373,-12 12,-12Z" style="fill:#f579a8;fill-rule:nonzero;"/></g><path id="Trazado_10271" d="M279.25,92.008c-0.402,0.565 -0.964,0.996 -1.614,1.238c-0.769,0.287 -1.585,0.426 -2.405,0.41c-0.869,0.016 -1.726,-0.212 -2.473,-0.656c-0.725,-0.441 -1.305,-1.085 -1.668,-1.852c-0.409,-0.872 -0.616,-1.826 -0.606,-2.789l-0,-0.992c-0.09,-1.428 0.336,-2.843 1.2,-3.984c0.846,-0.963 2.091,-1.485 3.371,-1.414c1.034,-0.05 2.052,0.273 2.867,0.91c0.753,0.662 1.228,1.585 1.328,2.582l-1.5,0c-0.107,-1.277 -1.188,-2.271 -2.469,-2.271c-0.073,0 -0.146,0.004 -0.219,0.01c-0.891,-0.053 -1.751,0.347 -2.285,1.062c-0.576,0.915 -0.851,1.987 -0.785,3.066l0,0.93c-0.057,1.083 0.251,2.155 0.875,3.042c0.556,0.739 1.44,1.162 2.364,1.13c0.5,0.009 0.998,-0.055 1.48,-0.188c0.4,-0.112 0.762,-0.331 1.047,-0.633l0,-2.554l-2.633,0l0,-1.219l4.125,0l0,4.172Zm6.359,-5.664c-0.235,-0.038 -0.473,-0.056 -0.711,-0.055c-0.838,-0.069 -1.627,0.426 -1.929,1.211l0,6l-1.446,0l0,-8.453l1.408,0l0.023,0.977c0.411,-0.719 1.188,-1.156 2.016,-1.133c0.219,-0.012 0.438,0.026 0.641,0.109l-0.002,1.344Zm6.547,6.32c-0.631,0.69 -1.544,1.056 -2.477,0.992c-0.767,0.052 -1.52,-0.235 -2.058,-0.785c-0.517,-0.66 -0.771,-1.488 -0.715,-2.324l-0,-5.5l1.445,0l-0,5.461c-0,1.281 0.521,1.922 1.563,1.922c0.92,0.103 1.808,-0.396 2.2,-1.234l-0,-6.149l1.445,0l-0,8.453l-1.372,0l-0.031,-0.836Zm10.742,-3.3c0.053,1.105 -0.257,2.197 -0.883,3.109c-0.549,0.768 -1.447,1.212 -2.39,1.183c-0.911,0.047 -1.798,-0.31 -2.422,-0.976l-0,4.07l-1.445,0l-0,-11.7l1.32,0l0.07,0.938c0.596,-0.734 1.508,-1.142 2.453,-1.097c0.942,-0.035 1.843,0.395 2.41,1.148c0.643,0.938 0.955,2.065 0.887,3.2l-0,0.125Zm-1.445,-0.164c0.044,-0.798 -0.17,-1.59 -0.609,-2.258c-0.382,-0.54 -1.011,-0.851 -1.672,-0.828c-0.826,-0.028 -1.596,0.427 -1.969,1.164l-0,4.042c0.378,0.738 1.155,1.191 1.984,1.156c0.653,0.019 1.274,-0.291 1.652,-0.824c0.459,-0.732 0.674,-1.59 0.614,-2.452Zm2.9,-0.008c-0.012,-0.772 0.155,-1.537 0.488,-2.234c0.298,-0.628 0.769,-1.159 1.358,-1.528c0.598,-0.364 1.288,-0.551 1.988,-0.539c1.063,-0.037 2.088,0.404 2.793,1.2c0.743,0.888 1.124,2.024 1.066,3.18l0,0.1c0.013,0.765 -0.149,1.522 -0.473,2.215c-0.294,0.627 -0.763,1.156 -1.351,1.523c-0.608,0.371 -1.308,0.56 -2.02,0.547c-1.06,0.036 -2.083,-0.405 -2.785,-1.2c-0.739,-0.88 -1.12,-2.008 -1.066,-3.156l0.002,-0.108Zm1.453,0.172c-0.04,0.804 0.189,1.599 0.652,2.258c0.406,0.553 1.06,0.873 1.746,0.852c0.69,0.022 1.347,-0.302 1.75,-0.863c0.47,-0.713 0.697,-1.559 0.647,-2.411c0.037,-0.804 -0.195,-1.597 -0.66,-2.254c-0.407,-0.558 -1.064,-0.882 -1.754,-0.863c-0.68,-0.016 -1.326,0.302 -1.727,0.852c-0.48,0.716 -0.71,1.571 -0.656,2.432l0.002,-0.003Zm11.663,-0.164c-0.055,-1.117 0.27,-2.22 0.922,-3.129c0.563,-0.764 1.465,-1.206 2.414,-1.184c0.898,-0.04 1.766,0.335 2.352,1.016l0,-4.403l1.444,0l0,12l-1.328,0l-0.07,-0.906c-0.592,0.714 -1.488,1.108 -2.414,1.062c-0.946,0.017 -1.842,-0.432 -2.395,-1.2c-0.652,-0.913 -0.978,-2.02 -0.926,-3.141l0.001,-0.115Zm1.445,0.164c-0.046,0.794 0.162,1.582 0.594,2.25c0.374,0.531 0.992,0.837 1.641,0.813c0.854,0.037 1.65,-0.45 2.007,-1.227l0,-3.887c-0.366,-0.759 -1.15,-1.231 -1.992,-1.2c-0.655,-0.026 -1.28,0.283 -1.656,0.82c-0.445,0.73 -0.653,1.581 -0.594,2.434l0,-0.003Zm11.437,4.292c-1.051,0.04 -2.071,-0.371 -2.8,-1.129c-0.745,-0.824 -1.133,-1.911 -1.078,-3.02l0,-0.266c-0.014,-0.775 0.15,-1.544 0.48,-2.246c0.297,-0.631 0.764,-1.166 1.348,-1.546c0.555,-0.366 1.206,-0.561 1.871,-0.559c0.974,-0.052 1.92,0.35 2.559,1.087c0.663,0.895 0.988,1.997 0.914,3.109l-0,0.6l-5.723,0c-0.014,0.74 0.246,1.46 0.73,2.02c0.45,0.505 1.101,0.787 1.777,0.77c0.453,0.015 0.903,-0.093 1.3,-0.312c0.36,-0.214 0.676,-0.495 0.93,-0.828l0.883,0.688c-0.69,1.079 -1.912,1.704 -3.191,1.632Zm-0.18,-7.578c-0.559,-0.011 -1.095,0.222 -1.469,0.637c-0.428,0.502 -0.685,1.127 -0.733,1.785l4.234,0l0,-0.109c-0,-0.62 -0.21,-1.221 -0.594,-1.707c-0.363,-0.408 -0.892,-0.631 -1.437,-0.606l-0.001,0Zm-55.148,22.822l-2.672,0l0,4.6l-1.507,0l0,-11.375l3.765,0c1.058,-0.069 2.107,0.241 2.957,0.875c0.717,0.645 1.099,1.585 1.035,2.547c0.016,0.663 -0.184,1.313 -0.57,1.853c-0.405,0.543 -0.962,0.953 -1.6,1.18l2.67,4.826l0,0.094l-1.609,0l-2.469,-4.6Zm-2.672,-1.228l2.3,0c0.644,0.035 1.279,-0.171 1.78,-0.578c0.442,-0.389 0.685,-0.959 0.66,-1.547c0.039,-0.605 -0.191,-1.197 -0.629,-1.617c-0.514,-0.407 -1.161,-0.61 -1.816,-0.57l-2.295,0l0,4.312Zm9.696,5.828l-1.446,0l0,-8.453l1.445,0l0.001,8.453Zm-1.563,-10.7c-0.006,-0.218 0.071,-0.43 0.215,-0.594c0.166,-0.171 0.399,-0.259 0.637,-0.242c0.239,-0.017 0.473,0.072 0.641,0.242c0.146,0.163 0.225,0.375 0.219,0.594c0.007,0.216 -0.072,0.427 -0.219,0.586c-0.17,0.166 -0.404,0.251 -0.641,0.234c-0.236,0.018 -0.468,-0.068 -0.637,-0.234c-0.145,-0.16 -0.222,-0.37 -0.215,-0.586Zm7.383,10.852c-1.051,0.04 -2.071,-0.371 -2.8,-1.129c-0.745,-0.824 -1.133,-1.911 -1.078,-3.02l0,-0.266c-0.014,-0.775 0.15,-1.544 0.48,-2.246c0.296,-0.63 0.761,-1.166 1.344,-1.547c0.555,-0.366 1.206,-0.561 1.871,-0.559c0.976,-0.053 1.923,0.348 2.563,1.086c0.663,0.895 0.988,1.997 0.914,3.109l0,0.6l-5.724,0c-0.014,0.74 0.246,1.46 0.73,2.02c0.45,0.505 1.101,0.787 1.777,0.77c0.453,0.015 0.903,-0.093 1.3,-0.312c0.36,-0.214 0.676,-0.495 0.93,-0.828l0.883,0.688c-0.688,1.081 -1.91,1.709 -3.19,1.638l0,-0.004Zm-0.18,-7.578c-0.559,-0.011 -1.095,0.222 -1.469,0.637c-0.429,0.503 -0.686,1.13 -0.734,1.789l4.234,0l0,-0.109c-0,-0.62 -0.21,-1.221 -0.594,-1.707c-0.363,-0.408 -0.892,-0.631 -1.437,-0.606l0,-0.004Zm10.07,5.18c0.016,-0.358 -0.15,-0.701 -0.441,-0.91c-0.472,-0.284 -0.995,-0.474 -1.539,-0.559c-0.602,-0.113 -1.187,-0.302 -1.742,-0.562c-0.378,-0.176 -0.706,-0.445 -0.953,-0.781c-0.211,-0.319 -0.319,-0.696 -0.309,-1.078c-0.001,-0.691 0.326,-1.344 0.879,-1.758c0.64,-0.497 1.436,-0.752 2.246,-0.719c0.841,-0.038 1.668,0.225 2.332,0.742c0.579,0.458 0.911,1.162 0.895,1.9l-1.453,0c-0.001,-0.399 -0.185,-0.777 -0.5,-1.023c-0.356,-0.294 -0.808,-0.447 -1.27,-0.43c-0.438,-0.026 -0.872,0.096 -1.234,0.344c-0.287,0.209 -0.453,0.545 -0.445,0.9c-0.016,0.318 0.143,0.621 0.414,0.789c0.47,0.246 0.977,0.418 1.5,0.508c0.605,0.123 1.194,0.317 1.754,0.578c0.397,0.18 0.741,0.459 1,0.809c0.224,0.342 0.337,0.744 0.324,1.152c0.018,0.718 -0.322,1.399 -0.906,1.816c-0.687,0.481 -1.514,0.722 -2.352,0.684c-0.619,0.013 -1.233,-0.11 -1.8,-0.359c-0.492,-0.215 -0.915,-0.561 -1.223,-1c-0.287,-0.408 -0.441,-0.896 -0.441,-1.395l1.438,0c0.01,0.452 0.224,0.876 0.582,1.152c0.416,0.301 0.922,0.451 1.434,0.426c0.462,0.022 0.92,-0.093 1.316,-0.332c0.312,-0.187 0.5,-0.527 0.495,-0.89l-0.001,-0.004Zm2.985,-2.054c-0.06,-1.121 0.263,-2.23 0.914,-3.145c0.598,-0.738 1.499,-1.168 2.449,-1.168c0.916,-0 1.789,0.4 2.387,1.094l0.07,-0.937l1.32,0l-0,8.256c0.051,0.96 -0.302,1.898 -0.973,2.586c-0.709,0.653 -1.651,0.994 -2.613,0.945c-0.617,-0.002 -1.227,-0.135 -1.789,-0.391c-0.537,-0.223 -1.001,-0.594 -1.336,-1.07l0.75,-0.867c0.532,0.721 1.377,1.148 2.273,1.148c0.606,0.036 1.202,-0.179 1.645,-0.594c0.415,-0.454 0.628,-1.058 0.59,-1.672l0,-0.727c-0.596,0.674 -1.468,1.043 -2.367,1c-0.948,0.019 -1.846,-0.431 -2.4,-1.2c-0.66,-0.954 -0.983,-2.1 -0.92,-3.258Zm1.453,0.164c-0.044,0.791 0.161,1.577 0.586,2.246c0.371,0.535 0.991,0.843 1.641,0.816c0.857,0.033 1.653,-0.457 2.009,-1.238l-0,-3.86c-0.366,-0.76 -1.149,-1.236 -1.992,-1.211c-0.652,-0.025 -1.274,0.285 -1.648,0.82c-0.445,0.729 -0.653,1.578 -0.596,2.43l0,-0.003Zm7.484,-0.172c-0.012,-0.772 0.155,-1.537 0.488,-2.234c0.299,-0.629 0.773,-1.16 1.364,-1.528c0.598,-0.364 1.288,-0.551 1.988,-0.539c1.063,-0.037 2.088,0.404 2.793,1.2c0.743,0.888 1.124,2.024 1.066,3.18l0,0.1c0.013,0.765 -0.149,1.522 -0.473,2.215c-0.293,0.629 -0.763,1.159 -1.352,1.527c-0.608,0.371 -1.308,0.56 -2.02,0.547c-1.06,0.036 -2.083,-0.405 -2.785,-1.2c-0.741,-0.881 -1.123,-2.01 -1.069,-3.16l0,-0.108Zm1.453,0.172c-0.04,0.804 0.189,1.599 0.652,2.258c0.419,0.538 1.063,0.854 1.745,0.854c0.688,-0 1.337,-0.321 1.755,-0.866c0.47,-0.712 0.697,-1.558 0.647,-2.41c0.037,-0.804 -0.195,-1.597 -0.66,-2.254c-0.407,-0.558 -1.064,-0.882 -1.754,-0.863c-0.68,-0.016 -1.326,0.302 -1.727,0.852c-0.481,0.716 -0.713,1.571 -0.659,2.432l0.001,-0.003Zm16.618,4.136l-1.453,0l0,-9.633l-2.914,1.07l0,-1.312l4.14,-1.555l0.227,0l0,11.43Z" style="fill:#12263f;fill-rule:nonzero;"/><g id="Trazado_10272"><path d="M376.531,40.5l68,0c6.583,0 12,5.417 12,12l0,67c0,6.583 -5.417,12 -12,12l-68,0c-6.583,0 -12,-5.417 -12,-12l0,-67c0,-6.583 5.417,-12 12,-12Z" style="fill:none;fill-rule:nonzero;"/><path d="M376.531,41.5c-2.938,0 -5.701,1.144 -7.778,3.222c-2.078,2.077 -3.222,4.84 -3.222,7.778l0,67c0,2.938 1.144,5.701 3.222,7.778c2.077,2.078 4.84,3.222 7.778,3.222l68,0c2.938,0 5.701,-1.144 7.778,-3.222c2.078,-2.077 3.222,-4.84 3.222,-7.778l0,-67c0,-2.938 -1.144,-5.701 -3.222,-7.778c-2.077,-2.078 -4.84,-3.222 -7.778,-3.222l-68,0m0,-1l68,0c6.627,0 12,5.373 12,12l0,67c0,6.627 -5.373,12 -12,12l-68,0c-6.627,0 -12,-5.373 -12,-12l0,-67c0,-6.627 5.373,-12 12,-12Z" style="fill:#f579a8;fill-rule:nonzero;"/></g><path id="Trazado_10273" d="M387.25,92.008c-0.402,0.565 -0.964,0.996 -1.614,1.238c-0.769,0.287 -1.585,0.426 -2.405,0.41c-0.869,0.016 -1.726,-0.212 -2.473,-0.656c-0.725,-0.441 -1.305,-1.085 -1.668,-1.852c-0.409,-0.872 -0.616,-1.826 -0.606,-2.789l-0,-0.992c-0.09,-1.428 0.336,-2.843 1.2,-3.984c0.846,-0.963 2.091,-1.485 3.371,-1.414c1.034,-0.05 2.052,0.273 2.867,0.91c0.753,0.662 1.228,1.585 1.328,2.582l-1.5,0c-0.107,-1.277 -1.188,-2.271 -2.469,-2.271c-0.073,0 -0.146,0.004 -0.219,0.01c-0.891,-0.053 -1.751,0.347 -2.285,1.062c-0.576,0.915 -0.851,1.987 -0.785,3.066l0,0.93c-0.057,1.083 0.251,2.155 0.875,3.042c0.556,0.739 1.44,1.162 2.364,1.13c0.5,0.009 0.998,-0.055 1.48,-0.188c0.4,-0.112 0.762,-0.331 1.047,-0.633l0,-2.554l-2.633,0l0,-1.219l4.125,0l0,4.172Zm6.359,-5.664c-0.235,-0.038 -0.473,-0.056 -0.711,-0.055c-0.838,-0.069 -1.627,0.426 -1.929,1.211l0,6l-1.446,0l0,-8.453l1.408,0l0.023,0.977c0.411,-0.719 1.188,-1.156 2.016,-1.133c0.219,-0.012 0.438,0.026 0.641,0.109l-0.002,1.344Zm6.547,6.32c-0.631,0.69 -1.544,1.056 -2.477,0.992c-0.767,0.052 -1.52,-0.235 -2.058,-0.785c-0.517,-0.66 -0.771,-1.488 -0.715,-2.324l-0,-5.5l1.445,0l-0,5.461c-0,1.281 0.521,1.922 1.563,1.922c0.92,0.103 1.808,-0.396 2.2,-1.234l-0,-6.149l1.445,0l-0,8.453l-1.372,0l-0.031,-0.836Zm10.742,-3.3c0.053,1.105 -0.257,2.197 -0.883,3.109c-0.549,0.768 -1.447,1.212 -2.39,1.183c-0.911,0.047 -1.798,-0.31 -2.422,-0.976l-0,4.07l-1.445,0l-0,-11.7l1.32,0l0.07,0.938c0.596,-0.734 1.508,-1.142 2.453,-1.097c0.942,-0.035 1.843,0.395 2.41,1.148c0.643,0.938 0.955,2.065 0.887,3.2l-0,0.125Zm-1.445,-0.164c0.044,-0.798 -0.17,-1.59 -0.609,-2.258c-0.382,-0.54 -1.011,-0.851 -1.672,-0.828c-0.826,-0.028 -1.596,0.427 -1.969,1.164l-0,4.042c0.378,0.738 1.155,1.191 1.984,1.156c0.653,0.019 1.274,-0.291 1.652,-0.824c0.459,-0.732 0.674,-1.59 0.614,-2.452Zm2.9,-0.008c-0.012,-0.772 0.155,-1.537 0.488,-2.234c0.298,-0.628 0.769,-1.159 1.358,-1.528c0.598,-0.364 1.288,-0.551 1.988,-0.539c1.063,-0.037 2.088,0.404 2.793,1.2c0.743,0.888 1.124,2.024 1.066,3.18l0,0.1c0.013,0.765 -0.149,1.522 -0.473,2.215c-0.294,0.627 -0.763,1.156 -1.351,1.523c-0.608,0.371 -1.308,0.56 -2.02,0.547c-1.06,0.036 -2.083,-0.405 -2.785,-1.2c-0.739,-0.88 -1.12,-2.008 -1.066,-3.156l0.002,-0.108Zm1.453,0.172c-0.04,0.804 0.189,1.599 0.652,2.258c0.406,0.553 1.06,0.873 1.746,0.852c0.69,0.022 1.347,-0.302 1.75,-0.863c0.47,-0.713 0.697,-1.559 0.647,-2.411c0.037,-0.804 -0.195,-1.597 -0.66,-2.254c-0.407,-0.558 -1.064,-0.882 -1.754,-0.863c-0.68,-0.016 -1.326,0.302 -1.727,0.852c-0.48,0.716 -0.71,1.571 -0.656,2.432l0.002,-0.003Zm11.663,-0.164c-0.055,-1.117 0.27,-2.22 0.922,-3.129c0.563,-0.764 1.465,-1.206 2.414,-1.184c0.898,-0.04 1.766,0.335 2.352,1.016l0,-4.403l1.444,0l0,12l-1.328,0l-0.07,-0.906c-0.592,0.714 -1.488,1.108 -2.414,1.062c-0.946,0.017 -1.842,-0.432 -2.395,-1.2c-0.652,-0.913 -0.978,-2.02 -0.926,-3.141l0.001,-0.115Zm1.445,0.164c-0.046,0.794 0.162,1.582 0.594,2.25c0.374,0.531 0.992,0.837 1.641,0.813c0.854,0.037 1.65,-0.45 2.007,-1.227l0,-3.887c-0.366,-0.759 -1.15,-1.231 -1.992,-1.2c-0.655,-0.026 -1.28,0.283 -1.656,0.82c-0.445,0.73 -0.653,1.581 -0.594,2.434l0,-0.003Zm11.437,4.292c-1.051,0.04 -2.071,-0.371 -2.8,-1.129c-0.745,-0.824 -1.133,-1.911 -1.078,-3.02l0,-0.266c-0.014,-0.775 0.15,-1.544 0.48,-2.246c0.297,-0.631 0.764,-1.166 1.348,-1.546c0.555,-0.366 1.206,-0.561 1.871,-0.559c0.974,-0.052 1.92,0.35 2.559,1.087c0.663,0.895 0.988,1.997 0.914,3.109l-0,0.6l-5.723,0c-0.014,0.74 0.246,1.46 0.73,2.02c0.45,0.505 1.101,0.787 1.777,0.77c0.453,0.015 0.903,-0.093 1.3,-0.312c0.36,-0.214 0.676,-0.495 0.93,-0.828l0.883,0.688c-0.69,1.079 -1.912,1.704 -3.191,1.632Zm-0.18,-7.578c-0.559,-0.011 -1.095,0.222 -1.469,0.637c-0.428,0.502 -0.685,1.127 -0.733,1.785l4.234,0l0,-0.109c-0,-0.62 -0.21,-1.221 -0.594,-1.707c-0.363,-0.408 -0.892,-0.631 -1.437,-0.606l-0.001,0Zm-55.148,22.822l-2.672,0l0,4.6l-1.507,0l0,-11.375l3.765,0c1.058,-0.069 2.107,0.241 2.957,0.875c0.717,0.645 1.099,1.585 1.035,2.547c0.016,0.663 -0.184,1.313 -0.57,1.853c-0.405,0.543 -0.962,0.953 -1.6,1.18l2.67,4.826l0,0.094l-1.609,0l-2.469,-4.6Zm-2.672,-1.228l2.3,0c0.644,0.035 1.279,-0.171 1.78,-0.578c0.442,-0.389 0.685,-0.959 0.66,-1.547c0.039,-0.605 -0.191,-1.197 -0.629,-1.617c-0.514,-0.407 -1.161,-0.61 -1.816,-0.57l-2.295,0l0,4.312Zm9.696,5.828l-1.446,0l0,-8.453l1.445,0l0.001,8.453Zm-1.563,-10.7c-0.006,-0.218 0.071,-0.43 0.215,-0.594c0.166,-0.171 0.399,-0.259 0.637,-0.242c0.239,-0.017 0.473,0.072 0.641,0.242c0.146,0.163 0.225,0.375 0.219,0.594c0.007,0.216 -0.072,0.427 -0.219,0.586c-0.17,0.166 -0.404,0.251 -0.641,0.234c-0.236,0.018 -0.468,-0.068 -0.637,-0.234c-0.145,-0.16 -0.222,-0.37 -0.215,-0.586Zm7.383,10.852c-1.051,0.04 -2.071,-0.371 -2.8,-1.129c-0.745,-0.824 -1.133,-1.911 -1.078,-3.02l0,-0.266c-0.014,-0.775 0.15,-1.544 0.48,-2.246c0.296,-0.63 0.761,-1.166 1.344,-1.547c0.555,-0.366 1.206,-0.561 1.871,-0.559c0.976,-0.053 1.923,0.348 2.563,1.086c0.663,0.895 0.988,1.997 0.914,3.109l0,0.6l-5.724,0c-0.014,0.74 0.246,1.46 0.73,2.02c0.45,0.505 1.101,0.787 1.777,0.77c0.453,0.015 0.903,-0.093 1.3,-0.312c0.36,-0.214 0.676,-0.495 0.93,-0.828l0.883,0.688c-0.688,1.081 -1.91,1.709 -3.19,1.638l0,-0.004Zm-0.18,-7.578c-0.559,-0.011 -1.095,0.222 -1.469,0.637c-0.429,0.503 -0.686,1.13 -0.734,1.789l4.234,0l0,-0.109c-0,-0.62 -0.21,-1.221 -0.594,-1.707c-0.363,-0.408 -0.892,-0.631 -1.437,-0.606l0,-0.004Zm10.07,5.18c0.016,-0.358 -0.15,-0.701 -0.441,-0.91c-0.472,-0.284 -0.995,-0.474 -1.539,-0.559c-0.602,-0.113 -1.187,-0.302 -1.742,-0.562c-0.378,-0.176 -0.706,-0.445 -0.953,-0.781c-0.211,-0.319 -0.319,-0.696 -0.309,-1.078c-0.001,-0.691 0.326,-1.344 0.879,-1.758c0.64,-0.497 1.436,-0.752 2.246,-0.719c0.841,-0.038 1.668,0.225 2.332,0.742c0.579,0.458 0.911,1.162 0.895,1.9l-1.453,0c-0.001,-0.399 -0.185,-0.777 -0.5,-1.023c-0.356,-0.294 -0.808,-0.447 -1.27,-0.43c-0.438,-0.026 -0.872,0.096 -1.234,0.344c-0.287,0.209 -0.453,0.545 -0.445,0.9c-0.016,0.318 0.143,0.621 0.414,0.789c0.47,0.246 0.977,0.418 1.5,0.508c0.605,0.123 1.194,0.317 1.754,0.578c0.397,0.18 0.741,0.459 1,0.809c0.224,0.342 0.337,0.744 0.324,1.152c0.018,0.718 -0.322,1.399 -0.906,1.816c-0.687,0.481 -1.514,0.722 -2.352,0.684c-0.619,0.013 -1.233,-0.11 -1.8,-0.359c-0.492,-0.215 -0.915,-0.561 -1.223,-1c-0.287,-0.408 -0.441,-0.896 -0.441,-1.395l1.438,0c0.01,0.452 0.224,0.876 0.582,1.152c0.416,0.301 0.922,0.451 1.434,0.426c0.462,0.022 0.92,-0.093 1.316,-0.332c0.312,-0.187 0.5,-0.527 0.495,-0.89l-0.001,-0.004Zm2.985,-2.054c-0.06,-1.121 0.263,-2.23 0.914,-3.145c0.598,-0.738 1.499,-1.168 2.449,-1.168c0.916,-0 1.789,0.4 2.387,1.094l0.07,-0.937l1.32,0l-0,8.256c0.051,0.96 -0.302,1.898 -0.973,2.586c-0.709,0.653 -1.651,0.994 -2.613,0.945c-0.617,-0.002 -1.227,-0.135 -1.789,-0.391c-0.537,-0.223 -1.001,-0.594 -1.336,-1.07l0.75,-0.867c0.532,0.721 1.377,1.148 2.273,1.148c0.606,0.036 1.202,-0.179 1.645,-0.594c0.415,-0.454 0.628,-1.058 0.59,-1.672l0,-0.727c-0.596,0.674 -1.468,1.043 -2.367,1c-0.948,0.019 -1.846,-0.431 -2.4,-1.2c-0.66,-0.954 -0.983,-2.1 -0.92,-3.258Zm1.453,0.164c-0.044,0.791 0.161,1.577 0.586,2.246c0.371,0.535 0.991,0.843 1.641,0.816c0.857,0.033 1.653,-0.457 2.009,-1.238l-0,-3.86c-0.366,-0.76 -1.149,-1.236 -1.992,-1.211c-0.652,-0.025 -1.274,0.285 -1.648,0.82c-0.445,0.729 -0.653,1.578 -0.596,2.43l0,-0.003Zm7.484,-0.172c-0.012,-0.772 0.155,-1.537 0.488,-2.234c0.299,-0.629 0.773,-1.16 1.364,-1.528c0.598,-0.364 1.288,-0.551 1.988,-0.539c1.063,-0.037 2.088,0.404 2.793,1.2c0.743,0.888 1.124,2.024 1.066,3.18l0,0.1c0.013,0.765 -0.149,1.522 -0.473,2.215c-0.293,0.629 -0.763,1.159 -1.352,1.527c-0.608,0.371 -1.308,0.56 -2.02,0.547c-1.06,0.036 -2.083,-0.405 -2.785,-1.2c-0.741,-0.881 -1.123,-2.01 -1.069,-3.16l0,-0.108Zm1.453,0.172c-0.04,0.804 0.189,1.599 0.652,2.258c0.419,0.538 1.063,0.854 1.745,0.854c0.688,-0 1.337,-0.321 1.755,-0.866c0.47,-0.712 0.697,-1.558 0.647,-2.41c0.037,-0.804 -0.195,-1.597 -0.66,-2.254c-0.407,-0.558 -1.064,-0.882 -1.754,-0.863c-0.68,-0.016 -1.326,0.302 -1.727,0.852c-0.481,0.716 -0.713,1.571 -0.659,2.432l0.001,-0.003Zm19.321,4.136l-7.453,0l0,-1.039l3.938,-4.375c0.459,-0.493 0.864,-1.033 1.207,-1.613c0.216,-0.394 0.33,-0.836 0.332,-1.285c0.02,-0.539 -0.173,-1.065 -0.539,-1.461c-0.375,-0.387 -0.899,-0.594 -1.437,-0.57c-0.619,-0.038 -1.227,0.185 -1.676,0.613c-0.42,0.466 -0.637,1.081 -0.6,1.707l-1.444,0c-0.038,-0.951 0.33,-1.875 1.012,-2.539c0.738,-0.669 1.712,-1.018 2.707,-0.969c0.911,-0.051 1.808,0.247 2.508,0.832c0.619,0.565 0.957,1.377 0.922,2.215c0,1.12 -0.714,2.453 -2.141,4l-3.047,3.3l5.711,0l0,1.184Z" style="fill:#12263f;fill-rule:nonzero;"/><g id="Trazado_10274"><path d="M484.531,40.5l68,0c6.583,0 12,5.417 12,12l0,67c0,6.583 -5.417,12 -12,12l-68,0c-6.583,0 -12,-5.417 -12,-12l0,-67c0,-6.583 5.417,-12 12,-12Z" style="fill:none;fill-rule:nonzero;"/><path d="M484.531,41.5c-2.938,0 -5.701,1.144 -7.778,3.222c-2.078,2.077 -3.222,4.84 -3.222,7.778l0,67c0,2.938 1.144,5.701 3.222,7.778c2.077,2.078 4.84,3.222 7.778,3.222l68,0c2.938,0 5.701,-1.144 7.778,-3.222c2.078,-2.077 3.222,-4.84 3.222,-7.778l0,-67c0,-2.938 -1.144,-5.701 -3.222,-7.778c-2.077,-2.078 -4.84,-3.222 -7.778,-3.222l-68,0m0,-1l68,0c6.627,0 12,5.373 12,12l0,67c0,6.627 -5.373,12 -12,12l-68,0c-6.627,0 -12,-5.373 -12,-12l0,-67c0,-6.627 5.373,-12 12,-12Z" style="fill:#f579a8;fill-rule:nonzero;"/></g><path id="Trazado_10275" d="M495.25,92.008c-0.402,0.565 -0.964,0.996 -1.614,1.238c-0.769,0.287 -1.585,0.426 -2.405,0.41c-0.869,0.016 -1.726,-0.212 -2.473,-0.656c-0.725,-0.441 -1.305,-1.085 -1.668,-1.852c-0.409,-0.872 -0.616,-1.826 -0.606,-2.789l-0,-0.992c-0.09,-1.428 0.336,-2.843 1.2,-3.984c0.846,-0.963 2.091,-1.485 3.371,-1.414c1.034,-0.05 2.052,0.273 2.867,0.91c0.753,0.662 1.228,1.585 1.328,2.582l-1.5,0c-0.107,-1.277 -1.188,-2.271 -2.469,-2.271c-0.073,0 -0.146,0.004 -0.219,0.01c-0.891,-0.053 -1.751,0.347 -2.285,1.062c-0.576,0.915 -0.851,1.987 -0.785,3.066l0,0.93c-0.057,1.083 0.251,2.155 0.875,3.042c0.556,0.739 1.44,1.162 2.364,1.13c0.5,0.009 0.998,-0.055 1.48,-0.188c0.4,-0.112 0.762,-0.331 1.047,-0.633l0,-2.554l-2.633,0l0,-1.219l4.125,0l0,4.172Zm6.359,-5.664c-0.235,-0.038 -0.473,-0.056 -0.711,-0.055c-0.838,-0.069 -1.627,0.426 -1.929,1.211l0,6l-1.446,0l0,-8.453l1.408,0l0.023,0.977c0.411,-0.719 1.188,-1.156 2.016,-1.133c0.219,-0.012 0.438,0.026 0.641,0.109l-0.002,1.344Zm6.547,6.32c-0.631,0.69 -1.544,1.056 -2.477,0.992c-0.767,0.052 -1.52,-0.235 -2.058,-0.785c-0.517,-0.66 -0.771,-1.488 -0.715,-2.324l-0,-5.5l1.445,0l-0,5.461c-0,1.281 0.521,1.922 1.563,1.922c0.92,0.103 1.808,-0.396 2.2,-1.234l-0,-6.149l1.445,0l-0,8.453l-1.372,0l-0.031,-0.836Zm10.742,-3.3c0.053,1.105 -0.257,2.197 -0.883,3.109c-0.549,0.768 -1.447,1.212 -2.39,1.183c-0.911,0.047 -1.798,-0.31 -2.422,-0.976l0,4.07l-1.445,0l0,-11.7l1.32,0l0.07,0.938c0.596,-0.734 1.508,-1.142 2.453,-1.097c0.942,-0.035 1.843,0.395 2.41,1.148c0.643,0.938 0.955,2.065 0.887,3.2l0,0.125Zm-1.445,-0.164c0.044,-0.798 -0.17,-1.59 -0.609,-2.258c-0.382,-0.54 -1.011,-0.851 -1.672,-0.828c-0.826,-0.028 -1.596,0.427 -1.969,1.164l0,4.042c0.378,0.738 1.155,1.191 1.984,1.156c0.653,0.019 1.274,-0.291 1.652,-0.824c0.459,-0.732 0.674,-1.59 0.614,-2.452Zm2.9,-0.008c-0.012,-0.772 0.155,-1.537 0.488,-2.234c0.298,-0.628 0.769,-1.159 1.358,-1.528c0.598,-0.364 1.288,-0.551 1.988,-0.539c1.063,-0.037 2.088,0.404 2.793,1.2c0.743,0.888 1.124,2.024 1.066,3.18l0,0.1c0.013,0.765 -0.149,1.522 -0.473,2.215c-0.294,0.627 -0.763,1.156 -1.351,1.523c-0.608,0.371 -1.308,0.56 -2.02,0.547c-1.06,0.036 -2.083,-0.405 -2.785,-1.2c-0.739,-0.88 -1.12,-2.008 -1.066,-3.156l0.002,-0.108Zm1.453,0.172c-0.04,0.804 0.189,1.599 0.652,2.258c0.406,0.553 1.06,0.873 1.746,0.852c0.69,0.022 1.347,-0.302 1.75,-0.863c0.47,-0.713 0.697,-1.559 0.647,-2.411c0.037,-0.804 -0.195,-1.597 -0.66,-2.254c-0.407,-0.558 -1.064,-0.882 -1.754,-0.863c-0.68,-0.016 -1.326,0.302 -1.727,0.852c-0.48,0.716 -0.71,1.571 -0.656,2.432l0.002,-0.003Zm11.663,-0.164c-0.055,-1.117 0.27,-2.22 0.922,-3.129c0.563,-0.764 1.465,-1.206 2.414,-1.184c0.898,-0.04 1.766,0.335 2.352,1.016l0,-4.403l1.444,0l0,12l-1.328,0l-0.07,-0.906c-0.592,0.714 -1.488,1.108 -2.414,1.062c-0.946,0.017 -1.842,-0.432 -2.395,-1.2c-0.652,-0.913 -0.978,-2.02 -0.926,-3.141l0.001,-0.115Zm1.445,0.164c-0.046,0.794 0.162,1.582 0.594,2.25c0.374,0.531 0.992,0.837 1.641,0.813c0.854,0.037 1.65,-0.45 2.007,-1.227l0,-3.887c-0.366,-0.759 -1.15,-1.231 -1.992,-1.2c-0.655,-0.026 -1.28,0.283 -1.656,0.82c-0.445,0.73 -0.653,1.581 -0.594,2.434l0,-0.003Zm11.437,4.292c-1.051,0.04 -2.071,-0.371 -2.8,-1.129c-0.745,-0.824 -1.133,-1.911 -1.078,-3.02l-0,-0.266c-0.014,-0.775 0.15,-1.544 0.48,-2.246c0.297,-0.631 0.764,-1.166 1.348,-1.546c0.555,-0.366 1.206,-0.561 1.871,-0.559c0.974,-0.052 1.92,0.35 2.559,1.087c0.663,0.895 0.988,1.997 0.914,3.109l0,0.6l-5.723,0c-0.014,0.74 0.246,1.46 0.73,2.02c0.45,0.505 1.101,0.787 1.777,0.77c0.453,0.015 0.903,-0.093 1.3,-0.312c0.36,-0.214 0.676,-0.495 0.93,-0.828l0.883,0.688c-0.69,1.079 -1.912,1.704 -3.191,1.632Zm-0.18,-7.578c-0.559,-0.011 -1.095,0.222 -1.469,0.637c-0.428,0.502 -0.685,1.127 -0.733,1.785l4.234,0l-0,-0.109c-0,-0.62 -0.21,-1.221 -0.594,-1.707c-0.363,-0.408 -0.892,-0.631 -1.437,-0.606l-0.001,0Zm-55.148,22.822l-2.672,0l0,4.6l-1.507,0l0,-11.375l3.765,0c1.058,-0.069 2.107,0.241 2.957,0.875c0.717,0.645 1.099,1.585 1.035,2.547c0.016,0.663 -0.184,1.313 -0.57,1.853c-0.405,0.543 -0.962,0.953 -1.6,1.18l2.67,4.826l0,0.094l-1.609,0l-2.469,-4.6Zm-2.672,-1.228l2.3,0c0.644,0.035 1.279,-0.171 1.78,-0.578c0.442,-0.389 0.685,-0.959 0.66,-1.547c0.039,-0.605 -0.191,-1.197 -0.629,-1.617c-0.514,-0.407 -1.161,-0.61 -1.816,-0.57l-2.295,0l0,4.312Zm9.696,5.828l-1.446,0l0,-8.453l1.445,0l0.001,8.453Zm-1.563,-10.7c-0.006,-0.218 0.071,-0.43 0.215,-0.594c0.166,-0.171 0.399,-0.259 0.637,-0.242c0.239,-0.017 0.473,0.072 0.641,0.242c0.146,0.163 0.225,0.375 0.219,0.594c0.007,0.216 -0.072,0.427 -0.219,0.586c-0.17,0.166 -0.404,0.251 -0.641,0.234c-0.236,0.018 -0.468,-0.068 -0.637,-0.234c-0.145,-0.16 -0.222,-0.37 -0.215,-0.586Zm7.383,10.852c-1.051,0.04 -2.071,-0.371 -2.8,-1.129c-0.745,-0.824 -1.133,-1.911 -1.078,-3.02l0,-0.266c-0.014,-0.775 0.15,-1.544 0.48,-2.246c0.296,-0.63 0.761,-1.166 1.344,-1.547c0.555,-0.366 1.206,-0.561 1.871,-0.559c0.976,-0.053 1.923,0.348 2.563,1.086c0.663,0.895 0.988,1.997 0.914,3.109l0,0.6l-5.724,0c-0.014,0.74 0.246,1.46 0.73,2.02c0.45,0.505 1.101,0.787 1.777,0.77c0.453,0.015 0.903,-0.093 1.3,-0.312c0.36,-0.214 0.676,-0.495 0.93,-0.828l0.883,0.688c-0.688,1.081 -1.91,1.709 -3.19,1.638l0,-0.004Zm-0.18,-7.578c-0.559,-0.011 -1.095,0.222 -1.469,0.637c-0.429,0.503 -0.686,1.13 -0.734,1.789l4.234,0l0,-0.109c-0,-0.62 -0.21,-1.221 -0.594,-1.707c-0.363,-0.408 -0.892,-0.631 -1.437,-0.606l0,-0.004Zm10.07,5.18c0.016,-0.358 -0.15,-0.701 -0.441,-0.91c-0.472,-0.284 -0.995,-0.474 -1.539,-0.559c-0.602,-0.113 -1.187,-0.302 -1.742,-0.562c-0.378,-0.176 -0.706,-0.445 -0.953,-0.781c-0.211,-0.319 -0.319,-0.696 -0.309,-1.078c-0.001,-0.691 0.326,-1.344 0.879,-1.758c0.64,-0.497 1.436,-0.752 2.246,-0.719c0.841,-0.038 1.668,0.225 2.332,0.742c0.579,0.458 0.911,1.162 0.895,1.9l-1.453,0c-0.001,-0.399 -0.185,-0.777 -0.5,-1.023c-0.356,-0.294 -0.808,-0.447 -1.27,-0.43c-0.438,-0.026 -0.872,0.096 -1.234,0.344c-0.287,0.209 -0.453,0.545 -0.445,0.9c-0.016,0.318 0.143,0.621 0.414,0.789c0.47,0.246 0.977,0.418 1.5,0.508c0.605,0.123 1.194,0.317 1.754,0.578c0.397,0.18 0.741,0.459 1,0.809c0.224,0.342 0.337,0.744 0.324,1.152c0.018,0.718 -0.322,1.399 -0.906,1.816c-0.687,0.481 -1.514,0.722 -2.352,0.684c-0.619,0.013 -1.233,-0.11 -1.8,-0.359c-0.492,-0.215 -0.915,-0.561 -1.223,-1c-0.287,-0.408 -0.441,-0.896 -0.441,-1.395l1.438,0c0.01,0.452 0.224,0.876 0.582,1.152c0.416,0.301 0.922,0.451 1.434,0.426c0.462,0.022 0.92,-0.093 1.316,-0.332c0.312,-0.187 0.5,-0.527 0.495,-0.89l-0.001,-0.004Zm2.985,-2.054c-0.06,-1.121 0.263,-2.23 0.914,-3.145c0.598,-0.738 1.499,-1.168 2.449,-1.168c0.916,-0 1.789,0.4 2.387,1.094l0.07,-0.937l1.32,0l0,8.256c0.051,0.96 -0.302,1.898 -0.973,2.586c-0.709,0.653 -1.651,0.994 -2.613,0.945c-0.617,-0.002 -1.227,-0.135 -1.789,-0.391c-0.537,-0.223 -1.001,-0.594 -1.336,-1.07l0.75,-0.867c0.532,0.721 1.377,1.148 2.273,1.148c0.606,0.036 1.202,-0.179 1.645,-0.594c0.415,-0.454 0.628,-1.058 0.59,-1.672l-0,-0.727c-0.596,0.674 -1.468,1.043 -2.367,1c-0.948,0.019 -1.846,-0.431 -2.4,-1.2c-0.66,-0.954 -0.983,-2.1 -0.92,-3.258Zm1.453,0.164c-0.044,0.791 0.161,1.577 0.586,2.246c0.371,0.535 0.991,0.843 1.641,0.816c0.857,0.033 1.653,-0.457 2.009,-1.238l-0,-3.86c-0.366,-0.76 -1.149,-1.236 -1.992,-1.211c-0.652,-0.025 -1.274,0.285 -1.648,0.82c-0.445,0.729 -0.653,1.578 -0.596,2.43l-0,-0.003Zm7.484,-0.172c-0.012,-0.772 0.155,-1.537 0.488,-2.234c0.299,-0.629 0.773,-1.16 1.364,-1.528c0.598,-0.364 1.288,-0.551 1.988,-0.539c1.063,-0.037 2.088,0.404 2.793,1.2c0.743,0.888 1.124,2.024 1.066,3.18l-0,0.1c0.013,0.765 -0.149,1.522 -0.473,2.215c-0.293,0.629 -0.763,1.159 -1.352,1.527c-0.608,0.371 -1.308,0.56 -2.02,0.547c-1.06,0.036 -2.083,-0.405 -2.785,-1.2c-0.741,-0.881 -1.123,-2.01 -1.069,-3.16l-0,-0.108Zm1.453,0.172c-0.04,0.804 0.189,1.599 0.652,2.258c0.419,0.538 1.063,0.854 1.745,0.854c0.688,-0 1.337,-0.321 1.755,-0.866c0.47,-0.712 0.697,-1.558 0.647,-2.41c0.037,-0.804 -0.195,-1.597 -0.66,-2.254c-0.407,-0.558 -1.064,-0.882 -1.754,-0.863c-0.68,-0.016 -1.326,0.302 -1.727,0.852c-0.481,0.716 -0.713,1.571 -0.659,2.432l0.001,-0.003Zm13.969,-2.255l1.086,0c0.584,0.023 1.157,-0.168 1.609,-0.539c0.396,-0.36 0.611,-0.879 0.586,-1.414c0.012,-0.084 0.018,-0.169 0.018,-0.253c0,-0.968 -0.796,-1.764 -1.764,-1.764c-0.082,-0 -0.164,0.005 -0.246,0.017c-0.551,-0.029 -1.091,0.164 -1.5,0.535c-0.379,0.372 -0.582,0.888 -0.559,1.418l-1.441,0c-0.019,-0.857 0.343,-1.681 0.988,-2.246c0.692,-0.609 1.591,-0.929 2.512,-0.895c0.919,-0.053 1.824,0.252 2.523,0.852c0.631,0.62 0.964,1.484 0.914,2.367c-0.007,0.517 -0.175,1.02 -0.48,1.438c-0.325,0.467 -0.78,0.829 -1.309,1.039c0.576,0.165 1.084,0.51 1.449,0.984c0.351,0.488 0.531,1.079 0.512,1.68c0.043,0.918 -0.323,1.809 -1,2.43c-0.721,0.619 -1.651,0.941 -2.6,0.9c-0.945,0.042 -1.873,-0.267 -2.605,-0.867c-0.664,-0.571 -1.033,-1.414 -1,-2.289l1.453,-0c-0.024,0.542 0.19,1.067 0.586,1.438c0.434,0.375 0.997,0.568 1.57,0.539c0.585,0.04 1.162,-0.158 1.6,-0.547c0.392,-0.425 0.593,-0.993 0.555,-1.57c0.036,-0.573 -0.188,-1.133 -0.609,-1.523c-0.502,-0.386 -1.126,-0.58 -1.758,-0.547l-1.09,-0l-0,-1.183Z" style="fill:#12263f;fill-rule:nonzero;"/><g id="Trazado_10276"><path d="M592.531,40.5l68,0c6.583,0 12,5.417 12,12l-0,67c-0,6.583 -5.417,12 -12,12l-68,0c-6.583,0 -12,-5.417 -12,-12l-0,-67c-0,-6.583 5.417,-12 12,-12Z" style="fill:none;fill-rule:nonzero;"/><path d="M592.531,41.5c-2.938,0 -5.701,1.144 -7.778,3.222c-2.078,2.077 -3.222,4.84 -3.222,7.778l-0,67c-0,2.938 1.144,5.701 3.222,7.778c2.077,2.078 4.84,3.222 7.778,3.222l68,0c2.938,0 5.701,-1.144 7.778,-3.222c2.078,-2.077 3.222,-4.84 3.222,-7.778l-0,-67c-0,-2.938 -1.144,-5.701 -3.222,-7.778c-2.077,-2.078 -4.84,-3.222 -7.778,-3.222l-68,0m-0,-1l68,0c6.627,0 12,5.373 12,12l-0,67c-0,6.627 -5.373,12 -12,12l-68,0c-6.627,0 -12,-5.373 -12,-12l-0,-67c-0,-6.627 5.373,-12 12,-12Z" style="fill:#f579a8;fill-rule:nonzero;"/></g><path id="Trazado_10277" d="M603.25,92.008c-0.402,0.565 -0.964,0.996 -1.614,1.238c-0.769,0.287 -1.585,0.426 -2.405,0.41c-0.869,0.016 -1.726,-0.212 -2.473,-0.656c-0.725,-0.441 -1.305,-1.085 -1.668,-1.852c-0.409,-0.872 -0.616,-1.826 -0.606,-2.789l-0,-0.992c-0.09,-1.428 0.336,-2.843 1.2,-3.984c0.846,-0.963 2.091,-1.485 3.371,-1.414c1.034,-0.05 2.052,0.273 2.867,0.91c0.753,0.662 1.228,1.585 1.328,2.582l-1.5,0c-0.107,-1.277 -1.188,-2.271 -2.469,-2.271c-0.073,0 -0.146,0.004 -0.219,0.01c-0.891,-0.053 -1.751,0.347 -2.285,1.062c-0.576,0.915 -0.851,1.987 -0.785,3.066l0,0.93c-0.057,1.083 0.251,2.155 0.875,3.042c0.556,0.739 1.44,1.162 2.364,1.13c0.5,0.009 0.998,-0.055 1.48,-0.188c0.4,-0.112 0.762,-0.331 1.047,-0.633l-0,-2.554l-2.633,0l0,-1.219l4.125,0l0,4.172Zm6.359,-5.664c-0.235,-0.038 -0.473,-0.056 -0.711,-0.055c-0.838,-0.069 -1.627,0.426 -1.929,1.211l-0,6l-1.446,0l-0,-8.453l1.408,0l0.023,0.977c0.411,-0.719 1.188,-1.156 2.016,-1.133c0.219,-0.012 0.438,0.026 0.641,0.109l-0.002,1.344Zm6.547,6.32c-0.631,0.69 -1.544,1.056 -2.477,0.992c-0.767,0.052 -1.52,-0.235 -2.058,-0.785c-0.517,-0.66 -0.771,-1.488 -0.715,-2.324l-0,-5.5l1.445,0l-0,5.461c-0,1.281 0.521,1.922 1.563,1.922c0.92,0.103 1.808,-0.396 2.2,-1.234l-0,-6.149l1.445,0l-0,8.453l-1.372,0l-0.031,-0.836Zm10.742,-3.3c0.053,1.105 -0.257,2.197 -0.883,3.109c-0.549,0.768 -1.447,1.212 -2.39,1.183c-0.911,0.047 -1.798,-0.31 -2.422,-0.976l-0,4.07l-1.445,0l-0,-11.7l1.32,0l0.07,0.938c0.596,-0.734 1.508,-1.142 2.453,-1.097c0.942,-0.035 1.843,0.395 2.41,1.148c0.643,0.938 0.955,2.065 0.887,3.2l-0,0.125Zm-1.445,-0.164c0.044,-0.798 -0.17,-1.59 -0.609,-2.258c-0.382,-0.54 -1.011,-0.851 -1.672,-0.828c-0.826,-0.028 -1.596,0.427 -1.969,1.164l0,4.042c0.378,0.738 1.155,1.191 1.984,1.156c0.653,0.019 1.274,-0.291 1.652,-0.824c0.459,-0.732 0.674,-1.59 0.614,-2.452Zm2.9,-0.008c-0.012,-0.772 0.155,-1.537 0.488,-2.234c0.298,-0.628 0.769,-1.159 1.358,-1.528c0.598,-0.364 1.288,-0.551 1.988,-0.539c1.063,-0.037 2.088,0.404 2.793,1.2c0.743,0.888 1.124,2.024 1.066,3.18l-0,0.1c0.013,0.765 -0.149,1.522 -0.473,2.215c-0.294,0.627 -0.763,1.156 -1.351,1.523c-0.608,0.371 -1.308,0.56 -2.02,0.547c-1.06,0.036 -2.083,-0.405 -2.785,-1.2c-0.739,-0.88 -1.12,-2.008 -1.066,-3.156l0.002,-0.108Zm1.453,0.172c-0.04,0.804 0.189,1.599 0.652,2.258c0.406,0.553 1.06,0.873 1.746,0.852c0.69,0.022 1.347,-0.302 1.75,-0.863c0.47,-0.713 0.697,-1.559 0.647,-2.411c0.037,-0.804 -0.195,-1.597 -0.66,-2.254c-0.407,-0.558 -1.064,-0.882 -1.754,-0.863c-0.68,-0.016 -1.326,0.302 -1.727,0.852c-0.48,0.716 -0.71,1.571 -0.656,2.432l0.002,-0.003Zm11.663,-0.164c-0.055,-1.117 0.27,-2.22 0.922,-3.129c0.563,-0.764 1.465,-1.206 2.414,-1.184c0.898,-0.04 1.766,0.335 2.352,1.016l-0,-4.403l1.444,0l-0,12l-1.328,0l-0.07,-0.906c-0.592,0.714 -1.488,1.108 -2.414,1.062c-0.946,0.017 -1.842,-0.432 -2.395,-1.2c-0.652,-0.913 -0.978,-2.02 -0.926,-3.141l0.001,-0.115Zm1.445,0.164c-0.046,0.794 0.162,1.582 0.594,2.25c0.374,0.531 0.992,0.837 1.641,0.813c0.854,0.037 1.65,-0.45 2.007,-1.227l-0,-3.887c-0.366,-0.759 -1.15,-1.231 -1.992,-1.2c-0.655,-0.026 -1.28,0.283 -1.656,0.82c-0.445,0.73 -0.653,1.581 -0.594,2.434l-0,-0.003Zm11.437,4.292c-1.051,0.04 -2.071,-0.371 -2.8,-1.129c-0.745,-0.824 -1.133,-1.911 -1.078,-3.02l-0,-0.266c-0.014,-0.775 0.15,-1.544 0.48,-2.246c0.297,-0.631 0.764,-1.166 1.348,-1.546c0.555,-0.366 1.206,-0.561 1.871,-0.559c0.974,-0.052 1.92,0.35 2.559,1.087c0.663,0.895 0.988,1.997 0.914,3.109l-0,0.6l-5.723,0c-0.014,0.74 0.246,1.46 0.73,2.02c0.45,0.505 1.101,0.787 1.777,0.77c0.453,0.015 0.903,-0.093 1.3,-0.312c0.36,-0.214 0.676,-0.495 0.93,-0.828l0.883,0.688c-0.69,1.079 -1.912,1.704 -3.191,1.632Zm-0.18,-7.578c-0.559,-0.011 -1.095,0.222 -1.469,0.637c-0.428,0.502 -0.685,1.127 -0.733,1.785l4.234,0l-0,-0.109c-0,-0.62 -0.21,-1.221 -0.594,-1.707c-0.363,-0.408 -0.892,-0.631 -1.437,-0.606l-0.001,0Zm-55.148,22.822l-2.672,0l-0,4.6l-1.507,0l-0,-11.375l3.765,0c1.058,-0.069 2.107,0.241 2.957,0.875c0.717,0.645 1.099,1.585 1.035,2.547c0.016,0.663 -0.184,1.313 -0.57,1.853c-0.405,0.543 -0.962,0.953 -1.6,1.18l2.67,4.826l-0,0.094l-1.609,0l-2.469,-4.6Zm-2.672,-1.228l2.3,0c0.644,0.035 1.279,-0.171 1.78,-0.578c0.442,-0.389 0.685,-0.959 0.66,-1.547c0.039,-0.605 -0.191,-1.197 -0.629,-1.617c-0.514,-0.407 -1.161,-0.61 -1.816,-0.57l-2.295,0l0,4.312Zm9.696,5.828l-1.446,0l0,-8.453l1.445,0l0.001,8.453Zm-1.563,-10.7c-0.006,-0.218 0.071,-0.43 0.215,-0.594c0.166,-0.171 0.399,-0.259 0.637,-0.242c0.239,-0.017 0.473,0.072 0.641,0.242c0.146,0.163 0.225,0.375 0.219,0.594c0.007,0.216 -0.072,0.427 -0.219,0.586c-0.17,0.166 -0.404,0.251 -0.641,0.234c-0.236,0.018 -0.468,-0.068 -0.637,-0.234c-0.145,-0.16 -0.222,-0.37 -0.215,-0.586Zm7.383,10.852c-1.051,0.04 -2.071,-0.371 -2.8,-1.129c-0.745,-0.824 -1.133,-1.911 -1.078,-3.02l-0,-0.266c-0.014,-0.775 0.15,-1.544 0.48,-2.246c0.296,-0.63 0.761,-1.166 1.344,-1.547c0.555,-0.366 1.206,-0.561 1.871,-0.559c0.976,-0.053 1.923,0.348 2.563,1.086c0.663,0.895 0.988,1.997 0.914,3.109l-0,0.6l-5.724,0c-0.014,0.74 0.246,1.46 0.73,2.02c0.45,0.505 1.101,0.787 1.777,0.77c0.453,0.015 0.903,-0.093 1.3,-0.312c0.36,-0.214 0.676,-0.495 0.93,-0.828l0.883,0.688c-0.688,1.081 -1.91,1.709 -3.19,1.638l0,-0.004Zm-0.18,-7.578c-0.559,-0.011 -1.095,0.222 -1.469,0.637c-0.429,0.503 -0.686,1.13 -0.734,1.789l4.234,0l0,-0.109c-0,-0.62 -0.21,-1.221 -0.594,-1.707c-0.363,-0.408 -0.892,-0.631 -1.437,-0.606l0,-0.004Zm10.07,5.18c0.016,-0.358 -0.15,-0.701 -0.441,-0.91c-0.472,-0.284 -0.995,-0.474 -1.539,-0.559c-0.602,-0.113 -1.187,-0.302 -1.742,-0.562c-0.378,-0.176 -0.706,-0.445 -0.953,-0.781c-0.211,-0.319 -0.319,-0.696 -0.309,-1.078c-0.001,-0.691 0.326,-1.344 0.879,-1.758c0.64,-0.497 1.436,-0.752 2.246,-0.719c0.841,-0.038 1.668,0.225 2.332,0.742c0.579,0.458 0.911,1.162 0.895,1.9l-1.453,0c-0.001,-0.399 -0.185,-0.777 -0.5,-1.023c-0.356,-0.294 -0.808,-0.447 -1.27,-0.43c-0.438,-0.026 -0.872,0.096 -1.234,0.344c-0.287,0.209 -0.453,0.545 -0.445,0.9c-0.016,0.318 0.143,0.621 0.414,0.789c0.47,0.246 0.977,0.418 1.5,0.508c0.605,0.123 1.194,0.317 1.754,0.578c0.397,0.18 0.741,0.459 1,0.809c0.224,0.342 0.337,0.744 0.324,1.152c0.018,0.718 -0.322,1.399 -0.906,1.816c-0.687,0.481 -1.514,0.722 -2.352,0.684c-0.619,0.013 -1.233,-0.11 -1.8,-0.359c-0.492,-0.215 -0.915,-0.561 -1.223,-1c-0.287,-0.408 -0.441,-0.896 -0.441,-1.395l1.438,0c0.01,0.452 0.224,0.876 0.582,1.152c0.416,0.301 0.922,0.451 1.434,0.426c0.462,0.022 0.92,-0.093 1.316,-0.332c0.312,-0.187 0.5,-0.527 0.495,-0.89l-0.001,-0.004Zm2.985,-2.054c-0.06,-1.121 0.263,-2.23 0.914,-3.145c0.598,-0.738 1.499,-1.168 2.449,-1.168c0.916,-0 1.789,0.4 2.387,1.094l0.07,-0.937l1.32,0l-0,8.256c0.051,0.96 -0.302,1.898 -0.973,2.586c-0.709,0.653 -1.651,0.994 -2.613,0.945c-0.617,-0.002 -1.227,-0.135 -1.789,-0.391c-0.537,-0.223 -1.001,-0.594 -1.336,-1.07l0.75,-0.867c0.532,0.721 1.377,1.148 2.273,1.148c0.606,0.036 1.202,-0.179 1.645,-0.594c0.415,-0.454 0.628,-1.058 0.59,-1.672l-0,-0.727c-0.596,0.674 -1.468,1.043 -2.367,1c-0.948,0.019 -1.846,-0.431 -2.4,-1.2c-0.66,-0.954 -0.983,-2.1 -0.92,-3.258Zm1.453,0.164c-0.044,0.791 0.161,1.577 0.586,2.246c0.371,0.535 0.991,0.843 1.641,0.816c0.857,0.033 1.653,-0.457 2.009,-1.238l-0,-3.86c-0.366,-0.76 -1.149,-1.236 -1.992,-1.211c-0.652,-0.025 -1.274,0.285 -1.648,0.82c-0.445,0.729 -0.653,1.578 -0.596,2.43l-0,-0.003Zm7.484,-0.172c-0.012,-0.772 0.155,-1.537 0.488,-2.234c0.299,-0.629 0.773,-1.16 1.364,-1.528c0.598,-0.364 1.288,-0.551 1.988,-0.539c1.063,-0.037 2.088,0.404 2.793,1.2c0.743,0.888 1.124,2.024 1.066,3.18l-0,0.1c0.013,0.765 -0.149,1.522 -0.473,2.215c-0.293,0.629 -0.763,1.159 -1.352,1.527c-0.608,0.371 -1.308,0.56 -2.02,0.547c-1.06,0.036 -2.083,-0.405 -2.785,-1.2c-0.741,-0.881 -1.123,-2.01 -1.069,-3.16l-0,-0.108Zm1.453,0.172c-0.04,0.804 0.189,1.599 0.652,2.258c0.419,0.538 1.063,0.854 1.745,0.854c0.688,-0 1.337,-0.321 1.755,-0.866c0.47,-0.712 0.697,-1.558 0.647,-2.41c0.037,-0.804 -0.195,-1.597 -0.66,-2.254c-0.407,-0.558 -1.064,-0.882 -1.754,-0.863c-0.68,-0.016 -1.326,0.302 -1.727,0.852c-0.481,0.716 -0.713,1.571 -0.659,2.432l0.001,-0.003Zm12.079,3.378c-0.007,-0.229 0.072,-0.452 0.223,-0.625c0.175,-0.177 0.42,-0.269 0.668,-0.25c0.251,-0.018 0.497,0.073 0.676,0.25c0.155,0.17 0.237,0.395 0.23,0.625c0.006,0.223 -0.077,0.439 -0.23,0.6c-0.181,0.172 -0.427,0.26 -0.676,0.242c-0.031,0.004 -0.062,0.005 -0.093,0.005c-0.438,0 -0.8,-0.361 -0.8,-0.8c0,-0.016 0.001,-0.033 0.002,-0.049l-0,0.002Zm3.414,0c-0.007,-0.229 0.072,-0.452 0.223,-0.625c0.175,-0.177 0.42,-0.269 0.668,-0.25c0.251,-0.018 0.497,0.073 0.676,0.25c0.155,0.17 0.237,0.395 0.23,0.625c0.006,0.223 -0.077,0.439 -0.23,0.6c-0.181,0.172 -0.427,0.26 -0.676,0.242c-0.031,0.004 -0.062,0.005 -0.093,0.005c-0.438,0 -0.8,-0.361 -0.8,-0.8c0,-0.016 0.001,-0.033 0.002,-0.049l-0,0.002Zm3.242,0c-0.007,-0.229 0.072,-0.452 0.223,-0.625c0.175,-0.177 0.42,-0.269 0.668,-0.25c0.251,-0.018 0.497,0.073 0.676,0.25c0.155,0.17 0.237,0.395 0.23,0.625c0.006,0.223 -0.077,0.439 -0.23,0.6c-0.181,0.172 -0.427,0.26 -0.676,0.242c-0.031,0.004 -0.062,0.005 -0.093,0.005c-0.438,0 -0.8,-0.361 -0.8,-0.8c0,-0.016 0.001,-0.033 0.002,-0.049l-0,0.002Z" style="fill:#12263f;fill-rule:nonzero;"/><g id="Grupo_23703"><path id="Trazado_9499" d="M320.097,40.5l-6.816,17.039l5.3,0l-5.3,14.767l18.175,-19.689l-7.952,0l5.301,-12.117l-8.708,0Z" style="fill:#f579a8;fill-rule:nonzero;"/></g><g id="Grupo_23704"><path id="Trazado_9499-2" d="M428.759,40.5l-6.816,17.039l5.3,0l-5.3,14.767l18.175,-19.689l-7.952,0l5.301,-12.117l-8.708,0Z" style="fill:#f579a8;fill-rule:nonzero;"/></g><g id="Grupo_23705"><path id="Trazado_9499-3" d="M535.759,40.5l-6.816,17.039l5.3,0l-5.3,14.767l18.175,-19.689l-7.952,0l5.301,-12.117l-8.708,0Z" style="fill:#f579a8;fill-rule:nonzero;"/></g><g id="Grupo_23706"><path id="Trazado_9499-4" d="M642.759,40.5l-6.816,17.039l5.3,0l-5.3,14.767l18.175,-19.689l-7.952,0l5.301,-12.117l-8.708,0Z" style="fill:#f579a8;fill-rule:nonzero;"/></g><g id="Grupo_23714"><path id="Trazado_9500" d="M68.229,78.285l-6.342,0c-1.087,0 -1.982,0.895 -1.982,1.982l0,7.161c-0,1.087 0.894,1.981 1.981,1.982l0.482,0l0,10.445c0,0.838 0.69,1.528 1.528,1.528l2.324,0c0.838,0 1.528,-0.69 1.528,-1.528l0,-10.444l0.482,0c1.087,-0.001 1.98,-0.895 1.981,-1.982l0,-7.162c0,-1.087 -0.895,-1.982 -1.982,-1.982Z" style="fill:#00348d;fill-rule:nonzero;"/><path id="Trazado_9501" d="M63.381,76.947c0.499,0.323 1.081,0.494 1.675,0.494c1.693,0 3.086,-1.393 3.086,-3.086c-0,-1.693 -1.393,-3.086 -3.086,-3.086c-1.693,0 -3.086,1.393 -3.086,3.086c-0,0 -0,0.001 0,0.001c-0.002,1.047 0.53,2.025 1.411,2.591Z" style="fill:#00348d;fill-rule:nonzero;"/></g><g id="Grupo_23713"><g id="Grupo_23707"><path id="Trazado_9481" d="M85.532,47.818c-2.764,-0.792 -5.652,-1.063 -8.515,-0.8l0,-3.457l2.626,-0l-9.207,-6.151l-9.242,6.151l2.654,0l0,3.041c-1.545,-0.159 -3.098,-0.21 -4.65,-0.154l0,-3.489c-0.407,-0.298 -0.729,-0.697 -0.935,-1.157c-0.157,-0.332 -0.238,-0.695 -0.238,-1.062c0,-1.367 1.125,-2.491 2.491,-2.491c0.001,-0 0.001,-0 0.001,0c0.05,0 0.1,0 0.15,0.005c-1.308,0.079 -2.341,1.176 -2.341,2.487c-0,1.31 1.033,2.407 2.341,2.486l0.15,0c1.365,-0.002 2.488,-1.127 2.488,-2.492c-0,-1.227 -0.907,-2.281 -2.12,-2.464c0.011,-0.095 0.017,-0.191 0.017,-0.287c-0,-1.366 -1.124,-2.49 -2.49,-2.49c-0.597,0 -1.175,0.215 -1.627,0.605c-0.163,0.141 -0.308,0.302 -0.43,0.479c-0.285,0.416 -0.437,0.909 -0.435,1.414c0,0.116 0.008,0.231 0.025,0.346c-1.081,0.294 -1.837,1.283 -1.837,2.404c-0,1.366 1.124,2.491 2.491,2.491c0.381,-0 0.757,-0.088 1.099,-0.256l0,3.533c-1.26,0.079 -2.513,0.246 -3.749,0.5c11.2,-0.862 22.4,4.43 22.4,4.43c-1.351,-1.034 -2.816,-1.911 -4.366,-2.612c4.36,-0.867 8.808,-1.206 13.249,-1.01Z" style="fill:#00348d;fill-rule:nonzero;"/><path id="Trazado_9482" d="M76.463,40.544c1.013,-0 1.846,-0.833 1.846,-1.846c0,-1.013 -0.833,-1.846 -1.846,-1.846c-1.013,-0 -1.846,0.833 -1.846,1.846c0,1.013 0.833,1.846 1.846,1.846Z" style="fill:#00348d;fill-rule:nonzero;"/></g><g id="Grupo_23708"><path id="Trazado_9481-2" d="M65.786,56.796c-1.845,-0.528 -3.773,-0.709 -5.684,-0.533l0,-2.309l1.753,-0l-6.145,-4.106l-6.169,4.105l1.771,-0l0,2.029c-1.03,-0.105 -2.066,-0.138 -3.1,-0.1l0,-2.33c-0.271,-0.199 -0.486,-0.465 -0.624,-0.772c-0.105,-0.222 -0.159,-0.464 -0.159,-0.709c0,-0.911 0.748,-1.661 1.659,-1.663l0.1,-0c-0.87,0.057 -1.555,0.788 -1.555,1.659c-0,0.872 0.685,1.603 1.555,1.66l0.102,0c0.912,0 1.663,-0.751 1.663,-1.663c-0,-0.821 -0.607,-1.525 -1.419,-1.645c0.007,-0.063 0.011,-0.127 0.011,-0.191c0,-0.912 -0.75,-1.662 -1.662,-1.662c-0.398,-0 -0.783,0.143 -1.085,0.403c-0.109,0.094 -0.205,0.201 -0.287,0.32c-0.191,0.277 -0.292,0.605 -0.292,0.941c0,0.077 0.006,0.155 0.017,0.231c-0.715,0.201 -1.213,0.858 -1.213,1.601c-0,0.912 0.751,1.663 1.663,1.663c0.249,-0 0.495,-0.056 0.72,-0.164l0,2.358c-0.84,0.052 -1.675,0.163 -2.5,0.332c7.475,-0.575 14.95,2.957 14.95,2.957c-0.902,-0.69 -1.879,-1.274 -2.914,-1.742c2.91,-0.578 5.88,-0.803 8.844,-0.67Z" style="fill:#00348d;fill-rule:nonzero;"/><path id="Trazado_9482-2" d="M59.733,51.941c0.676,-0 1.232,-0.556 1.232,-1.232c0,-0.676 -0.556,-1.232 -1.232,-1.232c-0.676,-0 -1.232,0.556 -1.232,1.232c0,0.676 0.556,1.232 1.232,1.232Z" style="fill:#00348d;fill-rule:nonzero;"/></g><g id="Grupo_23709"><path id="Trazado_9481-3" d="M72.299,33.993c-1.151,-0.329 -2.354,-0.442 -3.546,-0.332l0,-1.44l1.094,-0l-3.834,-2.565l-3.848,2.561l1.105,-0l0,1.269c-0.643,-0.066 -1.29,-0.088 -1.936,-0.064l0,-1.452c-0.169,-0.124 -0.303,-0.29 -0.389,-0.482c-0.065,-0.139 -0.099,-0.29 -0.099,-0.443c-0,-0.569 0.468,-1.037 1.037,-1.037l0.064,-0c-0.547,0.029 -0.981,0.488 -0.981,1.035c-0,0.548 0.434,1.007 0.981,1.036l0.062,-0c0.003,0 0.006,0 0.01,0c0.569,0 1.037,-0.468 1.037,-1.037c-0,-0.515 -0.384,-0.956 -0.894,-1.027c0.004,-0.038 0.006,-0.076 0.006,-0.114c0,-0.569 -0.468,-1.037 -1.037,-1.037c-0.248,0 -0.488,0.089 -0.676,0.251c-0.068,0.059 -0.128,0.126 -0.179,0.2c-0.119,0.173 -0.182,0.377 -0.182,0.587c-0,0.048 0.003,0.096 0.01,0.144c-0.448,0.124 -0.761,0.535 -0.761,1c0,0.568 0.468,1.037 1.037,1.037c0.158,-0 0.313,-0.036 0.454,-0.105l0,1.471c-0.525,0.032 -1.046,0.102 -1.561,0.207c3.208,-0.097 6.397,0.533 9.327,1.845c-0.563,-0.431 -1.172,-0.796 -1.818,-1.088c1.815,-0.361 3.668,-0.502 5.517,-0.42Z" style="fill:#00348d;fill-rule:nonzero;"/><path id="Trazado_9482-3" d="M68.523,30.965c0.422,-0 0.769,-0.347 0.769,-0.769c0,-0.422 -0.347,-0.769 -0.769,-0.769c-0.422,-0 -0.769,0.347 -0.769,0.769c0,0.422 0.347,0.769 0.769,0.769Z" style="fill:#00348d;fill-rule:nonzero;"/></g></g><g id="Grupo_23712"><g id="Grupo_23710"><circle id="Elipse_1331" cx="50.828" cy="125.333" r="2.112" style="fill:#00348d;"/><circle id="Elipse_1332" cx="61.388" cy="125.333" r="2.112" style="fill:#00348d;"/><path id="Trazado_9429" d="M65.224,129.205c-0.15,-0.416 -0.544,-0.696 -0.986,-0.7l-5.7,-0c-0.446,-0.01 -0.849,0.276 -0.986,0.7l-1.443,3.942l-1.445,-3.981c-0.15,-0.416 -0.544,-0.696 -0.986,-0.7l-5.7,-0c-0.446,-0.01 -0.849,0.276 -0.986,0.7l-2.042,5.632c-0.124,0.367 0.062,0.772 0.422,0.915c0.079,0.029 0.162,0.041 0.246,0.035c0.295,-0.001 0.561,-0.183 0.669,-0.458l1.549,-4.294c0.051,-0.14 0.185,-0.233 0.334,-0.233c0.196,-0 0.357,0.16 0.357,0.356c-0,0.042 -0.008,0.084 -0.022,0.123l-2.183,6.024l2.394,0l-0,4.083c-0,0.483 0.397,0.88 0.88,0.88c0.483,0 0.88,-0.397 0.88,-0.88l-0,-4.083l0.7,0l-0,4.083c-0,0.483 0.397,0.88 0.88,0.88c0.483,0 0.88,-0.397 0.88,-0.88l-0,-4.083l2.394,0l-2.18,-6.019c-0.014,-0.039 -0.022,-0.081 -0.022,-0.123c0,-0.196 0.161,-0.356 0.357,-0.356c0.149,-0 0.283,0.093 0.334,0.233l1.584,4.294c0.108,0.275 0.374,0.457 0.669,0.458l0.141,-0c0.295,-0.001 0.561,-0.183 0.669,-0.458l1.548,-4.295c0.071,-0.149 0.222,-0.245 0.387,-0.246c0.25,0.004 0.454,0.208 0.458,0.458l-0,10.137c-0,0.483 0.397,0.88 0.88,0.88c0.483,0 0.88,-0.397 0.88,-0.88l-0,-3.2c0.019,-0.178 0.171,-0.315 0.35,-0.315c0.179,0 0.331,0.137 0.35,0.315l-0,3.2c-0,0.483 0.397,0.88 0.88,0.88c0.483,0 0.88,-0.397 0.88,-0.88l-0,-10.137c0.004,-0.25 0.208,-0.454 0.458,-0.458c0.165,0.001 0.316,0.097 0.387,0.246l1.619,4.294c0.108,0.275 0.374,0.457 0.669,0.458c0.084,0.006 0.167,-0.006 0.246,-0.035c0.365,-0.138 0.554,-0.548 0.422,-0.915l-2.072,-5.597Z" style="fill:#00348d;fill-rule:nonzero;"/></g><g id="Grupo_23711"><path id="Trazado_9432" d="M71.764,124.837c0.008,0.041 0.017,0.1 0.045,0.114c0.016,0.011 0.036,0.017 0.056,0.017c0.036,0 0.069,-0.02 0.087,-0.051c0.026,-0.034 0.058,-0.063 0.094,-0.087c0.02,0.006 0.042,0.008 0.063,0.005c0.122,-0.02 0.228,-0.093 0.289,-0.2c0.025,-0.041 0.048,-0.084 0.068,-0.128c0.02,0.044 0.042,0.087 0.068,0.128c0.061,0.107 0.167,0.18 0.289,0.2c0.021,0.003 0.043,0.001 0.063,-0.005c0.036,0.024 0.068,0.053 0.094,0.087c0.018,0.031 0.051,0.051 0.087,0.051c0.02,0 0.04,-0.006 0.056,-0.017c0.028,-0.016 0.037,-0.073 0.045,-0.114c0.004,-0.033 0.004,-0.067 -0,-0.1c0.002,-0.106 -0.003,-0.211 -0.015,-0.316c-0.045,-0.235 -0.262,-0.4 -0.5,-0.381c-0.065,0.018 -0.129,0.04 -0.191,0.068c-0.062,-0.027 -0.126,-0.05 -0.191,-0.068c-0.238,-0.019 -0.455,0.146 -0.5,0.381c-0.012,0.105 -0.017,0.21 -0.015,0.316c-0.001,0.034 0.002,0.067 0.008,0.1Z" style="fill:#00348d;fill-rule:nonzero;"/><path id="Trazado_9433" d="M84.47,130.104c0.089,-0.121 0.116,-0.277 0.073,-0.421c-0.043,-0.144 -0,-0.006 -0,-0.01c-0.374,-1.473 -2.726,-2.435 -3.023,-2.45c-0.49,-0.236 -1.063,-0.236 -1.553,0c-1.046,0.299 -1.98,0.903 -2.681,1.735l-0.167,-0.1c-0.085,0.147 -0.278,0.474 -0.521,0.856c0.139,0.1 0.225,0.153 0.225,0.153c0.06,0.039 0.129,0.065 0.2,0.075c0.281,0.112 1.049,-0.251 1.373,-0.451c0.113,-0.069 0.274,-0.175 0.446,-0.289c0.029,0.287 0.124,0.564 0.277,0.809c0.031,0.165 0.047,0.332 0.048,0.5c-0.009,0.308 -0.058,0.613 -0.148,0.908c-0.022,0.041 -0.042,0.084 -0.062,0.126c-0.301,0.785 -0.499,1.607 -0.586,2.444c-0,0.052 -0.009,0.107 -0.015,0.165c-0.006,0.058 -0.014,0.127 -0.019,0.192c-0.192,1.942 -0.812,6.514 -0.812,6.514c0.455,0.133 0.918,0.239 1.386,0.317c0.12,1.046 0.323,1.971 0.667,1.971c0.329,0 0.528,-0.846 0.65,-1.835c0.325,0.014 0.632,0.011 0.919,0c0.122,0.965 0.321,1.779 0.643,1.779c0.34,0 0.542,-0.905 0.662,-1.937c0.493,-0.087 0.974,-0.235 1.431,-0.439c0.457,-0.204 -0.718,-5.547 -0.92,-7.185c-0.065,-0.483 -0.162,-0.961 -0.29,-1.432c0.692,-0.575 1.297,-1.247 1.797,-1.995Zm-3.961,-2.336c-0.001,0 -0.002,0 -0.003,0c-0.158,0 -0.288,-0.13 -0.288,-0.288c0,-0.118 0.073,-0.225 0.183,-0.268c-0.009,0.031 -0.014,0.062 -0.014,0.094c-0,0.191 0.156,0.349 0.347,0.351c-0.054,0.068 -0.136,0.108 -0.223,0.108l-0.002,0.003Zm0.457,0c-0.088,-0.001 -0.171,-0.041 -0.225,-0.111c0.192,-0.001 0.349,-0.159 0.349,-0.351c-0,-0.031 -0.005,-0.063 -0.014,-0.093c0.109,0.044 0.18,0.15 0.18,0.267c0,0.158 -0.13,0.288 -0.288,0.288l-0.002,0Zm1.527,3.727c-0.032,-0.065 -0.067,-0.129 -0.106,-0.19c-0.08,-0.259 -0.122,-0.529 -0.122,-0.8c0.001,-0.141 0.014,-0.283 0.037,-0.422c0.182,-0.262 0.295,-0.566 0.328,-0.883c0.172,0.114 0.334,0.22 0.447,0.289c0.153,0.092 0.312,0.175 0.476,0.248c-0.399,0.556 -0.753,1.143 -1.059,1.755l-0.001,0.003Z" style="fill:#00348d;fill-rule:nonzero;"/><path id="Trazado_9434" d="M80.706,122.966c0.259,0 0.515,0.056 0.75,0.164c0.006,-0.036 0.009,-0.072 0.009,-0.108c-0,-0.416 -0.342,-0.758 -0.759,-0.758c-0.416,-0 -0.758,0.342 -0.758,0.758c0,0.036 0.003,0.072 0.009,0.108c0.235,-0.108 0.49,-0.164 0.749,-0.164Z" style="fill:#00348d;fill-rule:nonzero;"/><path id="Trazado_9435" d="M74.262,127.472l0.518,2.28c0.016,0.052 0.025,0.108 0.037,0.162c0.008,0.035 0.017,0.069 0.024,0.1c-0,0.015 0.008,0.029 0.01,0.045l0.009,0.039c0.005,0.034 0.008,0.069 0.013,0.1l-0,0.034c0.008,0.074 0.013,0.148 0.013,0.223l-0,0.017c0.3,-0.75 0.645,-1.481 1.033,-2.19c-0.17,-0.057 -0.337,-0.124 -0.5,-0.2c-0.274,-0.13 -0.79,-0.405 -1.157,-0.61Zm1.21,1.4c-0.526,-0.425 -0.978,-0.866 -0.859,-1.05l0.007,-0.007c0.281,0.151 0.566,0.3 0.742,0.386c0.106,0.052 0.239,0.108 0.377,0.16c-0.095,0.174 -0.183,0.343 -0.267,0.507l-0,0.004Z" style="fill:#00348d;fill-rule:nonzero;"/><path id="Trazado_9436" d="M72.066,126.082l0.213,-0.074c0.023,-0.014 0.037,-0.041 0.034,-0.068l-0,-0.042c0.003,-0.027 -0.011,-0.054 -0.034,-0.068l-0.213,-0.074c-0.086,-0.03 -0.182,0.011 -0.182,0.1l-0,0.123c-0,0.092 0.096,0.132 0.182,0.103Z" style="fill:#00348d;fill-rule:nonzero;"/><circle id="Elipse_1335" cx="72.465" cy="125.919" r="0.132" style="fill:#00348d;"/><path id="Trazado_9437" d="M82.308,130.078c-0.07,0.409 -0.04,0.829 0.085,1.224c0.039,0.061 0.074,0.125 0.106,0.19c0.306,-0.614 0.66,-1.203 1.06,-1.76c-0.164,-0.073 -0.322,-0.156 -0.476,-0.248c-0.113,-0.069 -0.275,-0.175 -0.447,-0.289c-0.033,0.317 -0.146,0.621 -0.328,0.883Z" style="fill:#00348d;fill-rule:nonzero;"/><path id="Trazado_9438" d="M72.866,126.081c0.086,0.03 0.182,-0.011 0.182,-0.1l-0,-0.123c-0,-0.091 -0.1,-0.131 -0.182,-0.1l-0.213,0.074c-0.023,0.014 -0.037,0.041 -0.034,0.068l-0,0.042c-0.003,0.027 0.011,0.054 0.034,0.068l0.213,0.071Z" style="fill:#00348d;fill-rule:nonzero;"/><path id="Trazado_9439" d="M69.371,134.021c0.093,0.112 0.145,0.254 0.145,0.4l0.309,0c-0.001,-0.282 -0.129,-0.549 -0.349,-0.726c-0.028,0.111 -0.063,0.22 -0.105,0.326Z" style="fill:#00348d;fill-rule:nonzero;"/><path id="Trazado_9440" d="M67.942,134.384l-0,8.626l0.3,0l-0,-8.591c0,-0.222 0.118,-0.428 0.308,-0.541c-0.031,-0.093 -0.059,-0.193 -0.085,-0.3c-0.308,0.152 -0.51,0.462 -0.523,0.806Z" style="fill:#00348d;fill-rule:nonzero;"/><path id="Trazado_9441" d="M74.62,127.811c-0,0 -0.005,0 -0.007,0.007c-0.119,0.183 0.333,0.625 0.859,1.05c0.084,-0.164 0.172,-0.333 0.268,-0.512c-0.138,-0.052 -0.271,-0.108 -0.377,-0.16c-0.177,-0.085 -0.462,-0.234 -0.743,-0.385Z" style="fill:#00348d;fill-rule:nonzero;"/><path id="Trazado_9442" d="M77.058,128.304c0.009,-0.06 0.001,-0.121 -0.022,-0.177c-0.549,-1.002 -1.473,-1.747 -2.569,-2.072c-1.619,-1.029 -3.781,-0.65 -4.954,0.867c-0.108,0.129 -0.202,0.269 -0.281,0.417c-0.016,0.027 -0.033,0.053 -0.048,0.081c-0.565,0.946 -0.833,2.04 -0.769,3.14c-0.022,0.062 -0.034,0.128 -0.035,0.194c-0.001,0.066 0.043,3.5 0.607,3.5c0.564,0 0.589,-3.5 0.589,-3.5c-0.001,-0.117 -0.035,-0.231 -0.1,-0.329c0.085,-0.162 0.161,-0.329 0.227,-0.5c0.157,-0.422 0.862,-2.284 0.907,-2.5l0.068,0l-0.542,2.379c-0.008,0.027 -0.012,0.055 -0.019,0.082c-0.013,0.049 -0.025,0.1 -0.034,0.149l-0,0.013l-0.009,0.039l-0,0.036c-0.007,0.05 -0.015,0.1 -0.019,0.15l-0,0.056c-0,0.051 -0.008,0.1 -0.008,0.153c-0,0.494 0.151,0.976 0.434,1.381c-0.012,0.053 -0.024,0.11 -0.036,0.168c-0.178,0.564 -0.5,2.633 0.027,9.987c-0,0 0.028,0.017 0.078,0.042l-0,0.172c-0.03,0.397 0.269,0.749 0.665,0.785c0.397,-0.035 0.695,-0.388 0.665,-0.785l-0,-0.129c0.051,-0.025 0.1,-0.054 0.148,-0.085c0.128,-3.349 -0.118,-7.2 0.437,-8.584c0.132,0.373 0.217,0.761 0.253,1.155c0.017,0.315 0.036,0.605 0.053,0.808c0.009,0.108 0.022,0.241 0.04,0.389c0.08,1.773 0.01,4.105 0.091,6.233c0.031,0.021 0.063,0.037 0.095,0.055l-0,0.143c-0.03,0.397 0.269,0.749 0.665,0.785c0.397,-0.035 0.695,-0.388 0.665,-0.785l-0,-0.13c0.045,-0.02 0.089,-0.043 0.131,-0.068c0.591,-8.23 0.116,-9.841 -0.029,-10.132c0.105,-0.145 0.193,-0.301 0.263,-0.465c0.007,0.047 0.032,0.09 0.071,0.118c0.491,0.278 2.244,-2.75 2.244,-2.75c0.085,-0.147 0.104,-0.324 0.051,-0.486Zm-4.44,-2.407c-0.003,-0.027 0.011,-0.054 0.034,-0.068l0.213,-0.074c0.086,-0.03 0.182,0.011 0.182,0.1l-0,0.123c-0,0.091 -0.1,0.131 -0.182,0.1l-0.213,-0.074c-0.023,-0.014 -0.037,-0.041 -0.034,-0.068l-0,-0.039Zm-0.153,-0.111c0.072,0 0.132,0.06 0.132,0.132c-0,0.072 -0.06,0.132 -0.132,0.132c-0.072,0 -0.132,-0.06 -0.132,-0.132c-0,-0.072 0.06,-0.132 0.132,-0.132Zm-0.58,0.07c-0,-0.091 0.1,-0.131 0.182,-0.1l0.213,0.074c0.023,0.014 0.037,0.041 0.034,0.068l-0,0.042c0.003,0.027 -0.011,0.054 -0.034,0.068l-0.213,0.074c-0.086,0.03 -0.182,-0.011 -0.182,-0.1l-0,-0.126Zm3,4.621l-0,-0.017c-0,-0.075 -0.005,-0.149 -0.013,-0.223l-0,-0.034c-0,-0.035 -0.007,-0.069 -0.013,-0.1l-0.009,-0.039c-0,-0.015 -0.007,-0.03 -0.01,-0.045c-0.007,-0.035 -0.015,-0.069 -0.024,-0.1c-0.012,-0.054 -0.021,-0.109 -0.037,-0.162l-0.518,-2.28c0.367,0.2 0.884,0.48 1.155,0.612c0.163,0.076 0.33,0.143 0.5,0.2c-0.386,0.707 -0.728,1.437 -1.026,2.185l-0.005,0.003Z" style="fill:#00348d;fill-rule:nonzero;"/><ellipse id="Elipse_1336" cx="79.988" cy="124.824" rx="0.473" ry="0.41" style="fill:#00348d;"/><ellipse id="Elipse_1337" cx="81.39" cy="124.824" rx="0.473" ry="0.41" style="fill:#00348d;"/><g id="Grupo_23663"><ellipse id="Elipse_1338" cx="81.39" cy="124.825" rx="0.473" ry="0.41" style="fill:#00348d;"/><ellipse id="Elipse_1339" cx="79.988" cy="124.825" rx="0.473" ry="0.41" style="fill:#00348d;"/><path id="Trazado_9443" d="M82.464,124.78c0,-0.001 0,-0.002 0,-0.004c0,-0.964 -0.793,-1.757 -1.757,-1.757c-0.964,0 -1.757,0.793 -1.757,1.757c0,0.276 0.065,0.547 0.189,0.793c-0.012,0.023 -0.018,0.048 -0.019,0.074c0,0.069 0.043,0.132 0.107,0.157c-0.035,0.021 -0.057,0.059 -0.058,0.1c0.001,0.065 0.055,0.119 0.12,0.119c0.047,-0 0.089,-0.028 0.109,-0.07c0.332,0.373 0.809,0.587 1.309,0.587c0.499,0 0.976,-0.214 1.308,-0.587c0.019,0.043 0.062,0.07 0.109,0.07c0.065,0 0.119,-0.053 0.119,-0.119c-0,-0.041 -0.022,-0.079 -0.057,-0.101c0.064,-0.025 0.107,-0.088 0.107,-0.157c-0.001,-0.026 -0.007,-0.051 -0.019,-0.074c0.124,-0.244 0.19,-0.514 0.19,-0.788Zm-0.56,-0.249c0.072,0.081 0.112,0.186 0.113,0.294c-0.021,0.294 -0.279,0.519 -0.573,0.5c-0.263,0.013 -0.5,-0.163 -0.564,-0.418c-0.011,-0.095 -0.096,-0.166 -0.192,-0.16c-0.088,-0.004 -0.167,0.055 -0.188,0.141c-0.055,0.264 -0.297,0.45 -0.566,0.436c-0.294,0.019 -0.552,-0.206 -0.573,-0.5c0.001,-0.108 0.041,-0.213 0.113,-0.294c-0.1,0.039 -0.245,-0.117 -0.128,-0.068c0.087,0.019 0.177,0.004 0.254,-0.04l-0.006,0c-0.075,0.021 -0.146,-0.109 -0.077,-0.061c0.053,0.038 0.161,0.012 0.208,0c-0.07,0 -0.1,-0.125 -0.05,-0.069c0.05,0.056 0.206,0.039 0.206,0.039l0.051,0c0.275,-0.015 0.521,0.18 0.568,0.451c0.049,-0.049 0.115,-0.076 0.184,-0.076c0.072,0 0.141,0.03 0.19,0.082c0.044,-0.274 0.291,-0.473 0.568,-0.457l0.051,0c0.017,0 0.158,0.018 0.206,-0.039c0.048,-0.057 0.02,0.07 -0.05,0.069c0.046,0.013 0.155,0.038 0.208,0c0.068,-0.048 0,0.082 -0.077,0.061l-0.006,0c0.077,0.044 0.167,0.059 0.254,0.04c0.121,-0.049 -0.018,0.108 -0.124,0.069Z" style="fill:#00348d;fill-rule:nonzero;"/></g><g id="Grupo_23664"><path id="Trazado_9444" d="M73.168,124.738c0.002,-0.106 -0.003,-0.211 -0.015,-0.316c-0.045,-0.235 -0.262,-0.4 -0.5,-0.381c-0.065,0.018 -0.129,0.04 -0.191,0.068c-0.062,-0.027 -0.126,-0.05 -0.191,-0.068c-0.238,-0.019 -0.455,0.146 -0.5,0.381c-0.012,0.105 -0.017,0.21 -0.015,0.316c-0.004,0.033 -0.004,0.067 -0,0.1c0.008,0.041 0.017,0.1 0.045,0.114c0.016,0.011 0.036,0.017 0.056,0.017c0.036,0 0.069,-0.02 0.087,-0.051c0.026,-0.034 0.058,-0.063 0.094,-0.087c0.02,0.006 0.042,0.008 0.063,0.005c0.122,-0.02 0.228,-0.093 0.289,-0.2c0.025,-0.041 0.048,-0.084 0.068,-0.128c0.02,0.044 0.042,0.087 0.068,0.128c0.061,0.107 0.167,0.18 0.289,0.2c0.021,0.003 0.043,0.001 0.063,-0.005c0.036,0.024 0.068,0.053 0.094,0.087c0.018,0.031 0.051,0.051 0.087,0.051c0.02,0 0.04,-0.006 0.056,-0.017c0.028,-0.016 0.037,-0.073 0.045,-0.114c0.004,-0.033 0.004,-0.067 -0,-0.1l0.008,0Z" style="fill:#00348d;fill-rule:nonzero;"/><path id="Trazado_9445" d="M74.499,122.179l-0.606,0c0.012,-0.05 0.019,-0.101 0.019,-0.153l-0,-0.24c-0,-0.355 -0.293,-0.648 -0.648,-0.648l-1.6,0c-0.355,0 -0.648,0.293 -0.648,0.648l-0,0.243c0,0.052 0.007,0.103 0.019,0.153l-0.606,0c-0.066,0 -0.12,0.116 -0.12,0.259c-0,0.143 0.054,0.259 0.12,0.259l0.591,0c-0.155,0.26 -0.237,0.557 -0.237,0.859c0,0.922 0.759,1.68 1.68,1.68c0.922,0 1.68,-0.758 1.68,-1.68c0,-0.302 -0.081,-0.599 -0.236,-0.859l0.589,0c0.066,0 0.12,-0.116 0.12,-0.259c-0,-0.143 -0.051,-0.262 -0.117,-0.262Zm-1.33,2.658c-0.008,0.041 -0.017,0.1 -0.045,0.114c-0.016,0.011 -0.036,0.017 -0.056,0.017c-0.036,0 -0.069,-0.02 -0.087,-0.051c-0.026,-0.034 -0.058,-0.063 -0.094,-0.087c-0.02,0.006 -0.042,0.008 -0.063,0.005c-0.122,-0.02 -0.228,-0.093 -0.289,-0.2c-0.025,-0.041 -0.048,-0.084 -0.068,-0.128c-0.02,0.044 -0.042,0.087 -0.068,0.128c-0.061,0.107 -0.167,0.18 -0.289,0.2c-0.021,0.003 -0.043,0.001 -0.063,-0.005c-0.036,0.024 -0.068,0.053 -0.094,0.087c-0.018,0.031 -0.051,0.051 -0.087,0.051c-0.02,0 -0.04,-0.006 -0.056,-0.017c-0.028,-0.016 -0.037,-0.073 -0.045,-0.114c-0.004,-0.033 -0.004,-0.067 -0,-0.1c-0.002,-0.106 0.003,-0.211 0.015,-0.316c0.045,-0.235 0.262,-0.4 0.5,-0.381c0.065,0.018 0.129,0.04 0.191,0.068c0.062,-0.027 0.126,-0.05 0.191,-0.068c0.238,-0.019 0.455,0.146 0.5,0.381c0.012,0.105 0.017,0.21 0.015,0.316c0.001,0.034 -0.002,0.067 -0.008,0.1Z" style="fill:#00348d;fill-rule:nonzero;"/></g></g></g><path id="Trazado_10278" d="M11.531,150.303l0,1.969l-11.375,0l0,-1.969l11.375,0Zm0,-11.458l0,1.981l-8.07,5.071l8.07,0l0,1.976l-11.375,0l0,-1.976l8.1,-5.086l-8.1,0l0,-1.966l11.375,0Zm-9.781,-10.323l-0,3.546l9.781,0l-0,1.961l-9.781,0l0,3.516l-1.594,0l-0,-9.023l1.594,0Zm4.7,-8.141l-0,4.672l3.5,0l-0,-5.461l1.581,0l-0,7.437l-11.375,0l-0,-7.384l1.594,0l-0,5.408l3.141,0l-0,-4.672l1.559,0Zm0.7,-6.578l-0,2.2l4.381,0l-0,1.979l-11.375,0l-0,-4c-0.07,-1.085 0.243,-2.16 0.883,-3.039c0.638,-0.735 1.584,-1.131 2.555,-1.07c0.679,-0.024 1.348,0.169 1.91,0.551c0.531,0.39 0.942,0.922 1.184,1.535l4.743,-2.555l0.1,0l-0,2.118l-4.381,2.281Zm-1.586,2.2l-0,-2.028c0.035,-0.565 -0.143,-1.123 -0.5,-1.563c-0.354,-0.386 -0.862,-0.594 -1.385,-0.567c-0.523,-0.032 -1.037,0.156 -1.414,0.52c-0.364,0.432 -0.549,0.987 -0.516,1.551l-0,2.09l3.815,-0.003Zm3.49,-11.864l-8.9,-2.891l-0,-2.172l11.377,4.094l-0,1.914l-11.375,4.078l-0,-2.164l8.898,-2.859Zm2.477,-25.43l-0,1.977l-8.07,5.07l8.07,0l-0,1.976l-11.375,0l-0,-1.977l8.1,-5.086l-8.1,0l-0,-1.961l11.375,0.001Zm-3.7,-11.016c1.087,0.054 2.109,0.538 2.84,1.344c0.711,0.878 1.073,1.989 1.016,3.117c0.017,0.842 -0.207,1.671 -0.644,2.391c-0.441,0.701 -1.078,1.258 -1.832,1.6c-0.866,0.391 -1.807,0.591 -2.758,0.586l-1.063,0c-0.976,0.02 -1.944,-0.174 -2.836,-0.57c-0.779,-0.346 -1.437,-0.916 -1.891,-1.637c-0.451,-0.742 -0.682,-1.597 -0.664,-2.465c-0.053,-1.103 0.313,-2.186 1.023,-3.031c0.755,-0.801 1.792,-1.28 2.891,-1.336l-0,1.97c-0.655,0.024 -1.282,0.278 -1.77,0.715c-0.392,0.47 -0.587,1.074 -0.543,1.684c-0.04,0.776 0.315,1.521 0.941,1.98c0.826,0.515 1.791,0.761 2.763,0.704l1.008,0c0.982,0.062 1.961,-0.167 2.813,-0.66c0.64,-0.429 1.009,-1.165 0.969,-1.934c0.047,-0.628 -0.139,-1.251 -0.523,-1.75c-0.473,-0.446 -1.091,-0.708 -1.74,-0.739l-0,-1.969Zm3.7,-3.848l-0,1.966l-11.375,0l-0,-1.966l11.375,0Zm-5.391,-11.508c1.008,-0.022 2.009,0.176 2.934,0.578c0.795,0.346 1.469,0.92 1.937,1.65c0.458,0.742 0.693,1.601 0.676,2.473c0.014,0.869 -0.22,1.724 -0.676,2.464c-0.465,0.734 -1.134,1.315 -1.926,1.672c-0.905,0.409 -1.89,0.614 -2.883,0.6l-0.641,0c-1.01,0.02 -2.013,-0.181 -2.937,-0.59c-0.799,-0.351 -1.477,-0.93 -1.949,-1.664c-0.457,-0.74 -0.692,-1.596 -0.676,-2.465c-0.016,-0.868 0.216,-1.724 0.668,-2.465c0.462,-0.731 1.131,-1.309 1.922,-1.66c0.918,-0.408 1.914,-0.611 2.918,-0.594l0.633,0.001Zm-0.594,1.977c-1.017,-0.064 -2.03,0.185 -2.9,0.715c-0.662,0.457 -1.043,1.224 -1.008,2.027c-0.029,0.793 0.349,1.547 1,2c0.848,0.532 1.84,0.789 2.84,0.738l0.656,0c1.019,0.062 2.032,-0.193 2.9,-0.73c0.665,-0.455 1.052,-1.221 1.023,-2.027c0.037,-0.8 -0.341,-1.565 -1,-2.02c-0.879,-0.527 -1.899,-0.774 -2.922,-0.707l-0.589,0.004Zm5.985,-12.969l-0,1.977l-8.07,5.07l8.07,0l-0,1.973l-11.375,0l-0,-1.977l8.1,-5.086l-8.1,0l-0,-1.957l11.375,0Zm-5.078,-8.984l-0,4.672l3.5,0l-0,-5.461l1.578,0l-0,7.437l-11.375,0l-0,-7.383l1.594,0l-0,5.406l3.141,0l-0,-4.672l1.562,0.001Zm2.148,-8.344c-0.448,-0.023 -0.88,0.174 -1.156,0.528c-0.375,0.584 -0.652,1.226 -0.82,1.9c-0.211,0.766 -0.521,1.501 -0.922,2.187c-0.499,0.945 -1.479,1.543 -2.547,1.555c-0.891,0.013 -1.735,-0.405 -2.266,-1.121c-0.623,-0.838 -0.938,-1.867 -0.891,-2.91c-0.013,-0.729 0.137,-1.453 0.438,-2.117c0.27,-0.594 0.702,-1.101 1.246,-1.461c0.531,-0.352 1.156,-0.536 1.793,-0.531l-0,1.969c-0.524,-0.028 -1.035,0.176 -1.395,0.559c-0.361,0.452 -0.54,1.023 -0.5,1.6c-0.032,0.532 0.114,1.06 0.414,1.5c0.275,0.356 0.707,0.556 1.156,0.535c0.423,-0.003 0.816,-0.221 1.043,-0.578c0.369,-0.589 0.643,-1.232 0.813,-1.906c0.204,-0.748 0.507,-1.465 0.9,-2.133c0.282,-0.483 0.679,-0.888 1.156,-1.18c0.467,-0.258 0.994,-0.387 1.527,-0.375c0.886,-0.029 1.733,0.378 2.262,1.09c0.602,0.864 0.897,1.905 0.84,2.957c0.009,0.78 -0.147,1.554 -0.457,2.27c-0.266,0.641 -0.703,1.198 -1.262,1.609c-0.548,0.386 -1.205,0.587 -1.875,0.574l-0,-1.977c0.572,0.032 1.127,-0.206 1.5,-0.641c0.386,-0.531 0.574,-1.181 0.531,-1.836c0.04,-0.549 -0.107,-1.096 -0.418,-1.551c-0.265,-0.34 -0.679,-0.534 -1.11,-0.519l-0,0.003Z" style="fill:#00348d;fill-rule:nonzero;"/><path id="Trazado_102781" serif:id="Trazado_10278" d="M11.531,150.303l0,1.969l-11.375,0l0,-1.969l11.375,0Zm0,-11.458l0,1.981l-8.07,5.071l8.07,0l0,1.976l-11.375,0l0,-1.976l8.1,-5.086l-8.1,0l0,-1.966l11.375,0Zm-9.781,-10.323l-0,3.546l9.781,0l-0,1.961l-9.781,0l0,3.516l-1.594,0l-0,-9.023l1.594,0Zm4.7,-37.141l-0,4.672l3.5,0l-0,-5.461l1.581,0l-0,7.437l-11.375,0l-0,-7.384l1.594,0l-0,5.408l3.141,0l-0,-4.672l1.559,0Zm0.7,22.422l-0,2.2l4.381,0l-0,1.979l-11.375,0l-0,-4c-0.07,-1.085 0.243,-2.16 0.883,-3.039c0.638,-0.735 1.584,-1.131 2.555,-1.07c0.679,-0.024 1.348,0.169 1.91,0.551c0.531,0.39 0.942,0.922 1.184,1.535l4.743,-2.555l0.1,0l-0,2.118l-4.381,2.281Zm-1.586,2.2l-0,-2.028c0.035,-0.565 -0.143,-1.123 -0.5,-1.563c-0.354,-0.386 -0.862,-0.594 -1.385,-0.567c-0.523,-0.032 -1.037,0.156 -1.414,0.52c-0.364,0.432 -0.549,0.987 -0.516,1.551l-0,2.09l3.815,-0.003Zm3.49,-11.864l-8.9,-2.891l-0,-2.172l11.377,4.094l-0,1.914l-11.375,4.078l-0,-2.164l8.898,-2.859Zm2.477,-25.43l-0,1.977l-8.07,5.07l8.07,0l-0,1.976l-11.375,0l-0,-1.977l8.1,-5.086l-8.1,0l-0,-1.961l11.375,0.001Zm-3.7,-11.016c1.087,0.054 2.109,0.538 2.84,1.344c0.711,0.878 1.073,1.989 1.016,3.117c0.017,0.842 -0.207,1.671 -0.644,2.391c-0.441,0.701 -1.078,1.258 -1.832,1.6c-0.866,0.391 -1.807,0.591 -2.758,0.586l-1.063,0c-0.976,0.02 -1.944,-0.174 -2.836,-0.57c-0.779,-0.346 -1.437,-0.916 -1.891,-1.637c-0.451,-0.742 -0.682,-1.597 -0.664,-2.465c-0.053,-1.103 0.313,-2.186 1.023,-3.031c0.755,-0.801 1.792,-1.28 2.891,-1.336l-0,1.97c-0.655,0.024 -1.282,0.278 -1.77,0.715c-0.392,0.47 -0.587,1.074 -0.543,1.684c-0.04,0.776 0.315,1.521 0.941,1.98c0.826,0.515 1.791,0.761 2.763,0.704l1.008,0c0.982,0.062 1.961,-0.167 2.813,-0.66c0.64,-0.429 1.009,-1.165 0.969,-1.934c0.047,-0.628 -0.139,-1.251 -0.523,-1.75c-0.473,-0.446 -1.091,-0.708 -1.74,-0.739l-0,-1.969Zm3.7,-3.848l-0,1.966l-11.375,0l-0,-1.966l11.375,0Zm-5.391,-11.508c1.008,-0.022 2.009,0.176 2.934,0.578c0.795,0.346 1.469,0.92 1.937,1.65c0.458,0.742 0.693,1.601 0.676,2.473c0.014,0.869 -0.22,1.724 -0.676,2.464c-0.465,0.734 -1.134,1.315 -1.926,1.672c-0.905,0.409 -1.89,0.614 -2.883,0.6l-0.641,0c-1.01,0.02 -2.013,-0.181 -2.937,-0.59c-0.799,-0.351 -1.477,-0.93 -1.949,-1.664c-0.457,-0.74 -0.692,-1.596 -0.676,-2.465c-0.016,-0.868 0.216,-1.724 0.668,-2.465c0.462,-0.731 1.131,-1.309 1.922,-1.66c0.918,-0.408 1.914,-0.611 2.918,-0.594l0.633,0.001Zm-0.594,1.977c-1.017,-0.064 -2.03,0.185 -2.9,0.715c-0.662,0.457 -1.043,1.224 -1.008,2.027c-0.029,0.793 0.349,1.547 1,2c0.848,0.532 1.84,0.789 2.84,0.738l0.656,0c1.019,0.062 2.032,-0.193 2.9,-0.73c0.665,-0.455 1.052,-1.221 1.023,-2.027c0.037,-0.8 -0.341,-1.565 -1,-2.02c-0.879,-0.527 -1.899,-0.774 -2.922,-0.707l-0.589,0.004Zm5.985,-12.969l-0,1.977l-8.07,5.07l8.07,0l-0,1.973l-11.375,0l-0,-1.977l8.1,-5.086l-8.1,0l-0,-1.957l11.375,0Zm-5.078,-8.984l-0,4.672l3.5,0l-0,-5.461l1.578,0l-0,7.437l-11.375,0l-0,-7.383l1.594,0l-0,5.406l3.141,0l-0,-4.672l1.562,0.001Zm2.148,-8.344c-0.448,-0.023 -0.88,0.174 -1.156,0.528c-0.375,0.584 -0.652,1.226 -0.82,1.9c-0.211,0.766 -0.521,1.501 -0.922,2.187c-0.499,0.945 -1.479,1.543 -2.547,1.555c-0.891,0.013 -1.735,-0.405 -2.266,-1.121c-0.623,-0.838 -0.938,-1.867 -0.891,-2.91c-0.013,-0.729 0.137,-1.453 0.438,-2.117c0.27,-0.594 0.702,-1.101 1.246,-1.461c0.531,-0.352 1.156,-0.536 1.793,-0.531l-0,1.969c-0.524,-0.028 -1.035,0.176 -1.395,0.559c-0.361,0.452 -0.54,1.023 -0.5,1.6c-0.032,0.532 0.114,1.06 0.414,1.5c0.275,0.356 0.707,0.556 1.156,0.535c0.423,-0.003 0.816,-0.221 1.043,-0.578c0.369,-0.589 0.643,-1.232 0.813,-1.906c0.204,-0.748 0.507,-1.465 0.9,-2.133c0.282,-0.483 0.679,-0.888 1.156,-1.18c0.467,-0.258 0.994,-0.387 1.527,-0.375c0.886,-0.029 1.733,0.378 2.262,1.09c0.602,0.864 0.897,1.905 0.84,2.957c0.009,0.78 -0.147,1.554 -0.457,2.27c-0.266,0.641 -0.703,1.198 -1.262,1.609c-0.548,0.386 -1.205,0.587 -1.875,0.574l-0,-1.977c0.572,0.032 1.127,-0.206 1.5,-0.641c0.386,-0.531 0.574,-1.181 0.531,-1.836c0.04,-0.549 -0.107,-1.096 -0.418,-1.551c-0.265,-0.34 -0.679,-0.534 -1.11,-0.519l-0,0.003Z" style="fill:#00348d;fill-rule:nonzero;"/><path id="Trazado_9502" d="M147.531,13.94l0,-13.44l-141.5,0l0,13.44" style="fill:none;fill-rule:nonzero;stroke:#00348d;stroke-width:1px;"/><path id="Trazado_9503" d="M147.531,162.5l0,13.44l-141.5,-0l0,-13.44" style="fill:none;fill-rule:nonzero;stroke:#00348d;stroke-width:1px;"/><path id="Trazado_10279" d="M106.351,46.047l0,4.453l-1.5,-0l0,-11.375l4.2,-0c1.06,-0.062 2.106,0.278 2.926,0.953c0.707,0.643 1.093,1.567 1.054,2.522c0.059,0.963 -0.322,1.902 -1.035,2.552c-0.847,0.648 -1.901,0.966 -2.965,0.895l-2.68,-0Zm0,-1.227l2.7,-0c0.663,0.045 1.32,-0.157 1.844,-0.566c0.444,-0.424 0.678,-1.024 0.636,-1.637c0.027,-0.608 -0.206,-1.2 -0.641,-1.625c-0.484,-0.428 -1.114,-0.655 -1.759,-0.633l-2.78,-0l0,4.461Zm7.88,1.38c-0.012,-0.772 0.155,-1.537 0.488,-2.234c0.298,-0.632 0.771,-1.165 1.363,-1.536c0.598,-0.364 1.288,-0.551 1.988,-0.539c1.063,-0.037 2.088,0.404 2.793,1.2c0.742,0.886 1.124,2.02 1.068,3.175l0,0.1c0.013,0.765 -0.149,1.522 -0.473,2.215c-0.294,0.629 -0.764,1.16 -1.353,1.528c-0.608,0.371 -1.308,0.56 -2.02,0.547c-1.06,0.036 -2.083,-0.405 -2.785,-1.2c-0.74,-0.88 -1.122,-2.007 -1.069,-3.156l0,-0.1Zm1.453,0.172c-0.04,0.804 0.189,1.599 0.652,2.258c0.406,0.553 1.06,0.873 1.746,0.852c0.69,0.022 1.347,-0.302 1.75,-0.863c0.474,-0.714 0.703,-1.563 0.652,-2.419c0.037,-0.804 -0.195,-1.597 -0.66,-2.254c-0.407,-0.558 -1.064,-0.882 -1.754,-0.863c-0.68,-0.016 -1.326,0.302 -1.727,0.852c-0.48,0.716 -0.71,1.571 -0.656,2.432l-0.003,0.005Zm15.211,0c0.055,1.107 -0.259,2.202 -0.891,3.113c-0.553,0.76 -1.448,1.199 -2.387,1.171c-0.96,0.049 -1.886,-0.374 -2.477,-1.133l-0.07,0.977l-1.328,0l0,-12l1.445,0l0,4.477c0.586,-0.725 1.483,-1.129 2.414,-1.086c0.948,-0.037 1.856,0.4 2.418,1.164c0.634,0.938 0.942,2.058 0.879,3.188l-0.003,0.129Zm-1.442,-0.172c0.049,-0.801 -0.15,-1.597 -0.57,-2.281c-0.373,-0.53 -0.994,-0.833 -1.641,-0.8c-0.895,-0.036 -1.721,0.497 -2.055,1.328l0,3.653c0.35,0.825 1.174,1.354 2.07,1.328c0.64,0.027 1.25,-0.275 1.617,-0.8c0.437,-0.731 0.64,-1.579 0.579,-2.428Zm4.836,4.3l-1.445,-0l0,-12l1.445,-0l0,12Zm7.531,-0c-0.111,-0.285 -0.179,-0.586 -0.2,-0.891c-0.618,0.675 -1.494,1.056 -2.409,1.047c-0.748,0.03 -1.48,-0.223 -2.051,-0.707c-0.522,-0.447 -0.816,-1.106 -0.8,-1.793c-0.036,-0.808 0.341,-1.581 1,-2.051c0.841,-0.534 1.829,-0.79 2.824,-0.73l1.406,-0l-0,-0.664c0.024,-0.448 -0.139,-0.887 -0.45,-1.211c-0.367,-0.323 -0.849,-0.485 -1.336,-0.449c-0.465,-0.017 -0.922,0.121 -1.3,0.391c-0.32,0.208 -0.516,0.563 -0.523,0.945l-1.45,-0c0.009,-0.446 0.167,-0.877 0.449,-1.223c0.321,-0.41 0.74,-0.731 1.219,-0.934c0.533,-0.233 1.109,-0.351 1.691,-0.344c0.827,-0.049 1.643,0.211 2.289,0.73c0.564,0.514 0.878,1.249 0.859,2.012l-0,3.891c-0.024,0.631 0.078,1.261 0.3,1.852l-0,0.129l-1.518,0Zm-2.4,-1.1c0.453,-0 0.898,-0.122 1.289,-0.352c0.381,-0.208 0.689,-0.527 0.883,-0.914l-0,-1.734l-1.131,0c-1.771,0 -2.656,0.518 -2.656,1.555c-0.021,0.405 0.146,0.798 0.453,1.063c0.329,0.264 0.743,0.4 1.164,0.382l-0.002,0Zm9.273,0.078c0.492,0.008 0.971,-0.158 1.352,-0.469c0.369,-0.283 0.602,-0.709 0.641,-1.172l1.367,0c-0.031,0.499 -0.205,0.979 -0.5,1.383c-0.317,0.446 -0.739,0.806 -1.23,1.047c-0.504,0.258 -1.063,0.392 -1.629,0.391c-1.042,0.045 -2.05,-0.381 -2.745,-1.158c-0.719,-0.886 -1.082,-2.009 -1.018,-3.148l0,-0.242c-0.015,-0.758 0.14,-1.51 0.453,-2.2c0.278,-0.614 0.73,-1.132 1.3,-1.492c0.603,-0.364 1.296,-0.548 2,-0.531c0.867,-0.029 1.714,0.276 2.363,0.852c0.625,0.566 0.988,1.368 1,2.211l-1.36,0c-0.026,-0.512 -0.248,-0.996 -0.621,-1.348c-0.372,-0.351 -0.868,-0.541 -1.379,-0.527c-0.664,-0.033 -1.303,0.264 -1.707,0.793c-0.446,0.678 -0.659,1.483 -0.605,2.293l-0,0.273c-0.051,0.795 0.16,1.586 0.6,2.25c0.407,0.531 1.052,0.828 1.72,0.793l-0.002,0.001Zm6.557,1.022l-1.446,0l0,-8.453l1.445,0l0.001,8.453Zm-1.563,-10.7c-0.006,-0.218 0.071,-0.43 0.215,-0.594c0.166,-0.171 0.399,-0.259 0.637,-0.242c0.239,-0.017 0.473,0.072 0.641,0.242c0.146,0.163 0.225,0.375 0.219,0.594c0.007,0.216 -0.072,0.427 -0.219,0.586c-0.17,0.166 -0.404,0.251 -0.641,0.234c-0.236,0.018 -0.468,-0.068 -0.637,-0.234c-0.145,-0.16 -0.222,-0.37 -0.215,-0.586Zm3.492,6.4c-0.012,-0.772 0.155,-1.537 0.488,-2.234c0.298,-0.632 0.771,-1.165 1.364,-1.536c0.598,-0.364 1.288,-0.551 1.988,-0.539c1.063,-0.037 2.088,0.404 2.793,1.2c0.743,0.888 1.124,2.024 1.066,3.18l0,0.1c0.013,0.765 -0.149,1.522 -0.473,2.215c-0.295,0.628 -0.765,1.157 -1.354,1.523c-0.608,0.371 -1.308,0.56 -2.02,0.547c-1.06,0.036 -2.083,-0.405 -2.785,-1.2c-0.739,-0.88 -1.121,-2.008 -1.067,-3.156l0,-0.1Zm1.453,0.172c-0.04,0.804 0.189,1.599 0.652,2.258c0.406,0.553 1.06,0.873 1.746,0.852c0.69,0.022 1.347,-0.302 1.75,-0.863c0.473,-0.714 0.702,-1.564 0.651,-2.419c0.037,-0.804 -0.195,-1.597 -0.66,-2.254c-0.407,-0.558 -1.064,-0.882 -1.754,-0.863c-0.68,-0.016 -1.326,0.302 -1.727,0.852c-0.481,0.716 -0.713,1.571 -0.659,2.432l0.001,0.005Zm9.422,-4.32l0.047,1.063c0.597,-0.791 1.54,-1.247 2.53,-1.224c1.787,-0 2.687,1.008 2.7,3.023l0,5.586l-1.441,-0l0,-5.594c0.035,-0.487 -0.114,-0.97 -0.418,-1.352c-0.345,-0.318 -0.809,-0.477 -1.277,-0.437c-0.441,-0.008 -0.873,0.123 -1.234,0.375c-0.356,0.252 -0.641,0.591 -0.828,0.984l0,6.024l-1.446,-0l0,-8.453l1.367,0.005Zm10.969,8.604c-1.048,0.037 -2.064,-0.373 -2.792,-1.129c-0.745,-0.824 -1.133,-1.911 -1.078,-3.02l0,-0.266c-0.014,-0.774 0.15,-1.54 0.478,-2.241c0.296,-0.63 0.761,-1.166 1.344,-1.547c0.555,-0.366 1.206,-0.561 1.871,-0.559c0.976,-0.053 1.923,0.348 2.563,1.086c0.663,0.895 0.988,1.997 0.914,3.109l0,0.6l-5.729,-0c-0.014,0.74 0.246,1.46 0.73,2.02c0.45,0.505 1.101,0.787 1.777,0.77c0.453,0.015 0.903,-0.093 1.3,-0.312c0.36,-0.214 0.676,-0.495 0.93,-0.828l0.883,0.688c-0.691,1.078 -1.913,1.702 -3.191,1.629Zm-0.18,-7.578c-0.559,-0.011 -1.095,0.222 -1.469,0.637c-0.428,0.502 -0.686,1.127 -0.734,1.785l4.234,-0l0,-0.109c-0,-0.62 -0.21,-1.221 -0.594,-1.707c-0.363,-0.407 -0.891,-0.63 -1.436,-0.606l-0.001,-0Zm10.07,5.18c0.016,-0.358 -0.15,-0.701 -0.441,-0.91c-0.473,-0.285 -0.996,-0.474 -1.541,-0.559c-0.602,-0.113 -1.187,-0.302 -1.742,-0.562c-0.378,-0.176 -0.706,-0.445 -0.953,-0.781c-0.21,-0.32 -0.316,-0.697 -0.305,-1.079c-0.001,-0.691 0.326,-1.344 0.879,-1.758c0.64,-0.497 1.436,-0.752 2.246,-0.719c0.841,-0.038 1.668,0.225 2.332,0.742c0.579,0.458 0.911,1.162 0.895,1.9l-1.452,-0c-0.001,-0.399 -0.185,-0.777 -0.5,-1.023c-0.356,-0.294 -0.808,-0.447 -1.27,-0.43c-0.438,-0.026 -0.872,0.096 -1.234,0.344c-0.287,0.209 -0.453,0.545 -0.445,0.9c-0.016,0.318 0.143,0.621 0.414,0.789c0.47,0.246 0.977,0.418 1.5,0.508c0.605,0.123 1.194,0.317 1.754,0.578c0.397,0.18 0.741,0.459 1,0.809c0.224,0.342 0.337,0.744 0.324,1.152c0.018,0.718 -0.322,1.399 -0.906,1.816c-0.691,0.483 -1.524,0.723 -2.367,0.681c-0.619,0.013 -1.233,-0.11 -1.8,-0.359c-0.492,-0.215 -0.915,-0.561 -1.223,-1c-0.287,-0.409 -0.44,-0.897 -0.438,-1.397l1.445,-0c0.01,0.452 0.224,0.876 0.582,1.152c0.416,0.301 0.922,0.451 1.434,0.426c0.462,0.022 0.92,-0.093 1.316,-0.332c0.312,-0.186 0.501,-0.525 0.497,-0.888l-0.001,-0Z" style="fill:#00348d;fill-rule:nonzero;"/><path id="Trazado_10280" d="M113.219,134.891c-0.073,1.064 -0.55,2.061 -1.333,2.785c-0.837,0.684 -1.9,1.034 -2.98,0.98c-1.242,0.045 -2.436,-0.489 -3.23,-1.445c-0.855,-1.101 -1.287,-2.474 -1.215,-3.867l0,-1.094c-0.019,-0.96 0.176,-1.913 0.57,-2.789c0.34,-0.76 0.897,-1.403 1.6,-1.848c0.725,-0.439 1.559,-0.662 2.406,-0.645c1.063,-0.052 2.107,0.311 2.908,1.012c0.76,0.741 1.215,1.74 1.273,2.8l-1.507,-0c-0.052,-0.733 -0.351,-1.427 -0.848,-1.969c-0.506,-0.432 -1.16,-0.651 -1.824,-0.611c-0.88,-0.036 -1.724,0.363 -2.254,1.066c-0.597,0.89 -0.884,1.953 -0.816,3.023l0,1.1c-0.054,1.038 0.216,2.067 0.773,2.945c0.483,0.713 1.303,1.128 2.164,1.096c0.686,0.046 1.367,-0.155 1.918,-0.566c0.52,-0.532 0.834,-1.231 0.887,-1.973l1.508,-0Zm1.438,-0.7c-0.012,-0.772 0.155,-1.537 0.488,-2.234c0.298,-0.628 0.77,-1.158 1.359,-1.527c0.598,-0.364 1.288,-0.551 1.988,-0.539c1.063,-0.037 2.088,0.404 2.793,1.2c0.743,0.888 1.124,2.024 1.066,3.18l0,0.1c0.013,0.765 -0.149,1.522 -0.473,2.215c-0.293,0.627 -0.761,1.156 -1.347,1.523c-0.608,0.371 -1.308,0.56 -2.02,0.547c-1.06,0.036 -2.083,-0.405 -2.785,-1.2c-0.741,-0.88 -1.123,-2.007 -1.07,-3.156l0.001,-0.109Zm1.453,0.172c-0.04,0.804 0.189,1.599 0.652,2.258c0.406,0.553 1.06,0.873 1.746,0.852c0.69,0.022 1.347,-0.302 1.75,-0.863c0.47,-0.712 0.698,-1.558 0.648,-2.41c0.037,-0.804 -0.195,-1.597 -0.66,-2.254c-0.407,-0.558 -1.064,-0.882 -1.754,-0.863c-0.68,-0.016 -1.326,0.302 -1.727,0.852c-0.48,0.716 -0.71,1.571 -0.656,2.432l0.001,-0.004Zm9.621,4.137l-1.442,-0l0,-12l1.442,-0l0,12Zm5.82,0.156c-1.051,0.04 -2.071,-0.371 -2.8,-1.129c-0.745,-0.824 -1.133,-1.911 -1.078,-3.02l0,-0.266c-0.014,-0.775 0.15,-1.544 0.48,-2.246c0.296,-0.63 0.761,-1.166 1.344,-1.547c0.555,-0.366 1.206,-0.561 1.871,-0.559c0.976,-0.053 1.923,0.348 2.563,1.086c0.663,0.895 0.988,1.997 0.914,3.109l0,0.6l-5.72,-0c-0.014,0.74 0.246,1.46 0.73,2.02c0.45,0.505 1.101,0.787 1.777,0.77c0.453,0.015 0.903,-0.093 1.3,-0.312c0.36,-0.214 0.676,-0.495 0.93,-0.828l0.883,0.688c-0.689,1.08 -1.912,1.706 -3.191,1.634l-0.003,-0Zm-0.18,-7.578c-0.559,-0.011 -1.095,0.222 -1.469,0.637c-0.427,0.502 -0.683,1.128 -0.73,1.785l4.234,-0l0,-0.109c-0,-0.62 -0.21,-1.221 -0.594,-1.707c-0.363,-0.408 -0.892,-0.631 -1.437,-0.606l-0.004,-0Zm8.539,6.4c0.492,0.008 0.971,-0.158 1.352,-0.469c0.369,-0.283 0.602,-0.709 0.641,-1.172l1.367,-0c-0.031,0.499 -0.205,0.979 -0.5,1.383c-0.317,0.446 -0.739,0.806 -1.23,1.047c-0.504,0.258 -1.063,0.392 -1.629,0.391c-1.041,0.044 -2.049,-0.381 -2.743,-1.158c-0.72,-0.887 -1.084,-2.011 -1.02,-3.152l0,-0.242c-0.015,-0.758 0.14,-1.51 0.453,-2.2c0.278,-0.614 0.73,-1.132 1.3,-1.492c0.603,-0.364 1.296,-0.548 2,-0.531c0.867,-0.029 1.714,0.276 2.363,0.852c0.625,0.566 0.988,1.368 1,2.211l-1.358,-0c-0.026,-0.512 -0.248,-0.996 -0.621,-1.348c-0.372,-0.351 -0.868,-0.541 -1.379,-0.527c-0.664,-0.033 -1.303,0.264 -1.707,0.793c-0.446,0.678 -0.659,1.483 -0.605,2.293l0,0.273c-0.051,0.795 0.16,1.586 0.6,2.25c0.406,0.533 1.051,0.831 1.72,0.797l-0.004,0.001Zm6.949,-9.478l0,2.047l1.578,-0l0,1.117l-1.578,-0l0,5.242c-0.02,0.271 0.054,0.54 0.211,0.762c0.189,0.188 0.453,0.282 0.719,0.254c0.232,-0.008 0.462,-0.04 0.688,-0.094l0,1.172c-0.361,0.101 -0.734,0.154 -1.109,0.156c-0.551,0.04 -1.091,-0.177 -1.462,-0.586c-0.356,-0.479 -0.53,-1.069 -0.492,-1.664l0,-5.242l-1.539,-0l-0,-1.117l1.539,-0l0,-2.047l1.445,-0Zm4.836,10.5l-1.445,-0l-0,-8.453l1.445,-0l-0,8.453Zm-1.564,-10.7c-0.006,-0.218 0.071,-0.43 0.215,-0.594c0.166,-0.171 0.399,-0.259 0.637,-0.242c0.239,-0.017 0.473,0.072 0.641,0.242c0.146,0.163 0.225,0.375 0.219,0.594c0.007,0.216 -0.072,0.427 -0.219,0.586c-0.17,0.166 -0.404,0.251 -0.641,0.234c-0.236,0.018 -0.468,-0.068 -0.637,-0.234c-0.145,-0.16 -0.222,-0.37 -0.215,-0.586Zm6.664,8.734l2.094,-6.492l1.477,-0l-3.035,8.458l-1.1,-0l-3.059,-8.453l1.477,-0l2.146,6.487Zm10.064,1.966c-0.111,-0.285 -0.179,-0.586 -0.2,-0.891c-0.618,0.675 -1.494,1.056 -2.409,1.047c-0.748,0.03 -1.48,-0.223 -2.051,-0.707c-0.522,-0.447 -0.816,-1.106 -0.8,-1.793c-0.036,-0.808 0.341,-1.581 1,-2.051c0.841,-0.534 1.829,-0.79 2.824,-0.73l1.408,-0l-0,-0.664c0.024,-0.449 -0.14,-0.887 -0.452,-1.211c-0.367,-0.323 -0.849,-0.485 -1.336,-0.449c-0.465,-0.017 -0.922,0.121 -1.3,0.391c-0.32,0.208 -0.516,0.563 -0.523,0.945l-1.45,-0c0.009,-0.446 0.167,-0.877 0.449,-1.223c0.321,-0.41 0.74,-0.731 1.219,-0.934c0.534,-0.232 1.111,-0.347 1.693,-0.339c0.827,-0.049 1.643,0.211 2.289,0.73c0.564,0.514 0.878,1.249 0.859,2.012l-0,3.891c-0.024,0.631 0.078,1.261 0.3,1.852l-0,0.124l-1.52,-0Zm-2.4,-1.1c0.453,-0 0.898,-0.122 1.289,-0.352c0.381,-0.208 0.689,-0.527 0.883,-0.914l0,-1.734l-1.131,-0c-1.771,-0 -2.656,0.518 -2.656,1.555c-0.021,0.405 0.146,0.798 0.453,1.063c0.329,0.264 0.743,0.4 1.164,0.382l-0.002,-0Zm10.8,-1.141c0.016,-0.358 -0.15,-0.701 -0.441,-0.91c-0.472,-0.284 -0.995,-0.474 -1.539,-0.559c-0.602,-0.113 -1.187,-0.302 -1.742,-0.562c-0.378,-0.176 -0.706,-0.445 -0.953,-0.781c-0.211,-0.319 -0.319,-0.696 -0.309,-1.078c-0.001,-0.691 0.326,-1.344 0.879,-1.758c0.64,-0.497 1.436,-0.752 2.246,-0.719c0.841,-0.038 1.668,0.225 2.332,0.742c0.579,0.458 0.911,1.162 0.895,1.9l-1.448,-0c-0.001,-0.399 -0.185,-0.777 -0.5,-1.023c-0.356,-0.294 -0.808,-0.447 -1.27,-0.43c-0.438,-0.026 -0.872,0.096 -1.234,0.344c-0.287,0.209 -0.453,0.545 -0.445,0.9c-0.016,0.318 0.143,0.621 0.414,0.789c0.47,0.246 0.977,0.418 1.5,0.508c0.605,0.123 1.194,0.317 1.754,0.578c0.397,0.18 0.741,0.459 1,0.809c0.224,0.342 0.337,0.744 0.324,1.152c0.018,0.718 -0.322,1.399 -0.906,1.816c-0.687,0.481 -1.514,0.722 -2.352,0.684c-0.619,0.013 -1.233,-0.11 -1.8,-0.359c-0.492,-0.215 -0.915,-0.561 -1.223,-1c-0.292,-0.409 -0.449,-0.899 -0.449,-1.402l1.445,-0c0.01,0.452 0.224,0.876 0.582,1.152c0.416,0.301 0.922,0.451 1.434,0.426c0.462,0.022 0.92,-0.093 1.316,-0.332c0.311,-0.186 0.501,-0.525 0.496,-0.888l-0.006,0.001Z" style="fill:#00348d;fill-rule:nonzero;"/><path id="Trazado_10281" d="M106.461,91.5l-1.5,0l0,-11.375l1.5,0l0,11.375Zm3.883,-8.453l0.047,1.063c0.598,-0.789 1.541,-1.243 2.531,-1.219c1.787,0 2.687,1.008 2.7,3.023l0,5.586l-1.443,0l0,-5.594c0.035,-0.487 -0.114,-0.97 -0.418,-1.352c-0.345,-0.318 -0.809,-0.477 -1.277,-0.437c-0.441,-0.008 -0.873,0.123 -1.234,0.375c-0.356,0.252 -0.641,0.591 -0.828,0.984l0,6.024l-1.446,0l0,-8.453l1.368,0Zm7.109,4.153c-0.055,-1.117 0.27,-2.22 0.922,-3.129c0.563,-0.764 1.465,-1.206 2.414,-1.184c0.898,-0.04 1.766,0.335 2.352,1.016l0,-4.403l1.445,0l0,12l-1.328,0l-0.07,-0.906c-0.592,0.715 -1.488,1.109 -2.415,1.062c-0.946,0.017 -1.842,-0.432 -2.395,-1.2c-0.652,-0.913 -0.978,-2.02 -0.926,-3.141l0.001,-0.115Zm1.445,0.164c-0.046,0.794 0.162,1.582 0.594,2.25c0.373,0.531 0.99,0.839 1.639,0.816c0.856,0.037 1.653,-0.451 2.009,-1.23l0,-3.887c-0.366,-0.759 -1.15,-1.231 -1.992,-1.2c-0.655,-0.026 -1.28,0.283 -1.656,0.82c-0.445,0.73 -0.653,1.581 -0.594,2.434l0,-0.003Zm9.5,4.136l-1.445,0l0,-8.453l1.445,0l0,8.453Zm-1.567,-10.7c-0.006,-0.218 0.071,-0.43 0.215,-0.594c0.166,-0.171 0.399,-0.259 0.637,-0.242c0.239,-0.017 0.473,0.072 0.641,0.242c0.146,0.163 0.225,0.375 0.219,0.594c0.007,0.216 -0.072,0.427 -0.219,0.586c-0.17,0.166 -0.404,0.251 -0.641,0.234c-0.236,0.018 -0.468,-0.068 -0.637,-0.234c-0.145,-0.16 -0.222,-0.37 -0.215,-0.586Zm6.664,8.734l2.094,-6.492l1.477,0l-3.027,8.458l-1.1,0l-3.064,-8.453l1.476,0l2.144,6.487Zm6.536,1.966l-1.445,0l0,-8.453l1.445,0l0,8.453Zm-1.562,-10.7c-0.006,-0.218 0.071,-0.43 0.215,-0.594c0.166,-0.171 0.399,-0.259 0.637,-0.242c0.239,-0.017 0.473,0.072 0.641,0.242c0.146,0.163 0.225,0.375 0.219,0.594c0.007,0.216 -0.072,0.427 -0.219,0.586c-0.17,0.166 -0.404,0.251 -0.641,0.234c-0.236,0.018 -0.468,-0.068 -0.637,-0.234c-0.145,-0.16 -0.222,-0.37 -0.215,-0.586Zm3.523,6.4c-0.055,-1.117 0.27,-2.22 0.922,-3.129c0.565,-0.763 1.468,-1.204 2.417,-1.18c0.898,-0.04 1.766,0.335 2.352,1.016l0,-4.407l1.445,0l0,12l-1.331,0l-0.066,-0.906c-0.593,0.716 -1.491,1.11 -2.419,1.062c-0.946,0.017 -1.842,-0.432 -2.395,-1.2c-0.652,-0.913 -0.978,-2.02 -0.926,-3.141l0.001,-0.115Zm1.445,0.164c-0.046,0.794 0.162,1.582 0.594,2.25c0.374,0.531 0.992,0.837 1.641,0.813c0.854,0.037 1.65,-0.45 2.007,-1.227l0,-3.887c-0.366,-0.759 -1.15,-1.231 -1.992,-1.2c-0.655,-0.026 -1.28,0.283 -1.656,0.82c-0.445,0.73 -0.653,1.581 -0.594,2.434l0,-0.003Zm13.148,3.3c-0.631,0.69 -1.544,1.056 -2.477,0.992c-0.767,0.052 -1.52,-0.235 -2.057,-0.785c-0.518,-0.659 -0.775,-1.487 -0.72,-2.324l0,-5.5l1.45,0l0,5.461c0,1.281 0.521,1.922 1.563,1.922c0.92,0.103 1.808,-0.396 2.2,-1.234l0,-6.149l1.445,0l0,8.453l-1.372,0l-0.032,-0.836Zm8.821,0.836c-0.111,-0.285 -0.179,-0.586 -0.2,-0.891c-0.618,0.675 -1.494,1.056 -2.409,1.047c-0.748,0.03 -1.48,-0.223 -2.051,-0.707c-0.522,-0.447 -0.816,-1.106 -0.8,-1.793c-0.036,-0.808 0.341,-1.581 1,-2.051c0.841,-0.534 1.829,-0.79 2.824,-0.73l1.406,0l0,-0.664c0.025,-0.448 -0.136,-0.886 -0.445,-1.211c-0.367,-0.323 -0.849,-0.485 -1.336,-0.449c-0.465,-0.017 -0.922,0.121 -1.3,0.391c-0.32,0.208 -0.516,0.563 -0.523,0.945l-1.455,0c0.009,-0.446 0.167,-0.877 0.449,-1.223c0.321,-0.41 0.74,-0.731 1.219,-0.934c0.533,-0.233 1.109,-0.351 1.691,-0.344c0.827,-0.049 1.643,0.211 2.289,0.73c0.564,0.514 0.878,1.249 0.859,2.012l0,3.891c-0.024,0.631 0.078,1.261 0.3,1.852l0,0.129l-1.518,0Zm-2.4,-1.1c0.453,-0 0.898,-0.122 1.289,-0.352c0.381,-0.208 0.689,-0.527 0.883,-0.914l0,-1.734l-1.131,0c-1.771,0 -2.656,0.518 -2.656,1.555c-0.021,0.405 0.146,0.798 0.453,1.063c0.329,0.264 0.743,0.4 1.164,0.382l-0.002,0Zm7.455,1.1l-1.446,0l0,-12l1.446,0l0,12Zm5.82,0.156c-1.051,0.04 -2.071,-0.371 -2.8,-1.129c-0.745,-0.824 -1.133,-1.911 -1.078,-3.02l0,-0.266c-0.014,-0.775 0.15,-1.544 0.48,-2.246c0.297,-0.631 0.764,-1.166 1.348,-1.546c0.555,-0.366 1.206,-0.561 1.871,-0.559c0.976,-0.053 1.923,0.348 2.563,1.086c0.663,0.895 0.988,1.997 0.914,3.109l0,0.6l-5.728,0c-0.014,0.74 0.246,1.46 0.73,2.02c0.45,0.505 1.101,0.787 1.777,0.77c0.453,0.015 0.903,-0.093 1.3,-0.312c0.36,-0.214 0.676,-0.495 0.93,-0.828l0.883,0.688c-0.689,1.079 -1.911,1.705 -3.19,1.633Zm-0.18,-7.578c-0.559,-0.011 -1.095,0.222 -1.469,0.637c-0.428,0.502 -0.686,1.127 -0.734,1.785l4.233,0l0,-0.109c-0,-0.62 -0.21,-1.221 -0.594,-1.707c-0.363,-0.407 -0.891,-0.63 -1.436,-0.606Zm10.07,5.18c0.016,-0.358 -0.15,-0.701 -0.441,-0.91c-0.472,-0.284 -0.995,-0.474 -1.539,-0.559c-0.602,-0.113 -1.187,-0.302 -1.742,-0.562c-0.378,-0.176 -0.706,-0.445 -0.953,-0.781c-0.211,-0.319 -0.319,-0.696 -0.309,-1.078c-0.001,-0.691 0.326,-1.344 0.879,-1.758c0.64,-0.497 1.436,-0.752 2.246,-0.719c0.841,-0.038 1.668,0.225 2.332,0.742c0.579,0.458 0.911,1.162 0.895,1.9l-1.453,0c-0.001,-0.399 -0.185,-0.777 -0.5,-1.023c-0.356,-0.294 -0.808,-0.447 -1.27,-0.43c-0.438,-0.026 -0.872,0.096 -1.234,0.344c-0.287,0.209 -0.453,0.545 -0.445,0.9c-0.016,0.318 0.143,0.621 0.414,0.789c0.47,0.246 0.977,0.418 1.5,0.508c0.605,0.123 1.194,0.317 1.754,0.578c0.397,0.18 0.741,0.459 1,0.809c0.224,0.342 0.337,0.744 0.324,1.152c0.015,0.719 -0.33,1.399 -0.918,1.813c-0.687,0.481 -1.514,0.722 -2.352,0.684c-0.619,0.013 -1.233,-0.11 -1.8,-0.359c-0.492,-0.215 -0.915,-0.561 -1.223,-1c-0.287,-0.409 -0.44,-0.898 -0.438,-1.398l1.445,0c0.01,0.452 0.224,0.876 0.582,1.152c0.416,0.301 0.922,0.451 1.434,0.426c0.462,0.022 0.92,-0.093 1.316,-0.332c0.312,-0.186 0.501,-0.525 0.497,-0.888l-0.001,0Z" style="fill:#00348d;fill-rule:nonzero;"/></g></svg>