<?xml version="1.0" encoding="UTF-8" standalone="no"?><!DOCTYPE svg PUBLIC "-//W3C//DTD SVG 1.1//EN" "http://www.w3.org/Graphics/SVG/1.1/DTD/svg11.dtd"><svg width="100%" height="100%" viewBox="0 0 445 82" version="1.1" xmlns="http://www.w3.org/2000/svg" xmlns:xlink="http://www.w3.org/1999/xlink" xml:space="preserve" xmlns:serif="http://www.serif.com/" style="fill-rule:evenodd;clip-rule:evenodd;"><rect id="Mesa-de-trabajo1" serif:id="Mesa de trabajo1" x="0" y="0" width="444.5" height="82" style="fill:none;"/><clipPath id="_clip1"><rect x="0" y="0" width="444.5" height="82"/></clipPath><g clip-path="url(#_clip1)"><g id="Grupo_23702"><g id="Grupo_23694"><circle id="Elipse_1330" cx="130.797" cy="19.904" r="5.912" style="fill:#dd4c82;"/><path id="Trazado_9428" d="M133.029,27.917l-4.6,0c-2.693,-0.008 -4.98,2.05 -5.255,4.729l-1.053,9.984c-0.099,0.777 0.332,1.53 1.051,1.839l2.5,0.92c0.312,0.139 0.517,0.447 0.525,0.788l1.314,16.684c0.072,0.886 0.821,1.577 1.71,1.576l2.759,0c0.027,0.001 0.053,0.002 0.08,0.002c0.874,-0 1.601,-0.704 1.628,-1.578l1.312,-16.684c0.008,-0.341 0.213,-0.649 0.525,-0.788l2.5,-0.92c0.757,-0.263 1.209,-1.053 1.051,-1.839l-1.055,-9.984c-0.021,-2.603 -2.168,-4.734 -4.772,-4.734c-0.073,-0 -0.147,0.002 -0.22,0.005Z" style="fill:#dd4c82;fill-rule:nonzero;"/></g><g id="Grupo_23695"><circle id="Elipse_1331" cx="207.831" cy="19.993" r="6.002" style="fill:#dd4c82;"/><circle id="Elipse_1332" cx="237.841" cy="19.993" r="6.002" style="fill:#dd4c82;"/><path id="Trazado_9429" d="M248.745,30.996c-0.421,-1.184 -1.543,-1.985 -2.8,-2l-16.207,-0c-1.269,-0.026 -2.413,0.791 -2.8,2l-4.1,11.2l-4.1,-11.3c-0.421,-1.184 -1.543,-1.985 -2.8,-2l-16.213,-0c-1.269,-0.026 -2.413,0.791 -2.8,2l-5.8,16.006c-0.353,1.042 0.178,2.192 1.2,2.6c0.224,0.082 0.462,0.116 0.7,0.1c0.838,-0.004 1.593,-0.52 1.9,-1.3l4.4,-12.2c0.137,-0.414 0.526,-0.695 0.962,-0.695c0.556,-0 1.013,0.457 1.013,1.013c-0,0.131 -0.026,0.261 -0.075,0.382l-6.2,17.103l6.8,-0l0,11.6c0,1.371 1.129,2.5 2.5,2.5c1.371,-0 2.5,-1.129 2.5,-2.5l0,-11.6l2,-0l0,11.6c0,1.371 1.129,2.5 2.5,2.5c1.371,-0 2.5,-1.129 2.5,-2.5l0,-11.6l6.8,-0l-6.192,-17.109c-0.049,-0.121 -0.075,-0.251 -0.075,-0.382c0,-0.556 0.457,-1.013 1.013,-1.013c0.436,-0 0.825,0.281 0.962,0.695l4.5,12.2c0.307,0.78 1.062,1.296 1.9,1.3l0.4,-0c0.838,-0.004 1.593,-0.52 1.9,-1.3l4.4,-12.2c0.202,-0.424 0.63,-0.696 1.1,-0.7c0.708,0.013 1.287,0.592 1.3,1.3l-0,28.81c-0,1.371 1.129,2.5 2.5,2.5c1.371,0 2.5,-1.129 2.5,-2.5l-0,-9.1c-0,-0.549 0.451,-1 1,-1c0.549,-0 1,0.451 1,1l-0,9.1c-0,1.371 1.129,2.5 2.5,2.5c1.371,-0 2.5,-1.129 2.5,-2.5l-0,-28.81c0.013,-0.708 0.592,-1.287 1.3,-1.3c0.47,0.004 0.898,0.276 1.1,0.7l4.6,12.2c0.307,0.78 1.062,1.296 1.9,1.3c0.238,0.016 0.476,-0.018 0.7,-0.1c1.036,-0.391 1.575,-1.558 1.2,-2.6l-5.888,-15.9Z" style="fill:#dd4c82;fill-rule:nonzero;"/></g><circle id="Elipse_1334" cx="300.283" cy="14.423" r="6.36" style="fill:#dd5789;"/><path id="Trazado_9431" d="M303.284,22.704l-6,0c-3.489,0.001 -6.453,2.653 -6.841,6.12l-1.323,13.08c-0.133,1.033 0.465,2.031 1.44,2.4l3.24,1.32c0.417,0.136 0.706,0.521 0.72,0.96l1.68,21.842c0.092,1.193 1.084,2.133 2.28,2.16l3.6,0c1.196,-0.027 2.188,-0.967 2.28,-2.16l1.68,-21.962c0.014,-0.439 0.303,-0.824 0.72,-0.96l3.24,-1.32c0.975,-0.369 1.573,-1.367 1.44,-2.4l-1.32,-13.08c-0.445,-3.418 -3.39,-6.002 -6.836,-6Z" style="fill:#dd5789;fill-rule:nonzero;"/><g id="Rectángulo_5604"><path d="M75.5,12c0,-6.347 -5.153,-11.5 -11.5,-11.5l-52,0c-6.347,0 -11.5,5.153 -11.5,11.5l0,58c0,6.347 5.153,11.5 11.5,11.5l52,0c6.347,0 11.5,-5.153 11.5,-11.5l0,-58Z" style="fill:none;stroke:#f579a8;stroke-width:1px;"/></g><g id="Grupo_23693"><g id="Grupo_23658"><circle id="Elipse_1329" cx="38.001" cy="25.639" r="5.871" style="fill:#dd4c82;"/><path id="Trazado_9425" d="M44.222,44.858l-4.007,3.355l3.023,2.053l-3.21,3.914c-0.311,0.377 -0.481,0.851 -0.481,1.34c0,1.156 0.951,2.107 2.108,2.107c0.629,0 1.226,-0.281 1.626,-0.767l4.3,-5.243c0.432,-0.428 0.676,-1.012 0.676,-1.62c-0,-0.665 -0.292,-1.298 -0.797,-1.731l-3.238,-3.408Z" style="fill:#dd4c82;fill-rule:nonzero;"/><path id="Trazado_9426" d="M35.976,54.18l-3.21,-3.913l3.021,-2.053l-4.007,-3.355l-3.236,3.41c-0.505,0.433 -0.797,1.066 -0.797,1.731c0,0.608 0.244,1.192 0.676,1.62l4.3,5.242c0.4,0.486 0.997,0.767 1.626,0.767c1.157,0 2.108,-0.951 2.108,-2.107c-0,-0.489 -0.17,-0.963 -0.481,-1.34l-0,-0.002Z" style="fill:#dd4c82;fill-rule:nonzero;"/><path id="Trazado_9427" d="M49.926,26.669c-0.525,-0.002 -1.029,0.207 -1.4,0.578l-4.417,4.417c-0.532,0.647 -1.317,1.033 -2.154,1.06l-7.909,0c-0.837,-0.027 -1.623,-0.413 -2.154,-1.06l-4.419,-4.419c-0.371,-0.37 -0.873,-0.577 -1.397,-0.577c-1.084,-0 -1.977,0.892 -1.977,1.977c0,0.525 0.209,1.029 0.581,1.4l7.1,7.1l-0,5.619l12.441,0l-0,-5.618l7.1,-7.1c0.372,-0.371 0.582,-0.875 0.582,-1.4c-0,-1.084 -0.892,-1.976 -1.976,-1.976c-0.002,-0 -0.004,-0 -0.006,0l0.005,-0.001Z" style="fill:#dd4c82;fill-rule:nonzero;"/></g></g><g id="Rectángulo_5605"><path d="M168,12c0,-6.623 -5.377,-12 -12,-12l-52,0c-6.623,0 -12,5.377 -12,12l0,58c0,6.623 5.377,12 12,12l52,0c6.623,0 12,-5.377 12,-12l0,-58Z" style="fill:none;"/><path d="M167.5,12c0,-6.347 -5.153,-11.5 -11.5,-11.5l-52,0c-6.347,0 -11.5,5.153 -11.5,11.5l0,58c0,6.347 5.153,11.5 11.5,11.5l52,0c6.347,0 11.5,-5.153 11.5,-11.5l0,-58Z" style="fill:none;stroke:#f579a8;stroke-width:1px;"/></g><g id="Rectángulo_5606"><path d="M260,12c0,-6.623 -5.377,-12 -12,-12l-52,0c-6.623,0 -12,5.377 -12,12l0,58c0,6.623 5.377,12 12,12l52,0c6.623,0 12,-5.377 12,-12l0,-58Z" style="fill:none;"/><path d="M259.5,12c0,-6.347 -5.153,-11.5 -11.5,-11.5l-52,0c-6.347,0 -11.5,5.153 -11.5,11.5l0,58c0,6.347 5.153,11.5 11.5,11.5l52,0c6.347,0 11.5,-5.153 11.5,-11.5l0,-58Z" style="fill:none;stroke:#f579a8;stroke-width:1px;"/></g><g id="Rectángulo_5607"><path d="M352,12c0,-6.623 -5.377,-12 -12,-12l-52,0c-6.623,0 -12,5.377 -12,12l0,58c0,6.623 5.377,12 12,12l52,0c6.623,0 12,-5.377 12,-12l0,-58Z" style="fill:none;"/><path d="M351.5,12c0,-6.347 -5.153,-11.5 -11.5,-11.5l-52,0c-6.347,0 -11.5,5.153 -11.5,11.5l0,58c0,6.347 5.153,11.5 11.5,11.5l52,0c6.347,0 11.5,-5.153 11.5,-11.5l0,-58Z" style="fill:none;stroke:#f579a8;stroke-width:1px;"/></g><g id="Grupo_23700"><path id="Trazado_9433-2" d="M429.358,33.543c0.254,-0.345 0.331,-0.79 0.207,-1.2l-0,-0.029c-1.061,-4.185 -7.748,-6.919 -8.59,-6.963c-1.391,-0.676 -3.018,-0.68 -4.413,-0.013c-2.972,0.85 -5.625,2.566 -7.619,4.929c-0.122,-0.076 -0.278,-0.172 -0.474,-0.291c-0.242,0.419 -0.789,1.348 -1.479,2.432c0.394,0.271 0.639,0.433 0.639,0.433c0.175,0.112 0.371,0.185 0.577,0.214c0.8,0.318 2.981,-0.714 3.9,-1.282c0.32,-0.2 0.78,-0.5 1.269,-0.821c0.083,0.817 0.353,1.604 0.788,2.3c0.089,0.469 0.135,0.946 0.137,1.424c-0.024,0.876 -0.164,1.744 -0.419,2.582c-0.064,0.117 -0.12,0.237 -0.176,0.359l-0.009,-0.008c-0.856,2.232 -1.416,4.568 -1.664,6.946c-0.012,0.147 -0.026,0.3 -0.041,0.469c-0.018,0.182 -0.039,0.361 -0.053,0.547c-0.547,5.519 -2.308,18.511 -2.308,18.511c1.294,0.378 2.609,0.679 3.938,0.9c0.341,2.973 0.918,5.6 1.895,5.6c0.934,-0 1.5,-2.405 1.848,-5.216c0.924,0.039 1.8,0.032 2.613,-0.008c0.348,2.742 0.913,5.057 1.829,5.057c0.966,-0 1.541,-2.573 1.883,-5.5c1.402,-0.248 2.767,-0.667 4.067,-1.248c1.3,-0.581 -2.045,-15.766 -2.62,-20.419c-0.186,-1.373 -0.462,-2.733 -0.825,-4.07c1.629,-0.747 5.1,-5.635 5.1,-5.635Zm-11.255,-6.636c-0,0 -0.001,0 -0.001,0c-0.449,0 -0.819,-0.37 -0.819,-0.819c0,-0.334 0.204,-0.636 0.514,-0.76c-0.026,0.086 -0.04,0.176 -0.041,0.266c-0,0.544 0.443,0.993 0.987,1c-0.154,0.197 -0.39,0.313 -0.64,0.313Zm1.3,-0c-0.25,-0.001 -0.486,-0.117 -0.64,-0.315c0.545,-0.005 0.991,-0.455 0.991,-1c-0.001,-0.09 -0.015,-0.179 -0.041,-0.265c0.307,0.126 0.509,0.426 0.509,0.758c-0,0.449 -0.37,0.819 -0.819,0.819c-0,0 -0.001,0 -0.001,-0l0.001,0.003Zm4.339,10.591c-0.09,-0.185 -0.19,-0.365 -0.3,-0.539c-0.229,-0.738 -0.345,-1.506 -0.346,-2.278c0.002,-0.402 0.035,-0.803 0.1,-1.2c0.517,-0.745 0.837,-1.609 0.931,-2.511c0.49,0.325 0.95,0.625 1.27,0.822c0.436,0.261 0.888,0.495 1.353,0.7c-1.134,1.585 -2.14,3.257 -3.009,5.002l0.001,0.004Z" style="fill:#dd5789;fill-rule:nonzero;"/><path id="Trazado_9434-2" d="M418.66,13.267c0.736,0 1.463,0.16 2.131,0.467c0.015,-0.101 0.024,-0.204 0.025,-0.306c-0,-1.182 -0.973,-2.155 -2.155,-2.155c-1.182,-0 -2.155,0.973 -2.155,2.155c0.001,0.102 0.009,0.205 0.025,0.306c0.668,-0.307 1.394,-0.466 2.129,-0.467Z" style="fill:#dd5789;fill-rule:nonzero;"/><path id="Trazado_9439-2" d="M386.447,44.684c0.264,0.318 0.409,0.719 0.411,1.132l0.877,-0c-0.002,-0.802 -0.367,-1.562 -0.991,-2.065c-0.078,0.317 -0.177,0.629 -0.297,0.933Z" style="fill:#dd5789;fill-rule:nonzero;"/><path id="Trazado_9440-2" d="M382.387,45.716l-0.007,-0l0,24.515l0.872,-0l0,-24.415c0.001,-0.63 0.334,-1.215 0.875,-1.538c-0.088,-0.263 -0.168,-0.55 -0.241,-0.861c-0.884,0.431 -1.461,1.316 -1.499,2.299Z" style="fill:#dd5789;fill-rule:nonzero;"/><path id="Trazado_9441-2" d="M401.363,27.037c-0.006,0.008 -0.015,0.013 -0.02,0.021c-0.338,0.521 0.947,1.775 2.44,2.983c0.239,-0.467 0.488,-0.947 0.761,-1.455c-0.393,-0.147 -0.773,-0.307 -1.073,-0.453c-0.5,-0.244 -1.31,-0.667 -2.108,-1.096Z" style="fill:#dd5789;fill-rule:nonzero;"/><path id="Trazado_9442-2" d="M408.292,28.438c0.025,-0.169 0.003,-0.342 -0.062,-0.5c-1.056,-2.911 -4.667,-4.882 -7.3,-5.888c-4.601,-2.927 -10.747,-1.854 -14.084,2.459c-0.307,0.366 -0.575,0.762 -0.8,1.184c-0.044,0.077 -0.093,0.151 -0.136,0.23l0.006,-0c-1.132,2.049 -2.687,5.826 -2.185,8.924c-0.064,0.177 -0.098,0.364 -0.1,0.552c-0.002,0.188 0.122,9.94 1.726,9.936c1.604,-0.004 1.683,-9.942 1.683,-9.942c-0.001,-0.333 -0.1,-0.659 -0.285,-0.936c0.242,-0.463 0.458,-0.939 0.645,-1.427c0.447,-1.2 2.449,-6.492 2.578,-7.1l0.195,-0l-1.541,6.76c-0.022,0.077 -0.034,0.157 -0.053,0.234c-0.036,0.14 -0.07,0.281 -0.1,0.424c0,0.012 -0.006,0.024 -0.008,0.036l-0.025,0.11l0.008,-0c-0.006,0.034 -0.008,0.068 -0.013,0.1c-0.021,0.141 -0.041,0.282 -0.054,0.426c0,0.052 0,0.106 -0.008,0.158c-0.009,0.145 -0.022,0.288 -0.022,0.436c-0.001,1.403 0.43,2.773 1.233,3.924c-0.034,0.152 -0.067,0.312 -0.1,0.478c-0.506,1.6 -1.423,7.482 0.077,28.382c0,-0 0.079,0.049 0.221,0.12l0,0.488c-0.085,1.128 0.764,2.129 1.89,2.23l0.011,-0c1.126,-0.101 1.975,-1.102 1.89,-2.23l0,-0.367c0.145,-0.072 0.286,-0.153 0.421,-0.242c0.365,-9.518 -0.334,-20.466 1.241,-24.394c0.375,1.059 0.616,2.162 0.718,3.281c0.048,0.894 0.1,1.72 0.152,2.3c0.027,0.307 0.064,0.686 0.112,1.1c0.227,5.04 0.028,11.667 0.259,17.713c0.089,0.059 0.179,0.106 0.269,0.156l0,0.407c-0.085,1.128 0.764,2.129 1.89,2.23l0.011,-0c1.126,-0.101 1.975,-1.102 1.89,-2.23l0,-0.37c0.128,-0.057 0.252,-0.121 0.373,-0.192c1.678,-23.389 0.329,-27.968 -0.081,-28.793c0.297,-0.412 0.547,-0.856 0.746,-1.323c0.018,0.134 0.091,0.256 0.2,0.336c1.4,0.79 6.376,-7.814 6.376,-7.814c0.235,-0.416 0.285,-0.912 0.136,-1.366Zm-12.619,-6.84c-0.008,-0.079 0.031,-0.155 0.1,-0.194l0.606,-0.209c0.244,-0.084 0.518,0.03 0.518,0.288l0,0.35c0,0.258 -0.274,0.372 -0.518,0.288l-0.606,-0.209c-0.069,-0.039 -0.108,-0.115 -0.1,-0.194l0,-0.12Zm-0.435,-0.315c0.206,-0 0.375,0.169 0.375,0.375c0,0.206 -0.169,0.375 -0.375,0.375c-0.206,-0 -0.375,-0.169 -0.375,-0.375c-0,-0 -0,-0 -0,-0c-0,-0.206 0.169,-0.375 0.375,-0.375c0,-0 0.001,-0 0.001,-0l-0.001,-0Zm-1.649,0.2c0,-0.258 0.274,-0.372 0.518,-0.288l0.606,0.209c0.069,0.039 0.108,0.115 0.1,0.194l0,0.12c0.008,0.079 -0.031,0.155 -0.1,0.194l-0.606,0.209c-0.244,0.084 -0.518,-0.03 -0.518,-0.288l0,-0.35Zm8.53,13.133l0,-0.047c-0.001,-0.212 -0.014,-0.423 -0.037,-0.633c0,-0.032 -0.008,-0.064 -0.011,-0.1c-0.011,-0.1 -0.021,-0.2 -0.036,-0.3l0.011,-0l-0.025,-0.111c-0.007,-0.044 -0.021,-0.084 -0.029,-0.127c-0.019,-0.1 -0.044,-0.2 -0.067,-0.3c-0.034,-0.154 -0.059,-0.31 -0.1,-0.459l-1.479,-6.466c1.042,0.582 2.511,1.364 3.283,1.739c0.464,0.22 0.94,0.414 1.426,0.58c-1.103,2.014 -2.084,4.092 -2.936,6.224Z" style="fill:#dd5789;fill-rule:nonzero;"/><ellipse id="Elipse_1336-2" cx="416.619" cy="18.548" rx="1.345" ry="1.165" style="fill:#dd5789;"/><ellipse id="Elipse_1337-2" cx="420.604" cy="18.548" rx="1.345" ry="1.165" style="fill:#dd5789;"/><g id="Grupo_23663-2"><ellipse id="Elipse_1338-2" cx="420.603" cy="18.548" rx="1.345" ry="1.165" style="fill:#dd5789;"/><ellipse id="Elipse_1339-2" cx="416.619" cy="18.548" rx="1.345" ry="1.165" style="fill:#dd5789;"/><path id="Trazado_9443-2" d="M423.653,18.421c0,-0.003 0,-0.006 0,-0.01c0,-2.739 -2.254,-4.993 -4.993,-4.993c-2.739,0 -4.993,2.254 -4.993,4.993c0,0.782 0.184,1.553 0.536,2.251c-0.034,0.065 -0.052,0.138 -0.053,0.211c-0.001,0.196 0.119,0.373 0.3,0.447c-0.101,0.06 -0.163,0.168 -0.164,0.285c-0,0.001 -0,0.002 -0,0.003c-0,0.186 0.153,0.34 0.34,0.34c0.134,-0 0.257,-0.08 0.311,-0.203c0.944,1.061 2.298,1.669 3.718,1.669c1.421,0 2.775,-0.608 3.719,-1.669c0.054,0.123 0.176,0.204 0.311,0.204c0.186,-0 0.339,-0.153 0.339,-0.339c-0,-0.119 -0.062,-0.229 -0.163,-0.29c0.181,-0.074 0.301,-0.251 0.3,-0.447c-0.001,-0.073 -0.019,-0.146 -0.053,-0.211c0.356,-0.694 0.542,-1.462 0.545,-2.241Zm-1.591,-0.707c0.204,0.23 0.319,0.527 0.322,0.835c-0.064,0.831 -0.796,1.466 -1.628,1.411c-0.745,0.036 -1.418,-0.464 -1.6,-1.187c-0.033,-0.271 -0.274,-0.472 -0.547,-0.455c-0.25,-0.011 -0.474,0.157 -0.533,0.4c-0.156,0.751 -0.843,1.281 -1.609,1.24c-0.832,0.055 -1.564,-0.579 -1.628,-1.411c0.004,-0.308 0.118,-0.604 0.322,-0.835c-0.29,0.111 -0.7,-0.333 -0.365,-0.194c0.246,0.053 0.503,0.013 0.721,-0.112l0.013,-0.01l-0.018,0.006c-0.214,0.06 -0.414,-0.31 -0.219,-0.172c0.151,0.107 0.459,0.035 0.59,-0c-0.2,-0 -0.277,-0.355 -0.143,-0.2c0.134,0.155 0.585,0.11 0.585,0.11l0,0.008c0.048,-0 0.095,-0.013 0.145,-0.013c0.782,-0.043 1.48,0.512 1.614,1.283c0.139,-0.138 0.327,-0.215 0.522,-0.215c0.204,0 0.399,0.084 0.539,0.232c0.125,-0.779 0.827,-1.345 1.615,-1.3c0.049,-0 0.1,0.009 0.145,0.013l0,-0.008c0,-0 0.449,0.051 0.585,-0.11c0.136,-0.161 0.058,0.2 -0.143,0.2c0.132,0.038 0.44,0.109 0.59,-0c0.195,-0.138 -0.006,0.232 -0.22,0.172l-0.018,-0.006l0.013,0.01c0.218,0.125 0.475,0.165 0.721,0.112c0.327,-0.138 -0.081,0.306 -0.371,0.195l0,0.001Z" style="fill:#dd5789;fill-rule:nonzero;"/></g><g id="Grupo_23664-2"><path id="Trazado_9445-2" d="M401.019,11.03l-1.722,-0c0.035,-0.142 0.053,-0.288 0.053,-0.434l0,-0.691c0,-1.01 -0.832,-1.842 -1.842,-1.842l-4.54,-0c-1.01,-0 -1.842,0.832 -1.842,1.842l0,0.691c0,0.146 0.018,0.292 0.053,0.434l-1.721,-0c-0.188,-0 -0.341,0.329 -0.341,0.736c0,0.407 0.152,0.736 0.341,0.736l1.681,-0c-0.442,0.74 -0.676,1.587 -0.676,2.45c0,2.62 2.156,4.776 4.776,4.776c1.625,-0 3.072,-0.83 3.937,-2.086c0.528,-0.768 0.839,-1.696 0.839,-2.69c-0,-0.863 -0.234,-1.71 -0.676,-2.45l1.675,-0c0.188,-0 0.341,-0.329 0.341,-0.736c-0,-0.407 -0.148,-0.736 -0.336,-0.736Zm-3.781,7.555c-0.024,0.115 -0.048,0.278 -0.128,0.323c-0.046,0.028 -0.099,0.043 -0.154,0.043c-0.103,0 -0.199,-0.054 -0.252,-0.143c-0.075,-0.096 -0.165,-0.18 -0.267,-0.247c-0.058,0.018 -0.118,0.023 -0.178,0.015c-0.346,-0.056 -0.648,-0.266 -0.822,-0.57c-0.073,-0.117 -0.137,-0.239 -0.194,-0.364c-0.056,0.126 -0.121,0.247 -0.194,0.364c-0.174,0.304 -0.476,0.514 -0.822,0.57c-0.06,0.008 -0.12,0.003 -0.178,-0.015c-0.102,0.067 -0.192,0.15 -0.267,0.247c-0.053,0.089 -0.149,0.144 -0.252,0.144c-0.054,-0 -0.108,-0.015 -0.154,-0.044c-0.079,-0.044 -0.1,-0.208 -0.129,-0.323c-0.009,-0.094 -0.007,-0.188 0.007,-0.281c-0.006,-0.301 0.008,-0.601 0.042,-0.9c0.127,-0.662 0.735,-1.13 1.408,-1.083c0.186,0.05 0.367,0.115 0.543,0.193c0.176,-0.078 0.357,-0.142 0.543,-0.193c0.672,-0.047 1.281,0.421 1.408,1.083c0.034,0.299 0.048,0.599 0.042,0.9c0.009,0.093 0.008,0.188 -0.002,0.281Z" style="fill:#dd5789;fill-rule:nonzero;"/></g></g><g id="Rectángulo_5609"><path d="M444,12c0,-6.623 -5.377,-12 -12,-12l-52,0c-6.623,0 -12,5.377 -12,12l0,58c0,6.623 5.377,12 12,12l52,0c6.623,0 12,-5.377 12,-12l0,-58Z" style="fill:none;"/><path d="M443.5,12c0,-6.347 -5.153,-11.5 -11.5,-11.5l-52,0c-6.347,0 -11.5,5.153 -11.5,11.5l0,58c0,6.347 5.153,11.5 11.5,11.5l52,0c6.347,0 11.5,-5.153 11.5,-11.5l0,-58Z" style="fill:none;stroke:#f579a8;stroke-width:1px;"/></g><g id="Grupo_23701"><path id="Trazado_9496" d="M334.407,32.908l-1.872,-12.95l-15.954,-0l-2.189,15.318c-0.018,0.159 -0.027,0.32 -0.027,0.48c-0,2.334 1.92,4.255 4.254,4.255l8.47,-1.735l-1.548,-3.9c-1.445,0.553 -3.684,1.4 -5,1.856c-0.831,0.287 -1.5,-0.9 -1.4,-1.769l0.436,-3.629l-1.84,0.7l-0.763,-0.686l3.056,-1.562c0.4,-0.192 0.991,-0.065 1.064,0.369c0.081,0.929 0.083,1.864 0.007,2.794l3.474,-1.34c0.138,-0.053 0.284,-0.081 0.432,-0.081c0.492,0 0.935,0.304 1.113,0.763l0.449,1.16l0.349,0.9l0.366,0.944l-0,3.442l2.894,-0.593c2.016,-0.338 4.515,-2.212 4.229,-4.736Zm-6.582,-6.049c0.358,-0 0.652,0.294 0.652,0.652c-0,0.358 -0.294,0.652 -0.652,0.652c-0.358,-0 -0.652,-0.294 -0.652,-0.652c-0,-0.358 0.294,-0.652 0.652,-0.652Zm-3.668,-0.856l0.66,-0c0,1.353 1.114,2.467 2.467,2.467c1.353,-0 2.467,-1.114 2.467,-2.467c-0,-0.563 -0.193,-1.11 -0.546,-1.548l-0,-0.9l0.011,-0.014c0.753,0.592 1.194,1.5 1.194,2.458c-0,1.715 -1.412,3.127 -3.127,3.127c-1.715,-0 -3.126,-1.411 -3.127,-3.126l0.001,0.003Zm5.539,7.321c-0.246,0.095 -0.507,0.144 -0.771,0.144c-1.17,0 -2.133,-0.963 -2.133,-2.133c0,-1.17 0.963,-2.133 2.133,-2.133c0.879,0 1.671,0.543 1.989,1.362c0.096,0.246 0.145,0.508 0.145,0.772c-0,0.879 -0.544,1.672 -1.363,1.989l0,-0.001Z" style="fill:#dd5789;fill-rule:nonzero;"/><path id="Trazado_9497" d="M327.24,8.46c-0.462,-0.198 -0.952,-0.324 -1.452,-0.373c-0.176,-0.019 -0.353,-0.028 -0.529,-0.028c-2.737,-0 -4.989,2.252 -4.989,4.989c-0,2.737 2.252,4.989 4.989,4.989c1.511,-0 2.944,-0.687 3.89,-1.866c1.376,1.156 3.122,4.931 5.88,-0.165c-3.524,2.827 -3.399,-6.018 -7.789,-7.546Z" style="fill:#dd5789;fill-rule:nonzero;"/><path id="Trazado_9498" d="M331.486,38.317l-12.961,2.671l-1.393,14.533l2.815,-0l1.8,16.794l2.907,-0l0.053,-16.794l1.238,-0l-0.038,16.794l2.668,-0l2.034,-16.794l2.976,-0.015l-2.099,-17.189Z" style="fill:#dd5789;fill-rule:nonzero;"/></g></g></g></svg>