<svg xmlns="http://www.w3.org/2000/svg" width="65" height="65" viewBox="0 0 65 65">
  <g id="Grupo_25034" data-name="Grupo 25034" transform="translate(-179 -8057)">
    <rect id="Rectángulo_5778" data-name="Rectángulo 5778" width="65" height="65" rx="32.5" transform="translate(179 8057)" fill="#f0f0f0"/>
    <g id="Grupo_24906" data-name="Grupo 24906" transform="translate(185.442 8055.106)">
      <path id="Trazado_12189" data-name="Trazado 12189" d="M59.662,117.782a.855.855,0,1,1,.049,0h-.049Zm-3.405-.128a.882.882,0,0,1-.1-.005h0a.847.847,0,0,1,.174-1.685l.026,0a.847.847,0,0,1-.1,1.688Zm6.8-.261a.847.847,0,0,1-.163-1.678l.016,0a.847.847,0,0,1,.318,1.664h-.006A.868.868,0,0,1,63.059,117.393ZM52.9,117.009a.858.858,0,0,1-.223-.03h0a.847.847,0,0,1,.433-1.637l.018,0a.847.847,0,0,1-.223,1.664Zm13.462-.521a.847.847,0,0,1-.29-1.643l.014,0a.847.847,0,1,1,.572,1.594l-.007,0A.85.85,0,0,1,66.359,116.489Zm-16.688-.634a.835.835,0,0,1-.345-.075l-.012-.005a.841.841,0,1,1,.357.08Zm19.807-.765a.856.856,0,1,1,.417-.11l-.019.011A.845.845,0,0,1,69.478,115.089Zm7.691-7.57.006,0-.089-.064Zm-39.09-3.691a.848.848,0,0,1-.785-.528l0-.006a.847.847,0,1,1,1.565-.646l.006.015a.847.847,0,0,1-.784,1.166ZM80.113,102.2a.853.853,0,1,1,.814-.613l-.011.033A.847.847,0,0,1,80.113,102.2Zm-43.07-1.635a.847.847,0,0,1-.823-.65l0-.011a.847.847,0,1,1,1.647-.393l0,.011a.848.848,0,0,1-.824,1.044Zm43.848-1.7a.836.836,0,0,1-.148-.013.852.852,0,1,1,.987-.722l-.006.035A.847.847,0,0,1,80.892,98.872ZM36.521,97.186a.846.846,0,0,1-.843-.772l0-.035a.847.847,0,1,1,.919.8C36.57,97.185,36.545,97.186,36.521,97.186Zm44.63-1.725a.846.846,0,0,1-.847-.847v-.062a.847.847,0,1,1,1.694,0v.011c0,.006,0,.012,0,.018s0,.015,0,.022v.011A.846.846,0,0,1,81.151,95.461ZM36.519,93.767c-.024,0-.049,0-.074,0a.852.852,0,1,1,.92-.805l0,.035A.847.847,0,0,1,36.519,93.767ZM80.886,92a.847.847,0,0,1-.833-.7l-.006-.035a.847.847,0,1,1,.987.722A.832.832,0,0,1,80.886,92Zm.142-.879-.143.021Zm-44-.736a.853.853,0,1,1,.831-.685l-.008.035A.847.847,0,0,1,37.033,90.386Zm43.076-1.711a.854.854,0,0,1-.807-.583l-.009-.029a.847.847,0,1,1,1.619-.5h0a.842.842,0,0,1-.537,1.066A.828.828,0,0,1,80.108,88.675ZM38.059,87.121a.847.847,0,0,1-.784-1.166l0-.01a.847.847,0,1,1,1.569.637l0,.011A.847.847,0,0,1,38.059,87.121ZM78.824,85.5a.852.852,0,0,1-.757-.461l-.013-.025a.847.847,0,0,1,1.52-.747v0a.846.846,0,0,1-.751,1.232Zm-39.249-1.45a.854.854,0,1,1,.744-.439l-.02.033A.845.845,0,0,1,39.576,84.053Zm37.49-1.487a.852.852,0,1,1,.682-1.348l.018.026a.847.847,0,0,1-.7,1.322ZM41.543,81.253a.847.847,0,0,1-.651-1.388l.007-.009a.847.847,0,0,1,1.3,1.082l-.007.009A.844.844,0,0,1,41.543,81.253Zm33.341-1.323a.85.85,0,1,1,.6-1.447l.014.014a.847.847,0,0,1-.611,1.433ZM43.913,78.786a.847.847,0,0,1-.562-1.481l0,0a.847.847,0,0,1,1.133,1.259l-.014.012A.845.845,0,0,1,43.913,78.786Zm28.414-1.128a.843.843,0,0,1-.5-.164l-.029-.022a.847.847,0,1,1,.528.185ZM72.4,76.7l-.085.109Zm-25.774.012a.855.855,0,1,1,.484-.152l-.029.02A.841.841,0,0,1,46.629,76.707ZM69.452,75.8a.84.84,0,0,1-.4-.1l-.02-.011a.847.847,0,1,1,.816-1.484h0a.847.847,0,0,1-.4,1.593ZM49.63,75.066a.847.847,0,0,1-.35-1.618l.02-.009a.847.847,0,1,1,.33,1.627Z" transform="translate(-31.761 -59.985)" fill="#a7c7d3"/>
      <path id="Trazado_12190" data-name="Trazado 12190" d="M194.85,188.28l-12.75-12.75a2.041,2.041,0,1,1,2.887-2.887l-3.283-3.283a2.04,2.04,0,0,1,2.693-3.055l-1.249-1.249a2.042,2.042,0,0,1-.6-1.446,1.923,1.923,0,0,1,.027-.332,2.042,2.042,0,0,1,3.46-1.11l1.431,1.431a2.042,2.042,0,0,1-.573-1.771,2.02,2.02,0,0,1,.571-1.119,2.044,2.044,0,0,1,2.889,0L198.639,169l.023-.033a3.733,3.733,0,0,1,5.285,0l3.863,3.863a3.963,3.963,0,0,1,1.161,2.8l0,2.417a4.266,4.266,0,0,0,1.251,3.013l.861.861-9.854,9.854-1.1-1.1a4.268,4.268,0,0,0-2.738-1.241A3.961,3.961,0,0,1,194.85,188.28Z" transform="translate(-161.256 -137.222)" fill="#fecbaa"/>
      <path id="Trazado_12191" data-name="Trazado 12191" d="M356.659,361.736l11.185-11.185a.943.943,0,0,1,1.334,0l3.983,3.983a.943.943,0,0,1,0,1.334l-11.184,11.185a.943.943,0,0,1-1.334,0l-3.984-3.983A.944.944,0,0,1,356.659,361.736Z" transform="translate(-317.324 -306.543)" fill="#fdd559"/>
      <path id="Trazado_12192" data-name="Trazado 12192" d="M461.656,386.876a.845.845,0,1,0,0-1.2A.846.846,0,0,0,461.656,386.876Z" transform="translate(-410.838 -337.847)" fill="#ff8812"/>
      <path id="Trazado_12193" data-name="Trazado 12193" d="M343.947,236.485l-2.853-2.852.023-.033a3.713,3.713,0,0,1,1.443-.9l2.584,2.585a.847.847,0,0,1-1.2,1.2Z" transform="translate(-303.71 -201.857)" fill="#ffae85"/>
      <path id="Trazado_12194" data-name="Trazado 12194" d="M73.579,188.289l12.75-12.75a2.042,2.042,0,1,0-2.887-2.887l3.283-3.283a2.04,2.04,0,0,0-2.693-3.055l1.249-1.25a2.04,2.04,0,0,0,.6-1.446,1.923,1.923,0,0,0-.027-.332,2.042,2.042,0,0,0-3.46-1.11l-1.431,1.431a2.043,2.043,0,0,0,.573-1.771,2.022,2.022,0,0,0-.571-1.119,2.044,2.044,0,0,0-2.889,0l-8.286,8.286-.023-.033a3.734,3.734,0,0,0-5.285,0l-3.863,3.864a3.962,3.962,0,0,0-1.161,2.8l0,2.417a4.264,4.264,0,0,1-1.25,3.013l-.861.861,9.854,9.854,1.1-1.1a4.268,4.268,0,0,1,2.738-1.241A3.961,3.961,0,0,0,73.579,188.289Z" transform="translate(-51.059 -137.229)" fill="#fecbaa"/>
      <path id="Trazado_12195" data-name="Trazado 12195" d="M16.78,361.748,5.595,350.563a.943.943,0,0,0-1.334,0L.277,354.546a.943.943,0,0,0,0,1.334l11.184,11.185a.944.944,0,0,0,1.335,0l3.983-3.983A.944.944,0,0,0,16.78,361.748Z" transform="translate(0 -306.554)" fill="#ff84a7"/>
      <path id="Trazado_12196" data-name="Trazado 12196" d="M106.536,456.814a.845.845,0,1,0-1.2,0A.846.846,0,0,0,106.536,456.814Z" transform="translate(-93.573 -400.12)" fill="#ef6085"/>
      <path id="Trazado_12197" data-name="Trazado 12197" d="M133.133,236.5l2.852-2.853-.023-.033a3.713,3.713,0,0,0-1.443-.9l-2.585,2.584a.847.847,0,0,0,1.2,1.2Z" transform="translate(-117.255 -201.868)" fill="#ffae85"/>
      <path id="Trazado_12198" data-name="Trazado 12198" d="M167.2,81.6V99.631a2.041,2.041,0,1,1-4.083,0v4.643a2.038,2.038,0,0,1-.6,1.445,2.038,2.038,0,0,1-2.626.222,2.041,2.041,0,0,1-.841-1.411V106.3a2.041,2.041,0,0,1-.6,1.446,1.932,1.932,0,0,1-.254.216,2.042,2.042,0,0,1-3.232-1.662v-2.023a2.041,2.041,0,1,1-4.083,0V92.556l-.039.007a3.734,3.734,0,0,1-3.734-3.74V83.36a3.965,3.965,0,0,1,1.157-2.8l1.707-1.71a4.265,4.265,0,0,0,1.247-3.015V74.617h13.935v1.557a4.27,4.27,0,0,0,1.059,2.814A3.962,3.962,0,0,1,167.2,81.6Z" transform="translate(-130.989 -61.097)" fill="#fedfc5"/>
      <path id="Trazado_12199" data-name="Trazado 12199" d="M159.79,172.65a2.044,2.044,0,0,0-2.89,0l3.283-3.283a2.04,2.04,0,0,0-2.693-3.055l1.25-1.25a2.041,2.041,0,0,0,.6-1.446,1.932,1.932,0,0,0-.027-.332,2.042,2.042,0,0,0-3.46-1.11l-1.431,1.431a2.042,2.042,0,1,0-2.887-2.887l-8.286,8.286-.023-.033a3.713,3.713,0,0,0-1.443-.9,3.753,3.753,0,0,0-1.938-.12,5.468,5.468,0,0,0,2.877,2.176v10.274a3.739,3.739,0,0,0,4.464,3.667,3.747,3.747,0,0,0,2.166,1.9l10.436-10.436A2.042,2.042,0,0,0,159.79,172.65Z" transform="translate(-124.517 -137.229)" fill="#ffae85"/>
      <path id="Trazado_12200" data-name="Trazado 12200" d="M199.154,175.757v-7.211a3.786,3.786,0,0,0-.5.419l-.023.033-8.286-8.286a2.044,2.044,0,0,0-2.889,0,2.02,2.02,0,0,0-.571,1.119,2.042,2.042,0,0,0,.573,1.771l-1.431-1.431a2.041,2.041,0,0,0-3.46,1.11,1.958,1.958,0,0,0-.027.332,2.042,2.042,0,0,0,.6,1.446l1.249,1.249a2.038,2.038,0,0,0-3.266,1.285,2,2,0,0,0-.026.327,2.035,2.035,0,0,0,.6,1.444l3.283,3.283a2.042,2.042,0,1,0-2.887,2.887l8.541,8.541a3.756,3.756,0,0,0,.7.066,3.7,3.7,0,0,0,2.185-.707,3.766,3.766,0,0,0,.456-.388,3.712,3.712,0,0,0,1.093-2.643v-.92c.115.011.231.016.348.016A3.741,3.741,0,0,0,199.154,175.757Z" transform="translate(-161.249 -137.222)" fill="#ffae85"/>
      <path id="Trazado_12201" data-name="Trazado 12201" d="M167.2,81.6V99.631a2.042,2.042,0,0,1-2.041,2.045c-.03,0-.063,0-.1,0a2.02,2.02,0,0,1-1.1-.384h0a2.041,2.041,0,0,1-.847-1.657v4.643a2.038,2.038,0,0,1-.6,1.445,2.038,2.038,0,0,1-2.626.222,2.041,2.041,0,0,1-.841-1.411V106.3a2.041,2.041,0,0,1-.6,1.446,1.932,1.932,0,0,1-.254.216,2.042,2.042,0,0,1-3.232-1.662v-2.023a2.041,2.041,0,1,1-4.083,0V92.556l-.039.007a3.734,3.734,0,0,1-3.734-3.74V83.36a3.965,3.965,0,0,1,1.157-2.8l1.707-1.71a4.277,4.277,0,0,0,1.247-3.015V74.617h13.935v1.557a3.868,3.868,0,0,0,.134,1.053,4.245,4.245,0,0,0,.925,1.76A3.993,3.993,0,0,1,167.2,81.6Z" transform="translate(-130.989 -61.097)" fill="#fedfc5"/>
      <path id="Trazado_12202" data-name="Trazado 12202" d="M199.051,81.6V99.631a2.042,2.042,0,0,1-2.041,2.045c-.03,0-.063,0-.1,0a2.02,2.02,0,0,1-1.1-.384l.035-17.375a2.66,2.66,0,0,0-.068-.482,7.854,7.854,0,0,0-7.856-6.338h-5.045a4.251,4.251,0,0,0,.191-1.26V74.617h13.935v1.557a3.867,3.867,0,0,0,.134,1.053,4.245,4.245,0,0,0,.925,1.76A3.993,3.993,0,0,1,199.051,81.6Z" transform="translate(-162.839 -61.097)" fill="#fecbaa"/>
      <path id="Trazado_12203" data-name="Trazado 12203" d="M183.863,13.521H168.046a.944.944,0,0,1-.944-.944V6.944A.944.944,0,0,1,168.046,6h15.818a.944.944,0,0,1,.944.944v5.634A.944.944,0,0,1,183.863,13.521Z" transform="translate(-148.787)" fill="#83d9ff"/>
      <path id="Trazado_12204" data-name="Trazado 12204" d="M194.152,33.433a.846.846,0,1,0-.846.847A.846.846,0,0,0,194.152,33.433Z" transform="translate(-171.367 -23.672)" fill="#5186ff"/>
      <g id="Grupo_24905" data-name="Grupo 24905" transform="translate(18.204 26.578)">
        <path id="Trazado_12205" data-name="Trazado 12205" d="M287.116,209.878v11.093a2.04,2.04,0,0,1-.847-1.658v4.643a2.037,2.037,0,0,1-.6,1.445,1.983,1.983,0,0,1-.25.212V209.878a.847.847,0,0,1,1.694,0Z" transform="translate(-272.344 -207.358)" fill="#fecbaa"/>
        <path id="Trazado_12206" data-name="Trazado 12206" d="M249.979,209.878v15.745a2.041,2.041,0,0,1-.841-1.41v1.767a2.04,2.04,0,0,1-.6,1.446,1.939,1.939,0,0,1-.254.216V209.878a.847.847,0,1,1,1.694,0Z" transform="translate(-239.277 -207.358)" fill="#fecbaa"/>
        <path id="Trazado_12207" data-name="Trazado 12207" d="M212.764,209.878v17.759a2.041,2.041,0,0,1-.847-1.657v-2.024a2.041,2.041,0,0,1-.847,1.658V209.878a.847.847,0,1,1,1.694,0Z" transform="translate(-206.141 -207.358)" fill="#fecbaa"/>
        <path id="Trazado_12208" data-name="Trazado 12208" d="M167.788,194.609v4.034l-.04.006a3.715,3.715,0,0,1-1.654-.386v-3.655a.847.847,0,1,1,1.694,0Z" transform="translate(-166.094 -193.762)" fill="#fecbaa"/>
      </g>
    </g>
  </g>
</svg>
