<svg xmlns="http://www.w3.org/2000/svg" width="65" height="65" viewBox="0 0 65 65">
  <g id="Grupo_25041" data-name="Grupo 25041" transform="translate(-709 -8445)">
    <rect id="Rectángulo_5787" data-name="Rectángulo 5787" width="65" height="65" rx="32.5" transform="translate(709 8445)" fill="#f0f0f0"/>
    <g id="Grupo_25020" data-name="Grupo 25020" transform="translate(716.902 8450.998)">
      <path id="Trazado_12320" data-name="Trazado 12320" d="M31.741,69.146c-1.585-1.082-4.585-2.249-4.41-4.614V62.154l-10.268-2.13L6.294,62.154v2.378C6.435,68.31.178,68.2.32,71.975v3.974l2.62,13.676L.32,99.99v3.562a3.339,3.339,0,0,0,3.339,3.339H29.966a3.339,3.339,0,0,0,3.339-3.339L31.522,85.807l1.783-9.858V71.975A3.339,3.339,0,0,0,31.741,69.146Z" transform="translate(-0.276 -53.8)" fill="#f7e365"/>
      <g id="Grupo_25018" data-name="Grupo 25018" transform="translate(0.042 6.225)">
        <path id="Trazado_12321" data-name="Trazado 12321" d="M8.441,65.6v-.152a1.175,1.175,0,0,1,1.175-1.175H27.342V62.158l-10.269-2.13L6.3,62.158v2.378c.13,2.113-2.107,3.185-3.618,4.117h0A3.782,3.782,0,0,0,.331,71.978v3.974l2.136,8.862V73.046c-.142-3.778,6.115-3.664,5.974-7.442Z" transform="translate(-0.33 -60.028)" fill="#f4d242"/>
        <path id="Trazado_12322" data-name="Trazado 12322" d="M32.121,361.9H5.813a3.338,3.338,0,0,1-3.338-3.339V346.921L.339,357.137V360.7a3.359,3.359,0,0,0,3.338,3.339H29.985a3.338,3.338,0,0,0,3.174-2.3A3.33,3.33,0,0,1,32.121,361.9Z" transform="translate(-0.337 -317.172)" fill="#f4d242"/>
        <path id="Trazado_12323" data-name="Trazado 12323" d="M20.947,299.061v4.963l.556-2.658Z" transform="translate(-18.809 -274.275)" fill="#f4d242"/>
      </g>
      <path id="Trazado_12324" data-name="Trazado 12324" d="M33.029,237.64H.009l1.1-11.75L.009,213.6h33.02Z" transform="translate(0 -191.45)" fill="#edf4ff"/>
      <path id="Trazado_12325" data-name="Trazado 12325" d="M.344,213.6H2.48v24.041H.344Z" transform="translate(-0.3 -191.446)" fill="#dbeaff"/>
      <path id="Trazado_12326" data-name="Trazado 12326" d="M97.639,257.22H93.918a.214.214,0,0,1-.214-.214v-3.721a2.065,2.065,0,0,0-1.961-2.082,2.03,2.03,0,0,0-2.1,2.029v3.775a.214.214,0,0,1-.214.214H85.563a2.065,2.065,0,0,0-2.082,1.961,2.03,2.03,0,0,0,2.029,2.1h4.133v4.08a2.065,2.065,0,0,0,1.961,2.082,2.03,2.03,0,0,0,2.1-2.029v-3.92a.214.214,0,0,1,.214-.214h3.775a2.03,2.03,0,0,0,2.029-2.1,2.065,2.065,0,0,0-2.082-1.961Z" transform="translate(-74.815 -225.154)" fill="#df646e"/>
      <path id="Trazado_12327" data-name="Trazado 12327" d="M92.1,333.423a2.036,2.036,0,0,1-.519.044,2.072,2.072,0,0,1-1.939-2.092v-3.856a.214.214,0,0,0-.214-.214H85.51a2.031,2.031,0,0,1-2.029-2.122,1.947,1.947,0,0,1,.041-.318,2.025,2.025,0,0,0,1.561.732h6.056a.214.214,0,0,1,.214.214V331.8a2.123,2.123,0,0,0,.749,1.621Z" transform="translate(-74.815 -291.178)" fill="#dc4955"/>
      <path id="Trazado_12328" data-name="Trazado 12328" d="M142.8,251.413a2,2,0,0,0-.022.3V257.2a.214.214,0,0,1-.214.214h-1.709a.214.214,0,0,0,.214-.214v-3.775a2.034,2.034,0,0,1,.9-1.682,0,0,0,0,1,0,0,2.023,2.023,0,0,1,.835-.325Z" transform="translate(-126.245 -225.343)" fill="#dc4955"/>
      <path id="Trazado_12329" data-name="Trazado 12329" d="M263.583,449.007a3.338,3.338,0,0,1-3.121,3.332,9.056,9.056,0,0,1-3.225-6.893h5.988Z" transform="translate(-230.555 -399.255)" fill="#f4d242"/>
      <path id="Trazado_12330" data-name="Trazado 12330" d="M263.583,234.291v21.9h-6.346v-13.24a9.092,9.092,0,0,1,5.933-8.515Q263.373,234.357,263.583,234.291Z" transform="translate(-230.555 -209.996)" fill="#dbeaff"/>
      <path id="Trazado_12331" data-name="Trazado 12331" d="M291.719,370.691v6.5a6.941,6.941,0,0,1-10.63,5.878c-1.952-1.228-2.212-3.272-2.212-5.749l-1.037-6.628,6.939-1.354Z" transform="translate(-249.022 -331.038)" fill="#dbeaff"/>
      <path id="Trazado_12332" data-name="Trazado 12332" d="M291.719,257.785v6.7H277.841v-6.7a6.939,6.939,0,1,1,13.878,0Z" transform="translate(-249.022 -224.835)" fill="#df646e"/>
      <path id="Trazado_12333" data-name="Trazado 12333" d="M285.848,384.047a6.942,6.942,0,0,1-8.007-6.857v-6.5l1.037-1.354,1.1,1.354v6.5A6.94,6.94,0,0,0,285.848,384.047Z" transform="translate(-249.022 -331.039)" fill="#bed8fb"/>
      <path id="Trazado_12334" data-name="Trazado 12334" d="M285.848,250.928a6.94,6.94,0,0,0-5.871,6.857v6.7h-2.136v-6.7a6.942,6.942,0,0,1,8.007-6.857Z" transform="translate(-249.022 -224.835)" fill="#dc4955"/>
      <path id="Trazado_12335" data-name="Trazado 12335" d="M364.414,345.106v3.867h-5.468A9.924,9.924,0,0,1,364.414,345.106Z" transform="translate(-321.717 -309.321)" fill="#dc4955"/>
      <path id="Trazado_12336" data-name="Trazado 12336" d="M348.911,382.4v6.5a6.94,6.94,0,0,1-4.164,6.362,9.88,9.88,0,0,1-1.3-12.861Z" transform="translate(-306.214 -342.746)" fill="#bed8fb"/>
      <path id="Trazado_12337" data-name="Trazado 12337" d="M374.349,377.787c-4.288,0-7.263-3.476-7.263-7.763s2.975-7.763,7.263-7.763a7.763,7.763,0,1,1,0,15.527Z" transform="translate(-329.013 -324.696)" fill="#edf4ff"/>
      <path id="Trazado_12338" data-name="Trazado 12338" d="M375.211,377.028a7.765,7.765,0,0,1-11.615-5.14c-.1-.49.6-1,.6-1.514s-.7-1.024-.6-1.514a7.768,7.768,0,0,1,6.819-6.208,7.764,7.764,0,0,0,4.8,14.377Z" transform="translate(-325.877 -325.046)" fill="#dbeaff"/>
      <path id="Trazado_12339" data-name="Trazado 12339" d="M378.941,424.039a7.686,7.686,0,0,1-.148,1.514h-15.23c-.1-.487.353-1,.353-1.514s-.451-1.027-.353-1.514h15.23a7.784,7.784,0,0,1,.148,1.515Z" transform="translate(-325.843 -378.711)" fill="#dbeaff"/>
      <path id="Trazado_12340" data-name="Trazado 12340" d="M365.9,425.552h-3.5a7.8,7.8,0,0,1,0-3.028h3.069c-.008.148-.013.3-.013.446A7.74,7.74,0,0,0,365.9,425.552Z" transform="translate(-324.682 -378.711)" fill="#bed8fb"/>
      <path id="Trazado_12341" data-name="Trazado 12341" d="M63.6,8.337H60.528l-.773-.695-.83.695H55.574L54.8,7.642l-.83.695H50.621l-.645-.695-.958.695h-3.35l-.875-.695-.728.695H40.95a1.068,1.068,0,0,1-1.068-1.068v-6.2A1.068,1.068,0,0,1,40.95,0h3.116l.779.606L45.669,0h3.35L49.8.606,50.621,0h3.351l.779.606L55.574,0h3.351L59.7.606,60.528,0H63.6a1.068,1.068,0,0,1,1.068,1.068v6.2A1.068,1.068,0,0,1,63.6,8.337Z" transform="translate(-35.738)" fill="#edf4ff"/>
      <g id="Grupo_25019" data-name="Grupo 25019" transform="translate(4.144)">
        <path id="Trazado_12342" data-name="Trazado 12342" d="M42.018,1.068v6.2a1.069,1.069,0,0,0,1.068,1.068H40.95a1.069,1.069,0,0,1-1.068-1.068v-6.2A1.069,1.069,0,0,1,40.95,0h2.136A1.069,1.069,0,0,0,42.018,1.068Z" transform="translate(-39.882)" fill="#dbeaff"/>
        <path id="Trazado_12343" data-name="Trazado 12343" d="M80.234,0h1.6V8.338h-1.6Z" transform="translate(-76.05)" fill="#dbeaff"/>
        <path id="Trazado_12344" data-name="Trazado 12344" d="M127.992,0h1.6V8.338h-1.6Z" transform="translate(-118.856)" fill="#dbeaff"/>
        <path id="Trazado_12345" data-name="Trazado 12345" d="M175.761,0h1.6V8.338h-1.6Z" transform="translate(-161.671)" fill="#dbeaff"/>
        <path id="Trazado_12346" data-name="Trazado 12346" d="M223.53,0h1.6V8.338h-1.6Z" transform="translate(-204.487)" fill="#dbeaff"/>
      </g>
    </g>
  </g>
</svg>
